/* XPM */
static char * file_dot_xcf_xpm[] = {
"48 48 190 2",
"  	c None",
" .	c #040204",
" +	c #ACAAAC",
" @	c #FCFEFC",
" #	c #A4A6A4",
" $	c #000000",
" %	c #E5E5E5",
" &	c #C4C6C4",
" *	c #343634",
" =	c #6C6E6C",
" -	c #E4E2E4",
" ;	c #1C1A1C",
" >	c #1C1E1C",
" ,	c #8C8A8C",
" '	c #8C8E8C",
" )	c #747274",
" !	c #545654",
" ~	c #3C3A3C",
" {	c #949294",
" ]	c #545254",
" ^	c #DCDEDC",
" /	c #343A34",
" (	c #FCFAFC",
" _	c #F4F6F4",
" :	c #F4F2F4",
" <	c #ECEEEC",
" [	c #E4E6E4",
" }	c #ECEAEC",
" |	c #D4D6D4",
" 1	c #DCDADC",
" 2	c #D4D2D4",
" 3	c #F4EEEC",
" 4	c #ECE6E4",
" 5	c #E4DEDC",
" 6	c #CCCECC",
" 7	c #DCD6D4",
" 8	c #B4AEAC",
" 9	c #C4C2C4",
" 0	c #B4B2B4",
" a	c #D4CEC4",
" b	c #ACA294",
" c	c #94928C",
" d	c #7C7E7C",
" e	c #CCCACC",
" f	c #DCD2C4",
" g	c #D4CAC4",
" h	c #C4BAB4",
" i	c #7C7664",
" j	c #847E74",
" k	c #5C5E5C",
" l	c #ECE2DC",
" m	c #B4AA9C",
" n	c #B4B2AC",
" o	c #C4BEBC",
" p	c #847E6C",
" q	c #6C6654",
" r	c #64625C",
" s	c #A4A2A4",
" t	c #BCB2A4",
" u	c #A4967C",
" v	c #ACA694",
" w	c #848274",
" x	c #5C5A4C",
" y	c #242224",
" z	c #5C5A5C",
" A	c #CCC6C4",
" B	c #A49684",
" C	c #8C866C",
" D	c #948E84",
" E	c #C4C2BC",
" F	c #DCDAD4",
" G	c #ACAAA4",
" H	c #7C7A64",
" I	c #6C6254",
" J	c #645E4C",
" K	c #5C5644",
" L	c #2C2A2C",
" M	c #74726C",
" N	c #BCBABC",
" O	c #D4CECC",
" P	c #948A74",
" Q	c #847A64",
" R	c #84826C",
" S	c #ACA6A4",
" T	c #BCBAB4",
" U	c #9C968C",
" V	c #7C7264",
" W	c #5C5E44",
" X	c #BCBEBC",
" Y	c #BCB6B4",
" Z	c #BCB6AC",
" `	c #9C927C",
". 	c #8C826C",
"..	c #7C725C",
".+	c #E4DADC",
".@	c #6C6A54",
".#	c #64624C",
".$	c #545244",
".%	c #54564C",
".&	c #444244",
".*	c #94969C",
".=	c #CCC2BC",
".-	c #A49E94",
".;	c #9C8A74",
".>	c #8C7E6C",
".,	c #847664",
".'	c #9C8E84",
".)	c #8C867C",
".!	c #5C5A44",
".~	c #5C5244",
".{	c #242624",
".]	c #4C4A4C",
".^	c #9C9E9C",
"./	c #C4BEAC",
".(	c #948E7C",
"._	c #8C8A74",
".:	c #74725C",
".<	c #646654",
".[	c #645A4C",
".}	c #4C4E3C",
".|	c #54523C",
".1	c #544E3C",
".2	c #A4A29C",
".3	c #A49E9C",
".4	c #ECEAE4",
".5	c #B4B6B4",
".6	c #64664C",
".7	c #4C4A34",
".8	c #444234",
".9	c #4C4634",
".0	c #444634",
".a	c #141614",
".b	c #848284",
".c	c #646664",
".d	c #2C2E2C",
".e	c #ACAEAC",
".f	c #4C463C",
".g	c #443E34",
".h	c #3C3A2C",
".i	c #3C362C",
".j	c #3C3E3C",
".k	c #7C7A7C",
".l	c #8C8274",
".m	c #4C4E4C",
".n	c #4C524C",
".o	c #443A2C",
".p	c #2C2A24",
".q	c #5C5A54",
".r	c #A49A94",
".s	c #746E5C",
".t	c #2C2E24",
".u	c #444A44",
".v	c #847A6C",
".w	c #A4A294",
".x	c #CCCAC4",
".y	c #544A44",
".z	c #343624",
".A	c #24221C",
".B	c #343234",
".C	c #3C423C",
".D	c #545A54",
".E	c #746A54",
".F	c #8C8674",
".G	c #44422C",
".H	c #9C9A9C",
".I	c #5C564C",
".J	c #545644",
".K	c #3C3E34",
".L	c #24261C",
".M	c #14120C",
".N	c #949694",
".O	c #848684",
".P	c #4C4A3C",
".Q	c #0C0A0C",
".R	c #34322C",
".S	c #3C3A34",
".T	c #0C0E0C",
".U	c #747674",
".V	c #8C8A84",
".W	c #343224",
".X	c #242A1C",
".Y	c #3C4234",
".Z	c #646254",
".`	c #1C1E14",
"+ 	c #444644",
"+.	c #0C120C",
"++	c #4C4A44",
"+@	c #342E24",
"+#	c #040604",
"+$	c #1C1A14",
" . . . . . . . . . . . . . . . . . . . . . . . . . . . . . . . . . . . . . . . . . . . . . . . .",
" . . . . . . . . . . . . . . . . . . . . . . . . . . . . . . . . . . . . . . . . . . . + @ # . .",
" . . $ $ % $ % $ $ $ . . . . . . . . . . . . . . . . . . . . . . . . . . . . . . . . . @ & . . .",
" . . % $ $ $ $ $ % $ . . . . . . . . . . . . . . . . . . * + = . * + * . . * + = . . + @ - = . .",
" . . $ $ % % % $ $ $ . . . . . . . . . . . . . . . . . . ; - @ > & - ; . , @ @ @ ' . # @ - ) . .",
" . . $ % $ $ $ % $ $ . . . . . . . . . . . . . . . . . . . ! @ & @ * . > @ ' . ' @ . . @ + . . .",
" . . % $ $ % $ $ % $ . . . . . . . . . . . . . . . . . . . . ~ @ { . . ] @ . . . . . . @ + . . .",
" . . $ % $ $ $ % $ $ . . . . . . . . . . . . . . . . . . . ; @ @ ^ ; . ! @ * . / # . . @ # . . .",
" . . $ $ % % % $ $ $ . . . . . . . . . . . . . . . * + = . ' @ { @ ) . ; @ - ! + - . . @ + . . .",
" . . % $ $ $ $ $ % $ . . . . . . . . . . . . . . . ! @ + * @ - . ' @ * . ! & @ - * . . @ + . . .",
" . . $ $ % $ % $ $ $ . . . . . . . . . . . . . . . . . . . . . . . . . . . . . . . . . . . . . .",
" . . $ $ $ $ $ $ $ $ . . . . . . . . . . . . . . . . . . . . . . . . . . . . . . . . . . . . . .",
" . . . . . . . . . . . . . . . . . . . . . . . . . . . . . . . . . . . . . . . . . . . . . . . .",
" . @ @ @ @ @ @ @ @ @ @ @ ( @ _ ( _ _ _ : _ < : < < < < [ } [ [ [ - [ ^ - ^ ^ ^ ^ | 1 | | | | 2 .",
" . @ @ @ @ @ @ @ @ @ @ @ @ ( ( ( _ _ _ _ : : < 3 < } } < } [ 4 [ [ - - ^ 5 ^ ^ 1 ^ 1 | 1 | 2 2 .",
" . @ @ @ @ @ @ @ @ @ @ @ ( ( ( _ ( _ _ : < : < < } < } [ } [ [ [ - - ^ - ^ ^ ^ 1 | 1 | | 2 | 6 .",
" . @ @ @ @ @ @ @ @ @ @ ( ( _ _ _ : : : : < < : < } } [ } [ [ - - - ^ ^ ^ ^ 1 1 1 | 7 | 2 2 2 2 .",
" . @ @ @ @ @ @ @ @ @ ( ( ( _ ( _ _ _ : < : < < < [ } } [ [ [ [ ^ - ^ 5 ^ ^ 1 1 2 8 2 | 2 | 6 6 .",
" . @ @ @ @ @ @ @ @ ( ( _ ( _ _ : < : < : < < } } } [ [ [ - - - - ^ ^ ^ 1 1 1 | 9 8 0 & 2 6 2 6 .",
" . @ @ @ @ @ @ @ ( ( ( ( _ _ : a 3 < < < < } } [ } [ 4 [ - - - ^ 5 ^ ^ 1 1 | 6 b c d 0 e 2 6 6 .",
" . @ @ @ @ @ @ ( ( _ _ _ _ : 5 f g 1 } < } } } [ [ [ [ - - ^ ^ ^ ^ ^ 1 1 | 6 h i j k # e 6 6 e .",
" . @ @ @ @ @ ( @ _ ( ( _ _ : 3 l m n | } < [ } [ 4 [ - - - ^ - ^ ^ 1 | 2 | o p q r ! s e 6 6 e .",
" . @ @ @ @ ( ( ( _ ( : : : < | 1 t u v 2 - } [ [ [ - - ^ - ^ ^ 1 1 1 ^ 5 o w q x y z # e e e e .",
" . @ @ @ @ ( _ ( _ _ _ : : < 6 | A B C D E 1 - [ [ - ^ - ^ ^ 1 ^ 1 | F G H I J K L M 0 & e e & .",
" . @ @ ( ( ( ( _ _ _ : : < < 1 N O b P Q R S 1 2 ^ - ^ - ^ 1 } - 1 T U V q W K K ~ ' X e e & e .",
" . @ @ ( _ ( _ _ _ : : < : < - Y 2 Z `. .. i D n A 2.+ ^ - 7 A # D Q.@.# J x.$.%.&.* & & e & & .",
" . ( ( ( ( _ _ ( : : < : < < } 6 ^.=.-.;.>., Q P P.' c `.) H.. q.# J J x.!.~ K.{.].^ 9 e & e & .",
" . @ _ ( _ _ _ : < : 2 2 2 ^ - } : : 4./.(.- 7 3 }.=._.:.< J.[ K K.~.}.|.1.} > > k # 9 e & & 9 .",
" . _ ( _ _ ( : : [ 5 N.2.3 X [.4 }.5.3 7 A 3 _ [ F } E p.6 J K.}.7.8.9.0.8 >.a.&.b.5 & & & & 9 .",
" . _ ( _ _ : : < -.5.b.c.] z c E A !.d.e.4 ( ^ U =.e 2. .#.!.1.f.g.h.h.i ; ;.j.k.e 9 & A 9 & X .",
" . _ _ : _ : < : | d.b #.c *.j.l T.m.n S.+ : Y !.d.k o w J K.}.8.o /.i.p.a.j.k # X & A & 9 9 9 .",
" . _ _ : : : < } e z ).* k * /.q U U.r B m - X.] / ' G.s W.|.9.g.h.i.t ; * ) # X A & & 9 & X X .",
" . : _ : : < : [ 6 ].u z.&.j.u.%.:.v R. . .w.x N 0 S.v.# K.y.9.g.i.z.t.A z.^ X A & & 9 X 9 X 9 .",
" . _ : < : < < } | r.B /.C.].D r.#.E.: i i i.l.F j.s J ].0.9.G.h.h.z.p * d 0 9 & & 9 9 9 9 X N .",
" . : : < : < < [ e.H.&.C.] z.c =.I.!.6.E.@.@.@ I.# x.J.G.K.8.h.h.z.L.M.].N X & & 9 9 X X X X X .",
" . : < 3 < < } [ 9 s.O ! k.c.k r.P.} K J.#.# J.! K.}.h.g.J.0.h.i.t.Q L.c # 9 & 9 & X 9 9 X X N .",
" . < < < < } } [ 6 '.b.* d M.@.$.8.P.P.1.~.|.f.8.i.R.S.D.<.g.z.A.T > ] { Y 9 & 9 9 X 9 X N N N .",
" . < 3 < < } } 4 1 N.k.U.V.V.%.h.W.W.W.t.p.X.p.p.R.Y.J.Z.J.h.`.Q ;+ .O 0 X & 9 X 9 X X N X N.5 .",
" . < < } } [ [ [ [ |.5.k.m ~.j k.S.a+..T.M.`.t /.}.q.[+++@.M.Q.L.m d + X & 9 9 X 9 X X N N.5 N .",
" . < < } } } } [ [ - | 0.O z.j L ;.z.&.t.{.{.t.W.i.p.a+#+#.T L !.) + X 9 & X 9 X X X N N N.5.5 .",
" . } } [ [ [ [ [ - - ^ | 9 # { ).n ~ y L.d y ;+$.T.Q.T >.B.&.c {.e 9 9 9 9 X 9 X X N N.5.5 N.5 .",
" . < [ } [ 4 [ - - - ^ 5 | 2 & N # ' =.m.d >.a.a > L.& k d.* # N X 9 & 9 X o X X N N N N.5.5 0 .",
" . [ } [ [ [ - - ^ - ^ ^ 1 1 | | O &.5.H.k k ! ] k ) { #.5 o 9 9 & & X 9 X X X N N.5.5.5.5.5 0 .",
" . } [ 4 [ - [ ^ - ^ ^ ^ 1 1 1 1 | | 6 A.5 + s s # 0 X 9 & & & & 9 9 9 X X X X N N N.5 N 0.5.e .",
" . [ [ [ [ - - ^ - ^ 1 1 1 | | | | | 2 2 6 e e & & A & e & & 9 9 X 9 X X o N N.5.5.5 Y.5 0 0 0 .",
" . [ [ [ - ^ - ^ ^ 1 ^ 1 1 | 7 | 2 2 2 2 6 6 6 6 e e & A & & 9 9 & X X X N X.5 N N.5 0.5.e 0.e .",
" . - [ - - ^ 5 ^ ^ 1 1 | | | | | 2 2 6 6 6 6 e e & e & & 9 9 9 X 9 X X X N N N.5.5.5 0 0 0.e.e .",
" . . . . . . . . . . . . . . . . . . . . . . . . . . . . . . . . . . . . . . . . . . . . . . . ."};
