/* XPM */
static char * file_dot_a_xpm[] = {
"48 48 668 2",
"  	c None",
". 	c #000000",
"+ 	c #E5E5E5",
"@ 	c #AAAAAA",
"# 	c #E2E2E2",
"$ 	c #FFFFFF",
"% 	c #C6C6C6",
"& 	c #383838",
"* 	c #717171",
"= 	c #1C1C1C",
"- 	c #8D8D8D",
"; 	c #555555",
"> 	c #FDFDFD",
", 	c #FCFCFC",
"' 	c #FBFBFB",
") 	c #FAFAFA",
"! 	c #F8F8F8",
"~ 	c #F7F7F7",
"{ 	c #F6F6F6",
"] 	c #F5F5F5",
"^ 	c #F4F4F4",
"/ 	c #F2F2F2",
"( 	c #F1F1F1",
"_ 	c #F0F0F0",
": 	c #EFEFEF",
"< 	c #EEEEEE",
"[ 	c #ECECEC",
"} 	c #EBEBEB",
"| 	c #EAEAEA",
"1 	c #E9E9E9",
"2 	c #E8E8E8",
"3 	c #E6E6E6",
"4 	c #E4E4E4",
"5 	c #E3E3E3",
"6 	c #E1E1E1",
"7 	c #E0E0E0",
"8 	c #DFDFDF",
"9 	c #DEDEDE",
"0 	c #DDDDDD",
"a 	c #DBDBDB",
"b 	c #DADADA",
"c 	c #D9D9D9",
"d 	c #D8D8D8",
"e 	c #D7D7D7",
"f 	c #D5D5D5",
"g 	c #D4D4D4",
"h 	c #F9F9F9",
"i 	c #D3D3D3",
"j 	c #F3F3F3",
"k 	c #E7E7E7",
"l 	c #DCDCDC",
"m 	c #D2D2D2",
"n 	c #EAE9EA",
"o 	c #D6D2D6",
"p 	c #C5B3C5",
"q 	c #BC8FBC",
"r 	c #D27AD2",
"s 	c #DA74D9",
"t 	c #D872D7",
"u 	c #CB7DCB",
"v 	c #BE91BD",
"w 	c #BEAEBD",
"x 	c #C9C7C9",
"y 	c #D6D6D6",
"z 	c #D1D1D1",
"A 	c #FEFEFE",
"B 	c #D3C5D3",
"C 	c #CA91CA",
"D 	c #E468E3",
"E 	c #F34FF0",
"F 	c #F344F0",
"G 	c #F23DF0",
"H 	c #EE3EEB",
"I 	c #ED3FE9",
"J 	c #EF40E9",
"K 	c #EE41E4",
"L 	c #E747E0",
"M 	c #BF59BB",
"N 	c #A883A6",
"O 	c #B8B5B8",
"P 	c #D0D0D0",
"Q 	c #E5E2E5",
"R 	c #C5A0C5",
"S 	c #EE66EE",
"T 	c #F14CF0",
"U 	c #EC41E5",
"V 	c #E33EDC",
"W 	c #DD3BDA",
"X 	c #DD37D9",
"Y 	c #D834D8",
"Z 	c #DB36D3",
"` 	c #DB32D0",
" .	c #DE37D0",
"..	c #E13AD7",
"+.	c #E739DE",
"@.	c #E23BD7",
"#.	c #AA53A5",
"$.	c #9C8B9B",
"%.	c #C3C3C3",
"&.	c #CECECE",
"*.	c #E0DBE0",
"=.	c #D18ED1",
"-.	c #F153EF",
";.	c #EC3FE9",
">.	c #E436D9",
",.	c #DC33D1",
"'.	c #D832CD",
").	c #D732D0",
"!.	c #D635CF",
"~.	c #D333D5",
"{.	c #D330D2",
"].	c #D632CE",
"^.	c #DA35CE",
"/.	c #DB36D1",
"(.	c #DC35D3",
"_.	c #DD34D8",
":.	c #DA32D3",
"<.	c #AE3DA9",
"[.	c #8B708A",
"}.	c #B8B7B8",
"|.	c #CFCFCF",
"1.	c #CDCDCD",
"2.	c #E2DFE2",
"3.	c #D08BD0",
"4.	c #F052EE",
"5.	c #E73FE0",
"6.	c #DA38D6",
"7.	c #D831CF",
"8.	c #DC37CF",
"9.	c #D835C9",
"0.	c #C631BB",
"a.	c #C02FB6",
"b.	c #B62BB4",
"c.	c #B92EBB",
"d.	c #C530BF",
"e.	c #D034C7",
"f.	c #D936CE",
"g.	c #DA33D1",
"h.	c #DA31D4",
"i.	c #D932D2",
"j.	c #D436CC",
"k.	c #A837A3",
"l.	c #7E677D",
"m.	c #B4B4B4",
"n.	c #CCCCCC",
"o.	c #ECEBEC",
"p.	c #CA9ACA",
"q.	c #EE51EA",
"r.	c #E33FE1",
"s.	c #DA37D0",
"t.	c #D831CD",
"u.	c #D831CB",
"v.	c #C430BE",
"w.	c #9D2895",
"x.	c #631B5F",
"y.	c #5B215A",
"z.	c #4D2351",
"A.	c #59255D",
"B.	c #71226E",
"C.	c #952793",
"D.	c #BE2EBB",
"E.	c #D231C9",
"F.	c #D535D0",
"G.	c #DD36D5",
"H.	c #D834D0",
"I.	c #CC34C2",
"J.	c #90348B",
"K.	c #7C717B",
"L.	c #BABABA",
"M.	c #CBCBCB",
"N.	c #D9D3D9",
"O.	c #C36CC2",
"P.	c #C63CC6",
"Q.	c #D135D1",
"R.	c #D134CF",
"S.	c #CF33CB",
"T.	c #A628A2",
"U.	c #601B5F",
"V.	c #3B2A41",
"W.	c #3B5751",
"X.	c #528474",
"Y.	c #58907C",
"Z.	c #588D7B",
"`.	c #568277",
" +	c #545F69",
".+	c #703476",
"++	c #AA2CA9",
"@+	c #D234CC",
"#+	c #D733CF",
"$+	c #C92FBD",
"%+	c #91248C",
"&+	c #571F55",
"*+	c #6A4F69",
"=+	c #9C9B9C",
"-+	c #CACACA",
";+	c #EFE7EE",
">+	c #DAB9D9",
",+	c #8B4B88",
"'+	c #962993",
")+	c #BA2DBA",
"!+	c #A827A7",
"~+	c #4C2053",
"{+	c #38554E",
"]+	c #58947E",
"^+	c #65AB91",
"/+	c #67AF94",
"(+	c #65AD92",
"_+	c #65AC92",
":+	c #5F9986",
"<+	c #715B7F",
"[+	c #AC35A7",
"}+	c #B028AB",
"|+	c #6C1B66",
"1+	c #4C1A49",
"2+	c #5E2F5D",
"3+	c #AB46A9",
"4+	c #7B657A",
"5+	c #B0B0B0",
"6+	c #C9C9C9",
"7+	c #CEC1CE",
"8+	c #E960E9",
"9+	c #D455D1",
"0+	c #9B5D98",
"a+	c #7A3E79",
"b+	c #7F2879",
"c+	c #5F215D",
"d+	c #39544F",
"e+	c #5D9F87",
"f+	c #61A18A",
"g+	c #715C82",
"h+	c #501A51",
"i+	c #491E49",
"j+	c #883886",
"k+	c #E64BE1",
"l+	c #D63ACE",
"m+	c #7E3B7B",
"n+	c #878587",
"o+	c #C8C8C8",
"p+	c #F0EDF0",
"q+	c #C29CC2",
"r+	c #F14BEE",
"s+	c #E03FDB",
"t+	c #D33CCD",
"u+	c #B043AB",
"v+	c #853E82",
"w+	c #534E63",
"x+	c #5B9B84",
"y+	c #5F9885",
"z+	c #5D3260",
"A+	c #B23AB1",
"B+	c #E544E2",
"C+	c #E43ED9",
"D+	c #D333CB",
"E+	c #962990",
"F+	c #5D555D",
"G+	c #A4A4A4",
"H+	c #C7C7C7",
"I+	c #EDE4ED",
"J+	c #CC7BCA",
"K+	c #EE44E6",
"L+	c #D93BD5",
"M+	c #DA36D8",
"N+	c #D137CB",
"O+	c #893188",
"P+	c #5C857D",
"Q+	c #67AE94",
"R+	c #67B094",
"S+	c #66AF93",
"T+	c #8F7DA7",
"U+	c #DC36D8",
"V+	c #E038D9",
"W+	c #DA36D2",
"X+	c #D532CE",
"Y+	c #A6289F",
"Z+	c #4A3449",
"`+	c #8E8E8E",
" @	c #BFBFBF",
".@	c #C5C5C5",
"+@	c #EADCE9",
"@@	c #DB64D9",
"#@	c #E83EE3",
"$@	c #D63AD2",
"%@	c #D631D3",
"&@	c #B72BB5",
"*@	c #4F2A56",
"=@	c #5D9D85",
"-@	c #68AF95",
";@	c #729F99",
">@	c #C14DC4",
",@	c #DF36D5",
"'@	c #D936D2",
")@	c #D534CD",
"!@	c #A6279C",
"~@	c #4B2248",
"{@	c #797979",
"]@	c #B5B5B5",
"^@	c #C4C4C4",
"/@	c #D9D2D9",
"(@	c #E35BDE",
"_@	c #EA40E1",
":@	c #DB39D1",
"<@	c #DA31CD",
"[@	c #B12DA9",
"}@	c #4F3858",
"|@	c #64AA90",
"1@	c #72AC9C",
"2@	c #C860CE",
"3@	c #E539DB",
"4@	c #DD36D3",
"5@	c #D733D0",
"6@	c #BC2CB5",
"7@	c #5A1F58",
"8@	c #696969",
"9@	c #ADADAD",
"0@	c #D1CCD1",
"a@	c #DF50DA",
"b@	c #E53DE0",
"c@	c #D934D5",
"d@	c #D733D2",
"e@	c #B326AA",
"f@	c #554261",
"g@	c #65AC91",
"h@	c #67AF95",
"i@	c #71AE9C",
"j@	c #BE6BD1",
"k@	c #DD39D9",
"l@	c #D436CD",
"m@	c #D531CF",
"n@	c #B92BB3",
"o@	c #4F1A4D",
"p@	c #5E5E5E",
"q@	c #A7A7A7",
"r@	c #C2C2C2",
"s@	c #D5CFD4",
"t@	c #D052C7",
"u@	c #DF37D3",
"v@	c #DE34D4",
"w@	c #DA34D5",
"x@	c #BF2CB6",
"y@	c #5C3C65",
"z@	c #65AA90",
"A@	c #67B095",
"B@	c #71AC9C",
"C@	c #AF5ABB",
"D@	c #5B3646",
"E@	c #38381F",
"F@	c #4F3D34",
"G@	c #242313",
"H@	c #322F1B",
"I@	c #414031",
"J@	c #A3A3A3",
"K@	c #C1C1C1",
"L@	c #E0D4E0",
"M@	c #C05FBD",
"N@	c #E63FDD",
"O@	c #DC35D1",
"P@	c #D735D0",
"Q@	c #D02EC7",
"R@	c #823983",
"S@	c #62A08A",
"T@	c #769A71",
"U@	c #D7D993",
"V@	c #1D1C0E",
"W@	c #494728",
"X@	c #CFCC74",
"Y@	c #5B5934",
"Z@	c #19180C",
"`@	c #17170C",
" #	c #3B3A20",
".#	c #A2A2A2",
"+#	c #C0C0C0",
"@#	c #E1DAE1",
"##	c #A26E9F",
"$#	c #DC38D2",
"%#	c #DA34D1",
"&#	c #D531D2",
"*#	c #D434CE",
"=#	c #AD30A5",
"-#	c #657C81",
";#	c #5F9073",
">#	c #F0EEB0",
",#	c #F7F4C9",
"'#	c #7A7849",
")#	c #C0BD65",
"!#	c #EFECAB",
"~#	c #F0ECAE",
"{#	c #302F19",
"]#	c #15140A",
"^#	c #565544",
"/#	c #515145",
"(#	c #919088",
"_#	c #BEBEBE",
":#	c #EDEDED",
"<#	c #E4E2E3",
"[#	c #A58EA4",
"}#	c #CE3BC7",
"|#	c #DA35D3",
"1#	c #D632CD",
"2#	c #D334CF",
"3#	c #C735C1",
"4#	c #824E8D",
"5#	c #66A28F",
"6#	c #5D9175",
"7#	c #536446",
"8#	c #CDCA74",
"9#	c #F5F2B8",
"0#	c #F0EDAD",
"a#	c #EDE8A2",
"b#	c #E8E397",
"c#	c #DFDA8A",
"d#	c #35341C",
"e#	c #36361D",
"f#	c #252514",
"g#	c #16160B",
"h#	c #13130A",
"i#	c #44442D",
"j#	c #BDBDBD",
"k#	c #C7B5C9",
"l#	c #B24AAD",
"m#	c #D932CF",
"n#	c #D737CE",
"o#	c #D537CF",
"p#	c #BA37BB",
"q#	c #87749B",
"r#	c #69AA94",
"s#	c #CAD390",
"t#	c #F6F4BF",
"u#	c #EEECA7",
"v#	c #E9E59C",
"w#	c #E3DF92",
"x#	c #D8D583",
"y#	c #C8C56D",
"z#	c #D7D682",
"A#	c #727045",
"B#	c #2D2B1A",
"C#	c #A1A19F",
"D#	c #BCBCBC",
"E#	c #D5D0D5",
"F#	c #986C96",
"G#	c #CD37C9",
"H#	c #D635D2",
"I#	c #DA37D2",
"J#	c #DE3AD4",
"K#	c #D930D0",
"L#	c #C043BE",
"M#	c #8978A2",
"N#	c #6FAD9A",
"O#	c #68B095",
"P#	c #6AB398",
"Q#	c #DDDB91",
"R#	c #EFEAA7",
"S#	c #EAE7A2",
"T#	c #E5E095",
"U#	c #DFDA8D",
"V#	c #D3D07D",
"W#	c #D1CB75",
"X#	c #CFCA73",
"Y#	c #C8C36D",
"Z#	c #BFBA66",
"`#	c #BAB55D",
" $	c #434124",
".$	c #646559",
"+$	c #BBBBBB",
"@$	c #BEABBD",
"#$	c #984394",
"$$	c #CE36C2",
"%$	c #D934D3",
"&$	c #D533D3",
"*$	c #DD32D5",
"=$	c #DC36CF",
"-$	c #D83ECF",
";$	c #C563CA",
">$	c #9493B4",
",$	c #82AEAC",
"'$	c #6EA496",
")$	c #79B1A4",
"!$	c #88B5B4",
"~$	c #AEA7D1",
"{$	c #AD58B6",
"]$	c #C5BF68",
"^$	c #E2DE92",
"/$	c #DCD788",
"($	c #C5C168",
"_$	c #404023",
":$	c #BDB860",
"<$	c #BBB662",
"[$	c #B7AF58",
"}$	c #948E4D",
"|$	c #292916",
"1$	c #2F2E18",
"2$	c #7C7C7B",
"3$	c #D1D0D1",
"4$	c #917C90",
"5$	c #953292",
"6$	c #C82DC4",
"7$	c #D736D2",
"8$	c #D735CF",
"9$	c #D838CF",
"0$	c #D836D6",
"a$	c #DE36DC",
"b$	c #DC41E0",
"c$	c #DA4FDD",
"d$	c #5F2C61",
"e$	c #9C4AA0",
"f$	c #E95AEC",
"g$	c #F046ED",
"h$	c #B84BA2",
"i$	c #DEDB8C",
"j$	c #D8D382",
"k$	c #D3CD79",
"l$	c #938F4E",
"m$	c #3E3C21",
"n$	c #A29F51",
"o$	c #B1AC56",
"p$	c #7F7D4A",
"q$	c #3E3D21",
"r$	c #B9B9B9",
"s$	c #C3BFC3",
"t$	c #896588",
"u$	c #943091",
"v$	c #C733C1",
"w$	c #D432CF",
"x$	c #D633CC",
"y$	c #D832D3",
"z$	c #DC35D6",
"A$	c #C32FBB",
"B$	c #511A4F",
"C$	c #A03799",
"D$	c #EE3BE1",
"E$	c #E133D6",
"F$	c #E7DBA2",
"G$	c #D6D37C",
"H$	c #CFCB73",
"I$	c #C9C56E",
"J$	c #A49F51",
"K$	c #585733",
"L$	c #31301A",
"M$	c #68653D",
"N$	c #ADAA54",
"O$	c #8D8C4E",
"P$	c #82804B",
"Q$	c #565631",
"R$	c #31311A",
"S$	c #403D21",
"T$	c #63633A",
"U$	c #B8B8B8",
"V$	c #B7B2B7",
"W$	c #7D5D7B",
"X$	c #852B7E",
"Y$	c #B12CAD",
"Z$	c #D132C6",
"`$	c #D733CE",
" %	c #D731D1",
".%	c #D731D2",
"+%	c #B527B3",
"@%	c #521C50",
"#%	c #A73BA3",
"$%	c #EA3BDD",
"%%	c #DD34D1",
"&%	c #C07C87",
"*%	c #CCC771",
"=%	c #BEB661",
"-%	c #9F9A50",
";%	c #1B1B0E",
">%	c #87854C",
",%	c #9A964F",
"'%	c #7A7949",
")%	c #717044",
"!%	c #69693E",
"~%	c #51512E",
"{%	c #575632",
"]%	c #7D7D72",
"^%	c #B6B6B6",
"/%	c #B2B0B2",
"(%	c #746673",
"_%	c #652F64",
":%	c #8B2486",
"<%	c #B12BA7",
"[%	c #C62FBF",
"}%	c #D031CB",
"|%	c #B82AB2",
"1%	c #4D1E4B",
"2%	c #A93FA5",
"3%	c #E139DB",
"4%	c #CE31C6",
"5%	c #972F90",
"6%	c #664849",
"7%	c #5A4A3B",
"8%	c #B3AD56",
"9%	c #A4A151",
"0%	c #B5B25A",
"a%	c #747245",
"b%	c #6B6940",
"c%	c #65633A",
"d%	c #514F2E",
"e%	c #383527",
"f%	c #B7B7B7",
"g%	c #837F83",
"h%	c #594758",
"i%	c #5B2757",
"j%	c #6E1E6B",
"k%	c #861E82",
"l%	c #90228A",
"m%	c #4C214A",
"n%	c #9D3E99",
"o%	c #A62AA0",
"p%	c #7B1C76",
"q%	c #4B124A",
"r%	c #371136",
"s%	c #4F4935",
"t%	c #98954F",
"u%	c #8D8A4E",
"v%	c #84824B",
"w%	c #787849",
"x%	c #6F6E42",
"y%	c #67653C",
"z%	c #5F5D36",
"A%	c #1F1F10",
"B%	c #5A5948",
"C%	c #A2A0A2",
"D%	c #827A82",
"E%	c #575257",
"F%	c #463545",
"G%	c #3F263D",
"H%	c #4B374A",
"I%	c #694A68",
"J%	c #463645",
"K%	c #332C32",
"L%	c #2F2D2F",
"M%	c #464046",
"N%	c #63634A",
"O%	c #757446",
"P%	c #767547",
"Q%	c #6A693F",
"R%	c #636138",
"S%	c #595732",
"T%	c #514E2E",
"U%	c #454326",
"V%	c #272714",
"W%	c #605F4D",
"X%	c #B3B3B3",
"Y%	c #919191",
"Z%	c #818181",
"`%	c #7F7F7F",
" &	c #8B8B8B",
".&	c #888888",
"+&	c #7A7A7A",
"@&	c #7C7C7C",
"#&	c #8A8A8A",
"$&	c #999999",
"%&	c #73735F",
"&&	c #5F5E55",
"*&	c #676753",
"=&	c #585833",
"-&	c #54522F",
";&	c #35351C",
">&	c #2C2B17",
",&	c #383A1F",
"'&	c #6D6D57",
")&	c #B2B2B2",
"!&	c #9C9C99",
"~&	c #444125",
"{&	c #403F23",
"]&	c #3F3C2B",
"^&	c #56564B",
"/&	c #959492",
"(&	c #B1B1B1",
"_&	c #AFAFAF",
". . . . . . . . . . . . . . . . . . . . . . . . . . . . . . . . . . . . . . . . . . . . . . . . ",
". . . . . . . . . . . . . . . . . . . . . . . . . . . . . . . . . . . . . . . . . . . . . . . . ",
". . . . + + . . . . . . . . . . . . . . . . . . . . . . . . . . . . . . . . . . . . . . . . . . ",
". . . + + + . . . . . . . . . . . . . . . . . . . . . . . . . . . . . . . . . . . . @ @ @ . . . ",
". . + + + + . . . . . . . . . . . . . . . . . . . . . . . . . . . . . . . . . . . # $ @ # % . . ",
". . + + + + . . . . . . . . . . . . . . . . . . . . . . . . . . . . . . . . . . & @ * = - $ . . ",
". . . . . . + + + + . . . . . . . . . . . . . . . . . . . . . . . . . . . . . . . - $ # % $ . . ",
". . . . . . + + + + . . . . . . . . . . . . . . . . . . . . . . . . . . . . . . ; $ * . * $ . . ",
". . . . . . + + + . . . . . . . . . . . . . . . . . . . . . . . . . . . . & @ * ; $ - ; # $ . . ",
". . . . . . + + . . . . . . . . . . . . . . . . . . . . . . . . . . . . . ; $ @ = # $ # @ $ . . ",
". . . . . . . . . . . . . . . . . . . . . . . . . . . . . . . . . . . . . . . . . . . . . . . . ",
". . . . . . . . . . . . . . . . . . . . . . . . . . . . . . . . . . . . . . . . . . . . . . . . ",
". . . . . . . . . . . . . . . . . . . . . . . . . . . . . . . . . . . . . . . . . . . . . . . . ",
". $ $ $ $ $ $ $ $ $ $ $ > , ' ) ! ~ { ] ^ / ( _ : < [ } | 1 2 3 + 4 5 6 7 8 9 0 a b c d e f g . ",
". $ $ $ $ $ $ $ $ $ $ > , ' ) h ~ { ] ^ / ( _ : < [ } | 1 2 3 + 4 5 # 7 8 9 0 a b c d e f g i . ",
". $ $ $ $ $ $ $ $ $ > , ' ) h ~ { ] ^ j _ < [ | 2 k k k k 3 + 4 5 # 7 8 9 0 l b c d e f g i m . ",
". $ $ $ $ $ $ $ $ > , ' ) h ~ { ] j n o p q r s t u v w x d 7 # # 7 8 9 0 l b c d e y g i m z . ",
". $ $ $ $ $ $ $ A , ' ) h ! { ] < B C D E F G H I J K L M N O f 0 8 9 0 l b c d e y g i m z P . ",
". $ $ $ $ $ $ A , ' ) h ! { ] Q R S T U V W X Y Z `  ...+.@.#.$.%.e l l a c d e y g i m z P &.. ",
". $ $ $ $ $ A , ' ) h ! { ] *.=.-.;.>.,.'.).!.~.{.].^./.(._.:.<.[.}.m c c d e y f i m z P |.1.. ",
". $ $ $ $ A > ' ) h ! ~ ] 2.3.4.5.6.7.8.9.0.a.b.c.d.e.f.g.h.i.j.k.l.m.|.e e y f i m z P |.1.n.. ",
". $ $ $ A > ' ) h ! ~ ] o.p.q.r.s.t.u.v.w.x.y.z.A.B.C.D.E.F.G.H.I.J.K.L.z y f i m z P |.1.n.M.. ",
". $ $ A > ' ) h ! ~ ] ^ N.O.P.Q.R.S.T.U.V.W.X.Y.Z.`. +.+++@+#+$+%+&+*+=+% i g m z P |.&.n.M.-+. ",
". $ A > , ) h ! ~ { ^ ;+>+v ,+'+)+!+~+{+]+^+/+/+(+/+_+:+<+[+}+|+1+2+3+4+5+M.z z P |.&.n.M.-+6+. ",
". A > , ) h ! ~ { ^ / 7+8+9+0+a+b+c+d+e+/+/+/+/+(+/+/+/+f+g+h+i+j+k+l+m+n+L.1.P |.&.n.M.-+6+o+. ",
". > , ) h ! ~ { ^ j p+q+r+s+t+u+v+w+x+/+/+/+/+/+(+/+/+/+/+y+z+A+B+C+D+E+F+G+H+&.&.1.M.-+6+o+% . ",
". , ' h ! ~ { ] j / I+J+K+L+M+N+O+P+Q+/+/+/+/+/+(+/+/+/+R+S+T+U+V+W+X+Y+Z+`+ @n.1.M.-+6+o+H+.@. ",
". ' h ! ~ { ] j / ( +@@@#@$@%@&@*@=@-@/+/+/+/+/+(+/+/+/+/+R+;@>@,@'@)@!@~@{@]@-+M.-+6+o+H+.@^@. ",
". h ! ~ { ] j / ( _ /@(@_@:@<@[@}@|@-@/+/+/+/+/+(+/+/+/+/+R+1@2@3@4@5@6@7@8@9@o+-+6+o+H+.@^@%.. ",
". ! ~ { ] ^ / ( _ : 0@a@b@c@d@e@f@g@h@/+/+/+/+/+(+/+/+/+/+R+i@j@k@l@m@n@o@p@q@.@6+o+H+% ^@%.r@. ",
". ~ { ] ^ / ( _ : < s@t@u@v@w@x@y@z@A@/+/+/+/+/+(+/+/+/+/+R+B@C@D@E@F@G@H@I@J@^@o+H+% ^@%.r@K@. ",
". { ] ^ / ( _ : < [ L@M@N@O@P@Q@R@S@h@/+/+/+/+/+(+/+/+/+_+T@U@V@W@X@Y@Z@`@ #.#%.H+% ^@%.r@K@+#. ",
". ] ^ j ( _ : < [ } @###$#%#&#*#=#-#Q+/+/+/+/+/+(+/+/+/+;#>#,#'#)#!#~#{#]#]#^#/#(#.@%.r@K@+#_#. ",
". ^ j ( _ : < :#} | <#[#}#|#1#2#3#4#5#/+/+/+/+/+(+/+/+6#7#8#9#0#a#b#c#d#e#f#g#h#i#j#r@K@+# @j#. ",
". j ( _ : < :#} | 1 + k#l#m#n#o#o#p#q#r#/+/+/+/+(+/+/+s#t#9#u#v#w#c#x#y#z#A#]#]#B#C#K@+# @j#D#. ",
". / _ : < :#} | 1 2 3 E#F#G#H#I#J#K#L#M#N#O#/+/+(+/+P#Q#R#S#T#U#V#W#X#Y#Z#`# $Z@.$K@+# @j#D#+$. ",
". _ : < :#[ | 1 2 k + 0 @$#$$$%$&$*$=$-$;$>$,$'$)$!$~${$]$^$/$($_$ $:$<$[$}$|$h#1$2$ @_#D#+$L.. ",
". : < :#[ | 1 2 k 3 4 6 3$4$5$6$7$8$9$0$a$b$c$d$e$f$g$h$i$j$k$l$m$|$n$o$n$p$h#h#]#q$_#D#+$L.r$. ",
". < :#[ | 1 2 k 3 4 5 # a s$t$u$v$w$n#x$y$z$A$B$C$D$E$F$G$H$I$J$K$L$M$N$O$P$Q$R$S$T$D#+$L.r$U$. ",
". :#[ } 1 2 k 3 4 5 # 6 8 f V$W$X$Y$Z$`$ %.%+%@%#%$%%%&%*%]$=%[$-%;%>%,%'%)%!%~%{%]%+$L.r$U$^%. ",
". [ } 1 2 k 3 + 5 # 6 7 9 a P /%(%_%:%<%[%}%|%1%2%3%4%5%6%7%8%9%N$y#0%a%b%c%d%d#e%+$L.r$U$f%]@. ",
". } 1 2 k 3 + 5 # 6 7 8 0 l c |.^%g%h%i%j%k%l%m%n%o%p%q%r%s%t%u%v%w%x%y%z%~%A%]#B%L.r$U$f%]@m.. ",
". | 2 k 3 + 5 # 6 7 8 0 l a b e |.j#C%D%E%F%G%H%I%J%K%L%M%N%O%P%)%Q%R%S%T%U%V%W%^%r$U$f%]@m.X%. ",
". 2 k 3 + 4 # 6 7 8 0 l a b c e f P H+U$G+Y%Z%`% &.&+&@&#&$&%&&&*&=&-&;&>&,&'&f%r$U$f%^%m.X%)&. ",
". k 3 + 4 # 6 7 8 9 l a b c d y f g m n.H+K@r$^%f%]@)&X%r$j#+#r@!&~&{&]&^&/&r$r$U$f%^%m.X%)&(&. ",
". 3 + 4 # 6 7 8 9 l a b c d y f g i m P |.1.M.o+o+% .@.@^@^@%.r@K@ @_#j#D#+$r$U$f%^%m.X%)&(&5+. ",
". + 4 5 6 7 8 9 l a b c d y f g i m P |.&.1.n.-+6+o+H+.@^@%.r@K@ @_#j#D#+$r$U$f%^%]@X%)&(&5+_&. ",
". . . . . . . . . . . . . . . . . . . . . . . . . . . . . . . . . . . . . . . . . . . . . . . . "};
