/* XPM */
static char * pdf_xpm[] = {
"48 48 338 2",
"  	c None",
" .	c #000000",
" +	c #A6A6A6",
" @	c #F9F9F9",
" #	c #E5E5E5",
" $	c #C1C1C1",
" %	c #6E6E6E",
" &	c #363636",
" *	c #DCDCDC",
" =	c #1B1B1B",
" -	c #535353",
" ;	c #898989",
" >	c #FFFFFF",
" ,	c #FDFDFD",
" '	c #FCFCFC",
" )	c #FBFBFB",
" !	c #FAFAFA",
" ~	c #F8F8F8",
" {	c #F7F7F7",
" ]	c #F6F6F6",
" ^	c #F5F5F5",
" /	c #F4F4F4",
" (	c #F2F2F2",
" _	c #F1F1F1",
" :	c #F0F0F0",
" <	c #EFEFEF",
" [	c #EEEEEE",
" }	c #ECECEC",
" |	c #EBEBEB",
" 1	c #EAEAEA",
" 2	c #E9E9E9",
" 3	c #E8E8E8",
" 4	c #E6E6E6",
" 5	c #E4E4E4",
" 6	c #E3E3E3",
" 7	c #E1E1E1",
" 8	c #E0E0E0",
" 9	c #DFDFDF",
" 0	c #DEDEDE",
" a	c #DDDDDD",
" b	c #DBDBDB",
" c	c #DADADA",
" d	c #D9D9D9",
" e	c #D8D8D8",
" f	c #D7D7D7",
" g	c #D5D5D5",
" h	c #D4D4D4",
" i	c #E2E2E2",
" j	c #D3D3D3",
" k	c #F4F2F2",
" l	c #FE5460",
" m	c #FB4D4F",
" n	c #ED9F9B",
" o	c #D2D2D2",
" p	c #F3F3F3",
" q	c #FD6A71",
" r	c #F34343",
" s	c #776B69",
" t	c #C26561",
" u	c #7D7D7D",
" v	c #E7E7E7",
" w	c #D6D6D6",
" x	c #D1D1D1",
" y	c #FEFEFE",
" z	c #FB5757",
" A	c #E63A36",
" B	c #665C5C",
" C	c #DD777C",
" D	c #898484",
" E	c #CCCCCC",
" F	c #D0D0D0",
" G	c #FB4C4C",
" H	c #E32C2B",
" I	c #665B5A",
" J	c #FE3641",
" K	c #B77879",
" L	c #ADADAD",
" M	c #CECECE",
" N	c #FB4848",
" O	c #E22520",
" P	c #665A59",
" Q	c #FE2A32",
" R	c #A56667",
" S	c #797979",
" T	c #FE1210",
" U	c #CFCFCF",
" V	c #CDCDCD",
" W	c #FB6C69",
" X	c #F31715",
" Y	c #BD6566",
" Z	c #FE262C",
" `	c #A06162",
". 	c #6D6D6D",
"..	c #B8B8B8",
".+	c #7E7E7E",
".@	c #CACACA",
".#	c #FF1310",
".$	c #D8C8C6",
".%	c #FE0B10",
".&	c #FE2B30",
".*	c #FE1E25",
".=	c #995B5C",
".-	c #6C6C6C",
".;	c #C9C9C9",
".>	c #C7C7C7",
".,	c #CBCBCB",
".'	c #838383",
".)	c #C4C4C4",
".!	c #FE2126",
".~	c #FE0707",
".{	c #BD3934",
".]	c #393636",
".^	c #787878",
"./	c #7B7B7B",
".(	c #EEE0E0",
"._	c #FF1211",
".:	c #CBBDBB",
".<	c #FE0000",
".[	c #AC3E37",
".}	c #444444",
".|	c #ABABAB",
".1	c #FF1311",
".2	c #C2C2C2",
".3	c #EDEDED",
".4	c #818181",
".5	c #DDD9D8",
".6	c #FE191B",
".7	c #FC181B",
".8	c #AB7575",
".9	c #B6B6B6",
".0	c #C8C8C8",
".a	c #E4E0DF",
".b	c #FE1919",
".c	c #FE0405",
".d	c #AA4D48",
".e	c #818080",
".f	c #C6C6C6",
".g	c #E9CFCE",
".h	c #FE0A09",
".i	c #FE1011",
".j	c #FE0A0B",
".k	c #B76763",
".l	c #B6B5B4",
".m	c #BDBDBD",
".n	c #C5C5C5",
".o	c #828282",
".p	c #FE3C44",
".q	c #F32B28",
".r	c #C9585B",
".s	c #FE0F13",
".t	c #FE0D0F",
".u	c #BC716E",
".v	c #767676",
".w	c #BBBBBB",
".x	c #CF403B",
".y	c #494242",
".z	c #CB5454",
".A	c #FE0D0E",
".B	c #BC736E",
".C	c #B4B3B3",
".D	c #C3C3C3",
".E	c #EFC1C2",
".F	c #FE0908",
".G	c #CB5150",
".H	c #3D3D3D",
".I	c #9B9392",
".J	c #D25E5E",
".K	c #FE1215",
".L	c #FE1312",
".M	c #C16C66",
".N	c #D99C97",
".O	c #E29E9A",
".P	c #E39690",
".Q	c #E2968F",
".R	c #E1958F",
".S	c #E1958E",
".T	c #E09A95",
".U	c #C2C1C1",
".V	c #FB5257",
".W	c #F2201D",
".X	c #5C4F4E",
".Y	c #555555",
".Z	c #D0A2A1",
".`	c #FE3638",
"+ 	c #FE0607",
"+.	c #FF0808",
"++	c #FF1C21",
"+@	c #E64C4C",
"+#	c #A76964",
"+$	c #FA1513",
"+%	c #DF2C2D",
"+&	c #FF0F0F",
"+*	c #D07571",
"+=	c #FA2726",
"+-	c #E33430",
"+;	c #2C2C2C",
"+>	c #AA9C9C",
"+,	c #EF7B7C",
"+'	c #F55554",
"+)	c #AC7673",
"+!	c #584745",
"+~	c #E6494D",
"+{	c #FF1514",
"+]	c #FF0708",
"+^	c #F02120",
"+/	c #CD433F",
"+(	c #262626",
"+_	c #574D4C",
"+:	c #E04E52",
"+<	c #FF2D30",
"+[	c #585858",
"+}	c #B4B4B4",
"+|	c #C0C0C0",
"+1	c #FF1210",
"+2	c #F49996",
"+3	c #FA535B",
"+4	c #DD5353",
"+5	c #F34A4E",
"+6	c #D58485",
"+7	c #777271",
"+8	c #676767",
"+9	c #8A8787",
"+0	c #655B59",
"+a	c #FF323A",
"+b	c #FF1E21",
"+c	c #FF1715",
"+d	c #DA2721",
"+e	c #E8352F",
"+f	c #F91413",
"+g	c #FF2F2B",
"+h	c #2D2D2D",
"+i	c #A8A8A8",
"+j	c #BEBEBE",
"+k	c #F54D47",
"+l	c #FE0C0A",
"+m	c #DA5554",
"+n	c #282727",
"+o	c #595858",
"+p	c #696969",
"+q	c #9B9B9B",
"+r	c #BABABA",
"+s	c #A5A5A5",
"+t	c #888888",
"+u	c #403F3F",
"+v	c #7B716F",
"+w	c #F21210",
"+x	c #F6464B",
"+y	c #F76667",
"+z	c #655B5A",
"+A	c #323131",
"+B	c #3C3C3C",
"+C	c #AAAAAA",
"+D	c #BFBFBF",
"+E	c #DEDBDB",
"+F	c #DEDEDD",
"+G	c #F48D8A",
"+H	c #FE0B09",
"+I	c #E0656A",
"+J	c #151515",
"+K	c #464646",
"+L	c #9E9E9E",
"+M	c #B1B1B1",
"+N	c #2A2A2A",
"+O	c #A0A0A0",
"+P	c #BCBCBC",
"+Q	c #E4E4E3",
"+R	c #EDB1AD",
"+S	c #D3ABA8",
"+T	c #ED5750",
"+U	c #FE1412",
"+V	c #2C2B2A",
"+W	c #A9A9A9",
"+X	c #BC9190",
"+Y	c #5D5D5D",
"+Z	c #959595",
"+`	c #E4E3E3",
"@ 	c #EEB3AF",
"@.	c #F55353",
"@+	c #B58380",
"@@	c #D0625E",
"@#	c #FE1212",
"@$	c #C8605C",
"@%	c #353434",
"@&	c #9A9A9A",
"@*	c #A3A3A3",
"@=	c #EEB6B2",
"@-	c #F54344",
"@;	c #A28483",
"@>	c #A67773",
"@,	c #FE1D1B",
"@'	c #C24E48",
"@)	c #393736",
"@!	c #565656",
"@~	c #B5B5B5",
"@{	c #B9B9B9",
"@]	c #E4E1E1",
"@^	c #F83F3B",
"@/	c #A47976",
"@(	c #766C6C",
"@_	c #DE5C56",
"@:	c #CA5751",
"@<	c #484342",
"@[	c #545454",
"@}	c #717171",
"@|	c #B3B3B3",
"@1	c #F2A39E",
"@2	c #EC4B48",
"@3	c #706665",
"@4	c #E07971",
"@5	c #D76C65",
"@6	c #6A6463",
"@7	c #5C5C5C",
"@8	c #F31917",
"@9	c #FE514B",
"@0	c #F55651",
"@a	c #D8766B",
"@b	c #FE1E18",
"@c	c #A36A64",
"@d	c #A1A1A1",
"@e	c #7C7C7C",
"@f	c #FE1513",
"@g	c #B7B7B7",
"@h	c #D2C3C1",
"@i	c #FE1714",
"@j	c #FE1614",
"@k	c #B84E4A",
"@l	c #3F3C3C",
"@m	c #757575",
"@n	c #D4D2D2",
"@o	c #FE4846",
"@p	c #BF615A",
"@q	c #272626",
"@r	c #5A5A5A",
"@s	c #ACACAC",
"@t	c #595959",
"@u	c #B2B2B2",
"@v	c #B0B0B0",
"@w	c #AFAFAF",
" . . . . . . . . . . . . . . . . . . . . . . . . . . . . . . . . . . . . . . . . . . . . . . . .",
" . . . . . . . . . . . . . . . . . . . . . . . . . . . . . . . . . . . . . . . + + . . + @ + . .",
" . . . . # . # . . . . . . . . . . . . . . . . . . . . . . . . . . . . . . . . + + . . @ $ . . .",
" . . # . . . . . # . . . . . . . . . . . . . . . . . . . + % & + & . . . % + % + + . + @ * % . .",
" . . . . # # # . . . . . . . . . . . . . . . . . . . . . @ * @ @ * = . - @ @ @ * + . + @ * % . .",
" . . . # . . . # . . . . . . . . . . . . . . . . . . . . @ @ = = @ $ . * $ = = * + . . @ + . . .",
" . . # . . # . . # . . . . . . . . . . . . . . . . . . . @ + . . + @ . @ - . . + + . . @ + . . .",
" . . . # . . . # . . . . . . . . . . . . . . . . . . . . @ * . . * @ . @ ; . . $ + . . @ + . . .",
" . . . . # # # . . . . . . . . . . . . . . . . . & + % . @ @ % % @ ; . $ @ % % @ + . . @ + . . .",
" . . # . . . . . # . . . . . . . . . . . . . . . - @ + . @ $ $ @ + . . = * @ $ + + . . @ + . . .",
" . . . . # . # . . . . . . . . . . . . . . . . . . . . . @ + . . . . . . . . . . . . . . . . . .",
" . . . . . . . . . . . . . . . . . . . . . . . . . . . . @ + . . . . . . . . . . . . . . . . . .",
" . . . . . . . . . . . . . . . . . . . . . . . . . . . . . . . . . . . . . . . . . . . . . . . .",
" . > > > > > > > > > > > , ' ) ! ~ { ] ^ / ( _ : < [ } | 1 2 3 4 # 5 6 7 8 9 0 a b c d e f g h .",
" . > > > > > > > > > > , ' ) ! @ { ] ^ / ( _ : < [ } | 1 2 3 4 # 5 6 i 8 9 0 a b c d e f g h j .",
" . > > > > > > > > > , ' ) ! @ { ] ^ / k l m n f 3 | 1 2 3 4 # 5 6 i 8 9 0 a * c d e f g h j o .",
" . > > > > > > > > , ' ) ! @ { ] ^ / p q r s t u g 1 2 3 v # 5 6 i 8 9 0 a * c d e f w h j o x .",
" . > > > > > > > y ' ) ! @ ~ ] ^ / p _ z A B C D E 3 3 v # 5 6 i 7 9 0 a * c d e f w h j o x F .",
" . > > > > > > y ' ) ! @ ~ ] ^ / p ( : G H I J K L 8 v # 5 6 i 7 9 0 a * b d e f w h j o x F M .",
" . > > > > > y ' ) ! @ ~ ] ^ / p ( : < N O P Q R S T E 0 6 i 7 9 0 a * b d e f w g j o x F U V .",
" . > > > > y , ) ! @ ~ { ^ / p ( : < [ W X Y Z `. ...+.@ i 7 8 0 a * b d e f w g j o x F U V E .",
" . > > > y , ) ! @ ~ { ^ / p ( _ <.# o.$.%.&.*.=.-.;.@ * T.> e a * b c e f w g j o x F U V E., .",
" . > > y , ) ! @ ~ { ^ / p ( _ < [ o.'.).!.~.{.].^ x i 7.>./.) * b c e f w g h o x F U M E.,.@ .",
" . > y , ' ! @ ~ { ] / p ( _.(._ o 9 x 9.:.<.[.}.| b 7 8 d.).1.2 h e f w g h o x F U M E.,.@.; .",
" . y , ' ! @ ~ { ] / p ( _ :.3 E.4 x 2 3.5.6.7.8.9 a 8 9 a *.2 S $ f w g h o x F U M E.,.@.;.0 .",
" . , ' ! @ ~ { ] / p ( _ : [.3 5 x 5 3 v.a.b.c.d.e V 9 a * b h $ x w g h j x F U M V.,.@.;.0.f .",
" . ' ) @ ~ { ] ^ p ( _ : [.# o # 1 3 v 4.g.h.i.j.k.l f * b c d f.1.m U j x F U M V.,.@.;.0.>.n .",
" . ) @ ~ { ] ^ p ( _ : <.3 o.o F 3 v 4 #.p.q.r.s.t.u.l h c d e w.m.v.w x F U M V.,.@.;.0.>.n.) .",
" . @ ~ { ] ^ p ( _ : <.3 } # F 6 v 4 # 5.6.x.y.z.A.t.B.C j e w g U.w V F U M V E.@.;.0.>.n.).D .",
" . ~ { ] ^ / ( _ : <.3 }.1 F 6 v 4 # 5.E.F.G.H.I.J.K.L.M.N.O.P.Q.Q.R.S.T.U.0 E.@.;.0.>.f.).D.2 .",
" . { ] ^ / ( _ : < [ } | F.4 V 4 # 5 6.V.W.X.Y.9.Z.`+ +..1+++@+#.1+$+%+&+* +.n.;.0.>.f.).D.2 $ .",
" . ] ^ / ( _ : < [ } | 1 6 M 8 # 5 6 7+=+-+;+>+,+'+)+!+~+{+]+^+/.1+(+_+:+<+[+}.0.>.f.).D.2 $+| .",
" . ^ / p _ : < [ } | 1 2 3+1., 0 6 i+2.h+3+4+5+6+7 -+8+9+0+a+b+c.1+d+e+f+g+h+i.>.f.n.D.2 $+|+j .",
" . / p _ : < [.3 | 1 2 3 4.,.+.@ i 8+k+l+m+n+o+o+p+q+r $+s+t+u+v+w+x+y+z+A+B+C.f.n.D.2 $+|+D.m .",
" . p _ : < [.3 | 1 2 3 v # 0 E+E+F+G+H+I+J+K+L+M.m V o o V.D.|.1+[+;+N+B./+O+D.n.D.2 $+|+D.m+P .",
" . ( : < [.3 | 1 2 3 v # 5+Q+R+1+S+T+U+V+K+W x g g h j o x F E+X+Y+Z+W.|+P.D.n.).2 $+|+D.m+P.w .",
" . : < [.3 } 1 2 3 v # 5+`@ @.@+@@@#@$@%@& x f w g j o x F M V.2@*+|.0.>.f.n.).2 $+|+D+j+P.w+r .",
" . < [.3 } 1 2 3 v 4 5+`@=@-@;@>@,@'@)@!+r g w g j o x F U.1@~.).n.>.>.f.n.).2 $+|+D+j+P.w+r@{ .",
" . [.3 } 1 2 3 v 4 5 6@]@^@/@(@_@:@<@[+s U w g j o x F U V@~@}@|.;.>.f.n.).D $+|+D+j+P.w+r@{.. .",
" ..3 } | 2 3 v 4 5 6 i@1@2@3@4@5@6@7@8.9 F g h o x F T.9.>.n@|.).>.f.n.).D $+|+D+j.m.w+r@{...9 .",
" . } | 2 3 v 4 # 6 i 7@9@0@a@b@c+[@d.9@e+D h@f+r., U@g@}+}.@.;.>.f.n.).D $+|+D+j.m.w+r@{..@g@~ .",
" . | 2 3 v 4 # 6 i 7 8@h@i@j@k@l.v.D F+D U o+r@m@{ M.>+}.n.;.0.f.n.).D.2+|+D+j.m.w+r@{..@g@~+} .",
" . 1 3 v 4 # 6 i 7 8 9@n@o@p@q@r@s F g h j x.,@{.; E.,.@.;.0.f.n.).D.2+|+D+j.m+P+r@{..@g@~+}@| .",
" . 3 v 4 # 5 i 7 8 9 a e@s+K@t.| M g h j x F U M V.,.@.;.0.f.n.).D.2+|+D+j.m+P+r@{..@g.9+}@|@u .",
" . v 4 # 5 i 7 8 9 0 * b o+P $ F g h j x F U M V.,.@.;.0.>.n.).D.2 $+D+j.m+P+r@{..@g.9+}@|@u+M .",
" . 4 # 5 i 7 8 9 0 * b c d e w g h j o F U M V.,.@.;.0.>.n.).D.2 $+D+j.m+P.w@{..@g.9+}@|@u+M@v .",
" . # 5 6 7 8 9 0 * b c d e w g h j o F U M V E.@.;.0.>.n.).D.2 $+D+j.m+P.w@{..@g.9@~@|@u+M@v@w .",
" . . . . . . . . . . . . . . . . . . . . . . . . . . . . . . . . . . . . . . . . . . . . . . . ."};
