/* XPM */
static char * file_dot_wav_xpm[] = {
"48 48 181 2",
"  	c None",
" .	c #040204",
" +	c #000000",
" @	c #E5E5E5",
" #	c #747274",
" $	c #A4A6A4",
" %	c #ACAAAC",
" &	c #6C6A6C",
" *	c #343634",
" =	c #FCFEFC",
" -	c #ACAEAC",
" ;	c #1C1E1C",
" >	c #8C8A8C",
" ,	c #C4C6C4",
" '	c #8C8E8C",
" )	c #545654",
" !	c #5C5A5C",
" ~	c #545254",
" {	c #E4E2E4",
" ]	c #DCDEDC",
" ^	c #CCCACC",
" /	c #94929C",
" (	c #1C1A1C",
" _	c #FCFAFC",
" :	c #F4F6F4",
" <	c #F4F2F4",
" [	c #ECEEEC",
" }	c #E4E6E4",
" |	c #ECEAEC",
" 1	c #D4D6D4",
" 2	c #DCDADC",
" 3	c #D4D2D4",
" 4	c #CCCECC",
" 5	c #5452F4",
" 6	c #6C66CC",
" 7	c #34329C",
" 8	c #9492B4",
" 9	c #7C76BC",
" 0	c #5C52FC",
" a	c #343294",
" b	c #343234",
" c	c #ACAABC",
" d	c #7C7ABC",
" e	c #4C4A4C",
" f	c #342E94",
" g	c #9492AC",
" h	c #5C56E4",
" i	c #A4A2A4",
" j	c #8C8AB4",
" k	c #ACAEBC",
" l	c #04020C",
" m	c #5452EC",
" n	c #141214",
" o	c #BCBEBC",
" p	c #4C4A84",
" q	c #7472BC",
" r	c #544EEC",
" s	c #74769C",
" t	c #0C0A24",
" u	c #B4B6BC",
" v	c #C4C2CC",
" w	c #1C1A54",
" x	c #5C5E5C",
" y	c #7C769C",
" z	c #3C3AAC",
" A	c #2C2E3C",
" B	c #6C66C4",
" C	c #74727C",
" D	c #6C6ABC",
" E	c #A4A2BC",
" F	c #24222C",
" G	c #5C56D4",
" H	c #6C6A74",
" I	c #343254",
" J	c #7C7A84",
" K	c #6462AC",
" L	c #141644",
" M	c #7C7A7C",
" N	c #6462D4",
" O	c #14122C",
" P	c #4C4A5C",
" Q	c #5452E4",
" R	c #443E9C",
" S	c #04060C",
" T	c #5C52D4",
" U	c #141234",
" V	c #5C568C",
" W	c #6C6AB4",
" X	c #140E34",
" Y	c #54529C",
" Z	c #443EBC",
" `	c #444674",
". 	c #14123C",
"..	c #242254",
".+	c #3C36A4",
".@	c #4C4EA4",
".#	c #5C52F4",
".$	c #241E64",
".%	c #5C56DC",
".&	c #4C4ACC",
".*	c #444244",
".=	c #A4A2AC",
".-	c #C4C2C4",
".;	c #4C46BC",
".>	c #5C56EC",
".,	c #2C2674",
".'	c #4C4ADC",
".)	c #24265C",
".!	c #242264",
".~	c #544EDC",
".{	c #1C1E4C",
".]	c #040614",
".^	c #34368C",
"./	c #7472A4",
".(	c #6C6A84",
"._	c #7C7EBC",
".:	c #342E8C",
".<	c #4C4ABC",
".[	c #34328C",
".}	c #343274",
".|	c #3C3694",
".1	c #0C061C",
".2	c #5C5E6C",
".3	c #44429C",
".4	c #3C369C",
".5	c #1C1644",
".6	c #1C1A4C",
".7	c #34326C",
".8	c #3C368C",
".9	c #4442C4",
".0	c #A4A6B4",
".a	c #0C0A1C",
".b	c #3C3A9C",
".c	c #4C4AB4",
".d	c #544EE4",
".e	c #4C46D4",
".f	c #3C3AB4",
".g	c #141624",
".h	c #9C9E9C",
".i	c #9C9A9C",
".j	c #8C8AAC",
".k	c #4C46DC",
".l	c #5452A4",
".m	c #040604",
".n	c #848284",
".o	c #7C7E84",
".p	c #7C7E7C",
".q	c #544E8C",
".r	c #141224",
".s	c #544ADC",
".t	c #242234",
".u	c #4C42CC",
".v	c #0C0E0C",
".w	c #B4B6B4",
".x	c #C4BEC4",
".y	c #646264",
".z	c #2C2A2C",
".A	c #6C6EB4",
".B	c #BCBABC",
".C	c #2C267C",
".D	c #746EB4",
".E	c #5C52E4",
".F	c #5C5AB4",
".G	c #ACAAB4",
".H	c #3C3E44",
".I	c #645AD4",
".J	c #64629C",
".K	c #5C5AD4",
".L	c #646664",
".M	c #6C6A94",
".N	c #1C1A24",
".O	c #A4A6AC",
".P	c #8482A4",
".Q	c #5C5ACC",
".R	c #2C2A84",
".S	c #9496A4",
".T	c #6C6AAC",
".U	c #3C3A3C",
".V	c #949694",
".W	c #ACA6AC",
".X	c #B4B2B4",
" . . . . . . . . . . . . . . . . . . . . . . . . . . . . . . . . . . . . . . . . . . . . . . . .",
" . . . . . . . . . . . . . . . . . . . . . . . . . . . . . . . . . . . . . . . . . . . . . . . .",
" . . + + + @ + + @ + + . . . . . . . . . . . . . . . . . . . . . . . . . . . . . . . . . . . . .",
" . . + + + + @ + + @ + . . . . . . . . . . . . . # $ . . % & . * % * . # $ % * . # $ . . * % * .",
" . . + + @ + @ + + @ + . . . . . . . . . . . . . # = * . = - . # = ; > = , , = ; # = # . ' = ; .",
" . . @ @ @ + @ + + @ + . . . . . . . . . . . . . ; = % ) = = . $ , . % % . ! = ~ . = , . , % . .",
" . . @ @ @ + @ + + @ + . . . . . . . . . . . . . . { , ' ' { * , ' . ) ] = % = ) . % = . = ) . .",
" . . + + @ + @ + + @ + . . . . . . . . . . . . . . % = ^ ~ % / = ) . = , . ; = ~ . ) = % = . . .",
" . . + + + + @ + + @ + . . . . . . . . . . * % & . # = = ( # = = ( . = ^ ~ % = ) . ( = { , . . .",
" . . + + + @ + + @ + + . . . . . . . . . . ) = % . ( = , . ; = , . . % = = ' = ) . . ' = & . . .",
" . . + + + + + + + + + . . . . . . . . . . . . . . . . . . . . . . . . . . . . . . . . . . . . .",
" . . . . . . . . . . . . . . . . . . . . . . . . . . . . . . . . . . . . . . . . . . . . . . . .",
" . . . . . . . . . . . . . . . . . . . . . . . . . . . . . . . . . . . . . . . . . . . . . . . .",
" . = = = = = = = = = = = _ = : _ : : : < : [ < [ [ [ [ } | } } } { } ] { ] ] ] ] 1 2 1 1 1 1 3 .",
" . = = = = = = = = = = = = _ _ _ : : : : < < [ < [ | | [ | } | { } { { ] { ] ] 2 2 2 1 2 1 3 3 .",
" . = = = = = = = = = = = _ _ _ : _ : : < [ < [ [ [ | | } | } } } { { ] { ] 2 ] 2 1 2 1 1 3 1 4 .",
" . = = = = = = = = = = _ _ : : : < < < < [ [ < | | | } | } } { { { ] ] ] ] 2 2 2 1 2 1 1 3 3 3 .",
" . = = = = = = = = = _ _ _ : _ : : : [ < [ | 5 6 } | | } } } } ] { ] { ] ] 2 1 2 1 1 1 3 3 4 4 .",
" . = = = = = = = = _ _ : _ : : < < < < [ [ | 5 7 * | } } { { { { ] ] ] 2 2 2 1 2 1 3 3 3 3 4 3 .",
" . = = = = = = = _ _ _ _ : : : < < [ 8 9 { } 0 a b ^ c } { { { ] ] ] 2 2 2 1 2 1 1 3 1 4 3 4 ^ .",
" . = = = = = = _ _ : : : : < < < [ < d 5 e 1 0 f * g h i { ] ] { ] 2 ] 2 1 1 1 1 3 3 3 4 4 4 4 .",
" . = = = = = _ = : _ _ : : < 2 j k [ d 5 l / 5 a b 8 m n ] { ] ] 2 2 2 2 1 2 1 3 3 3 4 3 4 4 ^ .",
" . = = = = _ _ _ : _ < < < < o 0 p i q r l s 0 f * g 5 t u ] ] 2 2 2 1 1 1 1 3 3 4 3 4 4 ^ ^ ^ .",
" . = = = = _ : _ : : : < : [ v 5 w x 0 5 l y 5 z A B 0 t C D 3 ] 2 2 1 2 1 3 3 3 3 4 4 ^ 4 ^ , .",
" . = = _ _ _ _ : : : < 3 E [ E 5 w ! 5 5 l s 0 5 F G 5 t H 5 I 4 2 1 1 1 3 3 4 4 4 3 4 ^ ^ , ^ .",
" . = = _ : _ : : : < < E 5 J q 0 w ! 0 5 l K 0 5 l G 5 t H 0 L M 4 3 1 3 1 4 3 3 4 4 ^ 4 , ^ , .",
" . _ _ _ _ : : _ < < [ N 0 O K 5 w P 5 5 l Q R 5 S T 5 U V 5 L & W W 4 3 3 4 3 4 4 ^ ^ , ^ , , .",
" . = : _ : : : < q E < N 5 X Y 0 Z ` 0 5.  T.. 0 l T 5.+.@.#.$ x.%.&.* u.=.- 4 4 ^ ^ , ^ , ,.- .",
" . : _ : : _ < k.#.; M.> 5.,.' 5 0.).& f.!.~.{ 5.].~ 0.+.^ 0.' e 5 5 n./ 5.( o 4 ^ , ^ , , ,.- .",
" . : _ : < < <._ 5 r.) 5.+ 5 0.! 5.:.<.[.}.'.. 0 L.# 5.+.| 5 r S 0 5.1 Q 0.+.2 ^ ^ , ^ ,.- , o .",
" . : : : 0 5 r 0.3 5.4 5.5 0 5.6 0 5.7.8 r 0.{.# 7 0.6.+.^ 0 r S 0 5.5 5.:.9 r 5 5 0 5 0.-.-.- .",
" . _ : <.0 t.a.a . R 5.b L 5 0.5 5 0 t.3 5 r ..c 5 0 L.d.e 5 r.5 0 5.f 5 t *.g t.1.a.a.] ..- o .",
" . < < : <.h.i.i.i.j 5.$ A 0.k.  5 0 t.l 0 r.m W 0 5.6 5 0.. r 5.;.  0.k ..n , '.n.o.n.o.p o o .",
" . : < < [ < [ [ | 1.q t ~ 5 7.r 5 0 t.l 5 r.m W 0 5 l 0 5 ..s 5 f.t 5.u.v.w ^ , , ,.-.-.-.x o .",
" . [ < [ [ [ [ | | } 1.y > 0 7.z Q.k ..l 5 r l.A 0 5 . 5 0 l Q 0 f.z.d.9 n , , ,.-.- o o o o.B .",
" . < < [ < [ | | | | } } { 5.C b G.k.v.D 0.C.m D 5.u l 5 5 ..E 5.: A.F.r ( ,.- ,.- o.-.- o o.B .",
" . [ [ [ | | | } } } } { }.G ..H.I.'.v.0 5.5.* W 0 w.v 0 5 l.J 5 X b , * M ,.-.-.- o o o.B.B.B .",
" . < [ [ [ | | | } | { } ] {.h ^.K.| n E 0 L.L D 5 w ~ 5 f ..M 0.] # , ,.- ,.- o.- o.x.B o.B.w .",
" . [ | [ | } } } | { { { { ] ] ].j.N b.O 5.5.y.P 0 w ~.Q.R.z.S r.] > , , ,.-.- o.- o o.B.B.w.B .",
" . [ [ | } | | } { { } ] { ] ] 2 2 M.h.= 0.].L.G 5.6 !.T.[.U ^.V.m > , ,.- o.- o o o o.w.B.w.w .",
" . | | | } } } } { { ] { ] ] ] 2 2 1 1 E 5 ..i.O 5 w ).W.H.U ^ , ^.-.-.-.-.- o o o.B.B.B.w.B.w .",
" . [ } | } | } { } ] { ] ] ] 2 2 1 2 1 ^.o . o.O 0 l ) 4 i.h , , ,.- ,.- o o.x o.B.B.w.B.w.w.X .",
" . } | } } { { { ] { ] ] 2 2 2 1 2 1 1 3 ^ $ ^.O 0 ..h ^ ^ , ^.- ,.-.- o.- o o o.B.B.w.B.w.X.X .",
" . | } | } } { { ] { ] 2 ] 2 2 1 1 1 1 3 4 3 4 4.h ..X , ^ ,.- ,.-.- o.x o o.B.B.w.B.w.w.X.w - .",
" . } } { { { ] { ] ] ] 2 2 1 2 1 1 3 3 3 4 3 4 4 ^ ^ , ^ , , ,.-.- o.- o o.B.B.B.w.B.w.w.X.X.X .",
" . } } } { { ] { ] ] 2 2 1 2 1 1 1 3 3 4 3 4 4 ^ ^ , ^ , ,.- , o.- o o o o o.w.B.w.w.w.X.X.X - .",
" . { } { ] { ] ] 2 2 2 2 1 1 1 3 3 3 4 3 4 ^ 4 ^ ^ , ^ ,.-.-.-.- o o o.B.B.B.B.w.w.w.X.X - - - .",
" . . . . . . . . . . . . . . . . . . . . . . . . . . . . . . . . . . . . . . . . . . . . . . . ."};
