/* XPM */
static char * file_dot_jar_xpm[] = {
"48 48 842 2",
"  	c None",
" .	c #000000",
" +	c #FFFFFF",
" @	c #AAAAAA",
" #	c #E5E5E5",
" $	c #555555",
" %	c #383838",
" &	c #717171",
" *	c #8D8D8D",
" =	c #C6C6C6",
" -	c #1C1C1C",
" ;	c #E2E2E2",
" >	c #FDFDFD",
" ,	c #FCFCFC",
" '	c #FBFBFB",
" )	c #FAFAFA",
" !	c #F8F8F8",
" ~	c #F7F7F7",
" {	c #F6F6F6",
" ]	c #F5F5F5",
" ^	c #F4F4F4",
" /	c #F2F2F2",
" (	c #F1F1F1",
" _	c #F0F0F0",
" :	c #EFEFEF",
" <	c #EEEEEE",
" [	c #ECECEC",
" }	c #EBEBEB",
" |	c #EAEAEA",
" 1	c #E9E9E9",
" 2	c #E8E8E8",
" 3	c #E6E6E6",
" 4	c #E4E4E4",
" 5	c #E3E3E3",
" 6	c #E1E1E1",
" 7	c #E0E0E0",
" 8	c #DFDFDF",
" 9	c #DEDEDE",
" 0	c #DDDDDD",
" a	c #DBDBDB",
" b	c #DADADA",
" c	c #D9D9D9",
" d	c #D8D8D8",
" e	c #D7D7D7",
" f	c #D5D5D5",
" g	c #D4D4D4",
" h	c #F9F9F9",
" i	c #D3D3D3",
" j	c #F3F3F3",
" k	c #DCDCDC",
" l	c #D2D2D2",
" m	c #EFEEEE",
" n	c #E9E8E8",
" o	c #EAE8E6",
" p	c #F4E3CC",
" q	c #E6AE72",
" r	c #C66A41",
" s	c #C66F3D",
" t	c #ECA88D",
" u	c #B8B8B7",
" v	c #CFCECE",
" w	c #D6D6D6",
" x	c #D1D1D1",
" y	c #FEFEFE",
" z	c #F5F4F3",
" A	c #EEEBE9",
" B	c #E6E5E2",
" C	c #E6DACD",
" D	c #EACD9C",
" E	c #DE8753",
" F	c #CC7D4B",
" G	c #D98A49",
" H	c #DC733F",
" I	c #D0703B",
" J	c #C66A3B",
" K	c #B6603B",
" L	c #AC6439",
" M	c #AF8360",
" N	c #BEB9B4",
" O	c #C9C9C9",
" P	c #D0D0D0",
" Q	c #F7F7F6",
" R	c #F4F2ED",
" S	c #EDE7E1",
" T	c #E7E0D7",
" U	c #F3CDB0",
" V	c #E5B77C",
" W	c #C6945A",
" X	c #AF6B48",
" Y	c #B27048",
" Z	c #D9804B",
" `	c #D9924B",
". 	c #D98C4B",
"..	c #D77243",
".+	c #D0783D",
".@	c #C6703B",
".#	c #C6633B",
".$	c #B66F3E",
".%	c #9F5B35",
".&	c #AC5F39",
".*	c #A2877E",
".=	c #BEB8B4",
".-	c #C1C1C1",
".;	c #CECECE",
".>	c #F0E6E0",
".,	c #EEE9DE",
".'	c #EDD7CA",
".)	c #F2C8AB",
".!	c #EAC385",
".~	c #E3B26F",
".{	c #F1B083",
".]	c #EAB66B",
".^	c #E9AF6A",
"./	c #DDA166",
".(	c #B57D4F",
"._	c #A1633F",
".:	c #B06A38",
".<	c #DA9049",
".[	c #D77A3F",
".}	c #CA6A3B",
".|	c #BD6B3B",
".1	c #C3633B",
".2	c #B76A3E",
".3	c #844B2D",
".4	c #753F2B",
".5	c #6B3A28",
".6	c #80583B",
".7	c #A09283",
".8	c #CCC7C3",
".9	c #C2C2C2",
".0	c #CFCFCF",
".a	c #CDCDCD",
".b	c #493831",
".c	c #C68F66",
".d	c #EEB68A",
".e	c #F2C39B",
".f	c #F3C88C",
".g	c #ECBD78",
".h	c #F3BB83",
".i	c #ECB56B",
".j	c #E9A66A",
".k	c #E5A167",
".l	c #E0A866",
".m	c #C36F45",
".n	c #C28048",
".o	c #A15D35",
".p	c #C06A3D",
".q	c #C8673F",
".r	c #7A4530",
".s	c #6F4429",
".t	c #673926",
".u	c #84482C",
".v	c #874D31",
".w	c #9B542E",
".x	c #874D2D",
".y	c #6E4C2D",
".z	c #8E694E",
".A	c #B29D98",
".B	c #C8C6C6",
".C	c #C0C0C0",
".D	c #CCCCCC",
".E	c #281E1E",
".F	c #5D422B",
".G	c #A87A4F",
".H	c #ECBF94",
".I	c #F0CC90",
".J	c #ECBE80",
".K	c #EEB773",
".L	c #ECAC7A",
".M	c #EAAE6A",
".N	c #E6A15B",
".O	c #DEA15F",
".P	c #E19B4F",
".Q	c #E8A267",
".R	c #A6683E",
".S	c #583A28",
".T	c #5D3827",
".U	c #835031",
".V	c #A65733",
".W	c #985D32",
".X	c #A55E34",
".Y	c #9B5731",
".Z	c #8A4F33",
".`	c #6F4C2E",
"+ 	c #7C492C",
"+.	c #754E34",
"++	c #90775D",
"+@	c #CACAC4",
"+#	c #B7B7B7",
"+$	c #CBCBCB",
"+%	c #301E19",
"+&	c #4C2E22",
"+*	c #5B3525",
"+=	c #9B533B",
"+-	c #E8AC72",
"+;	c #ECBB72",
"+>	c #ECA86B",
"+,	c #E9B36B",
"+'	c #E0A25E",
"+)	c #DE9F5B",
"+!	c #E69C52",
"+~	c #DE9C60",
"+{	c #604228",
"+]	c #6B3B2C",
"+^	c #924B37",
"+/	c #A66437",
"+(	c #83422B",
"+_	c #BB5A38",
"+:	c #C66A43",
"+<	c #AE5A31",
"+[	c #AC5333",
"+}	c #904C31",
"+|	c #844C2D",
"+1	c #70492D",
"+2	c #7C3F29",
"+3	c #6E4528",
"+4	c #754435",
"+5	c #B4967C",
"+6	c #929191",
"+7	c #BABABA",
"+8	c #CACACA",
"+9	c #2F2020",
"+0	c #4E3824",
"+a	c #4D3B26",
"+b	c #573A25",
"+c	c #784F2A",
"+d	c #CF9C6E",
"+e	c #ECCA80",
"+f	c #DA9253",
"+g	c #D58F4E",
"+h	c #AC633D",
"+i	c #7D4630",
"+j	c #674231",
"+k	c #CD6A3D",
"+l	c #DE984B",
"+m	c #D37D42",
"+n	c #D37850",
"+o	c #BF754F",
"+p	c #674832",
"+q	c #A45838",
"+r	c #A55A38",
"+s	c #AC5739",
"+t	c #9A5731",
"+u	c #785034",
"+v	c #834C2E",
"+w	c #6B432D",
"+x	c #783F2F",
"+y	c #573126",
"+z	c #261E19",
"+A	c #636262",
"+B	c #9C9C9C",
"+C	c #C4C4C4",
"+D	c #291E1A",
"+E	c #5D3022",
"+F	c #533B24",
"+G	c #573A26",
"+H	c #643D2A",
"+I	c #6B442D",
"+J	c #D38C58",
"+K	c #724B2A",
"+L	c #805434",
"+M	c #C66B43",
"+N	c #DE9A57",
"+O	c #E7874D",
"+P	c #DC7D3F",
"+Q	c #D58043",
"+R	c #CC7841",
"+S	c #C86F3E",
"+T	c #C0683B",
"+U	c #C67248",
"+V	c #7D4430",
"+W	c #854931",
"+X	c #8F4F31",
"+Y	c #9F542E",
"+Z	c #8F4B2E",
"+`	c #6E3C2A",
"@ 	c #6F3D25",
"@.	c #462A25",
"@+	c #2D1F1E",
"@@	c #171717",
"@#	c #7B7B7B",
"@$	c #B5B5B5",
"@%	c #C8C8C8",
"@&	c #2E1E1C",
"@*	c #573C24",
"@=	c #5F3D26",
"@-	c #633D26",
"@;	c #6B422B",
"@>	c #6B4128",
"@,	c #573523",
"@'	c #90523A",
"@)	c #E29A5E",
"@!	c #E5A15A",
"@~	c #DEA15B",
"@{	c #DE9A4E",
"@]	c #D98545",
"@^	c #D5803F",
"@/	c #D97C41",
"@(	c #C96A3B",
"@_	c #BB6B3B",
"@:	c #C06741",
"@<	c #BA643C",
"@[	c #B76B3D",
"@}	c #75422E",
"@|	c #673A2A",
"@1	c #503124",
"@2	c #311D1E",
"@3	c #201718",
"@4	c #1B1718",
"@5	c #191817",
"@6	c #5C5C5C",
"@7	c #A5A5A5",
"@8	c #31201E",
"@9	c #5A3D26",
"@0	c #6A3E29",
"@a	c #673E27",
"@b	c #68422A",
"@c	c #674126",
"@d	c #382619",
"@e	c #7C502E",
"@f	c #BB6842",
"@g	c #D69252",
"@h	c #E3A150",
"@i	c #DD9850",
"@j	c #DA8545",
"@k	c #DE8543",
"@l	c #D77C41",
"@m	c #C96A3F",
"@n	c #C66B3D",
"@o	c #D36B41",
"@p	c #A15E31",
"@q	c #72482E",
"@r	c #41281F",
"@s	c #261D1B",
"@t	c #231B1C",
"@u	c #221B18",
"@v	c #1E1919",
"@w	c #1E1918",
"@x	c #1D1717",
"@y	c #191717",
"@z	c #181717",
"@A	c #4C4C4C",
"@B	c #C7C7C7",
"@C	c #C5C5C5",
"@D	c #2E1C1C",
"@E	c #643B2A",
"@F	c #673D2A",
"@G	c #674226",
"@H	c #783F2A",
"@I	c #6A442A",
"@J	c #3F271E",
"@K	c #70462D",
"@L	c #87462E",
"@M	c #A2643A",
"@N	c #C9803F",
"@O	c #E4854C",
"@P	c #DC8544",
"@Q	c #D58445",
"@R	c #D57A41",
"@S	c #CA683C",
"@T	c #905435",
"@U	c #663D24",
"@V	c #4C2D26",
"@W	c #463934",
"@X	c #504746",
"@Y	c #46403F",
"@Z	c #624B4E",
"@`	c #8A3E46",
"# 	c #724A4E",
"#.	c #7F4F58",
"#+	c #876166",
"#@	c #3B3736",
"##	c #1C1717",
"#$	c #4A4A4A",
"#%	c #999999",
"#&	c #C3C3C3",
"#*	c #311F20",
"#=	c #663E29",
"#-	c #6A3F2C",
"#;	c #784B2A",
"#>	c #75482C",
"#,	c #6B4B2D",
"#'	c #362A1B",
"#)	c #724B33",
"#!	c #964931",
"#~	c #985731",
"#{	c #A65737",
"#]	c #D68F4F",
"#^	c #E59A46",
"#/	c #C3733D",
"#(	c #8C4C31",
"#_	c #503026",
"#:	c #3A2C25",
"#<	c #3A2923",
"#[	c #62514F",
"#}	c #90333C",
"#|	c #755959",
"#1	c #7D5D5F",
"#2	c #835458",
"#3	c #403934",
"#4	c #251C1B",
"#5	c #272320",
"#6	c #595150",
"#7	c #625C5B",
"#8	c #1B191A",
"#9	c #1A1818",
"#0	c #989898",
"#a	c #32211B",
"#b	c #6A3F29",
"#c	c #754326",
"#d	c #78442C",
"#e	c #7D4C2D",
"#f	c #3F2323",
"#g	c #844C2E",
"#h	c #8A522D",
"#i	c #9F5334",
"#j	c #AE5831",
"#k	c #B0643A",
"#l	c #A66B44",
"#m	c #522A24",
"#n	c #4D2923",
"#o	c #3F261C",
"#p	c #3A201E",
"#q	c #735951",
"#r	c #B9151D",
"#s	c #5F4C46",
"#t	c #463D3B",
"#u	c #8B545C",
"#v	c #8A6869",
"#w	c #403637",
"#x	c #221D18",
"#y	c #221917",
"#z	c #3D3B36",
"#A	c #787370",
"#B	c #282120",
"#C	c #494949",
"#D	c #E7E7E7",
"#E	c #3D2D29",
"#F	c #6B442A",
"#G	c #7A4B2D",
"#H	c #7D4B2C",
"#I	c #7C4C2D",
"#J	c #844C35",
"#K	c #352925",
"#L	c #794F34",
"#M	c #AE5739",
"#N	c #AE5F38",
"#O	c #B25F3A",
"#P	c #B67357",
"#Q	c #4B3424",
"#R	c #443124",
"#S	c #3C2722",
"#T	c #55413D",
"#U	c #A14550",
"#V	c #93555C",
"#W	c #402B2C",
"#X	c #6F615F",
"#Y	c #6F615D",
"#Z	c #926266",
"#`	c #6C615E",
"$ 	c #2F2729",
"$.	c #27211C",
"$+	c #655755",
"$@	c #756362",
"$#	c #2E2A29",
"$$	c #211818",
"$%	c #979797",
"$&	c #7C675E",
"$*	c #452C21",
"$=	c #68442B",
"$-	c #854E2F",
"$;	c #9B4F2E",
"$>	c #8C4C30",
"$,	c #3E2524",
"$'	c #9A4D31",
"$)	c #A65732",
"$!	c #AE5736",
"$~	c #AE5B32",
"${	c #BB6739",
"$]	c #BB674C",
"$^	c #4B3125",
"$/	c #483123",
"$(	c #412922",
"$_	c #6C544D",
"$:	c #974F54",
"$<	c #7F5659",
"$[	c #3E2B28",
"$}	c #7B6967",
"$|	c #856062",
"$1	c #AA1D23",
"$2	c #B61A1E",
"$3	c #6B5151",
"$4	c #5C4B47",
"$5	c #883743",
"$6	c #8C313A",
"$7	c #5E504F",
"$8	c #221818",
"$9	c #484848",
"$0	c #969696",
"$a	c #BFBFBF",
"$b	c #DFDEDD",
"$c	c #675D4B",
"$d	c #432F23",
"$e	c #79482F",
"$f	c #945232",
"$g	c #8A5333",
"$h	c #3D2624",
"$i	c #A85432",
"$j	c #A25A32",
"$k	c #B35F37",
"$l	c #B75F3A",
"$m	c #B76A3A",
"$n	c #BF7852",
"$o	c #543126",
"$p	c #463124",
"$q	c #463022",
"$r	c #635144",
"$s	c #815D5C",
"$t	c #845B5B",
"$u	c #413028",
"$v	c #6F5B5B",
"$w	c #A81A20",
"$x	c #BC0A09",
"$y	c #C50605",
"$z	c #9F3643",
"$A	c #924451",
"$B	c #AC1D26",
"$C	c #8E333C",
"$D	c #34302E",
"$E	c #52413D",
"$F	c #BEBEBE",
"$G	c #EDEDED",
"$H	c #BEBEBC",
"$I	c #6F574C",
"$J	c #4D3122",
"$K	c #87502E",
"$L	c #9C5333",
"$M	c #452424",
"$N	c #AF5D35",
"$O	c #B35A37",
"$P	c #BA6737",
"$Q	c #C2643A",
"$R	c #C56A3A",
"$S	c #BF7853",
"$T	c #57332A",
"$U	c #523624",
"$V	c #4C3124",
"$W	c #68564B",
"$X	c #775C58",
"$Y	c #8B6362",
"$Z	c #835959",
"$`	c #A11F25",
"% 	c #C50303",
"%.	c #C30F13",
"%+	c #AF2A36",
"%@	c #A43441",
"%#	c #9D4F58",
"%$	c #8F5860",
"%%	c #61534F",
"%&	c #72605B",
"%*	c #6B6A67",
"%=	c #BDBDBD",
"%-	c #AFAFAF",
"%;	c #B9B6B4",
"%>	c #6F5A54",
"%,	c #503428",
"%'	c #A2532F",
"%)	c #452A24",
"%!	c #B35B32",
"%~	c #C2573A",
"%{	c #C36E3A",
"%]	c #D6803E",
"%^	c #B7704D",
"%/	c #5D3A2A",
"%(	c #573326",
"%_	c #533126",
"%:	c #5B453A",
"%<	c #8E6560",
"%[	c #614844",
"%}	c #705654",
"%|	c #AD161D",
"%1	c #CF0202",
"%2	c #B71719",
"%3	c #A4212B",
"%4	c #9A3238",
"%5	c #554A48",
"%6	c #83706B",
"%7	c #8C7E7E",
"%8	c #4C4C4B",
"%9	c #474747",
"%0	c #777777",
"%a	c #A9A9A9",
"%b	c #BCBCBC",
"%c	c #ABABAB",
"%d	c #7A7A7A",
"%e	c #5B5345",
"%f	c #532E24",
"%g	c #452D25",
"%h	c #AF6639",
"%i	c #BA683A",
"%j	c #D1703D",
"%k	c #CA6A45",
"%l	c #C8783D",
"%m	c #B56F58",
"%n	c #544326",
"%o	c #5B3926",
"%p	c #4D3926",
"%q	c #4D3925",
"%r	c #6E544C",
"%s	c #86615C",
"%t	c #8E5559",
"%u	c #A7222B",
"%v	c #D10202",
"%w	c #CC0B0A",
"%x	c #B1232D",
"%y	c #7D5C5F",
"%z	c #726B60",
"%A	c #414141",
"%B	c #897878",
"%C	c #817F7E",
"%D	c #828282",
"%E	c #A2A2A2",
"%F	c #B8B8B8",
"%G	c #BBBBBB",
"%H	c #B9B9B9",
"%I	c #919191",
"%J	c #565048",
"%K	c #532D24",
"%L	c #B05E30",
"%M	c #C56A3B",
"%N	c #C97042",
"%O	c #C8753F",
"%P	c #D98346",
"%Q	c #BA6F48",
"%R	c #684126",
"%S	c #573B26",
"%T	c #5F2E22",
"%U	c #533B28",
"%V	c #63473F",
"%W	c #766056",
"%X	c #6B5C5B",
"%Y	c #972D3E",
"%Z	c #CF0101",
"%`	c #CF192A",
"& 	c #B97781",
"&.	c #545353",
"&+	c #5D5D5D",
"&@	c #AEABB2",
"&#	c #B5B6BA",
"&$	c #BEBFC0",
"&%	c #C0C1C1",
"&&	c #5F4F44",
"&*	c #70482A",
"&=	c #BE683D",
"&-	c #C87041",
"&;	c #D68043",
"&>	c #CD7C3E",
"&,	c #BB7958",
"&'	c #6B432A",
"&)	c #5B3D26",
"&!	c #5B402A",
"&~	c #716660",
"&{	c #60518F",
"&]	c #695CA7",
"&^	c #857FB9",
"&/	c #7527A3",
"&(	c #740657",
"&_	c #9B278F",
"&:	c #AB4C89",
"&<	c #A46496",
"&[	c #A69DAE",
"&}	c #7D78C3",
"&|	c #1C24C2",
"&1	c #1216B5",
"&2	c #1B1FBC",
"&3	c #9B97C9",
"&4	c #9E9D9D",
"&5	c #705E51",
"&6	c #754D34",
"&7	c #D07D41",
"&8	c #DC8F49",
"&9	c #BD6E4E",
"&0	c #78412A",
"&a	c #6B4228",
"&b	c #684226",
"&c	c #64432C",
"&d	c #726489",
"&e	c #0708BA",
"&f	c #1312BC",
"&g	c #2118B6",
"&h	c #28099A",
"&i	c #4217AF",
"&j	c #2F0F98",
"&k	c #401F9B",
"&l	c #4C157B",
"&m	c #5243C3",
"&n	c #645FC8",
"&o	c #B6B6CD",
"&p	c #4B48CA",
"&q	c #3D3DC5",
"&r	c #2D31C3",
"&s	c #9D9D9D",
"&t	c #6B6B6D",
"&u	c #57443C",
"&v	c #C6723F",
"&w	c #D5804B",
"&x	c #BB8052",
"&y	c #73422C",
"&z	c #6B412D",
"&A	c #674127",
"&B	c #5D3D26",
"&C	c #85685C",
"&D	c #8279AE",
"&E	c #1D1DB6",
"&F	c #1F10A7",
"&G	c #7F52B1",
"&H	c #A354B1",
"&I	c #B9549D",
"&J	c #CA6380",
"&K	c #C182B2",
"&L	c #ABAACF",
"&M	c #C3C5CF",
"&N	c #B9B9CD",
"&O	c #948DCA",
"&P	c #A19ECB",
"&Q	c #817BC9",
"&R	c #B6B6B6",
"&S	c #7A7A7C",
"&T	c #5D453D",
"&U	c #C37A4D",
"&V	c #BA8357",
"&W	c #724231",
"&X	c #734834",
"&Y	c #674331",
"&Z	c #A68570",
"&`	c #585452",
"* 	c #85878F",
"*.	c #1015B7",
"*+	c #4340B8",
"*@	c #928BBD",
"*#	c #9A58B8",
"*$	c #A486C5",
"*%	c #A98BC7",
"*&	c #998ECF",
"**	c #C0C2D1",
"*=	c #CACCCD",
"*-	c #B2B2CF",
"*;	c #746BCC",
"*>	c #9A96CA",
"*,	c #C2C2C4",
"*'	c #7B8384",
"*)	c #573F3F",
"*!	c #C88D57",
"*~	c #6E493C",
"*{	c #83735F",
"*]	c #716866",
"*^	c #434242",
"*/	c #858687",
"*(	c #1318C1",
"*_	c #181CC0",
"*:	c #5550CA",
"*<	c #6460C9",
"*[	c #625ACA",
"*}	c #605BC9",
"*|	c #574ECB",
"*1	c #BABAD0",
"*2	c #C6C7CD",
"*3	c #9893CF",
"*4	c #928DCD",
"*5	c #C2C3C5",
"*6	c #B4B4B4",
"*7	c #929292",
"*8	c #AAB3BB",
"*9	c #75808A",
"*0	c #685A57",
"*a	c #333333",
"*b	c #6F7070",
"*c	c #959696",
"*d	c #B3B4B6",
"*e	c #5552C6",
"*f	c #0C0FB4",
"*g	c #0A0EB1",
"*h	c #0A0DB4",
"*i	c #0A0EBC",
"*j	c #090DBC",
"*k	c #161AC2",
"*l	c #AFAECE",
"*m	c #C6C7CA",
"*n	c #C6C7C7",
"*o	c #B3B3B3",
"*p	c #959595",
"*q	c #696969",
"*r	c #575757",
"*s	c #686868",
"*t	c #9FA1A3",
"*u	c #837DBF",
"*v	c #706CC7",
"*w	c #BFC1D0",
"*x	c #CBCDCF",
"*y	c #A6A4CD",
"*z	c #5656C6",
"*A	c #3F42C4",
"*B	c #3D41C3",
"*C	c #3C3CC5",
"*D	c #9895CD",
"*E	c #C1C2C2",
"*F	c #C4C5C6",
"*G	c #B2B2B2",
"*H	c #8D87C9",
"*I	c #3F3FC8",
"*J	c #2428C5",
"*K	c #272CC3",
"*L	c #3636C7",
"*M	c #5451C7",
"*N	c #6562C9",
"*O	c #5A5AC9",
"*P	c #4B4EC7",
"*Q	c #3538C6",
"*R	c #4141C4",
"*S	c #5151C3",
"*T	c #5653C6",
"*U	c #827BC9",
"*V	c #908BC8",
"*W	c #BCBDCA",
"*X	c #BEBFCB",
"*Y	c #B1B1B1",
"*Z	c #CCCDCD",
"*`	c #C8C9D0",
"= 	c #3134C5",
"=.	c #0206B8",
"=+	c #1A1FC3",
"=@	c #3232C3",
"=#	c #0710C3",
"=$	c #0105BC",
"=%	c #0105B8",
"=&	c #0105B0",
"=*	c #0004B4",
"==	c #191DC2",
"=-	c #847FC7",
"=;	c #B7B7CA",
"=>	c #BFC0C0",
"=,	c #B0B0B0",
" . . . . . . . . . . . . . . . . . . . . . . . . . . . . . . . . . . . . . . . . . . . . . . . .",
" . . . . . . . . . . . . . . . . . . . . . . . . . . . . . . . . + @ . . . . . . . . . . . . . .",
" . . # . . . . . . . . . . . . . . . . . . . . . . . . . . . . . $ % . . . . . . . . . . . . . .",
" . . # # . . . . . . . . . . . . . . . . . . . . . . . . . . . . + @ . . & @ @ % . . @ & . & . .",
" . . # # # . . . . . . . . . . . . . . . . . . . . . . . . . . . + @ . * + = = + - . + = ; @ . .",
" . . # # # # . . . . . . . . . . . . . . . . . . . . . . . . . . + @ . @ @ . $ + $ . + + & % . .",
" . . # # # # # . . . . . . . . . . . . . . . . . . . . . . . . . + @ . $ ; + @ + $ . + = . . . .",
" . . # # # # . . . . . . . . . . . . . . . . . . . . . . . . . . + @ . + = . - + $ . + @ . . . .",
" . . # # # . . . . . . . . . . . . . . . . . . . . . . . % @ & . + @ . + = $ @ + $ . + @ . . . .",
" . . # # . . . . . . . . . . . . . . . . . . . . . . . . $ + @ . + @ . @ + + * + $ . + @ . . . .",
" . . # . . . . . . . . . . . . . . . . . . . . . . . . . . . . . + @ . . . . . . . . . . . . . .",
" . . . . . . . . . . . . . . . . . . . . . . . . . . . . . . . @ + & . . . . . . . . . . . . . .",
" . . . . . . . . . . . . . . . . . . . . . . . . . . . . . . . . . . . . . . . . . . . . . . . .",
" . + + + + + + + + + + + > , ' ) ! ~ { ] ^ / ( _ : < [ } | 1 2 3 # 4 5 6 7 8 9 0 a b c d e f g .",
" . + + + + + + + + + + > , ' ) h ~ { ] ^ / ( _ : < [ } | 1 2 3 # 4 5 ; 7 8 9 0 a b c d e f g i .",
" . + + + + + + + + + > , ' ) h ~ { ] ^ j ( : [ 2 # 4 5 4 3 3 # 4 5 ; 7 8 9 0 k b c d e f g i l .",
" . + + + + + + + + > , ' ) h ~ { ^ / / m n o p q r s t u v a 7 ; ; 7 8 9 0 k b c d e w g i l x .",
" . + + + + + + + y , ' ) ! { j z A B C D E F G H I J K L M N O w 0 9 9 0 k b c d e w g i l x P .",
" . + + + + + + y , ) ~ Q R S T U V W X Y Z `. ...+.@.#.$.%.&.*.=.- i c a a c d e w g i l x P.; .",
" . + + + + + y , ).>.,.'.).!.~.{.].^./.(._.:.<.[.}.|.1.2.3.4.5.6.7.8.9 x f e e w f i l x P.0.a .",
" . + + + + y > ' {.b.c.d.e.f.g.h.i.j.k.l.m.n.o.p.q.r.s.t.u.v.w.x.y.z.A.B.C.a i f i l x P.0.a.D .",
" . + + + y > ' ) /.E.F.G.H.I.J.K.L.M.N.O.P.Q.R.S.T.U.V.W.X.Y.Y.Z.`+ +.+++@+#.C.a x x P.0.a.D+$ .",
" . + + y > ' ) h _+%+&+*+=+-+;+>+,+'+)+!+~+{+]+^+/+(+_+:+<+[+[+}+|+1+2+3+4+5+6+7.D P.0.;.D+$+8 .",
" . + y > , ) h ! :+9+0+a+b+c+d+e+f+g+h+i+j+k+l+m+n+o+p+q+r+s+t+u+v.x+w+x+y+z+A+B+C.;.;.D+$+8 O .",
" . y > , ) h ! ~ <+D+E+F+G+H+I+J+K+L+M+N+O+P+Q+R+S+T+U+V+W+X+Y+Z+`@ @.@+@@@@@@@#@$+$.D+$+8 O@% .",
" . > , ) h ! ~ { [@&@*@=@-@;@>@,@'@)@!@~@{@]@^@/@(@_@:@<@[@}@|@1@2@3@4@5@5@@@@@6@7@%+$+8 O@% = .",
" . , ' h ! ~ { ] }@8@9@0@a@b@c@d@e@f@g@h@i@j@k@l@m@n@o@p@q@r@s@t@u@v@w@x@y@z@z@A+B+C+8 O@%@B@C .",
" . ' h ! ~ { ] j |@D@E@F@G@H@I@J@K@L@M@N@O@P@Q@R@S@T@U@V@W@X@Y@Z@`# #.#+#@##@z#$#%#& O@%@B@C+C .",
" . h ! ~ { ] j / 1#*#=#-#;#>#,#'#)#!#~#{#]#^#/#(#_#:#<#[#}#|#1#2#3#4#5#6#7#8#9#$#0.9@%@B@C+C#& .",
" . ! ~ { ] ^ / ( 2#a#b#c#d#e+|#f#g#h#i#j#k#l#m#n#o#p#q#r#s#t#u#v#w#x#y#z#A#B@5#C#0.-@B =+C#&.9 .",
" . ~ { ] ^ / ( _#D#E#F#G#H#I#J#K#L.Y#M#N#O#P#Q#R#S#T#U#V#W#X#Y#Z#`$ $.$+$@$#$$#C$%.C =+C#&.9.- .",
" . { ] ^ / ( _ : 3$&$*$=$-$;$>$,$'$)$!$~${$]$^$/$($_$:$<$[$}$|$1$2$3$4$5$6$7$8$9$0$a+C#&.9.-.C .",
" . ] ^ j ( _ : < #$b$c$d$e$f$g$h$i$j$k$l$m$n$o$p$q$r$s$t$u$v$w$x$y$z$A$B$C$D$E#$$0$F#&.9.-.C$F .",
" . ^ j ( _ : <$G 3+C$H$I$J$K$L$M$N$O$P$Q$R$S$T$U$V$W$X$Y$Z$`% %.%+%@%#%$%%%&%* $+B%=.9.-.C$a%= .",
" . j ( _ : <$G } 1 a%-%;%>%,%'%)%!%~$Q%{%]%^%/%(%_%:%<%[%}%|%1%2%3%4%5%6%7%8%9%0%a$F.-.C$a%=%b .",
" . / _ : <$G } | 1 4 f%c%d%e%f%g%h%i%j%k%l%m%n%o%p%q%r%s%t%u%v%w%x%y%z%A%B%C%D%E%F.C.C$a%=%b%G .",
" . _ : <$G [ | 1 2#D 6 i%H%I%J%K%L%M%N%O%P%Q#b%R%S%T%U%V%W%X%Y%Z%`& &.&+%I&@&#&$&%.C$a$F%b%G+7 .",
" . : <$G [ | 1 2#D 3 4 7 c O%E&&&*&=&-&;&>&,&'&)@=&!&~&{&]&^&/&(&_&:&<&[&}&|&1&2&3$a$F%b%G+7%H .",
" . <$G [ | 1 2#D 3 4 5 ; 6 k.D&4&5&6@[&7&8&9&0&a&b&c&d&e&f&g&h&i&j&k&l&m&n&o&p&q&r$F%b%G+7%H%F .",
" .$G [ } 1 2#D 3 4 5 ; 6 7 9 c@B&s&t&u&v&w&x&y&z&A&B&C&D&E&F&G&H&I&J&K&L&M&N&O&P&Q%=%G+7%H%F&R .",
" . [ } 1 2#D 3 # 5 ; 6 7 9 0 k w.9$%&S&T&U&V&W&X&Y&Z&`* *.*+*@*#*$*%*&***=*-*;*>*,%G+7%H%F+#@$ .",
" . } 1 2#D 3 # 5 ; 6 7 8 0 k a b i$a$0*'*)*!*~*{*]*^%9*/*(*_*:*<*[*}*|*1*2*3*4*5%G+7%H%F+#@$*6 .",
" . | 2#D 3 # 5 ; 6 7 8 0 k a b c w P%=*7*8*9*0*a#C*b*c*d*e*f*g*h*i*j*k*l*m*n.C%=+7%H%F+#@$*6*o .",
" . 2#D 3 # 4 ; 6 7 8 0 k a b c e w f.0%=*p*q*r*s*t*u*v*w*x*y*z*A*B*C*D+C.C*E*5*F%b%F+#&R*6*o*G .",
" .#D 3 # 4 ; 6 7 8 9 k a b c d w f g i.a$a @%E @*H*I*J*K*L*M*N*O*P*Q*R*S*T*U*V*W*X+#&R*6*o*G*Y .",
" . 3 # 4 ; 6 7 8 9 k a b c d w f g i l P.a O@%@B*Z*`*l= =.=+=@=#=$=%=&=*===-=;*5=>&R*6*o*G*Y=, .",
" . # 4 5 6 7 8 9 k a b c d w f g i l P.0.;.a.D+8 O@%@B@C+C#&.9.-$a$F%=%b%G%H%F+#&R@$*o*G*Y=,%- .",
" . . . . . . . . . . . . . . . . . . . . . . . . . . . . . . . . . . . . . . . . . . . . . . . ."};
