/* XPM */
static char * file_dot_cc_xpm[] = {
"48 48 609 2",
"  	c None",
". 	c #000000",
"+ 	c #E5E5E5",
"@ 	c #383838",
"# 	c #AAAAAA",
"$ 	c #717171",
"% 	c #8D8D8D",
"& 	c #FFFFFF",
"* 	c #E2E2E2",
"= 	c #1C1C1C",
"- 	c #555555",
"; 	c #C6C6C6",
"> 	c #FDFDFD",
", 	c #FCFCFC",
"' 	c #FBFBFB",
") 	c #FAFAFA",
"! 	c #F8F8F8",
"~ 	c #F7F7F7",
"{ 	c #F6F6F6",
"] 	c #F5F5F5",
"^ 	c #F4F4F4",
"/ 	c #F2F2F2",
"( 	c #F1F1F1",
"_ 	c #F0F0F0",
": 	c #EFEFEF",
"< 	c #EEEEEE",
"[ 	c #ECECEC",
"} 	c #EBEBEB",
"| 	c #EAEAEA",
"1 	c #E9E9E9",
"2 	c #E8E8E8",
"3 	c #E6E6E6",
"4 	c #E4E4E4",
"5 	c #E3E3E3",
"6 	c #E1E1E1",
"7 	c #E0E0E0",
"8 	c #DFDFDF",
"9 	c #DEDEDE",
"0 	c #DDDDDD",
"a 	c #DBDBDB",
"b 	c #DADADA",
"c 	c #D9D9D9",
"d 	c #D8D8D8",
"e 	c #D7D7D7",
"f 	c #D5D5D5",
"g 	c #D4D4D4",
"h 	c #F9F9F9",
"i 	c #D3D3D3",
"j 	c #F3F3F3",
"k 	c #E7E7E7",
"l 	c #DCDCDC",
"m 	c #D2D2D2",
"n 	c #EAE9EA",
"o 	c #D6D2D6",
"p 	c #C5B3C5",
"q 	c #BC8FBC",
"r 	c #D27AD2",
"s 	c #DA74D9",
"t 	c #D872D7",
"u 	c #CB7DCB",
"v 	c #BE91BD",
"w 	c #BEAEBD",
"x 	c #C9C7C9",
"y 	c #D6D6D6",
"z 	c #D1D1D1",
"A 	c #FEFEFE",
"B 	c #D3C5D3",
"C 	c #CA91CA",
"D 	c #E468E3",
"E 	c #F34FF0",
"F 	c #F344F0",
"G 	c #F23DF0",
"H 	c #EE3EEB",
"I 	c #ED3FE9",
"J 	c #EF40E9",
"K 	c #EE41E4",
"L 	c #E747E0",
"M 	c #BF59BB",
"N 	c #A883A6",
"O 	c #B8B5B8",
"P 	c #D0D0D0",
"Q 	c #E5E2E5",
"R 	c #C5A0C5",
"S 	c #EE66EE",
"T 	c #F14CF0",
"U 	c #EC41E5",
"V 	c #E33EDC",
"W 	c #DD3BDA",
"X 	c #DD37D9",
"Y 	c #D834D8",
"Z 	c #DB36D3",
"` 	c #DB32D0",
" .	c #DE37D0",
"..	c #E13AD7",
"+.	c #E739DE",
"@.	c #E23BD7",
"#.	c #AA53A5",
"$.	c #9C8B9B",
"%.	c #C3C3C3",
"&.	c #CECECE",
"*.	c #E0DBE0",
"=.	c #D18ED1",
"-.	c #F153EF",
";.	c #EC3FE9",
">.	c #E436D9",
",.	c #DC33D1",
"'.	c #D832CD",
").	c #D732D0",
"!.	c #D635CF",
"~.	c #D333D5",
"{.	c #D330D2",
"].	c #D632CE",
"^.	c #DA35CE",
"/.	c #DB36D1",
"(.	c #DC35D3",
"_.	c #DD34D8",
":.	c #DA32D3",
"<.	c #AE3DA9",
"[.	c #8B708A",
"}.	c #B8B7B8",
"|.	c #CFCFCF",
"1.	c #CDCDCD",
"2.	c #E2DFE2",
"3.	c #D08BD0",
"4.	c #F052EE",
"5.	c #E73FE0",
"6.	c #DA38D6",
"7.	c #D831CF",
"8.	c #DC37CF",
"9.	c #D835C9",
"0.	c #C631BB",
"a.	c #C02FB6",
"b.	c #B62BB4",
"c.	c #B92EBB",
"d.	c #C530BF",
"e.	c #D034C7",
"f.	c #D936CE",
"g.	c #DA33D1",
"h.	c #DA31D4",
"i.	c #D932D2",
"j.	c #D436CC",
"k.	c #A837A3",
"l.	c #7E677D",
"m.	c #B4B4B4",
"n.	c #CCCCCC",
"o.	c #ECEBEC",
"p.	c #CA9ACA",
"q.	c #EE51EA",
"r.	c #E33FE1",
"s.	c #DA37D0",
"t.	c #D831CD",
"u.	c #D831CB",
"v.	c #C430BE",
"w.	c #9D2895",
"x.	c #631B5F",
"y.	c #5B215A",
"z.	c #4D2351",
"A.	c #59255D",
"B.	c #71226E",
"C.	c #952793",
"D.	c #BE2EBB",
"E.	c #D231C9",
"F.	c #D535D0",
"G.	c #DD36D5",
"H.	c #D834D0",
"I.	c #CC34C2",
"J.	c #90348B",
"K.	c #7C717B",
"L.	c #BABABA",
"M.	c #CBCBCB",
"N.	c #D9D3D9",
"O.	c #C36CC2",
"P.	c #C63CC6",
"Q.	c #D135D1",
"R.	c #D134CF",
"S.	c #CF33CB",
"T.	c #A628A2",
"U.	c #601B5F",
"V.	c #3B2A41",
"W.	c #3B5751",
"X.	c #528474",
"Y.	c #58907C",
"Z.	c #588D7B",
"`.	c #568277",
" +	c #545F69",
".+	c #703476",
"++	c #AA2CA9",
"@+	c #D234CC",
"#+	c #D733CF",
"$+	c #C92FBD",
"%+	c #91248C",
"&+	c #571F55",
"*+	c #6A4F69",
"=+	c #9C9B9C",
"-+	c #CACACA",
";+	c #EFE7EE",
">+	c #DAB9D9",
",+	c #8B4B88",
"'+	c #962993",
")+	c #BA2DBA",
"!+	c #A827A7",
"~+	c #4C2053",
"{+	c #38554E",
"]+	c #58947E",
"^+	c #65AB91",
"/+	c #67AF94",
"(+	c #65AD92",
"_+	c #65AC92",
":+	c #5F9986",
"<+	c #715B7F",
"[+	c #AC35A7",
"}+	c #B028AB",
"|+	c #6C1B66",
"1+	c #4C1A49",
"2+	c #5E2F5D",
"3+	c #AB46A9",
"4+	c #7B657A",
"5+	c #B0B0B0",
"6+	c #C9C9C9",
"7+	c #CEC1CE",
"8+	c #E960E9",
"9+	c #D455D1",
"0+	c #9B5D98",
"a+	c #7A3E79",
"b+	c #7F2879",
"c+	c #5F215D",
"d+	c #39544F",
"e+	c #5D9F87",
"f+	c #61A18A",
"g+	c #715C82",
"h+	c #501A51",
"i+	c #491E49",
"j+	c #883886",
"k+	c #E64BE1",
"l+	c #D63ACE",
"m+	c #7E3B7B",
"n+	c #878587",
"o+	c #C8C8C8",
"p+	c #F0EDF0",
"q+	c #C29CC2",
"r+	c #F14BEE",
"s+	c #E03FDB",
"t+	c #D33CCD",
"u+	c #B043AB",
"v+	c #853E82",
"w+	c #534E63",
"x+	c #5B9B84",
"y+	c #5F9885",
"z+	c #5D3260",
"A+	c #B23AB1",
"B+	c #E544E2",
"C+	c #E43ED9",
"D+	c #D333CB",
"E+	c #962990",
"F+	c #5D555D",
"G+	c #A4A4A4",
"H+	c #C7C7C7",
"I+	c #EDE4ED",
"J+	c #CC7BCA",
"K+	c #EE44E6",
"L+	c #D93BD5",
"M+	c #DA36D8",
"N+	c #D137CB",
"O+	c #893188",
"P+	c #5C857D",
"Q+	c #67AE94",
"R+	c #67B094",
"S+	c #66AF93",
"T+	c #8F7DA7",
"U+	c #DC36D8",
"V+	c #E038D9",
"W+	c #DA36D2",
"X+	c #D532CE",
"Y+	c #A6289F",
"Z+	c #4A3449",
"`+	c #8E8E8E",
" @	c #BFBFBF",
".@	c #C5C5C5",
"+@	c #EADCE9",
"@@	c #DB64D9",
"#@	c #E83EE3",
"$@	c #D63AD2",
"%@	c #D631D3",
"&@	c #B72BB5",
"*@	c #4F2A56",
"=@	c #5D9D85",
"-@	c #68AF95",
";@	c #729F99",
">@	c #C14DC4",
",@	c #DF36D5",
"'@	c #D936D2",
")@	c #D534CD",
"!@	c #A6279C",
"~@	c #4B2248",
"{@	c #797979",
"]@	c #B5B5B5",
"^@	c #C4C4C4",
"/@	c #D9D2D9",
"(@	c #E35BDE",
"_@	c #EA40E1",
":@	c #DB39D1",
"<@	c #DA31CD",
"[@	c #B12DA9",
"}@	c #4F3858",
"|@	c #64AA90",
"1@	c #72AC9C",
"2@	c #C860CE",
"3@	c #E539DB",
"4@	c #DD36D3",
"5@	c #D733D0",
"6@	c #BC2CB5",
"7@	c #5A1F58",
"8@	c #696969",
"9@	c #ADADAD",
"0@	c #D1CCD1",
"a@	c #DF50DA",
"b@	c #E53DE0",
"c@	c #D934D5",
"d@	c #D733D2",
"e@	c #B326AA",
"f@	c #554261",
"g@	c #65AC91",
"h@	c #67AF95",
"i@	c #71AE9C",
"j@	c #BE6BD1",
"k@	c #DD39D9",
"l@	c #D436CD",
"m@	c #D531CF",
"n@	c #B92BB3",
"o@	c #4F1A4D",
"p@	c #5E5E5E",
"q@	c #A7A7A7",
"r@	c #C2C2C2",
"s@	c #D5CFD4",
"t@	c #D052C7",
"u@	c #DF37D3",
"v@	c #DE34D4",
"w@	c #DA34D5",
"x@	c #BF2CB6",
"y@	c #5C3C65",
"z@	c #65AA90",
"A@	c #67B095",
"B@	c #73AF9E",
"C@	c #C968D6",
"D@	c #E43EDA",
"E@	c #D333CE",
"F@	c #D332CB",
"G@	c #AE28A6",
"H@	c #481847",
"I@	c #5A5A5A",
"J@	c #A3A3A3",
"K@	c #C1C1C1",
"L@	c #E0D4E0",
"M@	c #C05FBD",
"N@	c #E63FDD",
"O@	c #DC35D1",
"P@	c #D735D0",
"Q@	c #D02EC7",
"R@	c #823983",
"S@	c #62A08A",
"T@	c #7FB6AC",
"U@	c #E161E9",
"V@	c #E43FDF",
"W@	c #D634D3",
"X@	c #D332CF",
"Y@	c #9A2698",
"Z@	c #3B183A",
"`@	c #5C5C5C",
" #	c #C0C0C0",
".#	c #E1DAE1",
"+#	c #A26E9F",
"@#	c #DC38D2",
"##	c #DA34D1",
"$#	c #D531D2",
"%#	c #D434CE",
"&#	c #AD30A5",
"*#	c #657C81",
"=#	c #68B195",
"-#	c #9FA7C3",
";#	c #ED47EA",
">#	c #DA3AD5",
",#	c #D937D1",
"'#	c #D131C7",
")#	c #862084",
"!#	c #301D30",
"~#	c #646464",
"{#	c #BEBEBE",
"]#	c #EDEDED",
"^#	c #E4E2E3",
"/#	c #A58EA4",
"(#	c #CE3BC7",
"_#	c #DA35D3",
":#	c #D632CD",
"<#	c #D334CF",
"[#	c #C735C1",
"}#	c #824E8D",
"|#	c #66A28F",
"1#	c #77BFA7",
"2#	c #D175E1",
"3#	c #EA38E3",
"4#	c #D439D1",
"5#	c #D73AD2",
"6#	c #C531BB",
"7#	c #64195F",
"8#	c #2D252D",
"9#	c #727272",
"0#	c #AEAEAE",
"a#	c #BDBDBD",
"b#	c #C7B5C9",
"c#	c #B24AAD",
"d#	c #D932CF",
"e#	c #D737CE",
"f#	c #D537CF",
"g#	c #BA37BB",
"h#	c #87749B",
"i#	c #69AA94",
"j#	c #74BBA3",
"k#	c #BA95D4",
"l#	c #EC48EE",
"m#	c #DF34D5",
"n#	c #D536CE",
"o#	c #D135CD",
"p#	c #A92AA2",
"q#	c #3D123A",
"r#	c #393839",
"s#	c #848484",
"t#	c #BCBCBC",
"u#	c #D5D0D5",
"v#	c #986C96",
"w#	c #CD37C9",
"x#	c #D635D2",
"y#	c #DA37D2",
"z#	c #DE3AD4",
"A#	c #D930D0",
"B#	c #C043BE",
"C#	c #8978A2",
"D#	c #6FAD9A",
"E#	c #68B095",
"F#	c #6AB398",
"G#	c #81BDAF",
"H#	c #B79ED6",
"I#	c #EB55F0",
"J#	c #E338DC",
"K#	c #D738CC",
"L#	c #DB33CB",
"M#	c #CB2EC2",
"N#	c #6F1A6C",
"O#	c #251725",
"P#	c #535353",
"Q#	c #989898",
"R#	c #BBBBBB",
"S#	c #BEABBD",
"T#	c #984394",
"U#	c #CE36C2",
"V#	c #D934D3",
"W#	c #D533D3",
"X#	c #DD32D5",
"Y#	c #DC36CF",
"Z#	c #D83ECF",
"`#	c #C563CA",
" $	c #9493B4",
".$	c #82AEAC",
"+$	c #6EA496",
"@$	c #79B1A4",
"#$	c #88B5B4",
"$$	c #AEA7D1",
"%$	c #DD6FEC",
"&$	c #E943EB",
"*$	c #DB35DA",
"=$	c #D938D0",
"-$	c #D536CC",
";$	c #D232C3",
">$	c #96238B",
",$	c #321030",
"'$	c #312F31",
")$	c #737373",
"!$	c #A9A9A9",
"~$	c #D1D0D1",
"{$	c #917C90",
"]$	c #953292",
"^$	c #C82DC4",
"/$	c #D736D2",
"($	c #D735CF",
"_$	c #D838CF",
":$	c #D836D6",
"<$	c #DE36DC",
"[$	c #DC41E0",
"}$	c #DA4FDD",
"|$	c #5F2C61",
"1$	c #9C4AA0",
"2$	c #E95AEC",
"3$	c #F046ED",
"4$	c #EC3CE3",
"5$	c #DB35D1",
"6$	c #DB33CF",
"7$	c #D53BD6",
"8$	c #CE36C9",
"9$	c #A7289F",
"0$	c #481244",
"a$	c #221C22",
"b$	c #585858",
"c$	c #939393",
"d$	c #B7B7B7",
"e$	c #B9B9B9",
"f$	c #C3BFC3",
"g$	c #896588",
"h$	c #943091",
"i$	c #C733C1",
"j$	c #D432CF",
"k$	c #D633CC",
"l$	c #D832D3",
"m$	c #DC35D6",
"n$	c #C32FBB",
"o$	c #511A4F",
"p$	c #A03799",
"q$	c #EE3BE1",
"r$	c #E133D6",
"s$	c #D937CE",
"t$	c #D839CB",
"u$	c #DB30CB",
"v$	c #D335CB",
"w$	c #A42B9F",
"x$	c #491447",
"y$	c #221621",
"z$	c #464646",
"A$	c #818181",
"B$	c #ACACAC",
"C$	c #B8B8B8",
"D$	c #B7B2B7",
"E$	c #7D5D7B",
"F$	c #852B7E",
"G$	c #B12CAD",
"H$	c #D132C6",
"I$	c #D733CE",
"J$	c #D731D1",
"K$	c #D731D2",
"L$	c #B527B3",
"M$	c #521C50",
"N$	c #A73BA3",
"O$	c #EA3BDD",
"P$	c #DD34D1",
"Q$	c #D536D0",
"R$	c #D236CA",
"S$	c #CB2CBA",
"T$	c #93218D",
"U$	c #40113D",
"V$	c #1F161E",
"W$	c #414141",
"X$	c #767676",
"Y$	c #B6B6B6",
"Z$	c #B2B0B2",
"`$	c #746673",
" %	c #652F64",
".%	c #8B2486",
"+%	c #B12BA7",
"@%	c #C62FBF",
"#%	c #D031CB",
"$%	c #B82AB2",
"%%	c #4D1E4B",
"&%	c #A93FA5",
"*%	c #E139DB",
"=%	c #CE31C6",
"-%	c #B72CB6",
";%	c #9C2499",
">%	c #631660",
",%	c #2D0F2C",
"'%	c #211D21",
")%	c #474747",
"!%	c #A1A1A1",
"~%	c #837F83",
"{%	c #594758",
"]%	c #5B2757",
"^%	c #6E1E6B",
"/%	c #861E82",
"(%	c #90228A",
"_%	c #4C214A",
":%	c #9D3E99",
"<%	c #A62AA0",
"[%	c #7B1C76",
"}%	c #4B124A",
"|%	c #371136",
"1%	c #211720",
"2%	c #323132",
"3%	c #595959",
"4%	c #A2A0A2",
"5%	c #827A82",
"6%	c #575257",
"7%	c #463545",
"8%	c #3F263D",
"9%	c #4B374A",
"0%	c #694A68",
"a%	c #463645",
"b%	c #332C32",
"c%	c #2F2D2F",
"d%	c #464046",
"e%	c #959595",
"f%	c #B3B3B3",
"g%	c #919191",
"h%	c #7F7F7F",
"i%	c #8B8B8B",
"j%	c #888888",
"k%	c #7A7A7A",
"l%	c #7C7C7C",
"m%	c #8A8A8A",
"n%	c #9B9B9B",
"o%	c #ABABAB",
"p%	c #B2B2B2",
"q%	c #B1B1B1",
"r%	c #AFAFAF",
". . . . . . . . . . . . . . . . . . . . . . . . . . . . . . . . . . . . . . . . . . . . . . . . ",
". . . . . . . . . . . . . . . . . . . . . . . . . . . . . . . . . . . . . . . . . . . . . . . . ",
". . + + + + + + + . . . . . . . . . . . . . . . . . . . . . . . . . . @ # $ . . . . $ # @ . . . ",
". . + . . . . . + . . . . . . . . . . . . . . . . . . . . . . . . . % & & & % . . * & & & @ . . ",
". . + . + + + . + . . . . . . . . . . . . . . . . . . . . . . . . = & % . % & . $ * - . * # . . ",
". . + . . . . . + . . . . . . . . . . . . . . . . . . . . . . . . - & . . . . . # # . . . . . . ",
". . + . + + + . + . . . . . . . . . . . . . . . . . . . . . . . . - & @ . @ # . # ; = . $ $ . . ",
". . + . . . . . + . . . . . . . . . . . . . . . . . . . . . @ # $ = & * - # * . $ & # - * % . . ",
". . + . + + + . + . . . . . . . . . . . . . . . . . . . . . - & # . - ; & * @ . . % * & ; . . . ",
". . + . . . . . + . . . . . . . . . . . . . . . . . . . . . . . . . . . . . . . . . . . . . . . ",
". . + + + + + + + . . . . . . . . . . . . . . . . . . . . . . . . . . . . . . . . . . . . . . . ",
". . . . . . . . . . . . . . . . . . . . . . . . . . . . . . . . . . . . . . . . . . . . . . . . ",
". . . . . . . . . . . . . . . . . . . . . . . . . . . . . . . . . . . . . . . . . . . . . . . . ",
". & & & & & & & & & & & > , ' ) ! ~ { ] ^ / ( _ : < [ } | 1 2 3 + 4 5 6 7 8 9 0 a b c d e f g . ",
". & & & & & & & & & & > , ' ) h ~ { ] ^ / ( _ : < [ } | 1 2 3 + 4 5 * 7 8 9 0 a b c d e f g i . ",
". & & & & & & & & & > , ' ) h ~ { ] ^ j _ < [ | 2 k k k k 3 + 4 5 * 7 8 9 0 l b c d e f g i m . ",
". & & & & & & & & > , ' ) h ~ { ] j n o p q r s t u v w x d 7 * * 7 8 9 0 l b c d e y g i m z . ",
". & & & & & & & A , ' ) h ! { ] < B C D E F G H I J K L M N O f 0 8 9 0 l b c d e y g i m z P . ",
". & & & & & & A , ' ) h ! { ] Q R S T U V W X Y Z `  ...+.@.#.$.%.e l l a c d e y g i m z P &.. ",
". & & & & & A , ' ) h ! { ] *.=.-.;.>.,.'.).!.~.{.].^./.(._.:.<.[.}.m c c d e y f i m z P |.1.. ",
". & & & & A > ' ) h ! ~ ] 2.3.4.5.6.7.8.9.0.a.b.c.d.e.f.g.h.i.j.k.l.m.|.e e y f i m z P |.1.n.. ",
". & & & A > ' ) h ! ~ ] o.p.q.r.s.t.u.v.w.x.y.z.A.B.C.D.E.F.G.H.I.J.K.L.z y f i m z P |.1.n.M.. ",
". & & A > ' ) h ! ~ ] ^ N.O.P.Q.R.S.T.U.V.W.X.Y.Z.`. +.+++@+#+$+%+&+*+=+; i g m z P |.&.n.M.-+. ",
". & A > , ) h ! ~ { ^ ;+>+v ,+'+)+!+~+{+]+^+/+/+(+/+_+:+<+[+}+|+1+2+3+4+5+M.z z P |.&.n.M.-+6+. ",
". A > , ) h ! ~ { ^ / 7+8+9+0+a+b+c+d+e+/+/+/+/+(+/+/+/+f+g+h+i+j+k+l+m+n+L.1.P |.&.n.M.-+6+o+. ",
". > , ) h ! ~ { ^ j p+q+r+s+t+u+v+w+x+/+/+/+/+/+(+/+/+/+/+y+z+A+B+C+D+E+F+G+H+&.&.1.M.-+6+o+; . ",
". , ' h ! ~ { ] j / I+J+K+L+M+N+O+P+Q+/+/+/+/+/+(+/+/+/+R+S+T+U+V+W+X+Y+Z+`+ @n.1.M.-+6+o+H+.@. ",
". ' h ! ~ { ] j / ( +@@@#@$@%@&@*@=@-@/+/+/+/+/+(+/+/+/+/+R+;@>@,@'@)@!@~@{@]@-+M.-+6+o+H+.@^@. ",
". h ! ~ { ] j / ( _ /@(@_@:@<@[@}@|@-@/+/+/+/+/+(+/+/+/+/+R+1@2@3@4@5@6@7@8@9@o+-+6+o+H+.@^@%.. ",
". ! ~ { ] ^ / ( _ : 0@a@b@c@d@e@f@g@h@/+/+/+/+/+(+/+/+/+/+R+i@j@k@l@m@n@o@p@q@.@6+o+H+; ^@%.r@. ",
". ~ { ] ^ / ( _ : < s@t@u@v@w@x@y@z@A@/+/+/+/+/+(+/+/+/+/+R+B@C@D@E@F@G@H@I@J@^@o+H+; ^@%.r@K@. ",
". { ] ^ / ( _ : < [ L@M@N@O@P@Q@R@S@h@/+/+/+/+/+(+/+/+/+/+/+T@U@V@W@X@Y@Z@`@J@%.H+; ^@%.r@K@ #. ",
". ] ^ j ( _ : < [ } .#+#@###$#%#&#*#Q+/+/+/+/+/+(+/+/+/+/+=#-#;#>#,#'#)#!#~#q@%.; .@%.r@K@ #{#. ",
". ^ j ( _ : < ]#} | ^#/#(#_#:#<#[#}#|#/+/+/+/+/+(+/+/+/+A@1#2#3#4#5#6#7#8#9#0#%..@%.r@K@ # @a#. ",
". j ( _ : < ]#} | 1 + b#c#d#e#f#f#g#h#i#/+/+/+/+(+/+/+A@j#k#l#m#n#o#p#q#r#s#]@%.%.r@K@ # @a#t#. ",
". / _ : < ]#} | 1 2 3 u#v#w#x#y#z#A#B#C#D#E#/+/+(+/+F#G#H#I#J#K#L#M#N#O#P#Q#R#%.r@K@ # @a#t#R#. ",
". _ : < ]#[ | 1 2 k + 0 S#T#U#V#W#X#Y#Z#`# $.$+$@$#$$$%$&$*$=$-$;$>$,$'$)$!$ @r@K@ # @{#t#R#L.. ",
". : < ]#[ | 1 2 k 3 4 6 ~${$]$^$/$($_$:$<$[$}$|$1$2$3$4$5$6$7$8$9$0$a$b$c$d$ #K@ # @{#t#R#L.e$. ",
". < ]#[ | 1 2 k 3 4 5 * a f$g$h$i$j$e#k$l$m$n$o$p$q$r$s$t$u$v$w$x$y$z$A$B$ @K@ # @{#t#R#L.e$C$. ",
". ]#[ } 1 2 k 3 4 5 * 6 8 f D$E$F$G$H$I$J$K$L$M$N$O$P$Q$R$S$T$U$V$W$X$G+R# # # @{#a#R#L.e$C$Y$. ",
". [ } 1 2 k 3 + 5 * 6 7 9 a P Z$`$ %.%+%@%#%$%%%&%*%=%-%;%>%,%'%)%X$!%e$ @ # @{#a#R#L.e$C$d$]@. ",
". } 1 2 k 3 + 5 * 6 7 8 0 l c |.Y$~%{%]%^%/%(%_%:%<%[%}%|%1%2%3%A$G+e$ # # @{#a#R#L.e$C$d$]@m.. ",
". | 2 k 3 + 5 * 6 7 8 0 l a b e |.a#4%5%6%7%8%9%0%a%b%c%d%b$X$e%9@R# # # @{#a#t#L.e$C$d$]@m.f%. ",
". 2 k 3 + 4 * 6 7 8 0 l a b c e f P H+C$G+g%A$h%i%j%k%l%m%n%o%C$ @K@ # @{#a#t#L.e$C$d$Y$m.f%p%. ",
". k 3 + 4 * 6 7 8 9 l a b c d y f g m n.H+K@e$Y$d$]@p%f%e$a# #r@r@K@ @{#a#t#L.e$C$d$Y$m.f%p%q%. ",
". 3 + 4 * 6 7 8 9 l a b c d y f g i m P |.1.M.o+o+; .@.@^@^@%.r@K@ @{#a#t#R#e$C$d$Y$m.f%p%q%5+. ",
". + 4 5 6 7 8 9 l a b c d y f g i m P |.&.1.n.-+6+o+H+.@^@%.r@K@ @{#a#t#R#e$C$d$Y$]@f%p%q%5+r%. ",
". . . . . . . . . . . . . . . . . . . . . . . . . . . . . . . . . . . . . . . . . . . . . . . . "};
