/* XPM */
static char *file-makefile[] = {
/* width height num_colors chars_per_pixel */
"    48    48      166            2",
/* colors */
".. c #040204",
".# c #5c827c",
".a c #7c227c",
".b c #7c6a7c",
".c c #c4c2c4",
".d c #bc2eb4",
".e c #444244",
".f c #a492c4",
".g c #4c164c",
".h c #cc42cc",
".i c #64a68c",
".j c #646664",
".k c #9c2a94",
".l c #e4e2e4",
".m c #848284",
".n c #acaaac",
".o c #6c2a64",
".p c #342634",
".q c #644664",
".r c #bc5eb4",
".s c #d4d2d4",
".t c #ac32a4",
".u c #dc3ad4",
".v c #7c2e7c",
".w c #e442e4",
".x c #6c666c",
".y c #949294",
".z c #641a64",
".A c #f4f2f4",
".B c #d4aed4",
".C c #dccadc",
".D c #9c9e9c",
".E c #343634",
".F c #5c8e84",
".G c #ac72bc",
".H c #545654",
".I c #cc8ecc",
".J c #944e8c",
".K c #dc32cc",
".L c #747274",
".M c #8c2684",
".N c #7c767c",
".O c #cccacc",
".P c #b4b6b4",
".Q c #6c3a6c",
".R c #745674",
".S c #e44adc",
".T c #141214",
".U c #cc36c4",
".V c #a4a2a4",
".W c #64ae94",
".X c #eceaec",
".Y c #d432d4",
".Z c #84829c",
".0 c #343234",
".1 c #cc6edc",
".2 c #9c9a9c",
".3 c #6c2664",
".4 c #6c8e8c",
".5 c #7c727c",
".6 c #c42ebc",
".7 c #5c1a54",
".8 c #dc42d4",
".9 c #a4269c",
"#. c #6c326c",
"## c #dcdadc",
"#a c #e43adc",
"#b c #8c2e8c",
"#c c #6c6e6c",
"#d c #8c92ac",
"#e c #fcfafc",
"#f c #ac2eac",
"#g c #5c565c",
"#h c #a44aa4",
"#i c #745e74",
"#j c #140614",
"#k c #842684",
"#l c #d4c2d4",
"#m c #4c4a4c",
"#n c #b492cc",
"#o c #4c1e4c",
"#p c #a43aa4",
"#q c #64aa8c",
"#r c #547a6c",
"#s c #d436cc",
"#t c #8c8a8c",
"#u c #b4b2b4",
"#v c #742e74",
"#w c #dc56dc",
"#x c #b436b4",
"#y c #e446dc",
"#z c #ccbacc",
"#A c #3c3e3c",
"#B c #649684",
"#C c #74728c",
"#D c #d4cad4",
"#E c #bcbebc",
"#F c #745684",
"#G c #f4eaf4",
"#H c #c432bc",
"#I c #a42a9c",
"#J c #0c0a0c",
"#K c #7c267c",
"#L c #7c6694",
"#M c #c4c6c4",
"#N c #a49abc",
"#O c #d442d4",
"#P c #646e7c",
"#Q c #e4e6e4",
"#R c #d432cc",
"#S c #acaeac",
"#T c #6c2e74",
"#U c #342a34",
"#V c #6c526c",
"#W c #d4d6d4",
"#X c #ac36a4",
"#Y c #dc3ed4",
"#Z c #842e84",
"#0 c #c4a2c4",
"#1 c #1c1e1c",
"#2 c #ecceec",
"#3 c #9486ac",
"#4 c #4c5e64",
"#5 c #8c7284",
"#6 c #742274",
"#7 c #842a84",
"#8 c #3c3a3c",
"#9 c #bcbabc",
"a. c #3c2e3c",
"a# c #749294",
"aa c #544e54",
"ab c #74b29c",
"ac c #e452dc",
"ad c #dcaedc",
"ae c #c43ec4",
"af c #746e74",
"ag c #9492b4",
"ah c #b42eb4",
"ai c #541e54",
"aj c #6cae94",
"ak c #ac3aa4",
"al c #dc36d4",
"am c #e44ee4",
"an c #6c6a6c",
"ao c #949694",
"ap c #641e64",
"aq c #f4f6f4",
"ar c #5c9284",
"as c #747674",
"at c #cccecc",
"au c #745a74",
"av c #a4a6a4",
"aw c #eceeec",
"ax c #d436d4",
"ay c #cc72dc",
"az c #dcdedc",
"aA c #e43edc",
"aB c #8c328c",
"aC c #fcfefc",
"aD c #8c8e8c",
"aE c #ac2aa4",
"aF c #dc42dc",
"aG c #a426a4",
"aH c #64aa94",
"aI c #e446e4",
"aJ c #c432c4",
/* pixels */
"................................................................................................",
".....HaCaC#1..#1aCaC.H.............HaC.......................HaCav.HaC...HaC....................",
".....HaCaC.H...HaCaC.H.............HaC.......................n#M..#1.H...HaC....................",
".....HaC.l.n...n.laC.H...Lav.n#c...HaC..#1av.H..#1#t.n#c...Laz.laf.HaC...HaC.....Eav.n.E........",
".....HaC.n.l..az.naC.HafaC.L#caC#8.HaC#1.l.n....az.lavaCaD.E#M#M.E.HaC...HaC...EaC.O#MaC.E......",
".....HaC.LaC#8aC.LaC.H.E.L.H.naC.H.HaC.laz.....HaC.L.H.OaC...n.n...HaC...HaC...n.l.H.HaC.n......",
".....HaC.HaC.naC.HaC#g.HaC.n.HaC.H.HaCaCaC#8...HaC.n.n.n.n..av.n...HaC...HaC..av.l.n.n.n.L......",
".....HaC.H.n.l.n#gaC.H.n.l...HaC.H#gaC#1.l#M..#8aC.H..aD#c..#Sav...HaC...HaC..aD.l#1#1.n.E......",
".....HaC.HafaC#c.HaC.HaDaCaC.laC.H.HaC...EaC.H...naCaC.l.E...n.n...HaC...HaC..#1.laCaC#M........",
"....#1.H#1#1.H#1#1.H#1...H.H...H#1#1.H.....H.E....#8.H.......E.E..#1.H..#1.H.......H.E..........",
"................................................................................................",
"................................................................................................",
"................................................................................................",
"..aCaCaCaCaCaCaCaCaCaCaC#eaCaq#eaqaqaq.Aaqaw.Aawawawaw#Q.X#Q#Q#Q.l#Qaz.lazazazaz#W###W#W#W#W.s..",
"..aCaCaCaCaCaCaCaCaCaCaCaC#e#e#eaqaqaqaq.A.Aaw.Aaw.X.Xaw.X#Q.X.l#Q.l.laz.lazaz#######W###W.s.s..",
"..aCaCaCaCaCaCaCaCaCaCaC#e#e#eaq#eaqaq.Aaw.Aawawaw.X.X#Q.X#Q#Q#Q.l.laz.laz##az###W###W#W.s#Wat..",
"..aCaCaCaCaCaCaCaCaCaC#e#eaqaqaq....................................#Waz##az#####W###W#W.s.s.s..",
"..aCaCaCaCaCaCaCaCaC#e#eaq#eaq....aCaCaCaCaCaCaCaCaCaCaCaCaCaCaCaC..#uat#####W###W#W#W.s.satat..",
"..aCaCaCaCaCaCaCaC#e#e#eaqaq..aC..aCaCaCaCaCaCaCaCaCaCaCaCaCaCaCaC...j#u.s###W###W.s.s.s.sat.s..",
"..aCaCaCaCaCaCaC#e#eaq#eaq........aCaCaCaCaCaCaCaCaCaCaCaCaCaCaCaC...e.D.s#W###W#W.s#Wat.sat.O..",
"..aCaCaCaCaCaC#e#e#eaq#e.A..aCaCaCaCaCaCaCaCaCaCaCaCaCaCaCaCaCaCaC..#A.Dat###W.s.s.s.satatatat..",
"..aCaCaCaCaC#eaCaq#eaqaqaw..aCaCas.NaCasas.NaC.NaC.Nasas.NaC.NaCaC..#A.2.s#W#W.s.s.sat.satat.O..",
"..aCaCaCaC#e#e#eaq#eaq.A.X..aCaCaCaCaCaCaCaCaCaCaCaCaCaCaCaCaCaCaC..#8.2at#W.s.satat.sat.O.O.O..",
"..aCaCaCaC#eaq#eaqaq.Aaq#Q..aCaC.NaCasas.NaC.Nasas.NaCas.NaC.NaCaC..#8.2at#W.s.sat.sat.Oat.O#M..",
"..aCaC#e#e#e#eaqaqaq.A.A.X..aCaCaCaCaCaCaCaCaCaCaCaCaCaCaCaCaCaCaC...E.D.O.sat.satatat.O.O#M.O..",
"..aCaC#eaq#eaqaqaq.A.Aaw#Q..aCaC.Nasas.NaC.NaCas.NaCaCasas.NaCaCaC..#Aao.O.sat.satat.O.O.O#M#M..",
"..#e#e#e#eaqaq#e.A.Aaw.A#Q..aCaCaCaCaCaCaCaCaCaCaCaCaCaCaCaCaCaCaC..#8.2#M.satatat.O.O#M.O#M#M..",
"..aCaq#eaqaq.A.A.Aaw.Aaw.l..aCaCaC.NaC.Nasas.NaC.NaCasas.NaC.NaCaC..#8ao.Oatatat.Oat#M.O#M#M.c..",
"..aq#eaqaq#e.A.Aaw.Aawaw.l..aCaCaCaCaCaCaCaCaCaCaCaCaCaCaCaCaCaCaC...Eao.Oatat.O.O.O#M.O#M#M.c..",
"..aq#eaqaq.A.Aaw.Aawawawaz..aCaC.NaCasas.NaCas.NaCasas.NaC.NaCaCaC..#8ao#Matat.O#M.O#M#M.c#M#E..",
"..aqaq.Aaq.Aaw.Aawawaw.X.l..aCaCaCaCaCaCaCaCaCaCaCaCaCaCaq###l#z#D...Eao#M.O.O.O#M.O#M#M.c.c.c..",
"..aqaq.A.A.A.Aaw.Aaw.X.Xaz..aCaCas.NaC.Nasas.NaC.NaCafau#h#w#YaI.S.9.o.5#9at#M.O#M#M.c.c.c.c#E..",
"...Aaq.Aawawawaw.X.X.X.Xaz..aCaCaCaCaCaCaCaCaCaCaC.A.Iam#a#sax#R#sal.K#p#5.P.O#M#M#M.c.c#E#E#E..",
"..aq.A.A.Aaw.Aaw.X.X.X#Qaz..aCaC.Nasas.NaC.NaCas#c.J.w.K.UaE.M#7#I.6.Y.Y#X.b#9.O#M.c.c.c#E.c#E..",
"...Aaw.Aawawaw.X.X#Q#Q.X##..aCaCaCaCaCaCaCaCaCaC.C.raJah#T#4.#ar.##F#x.d.a.Q.y#9.c.c#E.c#E#E#9..",
"..aw.Aaw.Aaw.X.X.X.X#Q#Q##..aCaCasas.NaCas.Nas#G#haB#K#.#r#q.W.W.W.i#Cap#bae.Rav.c#E.c#E#E#E#9..",
"..awawawaw.X.X#Q#Q#Q#Q#Q##..aCaCaCaCaCaCaCaCaC#2acaxak#PaH.Waj.Waj.W#q.J.ual#v.m#E.c#E#E#E#9#9..",
"..aw.Aaw.X.X.X.X#Q.X#Q.l#W..aCaCaCaCaCaCaCaCaCad#yaxaB.F.Waj.W.W.W#q.W#3#Y#R#k.x.P#E#E#E#9#9.P..",
"..aw.X.X.X#Q#Q#Q.X.l.l.l##..aCaCaCaCaCaCaCaCaC#0aAalaB#B.W.Waj.Waj.W.Wag#O#R.M#g#u#E#9#9#9.P#9..",
"..awawaw#Q.X.X#Q#Q.l.laz#W..aCaCaCaCaCaCaCaCaC.B.8ax.t.4aj.Waj.W.W#q.W.faF#R#6#g.n#E#9#E.P#9.P..",
"...X.X.X#Q#Q#Q#Q.l.laz.l#W....................#j.9#RaJ#L#q.W#q#q.Wajaj.1.u.Uai.j#u#9#9.P#9.P.P..",
"..aw#Q.X#Q.X#Q.l#Qaz.laz#W.V#A.T..#J..#J..#J..#J.z#R#sae.Zaj.W#qaHab#n#a#RaE.p.m.P.P#9#9.P.P#u..",
"..#Q.X#Q#Q#Q.l.laz.lazaz#W#uan.e#A#A.E#A.E#A.E#8a..k#R#R.h.G#da##NayaF#s.6.7#m.2#9#9.P.P.P.P#u..",
"...X#Q.X#Q.l.l.laz.lazaz###M#S.D.2.2.Dao.2aoao.y#t#V#f#R#R.K#x.vaA.u#R#Hap#U.m#S.P#9.P#9#u.P#S..",
"..#Q#Q.l.l.laz.lazaz#######W#Watatat.O.O#M.O#M#M.c#u#i#Z.d.UaG#Z#a.6.9.g.0.L.n#9.P.P.P#u#u#u#u..",
"..#Q#Q#Q.l.laz.laz##az#######W#W#W.s.sat.satat.O#M.O#u.m.q.3.3#.#K#o.paa.m.n.P#9.P#9#u.P#u#u#S..",
"...l#Q.laz.lazazaz#####W#W#W#W.s.s.satatatat.O.O.O#M#M#9.n.maf.N#c#c.m.D#u.P#9.P.P.P#u#u#S#S#S..",
"................................................................................................"
};
SIMPLE  =                    T                                                  BITPIX  =                    8                                                  NAXIS   =                    2                                                  NAXIS1  =                   48                                                  NAXIS2  =                   48                                                  HISTORY Written by XV 3.10                                                      COMMENT created with The GIMP                                                   END                                                                                                                                                                                                                                                                                                                                                                                                                                                                                                                                                                                                                                                                                                                                                                                                                                                                                                                                                                                                                                                                                                                                                                                                                                                                                                                                                                                                                                                                                                                                                                                                                                                                                                                                                                                                                                                                                                                                                                                                                                                                                                                                                                                                                                                                                                                                                                                                                                                              åäãáàßŞÜÛÚÙØÖÕÔÓÒĞÏÎÍÌÊÉÈÆ¼¦ƒowom‚ ²¸¸·¶µ³²±°¯  æåäâáàßŞÜÛÚÙØÖÕÔÓÒĞÏÎÍËÊÈµ‚UIFRO4.Oƒª¸¸·¶´³²±°  çæåäâáàßŞÜÛÚ×ÒÏÎÌËÉÈÇÆÅÂ²jYreX‰zd02s¬¸¸·¶´³²±  èçæåäâáàßİÜÙÉ®œš™™—––•‰^l€ƒ†sU“‰ƒxB/‚°¹¸·¶´³²  êèçæåãâáàßİÖ°iC<;;;::985a‚„…’’†¡Ÿ…u8Jœ¸¹¸·µ´³  ëéèçæåãâáàßÖ¢C		>„}…˜¤ƒi,µº¹¸·µ´  ìëéèçæåãâáàÖ          d{t–‰€7e±»º¹¸·µ  íìëéèçæäãâáØ ÿÿÿÿÿÿÿÿÿÀ‹…n€’‘‘‘‘IY­½»º¹¸¶  îíìêéèçæäãâÙ ÿÿÿÿÿÿÿÿÿ²…`’‘‘‘‘–ŒV[¯¾¼»º¹¸  ïîíìêéèçæäãÚ ÿÿÿÿÿÿÿÿÿÅ’„\{’‘‘‘‘Š„Uh´¿¾¼»º¹  ğïîíìêéèçåäÚ ÿÿÿÿÿÿÿÿÿÛ˜‡pm‘‘‘ŒtŠ„Q„»À¿¾¼»º  òğïîíëêéèçåÛ ÿÿuuuÿuuuïveQNi‘ŠuA^€b§ÁÁÀ¿½¼»  óñğïîíëêéèçÜ ÿÿÿÿÿÿÿÿÿıÒŠyrMWu}ugsrOS“¾ÃÂÁÀ¿½¼  ôóñğïîíëêéèİ ÿÿuuuuÿuÿunn“…gWVfy‚„qq»ÆÅÃÂÁÀ¿½  õôóñğïîìëêéß ÿÿÿÿÿÿÿÿÿÿÿî¬™†„‚ƒ…†n}¶ÇÇÆÅÃÂÁÀ¾  öõôòñğïîìëêà ÿÿuuÿuuuuÿuÿnet˜Š•“dIuºËÉÈÇÆÄÃÂÁÀ  ÷öõôòñğïîìëá ÿÿÿÿÿÿÿÿÿÿÿÿÿşõÜÊÄÎ6”ÅÌÊÉÈÇÆÄÃÂÁ  ø÷öõôòñğïíìâ ÿÿuÿuuuÿuuÿuuuÿuÿÿÿ 9–ÆÍÌÊÉÈÇÆÄÃÂ  ùø÷öõóòñğïíã ÿÿÿÿÿÿÿÿÿÿÿÿÿÿÿÿÿÿÿ :–ÇÎÍÌÊÉÈÇÅÄÃ  ûùø÷öõóòñğïä ÿÿÿuÿuuuuÿuÿuuuÿuÿÿ :—ÈÏÎÍËÊÉÈÇÅÄ  üûùø÷öõóòñğå ÿÿÿÿÿÿÿÿÿÿÿÿÿÿÿÿÿÿÿ ;™ÉĞÏÎÍËÊÉÈÇÅ  ıüúùø÷öôóòñç ÿÿuuuuÿuÿuuÿÿuuuÿÿÿ ;™ËÑĞÏÎÍËÊÉÈÆ  şıüúùø÷öôóòè ÿÿÿÿÿÿÿÿÿÿÿÿÿÿÿÿÿÿÿ ;šÌÒÑĞÏÎÌËÊÉÈ  ÿşıüúùø÷öôóé ÿÿuÿuuuÿuuuuÿuuÿuÿÿ ;›ÍÔÒÑĞÏÎÌËÊÉ  ÿÿşıûúùø÷õôë ÿÿÿÿÿÿÿÿÿÿÿÿÿÿÿÿÿÿÿ <›ÎÕÔÒÑĞÏÎÌËÊ  ÿÿÿşıûúùø÷õî ÿÿuuÿuuuÿuÿuuuuÿuÿÿ <œÏÖÕÓÒÑĞÏÍÌË  ÿÿÿÿşıûúùø÷ó ÿÿÿÿÿÿÿÿÿÿÿÿÿÿÿÿÿÿÿ =Ğ×ÖÕÓÒÑĞÏÍÌ  ÿÿÿÿÿşüûúùøö    ÿÿÿÿÿÿÿÿÿÿÿÿÿÿÿÿ C ÑØ×ÖÕÓÒÑĞÏÍ  ÿÿÿÿÿÿşüûúùøö ÿ ÿÿÿÿÿÿÿÿÿÿÿÿÿÿÿÿ i°ÔÙØ×ÖÔÓÒÑĞÎ  ÿÿÿÿÿÿÿşüûúùøö  ÿÿÿÿÿÿÿÿÿÿÿÿÿÿÿÿ ²ÌÚÚÙØ×ÖÔÓÒÑĞ  ÿÿÿÿÿÿÿÿıüûúù÷ö                  ÙÜİÜÚÙØ×ÖÔÓÒÑ  ÿÿÿÿÿÿÿÿÿıüûúù÷öõôóñğïîìëêéèæåäãâàßŞİÜÚÙØ×ÕÔÓÒ  ÿÿÿÿÿÿÿÿÿÿıüûúù÷öõôòñğïîìëêéèæåäãâàßŞİÛÚÙØ×ÕÔÓ  ÿÿÿÿÿÿÿÿÿÿÿıüûúø÷öõôòñğïîìëêéèæåäãáàßŞİÛÚÙØ×ÕÔ                                                                                                                                                   UUU UU UU  U8  8U   88 U U   U8       UÿUqÿqUÿUÿÿâÿUUÿ 8ÿU ªÿÿâ8 ªª Uÿ Uÿ âÿÿÆ      UÿUªâªUÿUªâ UÿUUÿâÆ 8ÿU q ªª Uÿ Uÿ âª8     UÿUÿªÿUÿUUÿªUÿUUÿÿÿ8 Uÿªªªª ªª Uÿ Uÿ ªâªªªq     Uÿqÿ8ÿqÿU8qUªÿUUÿââ  UÿqUÆÿ ªª Uÿ Uÿ ªâUUÿª     Uÿªâ âªÿUqÿqqÿ8Uÿâª  ââªÿ8ÆÆ8Uÿ Uÿ 8ÿÆÆÿ8     Uÿâª ªâÿU qªªq Uÿ ªU ªq qââqUÿ Uÿ  8ªª8      UÿÿU UÿÿU      Uÿ           ªÆ U Uÿ            Uÿÿ ÿÿU      Uÿ           UÿªUÿ Uÿ                                                                                                                                                                                                                                                                                                                                                                                                                                                                                                                                                                                                                                                          