/* XPM */
static char * file_dot_tar_xpm[] = {
"48 48 713 2",
"  	c None",
" .	c #000000",
" +	c #E5E5E5",
" @	c #AAAAAA",
" #	c #FFFFFF",
" $	c #383838",
" %	c #E2E2E2",
" &	c #C6C6C6",
" *	c #555555",
" =	c #717171",
" -	c #1C1C1C",
" ;	c #8D8D8D",
" >	c #FDFDFD",
" ,	c #FCFCFC",
" '	c #FBFBFB",
" )	c #FAFAFA",
" !	c #F8F8F8",
" ~	c #F7F7F7",
" {	c #F6F6F6",
" ]	c #F5F5F5",
" ^	c #F4F4F4",
" /	c #F2F2F2",
" (	c #F1F1F1",
" _	c #F0F0F0",
" :	c #EFEFEF",
" <	c #EEEEEE",
" [	c #ECECEC",
" }	c #EBEBEB",
" |	c #EAEAEA",
" 1	c #E9E9E9",
" 2	c #E8E8E8",
" 3	c #E6E6E6",
" 4	c #E4E4E4",
" 5	c #E3E3E3",
" 6	c #E1E1E1",
" 7	c #E0E0E0",
" 8	c #DFDFDF",
" 9	c #DEDEDE",
" 0	c #DDDDDD",
" a	c #DBDBDB",
" b	c #DADADA",
" c	c #D9D9D9",
" d	c #D8D8D8",
" e	c #D7D7D7",
" f	c #D5D5D5",
" g	c #D4D4D4",
" h	c #F9F9F9",
" i	c #EDEDED",
" j	c #E7E7E7",
" k	c #D3D3D3",
" l	c #F3F3F3",
" m	c #F1F0EF",
" n	c #EAE9E8",
" o	c #EAE8E7",
" p	c #F4E3CC",
" q	c #E6AE72",
" r	c #C66A41",
" s	c #C66F3D",
" t	c #ECA88D",
" u	c #B9B9B8",
" v	c #CFCFCF",
" w	c #DCDCDC",
" x	c #D2D2D2",
" y	c #F5F4F3",
" z	c #EEECEA",
" A	c #E7E5E2",
" B	c #E7DACE",
" C	c #EACD9C",
" D	c #DE8753",
" E	c #CC7D4B",
" F	c #D98A49",
" G	c #DC733F",
" H	c #D0703B",
" I	c #C66A3B",
" J	c #B6603B",
" K	c #AC6439",
" L	c #B08360",
" M	c #BEBAB5",
" N	c #CACAC9",
" O	c #D6D6D6",
" P	c #D1D1D1",
" Q	c #FEFEFE",
" R	c #F8F8F7",
" S	c #F4F2ED",
" T	c #EEE8E2",
" U	c #E8E0D7",
" V	c #F3CDB0",
" W	c #E5B77C",
" X	c #C6945A",
" Y	c #AF6B48",
" Z	c #B27048",
" `	c #D9804B",
". 	c #D9924B",
"..	c #D98C4B",
".+	c #D77243",
".@	c #D0783D",
".#	c #C6703B",
".$	c #C6633B",
".%	c #B66F3E",
".&	c #9F5B35",
".*	c #AC5F39",
".=	c #A2877E",
".-	c #BFB8B5",
".;	c #C3C3C3",
".>	c #D0D0D0",
".,	c #F0E6E0",
".'	c #EFEADE",
".)	c #EDD7CA",
".!	c #F2C8AB",
".~	c #EAC385",
".{	c #E3B26F",
".]	c #F1B083",
".^	c #EAB66B",
"./	c #E9AF6A",
".(	c #DDA166",
"._	c #B57D4F",
".:	c #A1633F",
".<	c #B06A38",
".[	c #DA9049",
".}	c #D77A3F",
".|	c #CA6A3B",
".1	c #BD6B3B",
".2	c #C3633B",
".3	c #B76A3E",
".4	c #844B2D",
".5	c #753F2B",
".6	c #6B3A28",
".7	c #80583B",
".8	c #A09283",
".9	c #CCC7C3",
".0	c #CECECE",
".a	c #493831",
".b	c #C68F66",
".c	c #EEB68A",
".d	c #F2C39B",
".e	c #F3C88C",
".f	c #ECBD78",
".g	c #F3BB83",
".h	c #ECB56B",
".i	c #E9A66A",
".j	c #E5A167",
".k	c #E0A866",
".l	c #C36F45",
".m	c #C28048",
".n	c #A15D35",
".o	c #C06A3D",
".p	c #C8673F",
".q	c #7A4530",
".r	c #6F4429",
".s	c #673926",
".t	c #84482C",
".u	c #874D31",
".v	c #9B542E",
".w	c #874D2D",
".x	c #6E4C2D",
".y	c #8E694E",
".z	c #B39D99",
".A	c #C9C7C7",
".B	c #C1C1C1",
".C	c #CDCDCD",
".D	c #281E1E",
".E	c #5D422B",
".F	c #A87A4F",
".G	c #ECBF94",
".H	c #F0CC90",
".I	c #ECBE80",
".J	c #EEB773",
".K	c #ECAC7A",
".L	c #EAAE6A",
".M	c #E6A15B",
".N	c #DEA15F",
".O	c #E19B4F",
".P	c #E8A267",
".Q	c #A6683E",
".R	c #583A28",
".S	c #5D3827",
".T	c #835031",
".U	c #A65733",
".V	c #985D32",
".W	c #A55E34",
".X	c #9B5731",
".Y	c #8A4F33",
".Z	c #6F4C2E",
".`	c #7C492C",
"+ 	c #754E34",
"+.	c #90775D",
"++	c #CBCBC5",
"+@	c #B7B7B7",
"+#	c #CCCCCC",
"+$	c #301E19",
"+%	c #4C2E22",
"+&	c #5B3525",
"+*	c #9B533B",
"+=	c #E8AC72",
"+-	c #ECBB72",
"+;	c #ECA86B",
"+>	c #E9B36B",
"+,	c #E0A25E",
"+'	c #DE9F5B",
"+)	c #E69C52",
"+!	c #DE9C60",
"+~	c #604228",
"+{	c #6B3B2C",
"+]	c #924B37",
"+^	c #A66437",
"+/	c #83422B",
"+(	c #BB5A38",
"+_	c #C66A43",
"+:	c #AE5A31",
"+<	c #AC5333",
"+[	c #904C31",
"+}	c #844C2D",
"+|	c #70492D",
"+1	c #7C3F29",
"+2	c #6E4528",
"+3	c #754435",
"+4	c #B4967C",
"+5	c #929292",
"+6	c #BBBBBB",
"+7	c #CBCBCB",
"+8	c #2F2020",
"+9	c #4E3824",
"+0	c #4D3B26",
"+a	c #573A25",
"+b	c #784F2A",
"+c	c #CF9C6E",
"+d	c #ECCA80",
"+e	c #DA9253",
"+f	c #D58F4E",
"+g	c #AC633D",
"+h	c #7D4630",
"+i	c #674231",
"+j	c #CD6A3D",
"+k	c #DE984B",
"+l	c #D37D42",
"+m	c #D37850",
"+n	c #BF754F",
"+o	c #674832",
"+p	c #A45838",
"+q	c #A55A38",
"+r	c #AC5739",
"+s	c #9A5731",
"+t	c #785034",
"+u	c #834C2E",
"+v	c #6B432D",
"+w	c #783F2F",
"+x	c #573126",
"+y	c #261E19",
"+z	c #636262",
"+A	c #9D9D9D",
"+B	c #C5C5C5",
"+C	c #CACACA",
"+D	c #291E1A",
"+E	c #5D3022",
"+F	c #533B24",
"+G	c #573A26",
"+H	c #643D2A",
"+I	c #6B442D",
"+J	c #D38C58",
"+K	c #724B2A",
"+L	c #805434",
"+M	c #C66B43",
"+N	c #DE9A57",
"+O	c #E7874D",
"+P	c #DC7D3F",
"+Q	c #D58043",
"+R	c #CC7841",
"+S	c #C86F3E",
"+T	c #C0683B",
"+U	c #C67248",
"+V	c #7D4430",
"+W	c #854931",
"+X	c #8F4F31",
"+Y	c #9F542E",
"+Z	c #8F4B2E",
"+`	c #6E3C2A",
"@ 	c #6F3D25",
"@.	c #462A25",
"@+	c #2D1F1E",
"@@	c #171717",
"@#	c #7C7C7C",
"@$	c #B6B6B6",
"@%	c #C9C9C9",
"@&	c #2E1E1C",
"@*	c #573C24",
"@=	c #5F3D26",
"@-	c #633D26",
"@;	c #6B422B",
"@>	c #6B4128",
"@,	c #573523",
"@'	c #90523A",
"@)	c #E29A5E",
"@!	c #E5A15A",
"@~	c #DEA15B",
"@{	c #DE9A4E",
"@]	c #D98545",
"@^	c #D5803F",
"@/	c #D97C41",
"@(	c #C96A3B",
"@_	c #BB6B3B",
"@:	c #C06741",
"@<	c #BA643C",
"@[	c #B76B3D",
"@}	c #75422E",
"@|	c #673A2A",
"@1	c #503124",
"@2	c #311D1E",
"@3	c #201718",
"@4	c #1B1718",
"@5	c #191817",
"@6	c #5C5C5C",
"@7	c #A5A5A5",
"@8	c #C8C8C8",
"@9	c #31201E",
"@0	c #5A3D26",
"@a	c #6A3E29",
"@b	c #673E27",
"@c	c #68422A",
"@d	c #674126",
"@e	c #382619",
"@f	c #7C502E",
"@g	c #BB6842",
"@h	c #D69252",
"@i	c #E3A150",
"@j	c #DD9850",
"@k	c #DA8545",
"@l	c #DE8543",
"@m	c #D77C41",
"@n	c #C96A3F",
"@o	c #C66B3D",
"@p	c #D36B41",
"@q	c #A15E31",
"@r	c #72482E",
"@s	c #41281F",
"@t	c #261D1B",
"@u	c #231B1C",
"@v	c #221B18",
"@w	c #1E1919",
"@x	c #1E1918",
"@y	c #1D1717",
"@z	c #191717",
"@A	c #181717",
"@B	c #4D4D4D",
"@C	c #2E1C1C",
"@D	c #643B2A",
"@E	c #673D2A",
"@F	c #674226",
"@G	c #783F2A",
"@H	c #6A442A",
"@I	c #3F271E",
"@J	c #70462D",
"@K	c #87462E",
"@L	c #A2643A",
"@M	c #C9803F",
"@N	c #E4854C",
"@O	c #DC8544",
"@P	c #D58445",
"@Q	c #D57A41",
"@R	c #CA683C",
"@S	c #905435",
"@T	c #663D24",
"@U	c #4B2B24",
"@V	c #31231D",
"@W	c #211919",
"@X	c #1F1818",
"@Y	c #23191B",
"@Z	c #271D18",
"@`	c #1E1D19",
"# 	c #1D1919",
"#.	c #211718",
"#+	c #1B1717",
"#@	c #1C1717",
"##	c #4A4A4A",
"#$	c #9B9B9B",
"#%	c #C4C4C4",
"#&	c #C7C7C7",
"#*	c #311F20",
"#=	c #663E29",
"#-	c #6A3F2C",
"#;	c #784B2A",
"#>	c #75482C",
"#,	c #6B4B2D",
"#'	c #362A1B",
"#)	c #724B33",
"#!	c #964931",
"#~	c #985731",
"#{	c #A65737",
"#]	c #D68F4F",
"#^	c #E59A46",
"#/	c #C3733D",
"#(	c #8C4C31",
"#_	c #503026",
"#:	c #3A2C25",
"#<	c #372620",
"#[	c #2E2422",
"#}	c #231E19",
"#|	c #1E1B19",
"#1	c #251E18",
"#2	c #221918",
"#3	c #201B18",
"#4	c #201919",
"#5	c #1C1A1A",
"#6	c #191718",
"#7	c #1A1818",
"#8	c #999999",
"#9	c #32211B",
"#0	c #6A3F29",
"#a	c #754326",
"#b	c #78442C",
"#c	c #7D4C2D",
"#d	c #3F2323",
"#e	c #844C2E",
"#f	c #8A522D",
"#g	c #9F5334",
"#h	c #AE5831",
"#i	c #B0643A",
"#j	c #A66B44",
"#k	c #522A24",
"#l	c #4D2923",
"#m	c #3F261C",
"#n	c #3A201E",
"#o	c #3A261A",
"#p	c #361F20",
"#q	c #31241B",
"#r	c #261C1A",
"#s	c #211B1A",
"#t	c #2C1E1A",
"#u	c #261B1C",
"#v	c #221D18",
"#w	c #221917",
"#x	c #1E1C17",
"#y	c #1E1917",
"#z	c #201817",
"#A	c #989898",
"#B	c #C2C2C2",
"#C	c #3D2D29",
"#D	c #6B442A",
"#E	c #7A4B2D",
"#F	c #7D4B2C",
"#G	c #7C4C2D",
"#H	c #844C35",
"#I	c #352925",
"#J	c #794F34",
"#K	c #AE5739",
"#L	c #AE5F38",
"#M	c #B25F3A",
"#N	c #B67357",
"#O	c #4B3424",
"#P	c #443124",
"#Q	c #3C2722",
"#R	c #3D2522",
"#S	c #3B261F",
"#T	c #312422",
"#U	c #372022",
"#V	c #261E1C",
"#W	c #261E18",
"#X	c #251E1A",
"#Y	c #261E20",
"#Z	c #241D18",
"#`	c #221A18",
"$ 	c #211818",
"$.	c #494949",
"$+	c #7C675E",
"$@	c #452C21",
"$#	c #68442B",
"$$	c #854E2F",
"$%	c #9B4F2E",
"$&	c #8C4C30",
"$*	c #3E2524",
"$=	c #9A4D31",
"$-	c #A65732",
"$;	c #AE5736",
"$>	c #AE5B32",
"$,	c #BB6739",
"$'	c #BB674C",
"$)	c #4B3125",
"$!	c #483123",
"$~	c #412922",
"${	c #432A22",
"$]	c #3C271B",
"$^	c #3B2122",
"$/	c #392522",
"$(	c #261D1A",
"$_	c #2F1E1B",
"$:	c #2D201E",
"$<	c #261E1A",
"$[	c #241C19",
"$}	c #211A19",
"$|	c #221818",
"$1	c #979797",
"$2	c #C0C0C0",
"$3	c #DFDEDD",
"$4	c #675D4B",
"$5	c #432F23",
"$6	c #79482F",
"$7	c #945232",
"$8	c #8A5333",
"$9	c #3D2624",
"$0	c #A85432",
"$a	c #A25A32",
"$b	c #B35F37",
"$c	c #B75F3A",
"$d	c #B76A3A",
"$e	c #BF7852",
"$f	c #543126",
"$g	c #463124",
"$h	c #463022",
"$i	c #433122",
"$j	c #3F2621",
"$k	c #38261E",
"$l	c #251D1D",
"$m	c #251D19",
"$n	c #2E221D",
"$o	c #31221C",
"$p	c #2B1E1C",
"$q	c #261B19",
"$r	c #231B19",
"$s	c #201B1A",
"$t	c #52413D",
"$u	c #BFBFBF",
"$v	c #BEBEBC",
"$w	c #6F574C",
"$x	c #4D3122",
"$y	c #87502E",
"$z	c #9C5333",
"$A	c #452424",
"$B	c #AF5D35",
"$C	c #B35A37",
"$D	c #BA6737",
"$E	c #C2643A",
"$F	c #C56A3A",
"$G	c #BF7853",
"$H	c #57332A",
"$I	c #523624",
"$J	c #4C3124",
"$K	c #433123",
"$L	c #422822",
"$M	c #3B261E",
"$N	c #2B1C1C",
"$O	c #261C1C",
"$P	c #33221E",
"$Q	c #312221",
"$R	c #2A211C",
"$S	c #72605B",
"$T	c #6B6A67",
"$U	c #9C9C9C",
"$V	c #BEBEBE",
"$W	c #AFAFAF",
"$X	c #B9B6B4",
"$Y	c #6F5A54",
"$Z	c #503428",
"$`	c #A2532F",
"% 	c #452A24",
"%.	c #B35B32",
"%+	c #C2573A",
"%@	c #C36E3A",
"%#	c #D6803E",
"%$	c #B7704D",
"%%	c #5D3A2A",
"%&	c #573326",
"%*	c #533126",
"%=	c #462E22",
"%-	c #4B3222",
"%;	c #432622",
"%>	c #3B2622",
"%,	c #291E1B",
"%'	c #261C1B",
"%)	c #39231C",
"%!	c #362020",
"%~	c #2A231B",
"%{	c #2D201F",
"%]	c #57433D",
"%^	c #605B5A",
"%/	c #484847",
"%(	c #474747",
"%_	c #777777",
"%:	c #ABABAB",
"%<	c #BDBDBD",
"%[	c #ACACAC",
"%}	c #7B7B7B",
"%|	c #5B5345",
"%1	c #532E24",
"%2	c #452D25",
"%3	c #AF6639",
"%4	c #BA683A",
"%5	c #D1703D",
"%6	c #CA6A45",
"%7	c #C8783D",
"%8	c #B56F58",
"%9	c #544326",
"%0	c #5B3926",
"%a	c #4D3926",
"%b	c #4C3824",
"%c	c #4C3026",
"%d	c #3E3322",
"%e	c #29201E",
"%f	c #291F1E",
"%g	c #3B2620",
"%h	c #302622",
"%i	c #3F2626",
"%j	c #70695E",
"%k	c #333333",
"%l	c #434343",
"%m	c #636363",
"%n	c #838383",
"%o	c #A3A3A3",
"%p	c #B9B9B9",
"%q	c #BCBCBC",
"%r	c #BABABA",
"%s	c #565048",
"%t	c #532D24",
"%u	c #B05E30",
"%v	c #C56A3B",
"%w	c #C97042",
"%x	c #C8753F",
"%y	c #D98346",
"%z	c #BA6F48",
"%A	c #684126",
"%B	c #573B26",
"%C	c #5F2E22",
"%D	c #4F3723",
"%E	c #4B2A22",
"%F	c #2E1F1B",
"%G	c #482F20",
"%H	c #644444",
"%I	c #685A57",
"%J	c #353535",
"%K	c #5A5A5A",
"%L	c #818181",
"%M	c #9E9E9E",
"%N	c #B1B1B1",
"%O	c #A4A4A4",
"%P	c #5F4F44",
"%Q	c #70482A",
"%R	c #BE683D",
"%S	c #C87041",
"%T	c #D68043",
"%U	c #CD7C3E",
"%V	c #BB7958",
"%W	c #6B432A",
"%X	c #5B3D26",
"%Y	c #583C26",
"%Z	c #4C3B29",
"%`	c #503424",
"& 	c #463125",
"&.	c #3C3025",
"&+	c #4C3C39",
"&@	c #343434",
"&#	c #484848",
"&$	c #686868",
"&%	c #939393",
"&&	c #B0B0B0",
"&*	c #705E51",
"&=	c #754D34",
"&-	c #D07D41",
"&;	c #DC8F49",
"&>	c #BD6E4E",
"&,	c #78412A",
"&'	c #6B4228",
"&)	c #684226",
"&!	c #603D26",
"&~	c #60312A",
"&{	c #64503D",
"&]	c #6A5D5A",
"&^	c #646464",
"&/	c #878787",
"&(	c #B8B8B8",
"&_	c #6B6B6D",
"&:	c #57443C",
"&<	c #C6723F",
"&[	c #D5804B",
"&}	c #BB8052",
"&|	c #73422C",
"&1	c #6B412D",
"&2	c #674127",
"&3	c #5D3D26",
"&4	c #704B3C",
"&5	c #4D4B4A",
"&6	c #656565",
"&7	c #858585",
"&8	c #A1A1A1",
"&9	c #B5B5B5",
"&0	c #7A7A7C",
"&a	c #5D453D",
"&b	c #C37A4D",
"&c	c #BA8357",
"&d	c #724231",
"&e	c #734834",
"&f	c #674331",
"&g	c #A68570",
"&h	c #585452",
"&i	c #5B5B5B",
"&j	c #4F4F4F",
"&k	c #797979",
"&l	c #9F9F9F",
"&m	c #969696",
"&n	c #7B8384",
"&o	c #573F3F",
"&p	c #C88D57",
"&q	c #6E493C",
"&r	c #83735F",
"&s	c #716866",
"&t	c #434242",
"&u	c #6A6A6A",
"&v	c #8A8A8A",
"&w	c #AAB3BB",
"&x	c #75808A",
"&y	c #B4B4B4",
"&z	c #585858",
"&A	c #696969",
"&B	c #898989",
"&C	c #B3B3B3",
"&D	c #B2B2B2",
" . . . . . . . . . . . . . . . . . . . . . . . . . . . . . . . . . . . . . . . . . . . . . . . .",
" . . . . . . . . . . . . . . . . . . . . . . . . . . . . . . . . . . . . . . . . . . . . . . . .",
" . . + . . . . . . . . . . . . . . . . . . . . . . . . . . . . . @ # . . . . . . . . . . . . . .",
" . . + + . . . . . . . . . . . . . . . . . . . . . . . . . . . $ % # @ . . @ @ @ . . $ @ $ $ $ .",
" . . + + + . . . . . . . . . . . . . . . . . . . . . . . . . . $ % # @ . % # @ % & . * # @ # * .",
" . . + + + + . . . . . . . . . . . . . . . . . . . . . . . . . . @ # . $ @ = - ; # . * # % * - .",
" . . + + + + + . . . . . . . . . . . . . . . . . . . . . . . . . @ # . . ; # % & # . * # = . . .",
" . . + + + + . . . . . . . . . . . . . . . . . . . . . . . . . . @ # . * # = . = # . * # * . . .",
" . . + + + . . . . . . . . . . . . . . . . . . . . . . . $ @ = . @ # * * # ; * % # . * # * . . .",
" . . + + . . . . . . . . . . . . . . . . . . . . . . . . * # @ . * # # - % # % @ # . * # * . . .",
" . . + . . . . . . . . . . . . . . . . . . . . . . . . . . . . . . . . . . . . . . . . . . . . .",
" . . . . . . . . . . . . . . . . . . . . . . . . . . . . . . . . . . . . . . . . . . . . . . . .",
" . . . . . . . . . . . . . . . . . . . . . . . . . . . . . . . . . . . . . . . . . . . . . . . .",
" . # # # # # # # # # # # > , ' ) ! ~ { ] ^ / ( _ : < [ } | 1 2 3 + 4 5 6 7 8 9 0 a b c d e f g .",
" . # # # # # # # # # # > , ' ) h ~ { ] ^ / _ i 1 j + 4 + j 2 3 + 4 5 % 7 8 9 0 a b c d e f g k .",
" . # # # # # # # # # > , ' ) h ~ ] l l m n o p q r s t u v w 6 5 5 % 7 8 9 0 w b c d e f g k x .",
" . # # # # # # # # > , ' h ~ ^ y z A B C D E F G H I J K L M N e 9 8 8 9 0 w b c d e O g k x P .",
" . # # # # # # # Q ' ! R S T U V W X Y Z `. ...+.@.#.$.%.&.*.=.-.; g b w w b c d e O g k x P.> .",
" . # # # # # # Q '.,.'.).!.~.{.].^./.(._.:.<.[.}.|.1.2.3.4.5.6.7.8.9.; P e d d e O g k x P.>.0 .",
" . # # # # # Q , ~.a.b.c.d.e.f.g.h.i.j.k.l.m.n.o.p.q.r.s.t.u.v.w.x.y.z.A.B.0 g O f k x P.> v.C .",
" . # # # # Q > ' l.D.E.F.G.H.I.J.K.L.M.N.O.P.Q.R.S.T.U.V.W.X.X.Y.Z.`+ +.+++@.B v x x P.> v.C+# .",
" . # # # Q > ' ) (+$+%+&+*+=+-+;+>+,+'+)+!+~+{+]+^+/+(+_+:+<+<+[+}+|+1+2+3+4+5+6.C P.> v.C+#+7 .",
" . # # Q > ' ) h _+8+9+0+a+b+c+d+e+f+g+h+i+j+k+l+m+n+o+p+q+r+s+t+u.w+v+w+x+y+z+A+B v v.0+#+7+C .",
" . # Q > , ) h ! :+D+E+F+G+H+I+J+K+L+M+N+O+P+Q+R+S+T+U+V+W+X+Y+Z+`@ @.@+@@@@@@@#@$+#.0+#+7+C@% .",
" . Q > , ) h ! ~ <@&@*@=@-@;@>@,@'@)@!@~@{@]@^@/@(@_@:@<@[@}@|@1@2@3@4@5@5@@@@@6@7@8+#+7+C@%@8 .",
" . > , ) h ! ~ { [@9@0@a@b@c@d@e@f@g@h@i@j@k@l@m@n@o@p@q@r@s@t@u@v@w@x@y@z@A@A@B+A &+7+C@%@8 & .",
" . , ' h ! ~ { ] }@C@D@E@F@G@H@I@J@K@L@M@N@O@P@Q@R@S@T@U@V@W@X@Y@Z@`# #.#+#@@A###$#%+C@%@8#&+B .",
" . ' h ! ~ { ] l |#*#=#-#;#>#,#'#)#!#~#{#]#^#/#(#_#:#<#[@+#}#|@Z#1#2#3#4#5#6#7###8.;@%@8#&+B#% .",
" . h ! ~ { ] l / 1#9#0#a#b#c+}#d#e#f#g#h#i#j#k#l#m#n#o#p#q#r#s#t#u#v#w#x#y#z@5###A#B@8#&+B#%.; .",
" . ! ~ { ] ^ / ( 2#C#D#E#F#G#H#I#J.X#K#L#M#N#O#P#Q#R#S#T#U#V#W@+#X#Y#Z#`#`@w$ $.#A.B#& &#%.;#B .",
" . ~ { ] ^ / ( _ j$+$@$#$$$%$&$*$=$-$;$>$,$'$)$!$~${$]$^$/@t$($_$:$<@Z$[@v$}$|$.$1$2 &#%.;#B.B .",
" . { ] ^ / ( _ : j$3$4$5$6$7$8$9$0$a$b$c$d$e$f$g$h$i#Q$j$k$l$m$n$o$p$q#V$r$s$t##$1$u#%.;#B.B$2 .",
" . ] ^ l ( _ : < j#%$v$w$x$y$z$A$B$C$D$E$F$G$H$I$J$K$L$j$M$N$O$P$Q.D+y#V$R$S$T *$U$u.;#B.B$2$V .",
" . ^ l ( _ : < i | a$W$X$Y$Z$`% %.%+$E%@%#%$%%%&%*%=%-%;%>%,%'%)%!%~%{%]%^%/%(%_%:$u#B.B$2$u%< .",
" . l ( _ : < i } | + f%[%}%|%1%2%3%4%5%6%7%8%9%0%a%b%c%d%;%e%f%g%h%i%j%k%l%m%n%o%p.B.B$2$u%<%q .",
" . / _ : < i } | 1 2 5 g%r+5%s%t%u%v%w%x%y%z#0%A%B%C%D%E%-%F%F%G%H%I%J%K%L%M%N%q$2.B$2$u%<%q+6 .",
" . _ : < i [ | 1 2 j + 6 b+C%O%P%Q%R%S%T%U%V%W%X@=%Y%Z%`& &.&+%I&@&#&$&%&&%q.B.B.B$2$u$V%q+6%r .",
" . : < i [ | 1 2 j 3 4 5 % 0+#%M&*&=@[&-&;&>&,&'&)&!%B&~&{&]&#%(&^&/%o&(#B#%#B.B$2$u$V%q+6%r%p .",
" . < i [ | 1 2 j 3 4 5 % 6 7 b@8%M&_&:&<&[&}&|&1&2&3&4%I&5%l&6&7&8&9$2.;#%.;.B$2$u$V%q+6%r%p&( .",
" . i [ } 1 2 j 3 4 5 % 6 7 9 0 e.;#A&0&a&b&c&d&e&f&g&h&i&j&k&l&9$u.;+B#%.;.B$2$u$V%<+6%r%p&(@$ .",
" . [ } 1 2 j 3 + 5 % 6 7 9 0 w a g$2&m&n&o&p&q&r&s&t%(&u&v @$u#% &+B#%.;.B$2$u$V%<+6%r%p&(+@&9 .",
" . } 1 2 j 3 + 5 % 6 7 8 0 w a b d P$V&%&w&x%I%k%(&$&/%O+@#B#& &+B#%.;#B$2$u$V%<+6%r%p&(+@&9&y .",
" . | 2 j 3 + 5 % 6 7 8 0 w a b c e O.>$V$1&u&z&A&B%O+@#B &#& &+B#%.;#B$2$u$V%<%q%r%p&(+@&9&y&C .",
" . 2 j 3 + 4 % 6 7 8 0 w a b c e O f g v$2%:%o%:+6.;#&@%@8 &+B#%.;#B$2$u$V%<%q%r%p&(+@@$&y&C&D .",
" . j 3 + 4 % 6 7 8 9 w a b c d O f g k P.0+C@8@%@%+C@%@8#&+B#%.;#B.B$u$V%<%q%r%p&(+@@$&y&C&D%N .",
" . 3 + 4 % 6 7 8 9 w a b c d O f g k x.> v.0.C+7+C@%@8#&+B#%.;#B.B$u$V%<%q+6%p&(+@@$&y&C&D%N&& .",
" . + 4 5 6 7 8 9 w a b c d O f g k x.> v.0.C+#+C@%@8#&+B#%.;#B.B$u$V%<%q+6%p&(+@@$&9&C&D%N&&$W .",
" . . . . . . . . . . . . . . . . . . . . . . . . . . . . . . . . . . . . . . . . . . . . . . . ."};
