/* XPM */
static char * file_dot_bz2_xpm[] = {
"48 48 335 2",
"  	c None",
". 	c #000000",
"+ 	c #FFFFFF",
"@ 	c #AAAAAA",
"# 	c #1C1C1C",
"$ 	c #8D8D8D",
"% 	c #383838",
"& 	c #E5E5E5",
"* 	c #C6C6C6",
"= 	c #E2E2E2",
"- 	c #717171",
"; 	c #555555",
"> 	c #FDFDFD",
", 	c #FCFCFC",
"' 	c #FBFBFB",
") 	c #FAFAFA",
"! 	c #F8F8F8",
"~ 	c #F7F7F7",
"{ 	c #F6F6F6",
"] 	c #F5F5F5",
"^ 	c #F4F4F4",
"/ 	c #F2F2F2",
"( 	c #F1F1F1",
"_ 	c #F0F0F0",
": 	c #EFEFEF",
"< 	c #EEEEEE",
"[ 	c #ECECEC",
"} 	c #EBEBEB",
"| 	c #EAEAEA",
"1 	c #E9E9E9",
"2 	c #E8E8E8",
"3 	c #E6E6E6",
"4 	c #E4E4E4",
"5 	c #E3E3E3",
"6 	c #E1E1E1",
"7 	c #E0E0E0",
"8 	c #DFDFDF",
"9 	c #DEDEDE",
"0 	c #DDDDDD",
"a 	c #DBDBDB",
"b 	c #DADADA",
"c 	c #D9D9D9",
"d 	c #D8D8D8",
"e 	c #D7D7D7",
"f 	c #D5D5D5",
"g 	c #D4D4D4",
"h 	c #F9F9F9",
"i 	c #D3D3D3",
"j 	c #F3F3F3",
"k 	c #DCDCDC",
"l 	c #D2D2D2",
"m 	c #9FF6A9",
"n 	c #9DF6AA",
"o 	c #9BF6A8",
"p 	c #98F5A7",
"q 	c #91F2A1",
"r 	c #9AF5A7",
"s 	c #A6F8B0",
"t 	c #A4F8AE",
"u 	c #9FF5A9",
"v 	c #9DF5AA",
"w 	c #9BF5A8",
"x 	c #A0F6AC",
"y 	c #A3F7AF",
"z 	c #ADF9B6",
"A 	c #98F4A7",
"B 	c #D1D1D1",
"C 	c #A4F9AE",
"D 	c #A0F7AC",
"E 	c #96F4A6",
"F 	c #A8F8B1",
"G 	c #9E9E9E",
"H 	c #ACACAC",
"I 	c #C4C4C4",
"J 	c #D0D0D0",
"K 	c #A3F8AF",
"L 	c #91F1A1",
"M 	c #9AF4A7",
"N 	c #424242",
"O 	c #666666",
"P 	c #A9A9A9",
"Q 	c #CCCCCC",
"R 	c #CECECE",
"S 	c #111111",
"T 	c #414141",
"U 	c #9A9A9A",
"V 	c #C9C9C9",
"W 	c #CFCFCF",
"X 	c #CDCDCD",
"Y 	c #FEFEFE",
"Z 	c #A8F9B1",
"` 	c #A6F9B0",
" .	c #A1F8AB",
"..	c #8FF1A0",
"+.	c #94F2A1",
"@.	c #090909",
"#.	c #3B3B3B",
"$.	c #979797",
"%.	c #C8C8C8",
"&.	c #96F5A6",
"*.	c #8EF09E",
"=.	c #93F1A2",
"-.	c #969696",
";.	c #C7C7C7",
">.	c #CBCBCB",
",.	c #88EE99",
"'.	c #7FEB94",
").	c #7DEA8F",
"!.	c #84EC95",
"~.	c #87ED98",
"{.	c #3A3A3A",
"].	c #CACACA",
"^.	c #85ED96",
"/.	c #7BE990",
"(.	c #080808",
"_.	c #959595",
":.	c #93F2A2",
"<.	c #82EC93",
"[.	c #8CF09D",
"}.	c #79E78E",
"|.	c #949494",
"1.	c #C3C3C3",
"2.	c #AFFBB6",
"3.	c #AAF8B3",
"4.	c #393939",
"5.	c #939393",
"6.	c #C2C2C2",
"7.	c #8EF19E",
"8.	c #B1FBB7",
"9.	c #BDFDC0",
"0.	c #54D570",
"a.	c #B9FDBB",
"b.	c #929292",
"c.	c #C1C1C1",
"d.	c #C5C5C5",
"e.	c #8CF19D",
"f.	c #B7FBBB",
"g.	c #CDFDCB",
"h.	c #C9FDC9",
"i.	c #5AD872",
"j.	c #004400",
"k.	c #003000",
"l.	c #036601",
"m.	c #C3FDC4",
"n.	c #D0FDCF",
"o.	c #DDFDD8",
"p.	c #EEFDE8",
"q.	c #919191",
"r.	c #C0C0C0",
"s.	c #A1F7AB",
"t.	c #AEFAB5",
"u.	c #B2FCB9",
"v.	c #B8FCBB",
"w.	c #B5FCB8",
"x.	c #B5FBB8",
"y.	c #62DC79",
"z.	c #57D66F",
"A.	c #37D454",
"B.	c #1ABD35",
"C.	c #27D447",
"D.	c #5BD973",
"E.	c #1EC73A",
"F.	c #C5FDC5",
"G.	c #F1FDEC",
"H.	c #F9FDF6",
"I.	c #FCFDFA",
"J.	c #FDFDFC",
"K.	c #BFBFBF",
"L.	c #ABF9B2",
"M.	c #7AE88F",
"N.	c #54D36F",
"O.	c #45D25F",
"P.	c #24CF40",
"Q.	c #057C0B",
"R.	c #002000",
"S.	c #10A922",
"T.	c #C8FDC7",
"U.	c #D6FDD3",
"V.	c #E1FDDC",
"W.	c #DBFDD6",
"X.	c #D6FDD2",
"Y.	c #909090",
"Z.	c #3CD358",
"`.	c #026400",
" +	c #036801",
".+	c #015000",
"++	c #06810C",
"@+	c #5BDA73",
"#+	c #3ED35A",
"$+	c #2ED54E",
"%+	c #29D64A",
"&+	c #002800",
"*+	c #12AD28",
"=+	c #C1FDC2",
"-+	c #56D46E",
";+	c #22CB3E",
">+	c #18BB33",
",+	c #046902",
"'+	c #8F8F8F",
")+	c #BDBDBD",
"!+	c #95F3A3",
"~+	c #60DD78",
"{+	c #69E280",
"]+	c #36D353",
"^+	c #46D361",
"/+	c #40D35C",
"(+	c #15B42B",
"_+	c #0C9D1D",
":+	c #057A08",
"<+	c #004200",
"[+	c #047506",
"}+	c #078A10",
"|+	c #39D456",
"1+	c #0DA01E",
"2+	c #1FC83B",
"3+	c #0FA421",
"4+	c #078610",
"5+	c #0B9618",
"6+	c #72E487",
"7+	c #57D56F",
"8+	c #025C00",
"9+	c #003400",
"0+	c #001A00",
"a+	c #EBFDE6",
"b+	c #373737",
"c+	c #8E8E8E",
"d+	c #BCBCBC",
"e+	c #11AC24",
"f+	c #25D242",
"g+	c #17BA2E",
"h+	c #27D247",
"i+	c #31D450",
"j+	c #48D362",
"k+	c #057808",
"l+	c #51D269",
"m+	c #6CE282",
"n+	c #5EDB76",
"o+	c #56D56E",
"p+	c #5AD972",
"q+	c #64DE7B",
"r+	c #69E180",
"s+	c #68E07F",
"t+	c #43D25E",
"u+	c #33D351",
"v+	c #1BC236",
"w+	c #026200",
"x+	c #002600",
"y+	c #001E00",
"z+	c #65DF7C",
"A+	c #75E78B",
"B+	c #81EB93",
"C+	c #77E78A",
"D+	c #BBBBBB",
"E+	c #BEBEBE",
"F+	c #28D248",
"G+	c #63DE7A",
"H+	c #75E88B",
"I+	c #6DE484",
"J+	c #28D548",
"K+	c #1ABF35",
"L+	c #0A9517",
"M+	c #0D9E1E",
"N+	c #15B62C",
"O+	c #099013",
"P+	c #36D253",
"Q+	c #8C8C8C",
"R+	c #BABABA",
"S+	c #77E88A",
"T+	c #8BEF9B",
"U+	c #73E588",
"V+	c #5DDA74",
"W+	c #2CD54C",
"X+	c #16B72D",
"Y+	c #0B9818",
"Z+	c #088F15",
"`+	c #1DC439",
" @	c #28D448",
".@	c #29D54A",
"+@	c #20C93C",
"@@	c #23CC3F",
"#@	c #31D350",
"$@	c #39D356",
"%@	c #48D262",
"&@	c #363636",
"*@	c #B9B9B9",
"=@	c #EDEDED",
"-@	c #70E486",
";@	c #33D451",
">@	c #4ED367",
",@	c #5DD974",
"'@	c #6DE384",
")@	c #5FDB76",
"!@	c #6AE281",
"~@	c #8B8B8B",
"{@	c #B8B8B8",
"]@	c #74E68A",
"^@	c #7BEA90",
"/@	c #6FE485",
"(@	c #66E07D",
"_@	c #8A8A8A",
":@	c #B7B7B7",
"<@	c #353535",
"[@	c #898989",
"}@	c #B5B5B5",
"|@	c #888888",
"1@	c #B4B4B4",
"2@	c #878787",
"3@	c #B3B3B3",
"4@	c #B6B6B6",
"5@	c #E7E7E7",
"6@	c #343434",
"7@	c #868686",
"8@	c #B2B2B2",
"9@	c #B1B1B1",
"0@	c #A6A6A6",
"a@	c #454545",
"b@	c #121212",
"c@	c #0A0A0A",
"d@	c #0F0F0F",
"e@	c #B0B0B0",
"f@	c #6C6C6C",
"g@	c #3F3F3F",
"h@	c #3E3E3E",
"i@	c #3D3D3D",
"j@	c #3C3C3C",
"k@	c #585858",
"l@	c #A3A3A3",
"m@	c #A0A0A0",
"n@	c #9D9D9D",
"o@	c #9C9C9C",
"p@	c #9B9B9B",
"q@	c #999999",
"r@	c #A8A8A8",
"s@	c #D6D6D6",
"t@	c #AFAFAF",
". . . . . . . . . . . . . . . . . . . . . . . . . . . . . . . . . . . . . . . . . . . . . . . . ",
". . . . . . . . . . . . . . . . . . . . . . . . . . . + @ . . . . . . . . . . . # $ @ @ % . . . ",
". . & . . . . . . . . . . . . . . . . . . . . . . . . + @ . . . . . . . . . . . * + * = + % . . ",
". . & & . . . . . . . . . . . . . . . . . . . . . . . + @ - @ % . . @ @ @ @ @ . + + . # + @ . . ",
". . & & & . . . . . . . . . . . . . . . . . . . . . . + = + + + # . + + + + + . @ % . # + @ . . ",
". . & & & & . . . . . . . . . . . . . . . . . . . . . + = # # + * . . . ; + - . . . . @ + % . . ",
". . & & & & & . . . . . . . . . . . . . . . . . . . . + @ . . @ + . . $ + @ . . . % * + ; . . . ",
". . & & & & . . . . . . . . . . . . . . . . . . . . . + @ . . = + . ; + @ . . . ; + = # . . . . ",
". . & & & . . . . . . . . . . . . . . . . . . % @ - . + = ; - + $ . = + - ; ; . = + @ ; ; % . . ",
". . & & . . . . . . . . . . . . . . . . . . . ; + @ . + * * + @ . . + + + + + . + + + + + @ . . ",
". . & . . . . . . . . . . . . . . . . . . . . . . . . . . . . . . . . . . . . . . . . . . . . . ",
". . . . . . . . . . . . . . . . . . . . . . . . . . . . . . . . . . . . . . . . . . . . . . . . ",
". . . . . . . . . . . . . . . . . . . . . . . . . . . . . . . . . . . . . . . . . . . . . . . . ",
". + + + + + + + + + + + > , ' ) ! ~ { ] ^ / ( _ : < [ } | 1 2 3 & 4 5 6 7 8 9 0 a b c d e f g . ",
". + + + + + + + + + + > , ' ) h ~ { ] ^ / ( _ : < [ } | 1 2 3 & 4 5 = 7 8 9 0 a b c d e f g i . ",
". + + + + + + + + + > , ' ) h ~ { ] ^ j ( _ : < [ } | 1 2 3 & 4 5 = 7 8 9 0 k b c d e f g i l . ",
". + + + + + m m n o n p q r s s s t u u u v n w x y t t t s z s t t y t u u x A B B g g i l B . ",
". + + + + + C n n m D m D D s x u v v u v E m u x t t s F s s s x u v u u A A v G H I B l B J . ",
". + + + + + C K n m m m m m x A q u u x E A p L A x t s s t x v v u u u A A M E N O P Q B J R . ",
". + + + + + D m n m n n n u A A A u v A A L q L A t t t t u u v v v A E E v A E S T U V J W X . ",
". + + + + Y Z ` C m  .m u u u u u A E A A L q ..+.v v v v A A A E L L L A A E E @.#.$.%.W X Q . ",
". + + + Y > D m m n n u u u u u u A E A A E &.E E E E E E ..L ..*...E L =.E E E @.#.-.;.X Q >.. ",
". + + Y > ' p n m p p x s t x u u u v v v v p E A L ,.*.*.,.'.).!.~...L L L E E @.{.-.* Q >.].. ",
". + Y > , ) n m D m x x x u u v u u v A A u p ..L L ^.^.~.*.^./.).*.L L L E E E (.{._.I >.].V . ",
". Y > , ) h m m m u u v u A A u u u A A A A :.L *.!.<.^.[.*.~./.}.*.E A E E u z (.{.|.1.].V %.. ",
". > , ) h ! m m v v u u M A A u v A A L L L q !.'.).~.[.*...,.+.z 2.x u x s 3.s (.4.5.6.V %.* . ",
". , ' h ! ~ t u v u u u u v u A E L E L L L 7.*.*.~.,.*.L L 8.9.*.0./.A v x 2.a.(.4.b.c.%.;.d.. ",
". ' h ! ~ { x x v u u A A x x u M u A A A L e.L L L v 3.f.g.h.i.j.k.l.~.m.n.o.p.(.4.q.r.;.d.I . ",
". h ! ~ { ] 3.F F F s s.x s.s.s.y s t.u.f.v.w.8.x.z v <.y.z.A.B.C.D.E.F.G.H.I.J.(.% q.K.d.I 1.. ",
". ! ~ { ] ^ 8.L.L.z s t s s L.2.2.s 3.M /.M.N.O.P.Q.R.S.T.U.o.V.W.X.t n.H.J.J.J.(.% Y.K.I 1.6.. ",
". ~ { ] ^ / v.9.u.a.u.8.z 8.3.=.Z.`. +.+++@+#+$+%+++&+*+=+y '.-+;+>+,+=+H.J.J.J.(.% '+)+1.6.c.. ",
". { ] ^ / ( *.!+~+{+]+^+/+;+(+_+:+<+,+[+}+|+*+1+2+3+4+5+N.6+7+1+8+9+0+'.V.a+p.p.(.b+c+d+6.c.r.. ",
". ] ^ j ( _ >+e+f+g+h+i+j+h+Z.f+k+:+l+m+n+o+N.p+q+r+6+s+t+u+v+w+x+y+R.3+z+A+B+C+(.b+$ D+c.r.E+. ",
". ^ j ( _ : {+F+!.G+/.H+A+I+{+~+;+l+w y v r+@+J+;+E.K+S.L+M+1+N+g+O+}+P+).,.*.+.(.b+Q+R+r.K.)+. ",
". j ( _ : < S+'.'.[.^.T+*...*.^.U+V+#+W+X+Y+O+Z+3+*+`+;+ @.@+@@@#@$@%@C+L L E A (.&@Q+*@K.)+d+. ",
". / _ : < =@v x x s s x s t v +.^.-@V+o+t+;@Z.J+%+t+>@,@z+'@,@,@)@!@B+L A A A v (.&@~@{@)+d+D+. ",
". _ : < =@[ F F z t.t.z z z s u A L ,.).A+]@^@/@(@/@-@/.<.!.).]@).*.L E A A v v (.&@_@:@d+D+R+. ",
". : < =@[ | t.t.t.u.u.u.u.u.F t u A v v u u n E +.+.E E +.+.+.L L L A u u u t u (.<@[@}@D+R+*@. ",
". < =@[ | 1 z F F z t.8.z F s.u v +.u s s F C u v v u v E E u A E A x t x u s.u (.<@|@1@R+*@{@. ",
". =@[ } 1 2 u F s s F s s x u u u v u s.x s ` t t t t u v u u u x x x u A A y u (.<@2@3@*@{@4@. ",
". [ } 1 2 5@A F s s F t x v v u v E x x t s Z s F s x u w v u v A w v E L L x x (.6@7@8@{@:@}@. ",
". } 1 2 5@3 x s.y x s.s t s L.t t y x u u s C t t t t x y u v v v u x M A M v +.(.6@7@9@:@}@1@. ",
". | 2 5@3 & a 0@a@b@c@@.@.@.@.@.@.@.@.@.@.@.(.(.(.@.@.@.@.@.@.@.@.@.@.@.(.(.(.(.d@4.2@e@}@1@3@. ",
". 2 5@3 & 4 k 1@f@a@g@h@i@i@i@j@j@j@#.#.#.{.{.{.4.4.4.% % b+b+b+b+&@&@<@<@<@<@6@4.k@5.9@1@3@8@. ",
". 5@3 & 4 = 8 W 3@l@m@G G n@o@p@U q@q@$.-.-._.|.5.b.q.q.Y.c+c+$ Q+Q+_@[@[@|@7@7@2@5.r@8@3@8@9@. ",
". 3 & 4 = 6 7 0 d f g l B J R X Q >.].%.;.* d.1.6.c.r.K.E+)+d+D+R+{@:@4@}@1@8@9@9@9@8@3@8@9@e@. ",
". & 4 5 6 7 8 9 k a b c d s@f g i l J W R X Q ].V %.;.d.I 1.6.c.K.E+)+d+D+*@{@:@4@}@3@8@9@e@t@. ",
". . . . . . . . . . . . . . . . . . . . . . . . . . . . . . . . . . . . . . . . . . . . . . . . "};
