/* XPM */
static char * file_dot_tga_xpm[] = {
"48 48 207 2",
"  	c None",
" .	c #040204",
" +	c #000000",
" @	c #A4A6A4",
" #	c #FCFEFC",
" $	c #E5E5E5",
" %	c #343634",
" &	c #E4E2E4",
" *	c #ACAAAC",
" =	c #6C6E6C",
" -	c #545654",
" ;	c #8C8E8C",
" >	c #C4C6C4",
" ,	c #CCCACC",
" '	c #1C1A1C",
" )	c #545254",
" !	c #747274",
" ~	c #1C1E1C",
" {	c #3C3A3C",
" ]	c #FCFAFC",
" ^	c #F4F6F4",
" /	c #F4F2F4",
" (	c #ECEEEC",
" _	c #E4E6E4",
" :	c #ECEAEC",
" <	c #DCDEDC",
" [	c #D4D6D4",
" }	c #DCDADC",
" |	c #D4D2D4",
" 1	c #0C0A0C",
" 2	c #2C2A2C",
" 3	c #0C0E0C",
" 4	c #242624",
" 5	c #141614",
" 6	c #242224",
" 7	c #040604",
" 8	c #1C221C",
" 9	c #B4B2B4",
" 0	c #CCCECC",
" a	c #949694",
" b	c #6C6A6C",
" c	c #4C4A4C",
" d	c #5C5E5C",
" e	c #3C3E3C",
" f	c #646664",
" g	c #2C2E2C",
" h	c #444644",
" i	c #4C4E4C",
" j	c #646264",
" k	c #141E14",
" l	c #848284",
" m	c #949294",
" n	c #343234",
" o	c #141214",
" p	c #5C5A5C",
" q	c #444244",
" r	c #7C7A7C",
" s	c #9C9A9C",
" t	c #041E04",
" u	c #045204",
" v	c #044E04",
" w	c #044604",
" x	c #044204",
" y	c #043E04",
" z	c #043604",
" A	c #042E04",
" B	c #042604",
" C	c #042204",
" D	c #041A04",
" E	c #041604",
" F	c #042A04",
" G	c #041204",
" H	c #040E04",
" I	c #04C204",
" J	c #F4FEEC",
" K	c #E4FEC4",
" L	c #D4FEAC",
" M	c #C4FE94",
" N	c #ACFE74",
" O	c #8CFE54",
" P	c #7CFE44",
" Q	c #54FE24",
" R	c #14FA04",
" S	c #04D604",
" T	c #04A604",
" U	c #046E04",
" V	c #049E04",
" W	c #04B204",
" X	c #04B604",
" Y	c #04D204",
" Z	c #0CE604",
" `	c #0CEE04",
". 	c #04CE04",
"..	c #049204",
".+	c #048A04",
".@	c #9C9E9C",
".#	c #04C604",
".$	c #F4FEDC",
".%	c #CCFEA4",
".&	c #CCFE94",
".*	c #A4FE6C",
".=	c #94FE5C",
".-	c #54FE1C",
".;	c #14FE04",
".>	c #04BE04",
".,	c #046A04",
".'	c #044A04",
".)	c #045A04",
".!	c #045604",
".~	c #045E04",
".{	c #046204",
".]	c #047604",
".^	c #048604",
"./	c #047E04",
".(	c #04AA04",
"._	c #04BA04",
".:	c #ECFED4",
".<	c #E4FECC",
".[	c #DCFEB4",
".}	c #D4FEA4",
".|	c #C4FE84",
".1	c #9CFE64",
".2	c #64FE2C",
".3	c #048E04",
".4	c #C4FE9C",
".5	c #C4FE8C",
".6	c #B4FE7C",
".7	c #6CFE34",
".8	c #046604",
".9	c #047204",
".0	c #047A04",
".a	c #049604",
".b	c #049A04",
".c	c #BCFE8C",
".d	c #6CFE3C",
".e	c #34FE14",
".f	c #048204",
".g	c #C4C2C4",
".h	c #E4FEBC",
".i	c #B4FE84",
".j	c #ACFE6C",
".k	c #84FE4C",
".l	c #0CEA04",
".m	c #043204",
".n	c #ECFECC",
".o	c #B4FE8C",
".p	c #BCFE84",
".q	c #043A04",
".r	c #F4FEE4",
".s	c #84FE54",
".t	c #04A204",
".u	c #BCBEBC",
".v	c #CCFE8C",
".w	c #64FE44",
".x	c #04CA04",
".y	c #0CD204",
".z	c #FCFEF4",
".A	c #94FE64",
".B	c #4CFE2C",
".C	c #24FE04",
".D	c #04AE04",
".E	c #2CFE0C",
".F	c #24FA04",
".G	c #14E604",
".H	c #14EA04",
".I	c #1CEE04",
".J	c #0CCE04",
".K	c #74FE44",
".L	c #54FE14",
".M	c #4CFE0C",
".N	c #5CFE14",
".O	c #54FE0C",
".P	c #1CFA04",
".Q	c #0CDA04",
".R	c #24F204",
".S	c #14E204",
".T	c #5CFE2C",
".U	c #5CFE24",
".V	c #74FE2C",
".W	c #3CFE0C",
".X	c #3CFE14",
".Y	c #64FE14",
".Z	c #5CFE0C",
".`	c #1CF204",
"+ 	c #0CE204",
"+.	c #6CFE2C",
"++	c #1CFE04",
"+@	c #64FE1C",
"+#	c #6CFE1C",
"+$	c #4CFE14",
"+%	c #34FE04",
"+&	c #34FA04",
"+*	c #BCBABC",
"+=	c #84FE24",
"+-	c #8C8A8C",
"+;	c #DCFEBC",
"+>	c #CCFE9C",
"+,	c #14F204",
"+'	c #74FE24",
"+)	c #8CFE34",
"+!	c #44FE0C",
"+~	c #8CFE2C",
"+{	c #84FE2C",
"+]	c #B4B6B4",
"+^	c #848684",
"+/	c #ACAEAC",
"+(	c #A4A2A4",
" . . . . . . . . . . . . . . . . . . . . . . . . . . . . . . . . . . . . . . . . . . . . . . . .",
" . + + + + + + + + . . . . . . . . . . . . . . . . . . . . @ # . . . . . . . . . . . . . . . . .",
" . + + + $ + $ + + . . . . . . . . . . . . . . . . . . . % & # * . . @ * % * % . . = * @ % . . .",
" . + $ + + + + + $ . . . . . . . . . . . . . . . . . . . % & # @ . * # # & # - . ; # > , # ' . .",
" . + + + $ $ $ + + . . . . . . . . . . . . . . . . . . . . * # . % # , . = # - . * * . ) # - . .",
" . + + $ + + + $ + . . . . . . . . . . . . . . . . . . . . * # . - # . . . # - . - & # * # - . .",
" . + $ + + $ + + $ . . . . . . . . . . . . . . . . . . . . @ # . - # ! . % # - . # > . ~ # - . .",
" . + + $ + + + $ + . . . . . . . . . . . . . . . . % * = . * # - ' # & - * # - . # > - * # - . .",
" . + + + $ $ $ + + . . . . . . . . . . . . . . . . - # * . - # # . - # # * # - . * # # ; # - . .",
" . + $ + + + + + $ . . . . . . . . . . . . . . . . . . . . . . . % * ! . { # - . . . . . . . . .",
" . + + + $ + $ + + . . . . . . . . . . . . . . . . . . . . . . . . & # > # & . . . . . . . . . .",
" . + + + + + + + + . . . . . . . . . . . . . . . . . . . . . . . . . . . . . . . . . . . . . . .",
" . . . . . . . . . . . . . . . . . . . . . . . . . . . . . . . . . . . . . . . . . . . . . . . .",
" . # # # # # # # # # # # ] # ^ ] ^ ^ ^ / ^ ( / ( ( ( ( _ : _ _ _ & _ < & < < < < [ } [ [ [ [ | .",
" . # # # # # # # # ] ] ^ ^ / / / ( / ( ( : : _ : _ _ & _ & & < < < } } } [ } [ | [ } [ } [ | | .",
" . # # # # # # # 1 2 3 . 4 5 . ~ ~ . 5 6 . 3 4 7 1 6 3 . 6 5 . ' ' . 5 8 . 3 6 7 9 , [ [ | [ 0 .",
" . # # # # # # ] 2 a % . b c . ) d . e ! . 2 b 5 5 f g . d h . i - . % b . 6 j k l 9 0 | | | | .",
" . # # # # # # ] 4 m % . - c . h d . n = . 6 d 5 o p g . i h . q - . g j . ~ - k r * 0 | [ 0 0 .",
" . # # # # # # ] 4 s { . p - . c f . % r . 6 f ' o p n . - i . q d . n = . 8 j ~ l @ 0 | | 0 | .",
" . # # # # # # ^ . t u v v w x y z z A B C D E D C C F A A A A A C C C D G E H . = * 0 0 | 0 , .",
" . # # # # # # / . I J J K L M N O P Q R S T U V W X Y R Z ` ` Z.  Y. ...+ T x . i.@ , 0 | 0 0 .",
" . # # # # # # ( ..# J.$ K.%.&.*.= P.-.;.>.,.'.).!.~.{.] U.+.^./.+...(.^ V T w . q a , 0 0 , , .",
" . # # # # ] ] / .._.:.<.[.}.|.1.= P.2.;.^ u z z y x.!./.3.3.....+.3 U.~ V.(.' . % a , 0 , , > .",
" . # # # # ] ] ( . W K.[.4.5.5.6.1 O.7 `...8.) U.8.9.0.a.b.b.b V.b V.b.8.] T.' . { a > 0 , 0 > .",
" . # # ] ] ] ^ ( . W K L M.c N.*.=.d.e Z V U U U.{.{.8././.a V V T._.b U.f.3 y . { a.g , , , > .",
" . # # ] ^ ] ^ : . X K.h.4.i.6.j.*.k Q.l.b.0 U u y z.m.m.'.).9.].3...f U V V y . { a.g , , > > .",
" . ] ] ] ] ^ ^ ( . X.n.<.[.o.p.5.1.k.2.l.].,.~ y.q.).~ B t H C z u.9.{.).3 V y . % m.g > > , > .",
" . # ^ ] ^ ^ ^ : ..#.r.: L.o.5 M.j.s.;.# I./.'.q.' V T.m.~ F z D t y w.!.a.t y . { a.u , > >.g .",
" . ^ ] ^ ^ ] / _ . I J J K.} M.v.1.w ` I.x V.3.{ U.3 W.) y z.) x F.m z., W.y.) . % m.u , > >.g .",
" . ^ ] ^ / / / _ ..#.z J K.4.c.&.A.B.C R.y.x I._.D.b.+.a.9.8.{.).~.~.!./ I.x u . % m.u >.g >.u .",
" . ^ ^ ^ / / / _ . I.:.: K.%.p N.s.e.E.E.F.G.H.F.I. .#.>.b.D.D W.. T U.3.#.J.) . % m.u >.g.g.g .",
" . ^ / ^ / / ( _ ..> J.n.h.4.c.6.=.K.2.-.L.M.M.N.O.P.I.Q.R Y.y S.y.S V.a.y.S.) . { ;.u.g.g.g.u .",
" . ^ / / / ( / _ . X K.[.} M.p.1.1.T.U.V.W.X.N.Y.N.O.N.N.O.Z.O.Z.L.` W W+ .Q u . % ;.u.g.u.u.u .",
" . / ^ ( / ( ( & . W.<.[.4 M.v.*.= P.7+.++.E+@+#+$.Z.N.N.O.Z.L.Y.Z+%._ V.O+&.) . { ;+*.g.u.g.u .",
" . / / ( / ( ( & . W K K.%.% M.|.A.k.U.2.X+$+@+=+@.Y.Y+#.O.L.Z+=.O.O.G T+%.S.) . %+-+*.u.g+*+* .",
" . ( / ( ( ( : < .._.n K.h+;+>.&.*.d Q+.+,+$.Y+'+)+'+'.-+#+@+=+'.N.Y.M.D+!.R.) . %+-+*.u.u.u+* .",
" . ( ( / ( : : & . I J.r K.}.4.&.=.K.-+$.;.Y+'+~+'+=+{+'+~+#.N.Y.N.O.O W Y.y.! . %+-+].u.u+*+] .",
" . / ( ( : : : < ..# ^ J K.[.%.|.k.d.-++ Z.N.Y+=+~+{+~+{+#+'.O.Y.O.Z.O X X.x.' . %+-+*.u+*+*+] .",
" . ( : ( : _ _ < . w X W.t V.a.+././ U u u.~.{., U U U.,.{.8.~.{.~.~.{ y y v t . n+^+]+*+*+]+* .",
" . ( ( : : _ : < . . . . . . . . . . . . . . . . . . . . . . . . . . . . . . . . %+-+]+*+]+*+] .",
" . : : _ : _ _ < 6 - o . k 5 . o ~ . 3 6 . H ' 7 7 k 1 . 5 5 . 3 ' . 3 ~ . 7 ' 7 h ; 9+*+]+*+] .",
" . ( _ : _ : _ } 6 r 4 . q { . % h . 4 ) . ' h o 1 q 6 . { % . n e . 6 c . 5 e o f m 9+*+]+] 9 .",
" . _ : _ _ & & } 4+^ % . i c . e d . g = . ~ p 5 o i g . h h . { - . 2 d . ~ ) 5 = a 9+]+] 9 9 .",
" . : _ : _ _ & } 7 ' 7 . 3 1 . 3 3 . H o . 7 3 7 . o 7 . 3 1 . 1 3 . 1 3 . 7 3 7 b m 9+] 9+]+/ .",
" . _ _ & & & < }+*+^ ! j d = f p b f p j f p p f p - f p ) j d ) d d i d d i ) j = a 9 9+] 9 9 .",
" . _ _ _ & & & < 0+] * @ @ @ @+(+(+(.@+(.@ s.@.@ a s s a a a a m a m m m m ; ; m a *+/ 9 9+/+/ .",
" . & _ & < < < < } [ [ | | 0 0 0 0 0 , > , > >.g.g.g.u.u.u.u+*+*+]+*+]+]+] 9 9+/ 9+]+] 9+/ 9+/ .",
" . . . . . . . . . . . . . . . . . . . . . . . . . . . . . . . . . . . . . . . . . . . . . . . ."};
