/* XPM */
static char * file_dot_gz_xpm[] = {
"48 48 484 2",
"  	c None",
". 	c #000000",
"+ 	c #E5E5E5",
"@ 	c #AAAAAA",
"# 	c #383838",
"$ 	c #FFFFFF",
"% 	c #E2E2E2",
"& 	c #555555",
"* 	c #C6C6C6",
"= 	c #717171",
"- 	c #8D8D8D",
"; 	c #1C1C1C",
"> 	c #FDFDFD",
", 	c #FCFCFC",
"' 	c #FBFBFB",
") 	c #FAFAFA",
"! 	c #F8F8F8",
"~ 	c #F7F7F7",
"{ 	c #F6F6F6",
"] 	c #F5F5F5",
"^ 	c #F4F4F4",
"/ 	c #F2F2F2",
"( 	c #F1F1F1",
"_ 	c #F0F0F0",
": 	c #EFEFEF",
"< 	c #EEEEEE",
"[ 	c #ECECEC",
"} 	c #EBEBEB",
"| 	c #EAEAEA",
"1 	c #E9E9E9",
"2 	c #E8E8E8",
"3 	c #E6E6E6",
"4 	c #E4E4E4",
"5 	c #E3E3E3",
"6 	c #E1E1E1",
"7 	c #E0E0E0",
"8 	c #DFDFDF",
"9 	c #DEDEDE",
"0 	c #DDDDDD",
"a 	c #DBDBDB",
"b 	c #DADADA",
"c 	c #D9D9D9",
"d 	c #D8D8D8",
"e 	c #D7D7D7",
"f 	c #D5D5D5",
"g 	c #D4D4D4",
"h 	c #F9F9F9",
"i 	c #D3D3D3",
"j 	c #F3F3F3",
"k 	c #DCDCDC",
"l 	c #D2D2D2",
"m 	c #FFD607",
"n 	c #FFD506",
"o 	c #FED403",
"p 	c #FED505",
"q 	c #FED005",
"r 	c #FEC803",
"s 	c #FED107",
"t 	c #FEDD0B",
"u 	c #FEDC09",
"v 	c #FED607",
"w 	c #FED606",
"x 	c #FFD505",
"y 	c #FED404",
"z 	c #FED70A",
"A 	c #FED90F",
"B 	c #FEDC0A",
"C 	c #FEDE0E",
"D 	c #FEE411",
"E 	c #FEDC08",
"F 	c #FEDB06",
"G 	c #FED608",
"H 	c #FED709",
"I 	c #FED006",
"J 	c #D1D1D1",
"K 	c #FFDC0A",
"L 	c #FED506",
"M 	c #FED504",
"N 	c #FECE03",
"O 	c #FFD606",
"P 	c #FED70B",
"Q 	c #FEDE0F",
"R 	c #FEDD0C",
"S 	c #FECF05",
"T 	c #FECF04",
"U 	c #9E9E9E",
"V 	c #ACACAC",
"W 	c #C4C4C4",
"X 	c #D0D0D0",
"Y 	c #FFDD0B",
"Z 	c #FEC804",
"` 	c #FFD005",
" .	c #FEDD0A",
"..	c #FEDE0D",
"+.	c #FED109",
"@.	c #424242",
"#.	c #666666",
"$.	c #A9A9A9",
"%.	c #CCCCCC",
"&.	c #CECECE",
"*.	c #FFC803",
"=.	c #FEC702",
"-.	c #FECE02",
";.	c #111111",
">.	c #414141",
",.	c #9A9A9A",
"'.	c #C9C9C9",
").	c #CFCFCF",
"!.	c #CDCDCD",
"~.	c #FEFEFE",
"{.	c #FEDA04",
"].	c #FEC601",
"^.	c #FECC01",
"/.	c #FEC701",
"(.	c #090909",
"_.	c #3B3B3B",
":.	c #979797",
"<.	c #C8C8C8",
"[.	c #FFCE03",
"}.	c #FEC500",
"|.	c #FEC905",
"1.	c #969696",
"2.	c #C7C7C7",
"3.	c #CBCBCB",
"4.	c #FEBE00",
"5.	c #FEB400",
"6.	c #FDB000",
"7.	c #FDB900",
"8.	c #FEBC00",
"9.	c #3A3A3A",
"0.	c #CACACA",
"a.	c #FFD006",
"b.	c #FEBA00",
"c.	c #FCAF00",
"d.	c #FDB100",
"e.	c #080808",
"f.	c #959595",
"g.	c #FFC905",
"h.	c #FDB800",
"i.	c #FEC300",
"j.	c #FBAC00",
"k.	c #FED507",
"l.	c #FEE310",
"m.	c #949494",
"n.	c #C3C3C3",
"o.	c #FEB800",
"p.	c #FEE507",
"q.	c #FEE60D",
"r.	c #FED60A",
"s.	c #FED609",
"t.	c #FEDC0B",
"u.	c #FEDE13",
"v.	c #393939",
"w.	c #939393",
"x.	c #C2C2C2",
"y.	c #FFC500",
"z.	c #FEE711",
"A.	c #FEF313",
"B.	c #EACF00",
"C.	c #C79900",
"D.	c #F3B500",
"E.	c #FED405",
"F.	c #FED801",
"G.	c #FEE901",
"H.	c #FEF203",
"I.	c #929292",
"J.	c #C1C1C1",
"K.	c #C5C5C5",
"L.	c #FFC204",
"M.	c #FEE10A",
"N.	c #FEEC14",
"O.	c #FEFA2F",
"P.	c #FEFA23",
"Q.	c #BEA600",
"R.	c #371F00",
"S.	c #281500",
"T.	c #5C2A00",
"U.	c #EBC600",
"V.	c #FEF90E",
"W.	c #FEFD2D",
"X.	c #FEFE55",
"Y.	c #FEFE9E",
"Z.	c #919191",
"`.	c #C0C0C0",
" +	c #FEE209",
".+	c #FEDE10",
"++	c #FED80B",
"@+	c #FED80D",
"#+	c #FED90E",
"$+	c #FEE413",
"%+	c #FEE814",
"&+	c #FEED1A",
"*+	c #FFEC10",
"=+	c #FEEA06",
"-+	c #FEEE02",
";+	c #FCE600",
">+	c #F4DB00",
",+	c #E1C600",
"'+	c #C7AA00",
")+	c #B9A200",
"!+	c #AA8D00",
"~+	c #926D00",
"{+	c #A58300",
"]+	c #C2A500",
"^+	c #A27200",
"/+	c #FEFC0B",
"(+	c #FEFEB0",
"_+	c #FEFEE0",
":+	c #FEFEEE",
"<+	c #FEFEF5",
"[+	c #BFBFBF",
"}+	c #FEE811",
"|+	c #FEE016",
"1+	c #FEE30D",
"2+	c #FEE70B",
"3+	c #FEE903",
"4+	c #F9E200",
"5+	c #FBE400",
"6+	c #F1D800",
"7+	c #DAC200",
"8+	c #D8C100",
"9+	c #B69F00",
"0+	c #B19400",
"a+	c #9F7F00",
"b+	c #564400",
"c+	c #191000",
"d+	c #7A6000",
"e+	c #FEFC10",
"f+	c #FEFD3F",
"g+	c #FEFD5A",
"h+	c #FEFE65",
"i+	c #FEFD55",
"j+	c #FEFD41",
"k+	c #F3E300",
"l+	c #FEFD2F",
"m+	c #FEFEE2",
"n+	c #FEFEF8",
"o+	c #FEFEF9",
"p+	c #909090",
"q+	c #FEEE1B",
"r+	c #FEF121",
"s+	c #FEE914",
"t+	c #FEF013",
"u+	c #FEEB0A",
"v+	c #FEEB07",
"w+	c #FEE606",
"x+	c #FEEA05",
"y+	c #FDE400",
"z+	c #F0D100",
"A+	c #B48C00",
"B+	c #4C2F00",
"C+	c #612900",
"D+	c #4A1F00",
"E+	c #644100",
"F+	c #B18F00",
"G+	c #AC8500",
"H+	c #AA8300",
"I+	c #693F00",
"J+	c #261000",
"K+	c #8C5C00",
"L+	c #FEF901",
"M+	c #F1E200",
"N+	c #DFC300",
"O+	c #C09E00",
"P+	c #9F7900",
"Q+	c #8F6B00",
"R+	c #563000",
"S+	c #FEF904",
"T+	c #FEFEDA",
"U+	c #FEFEF6",
"V+	c #FEFEF7",
"W+	c #8F8F8F",
"X+	c #BDBDBD",
"Y+	c #F1CC00",
"Z+	c #EFD500",
"`+	c #DA9F00",
" @	c #D2AF00",
".@	c #C08000",
"+@	c #B99200",
"@@	c #B98C00",
"#@	c #A77600",
"$@	c #946100",
"%@	c #7D5100",
"&@	c #594000",
"*@	c #331E00",
"=@	c #592F00",
"-@	c #563C00",
";@	c #6C4600",
">@	c #AF8D00",
",@	c #866000",
"'@	c #805400",
")@	c #9D7600",
"!@	c #7D5900",
"~@	c #6F4100",
"{@	c #7A4C00",
"]@	c #B99D00",
"^@	c #CEBB00",
"/@	c #BEA100",
"(@	c #7D5500",
"_@	c #452B00",
":@	c #2A1700",
"<@	c #1C0800",
"[@	c #E3C100",
"}@	c #FEFD70",
"|@	c #FEFE96",
"1@	c #FEFEA3",
"2@	c #FEFEA1",
"3@	c #373737",
"4@	c #8E8E8E",
"5@	c #BCBCBC",
"6@	c #976800",
"7@	c #8F5900",
"8@	c #AA7D00",
"9@	c #926900",
"0@	c #A78000",
"a@	c #B18500",
"b@	c #BB9300",
"c@	c #AF7C00",
"d@	c #BB8800",
"e@	c #B67700",
"f@	c #6F3300",
"g@	c #6F3500",
"h@	c #C79300",
"i@	c #D8B000",
"j@	c #CBA300",
"k@	c #BE9B00",
"l@	c #C5A200",
"m@	c #CEAB00",
"n@	c #DBB400",
"o@	c #D7AA00",
"p@	c #BE8B00",
"q@	c #BB8200",
"r@	c #A56900",
"s@	c #562900",
"t@	c #240E00",
"u@	c #190D00",
"v@	c #260900",
"w@	c #B43E00",
"x@	c #F79700",
"y@	c #FDA900",
"z@	c #FEB600",
"A@	c #FDAA00",
"B@	c #BBBBBB",
"C@	c #BEBEBE",
"D@	c #DAAC00",
"E@	c #C96F01",
"F@	c #EDC100",
"G@	c #E49D00",
"H@	c #EBB900",
"I@	c #EEB000",
"J@	c #EDA700",
"K@	c #EDA100",
"L@	c #EB9700",
"M@	c #CE6100",
"N@	c #D48C00",
"O@	c #F5D800",
"P@	c #FADE00",
"Q@	c #F7D900",
"R@	c #E1A700",
"S@	c #DA9900",
"T@	c #C77300",
"U@	c #C56600",
"V@	c #C56000",
"W@	c #C55500",
"X@	c #BB4000",
"Y@	c #B12F00",
"Z@	c #B63600",
"`@	c #AF3C00",
" #	c #B94F00",
".#	c #B15900",
"+#	c #8C3C00",
"@#	c #9A2F00",
"##	c #E66D00",
"$#	c #FECA00",
"%#	c #8C8C8C",
"&#	c #BABABA",
"*#	c #F3AF00",
"=#	c #FCB500",
"-#	c #F8B600",
";#	c #FCBC00",
">#	c #FEC100",
",#	c #FBA600",
"'#	c #F08F00",
")#	c #E67400",
"!#	c #DC6C00",
"~#	c #D04500",
"{#	c #BE2B00",
"]#	c #B42800",
"^#	c #B62500",
"/#	c #C23600",
"(#	c #C93D00",
"_#	c #D55400",
":#	c #DD5900",
"<#	c #E36400",
"[#	c #E46500",
"}#	c #DB5800",
"|#	c #DF5A00",
"1#	c #E86800",
"2#	c #E86F00",
"3#	c #F07700",
"4#	c #FEC703",
"5#	c #FECD03",
"6#	c #FECE04",
"7#	c #363636",
"8#	c #B9B9B9",
"9#	c #EDEDED",
"0#	c #FAA300",
"a#	c #F48C00",
"b#	c #EE8500",
"c#	c #ED7400",
"d#	c #EA6900",
"e#	c #EB7000",
"f#	c #E86100",
"g#	c #E87600",
"h#	c #EE7D00",
"i#	c #F8A100",
"j#	c #F78F00",
"k#	c #FA9D00",
"l#	c #FEB500",
"m#	c #8B8B8B",
"n#	c #B8B8B8",
"o#	c #FEDE11",
"p#	c #FEE414",
"q#	c #FCA700",
"r#	c #FDAF00",
"s#	c #F9A200",
"t#	c #F89900",
"u#	c #8A8A8A",
"v#	c #B7B7B7",
"w#	c #FEE816",
"x#	c #FECF06",
"y#	c #FEDB09",
"z#	c #353535",
"A#	c #898989",
"B#	c #B5B5B5",
"C#	c #FEE410",
"D#	c #FEDF11",
"E#	c #FEE313",
"F#	c #FEDD0D",
"G#	c #FEDD0E",
"H#	c #FFDD0A",
"I#	c #FED904",
"J#	c #888888",
"K#	c #B4B4B4",
"L#	c #FED70D",
"M#	c #FEDA05",
"N#	c #878787",
"O#	c #B3B3B3",
"P#	c #B6B6B6",
"Q#	c #E7E7E7",
"R#	c #FFDE0E",
"S#	c #FED303",
"T#	c #FEC602",
"U#	c #FEC704",
"V#	c #343434",
"W#	c #868686",
"X#	c #B2B2B2",
"Y#	c #FEE20B",
"Z#	c #FEDB07",
"`#	c #FEDA06",
" $	c #FED007",
".$	c #FECB01",
"+$	c #B1B1B1",
"@$	c #A6A6A6",
"#$	c #454545",
"$$	c #121212",
"%$	c #0A0A0A",
"&$	c #0F0F0F",
"*$	c #B0B0B0",
"=$	c #6C6C6C",
"-$	c #3F3F3F",
";$	c #3E3E3E",
">$	c #3D3D3D",
",$	c #3C3C3C",
"'$	c #585858",
")$	c #A3A3A3",
"!$	c #A0A0A0",
"~$	c #9D9D9D",
"{$	c #9C9C9C",
"]$	c #9B9B9B",
"^$	c #999999",
"/$	c #A8A8A8",
"($	c #D6D6D6",
"_$	c #AFAFAF",
". . . . . . . . . . . . . . . . . . . . . . . . . . . . . . . . . . . . . . . . . . . . . . . . ",
". . . . . . . . . . . . . . . . . . . . . . . . . . . . . . . . . . . . . . . . . . . . . . . . ",
". . + . . . . . . . . . . . . . . . . . . . . . . . . . . . . . . . . @ @ # @ # . @ @ @ @ @ . . ",
". . + + . . . . . . . . . . . . . . . . . . . . . . . . . . . . . . @ $ $ % $ & . $ $ $ $ $ . . ",
". . + + + . . . . . . . . . . . . . . . . . . . . . . . . . . . . # $ * . = $ & . . . & $ = . . ",
". . + + + + . . . . . . . . . . . . . . . . . . . . . . . . . . . & $ . . . $ & . . - $ @ . . . ",
". . + + + + + . . . . . . . . . . . . . . . . . . . . . . . . . . & $ = . # $ & . & $ @ . . . . ",
". . + + + + . . . . . . . . . . . . . . . . . . . . . . . . # @ = ; $ % & @ $ & . % $ = & & . . ",
". . + + + . . . . . . . . . . . . . . . . . . . . . . . . . & $ @ . & $ $ @ $ & . $ $ $ $ $ . . ",
". . + + . . . . . . . . . . . . . . . . . . . . . . . . . . . . . # @ = . # $ & . . . . . . . . ",
". . + . . . . . . . . . . . . . . . . . . . . . . . . . . . . . . . % $ * $ % . . . . . . . . . ",
". . . . . . . . . . . . . . . . . . . . . . . . . . . . . . . . . . . . . . . . . . . . . . . . ",
". . . . . . . . . . . . . . . . . . . . . . . . . . . . . . . . . . . . . . . . . . . . . . . . ",
". $ $ $ $ $ $ $ $ $ $ $ > , ' ) ! ~ { ] ^ / ( _ : < [ } | 1 2 3 + 4 5 6 7 8 9 0 a b c d e f g . ",
". $ $ $ $ $ $ $ $ $ $ > , ' ) h ~ { ] ^ / ( _ : < [ } | 1 2 3 + 4 5 % 7 8 9 0 a b c d e f g i . ",
". $ $ $ $ $ $ $ $ $ > , ' ) h ~ { ] ^ j ( _ : < [ } | 1 2 3 + 4 5 % 7 8 9 0 k b c d e f g i l . ",
". $ $ $ $ $ m m n o p q r s t t t u v v w p x y z A B t t C D C t E F E G G H I J J g g i l J . ",
". $ $ $ $ $ K x L v z v H z t H v M p w p N O v P B B C Q C C R z v p v v S T M U V W J l J X . ",
". $ $ $ $ $ Y F M v v v v v H T Z v v H N q ` Z I H  ..... .H p M w w w I T +.N @.#.$.%.J X &.. ",
". $ $ $ $ $ z w p v p p p w I T q v p q T r *.=.T  . . . .v w M M p T -.N M I -.;.>.,.'.X ).!.. ",
". $ $ $ $ ~.C t u w {.w v v v w v I -.T T =.*.].^.M p p p T T T N =.r /.q q N -.(._.:.<.).!.%.. ",
". $ $ $ ~.> H v v p M v v w v w v I N T T N [.-.-.N -.N -.]./.].}.].-.Z |.N N N (._.1.2.!.%.3.. ",
". $ $ ~.> ' T p v T T H t  .z v v v p p p M ` -.T r 4.}.}.4.5.6.7.8.].=.=./.-.-.(.9.1.* %.3.0.. ",
". $ ~.> , ) p v H v H z z v w p w v M T q w a.].=./.b.b.8.}.b.c.d.}././.=.-.-.N e.9.f.W 3.0.'.. ",
". ~.> , ) h w v v v w p v T T w v w T T T I g./.}.7.h.b.i.}.8.c.j.}.N T N N k.l.e.9.m.n.0.'.<.. ",
". > , ) h ! w w p p w v +.q I v M T T r r r *.o.5.d.8.i.}.].4.^.p.q.r.L s.t.u.t.e.v.w.x.'.<.* . ",
". , ' h ! ~ u v M v v v w M w I N Z N =.=./.y.}.}.8.4.}./.=.z.A.B.C.D.I E.F.G.H.e.v.I.J.<.2.K.. ",
". ' h ! ~ { H H M w v q q H z v s v q I q r L.r r Z M M.N.O.P.Q.R.S.T.U.V.W.X.Y.e.v.Z.`.2.K.W . ",
". h ! ~ { ]  +.+.+C ..++z ++++@+#+..$+%+N.&+*+=+-+;+>+,+'+)+!+~+{+]+^+/+(+_+:+<+e.# Z.[+K.W n.. ",
". ! ~ { ] ^ }+|+|+D t u t ..1+2+3+4+5+6+7+8+9+0+a+b+c+d+e+f+g+h+i+j+k+l+m+n+o+o+e.# p+[+W n.x.. ",
". ~ { ] ^ / q+r+s+t+u+v+w+x+y+z+A+B+C+D+E+]+F+G+H+I+J+K+L+M+N+O+P+Q+R+S+T+U+V+U+e.# W+X+n.x.J.. ",
". { ] ^ / ( Y+Z+`+ @.@+@@@#@$@%@&@*@=@-@;@>@,@'@)@!@~@{@]@^@/@(@_@:@<@[@}@|@1@2@e.3@4@5@x.J.`.. ",
". ] ^ j ( _ 6@7@8@9@0@a@b@c@d@e@f@g@h@i@j@O+k@l@m@ @n@o@p@q@r@s@t@u@v@w@x@y@z@A@e.3@- B@J.`.C@. ",
". ^ j ( _ : D@E@F@G@H@I@I@J@K@L@M@N@O@P@Q@R@S@T@U@V@W@X@Y@Z@`@ #.#+#@###6.4.}.$#e.3@%#&#`.[+X+. ",
". j ( _ : < *#=#-#i.;#>#}.].}.b.,#'#)#!#~#{#]#^#/#(#_#:#<#[#}#|#1#2#3#A@/.4#5#6#e.7#%#8#[+X+5@. ",
". / _ : < 9#p z H ....z .. .M ^.b.0#a#b#c#d#e#f#[#g#h#a#x@i#a#a#j#k#l#r S 6#6#E.e.7#m#n#X+5@B@. ",
". _ : < 9#[ o#.+D $+p#D l.l.t v T =.4.d.y@q#r#s#t#s#0#c.h.7.6.q#d.}.=.5#6#6#E.E.e.7#u#v#5@B@&#. ",
". : < 9#[ | p#p#$+w#w#w#%+%+C  .v T p p v v x N ^.^.-.-.^.^.^././.r x#k.L k.y#k.e.z#A#B#B@&#8#. ",
". < 9#[ | 1 C#D#.+D E#z.l..+++v p ^.w t.F#G#H#k.y y L E.5#5#L S 5#S r.B s.L I#k.e.z#J#K#&#8#n#. ",
". 9#[ } 1 2 w .+t ..C ..t H v v w M v L#r.t.Y B B B y#L E.L k.k.s.s.s.k.6#6#M#k.e.z#N#O#8#n#P#. ",
". [ } 1 2 Q#I D#....C  .H p p v p N H s.B t.R#t.G#t.s.L S#E.L E.S S#E.5#T#U#s.s.e.V#W#X#n#v#B#. ",
". } 1 2 Q#3 z @+#+z @+t  .t.Y#B Z#`#s.k.k.F#H#y#B B B s.M#L E.y E.k.s. $S  $E..$e.V#W#+$v#B#K#. ",
". | 2 Q#3 + a @$#$$$%$(.(.(.(.(.(.(.(.(.(.(.e.e.e.(.(.(.(.(.(.(.(.(.(.(.e.e.e.e.&$v.N#*$B#K#O#. ",
". 2 Q#3 + 4 k K#=$#$-$;$>$>$>$,$,$,$_._._.9.9.9.v.v.v.# # 3@3@3@3@7#7#z#z#z#z#V#v.'$w.+$K#O#X#. ",
". Q#3 + 4 % 8 ).O#)$!$U U ~${$]$,.^$^$:.1.1.f.m.w.I.Z.Z.p+4@4@- %#%#u#A#A#J#W#W#N#w./$X#O#X#+$. ",
". 3 + 4 % 6 7 0 d f g l J X &.!.%.3.0.<.2.* K.n.x.J.`.[+C@X+5@B@&#n#v#P#B#K#X#+$+$+$X#O#X#+$*$. ",
". + 4 5 6 7 8 9 k a b c d ($f g i l X ).&.!.%.0.'.<.2.K.W n.x.J.[+C@X+5@B@8#n#v#P#B#O#X#+$*$_$. ",
". . . . . . . . . . . . . . . . . . . . . . . . . . . . . . . . . . . . . . . . . . . . . . . . "};
