/* XPM */
static char * file_dot_pedro_xpm[] = {
"48 48 787 2",
"  	c None",
". 	c #000000",
"+ 	c #FFFFFF",
"@ 	c #555555",
"# 	c #AAAAAA",
"$ 	c #717171",
"% 	c #383838",
"& 	c #E2E2E2",
"* 	c #1C1C1C",
"= 	c #C6C6C6",
"- 	c #8D8D8D",
"; 	c #FDFDFD",
"> 	c #FCFCFC",
", 	c #FBFBFB",
"' 	c #FAFAFA",
") 	c #F8F8F8",
"! 	c #F7F7F7",
"~ 	c #F6F6F6",
"{ 	c #EDEDED",
"] 	c #CECECE",
"^ 	c #D4D3D2",
"/ 	c #A6A5A1",
"( 	c #66625A",
"_ 	c #656058",
": 	c #95918A",
"< 	c #CCCAC8",
"[ 	c #D4D4D4",
"} 	c #E5E5E5",
"| 	c #E9E9E9",
"1 	c #E8E8E8",
"2 	c #E6E6E6",
"3 	c #E4E4E4",
"4 	c #E3E3E3",
"5 	c #E1E1E1",
"6 	c #E0E0E0",
"7 	c #DFDFDF",
"8 	c #DEDEDE",
"9 	c #DDDDDD",
"0 	c #DBDBDB",
"a 	c #DADADA",
"b 	c #D9D9D9",
"c 	c #D8D8D8",
"d 	c #D7D7D7",
"e 	c #D5D5D5",
"f 	c #F9F9F9",
"g 	c #969591",
"h 	c #5B5A50",
"i 	c #151204",
"j 	c #120D01",
"k 	c #140D00",
"l 	c #160D01",
"m 	c #150D02",
"n 	c #251C0D",
"o 	c #6A645E",
"p 	c #BAB8B7",
"q 	c #DCDCDC",
"r 	c #D3D3D3",
"s 	c #EFEFEF",
"t 	c #CBCBCA",
"u 	c #61635A",
"v 	c #19180C",
"w 	c #0F0B01",
"x 	c #130D01",
"y 	c #160E02",
"z 	c #1A1202",
"A 	c #1D1502",
"B 	c #1D1403",
"C 	c #1C1402",
"D 	c #191201",
"E 	c #272015",
"F 	c #6F6A64",
"G 	c #CCCCCB",
"H 	c #D2D2D2",
"I 	c #F2F2F2",
"J 	c #9D9D9A",
"K 	c #404035",
"L 	c #0E0D01",
"M 	c #0F0D01",
"N 	c #140E01",
"O 	c #231803",
"P 	c #2D1C03",
"Q 	c #2E2003",
"R 	c #291F02",
"S 	c #271D02",
"T 	c #231B02",
"U 	c #251C04",
"V 	c #201903",
"W 	c #1E1702",
"X 	c #534C3F",
"Y 	c #CAC9C8",
"Z 	c #D6D6D6",
"` 	c #D1D1D1",
" .	c #FEFEFE",
"..	c #F1F1F1",
"+.	c #BEBEBB",
"@.	c #29281B",
"#.	c #241902",
"$.	c #2B1E03",
"%.	c #312204",
"&.	c #332505",
"*.	c #2F2103",
"=.	c #2D2003",
"-.	c #201802",
";.	c #231B03",
">.	c #221A02",
",.	c #241C03",
"'.	c #281E06",
").	c #6B6457",
"!.	c #D0CFCE",
"~.	c #D0D0D0",
"{.	c #C0C0BC",
"].	c #282716",
"^.	c #171103",
"/.	c #181002",
"(.	c #271B03",
"_.	c #2F2206",
":.	c #2F2203",
"<.	c #382805",
"[.	c #3E2D07",
"}.	c #3A2A05",
"|.	c #362605",
"1.	c #402F08",
"2.	c #3B2A05",
"3.	c #362505",
"4.	c #322104",
"5.	c #2A1C03",
"6.	c #5A503D",
"7.	c #D3D3D2",
"8.	c #DBDBDA",
"9.	c #49453A",
"0.	c #1A1302",
"a.	c #191102",
"b.	c #271C04",
"c.	c #342504",
"d.	c #382A06",
"e.	c #3D2905",
"f.	c #442B06",
"g.	c #4C3307",
"h.	c #392604",
"i.	c #3B2604",
"j.	c #442F06",
"k.	c #412B06",
"l.	c #3C2805",
"m.	c #301E02",
"n.	c #2E1B02",
"o.	c #321D03",
"p.	c #321E03",
"q.	c #928A7E",
"r.	c #CFCFCE",
"s.	c #CFCFCF",
"t.	c #CDCDCD",
"u.	c #85847E",
"v.	c #191202",
"w.	c #180F00",
"x.	c #251B02",
"y.	c #392806",
"z.	c #4E350C",
"A.	c #573D10",
"B.	c #5D400E",
"C.	c #664810",
"D.	c #533608",
"E.	c #412B05",
"F.	c #3A2705",
"G.	c #301E03",
"H.	c #382404",
"I.	c #362303",
"J.	c #382604",
"K.	c #3D2B04",
"L.	c #503909",
"M.	c #492D05",
"N.	c #432B06",
"O.	c #412E10",
"P.	c #AEA8A0",
"Q.	c #CCCCCC",
"R.	c #F5F5F5",
"S.	c #D0D0CF",
"T.	c #38362B",
"U.	c #1A1101",
"V.	c #1B1001",
"W.	c #2F2404",
"X.	c #3F2F08",
"Y.	c #5E4818",
"Z.	c #6C5521",
"`.	c #5D4312",
" +	c #684C13",
".+	c #52390A",
"++	c #4A3408",
"@+	c #302004",
"#+	c #211502",
"$+	c #332204",
"%+	c #352305",
"&+	c #3E2B05",
"*+	c #422F07",
"=+	c #533D0C",
"-+	c #4E360A",
";+	c #45310C",
">+	c #392708",
",+	c #503F23",
"'+	c #CBC9C7",
")+	c #CBCBCB",
"!+	c #8F8F8C",
"~+	c #221E0E",
"{+	c #1A1201",
"]+	c #1E1301",
"^+	c #302405",
"/+	c #3C2D09",
"(+	c #59481B",
"_+	c #6B5727",
":+	c #5C4516",
"<+	c #5B410F",
"[+	c #533A0D",
"}+	c #473208",
"|+	c #2B1C02",
"1+	c #1C1202",
"2+	c #362405",
"3+	c #352204",
"4+	c #3C2906",
"5+	c #47320B",
"6+	c #513C10",
"7+	c #543F13",
"8+	c #534316",
"9+	c #42330D",
"0+	c #382706",
"a+	c #867963",
"b+	c #CACACA",
"c+	c #F4F4F4",
"d+	c #747068",
"e+	c #1E1704",
"f+	c #1B1302",
"g+	c #241903",
"h+	c #362909",
"i+	c #473914",
"j+	c #5B4C21",
"k+	c #594A1E",
"l+	c #644F1C",
"m+	c #50370B",
"n+	c #51370B",
"o+	c #453007",
"p+	c #3A2704",
"q+	c #311F02",
"r+	c #311F03",
"s+	c #3A2806",
"t+	c #301F03",
"u+	c #392A08",
"v+	c #3E2E0A",
"w+	c #524015",
"x+	c #524018",
"y+	c #443311",
"z+	c #3C2C0B",
"A+	c #4A3111",
"B+	c #9E958C",
"C+	c #C9C9C9",
"D+	c #F3F3F3",
"E+	c #B9B9B8",
"F+	c #353022",
"G+	c #1E1602",
"H+	c #241E06",
"I+	c #30290A",
"J+	c #3E310F",
"K+	c #52431A",
"L+	c #56481D",
"M+	c #5A4B1F",
"N+	c #695521",
"O+	c #6B521A",
"P+	c #573C0E",
"Q+	c #452E06",
"R+	c #3E2905",
"S+	c #3B2504",
"T+	c #3D2A05",
"U+	c #332202",
"V+	c #433109",
"W+	c #4E3A0E",
"X+	c #513D14",
"Y+	c #544216",
"Z+	c #58471A",
"`+	c #4D3C11",
" @	c #422A07",
".@	c #94826B",
"+@	c #BCBCBB",
"@@	c #C8C8C8",
"#@	c #B7B6B5",
"$@	c #1E1705",
"%@	c #1E1603",
"&@	c #1C1502",
"*@	c #332B0B",
"=@	c #2B2107",
"-@	c #2D2208",
";@	c #372B0B",
">@	c #5D4E22",
",@	c #7A6431",
"'@	c #7F632B",
")@	c #6B4C16",
"!@	c #4C3308",
"~@	c #4F3609",
"{@	c #4D350A",
"]@	c #503A0A",
"^@	c #3D2704",
"/@	c #3C2804",
"(@	c #5A4612",
"_@	c #6C5524",
":@	c #5D481A",
"<@	c #46360D",
"[@	c #352707",
"}@	c #44350C",
"|@	c #3F2C09",
"1@	c #4E381B",
"2@	c #A29F9B",
"3@	c #DCDBDA",
"4@	c #1E1703",
"5@	c #1C1403",
"6@	c #1A1401",
"7@	c #2C2505",
"8@	c #302808",
"9@	c #302707",
"0@	c #3D300C",
"a@	c #625321",
"b@	c #5D4523",
"c@	c #4E3213",
"d@	c #694B13",
"e@	c #624510",
"f@	c #563A0C",
"g@	c #593C0B",
"h@	c #4D3207",
"i@	c #492F08",
"j@	c #3C270C",
"k@	c #442F1A",
"l@	c #644D20",
"m@	c #3E2E09",
"n@	c #221602",
"o@	c #261A04",
"p@	c #2E2107",
"q@	c #402D0A",
"r@	c #ADA695",
"s@	c #C7C7C7",
"t@	c #C5C5C5",
"u@	c #F0F0F0",
"v@	c #D4D3D1",
"w@	c #1D1604",
"x@	c #1F1802",
"y@	c #2C2605",
"z@	c #231D04",
"A@	c #2E2407",
"B@	c #564319",
"C@	c #684F25",
"D@	c #3D230C",
"E@	c #664619",
"F@	c #684915",
"G@	c #644913",
"H@	c #654A12",
"I@	c #664A14",
"J@	c #5D4210",
"K@	c #5F4412",
"L@	c #51380C",
"M@	c #3B1D05",
"N@	c #381209",
"O@	c #5B4322",
"P@	c #251801",
"Q@	c #221501",
"R@	c #807058",
"S@	c #C4C4C4",
"T@	c #1D1603",
"U@	c #170F01",
"V@	c #221B03",
"W@	c #2C2405",
"X@	c #261E04",
"Y@	c #382B08",
"Z@	c #604A1D",
"`@	c #654823",
" #	c #593C14",
".#	c #7C5C1E",
"+#	c #7B5A21",
"@#	c #775924",
"##	c #725722",
"$#	c #7A5F27",
"%#	c #684D19",
"&#	c #6F521B",
"*#	c #634715",
"=#	c #56370D",
"-#	c #351706",
";#	c #4B381A",
">#	c #5A491A",
",#	c #2C1F03",
"'#	c #261801",
")#	c #2D1D02",
"!#	c #342304",
"~#	c #776850",
"{#	c #C3C3C3",
"]#	c #1C1604",
"^#	c #170F02",
"/#	c #261E05",
"(#	c #2B2104",
"_#	c #2A2003",
":#	c #44360C",
"<#	c #6C5321",
"[#	c #62431A",
"}#	c #705019",
"|#	c #8B6829",
"1#	c #957234",
"2#	c #8D6E37",
"3#	c #826731",
"4#	c #80652E",
"5#	c #7C5E29",
"6#	c #7C5E28",
"7#	c #7B5C26",
"8#	c #664412",
"9#	c #462A07",
"0#	c #5C441B",
"a#	c #5B4A18",
"b#	c #2F2204",
"c#	c #2B1E04",
"d#	c #332605",
"e#	c #342705",
"f#	c #847763",
"g#	c #C2C2C2",
"h#	c #EEEEEE",
"i#	c #ECECEC",
"j#	c #C9C9C7",
"k#	c #22200D",
"l#	c #2B2004",
"m#	c #2E2304",
"n#	c #312506",
"o#	c #48370D",
"p#	c #644B17",
"q#	c #6E521A",
"r#	c #7E5D23",
"s#	c #9E793B",
"t#	c #9F7A3C",
"u#	c #8D6B2E",
"v#	c #836127",
"w#	c #7D5C24",
"x#	c #81632A",
"y#	c #7D5E26",
"z#	c #82622A",
"A#	c #79571E",
"B#	c #674811",
"C#	c #53390B",
"D#	c #523D0C",
"E#	c #3D2A06",
"F#	c #322304",
"G#	c #362905",
"H#	c #342604",
"I#	c #9C9383",
"J#	c #C1C1C1",
"K#	c #EBEBEB",
"L#	c #BDBDBC",
"M#	c #4A4939",
"N#	c #1C1602",
"O#	c #2E2204",
"P#	c #342603",
"Q#	c #352706",
"R#	c #4A360B",
"S#	c #583D0E",
"T#	c #6A4D15",
"U#	c #7D591E",
"V#	c #9D7435",
"W#	c #9D7334",
"X#	c #926A27",
"Y#	c #86601E",
"Z#	c #7F5B19",
"`#	c #785719",
" $	c #795A1B",
".$	c #7A5B1C",
"+$	c #765419",
"@$	c #62440E",
"#$	c #503507",
"$$	c #4B3507",
"%$	c #3C2702",
"&$	c #342201",
"*$	c #3A2904",
"=$	c #382703",
"-$	c #A59E90",
";$	c #C0C0C0",
">$	c #EAEAEA",
",$	c #6D6C60",
"'$	c #1D1803",
")$	c #3F2C05",
"!$	c #463108",
"~$	c #523A0C",
"{$	c #644712",
"]$	c #75561A",
"^$	c #906827",
"/$	c #A47633",
"($	c #A27431",
"_$	c #9B6F27",
":$	c #8E631F",
"<$	c #845B17",
"[$	c #825D1B",
"}$	c #845F1D",
"|$	c #866020",
"1$	c #714E13",
"2$	c #5F400B",
"3$	c #483107",
"4$	c #3B2503",
"5$	c #392502",
"6$	c #422C03",
"7$	c #402C0C",
"8$	c #C1BEB8",
"9$	c #BEBEBE",
"0$	c #95928A",
"a$	c #261C05",
"b$	c #412D06",
"c$	c #473107",
"d$	c #49330A",
"e$	c #573D0E",
"f$	c #654916",
"g$	c #896627",
"h$	c #A47B35",
"i$	c #A9803A",
"j$	c #8F6A2A",
"k$	c #8E6A29",
"l$	c #876424",
"m$	c #876625",
"n$	c #8E6828",
"o$	c #966A2A",
"p$	c #8E6725",
"q$	c #6B4814",
"r$	c #53350A",
"s$	c #493007",
"t$	c #3E2805",
"u$	c #3C2503",
"v$	c #452B04",
"w$	c #776955",
"x$	c #BCBBBA",
"y$	c #BFBFBF",
"z$	c #BDBDBD",
"A$	c #9F9E9B",
"B$	c #342B14",
"C$	c #2B1F02",
"D$	c #413006",
"E$	c #4D3708",
"F$	c #5D420E",
"G$	c #715418",
"H$	c #876525",
"I$	c #B58743",
"J$	c #B78C4A",
"K$	c #60491F",
"L$	c #5F491F",
"M$	c #5E471E",
"N$	c #513A18",
"O$	c #76552A",
"P$	c #AB7F3F",
"Q$	c #906B28",
"R$	c #735218",
"S$	c #60420D",
"T$	c #54390A",
"U$	c #3F2603",
"V$	c #4A330F",
"W$	c #8A847C",
"X$	c #BCBCBC",
"Y$	c #E7E7E7",
"Z$	c #5C543F",
"`$	c #2D2202",
" %	c #362803",
".%	c #4F3809",
"+%	c #523808",
"@%	c #6F5015",
"#%	c #866324",
"$%	c #AF8040",
"%%	c #C69856",
"&%	c #6D582E",
"*%	c #4C3D1C",
"=%	c #4A3B1B",
"-%	c #574323",
";%	c #9D7E4B",
">%	c #A77E3C",
",%	c #856523",
"'%	c #6A4D13",
")%	c #593E0B",
"!%	c #503508",
"~%	c #432702",
"{%	c #5F492B",
"]%	c #B6B5B4",
"^%	c #BBBBBB",
"/%	c #979284",
"(%	c #372A04",
"_%	c #3B2C05",
":%	c #483108",
"<%	c #543809",
"[%	c #684A12",
"}%	c #78551B",
"|%	c #936A2C",
"1%	c #AC8240",
"2%	c #9E834B",
"3%	c #836E3C",
"4%	c #766131",
"5%	c #937948",
"6%	c #A9894E",
"7%	c #9D7834",
"8%	c #795D1D",
"9%	c #5D440E",
"0%	c #4E3609",
"a%	c #3C2602",
"b%	c #3F2803",
"c%	c #3E2602",
"d%	c #6D5532",
"e%	c #BABABA",
"f%	c #CECDC9",
"g%	c #4D3D17",
"h%	c #4F3B0B",
"i%	c #483308",
"j%	c #4D3608",
"k%	c #533B08",
"l%	c #63490F",
"m%	c #6E5114",
"n%	c #7E5C1F",
"o%	c #916D2B",
"p%	c #9C7F42",
"q%	c #897240",
"r%	c #746236",
"s%	c #9C8046",
"t%	c #A2803E",
"u%	c #916B28",
"v%	c #715214",
"w%	c #63470F",
"x%	c #553A09",
"y%	c #483105",
"z%	c #402A03",
"A%	c #4B2D03",
"B%	c #7A5932",
"C%	c #BDBCBC",
"D%	c #B9B9B9",
"E%	c #D8D8D7",
"F%	c #A19885",
"G%	c #5D4813",
"H%	c #56400E",
"I%	c #493306",
"J%	c #513908",
"K%	c #573F0B",
"L%	c #5F440E",
"M%	c #745518",
"N%	c #8A6925",
"O%	c #9D8043",
"P%	c #8D7645",
"Q%	c #78643E",
"R%	c #A1874C",
"S%	c #9E7C3A",
"T%	c #906A26",
"U%	c #735415",
"V%	c #62450D",
"W%	c #4D3306",
"X%	c #482F04",
"Y%	c #4E3605",
"Z%	c #5B3A07",
"`%	c #755637",
" &	c #B8B8B8",
".&	c #B6B5B2",
"+&	c #6F5E3D",
"@&	c #5F4914",
"#&	c #553E0E",
"$&	c #4C3507",
"%&	c #543C0A",
"&&	c #543909",
"*&	c #7E5E1D",
"=&	c #91783D",
"-&	c #745F35",
";&	c #624C2C",
">&	c #7A6633",
",&	c #896D2F",
"'&	c #846020",
")&	c #65460F",
"!&	c #503306",
"~&	c #4D3305",
"{&	c #593E07",
"]&	c #573C08",
"^&	c #402604",
"/&	c #664B35",
"(&	c #B6B6B6",
"_&	c #BBB9B3",
":&	c #7B6D4F",
"<&	c #594313",
"[&	c #5D450E",
"}&	c #61480F",
"|&	c #5F420E",
"1&	c #644610",
"2&	c #7F6025",
"3&	c #755726",
"4&	c #674B22",
"5&	c #6D511F",
"6&	c #73551B",
"7&	c #67470F",
"8&	c #563607",
"9&	c #5D3D09",
"0&	c #5D3F0A",
"a&	c #5A3E09",
"b&	c #432A06",
"c&	c #3D322C",
"d&	c #B5B4B3",
"e&	c #B7B7B7",
"f&	c #B5B5B5",
"g&	c #B5B4B2",
"h&	c #9B9079",
"i&	c #624916",
"j&	c #674D14",
"k&	c #674C13",
"l&	c #6A4E13",
"m&	c #624710",
"n&	c #5A3E0F",
"o&	c #553B0D",
"p&	c #563B0E",
"q&	c #5B4011",
"r&	c #583E0D",
"s&	c #593E0D",
"t&	c #55380B",
"u&	c #5B3D0C",
"v&	c #5C3D0C",
"w&	c #62410B",
"x&	c #4F310C",
"y&	c #9C9792",
"z&	c #B4B4B4",
"A&	c #CDCCCC",
"B&	c #C8C1B2",
"C&	c #6D5424",
"D&	c #664B16",
"E&	c #634A13",
"F&	c #664D14",
"G&	c #5F460F",
"H&	c #563B0D",
"I&	c #553C0D",
"J&	c #5A410F",
"K&	c #4F3A0C",
"L&	c #594212",
"M&	c #614915",
"N&	c #5E4411",
"O&	c #5C4210",
"P&	c #5B400E",
"Q&	c #5D3C0F",
"R&	c #8B7359",
"S&	c #ADACAA",
"T&	c #B3B3B3",
"U&	c #CFCDC9",
"V&	c #78633B",
"W&	c #6F5520",
"X&	c #6D531F",
"Y&	c #5A4313",
"Z&	c #564012",
"`&	c #4D370B",
" *	c #533A0C",
".*	c #593F0F",
"+*	c #5E4310",
"@*	c #5B4412",
"#*	c #69511B",
"$*	c #6C531B",
"%*	c #644B18",
"&*	c #523C11",
"**	c #3C270E",
"=*	c #948A81",
"-*	c #A19F9D",
";*	c #B2B2B2",
">*	c #C7C5C2",
",*	c #938462",
"'*	c #745E28",
")*	c #68531D",
"!*	c #635020",
"~*	c #6F603C",
"{*	c #A8A398",
"]*	c #9A9285",
"^*	c #6D5D43",
"/*	c #695633",
"(*	c #6E5A33",
"_*	c #776138",
":*	c #604C2C",
"<*	c #4C3B1F",
"[*	c #7D7465",
"}*	c #7E7366",
"|*	c #B8B5B2",
"1*	c #B1B1B1",
"2*	c #BBB7A8",
"3*	c #695A2D",
"4*	c #645221",
"5*	c #5E4F23",
"6*	c #867B60",
"7*	c #B2B2B1",
"8*	c #BEBDBD",
"9*	c #B3B2B1",
"0*	c #AFAEAD",
"a*	c #AAA9A7",
"b*	c #A8A6A0",
"c*	c #AEACA6",
"d*	c #A9A8A6",
"e*	c #A7A7A7",
"f*	c #B0B0B0",
"g*	c #BEBBB3",
"h*	c #9E998D",
"i*	c #7C6D45",
"j*	c #635334",
"k*	c #8E8475",
"l*	c #AFAFAF",
". . . . . . . . . . . . . . . . . . . . . . . . . . . . . . . . . . . . . . . . . . . . . . . . ",
". . . . . . . . . . . . . . . . . . . . . . . . . . . . . . . . + @ . . . . . . . . . . . . . . ",
". . + + . . + + . . . . . . . . . . . . . . . . . . . . . . . . + @ . . . . . . . . . . . . . . ",
". . + + . . + + . . . . . . # $ % # % . . . . # # . . . . # # % + @ . $ # . $ . . % # # . . . . ",
". . . . . . . . . . . . . . + & + + & * . @ + + + & * . # + + & + @ . # + # + . # + + + & * . . ",
". . . . + + . . . . . . . . + + * * + = . & = * * + - % + - . @ + @ . # + # @ % + = . * + = . . ",
". . . . . . . . . . . . . . + # . . # + . + + + + + # @ + . . . + @ . # + * . @ + . . . # + . . ",
". . + . . . . + . . . . . . + & . . & + . + - . . @ * @ + % . * + @ . # + . . @ + $ . . & + . . ",
". . . + + + + . . . % # $ . + + $ $ + - . = + $ $ + % * + & @ # + @ . # + . . * + & @ $ + - . . ",
". . . . . . . . . . @ + # . + = = + # . . * # + & $ . . @ + + $ + @ . # + . . . @ = + + - . . . ",
". . . . . . . . . . . . . . + # . . . . . . . . . . . . . . . . . . . . . . . . . . . . . . . . ",
". . . . . . . . . . . . . . + # . . . . . . . . . . . . . . . . . . . . . . . . . . . . . . . . ",
". . . . . . . . . . . . . . . . . . . . . . . . . . . . . . . . . . . . . . . . . . . . . . . . ",
". + + + + + + + + + + + ; > , ' ) ! ~ { ] ^ / ( _ : < [ } | 1 2 } 3 4 5 6 7 8 9 0 a b c d e [ . ",
". + + + + + + + + + + ; > , ' f ! ~ 4 g h i j k l m n o p q 3 } 3 4 & 6 7 8 9 0 a b c d e [ r . ",
". + + + + + + + + + ; > , ' f ! s t u v w x y z A B C D E F G 6 4 & 6 7 8 9 q a b c d e [ r H . ",
". + + + + + + + + ; > , ' f ! I J K L M N O P Q R S T U V W X Y 9 6 7 8 9 q a b c d Z [ r H ` . ",
". + + + + + + +  .> , ' f ) ..+.@.x l A #.$.%.&.*.=.-.;.>.,.'.).!.8 8 9 q a b c d Z [ r H ` ~.. ",
". + + + + + +  .> , ' f ) s {.].^./.(._.:.<.[.}.|.1.2.3.4.5.#.$.6.7.q q 0 b c d Z [ r H ` ~.] . ",
". + + + + +  .> , ' f ) ~ 8.9.0.a.b.c.d.e.f.g.e.h.i.j.k.l.m.n.o.p.q.r.0 b c d Z e r H ` ~.s.t.. ",
". + + + +  .; , ' f ) ! s u.v.w.x.y.z.A.B.C.D.E.F.G.H.I.J.K.L.M.N.O.P.r c d Z e r H ` ~.s.t.Q.. ",
". + + +  .; , ' f ) ! R.S.T.U.V.W.X.Y.Z.`. +.+++@+#+$+%+&+*+=+-+;+>+,+'+d Z e r H ` ~.s.t.Q.)+. ",
". + +  .; , ' f ) ! R.I !+~+{+]+^+/+(+_+:+<+[+}+|+1+2+3+4+5+6+7+8+9+0+a+] e [ H ` ~.s.] Q.)+b+. ",
". +  .; > ' f ) ! ~ c+d d+e+f+g+h+i+j+k+l+m+n+o+p+q+r+s+t+u+v+w+x+y+z+A+B+~.H ` ~.s.] Q.)+b+C+. ",
".  .; > ' f ) ! ~ c+D+E+F+G+H+I+J+K+L+M+N+O+P+Q+R+S+T+4+U+V+W+X+Y+Z+`+ @.@+@` ~.s.] Q.)+b+C+@@. ",
". ; > ' f ) ! ~ c+D+I #@$@%@&@*@=@-@;@>@,@'@)@!@~@{@]@^@/@(@_@:@<@[@}@|@1@2@~.s.] t.)+b+C+@@= . ",
". > , f ) ! ~ R.D+I ..3@4@5@6@7@8@9@0@a@b@c@d@e@e@f@g@h@i@j@k@l@m@n@o@p@q@r@s.] t.)+b+C+@@s@t@. ",
". , f ) ! ~ R.D+I ..u@v@w@/.x@y@z@A@B@C@D@E@F@G@H@I@J@K@L@M@N@O@8+P@Q@P H.R@] t.)+b+C+@@s@t@S@. ",
". f ) ! ~ R.D+I ..u@s {.T@U@V@W@X@Y@Z@`@ #.#+#@###$#%#&#*#=#-#;#>#,#'#)#!#~#t.Q.b+C+@@s@t@S@{#. ",
". ) ! ~ R.c+I ..u@s { {.]#^#/#(#_#:#<#[#}#|#1#2#3#4#5#6#7#8#9#0#a#b#c#d#e#f#Q.b+C+@@s@= S@{#g#. ",
". ! ~ R.c+I ..u@s h#i#j#k#%@l#m#n#o#p#q#r#s#t#u#v#w#x#y#z#A#B#C#D#E#F#G#H#I#b+C+@@s@= S@{#g#J#. ",
". ~ R.c+I ..u@s h#i#K#L#M#N#O#P#Q#R#S#T#U#V#W#X#Y#Z#`# $.$+$@$#$$$%$&$*$=$-$C+@@s@= S@{#g#J#;$. ",
". R.c+D+..u@s h#i#K#>$)+,$'$=.)$!$~${$]$^$/$($_$:$<$[$[$}$|$1$2$3$4$5$6$7$8$@@s@= t@{#g#J#;$9$. ",
". c+D+..u@s h#{ K#>$| d 0$a$,#b$c$d$e$f$g$h$i$j$k$l$m$n$o$p$q$r$s$t$u$v$w$x$s@= t@{#g#J#;$y$z$. ",
". D+..u@s h#{ K#>$| 1 } A$B$C$D$E$g.F$G$H$I$J$K$L$M$N$O$P$Q$R$S$T$U$U$V$W$S@= t@{#g#J#;$y$z$X$. ",
". I u@s h#{ K#>$| 1 Y$} 7.Z$`$ %.%+%B.@%#%$%%%&%*%=%-%;%>%,%'%)%!%v$~%{%]%= t@S@g#J#;$y$z$X$^%. ",
". u@s h#{ i#>$| 1 Y$} 3 4 /%(%_%:%!%<%[%}%|%1%2%3%4%5%6%7%8%9%0%a%b%c%d%z$t@S@g#J#;$y$9$X$^%e%. ",
". s h#{ i#>$| 1 Y$2 3 4 & f%g%h%i%j%k%l%m%n%o%p%q%r%s%t%u%v%w%x%y%z%A%B%C%S@g#J#;$y$9$X$^%e%D%. ",
". h#{ i#>$| 1 Y$2 3 4 & 5 E%F%G%H%I%J%K%L%M%N%O%P%Q%R%S%T%U%V%W%X%Y%Z%`%;${#J#;$y$9$X$^%e%D% &. ",
". { i#K#| 1 Y$2 3 4 & 5 6 9 .&+&@&#&$&%&&&[%*&=&-&;&>&,&'&)&!&~&{&]&^&/&J#J#;$y$9$z$^%e%D% &(&. ",
". i#K#| 1 Y$2 } 4 & 5 7 8 9 a _&:&<&[&}&|&1&@%2&3&4&5&6&7&8&9&0&a&b&c&d&J#;$y$9$z$^%e%D% &e&f&. ",
". K#| 1 Y$2 } 4 & 5 6 8 9 q 0 s.g&h&i&j&k&l&m&n&o&p&q&r&s&t&u&v&w&x&y&g#;$y$9$z$^%e%D% &e&f&z&. ",
". >$1 Y$2 } 4 & 5 6 7 9 q 0 a b A&B&C&D&E&F&G&H&I&J&K&L&M&N&O&P&Q&R&S&;$y$9$z$X$e%D% &e&f&z&T&. ",
". 1 Y$2 } 3 & 5 6 7 9 q 0 a b Z U&V&W&X&Y&Z&`& *.*+*@*#*$*%*&***=*-*D%y$9$z$X$e%D% &e&(&z&T&;*. ",
". Y$2 } 3 & 5 6 7 8 q 0 a b c e >*,*'*)*!*~*{*]*^*/*(*_*:*<*[*}*|*J#y$9$z$X$e%D% &e&(&z&T&;*1*. ",
". 2 } 3 & 5 6 7 8 q 0 a b c Z e C+2*3*4*5*6*7*C+g#8*9*0*a*b*c*d*e*y$9$z$X$^%D% &e&(&z&T&;*1*f*. ",
". } 3 4 5 6 7 8 q 0 a b c Z e [ t.g*h*i*j*k*e%b+C+@@s@t@S@+@f&9$z$9$z$X$^%D% &e&(&f&T&;*1*f*l*. ",
". . . . . . . . . . . . . . . . . . . . . . . . . . . . . . . . . . . . . . . . . . . . . . . . "};
