/* XPM */
static char * file_executable_xpm[] = {
"48 48 273 2",
"  	c None",
". 	c #000000",
"+ 	c #E5E5E5",
"@ 	c #FFFFFF",
"# 	c #FDFDFD",
"$ 	c #FCFCFC",
"% 	c #FBFBFB",
"& 	c #FAFAFA",
"* 	c #F8F8F8",
"= 	c #F7F7F7",
"- 	c #F6F6F6",
"; 	c #F5F5F5",
"> 	c #F4F4F4",
", 	c #F2F2F2",
"' 	c #F1F1F1",
") 	c #F0F0F0",
"! 	c #EFEFEF",
"~ 	c #EEEEEE",
"{ 	c #ECECEC",
"] 	c #EBEBEB",
"^ 	c #EAEAEA",
"/ 	c #E9E9E9",
"( 	c #E8E8E8",
"_ 	c #E6E6E6",
": 	c #E4E4E4",
"< 	c #E3E3E3",
"[ 	c #E1E1E1",
"} 	c #E0E0E0",
"| 	c #DFDFDF",
"1 	c #DEDEDE",
"2 	c #DDDDDD",
"3 	c #DBDBDB",
"4 	c #DADADA",
"5 	c #D9D9D9",
"6 	c #D8D8D8",
"7 	c #D7D7D7",
"8 	c #D5D5D5",
"9 	c #D4D4D4",
"0 	c #F9F9F9",
"a 	c #E2E2E2",
"b 	c #D3D3D3",
"c 	c #F3F3F3",
"d 	c #DCDCDC",
"e 	c #D2D2D2",
"f 	c #D6D6D6",
"g 	c #D1D1D1",
"h 	c #FEFEFE",
"i 	c #B2B2B2",
"j 	c #CCCCCC",
"k 	c #D0D0D0",
"l 	c #353535",
"m 	c #696969",
"n 	c #B0B0B0",
"o 	c #CECECE",
"p 	c #434343",
"q 	c #A0A0A0",
"r 	c #CFCFCF",
"s 	c #CDCDCD",
"t 	c #3D3D3D",
"u 	c #9D9D9D",
"v 	c #3C3C3C",
"w 	c #9C9C9C",
"x 	c #CBCBCB",
"y 	c #9B9B9B",
"z 	c #CACACA",
"A 	c #3B3B3B",
"B 	c #C9C9C9",
"C 	c #9A9A9A",
"D 	c #C8C8C8",
"E 	c #E7E7E7",
"F 	c #999999",
"G 	c #C6C6C6",
"H 	c #C7C7C7",
"I 	c #C5C5C5",
"J 	c #3A3A3A",
"K 	c #979797",
"L 	c #C4C4C4",
"M 	c #EDEDED",
"N 	c #969696",
"O 	c #C3C3C3",
"P 	c #393939",
"Q 	c #C2C2C2",
"R 	c #959595",
"S 	c #C1C1C1",
"T 	c #353522",
"U 	c #38381F",
"V 	c #54543B",
"W 	c #232212",
"X 	c #322F1B",
"Y 	c #545343",
"Z 	c #C0C0C0",
"` 	c #C6C4AA",
" .	c #E4E29C",
"..	c #1D1C0E",
"+.	c #494728",
"@.	c #CFCC74",
"#.	c #5B5934",
"$.	c #18170B",
"%.	c #17170C",
"&.	c #3B3A20",
"*.	c #BEBEBE",
"=.	c #C8C7BD",
"-.	c #F0EEAF",
";.	c #F8F5C9",
">.	c #7A7849",
",.	c #BFBC64",
"'.	c #F0EDAB",
").	c #F1EDAE",
"!.	c #2F2E18",
"~.	c #15140A",
"{.	c #5E5D4C",
"].	c #525246",
"^.	c #919188",
"/.	c #BFBFBF",
"(.	c #BDBDBD",
"_.	c #393830",
":.	c #7B7962",
"<.	c #CDCA74",
"[.	c #F5F2B8",
"}.	c #F0EDAD",
"|.	c #EDE8A2",
"1.	c #E8E397",
"2.	c #DFDA8A",
"3.	c #35341C",
"4.	c #36361D",
"5.	c #252514",
"6.	c #16160B",
"7.	c #13130A",
"8.	c #44442E",
"9.	c #BCBCBC",
"0.	c #C0BC7D",
"a.	c #F6F4BF",
"b.	c #EEECA7",
"c.	c #E9E59C",
"d.	c #E3DF92",
"e.	c #D8D583",
"f.	c #C8C56D",
"g.	c #D7D682",
"h.	c #727045",
"i.	c #2D2B1A",
"j.	c #A3A3A1",
"k.	c #BBBBBB",
"l.	c #E4DF95",
"m.	c #F0EBA7",
"n.	c #EAE7A1",
"o.	c #E6E195",
"p.	c #E0DB8D",
"q.	c #D3D07C",
"r.	c #D2CC75",
"s.	c #D0CB73",
"t.	c #C7C26C",
"u.	c #BEB965",
"v.	c #B9B45D",
"w.	c #434124",
"x.	c #19180C",
"y.	c #65655A",
"z.	c #BABABA",
"A.	c #C6C6C4",
"B.	c #C5BF68",
"C.	c #DDD888",
"D.	c #C5C168",
"E.	c #404023",
"F.	c #BDB860",
"G.	c #BAB561",
"H.	c #B6AE57",
"I.	c #938E4D",
"J.	c #292916",
"K.	c #7D7D7B",
"L.	c #B9B9B9",
"M.	c #C3C3B3",
"N.	c #DFDC8C",
"O.	c #D9D482",
"P.	c #D4CE79",
"Q.	c #938F4E",
"R.	c #3E3C21",
"S.	c #A29F51",
"T.	c #B0AB55",
"U.	c #A19E50",
"V.	c #7F7D4A",
"W.	c #3E3D21",
"X.	c #B8B8B8",
"Y.	c #EAE9A6",
"Z.	c #D7D47C",
"`.	c #C9C56E",
" +	c #A49F51",
".+	c #585733",
"++	c #31301A",
"@+	c #68653D",
"#+	c #ACA953",
"$+	c #8C8B4D",
"%+	c #82804B",
"&+	c #565631",
"*+	c #31311A",
"=+	c #403D21",
"-+	c #63633A",
";+	c #B6B6B6",
">+	c #686532",
",+	c #CBC670",
"'+	c #C4BE67",
")+	c #BDB560",
"!+	c #9E994F",
"~+	c #1A1A0D",
"{+	c #86844B",
"]+	c #99954E",
"^+	c #797848",
"/+	c #717044",
"(+	c #69693E",
"_+	c #51512E",
":+	c #575632",
"<+	c #7D7D73",
"[+	c #B7B7B7",
"}+	c #B5B5B5",
"|+	c #A2A2A2",
"1+	c #111111",
"2+	c #090909",
"3+	c #080808",
"4+	c #14140E",
"5+	c #434127",
"6+	c #48472A",
"7+	c #B3AD56",
"8+	c #A4A151",
"9+	c #ADAA54",
"0+	c #B5B25A",
"a+	c #747245",
"b+	c #6B6940",
"c+	c #65633A",
"d+	c #514F2E",
"e+	c #383527",
"f+	c #B4B4B4",
"g+	c #383838",
"h+	c #595840",
"i+	c #98954F",
"j+	c #8D8A4E",
"k+	c #84824B",
"l+	c #787849",
"m+	c #6F6E42",
"n+	c #67653C",
"o+	c #5F5D36",
"p+	c #1F1F10",
"q+	c #5B5A49",
"r+	c #B3B3B3",
"s+	c #AEAEAE",
"t+	c #9E9E9E",
"u+	c #949494",
"v+	c #939393",
"w+	c #929292",
"x+	c #7B7B63",
"y+	c #757446",
"z+	c #767547",
"A+	c #6A693F",
"B+	c #636138",
"C+	c #595732",
"D+	c #514E2E",
"E+	c #454326",
"F+	c #272714",
"G+	c #605F4D",
"H+	c #7B7B67",
"I+	c #626158",
"J+	c #676753",
"K+	c #585833",
"L+	c #54522F",
"M+	c #35351C",
"N+	c #2C2B17",
"O+	c #383A1F",
"P+	c #6E6D57",
"Q+	c #B1B1B1",
"R+	c #9D9D9A",
"S+	c #444125",
"T+	c #403F23",
"U+	c #3F3D2B",
"V+	c #56564B",
"W+	c #959593",
"X+	c #AFAFAF",
". . . . . . . . . . . . . . . . . . . . . . . . . . . . . . . . . . . . . . . . . . . . . . . . ",
". . . . . . . . . . . . . . . . . . . . . . . . . . . . . . . . . . . . . . . . . . . . . . . . ",
". . . . + + . . . . . . . . . . . . . . . . . . . . . . . . . . . . . . . . . . . . . . . . . . ",
". . . + + + . . . . . . . . . . . . . . . . . . . . . . . . . . . . . . . . . . . . . . . . . . ",
". . + + + + . . . . . . . . . . . . . . . . . . . . . . . . . . . . . . . . . . . . . . . . . . ",
". . + + + + . . . . . . . . . . . . . . . . . . . . . . . . . . . . . . . . . . . . . . . . . . ",
". . . . . . + + + + . . . . . . . . . . . . . . . . . . . . . . . . . . . . . . . . . . . . . . ",
". . . . . . + + + + . . . . . . . . . . . . . . . . . . . . . . . . . . . . . . . . . . . . . . ",
". . . . . . + + + . . . . . . . . . . . . . . . . . . . . . . . . . . . . . . . . . . . . . . . ",
". . . . . . + + . . . . . . . . . . . . . . . . . . . . . . . . . . . . . . . . . . . . . . . . ",
". . . . . . . . . . . . . . . . . . . . . . . . . . . . . . . . . . . . . . . . . . . . . . . . ",
". . . . . . . . . . . . . . . . . . . . . . . . . . . . . . . . . . . . . . . . . . . . . . . . ",
". . . . . . . . . . . . . . . . . . . . . . . . . . . . . . . . . . . . . . . . . . . . . . . . ",
". @ @ @ @ @ @ @ @ @ @ @ # $ % & * = - ; > , ' ) ! ~ { ] ^ / ( _ + : < [ } | 1 2 3 4 5 6 7 8 9 . ",
". @ @ @ @ @ @ @ @ @ @ # $ % & 0 = - ; > , ' ) ! ~ { ] ^ / ( _ + : < a } | 1 2 3 4 5 6 7 8 9 b . ",
". @ @ @ @ @ @ @ @ @ # $ % & 0 = - ; > c ' ) ! ~ { ] ^ / ( _ + : < a } | 1 2 d 4 5 6 7 8 9 b e . ",
". @ @ @ @ @ @ @ @ # $ % & 0 = - . . . . . . . . . . . . . . . . . . 5 d 2 d 4 5 6 7 f 9 b e g . ",
". @ @ @ @ @ @ @ h $ % & 0 * - . . @ @ @ @ @ @ @ @ @ @ @ @ @ @ @ @ . i j 4 4 5 6 7 f 9 b e g k . ",
". @ @ @ @ @ @ h $ % & 0 * - . @ . @ l @ @ @ l @ @ l @ l @ @ l @ @ . m n 9 5 6 7 f 9 b e g k o . ",
". @ @ @ @ @ h $ % & 0 * - . . . . l @ l @ l @ l @ l @ l @ l @ l @ . p q g 6 7 f 8 b e g k r s . ",
". @ @ @ @ h # % & 0 * = c . @ l @ l @ l @ l @ l @ l @ l @ l @ l @ . t u k 7 f 8 b e g k r s j . ",
". @ @ @ h # % & 0 * = ; ~ . @ l @ @ l @ @ @ l @ @ l @ l @ @ l @ @ . v w r f 8 b e g k r s j x . ",
". @ @ h # % & 0 * = ; > ] . @ @ @ @ @ @ @ @ @ @ @ @ @ @ @ @ @ @ @ . v y o 8 9 e g k r o j x z . ",
". @ h # $ & 0 * = - > c / . @ @ l @ @ l @ l @ @ l @ @ @ l @ @ l @ . A y s 9 e g k r o j x z B . ",
". h # $ & 0 * = - > c , ( . @ l @ l @ l @ l @ l @ l @ l @ l @ l @ . A C j e g k r o j x z B D . ",
". # $ & 0 * = - > c , ' E . @ l @ l @ l @ l @ l @ l @ l @ l @ l @ . A F x g k r o s x z B D G . ",
". $ % 0 * = - ; c , ' ) + . @ @ l @ @ l @ l @ @ l @ @ @ l @ @ l @ . A F B k r o s x z B D H I . ",
". % 0 * = - ; c , ' ) ! : . @ @ @ @ @ @ @ @ @ @ @ @ @ @ @ @ @ @ @ . J K D r o s x z B D H I L . ",
". 0 * = - ; c , ' ) ! M < . @ @ l @ @ @ l @ @ l @ l @ l @ @ l @ @ . J N H o s j z B D H I L O . ",
". * = - ; > , ' ) ! M { a . @ l @ l @ l @ l @ l @ l @ l @ l @ l @ . P N G s j z B D H G L O Q . ",
". = - ; > , ' ) ! ~ { ] [ . @ l @ l @ l @ l @ l @ l @ l @ l @ l @ . P R I j z B D H G L O Q S . ",
". - ; > , ' ) ! ~ { ] ^ } . @ @ l @ @ @ l @ @ l @ l @ l $ 1 T U V W X Y L x B D H G L O Q S Z . ",
". ; > c ' ) ! ~ { ] ^ / | . @ @ @ @ @ @ @ @ @ @ @ @ $ `  ...+.@.#.$.%.&.Z B D H G I O Q S Z *.. ",
". > c ' ) ! ~ M ] ^ / ( 2 . @ l @ l @ @ l @ @ @ l @ =.-.;.>.,.'.).!.~.~.{.].^.G I O Q S Z /.(.. ",
". c ' ) ! ~ M ] ^ / ( E d . @ l @ l @ l @ l @ l @ _.:.<.[.}.|.1.2.3.4.5.6.7.8./.O Q S Z /.(.9.. ",
". , ) ! ~ M ] ^ / ( E + 3 . @ l @ l @ l @ l @ l @ 0.a.[.b.c.d.2.e.f.g.h.~.~.i.j.Q S Z /.(.9.k.. ",
". ) ! ~ M { ^ / ( E + : 4 . @ l @ l @ @ l @ @ @ l l.m.n.o.p.q.r.s.t.u.v.w.x.y.Q S Z /.*.9.k.z.. ",
". ! ~ M { ^ / ( E _ : < 4 . @ @ @ @ @ @ @ @ @ @ @ A.B.d.C.D.E.w.F.G.H.I.J.7.!.K.Z /.*.9.k.z.L.. ",
". ~ M { ^ / ( E _ : < a 5 . @ @ @ @ @ @ @ @ @ @ @ M.N.O.P.Q.R.J.S.T.U.V.7.7.~.W./.*.9.k.z.L.X.. ",
". M { ] / ( E _ : < a [ 6 . @ @ @ @ @ @ @ @ @ @ @ Y.Z.s.`. +.+++@+#+$+%+&+*+=+-+*.(.k.z.L.X.;+. ",
". { ] / ( E _ + < a [ } f . . . . . . . . . . . . >+,+'+)+H.!+~+{+]+^+/+(+_+:+<+(.k.z.L.X.[+}+. ",
". ] / ( E _ + < a [ } | f |+p 1+2+3+3+3+3+3+3+3+3+4+5+6+7+8+9+f.0+a+b+c+d+3.e+(.k.z.L.X.[+}+f+. ",
". ^ ( E _ + < a [ } | 2 f n m p v A A A J J P P P g+g+h+i+j+k+l+m+n+o+_+p+~.q+9.z.L.X.[+}+f+r+. ",
". ( E _ + : a [ } | 2 d 5 B s+t+w C F F K N N R u+v+w+x+y+z+/+A+B+C+D+E+F+G+X.z.L.X.[+;+f+r+i . ",
". E _ + : a [ } | 1 d 3 4 7 e r o j x B D H G I O Q S (.H+I+J+K+L+M+N+O+P+L.z.L.X.[+;+f+r+i Q+. ",
". _ + : a [ } | 1 d 3 4 5 6 f 8 9 b e k r o s x z B D H I L R+S+T+U+V+W+k.k.L.X.[+;+f+r+i Q+n . ",
". + : < [ } | 1 d 3 4 5 6 f 8 9 b e k r o s j z B D H I L O Q S /.*.(.9.k.L.X.[+;+}+r+i Q+n X+. ",
". . . . . . . . . . . . . . . . . . . . . . . . . . . . . . . . . . . . . . . . . . . . . . . . "};
