/* XPM */
static char * file_dot_avi_xpm[] = {
"48 48 344 2",
"  	c None",
". 	c #000000",
"+ 	c #555555",
"@ 	c #FFFFFF",
"# 	c #E5E5E5",
"$ 	c #1C1C1C",
"% 	c #AAAAAA",
"& 	c #717171",
"* 	c #E2E2E2",
"= 	c #C6C6C6",
"- 	c #383838",
"; 	c #8D8D8D",
"> 	c #FDFDFD",
", 	c #FCFCFC",
"' 	c #FBFBFB",
") 	c #FAFAFA",
"! 	c #F8F8F8",
"~ 	c #F7F7F7",
"{ 	c #F6F6F6",
"] 	c #F5F5F5",
"^ 	c #F4F4F4",
"/ 	c #F2F2F2",
"( 	c #F1F1F1",
"_ 	c #F0F0F0",
": 	c #EFEFEF",
"< 	c #EEEEEE",
"[ 	c #ECECEC",
"} 	c #EBEBEB",
"| 	c #EAEAEA",
"1 	c #E9E9E9",
"2 	c #E8E8E8",
"3 	c #E6E6E6",
"4 	c #E4E4E4",
"5 	c #E3E3E3",
"6 	c #E1E1E1",
"7 	c #E0E0E0",
"8 	c #DFDFDF",
"9 	c #DEDEDE",
"0 	c #DDDDDD",
"a 	c #DBDBDB",
"b 	c #DADADA",
"c 	c #D9D9D9",
"d 	c #D8D8D8",
"e 	c #D7D7D7",
"f 	c #D5D5D5",
"g 	c #D4D4D4",
"h 	c #F9F9F9",
"i 	c #D3D3D3",
"j 	c #F3F3F3",
"k 	c #DCDCDC",
"l 	c #D2D2D2",
"m 	c #EDEDED",
"n 	c #E7E7E7",
"o 	c #D6D6D6",
"p 	c #D1D1D1",
"q 	c #FEFEFE",
"r 	c #D0D0D0",
"s 	c #6B6B6B",
"t 	c #B4B4B4",
"u 	c #686868",
"v 	c #666666",
"w 	c #656565",
"x 	c #646464",
"y 	c #636363",
"z 	c #626262",
"A 	c #616161",
"B 	c #606060",
"C 	c #5F5F5F",
"D 	c #5E5E5E",
"E 	c #5D5D5D",
"F 	c #5C5C5C",
"G 	c #5B5B5B",
"H 	c #848484",
"I 	c #CFCFCF",
"J 	c #595959",
"K 	c #A3A3A3",
"L 	c #CECECE",
"M 	c #525252",
"N 	c #6E6E6E",
"O 	c #727272",
"P 	c #3B3B3B",
"Q 	c #1D1D1D",
"R 	c #5A5A5A",
"S 	c #757575",
"T 	c #C3C3C3",
"U 	c #CBCBCB",
"V 	c #CDCDCD",
"W 	c #404040",
"X 	c #575757",
"Y 	c #454545",
"Z 	c #341B1B",
"` 	c #704343",
" .	c #482727",
"..	c #121212",
"+.	c #414141",
"@.	c #505050",
"#.	c #535353",
"$.	c #0B0B0B",
"%.	c #565656",
"&.	c #A2A2A2",
"*.	c #C1C1C1",
"=.	c #CCCCCC",
"-.	c #787878",
";.	c #929292",
">.	c #683D3D",
",.	c #E39292",
"'.	c #E29191",
").	c #E49393",
"!.	c #D98282",
"~.	c #B05757",
"{.	c #8D4E4E",
"].	c #995050",
"^.	c #0F0F0F",
"/.	c #4C4C4C",
"(.	c #737373",
"_.	c #808080",
":.	c #101010",
"<.	c #393939",
"[.	c #858585",
"}.	c #B7B7B7",
"|.	c #C9C9C9",
"1.	c #8F8F8F",
"2.	c #C66969",
"3.	c #673C3C",
"4.	c #975050",
"5.	c #D67D7D",
"6.	c #A85353",
"7.	c #BA5D5D",
"8.	c #E49595",
"9.	c #AC5353",
"0.	c #693E3E",
"a.	c #060606",
"b.	c #3D3D3D",
"c.	c #7F7F7F",
"d.	c #343434",
"e.	c #7C7C7C",
"f.	c #B3B3B3",
"g.	c #C8C8C8",
"h.	c #CACACA",
"i.	c #161616",
"j.	c #222222",
"k.	c #2E2E2E",
"l.	c #212121",
"m.	c #824B4B",
"n.	c #924F4F",
"o.	c #F7CACA",
"p.	c #F8D1D1",
"q.	c #CA7171",
"r.	c #DA8383",
"s.	c #FCF5F5",
"t.	c #A55252",
"u.	c #010101",
"v.	c #131313",
"w.	c #232323",
"x.	c #292929",
"y.	c #050505",
"z.	c #3C3C3C",
"A.	c #7E7E7E",
"B.	c #B2B2B2",
"C.	c #C7C7C7",
"D.	c #3E3E3E",
"E.	c #7A4949",
"F.	c #AE5555",
"G.	c #FDFCFC",
"H.	c #F7C4C4",
"I.	c #F0ADAD",
"J.	c #804B4B",
"K.	c #030303",
"L.	c #4B4B4B",
"M.	c #090909",
"N.	c #B1B1B1",
"O.	c #777777",
"P.	c #673D3D",
"Q.	c #B45959",
"R.	c #9E5151",
"S.	c #FCE9E9",
"T.	c #F2B3B3",
"U.	c #EBA2A2",
"V.	c #B15858",
"W.	c #F5C2C2",
"X.	c #040404",
"Y.	c #313131",
"Z.	c #6A6A6A",
"`.	c #0D0D0D",
" +	c #2F2F2F",
".+	c #AFAFAF",
"++	c #C5C5C5",
"@+	c #818181",
"#+	c #E18E8E",
"$+	c #6D4040",
"%+	c #F7C8C8",
"&+	c #9B5050",
"*+	c #462727",
"=+	c #5F3636",
"-+	c #E89B9B",
";+	c #BA5F5F",
">+	c #F5C0C0",
",+	c #FCF3F3",
"'+	c #734646",
")+	c #363636",
"!+	c #0E0E0E",
"~+	c #303030",
"{+	c #C4C4C4",
"]+	c #141414",
"^+	c #202020",
"/+	c #2B2B2B",
"(+	c #1F1F1F",
"_+	c #B85D5D",
":+	c #371E1E",
"<+	c #040101",
"[+	c #190C0C",
"}+	c #F3BCBC",
"|+	c #272727",
"1+	c #3A3A3A",
"2+	c #7B7B7B",
"3+	c #AEAEAE",
"4+	c #C2C2C2",
"5+	c #784949",
"6+	c #EDA4A4",
"7+	c #3F2222",
"8+	c #563131",
"9+	c #442525",
"0+	c #CD7474",
"a+	c #FAE5E5",
"b+	c #4A4A4A",
"c+	c #797979",
"d+	c #ADADAD",
"e+	c #494949",
"f+	c #BD6262",
"g+	c #3B2020",
"h+	c #0C0C0C",
"i+	c #2D2D2D",
"j+	c #767676",
"k+	c #ABABAB",
"l+	c #C0C0C0",
"m+	c #573232",
"n+	c #6F4242",
"o+	c #3D2020",
"p+	c #2F1818",
"q+	c #1D0E0E",
"r+	c #5C3535",
"s+	c #353535",
"t+	c #707070",
"u+	c #BFBFBF",
"v+	c #754646",
"w+	c #FCF9F9",
"x+	c #FCEDED",
"y+	c #D17878",
"z+	c #633A3A",
"A+	c #714444",
"B+	c #111111",
"C+	c #252525",
"D+	c #BEBEBE",
"E+	c #7D4A4A",
"F+	c #FAD5D5",
"G+	c #E08D8D",
"H+	c #100707",
"I+	c #4F2C2C",
"J+	c #764747",
"K+	c #F0AFAF",
"L+	c #3F3F3F",
"M+	c #A9A9A9",
"N+	c #BDBDBD",
"O+	c #484848",
"P+	c #585858",
"Q+	c #C97070",
"R+	c #FAE1E1",
"S+	c #010000",
"T+	c #2B1616",
"U+	c #060303",
"V+	c #9F5252",
"W+	c #BB6060",
"X+	c #A7A7A7",
"Y+	c #BCBCBC",
"Z+	c #7D7D7D",
"`+	c #6A3F3F",
" @	c #EFAAAA",
".@	c #522F2F",
"+@	c #110808",
"@@	c #201111",
"#@	c #F5BEBE",
"$@	c #BABABA",
"%@	c #C96E6E",
"&@	c #FCF7F7",
"*@	c #D88181",
"=@	c #6B4040",
"-@	c #A6A6A6",
";@	c #B9B9B9",
">@	c #BBBBBB",
",@	c #181818",
"'@	c #242424",
")@	c #7E4B4B",
"!@	c #724545",
"~@	c #2A2A2A",
"{@	c #747474",
"]@	c #A5A5A5",
"^@	c #B8B8B8",
"/@	c #444444",
"(@	c #4F4F4F",
"_@	c #B55A5A",
":@	c #F8CFCF",
"<@	c #ECA3A3",
"[@	c #6F6F6F",
"}@	c #515151",
"|@	c #DA8585",
"1@	c #A15252",
"2@	c #B6B6B6",
"3@	c #333333",
"4@	c #D78080",
"5@	c #C36868",
"6@	c #020202",
"7@	c #070707",
"8@	c #B5B5B5",
"9@	c #191919",
"0@	c #262626",
"a@	c #402323",
"b@	c #281515",
"c@	c #151515",
"d@	c #A1A1A1",
"e@	c #474747",
"f@	c #676767",
"g@	c #A0A0A0",
"h@	c #8E8E8E",
"i@	c #696969",
"j@	c #1A1A1A",
"k@	c #434343",
"l@	c #9F9F9F",
"m@	c #828282",
"n@	c #8B8B8B",
"o@	c #A8A8A8",
"p@	c #323232",
"q@	c #838383",
"r@	c #919191",
"s@	c #9D9D9D",
"t@	c #909090",
"u@	c #8C8C8C",
"v@	c #8A8A8A",
"w@	c #888888",
"x@	c #878787",
"y@	c #868686",
"z@	c #949494",
"A@	c #B0B0B0",
"B@	c #979797",
"C@	c #9C9C9C",
". . . . . . . . . . . . . . . . . . . . . . . . . . . . . . . . . . . . . . . . . . . . . . . . ",
". . . . . . . . . . . . . . . . . . . . . . . . . . . . . . . . . . . . . . . . . . . . + @ + . ",
". . . . # . # . . . . . . . . . . . . . . . . . . . . . . . . . . . . . . . . . . . . . $ + $ . ",
". . # . . . . . # . . . . . . . . . . . . . . . . . . . . . . . % % % . . % & . . & % . + @ + . ",
". . . . # # # . . . . . . . . . . . . . . . . . . . . . . . . * @ % * = . = * - . * = . + @ + . ",
". . . # . . . # . . . . . . . . . . . . . . . . . . . . . . - % & $ ; @ . + @ & $ @ + . + @ + . ",
". . # . . # . . # . . . . . . . . . . . . . . . . . . . . . . ; @ * = @ . . @ % + @ . . + @ + . ",
". . . # . . . # . . . . . . . . . . . . . . . . . . . . . . + @ & . & @ . . % @ % % . . + @ + . ",
". . . . # # # . . . . . . . . . . . . . . . . . . . . - % & + @ ; + * @ . . & @ * & . . + @ + . ",
". . # . . . . . # . . . . . . . . . . . . . . . . . . + @ % $ * @ * % @ . . $ = @ $ . . + @ + . ",
". . . . # . # . . . . . . . . . . . . . . . . . . . . . . . . . . . . . . . . . . . . . . . . . ",
". . . . . . . . . . . . . . . . . . . . . . . . . . . . . . . . . . . . . . . . . . . . . . . . ",
". . . . . . . . . . . . . . . . . . . . . . . . . . . . . . . . . . . . . . . . . . . . . . . . ",
". @ @ @ @ @ @ @ @ @ @ @ > , ' ) ! ~ { ] ^ / ( _ : < [ } | 1 2 3 # 4 5 6 7 8 9 0 a b c d e f g . ",
". @ @ @ @ @ @ @ @ @ @ > , ' ) h ~ { ] ^ / ( _ : < [ } | 1 2 3 # 4 5 * 7 8 9 0 a b c d e f g i . ",
". @ @ @ @ @ @ @ @ @ > , ' ) h ~ { ] ^ j ( _ : < [ } | 1 2 3 # 4 5 * 7 8 9 0 k b c d e f g i l . ",
". @ @ @ @ @ @ @ @ > , ' ) h ~ { ] ^ j ( _ : < m } | 1 2 n # 4 5 * 7 8 9 0 k b c d e o g i l p . ",
". @ @ @ @ @ @ @ q , ' ) h ! { ] ^ j ( _ : < m } | 1 2 n # 4 5 * 6 8 9 0 k b c d e o g i l p r . ",
". @ @ @ @ @ @ s d ) ) t u v v w x x y y z z A B B B C D D D E E F G G G G H o e I J K r p r L . ",
". @ @ @ @ @ > . M N O P . . . . . . . . . . . . . . . . . . . . . . . . . Q R B F . S T U I V . ",
". @ @ @ @ q h . W X A Y Z ` ` ` ` ` ` ` ` ` ` ` ` ` ` ` ` ` ` ` ` ` ` `  ...+.@.#.$.%.&.*.U =.. ",
". @ @ @ q > j . D -.;.v >.,.'.).).).).).).,.!.~.{.{.~.!.,.).).).).).).).].^./.(._.:.<.[.}.|.U . ",
". @ @ q > ' ( . M N 1.w >.,.'.).).).).).2.3.4.5.6.7.8.9.0.2.).).).).).).].a.b.N c.^.d.e.f.g.h.. ",
". @ q > , ) _ . i.j.k.l.>.).'.).).).,.m.n.o.p.p.q.r.q q s.t.m.,.).).).).].u.v.w.x.y.z.A.B.C.|.. ",
". q > , ) h : . x.D.#.P >.,.'.).).,.E.F.p.p.p.p.q.r.q G.H.I.J.E.,.).).).].K.j.W L.M.<.e.N.= g.. ",
". > , ) h ! < . L.F O.+ P.,.'.).).Q.R.p.p.p.p.p.q.r.S.T.U.V.W.V.Q.).).).].X.Y.G Z.`. +-..+++= . ",
". , ' h ! ~ m . /.y @+E >.,.'.).#+$+%+p.p.p.T.&+*+=+-+S.;+>+q ,+'+#+).).].y.)+y (.!+~+-..+{+++. ",
". ' h ! ~ { [ . ]+^+/+(+>.).'.)._+q.p.p.p.o.:+. <+. [+Q.}+q q q r._+).).].u...l.|+y.1+2+3+4+{+. ",
". h ! ~ { ] | . x.D.#.z.>.,.'.).5+}+p.p.p.6+7+8+;+9+` 0+q q q q a+E.).).].K.j.W b+M.- c+d+*.T . ",
". ! ~ { ] ^ 1 . e+R S #.P.'.'.).$+p.p.p.p.p.p.p.f+5+g+T.q q q q q ` ).).].X.~+J u h+i+j+k+l+4+. ",
". ~ { ] ^ / 2 . L.z A.G >.,.'.).m+n+n+n+n+n+n+n+o+p+q+r+n+n+n+n+n+m+).).].y.s+B t+!+ +S k+u+*.. ",
". { ] ^ / ( n . v.(+x.Q >.,.'.).v+q q q q w+S.x+y+ .. z+p.p.p.p.p.A+).).].u.B+^+C+X.<.-.% D+l+. ",
". ] ^ j ( _ 3 . x.D.M z.>.,.'.).E+F+q q q G+H+I+!.J+.  .p.p.p.p.K+E+).).].K.j.L+e+M.)+j+M+N+D+. ",
". ^ j ( _ : # . O+P+O M P.'.'.).2.Q+q q q R+[+S+T+U+. V+p.p.p.p.W+2.).).].X. +X w h+i+(.X+Y+N+. ",
". j ( _ : < 4 . e+C Z+R >.,.'.).,.`+S.q q @  @.@+@@@4.%+p.p.p.#@3.,.).).].X.d.C N `. +(.X+$@Y+. ",
". / _ : < m * . ..Q |+$ >.,.'.).).%@v+&@q @ @ G.*@Q+p.p.p.p.o.=@%@).).).].u.:.Q j.X.- S -@;@>@. ",
". _ : < m [ 6 . ,@'@~+w.>.).'.).).).9.)@&@@ @ q r.q.p.p.p.o.!@9.).).).).].u.]+'@~@y.s+{@]@^@$@. ",
". : < m [ | 7 . /@(@w O+P.,.'.).).).)._@` H.q q r.q.p.:@<@0._@).).).).).].X.x./.P+$.x.[@K }.;@. ",
". < m [ | 1 8 . Y }@u b+>.).'.).).).).).|@E.)@_@m.'+1@J+E.|@).).).).).).].X./+(@G $.x.N &.2@^@. ",
". m [ } 1 2 9 . l.3@Y Y.>.,.'.).).).).).).).,.4@5@5@4@,.).).).).).).).).].6@$ d.z.7@d.& &.8@2@. ",
". [ } 1 2 n 0 . 9@0@3@'@q+a@7+a@a@a@a@a@a@a@a@a@a@a@a@a@a@a@a@a@a@a@a@a@b@6@c@|+i+y.s+& d@t 8@. ",
". } 1 2 n 3 k . e@R S + . . . . . . . . . . . . . . . . . . . . . . . . . X.~+J f@h+/+N g@B.t . ",
". | 2 n 3 # b h@R P+& i@W j@M.y.y.y.y.y.y.y.y.y.y.y.y.y.y.y.y.y.y.y.y.y.y.:.Y.%.y O+k@[@l@N.f.. ",
". 2 n 3 # 4 a 8@m@n@o@]@@+@.- d.d.3@3@p@Y.Y.Y.Y.Y.~+~+~+ + + +k.k.k.i+i+k.1+F q@r@c.Z._.K N.B.. ",
". n 3 # 4 * 9 V }.*.I L ;@s@t@u@n@v@v@w@w@x@y@y@H H q@m@m@@+_.c.c.A.Z+e.Z+m@z@M+A@-@B@C@k+N.N.. ",
". 3 # 4 * 6 7 a o o b d i =.= ++{+T 4+l+u+D+N+>@$@$@;@^@2@8@t f.B.A@.+3+3+.+N.8@2@f.3+3+A@N.A@. ",
". # 4 5 6 7 8 9 k a b c d o f g l p I L V =.U |.g.C.= {+T 4+*.l+D+N+Y+>@$@;@^@}.2@8@f.B.N.A@.+. ",
". . . . . . . . . . . . . . . . . . . . . . . . . . . . . . . . . . . . . . . . . . . . . . . . "};
