/* XPM */
static char * file_dot_sh_xpm[] = {
"48 48 486 2",
"  	c None",
" .	c #000000",
" +	c #FFFFFF",
" @	c #AAAAAA",
" #	c #E5E5E5",
" $	c #383838",
" %	c #E2E2E2",
" &	c #C6C6C6",
" *	c #1C1C1C",
" =	c #555555",
" -	c #8D8D8D",
" ;	c #717171",
" >	c #FDFDFD",
" ,	c #FCFCFC",
" '	c #FBFBFB",
" )	c #FAFAFA",
" !	c #F8F8F8",
" ~	c #F7F7F7",
" {	c #F6F6F6",
" ]	c #F5F5F5",
" ^	c #F4F4F4",
" /	c #F2F2F2",
" (	c #F1F1F1",
" _	c #F0F0F0",
" :	c #EFEFEF",
" <	c #EEEEEE",
" [	c #ECECEC",
" }	c #EBEBEB",
" |	c #EAEAEA",
" 1	c #E9E9E9",
" 2	c #E8E8E8",
" 3	c #E6E6E6",
" 4	c #E4E4E4",
" 5	c #E3E3E3",
" 6	c #E1E1E1",
" 7	c #E0E0E0",
" 8	c #DFDFDF",
" 9	c #DEDEDE",
" 0	c #DDDDDD",
" a	c #DBDBDB",
" b	c #DADADA",
" c	c #D9D9D9",
" d	c #D8D8D8",
" e	c #D7D7D7",
" f	c #D5D5D5",
" g	c #D4D4D4",
" h	c #F9F9F9",
" i	c #D3D3D3",
" j	c #F3F3F3",
" k	c #DCDCDC",
" l	c #D2D2D2",
" m	c #D6D6D6",
" n	c #D1D1D1",
" o	c #FEFEFE",
" p	c #B2B2B2",
" q	c #CCCCCC",
" r	c #D0D0D0",
" s	c #696969",
" t	c #B0B0B0",
" u	c #CECECE",
" v	c #434343",
" w	c #A0A0A0",
" x	c #CFCFCF",
" y	c #CDCDCD",
" z	c #3D3D3D",
" A	c #9D9D9D",
" B	c #757575",
" C	c #3C3C3C",
" D	c #9C9C9C",
" E	c #CBCBCB",
" F	c #9B9B9B",
" G	c #CACACA",
" H	c #727272",
" I	c #737373",
" J	c #747474",
" K	c #3B3B3B",
" L	c #C9C9C9",
" M	c #DED3B2",
" N	c #CAC7B6",
" O	c #AFAEAB",
" P	c #ADADAD",
" Q	c #9A9A9A",
" R	c #C8C8C8",
" S	c #BCBBB9",
" T	c #D6BE8A",
" U	c #E1D5B0",
" V	c #E4E5C5",
" W	c #CDC9AC",
" X	c #797669",
" Y	c #B6B3A1",
" Z	c #C3C0A3",
" `	c #B4B18C",
". 	c #B4AF92",
"..	c #B5B08F",
".+	c #B4B091",
".@	c #C8C0A2",
".#	c #B4A87D",
".$	c #C7B788",
".%	c #A0977A",
".&	c #787670",
".*	c #999999",
".=	c #A2A2A2",
".-	c #D6C48B",
".;	c #D9CCA6",
".>	c #E0E1DC",
".,	c #E6E7DA",
".'	c #E3E6C8",
".)	c #E7E7C4",
".!	c #E4E8D1",
".~	c #E4E9DC",
".{	c #E8E6D0",
".]	c #E9E2C4",
".^	c #ECD795",
"./	c #E9BD50",
".(	c #EEBE4C",
"._	c #EEB641",
".:	c #EDB83C",
".<	c #C1B38B",
".[	c #B7B7B7",
".}	c #C7C7C7",
".|	c #C5C5C5",
".1	c #ACAA9B",
".2	c #DED8BE",
".3	c #D7C5A5",
".4	c #DDDCD3",
".5	c #DFE7E8",
".6	c #E0ECF1",
".7	c #E2ECEF",
".8	c #E0E8EA",
".9	c #E1E8E4",
".0	c #E8E8D8",
".a	c #EBDAA8",
".b	c #EBD38F",
".c	c #EED593",
".d	c #EECB70",
".e	c #EDB945",
".f	c #F1C442",
".g	c #D3BE77",
".h	c #71706D",
".i	c #676767",
".j	c #3A3A3A",
".k	c #979797",
".l	c #C4C4C4",
".m	c #A9A9A7",
".n	c #E2E6D4",
".o	c #D8D1BE",
".p	c #D1B993",
".q	c #D7C9A8",
".r	c #DDDFDB",
".s	c #E0E5E5",
".t	c #DFE7EA",
".u	c #DFE6E6",
".v	c #E0E6E1",
".w	c #E7E2CA",
".x	c #E7C46D",
".y	c #ECD58F",
".z	c #EFD792",
".A	c #F0CF78",
".B	c #EFCA57",
".C	c #F0D061",
".D	c #D5AD56",
".E	c #B9B9B9",
".F	c #EDEDED",
".G	c #969696",
".H	c #C3C3C3",
".I	c #ACABAB",
".J	c #DFD9BA",
".K	c #DBD6C4",
".L	c #D5B693",
".M	c #D19E5D",
".N	c #D1A864",
".O	c #D8D1B8",
".P	c #DBE3DE",
".Q	c #DEE5E2",
".R	c #E1E7E1",
".S	c #E5E3D3",
".T	c #E1B56C",
".U	c #E6AC4C",
".V	c #EFCE67",
".W	c #EDD67B",
".X	c #ECDF9F",
".Y	c #ECD57D",
".Z	c #E89623",
".`	c #AFA291",
"+ 	c #5A5A5A",
"+.	c #393939",
"++	c #C2C2C2",
"+@	c #E7E7E7",
"+#	c #C2BA98",
"+$	c #E0D4C5",
"+%	c #D1BC96",
"+&	c #CC9F5E",
"+*	c #C98D41",
"+=	c #CB9349",
"+-	c #D7CEBC",
"+;	c #DBE1DA",
"+>	c #E1E2DA",
"+,	c #E1DFD7",
"+'	c #E3BF8C",
"+)	c #E8B457",
"+!	c #E4AF45",
"+~	c #EECC70",
"+{	c #EBE0AA",
"+]	c #EEDB98",
"+^	c #E99F33",
"+/	c #CD7D26",
"+(	c #B7AB90",
"+_	c #959595",
"+:	c #C1C1C1",
"+<	c #BBB8A0",
"+[	c #E7D388",
"+}	c #D8C8AD",
"+|	c #D1A267",
"+1	c #CB964C",
"+2	c #CE934C",
"+3	c #CC9957",
"+4	c #D9D5CB",
"+5	c #DEDCD6",
"+6	c #DFDCCE",
"+7	c #E1CFAC",
"+8	c #E4AA46",
"+9	c #E5A642",
"+0	c #E7A82E",
"+a	c #EECE67",
"+b	c #EECB63",
"+c	c #E8A837",
"+d	c #DA8A2C",
"+e	c #E8B13C",
"+f	c #AA9C79",
"+g	c #949494",
"+h	c #C0C0C0",
"+i	c #C2B68E",
"+j	c #E4D190",
"+k	c #D7B58D",
"+l	c #D19F57",
"+m	c #CF9357",
"+n	c #C89050",
"+o	c #D1BCA1",
"+p	c #D9D5D1",
"+q	c #DCD8CA",
"+r	c #DDCEC4",
"+s	c #DF9931",
"+t	c #E49C33",
"+u	c #E9AA3A",
"+v	c #E8A52D",
"+w	c #DE7A22",
"+x	c #D77D21",
"+y	c #DF9F3C",
"+z	c #E8AA38",
"+A	c #E9C867",
"+B	c #AAA59D",
"+C	c #BEBEBE",
"+D	c #C3A953",
"+E	c #E0C98A",
"+F	c #D5B37D",
"+G	c #CE9957",
"+H	c #CC9352",
"+I	c #CCA366",
"+J	c #D8D8D1",
"+K	c #D8D2BA",
"+L	c #DBD0AD",
"+M	c #DA902C",
"+N	c #E39F2F",
"+O	c #E7B43C",
"+P	c #E5A331",
"+Q	c #D16C21",
"+R	c #C77222",
"+S	c #E6AF43",
"+T	c #EBC763",
"+U	c #E5AF45",
"+V	c #D07F2C",
"+W	c #ACA8A1",
"+X	c #343434",
"+Y	c #919191",
"+Z	c #BFBFBF",
"+`	c #BDBDBD",
"@ 	c #2C2B29",
"@.	c #D1AB4F",
"@+	c #DFBD63",
"@@	c #DEBE82",
"@#	c #D19F5E",
"@$	c #C79B53",
"@%	c #D9DCD8",
"@&	c #DCD1A5",
"@*	c #DCCC93",
"@=	c #D58228",
"@-	c #E3A538",
"@;	c #E5B33B",
"@>	c #DA7F1F",
"@,	c #C5661F",
"@'	c #D18C30",
"@)	c #E6A83B",
"@!	c #E9CA61",
"@~	c #E8A93D",
"@{	c #CB7220",
"@]	c #EBBB46",
"@^	c #A59C75",
"@/	c #2B2B2B",
"@(	c #898989",
"@_	c #BCBCBC",
"@:	c #B4B4B3",
"@<	c #BFA86F",
"@[	c #DBB13E",
"@}	c #E3CC87",
"@|	c #D4BD8C",
"@1	c #D8CFB4",
"@2	c #DFC792",
"@3	c #E2C585",
"@4	c #D99C40",
"@5	c #DF9C2D",
"@6	c #DEA12F",
"@7	c #CF7319",
"@8	c #B85E1B",
"@9	c #D58425",
"@0	c #E69F29",
"@a	c #EBC85A",
"@b	c #DA8726",
"@c	c #DD9F42",
"@d	c #EDCA63",
"@e	c #EACF65",
"@f	c #6F6A5D",
"@g	c #767676",
"@h	c #B6B6B6",
"@i	c #BBBBBB",
"@j	c #B5A98B",
"@k	c #D39A28",
"@l	c #E6AD35",
"@m	c #EABE57",
"@n	c #D6B477",
"@o	c #DEB657",
"@p	c #E4C16D",
"@q	c #DD9B2A",
"@r	c #D6801C",
"@s	c #B45313",
"@t	c #BA611A",
"@u	c #D48424",
"@v	c #E4A830",
"@w	c #E3A22C",
"@x	c #C96F22",
"@y	c #E8B952",
"@z	c #ECD377",
"@A	c #EBBC52",
"@B	c #E1B241",
"@C	c #88867F",
"@D	c #9F9F9F",
"@E	c #BABABA",
"@F	c #B3AFA7",
"@G	c #B88E46",
"@H	c #CF8C20",
"@I	c #E2B046",
"@J	c #CEB47B",
"@K	c #CC9331",
"@L	c #E4AD40",
"@M	c #D47818",
"@N	c #B05313",
"@O	c #D27A24",
"@P	c #DD962B",
"@Q	c #E3A830",
"@R	c #D5781F",
"@S	c #BE6720",
"@T	c #EEBD45",
"@U	c #ECD175",
"@V	c #E3A541",
"@W	c #E7B74B",
"@X	c #E6D77C",
"@Y	c #8E8D8A",
"@Z	c #A7A7A7",
"@`	c #AFADA8",
"# 	c #B29B71",
"#.	c #C98C29",
"#+	c #D88D1F",
"#@	c #DF8F20",
"##	c #C76014",
"#$	c #9F4B12",
"#%	c #DC8720",
"#&	c #E29F2A",
"#*	c #E3A52D",
"#=	c #D27020",
"#-	c #D48823",
"#;	c #E9B63E",
"#>	c #E8BC50",
"#,	c #D78B26",
"#'	c #E1A230",
"#)	c #EDCB69",
"#!	c #CEB873",
"#~	c #908F8E",
"#{	c #A4A4A4",
"#]	c #B8B8B8",
"#^	c #B3B2B2",
"#/	c #B3A794",
"#(	c #BB9757",
"#_	c #BE6D22",
"#:	c #B26117",
"#<	c #DB9021",
"#[	c #E3A625",
"#}	c #E29320",
"#|	c #C25A14",
"#1	c #DE9520",
"#2	c #E6B137",
"#3	c #E0A33A",
"#4	c #D38625",
"#5	c #E5AB36",
"#6	c #E3A730",
"#7	c #E9D17D",
"#8	c #E9D185",
"#9	c #898887",
"#0	c #9E9E9E",
"#a	c #B5B5B5",
"#b	c #0C0C0C",
"#c	c #48443E",
"#d	c #937D4B",
"#e	c #C49034",
"#f	c #C17B28",
"#g	c #E6A529",
"#h	c #E6A82A",
"#i	c #D67E1B",
"#j	c #D78E25",
"#k	c #E2AE3B",
"#l	c #DB9838",
"#m	c #EBD785",
"#n	c #E7C984",
"#o	c #EBDF9C",
"#p	c #A3A194",
"#q	c #B4B4B4",
"#r	c #111111",
"#s	c #090909",
"#t	c #080808",
"#u	c #070707",
"#v	c #050505",
"#w	c #665E50",
"#x	c #977E48",
"#y	c #997843",
"#z	c #DA9226",
"#A	c #E3A835",
"#B	c #DB9B2E",
"#C	c #E8D07B",
"#D	c #E4C060",
"#E	c #E7D792",
"#F	c #E0CC8C",
"#G	c #8A8A88",
"#H	c #B1B1B1",
"#I	c #373737",
"#J	c #363636",
"#K	c #353535",
"#L	c #333333",
"#M	c #303030",
"#N	c #2C2C2C",
"#O	c #282828",
"#P	c #54524D",
"#Q	c #A78D56",
"#R	c #CC9C3A",
"#S	c #E4B340",
"#T	c #E3B441",
"#U	c #E9BE4E",
"#V	c #E7DA98",
"#W	c #D6D1AE",
"#X	c #858584",
"#Y	c #ACACAC",
"#Z	c #B3B3B3",
"#`	c #AEAEAE",
"$ 	c #939393",
"$.	c #929292",
"$+	c #8E8E8E",
"$@	c #8C8C8C",
"$#	c #8B8B8B",
"$$	c #868686",
"$%	c #808080",
"$&	c #7D7D7D",
"$*	c #878787",
"$=	c #868583",
"$-	c #B6A36E",
"$;	c #D7B044",
"$>	c #E5CA61",
"$,	c #E7DBA6",
"$'	c #E6E1BD",
"$)	c #C4BFA9",
"$!	c #A9A9A9",
"$~	c #8D8C8B",
"${	c #A39C87",
"$]	c #AEA783",
"$^	c #BEB79C",
"$/	c #D3D0BA",
"$(	c #AFAFAF",
"$_	c #ABABAB",
"$:	c #989898",
"$<	c #A8A8A8",
" . . . . . . . . . . . . . . . . . . . . . . . . . . . . . . . . . . . . . . . . . . . . . . . .",
" . . . . . . . . . . . . . . . . . . . . . . . . . . . . . . . . . . . . . . . . + @ . . . . . .",
" . . # # # # # # # . . . . . . . . . . . . . . . . . . . . . . . . . . . . . . . + @ . . . . . .",
" . . # . . . . . # . . . . . . . . . . . . . . . . . . . . . . . . . $ @ @ . . . + @ $ @ . . . .",
" . . # . # # # . # . . . . . . . . . . . . . . . . . . . . . . . . @ + @ % % . . + % + + % . . .",
" . . # . . . . . # . . . . . . . . . . . . . . . . . . . . . . . . + & . $ @ $ . + + * * + = . .",
" . . # . # # # . # . . . . . . . . . . . . . . . . . . . . . . . . - + + & ; . . + @ . . + = . .",
" . . # . . . . . # . . . . . . . . . . . . . . . . . . . . . . . * = $ = - + = . + @ . . + = . .",
" . . # . # # # . # . . . . . . . . . . . . . . . . . . . . $ @ ; $ + & . * + = . + @ . . + = . .",
" . . # . . . . . # . . . . . . . . . . . . . . . . . . . . = + @ . - + + + - . . + @ . . + = . .",
" . . # # # # # # # . . . . . . . . . . . . . . . . . . . . . . . . . . . . . . . . . . . . . . .",
" . . . . . . . . . . . . . . . . . . . . . . . . . . . . . . . . . . . . . . . . . . . . . . . .",
" . . . . . . . . . . . . . . . . . . . . . . . . . . . . . . . . . . . . . . . . . . . . . . . .",
" . + + + + + + + + + + + > , ' ) ! ~ { ] ^ / ( _ : < [ } | 1 2 3 # 4 5 6 7 8 9 0 a b c d e f g .",
" . + + + + + + + + + + > , ' ) h ~ { ] ^ / ( _ : < [ } | 1 2 3 # 4 5 % 7 8 9 0 a b c d e f g i .",
" . + + + + + + + + + > , ' ) h ~ { ] ^ j ( _ : < [ } | 1 2 3 # 4 5 % 7 8 9 0 k b c d e f g i l .",
" . + + + + + + + + > , ' ) h ~ { . . . . . . . . . . . . . . . . . . c k 0 k b c d e m g i l n .",
" . + + + + + + + o , ' ) h ! { . . + + + + + + + + + + + + + + + + . p q b b c d e m g i l n r .",
" . + + + + + + o , ' ) h ! { . + . + + + + + + + + + + + + + + + + . s t g c d e m g i l n r u .",
" . + + + + + o , ' ) h ! { . . . . + + + + + + + + + + + + + + + + . v w n d e m f i l n r x y .",
" . + + + + o > ' ) h ! ~ j . + + + + + + + + + + + + + + + + + + + . z A r e m f i l n r x y q .",
" . + + + o > ' ) h ! ~ ] < . + + B B + B B B + B + B B B B + B + + . C D x m f i l n r x y q E .",
" . + + o > ' ) ! ^ j j ^ } . + + + + + + + + + + + + + + + + + + + . C F u f g l n r x u q E G .",
" . + o > , ) ! } m r c % 7 . ' ) H ) H H H ) H I J B + B B + B + + . K F y g l n r x u q E G L .",
" . o > , ) h ] a M N O P p . g r y y y q q y x d 3 ] > + + + + + + . K Q q l n r x u q E G L R .",
" . > , ) h ! ] % S T U V W X Y Z `. ...+.@.#.$.%.& E } H B B + + + . K.* E n r x u y E G L R & .",
" . , ' h ! ~ { : m.=.-.;.>.,.'.).!.~.{.].^./.(._.:.<.[ 7 ! + + + + . K.* L r x u y E G L R.}.| .",
" . ' h ! ~ { ] j } &.1.2.3.4.5.6.7.8.9.0.a.b.c.d.e.f.g.h.i ' B + + ..j.k R x u y E G L R.}.|.l .",
" . h ! ~ { ] j / : c.m.n.o.p.q.r.s.t.u.v.w.x.y.z.A.B.C.D.E.F > + + ..j.G.} u y q G L R.}.|.l.H .",
" . ! ~ { ] ^ / ( _ %.I.J.K.L.M.N.O.P.Q.R.S.T.U.V.W.X.Y.Z.`+ .F , + .+..G & y q G L R.} &.l.H++ .",
" . ~ { ] ^ / ( _ :+@.E+#+$+%+&+*+=+-+;+>+,+'+)+!+~+{+]+^+/+(++.F > .+.+_.| q G L R.} &.l.H+++: .",
" . { ] ^ / ( _ : < 2 G+<+[+}+|+1+2+3+4+5+6+7+8+9+0+a+b+c+d+e+f.} / .+.+g.l E L R.} &.l.H+++:+h .",
" . ] ^ j ( _ : < [ | k t+i+j+k+l+m+n+o+p+q+r+s+t+u+v+w+x+y+z+A+B r . $+g.H L R.} &.|.H+++:+h+C .",
" . ^ j ( _ : <.F } | 3 i A+D+E+F+G+H+I+J+K+L+M+N+O+P+Q+R+S+T+U+V+W .+X+Y+: R.} &.|.H+++:+h+Z+` .",
" . j ( _ : <.F } | 1 2 %++@ @.@+@@@#@$@%@&@*@=@-@;@>@,@'@)@!@~@{@]@^@/@(+C.} &.|.H+++:+h+Z+`@_ .",
" . / _ : <.F } | 1 2+@ # g .@:@<@[@}@|@1@2@3@4@5@6@7@8@9@0@a@b@c@d@e@f@g@h.|.|.l+++:+h+Z+`@_@i .",
" . _ : <.F [ | 1 2+@ # 4 c . #@_@j@k@l@m@n@o@p@q@r@s@t@u@v@w@x@y@z@A@B@C@D+C.H+++:+h+Z+C@_@i@E .",
" . : <.F [ | 1 2+@ 3 4 5 b . ,.F G@F@G@H@I@J@K@L@M@N@O@P@Q@R@S@T@U@V@W@X@Y@Z@i+h+h+Z+C@_@i@E.E .",
" . <.F [ | 1 2+@ 3 4 5 % c . + > ^ 8+:@`# #.#+#@###$#%#&#*#=#-#;#>#,#'#)#!#~#{.E+C+C@_@i@E.E#] .",
" ..F [ } 1 2+@ 3 4 5 % 6 d . + + o ' j 4 q#^#/#(#_#:#<#[#}#|#1#2#3#4#5#6#7#8#9#0#a@_@i@E.E#]@h .",
" . [ } 1 2+@ 3 # 5 % 6 7 m . . . . . . . . . . . .#b#c#d#e#f#g#h#i#j#k#l#m#n#o#p A#q.E.E#].[#a .",
" . } 1 2+@ 3 # 5 % 6 7 8 m.= v#r#s#t#t#t#t#u#u#u#u#u#u#v#v#v#w#x#y#z#A#B#C#D#E#F#G@D#H@h.[#a#q .",
" . | 2+@ 3 # 5 % 6 7 8 0 m t s v C K K K.j.j+.+.+. $#I#J#K#L#M#N#O#P#Q#R#S#T#U#V#W#X+_#Y#q#q#Z .",
" . 2+@ 3 # 4 % 6 7 8 0 k c L#`#0 D Q.*.*.k.G.G+_+g$ $.+Y+Y$+$@$#$$$%$&$*$=$-$;$>$,$'$) D#H#Z p .",
" .+@ 3 # 4 % 6 7 8 9 k a b e l x u q E L R.} &.|.H+++:+h+Z+C+`@_@i#]#a p$!.k$~${$]$^$/.*$( p#H .",
" . 3 # 4 % 6 7 8 9 k a b c d m f g i l r x u y E G L R.}.|.l.H+++:+Z+C+`@E#a$_ w$:$ $:$< t#H t .",
" . # 4 5 6 7 8 9 k a b c d m f g i l r x u y q G L R.}.|.l.H+++:+Z+C+`@_@i.E.[#q p t$( t#H t$( .",
" . . . . . . . . . . . . . . . . . . . . . . . . . . . . . . . . . . . . . . . . . . . . . . . ."};
