/* XPM */
static char * file_dot_au_xpm[] = {
"48 48 174 2",
"  	c None",
" .	c #040204",
" +	c #000000",
" @	c #E5E5E5",
" #	c #A4A6A4",
" $	c #ACAAAC",
" %	c #343634",
" &	c #DCDEDC",
" *	c #FCFEFC",
" =	c #E4E2E4",
" -	c #C4C6C4",
" ;	c #545654",
" >	c #747274",
" ,	c #1C1E1C",
" '	c #8C8E8C",
" )	c #545254",
" !	c #6C6A6C",
" ~	c #CCCACC",
" {	c #1C1A1C",
" ]	c #FCFAFC",
" ^	c #F4F6F4",
" /	c #F4F2F4",
" (	c #ECEEEC",
" _	c #E4E6E4",
" :	c #ECEAEC",
" <	c #D4D6D4",
" [	c #DCDADC",
" }	c #D4D2D4",
" |	c #CCCECC",
" 1	c #8C52F4",
" 2	c #9466CC",
" 3	c #5C3294",
" 4	c #A492B4",
" 5	c #9476BC",
" 6	c #9452FC",
" 7	c #5C2E94",
" 8	c #B4AABC",
" 9	c #947ABC",
" 0	c #8C4EF4",
" a	c #4C4A4C",
" b	c #8C56E4",
" c	c #A4A2A4",
" d	c #9C8AB4",
" e	c #B4AEBC",
" f	c #9C92AC",
" g	c #343234",
" h	c #8C4EEC",
" i	c #141214",
" j	c #C4C2C4",
" k	c #644A84",
" l	c #9472BC",
" m	c #84769C",
" n	c #9452F4",
" o	c #1C0E2C",
" p	c #B4B6B4",
" q	c #C4BEC4",
" r	c #341A54",
" s	c #5C5E5C",
" t	c #643AAC",
" u	c #2C2A2C",
" v	c #8C66C4",
" w	c #140A1C",
" x	c #74727C",
" y	c #8C66BC",
" z	c #ACA2BC",
" A	c #AC9EB4",
" B	c #5C5A5C",
" C	c #24222C",
" D	c #8C56DC",
" E	c #746A74",
" F	c #3C3254",
" G	c #7C7A84",
" H	c #04020C",
" I	c #8462AC",
" J	c #8452D4",
" K	c #140A24",
" L	c #2C1644",
" M	c #7C7A7C",
" N	c #9462CC",
" O	c #544A5C",
" P	c #8C52E4",
" Q	c #643E9C",
" R	c #8C4EDC",
" S	c #6C5684",
" T	c #24123C",
" U	c #646664",
" V	c #8C6AB4",
" W	c #744E9C",
" X	c #6C3AB4",
" Y	c #5C4674",
" Z	c #341E44",
" `	c #6436A4",
". 	c #744AAC",
"..	c #3C1E64",
".+	c #645E6C",
".@	c #7C4AC4",
".#	c #444244",
".$	c #BCB6BC",
".%	c #A4A2AC",
".&	c #7C46BC",
".*	c #442674",
".=	c #844EDC",
".-	c #3C2654",
".;	c #3C225C",
".>	c #0C060C",
".,	c #5C368C",
".'	c #844AEC",
".)	c #4C464C",
".!	c #141614",
".~	c #8472A4",
".{	c #746A84",
".]	c #9C7EBC",
".^	c #64329C",
"./	c #3C2264",
".(	c #542E8C",
"._	c #54328C",
".:	c #4C326C",
".<	c #844ADC",
".[	c #8C4AE4",
".}	c #040604",
".|	c #5C5E64",
".1	c #BCBEBC",
".2	c #6C4694",
".3	c #5C329C",
".4	c #341A4C",
".5	c #542E84",
".6	c #743EBC",
".7	c #643A9C",
".8	c #64429C",
".9	c #8C4EE4",
".0	c #7C42CC",
".a	c #2C1A44",
".b	c #1C1624",
".c	c #0C061C",
".d	c #9C9E9C",
".e	c #9C9A9C",
".f	c #9C8AAC",
".g	c #342E3C",
".h	c #7C46D4",
".i	c #744EA4",
".j	c #342254",
".k	c #848284",
".l	c #7C7E7C",
".m	c #1C1224",
".n	c #2C2234",
".o	c #0C0E0C",
".p	c #8C8A8C",
".q	c #8C6EB4",
".r	c #BCBABC",
".s	c #4C2A7C",
".t	c #8456D4",
".u	c #8446D4",
".v	c #4C267C",
".w	c #7C5AB4",
".x	c #1C122C",
".y	c #C4C2CC",
".z	c #ACAAB4",
".A	c #8C5AD4",
".B	c #ACA6B4",
".C	c #443E44",
".D	c #7C629C",
".E	c #5C3694",
".F	c #7C6A94",
".G	c #0C0614",
".H	c #241A24",
".I	c #ACA6AC",
".J	c #9482A4",
".K	c #845ACC",
".L	c #9C96A4",
".M	c #646264",
".N	c #949694",
".O	c #847E84",
".P	c #B4B2B4",
".Q	c #ACAEAC",
" . . . . . . . . . . . . . . . . . . . . . . . . . . . . . . . . . . . . . . . . . . . . . . . .",
" . . + + + + + + + + + . . . . . . . . . . . . . . . . . . . . . . . . . . . . . . . . . . . . .",
" . . + + + @ + + @ + + . . . . . . . . . . . . . . . . . . . . . . . . . . . . . . . . . . . . .",
" . . + + + + @ + + @ + . . . . . . . . . . . . . . . . . . . . . . . . # $ # . . % $ % . % # . .",
" . . + + @ + @ + + @ + . . . . . . . . . . . . . . . . . . . . . . . & * $ = - . ; * ; . ; * . .",
" . . @ @ @ + @ + + @ + . . . . . . . . . . . . . . . . . . . . . . % $ > , ' * . ; * ) . ; * . .",
" . . @ @ @ + @ + + @ + . . . . . . . . . . . . . . . . . . . . . . . ' * = - * . ; * ; . ) * . .",
" . . + + @ + @ + + @ + . . . . . . . . . . . . . . . . . . . . . . ) * > . > * . ; * ! . > * . .",
" . . + + + + @ + + @ + . . . . . . . . . . . . . . . . . . . % $ > ; * ' ) = * . ; * ~ ; = * . .",
" . . + + + @ + + @ + + . . . . . . . . . . . . . . . . . . . ; * # { = * = $ * . . ~ * & $ * . .",
" . . . . . . . . . . . . . . . . . . . . . . . . . . . . . . . . . . . . . . . . . . . . . . . .",
" . . . . . . . . . . . . . . . . . . . . . . . . . . . . . . . . . . . . . . . . . . . . . . . .",
" . . . . . . . . . . . . . . . . . . . . . . . . . . . . . . . . . . . . . . . . . . . . . . . .",
" . * * * * * * * * * * * ] * ^ ] ^ ^ ^ / ^ ( / ( ( ( ( _ : _ _ _ = _ & = & & & & < [ < < < < } .",
" . * * * * * * * * * * * * ] ] ] ^ ^ ^ ^ / / ( / ( : : ( : _ : = _ = = & = & & [ [ [ < [ < } } .",
" . * * * * * * * * * * * ] ] ] ^ ] ^ ^ / ( / ( ( ( : : _ : _ _ _ = = & = & [ & [ < [ < < } < | .",
" . * * * * * * * * * * ] ] ^ ^ ^ / / / / ( ( / : : : _ : _ _ = = = & & & & [ [ [ < [ < < } } } .",
" . * * * * * * * * * ] ] ] ^ ] ^ ^ ^ ( / ( : 1 2 _ : : _ _ _ _ & = & = & & [ < [ < < < } } | | .",
" . * * * * * * * * ] ] ^ ] ^ ^ / / / / ( ( : 1 3 % _ _ _ = = = = & & & [ [ [ < [ < } } } } | } .",
" . * * * * * * * ] ] ] ] ^ ^ ^ / / ( 4 5 = _ 6 7 % ~ 8 _ = = = & & & [ [ [ < [ < < } < | } | ~ .",
" . * * * * * * ] ] ^ ^ ^ ^ / / / ( / 9 0 a < 6 7 % 4 b c = & & = & [ & [ < < < < } } } | | | | .",
" . * * * * * ] * ^ ] ] ^ ^ / [ d e ( 9 1 . f 1 3 g f h i & = & & [ [ [ [ < [ < } } } | } | | ~ .",
" . * * * * ] ] ] ^ ] / / / / j 6 k c l 0 . m n 7 % f 6 o p & & [ [ [ < < < < } } | } | | ~ ~ ~ .",
" . * * * * ] ^ ] ^ ^ ^ ^ / ( q n r s 0 6 . m 1 t u v n w x y } [ [ [ < [ < } } } } | | ~ | ~ - .",
" . * * ] ] ] ] ^ ^ ^ / } z / A 1 r B 6 0 . m 6 6 C D 1 o E 1 F } < < < < } } | | | } | ~ ~ - ~ .",
" . * * ] ^ ] ^ ^ ^ / / z 1 G l 6 r B n 0 H I 0 n H J n K ! n L M } } < } < | } } | | ~ | - ~ - .",
" . ] ] ] ] ^ ^ ] / / ( N n o I 1 r O 1 0 H P Q 6 H R 1 o S 6 T U V y | } } } | | | ~ ~ - ~ - - .",
" . * ^ ] ^ ^ / / 5 z ( N 1 o W 6 X Y 6 n T b Z 6 . J 6 `.  1...+ D.@.#.$.% j | | ~ ~ - ~ - - j .",
" . ^ ] ^ ^ ] / e n.& G n 1.*.= 1 6.-.@ 7...=.; 1.> J n `., n.'.) 1 0.!.~ n.{ q | ~ - ~ - - - j .",
" . ^ ] ^ / / /.] 0 h.- 1.^ 6 6./ 0.(.&._.:.<.; 0 L 0 1 ` 3 1.[.} 6 0 w P 0 X.| ~ ~ - ~ - j -.1 .",
" . ^ ^ ^ n 0 0 0.2 0.3 1 L 6 1.4 1 6.:._ 0 1.4 1.^ 1.4 `., 6.'.> 1 0.4 0.5.6 0 0 1 n 0 n j j j .",
" . ^ ^ / 8 w w w . Q 6.7 T 1 6 L 1 n K.8 6.= ..  1 6 L.9.0 1.[.a 0 6 t n K %.b w w w w.c . j.1 .",
" . / ^ / (.d.d.e.e.f 0...g 6.h T 6 1 o.i n.'.} y n 1.4 0 6.j.[ 1.& T 0.h ..k - '.k.l.k.l.l.1.1 .",
" . ^ / / ( / ( ( : < k o ) 6.3.m 0 6 K.i 1 h.} V 6 0 H 6 1 H.= 6.(.n 1.0.o p ~ - - j j j j q.1 .",
" . / ( / ( ( : : : : < s.p 1 7 u P.h ..i 6.'.}.q 6 1 . 0 6 . P 1 7 u.9.6 i - - - j j.1.1.1.1.r .",
" . / ( / ( ( : ( _ : _ _ = 6.s.g.t.u.o.q 1.v.} V 1.0 . 6 1 . P 6.(.g.w.x.! ~.y - j.1 j j.1.1.r .",
" . ( ( ( ( : : _ : _ _ = =.z ..#.A.u.o.B 6 L.C V 6 r.o 0 6 ..D 1 o g - % M j - j j.1.1.1.r.r.r .",
" . ( / ( ( : : _ : _ = _ = & c -.A.E.o z 1 L U V 1 r ) 6.( ..F 6.G > - ~ - - j.1 j.1 q.r.1.r p .",
" . ( : : : : _ : _ _ = = = & & &.f.H %.I 1 L U.J 6.4 ).K.v.g.L.=.c.p j - j j j.1 j.1.1.r.r p.r .",
" . ( ( ( _ : _ _ _ = = = & = & & < M c.% 6.G.M.B 1 r ; I., % ~.N.}.p - - j.1 j.1.1.1.1 p.r p p .",
" . : : : _ : _ _ = = & & & & [ [ & < < z 1 ..e.I 1 r B $.C % ~ ~ j - j j j.1 j.1.1.r.r.r p.r p .",
" . ( _ : _ _ _ = = & = = & & [ [ [ [ < ~.O ..1.I 6 H ; ~ c.d ~ - - - j j.1 q.1.1.r.r p.r p p.P .",
" . _ : _ _ _ = = & = & & [ [ [ < < < < } - # ~ # 6 ..d ~ - ~ - j j j j.1 j.1.1.r.r.r p.r p.P.P .",
" . : _ : _ _ = = = & & & [ [ [ < [ < } } } | } |.d ..Q ~ ~ - - - - j j.1.1.1.1.r p.r p p.P p.Q .",
" . _ _ = = = & & & = [ [ [ < < < < } } } | } ~ | ~ ~ ~ - - - j j j.1.1 q.1.r.r.r p.r p p.P.P.P .",
" . _ _ _ _ & = = & [ & < [ < [ < < } } } | | | ~ ~ ~ - ~ - - j j j j.1.1.r.1 p.r p p.P.P.P.P.Q .",
" . = _ = = & = & & [ [ [ < < < } } } | | | | ~ ~ - - ~ - j j j.1.1.1.1.1.r.r p.r p p.P.P.Q.Q.Q .",
" . . . . . . . . . . . . . . . . . . . . . . . . . . . . . . . . . . . . . . . . . . . . . . . ."};
