/* XPM */
static char * file_dot_html_xpm[] = {
"48 48 267 2",
"  	c None",
". 	c #000000",
"+ 	c #FFFFFF",
"@ 	c #AAAAAA",
"# 	c #E5E5E5",
"$ 	c #555555",
"% 	c #383838",
"& 	c #C6C6C6",
"* 	c #717171",
"= 	c #E2E2E2",
"- 	c #1C1C1C",
"; 	c #8D8D8D",
"> 	c #FDFDFD",
", 	c #FCFCFC",
"' 	c #FBFBFB",
") 	c #FAFAFA",
"! 	c #F8F8F8",
"~ 	c #F7F7F7",
"{ 	c #F6F6F6",
"] 	c #F5F5F5",
"^ 	c #F4F4F4",
"/ 	c #F2F2F2",
"( 	c #F1F1F1",
"_ 	c #F0F0F0",
": 	c #EFEFEF",
"< 	c #EEEEEE",
"[ 	c #ECECEC",
"} 	c #EBEBEB",
"| 	c #EAEAEA",
"1 	c #E9E9E9",
"2 	c #E8E8E8",
"3 	c #E6E6E6",
"4 	c #E4E4E4",
"5 	c #E3E3E3",
"6 	c #E1E1E1",
"7 	c #E0E0E0",
"8 	c #DFDFDF",
"9 	c #DEDEDE",
"0 	c #DDDDDD",
"a 	c #DBDBDB",
"b 	c #DADADA",
"c 	c #D9D9D9",
"d 	c #D8D8D8",
"e 	c #D7D7D7",
"f 	c #D5D5D5",
"g 	c #D4D4D4",
"h 	c #F9F9F9",
"i 	c #D3D3D3",
"j 	c #F3F3F3",
"k 	c #DCDCDC",
"l 	c #D2D2D2",
"m 	c #D6D6D6",
"n 	c #D1D1D1",
"o 	c #FEFEFE",
"p 	c #B2B2B2",
"q 	c #CCCCCC",
"r 	c #D0D0D0",
"s 	c #696969",
"t 	c #B0B0B0",
"u 	c #CECECE",
"v 	c #434343",
"w 	c #A0A0A0",
"x 	c #CFCFCF",
"y 	c #CDCDCD",
"z 	c #3D3D3D",
"A 	c #9D9D9D",
"B 	c #3C3C3C",
"C 	c #9C9C9C",
"D 	c #CBCBCB",
"E 	c #515756",
"F 	c #515757",
"G 	c #515858",
"H 	c #515959",
"I 	c #515554",
"J 	c #9B9B9B",
"K 	c #CACACA",
"L 	c #011312",
"M 	c #011614",
"N 	c #011715",
"O 	c #001818",
"P 	c #011818",
"Q 	c #011819",
"R 	c #02191B",
"S 	c #01181B",
"T 	c #011817",
"U 	c #021716",
"V 	c #021615",
"W 	c #02100E",
"X 	c #3B3B3B",
"Y 	c #C9C9C9",
"Z 	c #011A1A",
"` 	c #011A1C",
" .	c #233B3C",
"..	c #657979",
"+.	c #536767",
"@.	c #0B292A",
"#.	c #022024",
"$.	c #05262B",
"%.	c #55686A",
"&.	c #708283",
"*.	c #4B5E60",
"=.	c #021B1D",
"-.	c #021617",
";.	c #9A9A9A",
">.	c #C8C8C8",
",.	c #E7E7E7",
"'.	c #002124",
").	c #002327",
"!.	c #012528",
"~.	c #3E5C5E",
"{.	c #CACFD0",
"].	c #6E8589",
"^.	c #042F33",
"/.	c #022C30",
"(.	c #012A2E",
"_.	c #183D42",
":.	c #6E888D",
"<.	c #204246",
"[.	c #022529",
"}.	c #022427",
"|.	c #021E22",
"1.	c #999999",
"2.	c #012C30",
"3.	c #012F33",
"4.	c #1E4A4E",
"5.	c #7C989A",
"6.	c #BCC7C8",
"7.	c #4E7376",
"8.	c #05373B",
"9.	c #013337",
"0.	c #0F3E42",
"a.	c #507378",
"b.	c #18454A",
"c.	c #022F33",
"d.	c #022D31",
"e.	c #02282C",
"f.	c #C7C7C7",
"g.	c #C5C5C5",
"h.	c #013236",
"i.	c #013439",
"j.	c #01373C",
"k.	c #1A4E52",
"l.	c #3B6A6F",
"m.	c #50787F",
"n.	c #CAD5D6",
"o.	c #4C7378",
"p.	c #013B42",
"q.	c #0F454B",
"r.	c #50797E",
"s.	c #184D52",
"t.	c #02373C",
"u.	c #02353A",
"v.	c #023034",
"w.	c #3A3A3A",
"x.	c #979797",
"y.	c #C4C4C4",
"z.	c #EDEDED",
"A.	c #013D44",
"B.	c #013F46",
"C.	c #014248",
"D.	c #1A575E",
"E.	c #366E73",
"F.	c #01484D",
"G.	c #5E8B8F",
"H.	c #C2D1D3",
"I.	c #538185",
"J.	c #105257",
"K.	c #518087",
"L.	c #19565E",
"M.	c #024249",
"N.	c #024046",
"O.	c #023B42",
"P.	c #969696",
"Q.	c #C3C3C3",
"R.	c #01484E",
"S.	c #014B52",
"T.	c #014E55",
"U.	c #1A626A",
"V.	c #38777F",
"W.	c #01545C",
"X.	c #0B5C64",
"Y.	c #6C9DA4",
"Z.	c #BFD2D5",
"`.	c #447D84",
" +	c #578C92",
".+	c #1B636A",
"++	c #024E55",
"@+	c #024B52",
"#+	c #02464E",
"$+	c #393939",
"%+	c #C2C2C2",
"&+	c #01545D",
"*+	c #015661",
"=+	c #015660",
"-+	c #1A6D75",
";+	c #3A7F88",
">+	c #055B65",
",+	c #02626E",
"'+	c #0F6C78",
")+	c #85B3B9",
"!+	c #C4D6D8",
"~+	c #7EABB0",
"{+	c #1C6D75",
"]+	c #025862",
"^+	c #025760",
"/+	c #02535B",
"(+	c #959595",
"_+	c #C1C1C1",
":+	c #05535C",
"<+	c #074F58",
"[+	c #164E55",
"}+	c #3E6367",
"|+	c #7A8E92",
"1+	c #223538",
"2+	c #030F0E",
"3+	c #020C0A",
"4+	c #061110",
"5+	c #434645",
"6+	c #444E50",
"7+	c #11383C",
"8+	c #134F56",
"9+	c #0A5159",
"0+	c #0A555E",
"a+	c #949494",
"b+	c #C0C0C0",
"c+	c #06191B",
"d+	c #040B0B",
"e+	c #090909",
"f+	c #4B4D4D",
"g+	c #6D7071",
"h+	c #313435",
"i+	c #020202",
"j+	c #010101",
"k+	c #070D0E",
"l+	c #0D2124",
"m+	c #BEBEBE",
"n+	c #0A0A0A",
"o+	c #080808",
"p+	c #939393",
"q+	c #BFBFBF",
"r+	c #BDBDBD",
"s+	c #929292",
"t+	c #BCBCBC",
"u+	c #919191",
"v+	c #BBBBBB",
"w+	c #373737",
"x+	c #909090",
"y+	c #BABABA",
"z+	c #8F8F8F",
"A+	c #B9B9B9",
"B+	c #8E8E8E",
"C+	c #B8B8B8",
"D+	c #363636",
"E+	c #B6B6B6",
"F+	c #B7B7B7",
"G+	c #B5B5B5",
"H+	c #A2A2A2",
"I+	c #111111",
"J+	c #070707",
"K+	c #0E0E0E",
"L+	c #B4B4B4",
"M+	c #5C5C5C",
"N+	c #B3B3B3",
"O+	c #AEAEAE",
"P+	c #9E9E9E",
"Q+	c #B1B1B1",
"R+	c #AFAFAF",
". . . . . . . . . . . . . . . . . . . . . . . . . . . . . . . . . . . . . . . . . . . . . . . . ",
". . . . . . . . . . . . . . . . . . . . . . + @ . . . . . . . . . . . . . . . . . . . . @ + . . ",
". . # # # # # # # . . . . . . . . . . . . . + @ . . . . . $ + $ . . . . . . . . . . . . @ + . . ",
". . # . . . . . # . . . . . . . . . . . . . + @ % @ . . . & + & % * @ . @ % . * @ . . . @ + . . ",
". . # . # # # . # . . . . . . . . . . . . . + = + + = . . & + & % @ + = + + = + + & . . @ + . . ",
". . # . . . . . # . . . . . . . . . . . . . + + - - + $ . $ + $ . @ + $ - + @ - * + . . @ + . . ",
". . # . # # # . # . . . . . . . . . . . . . + @ . . + $ . $ + $ . @ + . . + $ . $ + . . @ + . . ",
". . # . . . . . # . . . . . . . . . . . . . + @ . . + $ . $ + $ . @ + . . + $ . $ + . . @ + . . ",
". . # . # # # . # . . . . . . . . . % @ * . + @ . . + $ . $ + ; - @ + . . + $ . $ + . . @ + . . ",
". . # . . . . . # . . . . . . . . . $ + @ . + @ . . + $ . - = + $ @ + . . + $ . $ + . . @ + . . ",
". . # # # # # # # . . . . . . . . . . . . . . . . . . . . . . . . . . . . . . . . . . . . . . . ",
". . . . . . . . . . . . . . . . . . . . . . . . . . . . . . . . . . . . . . . . . . . . . . . . ",
". . . . . . . . . . . . . . . . . . . . . . . . . . . . . . . . . . . . . . . . . . . . . . . . ",
". + + + + + + + + + + + > , ' ) ! ~ { ] ^ / ( _ : < [ } | 1 2 3 # 4 5 6 7 8 9 0 a b c d e f g . ",
". + + + + + + + + + + > , ' ) h ~ { ] ^ / ( _ : < [ } | 1 2 3 # 4 5 = 7 8 9 0 a b c d e f g i . ",
". + + + + + + + + + > , ' ) h ~ { ] ^ j ( _ : < [ } | 1 2 3 # 4 5 = 7 8 9 0 k b c d e f g i l . ",
". + + + + + + + + > , ' ) h ~ { . . . . . . . . . . . . . . . . . . c k 0 k b c d e m g i l n . ",
". + + + + + + + o , ' ) h ! { . . + + + + + + + + + + + + + + + + . p q b b c d e m g i l n r . ",
". + + + + + + o , ' ) h ! { . + . + + + + + + + + + + + + + + + + . s t g c d e m g i l n r u . ",
". + + + + + o , ' ) h ! { . . . . + + + + + + + + + + + + + + + + . v w n d e m f i l n r x y . ",
". + + + + o > ' ) h ! ~ j . + + + + + + + + + + + + + + + + + + + . z A r e m f i l n r x y q . ",
". + + + o > ' ) h ! ~ ] < . + + + + + + + + + + + + + + + + + + + . B C x m f i l n r x y q D . ",
". + + o > ' ) h ! ~ ] ^ } . + + E F G H H H H H H H H H G F I + + . B J u f g l n r x u q D K . ",
". + o > , ) h ! ~ { ^ j 1 . + + L M N O P Q R R S Q P T U V W + + . X J y g l n r x u q D K Y . ",
". o > , ) h ! ~ { ^ j / 2 . + + Z `  ...+.@.#.#.$.%.&.*.=.=.-.+ + . X ;.q l n r x u q D K Y >.. ",
". > , ) h ! ~ { ^ j / ( ,.. + + '.).!.~.{.].^./.(._.:.<.[.}.|.+ + . X 1.D n r x u y D K Y >.& . ",
". , ' h ! ~ { ] j / ( _ # . + + (.2.3.4.5.6.7.8.9.0.a.b.c.d.e.+ + . X 1.Y r x u y D K Y >.f.g.. ",
". ' h ! ~ { ] j / ( _ : 4 . + + h.i.j.k.l.m.n.o.p.q.r.s.t.u.v.+ + . w.x.>.x u y D K Y >.f.g.y.. ",
". h ! ~ { ] j / ( _ : z.5 . + + A.B.C.D.E.F.G.H.I.J.K.L.M.N.O.+ + . w.P.f.u y q K Y >.f.g.y.Q.. ",
". ! ~ { ] ^ / ( _ : z.[ = . + + R.S.T.U.V.W.X.Y.Z.`. +.+++@+#++ + . $+P.& y q K Y >.f.& y.Q.%+. ",
". ~ { ] ^ / ( _ : < [ } 6 . + + &+*+=+-+;+>+,+'+)+!+~+{+]+^+/++ + . $+(+g.q K Y >.f.& y.Q.%+_+. ",
". { ] ^ / ( _ : < [ } | 7 . + + :+<+[+}+|+1+2+3+4+5+6+7+8+9+0++ + . $+a+y.D Y >.f.& y.Q.%+_+b+. ",
". ] ^ j ( _ : < [ } | 1 8 . + + c+d+e+f+g+h+i+i+j+j+j+j+i+k+l++ + . $+a+Q.Y >.f.& g.Q.%+_+b+m+. ",
". ^ j ( _ : < z.} | 1 2 0 . + + j+j+j+n+n+o+i+i+j+j+j+j+i+i+i++ + . % p+_+>.f.& g.Q.%+_+b+q+r+. ",
". j ( _ : < z.} | 1 2 ,.k . + + j+j+j+. j+j+i+i+j+j+j+j+i+i+i++ + . % s+b+f.& g.Q.%+_+b+q+r+t+. ",
". / _ : < z.} | 1 2 ,.# a . + + . j+j+. j+j+i+i+j+j+j+j+i+i+i++ + . % u+q+& g.y.%+_+b+q+r+t+v+. ",
". _ : < z.[ | 1 2 ,.# 4 b . + + j+. j+. j+j+i+i+j+j+j+j+i+i+i++ + . w+x+q+g.y.%+_+b+q+m+t+v+y+. ",
". : < z.[ | 1 2 ,.3 4 5 b . + + + + + + + + + + + + + + + + + + + . w+z+m+y.%+_+b+q+m+t+v+y+A+. ",
". < z.[ | 1 2 ,.3 4 5 = c . + + + + + + + + + + + + + + + + + + + . w+B+r+Q._+b+q+m+t+v+y+A+C+. ",
". z.[ } 1 2 ,.3 4 5 = 6 d . + + + + + + + + + + + + + + + + + + + . D+B+t+_+b+q+m+r+v+y+A+C+E+. ",
". [ } 1 2 ,.3 # 5 = 6 7 m . . . . . . . . . . . . . . . . . . . . . D+; y+b+q+m+r+v+y+A+C+F+G+. ",
". } 1 2 ,.3 # 5 = 6 7 8 m H+v I+e+o+o+o+o+o+o+o+o+o+o+J+J+J+J+J+J+K+X B+A+q+m+r+v+y+A+C+F+G+L+. ",
". | 2 ,.3 # 5 = 6 7 8 0 m t s v B X X X w.w.$+$+$+% % % w+w+w+D+D+X M+1.A+m+r+t+y+A+C+F+G+L+N+. ",
". 2 ,.3 # 4 = 6 7 8 0 k c Y O+P+C ;.1.1.x.P.P.(+a+p+s+u+u+z+B+B+; z+;.t t+r+t+y+A+C+F+E+L+N+p . ",
". ,.3 # 4 = 6 7 8 9 k a b e l x u q D Y >.f.& g.Q.%+_+b+q+m+r+t+v+y+y+t+r+t+y+A+C+F+E+L+N+p Q+. ",
". 3 # 4 = 6 7 8 9 k a b c d m f g i l r x u y D K Y >.f.g.y.Q.%+_+q+m+r+t+v+A+C+F+E+L+N+p Q+t . ",
". # 4 5 6 7 8 9 k a b c d m f g i l r x u y q K Y >.f.g.y.Q.%+_+q+m+r+t+v+A+C+F+E+G+N+p Q+t R+. ",
". . . . . . . . . . . . . . . . . . . . . . . . . . . . . . . . . . . . . . . . . . . . . . . . "};
