/* XPM */
static char * file_dot_rpm_xpm[] = {
"48 48 384 2",
"  	c None",
" .	c #000000",
" +	c #E5E5E5",
" @	c #AAAAAA",
" #	c #717171",
" $	c #383838",
" %	c #FFFFFF",
" &	c #C6C6C6",
" *	c #E2E2E2",
" =	c #555555",
" -	c #1C1C1C",
" ;	c #8D8D8D",
" >	c #FDFDFD",
" ,	c #FCFCFC",
" '	c #FBFBFB",
" )	c #FAFAFA",
" !	c #F8F8F8",
" ~	c #F7F7F7",
" {	c #F6F6F6",
" ]	c #F5F5F5",
" ^	c #F4F4F4",
" /	c #F2F2F2",
" (	c #F1F1F1",
" _	c #F0F0F0",
" :	c #EFEFEF",
" <	c #EEEEEE",
" [	c #ECECEC",
" }	c #EBEBEB",
" |	c #EAEAEA",
" 1	c #E9E9E9",
" 2	c #E8E8E8",
" 3	c #E6E6E6",
" 4	c #E4E4E4",
" 5	c #E3E3E3",
" 6	c #E1E1E1",
" 7	c #E0E0E0",
" 8	c #DFDFDF",
" 9	c #DEDEDE",
" 0	c #DDDDDD",
" a	c #DBDBDB",
" b	c #DADADA",
" c	c #D9D9D9",
" d	c #D8D8D8",
" e	c #D7D7D7",
" f	c #D5D5D5",
" g	c #D4D4D4",
" h	c #F9F9F9",
" i	c #D3D3D3",
" j	c #F3F3F3",
" k	c #EDEDED",
" l	c #DCDCDC",
" m	c #D2D2D2",
" n	c #BFBFBF",
" o	c #AFAFAF",
" p	c #A5A5A5",
" q	c #A3A3A3",
" r	c #A7A7A7",
" s	c #B3B3B3",
" t	c #C9C9C9",
" u	c #D6D6D6",
" v	c #D1D1D1",
" w	c #FEFEFE",
" x	c #7A7A7A",
" y	c #494949",
" z	c #1D1D1D",
" A	c #0E0E0E",
" B	c #060606",
" C	c #0B0B0B",
" D	c #1B1B1B",
" E	c #3B3B3B",
" F	c #626262",
" G	c #9F9F9F",
" H	c #D0D0D0",
" I	c #808080",
" J	c #212121",
" K	c #040404",
" L	c #020202",
" M	c #010101",
" N	c #151515",
" O	c #585858",
" P	c #CECECE",
" Q	c #B4B4B4",
" R	c #343434",
" S	c #020000",
" T	c #060000",
" U	c #030000",
" V	c #010000",
" W	c #070000",
" X	c #090000",
" Y	c #7D7D7D",
" Z	c #C3C3C3",
" `	c #CFCFCF",
". 	c #CDCDCD",
"..	c #BABABA",
".+	c #242424",
".@	c #190300",
".#	c #580F09",
".$	c #6A0C0C",
".%	c #5F0C0C",
".&	c #4F0C0C",
".*	c #550C0C",
".=	c #580C09",
".-	c #4D0C05",
".;	c #4A0605",
".>	c #190303",
".,	c #050505",
".'	c #131313",
".)	c #BCBCBC",
".!	c #CCCCCC",
".~	c #C5C5C5",
".{	c #353535",
".]	c #670F0E",
".^	c #AA1519",
"./	c #B61818",
".(	c #B61D18",
"._	c #AD1418",
".:	c #AC1B16",
".<	c #9B1D17",
".[	c #560A0A",
".}	c #4B0707",
".|	c #700F0F",
".1	c #100202",
".2	c #090909",
".3	c #171717",
".4	c #757575",
".5	c #CBCBCB",
".6	c #474747",
".7	c #080808",
".8	c #1D0303",
".9	c #830D11",
".0	c #86110B",
".a	c #9F1515",
".b	c #981415",
".c	c #A61C0E",
".d	c #B4161A",
".e	c #AD1417",
".f	c #8B1811",
".g	c #A81816",
".h	c #B3181A",
".i	c #420807",
".j	c #848484",
".k	c #CACACA",
".l	c #898989",
".m	c #2F0606",
".n	c #951512",
".o	c #320403",
".p	c #3A0706",
".q	c #580C08",
".r	c #7B1010",
".s	c #B61D1C",
".t	c #B11515",
".u	c #B11718",
".v	c #AD1814",
".w	c #B51818",
".x	c #88140F",
".y	c #393939",
".z	c #9E9E9E",
".A	c #3F0603",
".B	c #B51914",
".C	c #941414",
".D	c #8F1315",
".E	c #A31C19",
".F	c #AB1B18",
".G	c #B11414",
".H	c #B11C18",
".I	c #B11A16",
".J	c #B11818",
".K	c #B1181C",
".L	c #B6181A",
".M	c #150000",
".N	c #0F0F0F",
".O	c #767676",
".P	c #C8C8C8",
".Q	c #9A9A9A",
".R	c #290404",
".S	c #740F0A",
".T	c #8B100F",
".U	c #941714",
".V	c #280402",
".W	c #7F140F",
".X	c #A11515",
".Y	c #B51817",
".Z	c #B81415",
".`	c #B11616",
"+ 	c #B12018",
"+.	c #B11418",
"++	c #B11618",
"+@	c #B11814",
"+#	c #B11816",
"+$	c #56100B",
"+%	c #101010",
"+&	c #535353",
"+*	c #921412",
"+=	c #B3181D",
"+-	c #B51C18",
"+;	c #B21A14",
"+>	c #210404",
"+,	c #0F0303",
"+'	c #410505",
"+)	c #660C0E",
"+!	c #880F12",
"+~	c #A5170D",
"+{	c #B11D18",
"+]	c #770912",
"+^	c #181818",
"+/	c #7B7B7B",
"+(	c #B8B8B8",
"+_	c #C7C7C7",
"+:	c #313131",
"+<	c #170100",
"+[	c #981312",
"+}	c #B31818",
"+|	c #B21919",
"+1	c #871212",
"+2	c #340404",
"+3	c #040000",
"+4	c #160101",
"+5	c #2C0502",
"+6	c #9A1811",
"+7	c #B11B18",
"+8	c #770B0D",
"+9	c #5A0D09",
"+0	c #390409",
"+a	c #5A5A5A",
"+b	c #A8A8A8",
"+c	c #C4C4C4",
"+d	c #B6B6B6",
"+e	c #320000",
"+f	c #A31616",
"+g	c #B22019",
"+h	c #B2191A",
"+i	c #951114",
"+j	c #400706",
"+k	c #1A0203",
"+l	c #490605",
"+m	c #B21817",
"+n	c #8D1A11",
"+o	c #AE171C",
"+p	c #B71D1A",
"+q	c #7A0D0E",
"+r	c #140301",
"+s	c #0C0C0C",
"+t	c #3E3E3E",
"+u	c #999999",
"+v	c #C2C2C2",
"+w	c #A6A6A6",
"+x	c #440909",
"+y	c #951515",
"+z	c #B61919",
"+A	c #B21917",
"+B	c #B21915",
"+C	c #AD1D17",
"+D	c #8E1512",
"+E	c #66090E",
"+F	c #5F0F0A",
"+G	c #A51818",
"+H	c #B11717",
"+I	c #B51512",
"+J	c #B31817",
"+K	c #AA1817",
"+L	c #490C09",
"+M	c #111111",
"+N	c #8C8C8C",
"+O	c #BBBBBB",
"+P	c #141414",
"+Q	c #270404",
"+R	c #82140D",
"+S	c #B91919",
"+T	c #B31718",
"+U	c #B61518",
"+V	c #B21D19",
"+W	c #AA1814",
"+X	c #B01815",
"+Y	c #B41818",
"+Z	c #B11B1A",
"+`	c #B11D1C",
"@ 	c #AE1614",
"@.	c #520707",
"@+	c #2C2C2C",
"@@	c #B7B7B7",
"@#	c #C1C1C1",
"@$	c #A2A2A2",
"@%	c #1D1616",
"@&	c #1F1F1F",
"@*	c #6A6A6A",
"@=	c #6D3C37",
"@-	c #8F1712",
"@;	c #AB1813",
"@>	c #B9181B",
"@,	c #B1181D",
"@'	c #B11911",
"@)	c #B4181A",
"@!	c #B6171C",
"@~	c #8A1210",
"@{	c #1C0400",
"@]	c #2A2A2A",
"@^	c #828282",
"@/	c #B5B5B5",
"@(	c #C0C0C0",
"@_	c #A1A1A1",
"@:	c #1F1B1B",
"@<	c #D0C9CE",
"@[	c #5B4848",
"@}	c #5F221D",
"@|	c #AB1815",
"@1	c #B11918",
"@2	c #901414",
"@3	c #2F0404",
"@4	c #0D0D0D",
"@5	c #2E2E2E",
"@6	c #BEBEBE",
"@7	c #211F1F",
"@8	c #3C3C3C",
"@9	c #2D1618",
"@0	c #370604",
"@a	c #600D0D",
"@b	c #9A110F",
"@c	c #BB1818",
"@d	c #9A160F",
"@e	c #650F0A",
"@f	c #220603",
"@g	c #0A0A0A",
"@h	c #BDBDBD",
"@i	c #3D3D3D",
"@j	c #7F7F7F",
"@k	c #8A8A8A",
"@l	c #5F5F5F",
"@m	c #454747",
"@n	c #323333",
"@o	c #3C3737",
"@p	c #483131",
"@q	c #4C3636",
"@r	c #452E2E",
"@s	c #352525",
"@t	c #4A4A4A",
"@u	c #959595",
"@v	c #969696",
"@w	c #727272",
"@x	c #EDF0F0",
"@y	c #E4E5E5",
"@z	c #E7E7E7",
"@A	c #878C8C",
"@B	c #161616",
"@C	c #5D5D5D",
"@D	c #444444",
"@E	c #737373",
"@F	c #303030",
"@G	c #797979",
"@H	c #191919",
"@I	c #4D4D4D",
"@J	c #292929",
"@K	c #979797",
"@L	c #B9B9B9",
"@M	c #7E7E7E",
"@N	c #AEAEAE",
"@O	c #B0B0B0",
"@P	c #636363",
"@Q	c #666666",
"@R	c #282828",
"@S	c #5C5C5C",
"@T	c #464646",
"@U	c #070707",
"@V	c #5B5B5B",
"@W	c #929292",
"@X	c #888888",
"@Y	c #202020",
"@Z	c #909090",
"@`	c #B2B2B2",
"# 	c #616161",
"#.	c #595959",
"#+	c #404040",
"#@	c #6C6C6C",
"##	c #B1B1B1",
"#$	c #8E8E8E",
"#%	c #1A1A1A",
"#&	c #2D2D2D",
"#*	c #424242",
"#=	c #606060",
"#-	c #ACACAC",
"#;	c #696969",
"#>	c #525252",
"#,	c #A4A4A4",
"#'	c #A0A0A0",
"#)	c #A9A9A9",
" . . . . . . . . . . . . . . . . . . . . . . . . . . . . . . . . . . . . . . . . . . . . . . . .",
" . . . . . . . . . . . . . . . . . . . . . . . . . . . . . . . . . . . . . . . . . . . . . . . .",
" . . + . . . . . . . . . . . . . . . . . . . . . . . . . . . . . . . . . . . . . . . . . . . . .",
" . . + + . . . . . . . . . . . . . . . . . . . . . @ # . # $ @ $ # @ . . . @ # $ @ . . @ # . . .",
" . . + + + . . . . . . . . . . . . . . . . . . . . % & * @ = % * % % @ . . % * % % * % % % # . .",
" . . + + + + . . . . . . . . . . . . . . . . . . . % % # $ = % & . # % # . % * - # % # . & @ . .",
" . . + + + + + . . . . . . . . . . . . . . . . . . % & . . = % = . . % @ . % @ . = % . . @ @ . .",
" . . + + + + . . . . . . . . . . . . . . . . . . . % @ . . = % ; . $ % @ . % @ . = % . . @ @ . .",
" . . + + + . . . . . . . . . . . . . . . . $ @ # . % @ . . = % * = @ % $ . % @ . = % . . @ @ . .",
" . . + + . . . . . . . . . . . . . . . . . = % @ . % @ . . = % @ * % = . . % @ . = % . . @ @ . .",
" . . + . . . . . . . . . . . . . . . . . . . . . . . . . . = % = . . . . . . . . . . . . . . . .",
" . . . . . . . . . . . . . . . . . . . . . . . . . . . . . = % = . . . . . . . . . . . . . . . .",
" . . . . . . . . . . . . . . . . . . . . . . . . . . . . . . . . . . . . . . . . . . . . . . . .",
" . % % % % % % % % % % % > , ' ) ! ~ { ] ^ / ( _ : < [ } | 1 2 3 + 4 5 6 7 8 9 0 a b c d e f g .",
" . % % % % % % % % % % > , ' ) h ~ { ] ^ / ( _ : < [ } | 1 2 3 + 4 5 * 7 8 9 0 a b c d e f g i .",
" . % % % % % % % % % > , ' ) h ~ { ] ^ j ( _ : k } | 1 2 2 3 + 4 5 * 7 8 9 0 l b c d e f g i m .",
" . % % % % % % % % > , ' ) h ~ { ] ^ j < b n o p q r s t l 7 5 5 * 7 8 9 0 l b c d e u g i m v .",
" . % % % % % % % w , ' ) h ! { ] ^ / n x y z A B B C D E F G v a 7 8 9 0 l b c d e u g i m v H .",
" . % % % % % % w , ' ) h ! { ] ^ 5 I J A K . L . . M L K C N O s v b 0 l a c d e u g i m v H P .",
" . % % % % % w , ' ) h ! { ] j Q R L B . S T U . V W X S . B M - Y Z f b c d e u f i m v H `.  .",
" . % % % % w > ' ) h ! ~ ] ^...+ B M ..@.#.$.%.&.*.=.-.;.> . M.,.' #.) m e e u f i m v H `. .! .",
" . % % % w > ' ) h ! ~ ] ^.~.{ . . . X.].^./.(._.:.<.[.}.|.1 . M.2.3.4.) v u f i m v H `. .!.5 .",
" . % % w > ' ) h ! ~ ] ^ c.6.7 . . ..8.9.0.a.b.c.d.e.f.g.h.i . . ..7 z.j n H g m v H ` P.!.5.k .",
" . % w > , ) h ! ~ { ^ /.l.7 . . . ..m.n.o.p.q.r.s.t.u.v.w.x . . . ..,.y.z & v v H ` P.!.5.k t .",
" . w > , ) h ! ~ { ^ j k.+ B . . . ..A.B.C.D.E.F.G.H.I.J.K.L.M . . ..,.N.O Q.! H ` P.!.5.k t.P .",
" . > , ) h ! ~ { ^ j /.Q.2 U.R.S.T.U.V.W.X.Y.Z.`+ +.++.J+@+#+$ . . . .+%.{.Q.~ P P. .5.k t.P & .",
" . , ' h ! ~ { ] j / <+& K.@+*+=+-+;+>+,+'+)+!+~./.J.J+{.J.J+] . . . . K+^+/+(.5. .5.k t.P+_.~ .",
" . ' h ! ~ { ] j / ( 0+: .+<+[.J+}+|+1+2+3 T+4+5+6./.J+7.J.J+8+9+0 . . ..N+a+b+_.5.k t.P+_.~+c .",
" . h ! ~ { ] j / ( _+d D . .+e+f.J+g+h+|+i+j+k T+l+m.J.J.J.J+n+o+p+q+r .+s+t+u+v t t.P+_.~+c Z .",
" . ! ~ { ] ^ / ( _ <+w+^ . . .+x+y+z+A+|+B+C+D+E+F+G.J.J.J.J+H+I+J+K+L .+M+:+N+O.P.P+_ &+c Z+v .",
" . ~ { ] ^ / ( _ : [ q+P . . . U+Q+R+S+|+|+T+U+V+W+X+Y.J.J.J+Z+`.J@ @. .+M@+.j@@ &+_ &+c Z+v@# .",
" . { ] ^ / ( _ : < |@$@% . . . .@&@*@=@-@;@>@,@'@)@!+7.J.J.J+#+@.J@~@{ .+M@]@^@/.~ &+c Z+v@#@( .",
" . ] ^ j ( _ : < [ 1@_@: . . . . F _@<@[@}+!@|./+H.t+{@1.J.J./.J@2@3 . .@4@5@^@/+c.~ Z+v@#@(@6 .",
" . ^ j ( _ : < k } 1+d@7+% - J N@8 0 ) 9.)@9@0@a@b.v.J@c./.J@d@e@f . . .@g@8.l+(+c Z+v@#@( n@h .",
" . j ( _ : < k } | 2 b@i@j > > ^@k@l ) % % n@m@n R@o@p@q@r@s . . . . ..7@g@t@u.)+v+v@#@( n@h.) .",
" . / _ : < k } | 1 2 7@v@w ) > > (.. ] % % ,@x@y@z k 6 [ b@A . . . . ..7@B@C@_ n+v@#@( n@h.)+O .",
" . _ : < k [ | 1 2@z 5. @D.P > > > % % % % > > > Z q o > >@E . . . . K.,@F@G o n@#@( n@6.)+O.. .",
" . : < k [ | 1 2@z 3 4 b@k = 4 > > % % % % > > > +.z Z > l.{@H@I@D@J B+^ =@K+(@(@( n@6.)+O..@L .",
" . < k [ | 1 2@z 3 4 5 8+v@t x h > % % % % > > > > > > :.4 $ q > ^ O C@8@M@N@h@( n@6.)+O..@L+( .",
" . k [ } 1 2@z 3 4 5 * 6 e q@F@u h % % % % > > > > > >@O@P.5 h ^+/.7@]@Q G@L n n@6@h+O..@L+(+d .",
" . [ } 1 2@z 3 + 5 * 6 7 l.! q@R@S H , % % > > > > > >+w | h Z@T@U@R@V@W s@6 n@6@h+O..@L+(@@@/ .",
" . } 1 2@z 3 + 5 * 6 7 8 0 d.P@K $+:@u d ) > > > > > > ~ P@X@Y+s@5@C@Z@`.) n@6@h+O..@L+(@@@/ Q .",
" . | 2@z 3 + 5 * 6 7 8 0 l a e+_ G# .+@F@S.z.~ f f.~@Z#..+ C z#+#@@u@`@h n@6@h.)..@L+(@@@/ Q s .",
" . 2@z 3 + 4 * 6 7 8 0 l a b c g.P###$@P+:.3 C@U B@U@4#%#&#*#=.j@$@/@h n@6@h.)..@L+(@@+d Q s@` .",
" .@z 3 + 4 * 6 7 8 9 l a b c d u i. @(#-@u Y#;+a#>#>#.@Q x#$@_@`+O@( n@6@h.)..@L+(@@+d Q s@`## .",
" . 3 + 4 * 6 7 8 9 l a b c d u f g i H.5 Z+(@N#,#' G@$#)##..@6@(@# n@6@h.)+O@L+(@@+d Q s@`##@O .",
" . + 4 5 6 7 8 9 l a b c d u f g i m H ` P.5.P &+c Z Z@#+v Z+v@# n@6@h.)+O@L+(@@+d@/ s@`##@O o .",
" . . . . . . . . . . . . . . . . . . . . . . . . . . . . . . . . . . . . . . . . . . . . . . . ."};
