/* XPM */
static char * file_dot_pl_xpm[] = {
"48 48 557 2",
"  	c None",
" .	c #000000",
" +	c #AAAAAA",
" @	c #FFFFFF",
" #	c #E5E5E5",
" $	c #717171",
" %	c #383838",
" &	c #E2E2E2",
" *	c #1C1C1C",
" =	c #C6C6C6",
" -	c #8D8D8D",
" ;	c #555555",
" >	c #FDFDFD",
" ,	c #FCFCFC",
" '	c #FBFBFB",
" )	c #FAFAFA",
" !	c #F8F8F8",
" ~	c #F7F7F7",
" {	c #F6F6F6",
" ]	c #F5F5F5",
" ^	c #F4F4F4",
" /	c #F2F2F2",
" (	c #F1F1F1",
" _	c #F0F0F0",
" :	c #EFEFEF",
" <	c #EEEEEE",
" [	c #ECECEC",
" }	c #EBEBEB",
" |	c #EAEAEA",
" 1	c #E9E9E9",
" 2	c #E8E8E8",
" 3	c #E6E6E6",
" 4	c #E4E4E4",
" 5	c #E3E3E3",
" 6	c #E1E1E1",
" 7	c #E0E0E0",
" 8	c #DFDFDF",
" 9	c #DEDEDE",
" 0	c #DDDDDD",
" a	c #DBDBDB",
" b	c #DADADA",
" c	c #D9D9D9",
" d	c #D8D8D8",
" e	c #D7D7D7",
" f	c #D5D5D5",
" g	c #D4D4D4",
" h	c #FCFCFA",
" i	c #FBFAF7",
" j	c #F8F7F3",
" k	c #F7F6F4",
" l	c #F8F8F7",
" m	c #D3D3D3",
" n	c #FEFEFB",
" o	c #FCFBF5",
" p	c #F5F2E7",
" q	c #DED6B4",
" r	c #BBAB84",
" s	c #937E5D",
" t	c #CFC6AD",
" u	c #DEDDDC",
" v	c #F3F3F3",
" w	c #DCDCDC",
" x	c #D2D2D2",
" y	c #EEE9D3",
" z	c #C5AC80",
" A	c #AC8954",
" B	c #9A713F",
" C	c #A27844",
" D	c #A2713F",
" E	c #968A6A",
" F	c #9E9E9D",
" G	c #EDEDED",
" H	c #E7E7E7",
" I	c #D6D6D6",
" J	c #D1D1D1",
" K	c #D1C9B2",
" L	c #83633A",
" M	c #8C5F30",
" N	c #AF8349",
" O	c #C39859",
" P	c #C09255",
" Q	c #998556",
" R	c #838380",
" S	c #EBE8DC",
" T	c #E4E1D6",
" U	c #E4E3DE",
" V	c #E2E2E1",
" W	c #D0D0D0",
" X	c #FEFEFE",
" Y	c #EDECEB",
" Z	c #ABAAA1",
" `	c #7F785B",
". 	c #534023",
"..	c #5B3C21",
".+	c #B3854E",
".@	c #967442",
".#	c #706F69",
".$	c #EDEDEC",
".%	c #EDECE6",
".&	c #CABB8D",
".*	c #9E7549",
".=	c #946D40",
".-	c #85623A",
".;	c #7C6846",
".>	c #C6BFAB",
".,	c #D7D7D4",
".'	c #CECECE",
".)	c #ABABAB",
".!	c #868683",
".~	c #715837",
".{	c #BA8E53",
".]	c #A87D45",
".^	c #7E7B69",
"./	c #B1B1B1",
".(	c #EEEDEA",
"._	c #E8E6DA",
".:	c #B39C74",
".<	c #AC864D",
".[	c #DDB383",
".}	c #DCB180",
".|	c #D3AA71",
".1	c #C39860",
".2	c #8B653D",
".3	c #A09272",
".4	c #C1C1BD",
".5	c #CFCFCF",
".6	c #CDCDCD",
".7	c #C4B99D",
".8	c #AE8850",
".9	c #BA9053",
".0	c #877A52",
".a	c #8D8D8C",
".b	c #EEEEED",
".c	c #EEEADF",
".d	c #D1BF97",
".e	c #B08E60",
".f	c #AA7F4B",
".g	c #BB9257",
".h	c #DAAF7A",
".i	c #D5AC73",
".j	c #D0A66F",
".k	c #BD9255",
".l	c #8B663A",
".m	c #9D8C6C",
".n	c #B8B7B4",
".o	c #CCCCCC",
".p	c #F9F9F9",
".q	c #E3DFD4",
".r	c #A07A46",
".s	c #C59D5D",
".t	c #956D3C",
".u	c #7B776D",
".v	c #CBCBCB",
".w	c #ECEAE5",
".x	c #BDA176",
".y	c #C1945C",
".z	c #D5AA73",
".A	c #D9B17C",
".B	c #D1AA6F",
".C	c #CFAA69",
".D	c #D3AA6F",
".E	c #D4AA6F",
".F	c #D3A86F",
".G	c #CCA464",
".H	c #B88E53",
".I	c #976C3D",
".J	c #99845D",
".K	c #BBB8B2",
".L	c #EBEAE5",
".M	c #A58C5D",
".N	c #BC8F54",
".O	c #C99D62",
".P	c #917146",
".Q	c #A38A66",
".R	c #B49469",
".S	c #C29661",
".T	c #DAB37A",
".U	c #E2BD8C",
".V	c #E5C694",
".W	c #DEBA85",
".X	c #DBB67C",
".Y	c #DAB67A",
".Z	c #DDB680",
".`	c #DEB583",
"+ 	c #DBB17C",
"+.	c #D4AC71",
"++	c #C99F62",
"+@	c #B3824C",
"+#	c #947548",
"+$	c #B7AE9A",
"+%	c #C8C8C7",
"+&	c #CACACA",
"+*	c #CAC3A9",
"+=	c #A7824B",
"+-	c #CEA16A",
"+;	c #CEA16C",
"+>	c #C5985F",
"+,	c #C89F62",
"+'	c #D4AE74",
"+)	c #DEB284",
"+!	c #E3BD8E",
"+~	c #E6C596",
"+{	c #E0BD8A",
"+]	c #DDB883",
"+^	c #E0B685",
"+/	c #E0B687",
"+(	c #E1BA8A",
"+_	c #E1B887",
"+:	c #DFB885",
"+<	c #DCB37F",
"+[	c #DDB380",
"+}	c #9D8256",
"+|	c #989791",
"+1	c #C2C2C2",
"+2	c #C9C9C9",
"+3	c #DBDAD6",
"+4	c #AC9A72",
"+5	c #B0834C",
"+6	c #CEA36A",
"+7	c #CFA669",
"+8	c #CBA566",
"+9	c #D6AC75",
"+0	c #DDB482",
"+a	c #E2BA8C",
"+b	c #E3BF8E",
"+c	c #D9AF7A",
"+d	c #DBB57F",
"+e	c #E0B887",
"+f	c #E0BA87",
"+g	c #DDB583",
"+h	c #DCB583",
"+i	c #E3C390",
"+j	c #B69159",
"+k	c #877F6A",
"+l	c #A4A4A3",
"+m	c #C8C8C8",
"+n	c #C9C8C0",
"+o	c #A48F62",
"+p	c #93693C",
"+q	c #AE834A",
"+r	c #B6874E",
"+s	c #C99B5F",
"+t	c #E2BB8C",
"+u	c #E1BD8A",
"+v	c #D4AA71",
"+w	c #D9AC7A",
"+x	c #DBB37F",
"+y	c #DFB585",
"+z	c #D3A66D",
"+A	c #C3985B",
"+B	c #E8C998",
"+C	c #CCA269",
"+D	c #866F47",
"+E	c #BEBEBE",
"+F	c #B4B3B1",
"+G	c #8D8569",
"+H	c #614829",
"+I	c #402913",
"+J	c #835C2F",
"+K	c #D1A86D",
"+L	c #E3BF8F",
"+M	c #E4C092",
"+N	c #D9AF75",
"+O	c #D3A871",
"+P	c #D1A86F",
"+Q	c #D1A66F",
"+R	c #CFA26B",
"+S	c #A26F3C",
"+T	c #A4713A",
"+U	c #E6C996",
"+V	c #D0A66B",
"+W	c #624625",
"+X	c #666660",
"+Y	c #C7C7C7",
"+Z	c #C5C5C5",
"+`	c #B6B6B6",
"@ 	c #797979",
"@.	c #636159",
"@+	c #513B1E",
"@@	c #4D3213",
"@#	c #CFA86D",
"@$	c #E2C38E",
"@%	c #B38553",
"@&	c #C59B5D",
"@*	c #C2965D",
"@=	c #BA8E51",
"@-	c #301F0C",
"@;	c #92603A",
"@>	c #E2BD8E",
"@,	c #C4985E",
"@'	c #7D6840",
"@)	c #55544F",
"@!	c #9F9F9F",
"@~	c #C4C4C4",
"@{	c #C4C4C2",
"@]	c #9C8861",
"@^	c #644024",
"@/	c #98693D",
"@(	c #493014",
"@_	c #986B35",
"@:	c #A07139",
"@<	c #926737",
"@[	c #94703F",
"@}	c #85693B",
"@|	c #67542C",
"@1	c #3F2F1A",
"@2	c #9D6F3E",
"@3	c #D9B583",
"@4	c #A07547",
"@5	c #60573F",
"@6	c #767059",
"@7	c #9B9B9B",
"@8	c #C3C3C3",
"@9	c #E6E6E4",
"@0	c #E0DAC6",
"@a	c #C2A270",
"@b	c #AF854E",
"@c	c #6F4925",
"@d	c #251404",
"@e	c #180C01",
"@f	c #867645",
"@g	c #887647",
"@h	c #6D674D",
"@i	c #5D5B4E",
"@j	c #494841",
"@k	c #4A4947",
"@l	c #84775A",
"@m	c #A47742",
"@n	c #6D4928",
"@o	c #574D36",
"@p	c #7C745D",
"@q	c #A4A298",
"@r	c #B9B9B9",
"@s	c #E7E5DD",
"@t	c #CDB688",
"@u	c #BE9865",
"@v	c #A18357",
"@w	c #787260",
"@x	c #636049",
"@y	c #533919",
"@z	c #3F2408",
"@A	c #6C6653",
"@B	c #494946",
"@C	c #585857",
"@D	c #6D6D6D",
"@E	c #858585",
"@F	c #9D9D9D",
"@G	c #B3AFA2",
"@H	c #9E7948",
"@I	c #C99D64",
"@J	c #6B4724",
"@K	c #503D21",
"@L	c #706F66",
"@M	c #888884",
"@N	c #A0A0A0",
"@O	c #C1C1C1",
"@P	c #B09972",
"@Q	c #A57A4A",
"@R	c #A49367",
"@S	c #53524C",
"@T	c #4B4B4B",
"@U	c #7B7B7A",
"@V	c #9B8C63",
"@W	c #7E5221",
"@X	c #665839",
"@Y	c #6A6A6A",
"@Z	c #CECDC7",
"@`	c #A07F4F",
"# 	c #B1854A",
"#.	c #623E19",
"#+	c #755023",
"#@	c #7A7767",
"##	c #868686",
"#$	c #AFAFAF",
"#%	c #C0C0C0",
"#&	c #CABD9D",
"#*	c #99794B",
"#=	c #5E5A4C",
"#-	c #515151",
"#;	c #A1A1A1",
"#>	c #C6C3BA",
"#,	c #805D30",
"#'	c #76542A",
"#)	c #797874",
"#!	c #CFCECE",
"#~	c #B7AA8A",
"#{	c #825C32",
"#]	c #694D29",
"#^	c #74522A",
"#/	c #926F40",
"#(	c #83817C",
"#_	c #B4B4B4",
"#:	c #D6D0BE",
"#<	c #A99064",
"#[	c #585752",
"#}	c #D2D2D1",
"#|	c #A89B76",
"#1	c #8D6433",
"#2	c #827A5D",
"#3	c #A7A7A7",
"#4	c #C5C3BB",
"#5	c #79582F",
"#6	c #6F6444",
"#7	c #666150",
"#8	c #7B572F",
"#9	c #867047",
"#0	c #AAA596",
"#a	c #BCBBBA",
"#b	c #BFBFBF",
"#c	c #BDBDBD",
"#d	c #D0C19B",
"#e	c #B8A988",
"#f	c #646462",
"#g	c #AEAEAE",
"#h	c #C3C2BF",
"#i	c #755029",
"#j	c #948461",
"#k	c #7C7C7C",
"#l	c #C9C9C8",
"#m	c #967A4F",
"#n	c #827957",
"#o	c #5F5F5E",
"#p	c #939081",
"#q	c #5C3D1B",
"#r	c #79613D",
"#s	c #95938D",
"#t	c #B5B5B5",
"#u	c #BCBCBC",
"#v	c #A99265",
"#w	c #AAA18A",
"#x	c #707070",
"#y	c #B4A277",
"#z	c #9F8755",
"#A	c #777673",
"#B	c #B7B7B7",
"#C	c #947B52",
"#D	c #968256",
"#E	c #737370",
"#F	c #AFA787",
"#G	c #7D5B35",
"#H	c #747066",
"#I	c #9C9C9C",
"#J	c #BBBBBB",
"#K	c #BBA577",
"#L	c #9F977F",
"#M	c #CAC7BD",
"#N	c #8E764A",
"#O	c #74736E",
"#P	c #A2A2A2",
"#Q	c #9F8356",
"#R	c #948155",
"#S	c #62625F",
"#T	c #B8B7AE",
"#U	c #896737",
"#V	c #7D7563",
"#W	c #888888",
"#X	c #BABABA",
"#Y	c #DEDFDF",
"#Z	c #E1E0DA",
"#`	c #AD8B62",
"$ 	c #968D74",
"$.	c #CFCECA",
"$+	c #A08B61",
"$@	c #828179",
"$#	c #979797",
"$$	c #D0D0CC",
"$%	c #A28250",
"$&	c #84806C",
"$*	c #5A5A5A",
"$=	c #A6A6A6",
"$-	c #C2C1BC",
"$;	c #9A7A4C",
"$>	c #7A715C",
"$,	c #777777",
"$'	c #C2D3D4",
"$)	c #AC9774",
"$!	c #946A42",
"$~	c #7B725F",
"${	c #767676",
"$]	c #D2D1CE",
"$^	c #AB9369",
"$/	c #9C9784",
"$(	c #8E8E8E",
"$_	c #CDCDCC",
"$:	c #CFCECC",
"$<	c #D1C8B1",
"$[	c #9F8557",
"$}	c #5D5D59",
"$|	c #C3C2C0",
"$1	c #B5A27A",
"$2	c #958668",
"$3	c #7A7A79",
"$4	c #B2B2B2",
"$5	c #B8B8B8",
"$6	c #B0C3D2",
"$7	c #6B859B",
"$8	c #405A72",
"$9	c #39464D",
"$0	c #828282",
"$a	c #D2D1CD",
"$b	c #AB9166",
"$c	c #A49A7D",
"$d	c #80807F",
"$e	c #CBCAC5",
"$f	c #B39569",
"$g	c #A19987",
"$h	c #585858",
"$i	c #C3C3C2",
"$j	c #BEB59B",
"$k	c #926E42",
"$l	c #7C7A73",
"$m	c #8B8B8B",
"$n	c #D0C4A4",
"$o	c #7F5E33",
"$p	c #9A9071",
"$q	c #727271",
"$r	c #B3B3B3",
"$s	c #CACAC9",
"$t	c #D0C9AF",
"$u	c #92673C",
"$v	c #747169",
"$w	c #C4C3C2",
"$x	c #BEAE8F",
"$y	c #885D32",
"$z	c #7D7663",
"$A	c #8F8F8F",
"$B	c #CBC4AD",
"$C	c #ADA07C",
"$D	c #858171",
"$E	c #717170",
"$F	c #B5B5B4",
"$G	c #CFCBBC",
"$H	c #A58E5D",
"$I	c #836035",
"$J	c #575550",
"$K	c #8A8A8A",
"$L	c #C7C6C1",
"$M	c #BBA87F",
"$N	c #A9976B",
"$O	c #4A4944",
"$P	c #7D7D7D",
"$Q	c #90908E",
"$R	c #686868",
"$S	c #818181",
"$T	c #B8B8B7",
"$U	c #C8C5BC",
"$V	c #AFA996",
"$W	c #817B6C",
"$X	c #474746",
"$Y	c #969696",
"$Z	c #BFBFBD",
"$`	c #ADABA4",
"% 	c #72716E",
"%.	c #5B5B5A",
"%+	c #838383",
"%@	c #B0B0B0",
"%#	c #9A9A9A",
" . . . . . . . . . . . . . . . . . . . . . . . . . . . . . . . . . . . . . . . . . . . . . . . .",
" . . . . . . . . . . . . . . . . . . . . . . . . . . . . . . . . . . . . . . . . . . . . + @ . .",
" . . # # # # # # # . . . . . . . . . . . . . . . . . . . . . . . . . . . . . . . . . . . + @ . .",
" . . # . . . . . # . . . . . . . . . . . . . . . . . . . . . . . . . . . . + $ % + % . . + @ . .",
" . . # . # # # . # . . . . . . . . . . . . . . . . . . . . . . . . . . . . @ & @ @ & * . + @ . .",
" . . # . . . . . # . . . . . . . . . . . . . . . . . . . . . . . . . . . . @ @ * * @ = . + @ . .",
" . . # . # # # . # . . . . . . . . . . . . . . . . . . . . . . . . . . . . @ + . . + @ . + @ . .",
" . . # . . . . . # . . . . . . . . . . . . . . . . . . . . . . . . . . . . @ & . . & @ . + @ . .",
" . . # . # # # . # . . . . . . . . . . . . . . . . . . . . . . . . % + $ . @ @ $ $ @ - . + @ . .",
" . . # . . . . . # . . . . . . . . . . . . . . . . . . . . . . . . ; @ + . @ = = @ + . . + @ . .",
" . . # # # # # # # . . . . . . . . . . . . . . . . . . . . . . . . . . . . @ + . . . . . . . . .",
" . . . . . . . . . . . . . . . . . . . . . . . . . . . . . . . . . . . . . @ + . . . . . . . . .",
" . . . . . . . . . . . . . . . . . . . . . . . . . . . . . . . . . . . . . . . . . . . . . . . .",
" . @ @ @ @ @ @ @ @ @ @ @ > , ' ) ! ~ { ] ^ / ( _ : < [ } | 1 2 3 # 4 5 6 7 8 9 0 a b c d e f g .",
" . @ @ @ @ @ @ @ @ @ @ h i j k l ~ { ] ^ / ( _ : < [ } | 1 2 3 # 4 5 & 7 8 9 0 a b c d e f g m .",
" . @ @ @ @ @ @ @ n o p q r s t u _ ] ^ v ( _ : < [ } | 1 2 3 # 4 5 & 7 8 9 0 w b c d e f g m x .",
" . @ @ @ @ @ @ @ y z A B C D E F 7 v v ( _ : < G } | 1 2 H # 4 5 & 7 8 9 0 w b c d e I g m x J .",
" . @ @ @ @ @ @ @ K L M N O P Q R I ( ( _ : < G } S T U V 5 4 5 & 6 8 9 0 w b c d e I g m x J W .",
" . @ @ @ @ @ @ X Y Z `. ...+.@.# = < _ : <.$.%.&.*.=.-.;.>., 9 6 8 9 0 w a c d e I g m x J W.' .",
" . @ @ @ @ @ X , ~ a.).!.~.{.].^./ 2 : <.(._.:.<.[.}.|.1.2.3.4 e 9 0 w a c d e I f m x J W.5.6 .",
" . @ @ @ @ X > ' ) ~ < 7.7.8.9.0.a 8.b.c.d.e.f.g.|.h.i.j.k.l.m.n f w a c d e I f m x J W.5.6.o .",
" . @ @ @ X > ' ).p ! ~ ].q.r.s.t.u.v.w.x.y.z.A.B.C.D.E.F.G.H.I.J.K W c d e I f m x J W.5.6.o.v .",
" . @ @ X > ' ).p ! ~ ] ^.L.M.N.O.P.Q.R.S.T.U.V.W.X.Y.Z.`+ +.+++@+#+$+% g I f g x J W.5.'.o.v+& .",
" . @ X > , ).p ! ~ { ^ v.b+*+=+-+;+>+,+'+)+!+~+{+]+^+/+(+_+:+<+[.F+}+|+1 m g x J W.5.'.o.v+&+2 .",
" . X > , ).p ! ~ { ^ v / _+3+4+5+6+7+8+9+0+a+b+c+d+^+e+:+e+f+g+h+i+j+k+l.o x J W.5.'.o.v+&+2+m .",
" . > , ).p ! ~ { ^ v / ( _ 2+n+o+p+q+r+s.`+t+u+v+w+x+d.Z+^+y+z+A+B+C+D R+E W W.5.'.6.v+&+2+m = .",
" . , '.p ! ~ { ] v / ( _ < G 6+F+G+H+I+J+K+L+M+N.D.F+O+P+Q+R+S+T+U+V+W+X +.o.5.'.6.v+&+2+m+Y+Z .",
" . '.p ! ~ { ] v / ( _ : G [ | 0+`@ @.@+@@@#@$@%++@&@*+A@= M@-@;@>@,@'@)@!+&.'.6.v+&+2+m+Y+Z@~ .",
" ..p ! ~ { ] v / ( _ : G [ } | 1 6 m@{@]@^+w@/@(@_@:@<@[@}@|@1@2@3@4@5@6@7 =.6.o+&+2+m+Y+Z@~@8 .",
" . ! ~ { ] ^ / ( _ : G [ } | 1 H 3@9@0@a@b@c@d@e@f@g@h@i@j@k@l@m+O@n@o@p@q@r+&+&+2+m+Y =@~@8+1 .",
" . ~ { ] ^ / ( _ : < [ } | 1 H 3@s@t@u@v@w@x@y@z@A@B@C@D@E@F@G@H@I@J@K@L@M@N+1+2+m+Y =@~@8+1@O .",
" . { ] ^ / ( _ : < [ } | 1 2 3 #@P@Q@R@S@T@U@V@W@X@Y +@O+m.6@Z@`# #.#+#@###$+Z+m+Y =@~@8+1@O#% .",
" . ] ^ v ( _ : < [ } | 1 2 3 # 4#&#*#=#-#;+m#>#,#'#)#% m g m#!#~#{#]#^#/#(#_ =+Y =+Z@8+1@O#%+E .",
" . ^ v ( _ : < G } | 1 2 3 # 4 5#:#<#[ -.6 a#}#|#1#2#3.5 m x W#4#5#6#7#8#9#0#a@~+Z@8+1@O#%#b#c .",
" . v ( _ : < G } | 1 2 H # 4 5 &#d#e#f#g I b e#h#i#j#k@~ x J W#l#m#n#o#p#q#r#s#t@O+1@O#%#b#c#u .",
" . / _ : < G } | 1 2 H # 4 5 & 6#v#w#x#b c c d J#y#z#A#B.5 W.'.v#C#D#E F#F#G#H#I#c@O#%#b#c#u#J .",
" . _ : < G [ | 1 2 H # 4 5 & 6 8#K#L@ +m c d e I#M#N#O#P.v.'.6.o#Q#R#S#;#T#U#V#W@r#%#b+E#u#J#X .",
" . : < G [ | 1 2 H 3 4 5 & 6#Y#Z#`$ @ +Y d e I f$.$+$@$#+Y.6.o$$$%$&$*$=$-$;$>$,#_#b+E#u#J#X@r .",
" . < G [ | 1 2 H 3 4 5 & 6 7$'$)$!$~${+Y e I f m$]$^$/$(@O$_$:$<$[$}${#_$|$1$2$3$4+E#u#J#X@r$5 .",
" . G [ } 1 2 H 3 4 5 & 6 7 9$6$7$8$9$0+2 I f g x$a$b$c$d#X+&$e$f$g$h@7#b$i$j$k$l$=#J#J#X@r$5+` .",
" . [ } 1 2 H 3 # 5 & 6 7 9 0 I#t$($m#_ W f g x J$n$o$p$q$r$s$t$u$v${$r+1$w$x$y$z$A#t#X@r$5#B#t .",
" . } 1 2 H 3 # 5 & 6 7 8 0 w b g.6.o J f g x J W$B$C$D$E$F$G$H$I$J$K#u+1$L$M$N$O$P./@r$5#B#t#_ .",
" . | 2 H 3 # 5 & 6 7 8 0 w a b c e I f g m J W.5$i$Q$R$S$T$U$V$W$X$Y#c#%$Z$`% %.$Y#_$5#B#t#_$r .",
" . 2 H 3 # 4 & 6 7 8 0 w a b c e I f g m J W.5.'+&#J#$#B@8#c@!%+##%@+E#b#u%@%##I%@#B#B+`#_$r$4 .",
" . H 3 # 4 & 6 7 8 9 w a b c d I f g m J W.5.'.6.v+&+Y+Y+Y@8#c@r$5+E#b+E#c#J+`+`$5#B+`#_$r$4./ .",
" . 3 # 4 & 6 7 8 9 w a b c d I f g m x W.5.'.6.v+&+2+m+Y+Z@~@8+1@O#b+E#c#u#J@r$5#B+`#_$r$4./%@ .",
" . # 4 5 6 7 8 9 w a b c d I f g m x W.5.'.6.o+&+2+m+Y+Z@~@8+1@O#b+E#c#u#J@r$5#B+`#t$r$4./%@#$ .",
" . . . . . . . . . . . . . . . . . . . . . . . . . . . . . . . . . . . . . . . . . . . . . . . ."};
