/* XPM */
static char * file_dot_rc_xpm[] = {
"48 48 279 2",
"  	c None",
". 	c #000000",
"+ 	c #E5E5E5",
"@ 	c #AAAAAA",
"# 	c #717171",
"$ 	c #383838",
"% 	c #FFFFFF",
"& 	c #C6C6C6",
"* 	c #E2E2E2",
"= 	c #555555",
"- 	c #1C1C1C",
"; 	c #8D8D8D",
"> 	c #FDFDFD",
", 	c #FCFCFC",
"' 	c #FBFBFB",
") 	c #FAFAFA",
"! 	c #F8F8F8",
"~ 	c #F7F7F7",
"{ 	c #F6F6F6",
"] 	c #F5F5F5",
"^ 	c #F4F4F4",
"/ 	c #F2F2F2",
"( 	c #F1F1F1",
"_ 	c #F0F0F0",
": 	c #EFEFEF",
"< 	c #EEEEEE",
"[ 	c #ECECEC",
"} 	c #EBEBEB",
"| 	c #EAEAEA",
"1 	c #E9E9E9",
"2 	c #E8E8E8",
"3 	c #E6E6E6",
"4 	c #E4E4E4",
"5 	c #E3E3E3",
"6 	c #E1E1E1",
"7 	c #E0E0E0",
"8 	c #DFDFDF",
"9 	c #DEDEDE",
"0 	c #DDDDDD",
"a 	c #DBDBDB",
"b 	c #DADADA",
"c 	c #D9D9D9",
"d 	c #D8D8D8",
"e 	c #D7D7D7",
"f 	c #D5D5D5",
"g 	c #D4D4D4",
"h 	c #F9F9F9",
"i 	c #D3D3D3",
"j 	c #F3F3F3",
"k 	c #DCDCDC",
"l 	c #D2D2D2",
"m 	c #D6D6D6",
"n 	c #D1D1D1",
"o 	c #FEFEFE",
"p 	c #B2B2B2",
"q 	c #CCCCCC",
"r 	c #D0D0D0",
"s 	c #696969",
"t 	c #B0B0B0",
"u 	c #CECECE",
"v 	c #434343",
"w 	c #A0A0A0",
"x 	c #CFCFCF",
"y 	c #CDCDCD",
"z 	c #3D3D3D",
"A 	c #9D9D9D",
"B 	c #757575",
"C 	c #3C3C3C",
"D 	c #9C9C9C",
"E 	c #CBCBCB",
"F 	c #9B9B9B",
"G 	c #CACACA",
"H 	c #3B3B3B",
"I 	c #C9C9C9",
"J 	c #9A9A9A",
"K 	c #C8C8C8",
"L 	c #E7E7E7",
"M 	c #999999",
"N 	c #C7C7C7",
"O 	c #C5C5C5",
"P 	c #3A3A3A",
"Q 	c #979797",
"R 	c #C4C4C4",
"S 	c #EDEDED",
"T 	c #969696",
"U 	c #C3C3C3",
"V 	c #393939",
"W 	c #C2C2C2",
"X 	c #959595",
"Y 	c #C1C1C1",
"Z 	c #737373",
"` 	c #434330",
" .	c #38381F",
"..	c #54543B",
"+.	c #232212",
"@.	c #322F1B",
"#.	c #545343",
"$.	c #C0C0C0",
"%.	c #C6C4AA",
"&.	c #E4E29C",
"*.	c #1D1C0E",
"=.	c #494728",
"-.	c #CFCC74",
";.	c #5B5934",
">.	c #18170B",
",.	c #17170C",
"'.	c #3B3A20",
").	c #BEBEBE",
"!.	c #C8C7BD",
"~.	c #F0EEAF",
"{.	c #F7F4C8",
"].	c #797749",
"^.	c #BFBC65",
"/.	c #F0EDAB",
"(.	c #F1EDAE",
"_.	c #2F2E18",
":.	c #15140A",
"<.	c #5E5D4C",
"[.	c #525246",
"}.	c #919188",
"|.	c #BFBFBF",
"1.	c #BDBDBD",
"2.	c #CBCBC3",
"3.	c #7B7962",
"4.	c #CDCA74",
"5.	c #F5F2B8",
"6.	c #F0EDAD",
"7.	c #EDE8A2",
"8.	c #E8E397",
"9.	c #DFDA8A",
"0.	c #35341C",
"a.	c #36361D",
"b.	c #252514",
"c.	c #16160B",
"d.	c #13130A",
"e.	c #44442E",
"f.	c #BCBCBC",
"g.	c #CDC98A",
"h.	c #F6F4BF",
"i.	c #EEECA7",
"j.	c #E9E59C",
"k.	c #E3DF92",
"l.	c #D8D583",
"m.	c #C8C56D",
"n.	c #D7D682",
"o.	c #727045",
"p.	c #2D2B1A",
"q.	c #A3A3A1",
"r.	c #BBBBBB",
"s.	c #E4DF95",
"t.	c #F0EBA7",
"u.	c #EBE8A2",
"v.	c #E6E195",
"w.	c #E0DB8D",
"x.	c #D4D17D",
"y.	c #D2CC75",
"z.	c #D0CB73",
"A.	c #C7C26C",
"B.	c #BEB965",
"C.	c #B9B45D",
"D.	c #434124",
"E.	c #19180C",
"F.	c #65655A",
"G.	c #BABABA",
"H.	c #C6C6C4",
"I.	c #C5BF68",
"J.	c #DDD888",
"K.	c #C5C168",
"L.	c #404023",
"M.	c #BDB860",
"N.	c #BAB561",
"O.	c #B6AE57",
"P.	c #938E4D",
"Q.	c #292916",
"R.	c #7D7D7B",
"S.	c #B9B9B9",
"T.	c #C3C3B3",
"U.	c #DFDC8C",
"V.	c #D9D482",
"W.	c #D4CE79",
"X.	c #938F4E",
"Y.	c #3E3C21",
"Z.	c #A29F51",
"`.	c #B0AB55",
" +	c #A19E50",
".+	c #7F7D4A",
"++	c #3E3D21",
"@+	c #B8B8B8",
"#+	c #EAE9A6",
"$+	c #D7D47C",
"%+	c #C9C56E",
"&+	c #A49F51",
"*+	c #585733",
"=+	c #31301A",
"-+	c #68653D",
";+	c #ACA953",
">+	c #8C8B4D",
",+	c #82804B",
"'+	c #565631",
")+	c #31311A",
"!+	c #403D21",
"~+	c #63633A",
"{+	c #B6B6B6",
"]+	c #686532",
"^+	c #CBC670",
"/+	c #C4BE67",
"(+	c #BDB560",
"_+	c #9E994F",
":+	c #1A1A0D",
"<+	c #86844B",
"[+	c #99954E",
"}+	c #797848",
"|+	c #717044",
"1+	c #69693E",
"2+	c #51512E",
"3+	c #575632",
"4+	c #7D7D73",
"5+	c #B7B7B7",
"6+	c #B5B5B5",
"7+	c #A2A2A2",
"8+	c #111111",
"9+	c #090909",
"0+	c #080808",
"a+	c #14140E",
"b+	c #434127",
"c+	c #48472A",
"d+	c #B3AD56",
"e+	c #A4A151",
"f+	c #ADAA54",
"g+	c #B5B25A",
"h+	c #747245",
"i+	c #6B6940",
"j+	c #65633A",
"k+	c #514F2E",
"l+	c #383527",
"m+	c #B4B4B4",
"n+	c #595840",
"o+	c #98954F",
"p+	c #8D8A4E",
"q+	c #84824B",
"r+	c #787849",
"s+	c #6F6E42",
"t+	c #67653C",
"u+	c #5F5D36",
"v+	c #1F1F10",
"w+	c #5B5A49",
"x+	c #B3B3B3",
"y+	c #AEAEAE",
"z+	c #9E9E9E",
"A+	c #949494",
"B+	c #939393",
"C+	c #929292",
"D+	c #7B7B63",
"E+	c #757446",
"F+	c #767547",
"G+	c #6A693F",
"H+	c #636138",
"I+	c #595732",
"J+	c #514E2E",
"K+	c #454326",
"L+	c #272714",
"M+	c #605F4D",
"N+	c #7B7B67",
"O+	c #626158",
"P+	c #676753",
"Q+	c #585833",
"R+	c #54522F",
"S+	c #35351C",
"T+	c #2C2B17",
"U+	c #383A1F",
"V+	c #6E6D57",
"W+	c #B1B1B1",
"X+	c #9D9D9A",
"Y+	c #444125",
"Z+	c #403F23",
"`+	c #3F3D2B",
" @	c #56564B",
".@	c #959593",
"+@	c #AFAFAF",
". . . . . . . . . . . . . . . . . . . . . . . . . . . . . . . . . . . . . . . . . . . . . . . . ",
". . . . . . . . . . . . . . . . . . . . . . . . . . . . . . . . . . . . . . . . . . . . . . . . ",
". . + + + + + + + . . . . . . . . . . . . . . . . . . . . . . . . . . . . . . . . . . . . . . . ",
". . + . . . . . + . . . . . . . . . . . . . . . . . . . . . . . . . . . @ # . # . . # @ $ . . . ",
". . + . + + + . + . . . . . . . . . . . . . . . . . . . . . . . . . . . % & * @ . * % % % $ . . ",
". . + . . . . . + . . . . . . . . . . . . . . . . . . . . . . . . . . . % % # $ # * = . * @ . . ",
". . + . + + + . + . . . . . . . . . . . . . . . . . . . . . . . . . . . % & . . @ @ . . . . . . ",
". . + . . . . . + . . . . . . . . . . . . . . . . . . . . . . . . . . . % @ . . @ & - . # # . . ",
". . + . + + + . + . . . . . . . . . . . . . . . . . . . . . . . $ @ # . % @ . . # % @ = * ; . . ",
". . + . . . . . + . . . . . . . . . . . . . . . . . . . . . . . = % @ . % @ . . . ; * % & . . . ",
". . + + + + + + + . . . . . . . . . . . . . . . . . . . . . . . . . . . . . . . . . . . . . . . ",
". . . . . . . . . . . . . . . . . . . . . . . . . . . . . . . . . . . . . . . . . . . . . . . . ",
". . . . . . . . . . . . . . . . . . . . . . . . . . . . . . . . . . . . . . . . . . . . . . . . ",
". % % % % % % % % % % % > , ' ) ! ~ { ] ^ / ( _ : < [ } | 1 2 3 + 4 5 6 7 8 9 0 a b c d e f g . ",
". % % % % % % % % % % > , ' ) h ~ { ] ^ / ( _ : < [ } | 1 2 3 + 4 5 * 7 8 9 0 a b c d e f g i . ",
". % % % % % % % % % > , ' ) h ~ { ] ^ j ( _ : < [ } | 1 2 3 + 4 5 * 7 8 9 0 k b c d e f g i l . ",
". % % % % % % % % > , ' ) h ~ { . . . . . . . . . . . . . . . . . . c k 0 k b c d e m g i l n . ",
". % % % % % % % o , ' ) h ! { . . % % % % % % % % % % % % % % % % . p q b b c d e m g i l n r . ",
". % % % % % % o , ' ) h ! { . % . % % % % % % % % % % % % % % % % . s t g c d e m g i l n r u . ",
". % % % % % o , ' ) h ! { . . . . % % % % % % % % % % % % % % % % . v w n d e m f i l n r x y . ",
". % % % % o > ' ) h ! ~ j . % % % % % % % % % % % % % % % % % % % . z A r e m f i l n r x y q . ",
". % % % o > ' ) h ! ~ ] < . % % B B % B B B % B % B B B B % B % % . C D x m f i l n r x y q E . ",
". % % o > ' ) h ! ~ ] ^ } . % % % % % % % % % % % % % % % % % % % . C F u f g l n r x u q E G . ",
". % o > , ) h ! ~ { ^ j 1 . % % B % B B B % B B B B % B B % B % % . H F y g l n r x u q E G I . ",
". o > , ) h ! ~ { ^ j / 2 . % % % % % % % % % % % % % % % % % % % . H J q l n r x u q E G I K . ",
". > , ) h ! ~ { ^ j / ( L . % % B B B B % B % B B % % B B B % % % . H M E n r x u y E G I K & . ",
". , ' h ! ~ { ] j / ( _ + . % % % % % % % % % % % % % % % % % % % . H M I r x u y E G I K N O . ",
". ' h ! ~ { ] j / ( _ : 4 . % % % B % B B B B % B % B B B % B % % . P Q K x u y E G I K N O R . ",
". h ! ~ { ] j / ( _ : S 5 . % % % % % % % % % % % % % % % % % % % . P T N u y q G I K N O R U . ",
". ! ~ { ] ^ / ( _ : S [ * . % % B % B B B % B B % B B B % B % % % . V T & y q G I K N & R U W . ",
". ~ { ] ^ / ( _ : < [ } 6 . % % % % % % % % % % % % % % % % % % % . V X O q G I K N & R U W Y . ",
". { ] ^ / ( _ : < [ } | 7 . % % B B % B B B B % B % B B Z 9 `  ...+.@.#.R E I K N & R U W Y $.. ",
". ] ^ j ( _ : < [ } | 1 8 . % % % % % % % % % % % % , %.&.*.=.-.;.>.,.'.$.I K N & O U W Y $.).. ",
". ^ j ( _ : < S } | 1 2 0 . % % B B B B % B % B B B !.~.{.].^./.(._.:.:.<.[.}.& O U W Y $.|.1.. ",
". j ( _ : < S } | 1 2 L k . % % % % % % % % % % % 2.3.4.5.6.7.8.9.0.a.b.c.d.e.|.U W Y $.|.1.f.. ",
". / _ : < S } | 1 2 L + a . % % B B B % B B B % B g.h.5.i.j.k.9.l.m.n.o.:.:.p.q.W Y $.|.1.f.r.. ",
". _ : < S [ | 1 2 L + 4 b . % % % % % % % % % % % s.t.u.v.w.x.y.z.A.B.C.D.E.F.W Y $.|.).f.r.G.. ",
". : < S [ | 1 2 L 3 4 5 b . % % % % % % % % % % % H.I.k.J.K.L.D.M.N.O.P.Q.d._.R.$.|.).f.r.G.S.. ",
". < S [ | 1 2 L 3 4 5 * c . % % % % % % % % % % % T.U.V.W.X.Y.Q.Z.`. +.+d.d.:.++|.).f.r.G.S.@+. ",
". S [ } 1 2 L 3 4 5 * 6 d . % % % % % % % % % % % #+$+z.%+&+*+=+-+;+>+,+'+)+!+~+).1.r.G.S.@+{+. ",
". [ } 1 2 L 3 + 5 * 6 7 m . . . . . . . . . . . . ]+^+/+(+O._+:+<+[+}+|+1+2+3+4+1.r.G.S.@+5+6+. ",
". } 1 2 L 3 + 5 * 6 7 8 m 7+v 8+9+0+0+0+0+0+0+0+0+a+b+c+d+e+f+m.g+h+i+j+k+0.l+1.r.G.S.@+5+6+m+. ",
". | 2 L 3 + 5 * 6 7 8 0 m t s v C H H H P P V V V $ $ n+o+p+q+r+s+t+u+2+v+:.w+f.G.S.@+5+6+m+x+. ",
". 2 L 3 + 4 * 6 7 8 0 k c I y+z+D J M M Q T T X A+B+C+D+E+F+|+G+H+I+J+K+L+M+@+G.S.@+5+{+m+x+p . ",
". L 3 + 4 * 6 7 8 9 k a b e l x u q E I K N & O U W Y 1.N+O+P+Q+R+S+T+U+V+S.G.S.@+5+{+m+x+p W+. ",
". 3 + 4 * 6 7 8 9 k a b c d m f g i l r x u y E G I K N O R X+Y+Z+`+ @.@r.r.S.@+5+{+m+x+p W+t . ",
". + 4 5 6 7 8 9 k a b c d m f g i l r x u y q G I K N O R U W Y |.).1.f.r.S.@+5+{+6+x+p W+t +@. ",
". . . . . . . . . . . . . . . . . . . . . . . . . . . . . . . . . . . . . . . . . . . . . . . . "};
