/* XPM */
static char * file_dot_java_xpm[] = {
"48 48 561 2",
"  	c None",
" .	c #000000",
" +	c #FFFFFF",
" @	c #AAAAAA",
" #	c #E5E5E5",
" $	c #555555",
" %	c #383838",
" &	c #717171",
" *	c #8D8D8D",
" =	c #C6C6C6",
" -	c #1C1C1C",
" ;	c #E2E2E2",
" >	c #FDFDFD",
" ,	c #FCFCFC",
" '	c #FBFBFB",
" )	c #FAFAFA",
" !	c #F8F8F8",
" ~	c #F7F7F7",
" {	c #F6F6F6",
" ]	c #F5F5F5",
" ^	c #F4F4F4",
" /	c #F2F2F2",
" (	c #F1F1F1",
" _	c #F0F0F0",
" :	c #EFEFEF",
" <	c #EEEEEE",
" [	c #ECECEC",
" }	c #EBEBEB",
" |	c #EAEAEA",
" 1	c #E9E9E9",
" 2	c #E8E8E8",
" 3	c #E6E6E6",
" 4	c #E4E4E4",
" 5	c #E3E3E3",
" 6	c #E1E1E1",
" 7	c #E0E0E0",
" 8	c #DFDFDF",
" 9	c #DEDEDE",
" 0	c #DDDDDD",
" a	c #DBDBDB",
" b	c #DADADA",
" c	c #D9D9D9",
" d	c #D8D8D8",
" e	c #D7D7D7",
" f	c #D5D5D5",
" g	c #D4D4D4",
" h	c #F9F9F9",
" i	c #D3D3D3",
" j	c #F3F3F3",
" k	c #DCDCDC",
" l	c #D2D2D2",
" m	c #F0EFEF",
" n	c #EFEEEE",
" o	c #EEEDED",
" p	c #ECD3D7",
" q	c #E68A95",
" r	c #E68995",
" s	c #E7B6BC",
" t	c #E6919E",
" u	c #E69DA7",
" v	c #E7DFE0",
" w	c #D6D6D6",
" x	c #D1D1D1",
" y	c #FEFEFE",
" z	c #EFE5E7",
" A	c #ECCACE",
" B	c #EBC5CB",
" C	c #EDE5E6",
" D	c #EAC4CA",
" E	c #E8B8BF",
" F	c #EAE2E4",
" G	c #E8E7E7",
" H	c #E7D8DA",
" I	c #E7BCC2",
" J	c #E5E1E2",
" K	c #D0D0D0",
" L	c #F2F1F2",
" M	c #EAB4BB",
" N	c #E67B88",
" O	c #EAB8BF",
" P	c #EAC4C9",
" Q	c #E8B1B9",
" R	c #EADCDE",
" S	c #E7E7E7",
" T	c #E6D7D9",
" U	c #E6DDDE",
" V	c #CECECE",
" W	c #EBB9C0",
" X	c #E14A5A",
" Y	c #EBCACF",
" Z	c #EDEAEA",
" `	c #E7959F",
". 	c #EADDDF",
"..	c #E8B4BB",
".+	c #E5E0E1",
".@	c #E8DDDF",
".#	c #CFCFCF",
".$	c #CDCDCD",
".%	c #EED3D7",
".&	c #E9A0AA",
".*	c #EDEDED",
".=	c #EBD5D8",
".-	c #EAC7CB",
".;	c #E9E1E2",
".>	c #E8B0B8",
".,	c #E5D8DA",
".'	c #E6DADB",
".)	c #CCCCCC",
".!	c #F0E7E8",
".~	c #EAB0B8",
".{	c #E8929D",
".]	c #E9B8BD",
".^	c #EAE7E7",
"./	c #E8C9CE",
".(	c #E8B7BD",
"._	c #E8D8DB",
".:	c #E5E4E4",
".<	c #E3E0E1",
".[	c #E5ACB4",
".}	c #E2D4D6",
".|	c #DFDDDD",
".1	c #CBCBCB",
".2	c #EED6D9",
".3	c #EBC8CD",
".4	c #E56A79",
".5	c #EDECEC",
".6	c #EBEAEA",
".7	c #E9B4BB",
".8	c #E9E2E3",
".9	c #E48793",
".0	c #E7C2C6",
".a	c #E5919D",
".b	c #E5D6D8",
".c	c #E3B8BF",
".d	c #E3B4BC",
".e	c #E1B9BE",
".f	c #E2ACB3",
".g	c #CACACA",
".h	c #EDDDDF",
".i	c #EDDEE0",
".j	c #E57280",
".k	c #ECEBEB",
".l	c #E9E8E8",
".m	c #E8B3BA",
".n	c #E8CDD1",
".o	c #E05464",
".p	c #E2808B",
".q	c #DE2C3D",
".r	c #E27C89",
".s	c #E5CDD0",
".t	c #E3B5BB",
".u	c #E3949F",
".v	c #E1B9BF",
".w	c #E17D89",
".x	c #E1CED0",
".y	c #C9C9C9",
".z	c #EDDFE1",
".A	c #ECE4E5",
".B	c #E78995",
".C	c #EBE8E9",
".D	c #E8C1C7",
".E	c #E48692",
".F	c #E05A69",
".G	c #E2727F",
".H	c #E05362",
".I	c #E4909B",
".J	c #E4ADB5",
".K	c #E3BABF",
".L	c #E399A3",
".M	c #DE5866",
".N	c #E1B1B7",
".O	c #DCDBDB",
".P	c #C8C8C8",
".Q	c #ECDDDF",
".R	c #ECE5E5",
".S	c #EBD9DC",
".T	c #E7A1AB",
".U	c #E9E7E7",
".V	c #E7E5E5",
".W	c #E3838F",
".X	c #DF4755",
".Y	c #E59DA6",
".Z	c #E25E6D",
".`	c #E47382",
"+ 	c #E4AAB1",
"+.	c #E5CCCF",
"++	c #E38792",
"+@	c #E3A2AA",
"+#	c #E29EA8",
"+$	c #DED7D8",
"+%	c #EAC9CF",
"+&	c #E9CFD2",
"+*	c #E6939D",
"+=	c #E57884",
"+-	c #DD313F",
"+;	c #DB1A29",
"+>	c #DE3E4E",
"+,	c #E17581",
"+'	c #E3BDC3",
"+)	c #E17D8A",
"+!	c #E26674",
"+~	c #E3D0D2",
"+{	c #E0DADB",
"+]	c #E3B7BC",
"+^	c #DCD9D9",
"+/	c #C7C7C7",
"+(	c #C5C5C5",
"+_	c #EBE8E8",
"+:	c #E9E3E4",
"+<	c #E6BCC1",
"+[	c #E26877",
"+}	c #DE2E40",
"+|	c #E37C89",
"+1	c #E2909A",
"+2	c #E2808C",
"+3	c #E3C2C7",
"+4	c #DDDBDC",
"+5	c #E1BFC4",
"+6	c #DDD2D4",
"+7	c #C4C4C4",
"+8	c #E9DDDF",
"+9	c #E6B3BA",
"+0	c #E7D6D8",
"+a	c #E6E3E3",
"+b	c #E6D4D6",
"+c	c #E15766",
"+d	c #DB1020",
"+e	c #E36576",
"+f	c #E27380",
"+g	c #E27E8B",
"+h	c #E2A1A9",
"+i	c #DDDBDB",
"+j	c #DED5D6",
"+k	c #E1AEB4",
"+l	c #DAD6D7",
"+m	c #C3C3C3",
"+n	c #E7DEDF",
"+o	c #E6B9BF",
"+p	c #E58F99",
"+q	c #E3818E",
"+r	c #E48E99",
"+s	c #DE3A4A",
"+t	c #DF4353",
"+u	c #E05F6D",
"+v	c #E3B7BD",
"+w	c #DECBCE",
"+x	c #DFBDC2",
"+y	c #C2C2C2",
"+z	c #E2E1E1",
"+A	c #E1E0E1",
"+B	c #E1C3C8",
"+C	c #D71E32",
"+D	c #DC4156",
"+E	c #DF5B6D",
"+F	c #E57988",
"+G	c #E2CDD0",
"+H	c #D9D3D6",
"+I	c #D1D1D2",
"+J	c #D0D0D1",
"+K	c #C1C1C1",
"+L	c #E3E3E5",
"+M	c #D8D6E3",
"+N	c #CECBDF",
"+O	c #C7C4DE",
"+P	c #C1BBDE",
"+Q	c #B59BCB",
"+R	c #982567",
"+S	c #A35EA6",
"+T	c #CC98B8",
"+U	c #E196A3",
"+V	c #E2B0B7",
"+W	c #E0C5C9",
"+X	c #D9D7D8",
"+Y	c #CAC8D9",
"+Z	c #776DC8",
"+`	c #4C40B9",
"@ 	c #4237B4",
"@.	c #5C53BE",
"@+	c #B4B0D2",
"@@	c #CFCED0",
"@#	c #C0C0C0",
"@$	c #D2CFE1",
"@%	c #8A82CD",
"@&	c #6155C2",
"@*	c #7B71CA",
"@=	c #A69FD5",
"@-	c #9F98D4",
"@;	c #9976BE",
"@>	c #97377F",
"@,	c #9F6EB7",
"@'	c #A56EB1",
"@)	c #AB65A5",
"@!	c #C1B2D1",
"@~	c #AD74AF",
"@{	c #B390C0",
"@]	c #ADA6D4",
"@^	c #6B60C3",
"@/	c #7066C4",
"@(	c #6A60C3",
"@_	c #584CBC",
"@:	c #2F23AE",
"@<	c #5449BC",
"@[	c #9F98CD",
"@}	c #BEBEBE",
"@|	c #C5C2DE",
"@1	c #6457C2",
"@2	c #4337B8",
"@3	c #675CC4",
"@4	c #7A6FC9",
"@5	c #6751BB",
"@6	c #6536A1",
"@7	c #774FB1",
"@8	c #7B5EBD",
"@9	c #623DAA",
"@0	c #6A4FB3",
"@a	c #6F53B7",
"@b	c #7B3892",
"@c	c #A391C9",
"@d	c #8178CA",
"@e	c #A29DD1",
"@f	c #CECDD5",
"@g	c #BEBBD7",
"@h	c #7D72C7",
"@i	c #7268C4",
"@j	c #938CCA",
"@k	c #4F44B9",
"@l	c #BFBFBF",
"@m	c #BDBDBD",
"@n	c #E2E2E3",
"@o	c #A59DD5",
"@p	c #574BBE",
"@q	c #6357C3",
"@r	c #8E83CC",
"@s	c #98539F",
"@t	c #AA78BA",
"@u	c #B6AFDB",
"@v	c #B892C4",
"@w	c #BF78A5",
"@x	c #D3BFCE",
"@y	c #D06582",
"@z	c #AC538F",
"@A	c #8F84CB",
"@B	c #7268C7",
"@C	c #A9A2D5",
"@D	c #D3D3D6",
"@E	c #B0ABD1",
"@F	c #A19AD0",
"@G	c #AAA5D1",
"@H	c #C1BFD3",
"@I	c #7369C6",
"@J	c #BCBCBC",
"@K	c #CECBE1",
"@L	c #988ED1",
"@M	c #5F52BF",
"@N	c #7566C4",
"@O	c #B9B4D7",
"@P	c #C2B2D1",
"@Q	c #B76198",
"@R	c #CEB3CC",
"@S	c #DB8798",
"@T	c #DDAEB7",
"@U	c #D7D5DB",
"@V	c #D5D4DD",
"@W	c #D5D5D7",
"@X	c #CBCAD5",
"@Y	c #9B93CE",
"@Z	c #BFBDD2",
"@`	c #B5B1D1",
"# 	c #BEBAD0",
"#.	c #B0ACD1",
"#+	c #BBBBBB",
"#@	c #B3AED8",
"##	c #5247BD",
"#$	c #938ACF",
"#%	c #BDB9D9",
"#&	c #C8C6DA",
"#*	c #C3B2D1",
"#=	c #B77DB0",
"#-	c #C4BDD6",
"#;	c #C0B5D3",
"#>	c #B4ACD6",
"#,	c #A49CD4",
"#'	c #BDB8D6",
"#)	c #D1D1D7",
"#!	c #D2D1D7",
"#~	c #BCB8D5",
"#{	c #BFBCD7",
"#]	c #958CCF",
"#^	c #A59FCF",
"#/	c #B4AFCE",
"#(	c #BABABA",
"#_	c #D0CEDD",
"#:	c #5A4EC1",
"#<	c #5347BD",
"#[	c #7F75CA",
"#}	c #978ED0",
"#|	c #978DD0",
"#1	c #988FD0",
"#2	c #9A90CF",
"#3	c #9F97D2",
"#4	c #A69FD4",
"#5	c #9C93D3",
"#6	c #AAA5D5",
"#7	c #C9C6D8",
"#8	c #D1D1D3",
"#9	c #D3D2D8",
"#0	c #877DCE",
"#a	c #8E84CE",
"#b	c #B5B1CF",
"#c	c #C9C9CB",
"#d	c #B9B9B9",
"#e	c #D6D4DE",
"#f	c #695EC4",
"#g	c #5045BC",
"#h	c #7A71C7",
"#i	c #9C94D0",
"#j	c #A39ED2",
"#k	c #A099D1",
"#l	c #9D95CF",
"#m	c #978DCE",
"#n	c #9289CF",
"#o	c #8174CB",
"#p	c #B8B5D6",
"#q	c #D0D0D6",
"#r	c #C7C4D5",
"#s	c #A7A1D2",
"#t	c #9F98D0",
"#u	c #C4C2D1",
"#v	c #CACACB",
"#w	c #B8B8B8",
"#x	c #DBDBDC",
"#y	c #867CCB",
"#z	c #3D30B5",
"#A	c #3D31B5",
"#B	c #463BB8",
"#C	c #4033B6",
"#D	c #4C40BA",
"#E	c #5548BD",
"#F	c #564BBD",
"#G	c #5448BD",
"#H	c #5549BD",
"#I	c #857DCB",
"#J	c #C8C5D8",
"#K	c #C9C8D4",
"#L	c #CCCAD5",
"#M	c #B6B6B6",
"#N	c #DEDEDF",
"#O	c #C1BDD9",
"#P	c #A59ED5",
"#Q	c #C8C5DD",
"#R	c #D5D4DC",
"#S	c #8A82CB",
"#T	c #483CB7",
"#U	c #372CB2",
"#V	c #3A2EB3",
"#W	c #3D30B4",
"#X	c #3A2EB2",
"#Y	c #4135B5",
"#Z	c #7269C7",
"#`	c #D0D0D5",
"$ 	c #C8C8C9",
"$.	c #B7B7B7",
"$+	c #B5B5B5",
"$@	c #DEDDE0",
"$#	c #A8A2D5",
"$$	c #796FC9",
"$%	c #8076CA",
"$&	c #C7C4DB",
"$*	c #D7D6DB",
"$=	c #D9D9DB",
"$-	c #D8D8DA",
"$;	c #D2D0DA",
"$>	c #BAB7D4",
"$,	c #A8A2CF",
"$'	c #A19BCF",
"$)	c #A49DCF",
"$!	c #A29DD0",
"$~	c #ACA7D2",
"${	c #C9C8D7",
"$]	c #CECECF",
"$^	c #CCCCCD",
"$/	c #C9C9CC",
"$(	c #C0BDCF",
"$_	c #C1BFD2",
"$:	c #B4B4B4",
"$<	c #B7B2D9",
"$[	c #7167C6",
"$}	c #887FCC",
"$|	c #736AC8",
"$1	c #8177CA",
"$2	c #8A82CC",
"$3	c #968DD0",
"$4	c #A79ED1",
"$5	c #B1ABD2",
"$6	c #B7B3D2",
"$7	c #B7B2D3",
"$8	c #B2ADD2",
"$9	c #ACA8D0",
"$0	c #9E98CF",
"$a	c #9A91CE",
"$b	c #A39DCD",
"$c	c #A8A3CC",
"$d	c #ACA7CC",
"$e	c #ADA7CF",
"$f	c #B5B0D2",
"$g	c #AFABCF",
"$h	c #ADA8CE",
"$i	c #C2BFD0",
"$j	c #C7C6CC",
"$k	c #BDBAD2",
"$l	c #B3B3B3",
"$m	c #D1CFDE",
"$n	c #B7B2D7",
"$o	c #9188D0",
"$p	c #6F64C4",
"$q	c #4235B6",
"$r	c #2F23AF",
"$s	c #3528B2",
"$t	c #3E30B5",
"$u	c #4D42B9",
"$v	c #554ABA",
"$w	c #4339B7",
"$x	c #3C30B5",
"$y	c #3629B2",
"$z	c #3428B1",
"$A	c #2E21AE",
"$B	c #2C20AD",
"$C	c #2B1FAD",
"$D	c #2D20AE",
"$E	c #392CB3",
"$F	c #6F64C2",
"$G	c #948CCA",
"$H	c #AAA3CF",
"$I	c #B4B1D0",
"$J	c #BDBBD0",
"$K	c #C3C2CF",
"$L	c #B2B2B2",
"$M	c #D9D9DA",
"$N	c #D7D7D9",
"$O	c #C9C7D8",
"$P	c #6B5FC4",
"$Q	c #483BBA",
"$R	c #6458C3",
"$S	c #8A81CA",
"$T	c #968ECC",
"$U	c #766CC9",
"$V	c #6054C3",
"$W	c #594CC0",
"$X	c #584CC0",
"$Y	c #5144BD",
"$Z	c #4A40BB",
"$`	c #4D41BC",
"% 	c #5D50C1",
"%.	c #877DCB",
"%+	c #B1ADCD",
"%@	c #C0BECF",
"%#	c #C9C8CF",
"%$	c #C5C5C7",
"%%	c #B1B1B1",
"%&	c #B0B0B0",
"%*	c #AFAFAF",
" . . . . . . . . . . . . . . . . . . . . . . . . . . . . . . . . . . . . . . . . . . . . . . . .",
" . . . . . . . . . . . . . . . . . . . . . . . . + @ . . . . . . . . . . . . . . . . . . . . . .",
" . . # # # # # # # . . . . . . . . . . . . . . . $ % . . . . . . . . . . . . . . . . . . . . . .",
" . . # . . . . . # . . . . . . . . . . . . . . . + @ . . & @ @ % . & @ . . % @ % . . @ @ @ . . .",
" . . # . # # # . # . . . . . . . . . . . . . . . + @ . * + = = + - & + & . * + - . ; + @ ; = . .",
" . . # . . . . . # . . . . . . . . . . . . . . . + @ . @ @ . $ + $ . + = . = @ . % @ & - * + . .",
" . . # . # # # . # . . . . . . . . . . . . . . . + @ . $ ; + @ + $ . @ + . + $ . . * + ; = + . .",
" . . # . . . . . # . . . . . . . . . . . . . . . + @ . + = . - + $ . $ + @ + . . $ + & . & + . .",
" . . # . # # # . # . . . . . . . . . . . % @ & . + @ . + = $ @ + $ . - + ; = . . $ + * $ ; + . .",
" . . # . . . . . # . . . . . . . . . . . $ + @ . + @ . @ + + * + $ . . * + & . . - ; + ; @ + . .",
" . . # # # # # # # . . . . . . . . . . . . . . . + @ . . . . . . . . . . . . . . . . . . . . . .",
" . . . . . . . . . . . . . . . . . . . . . . . @ + & . . . . . . . . . . . . . . . . . . . . . .",
" . . . . . . . . . . . . . . . . . . . . . . . . . . . . . . . . . . . . . . . . . . . . . . . .",
" . + + + + + + + + + + + > , ' ) ! ~ { ] ^ / ( _ : < [ } | 1 2 3 # 4 5 6 7 8 9 0 a b c d e f g .",
" . + + + + + + + + + + > , ' ) h ~ { ] ^ / ( _ : < [ } | 1 2 3 # 4 5 ; 7 8 9 0 a b c d e f g i .",
" . + + + + + + + + + > , ' ) h ~ { ] ^ j ( _ : < [ } | 1 2 3 # 4 5 ; 7 8 9 0 k b c d e f g i l .",
" . + + + + + + + + > , ' ) h ~ { ] ^ / _ m n o p q r s t u v 4 5 ; 7 8 9 0 k b c d e w g i l x .",
" . + + + + + + + y , ' ) h ! { ] ^ / z A B C D E F 1 2 G H I J ; 6 8 9 0 k b c d e w g i l x K .",
" . + + + + + + y , ' ) h ! { ] ^ L M N O C P Q R 1 2 S # 4 T U 6 8 9 0 k a c d e w g i l x K V .",
" . + + + + + y , ' ) h ! { ] ^ / W X Y o Z `. .. 2 S 3 4 5.+.@ 7 9 0 k a c d e w f i l x K.#.$ .",
" . + + + + y > ' ) h ! ~ ] ^ /.% N.& o.*.=.-.;.> S 3 4 5 ;.,.' 9 0 k a c d e w f i l x K.#.$.) .",
" . + + + y > ' ) h ! ~ ] ^ j.!.~.{ C.* [.].^./.(._.: 5 ;.<.[.}.| k a b d e w f i l x K.#.$.).1 .",
" . + + y > ' ) h ! ~ ] ^ j /.2.3.4.5 [.6.7.8.9.0.a.b ; 6.c.d.e.f a b d e w f g l x K.# V.).1.g .",
" . + y > , ) h ! ~ { ^ j / (.h.i.j.k }.l.m.n.o.p.q.r.s.t.u.v.w.x b d e w f g l x K.# V.).1.g.y .",
" . y > , ) h ! ~ { ^ j / ( _.z.A.B.C 1 G.D.E.F.G.H.I.J.K.L.M.N.O c e w f g l x K.# V.).1.g.y.P .",
" . > , ) h ! ~ { ^ j / ( _ <.Q.R.S.T.U.V.W.X.Y.Z.`+ +.+++@+#+$ c e w f g i x K.# V.$.1.g.y.P = .",
" . , ' h ! ~ { ] j / ( _ <.*.=+% |+&+*+=+-+;+>+,+'+)+!+~+{+]+^ e w f g i x K.# V.$.1.g.y.P+/+( .",
" . ' h ! ~ { ] j / ( _ :.* [+_..+: S.V+<+[+}+|+@+1+2+3 a+4+5+6 w f g i x K.# V.$.1.g.y.P+/+(+7 .",
" . h ! ~ { ] j / ( _ :.* [ } |+8+9+0+a+b+c+d+e+f+g+h+i b c+j+k+l g i l K.# V.$.).g.y.P+/+(+7+m .",
" . ! ~ { ] ^ / ( _ :.* [ } | 1 S+n+o+p+q+r+s+t+u.L+v.O c d e+w+x i l K.# V.$.).g.y.P+/ =+7+m+y .",
" . ~ { ] ^ / ( _ : < [ } | 1 S 3 # 4 5+z+A+B+C+D+E+F+G d e f f+H i+I+J.#.$.).g.y.P+/ =+7+m+y+K .",
" . { ] ^ / ( _ : < [ } | 1 2 3 #+L+M+N+O+P+Q+R+S+T+U+V+W+X w+Y+Z+`@ @.@+@@.1.y.P+/ =+7+m+y+K@# .",
" . ] ^ j ( _ : < [ } | 1 2 3 #@$@%@&@*@=@-@;@>@,@'@)@!@~@{@]@^@/@(@_@:@<@[.y.P+/ =+(+m+y+K@#@} .",
" . ^ j ( _ : <.* } | 1 2 3 # 4@|@1@2@3@4@5@6@7@8@9@0@a@b@c@d@e@f@g@h@i@j@k.P+/ =+(+m+y+K@#@l@m .",
" . j ( _ : <.* } | 1 2 S # 4 5@n@o@p@q@r@s@t@u@v@w@x@y@z@A@B@C@D@E@F@G@H@I+/ =+(+m+y+K@#@l@m@J .",
" . / _ : <.* } | 1 2 S # 4 5 ; 6 7@K@L@M@N@O@P@Q@R@S@T@U@V@W K@X@Y@Z@`# #. =+(+7+y+K@#@l@m@J#+ .",
" . _ : <.* [ | 1 2 S # 4 5 ; 6 8 9#@###$#%#&#*#=#-#;#>#,#'#)#!#~#{#]#^#/.y+(+7+y+K@#@l@}@J#+#( .",
" . : <.* [ | 1 2 S 3 4 5 ; 6 8 9 0#_#:#<#[#}#|#1#2#3#4#5#6#7#8#9#0#a#b#c+(+7+y+K@#@l@}@J#+#(#d .",
" . <.* [ | 1 2 S 3 4 5 ; 6 7 9 0 k#e#f#g#h#i#j#k#l#m#n#o#p#q#r#s#t#u#v+(+7+m+K@#@l@}@J#+#(#d#w .",
" ..* [ } 1 2 S 3 4 5 ; 6 7 9 0 k a#x#y#z#A#B#C#D#E#F#G#H#I#J#K#L#v+/+(+7+m+K@#@l@}@m#+#(#d#w#M .",
" . [ } 1 2 S 3 # 5 ; 6 7 9#N#e#O#P#Q#R#S#T#U#V#A#W#X#Y#Z#`.g.y+/ =+/$ +m+K@#@l@}@m#+#(#d#w$.$+ .",
" . } 1 2 S 3 # 5 ; 6 7 8$@$#$$$%$&$*$=$-$;$>$,$'$)$!$~${$].g.1$^$/$($_+/+7@l@}@m#+#(#d#w$.$+$: .",
" . | 2 S 3 # 5 ; 6 7 8 0$<$[$}$|$1$2$3$4$5$6$7$8$9$0$a$b$c$d$e$f$g$h$i$j$k@}@m@J#(#d#w$.$+$:$l .",
" . 2 S 3 # 4 ; 6 7 8 0 k$m$n$o$p$q$r$s$t$u$v$w$x$y$z$A$B$C$D$E$F$G$H$I$J$K@m@J#(#d#w$.#M$:$l$L .",
" . S 3 # 4 ; 6 7 8 9 k a b b$M$N$O$P$Q$R$S$T$U$V$W$X$Y$Z$`% %.%+%@%#%$+y@}@J#(#d#w$.#M$:$l$L%% .",
" . 3 # 4 ; 6 7 8 9 k a b c d w f g i l K.# V.$.1.g.y.P+/+(+7+m+y+K@l@}@m@J#+#d#w$.#M$:$l$L%%%& .",
" . # 4 5 6 7 8 9 k a b c d w f g i l K.# V.$.).g.y.P+/+(+7+m+y+K@l@}@m@J#+#d#w$.#M$+$l$L%%%&%* .",
" . . . . . . . . . . . . . . . . . . . . . . . . . . . . . . . . . . . . . . . . . . . . . . . ."};
