/* XPM */
static char * file_dot_aiff_xpm[] = {
"48 48 184 2",
"  	c None",
" .	c #040204",
" +	c #000000",
" @	c #545654",
" #	c #FCFEFC",
" $	c #545254",
" %	c #E5E5E5",
" &	c #1C1A1C",
" *	c #1C1E1C",
" =	c #A4A6A4",
" -	c #ACAAAC",
" ;	c #747274",
" >	c #E4E2E4",
" ,	c #DCDEDC",
" '	c #C4C6C4",
" )	c #747264",
" !	c #343634",
" ~	c #8C8E8C",
" {	c #FCFAFC",
" ]	c #F4F6F4",
" ^	c #F4F2F4",
" /	c #ECEEEC",
" (	c #E4E6E4",
" _	c #ECEAEC",
" :	c #D4D6D4",
" <	c #DCDADC",
" [	c #D4D2D4",
" }	c #CCCECC",
" |	c #F4F2E4",
" 1	c #F4E254",
" 2	c #F4E274",
" 3	c #BCAE44",
" 4	c #F4EAA4",
" 5	c #F4E694",
" 6	c #ECEADC",
" 7	c #F4DE5C",
" 8	c #ECE6D4",
" 9	c #ECE6BC",
" 0	c #CCCACC",
" a	c #F4E68C",
" b	c #746E54",
" c	c #BCAE3C",
" d	c #343234",
" e	c #ECE2A4",
" f	c #ECDE5C",
" g	c #A4A2A4",
" h	c #ECDE54",
" i	c #2C260C",
" j	c #CCC6A4",
" k	c #BCAA44",
" l	c #ECDA54",
" m	c #3C3A1C",
" n	c #F4EECC",
" o	c #BCB264",
" p	c #F4E684",
" q	c #D4CE8C",
" r	c #5C5624",
" s	c #B4B6B4",
" t	c #8C822C",
" u	c #6C6A64",
" v	c #CCBA44",
" w	c #3C3E34",
" x	c #ECE274",
" y	c #5C521C",
" z	c #A49E84",
" A	c #ECDE7C",
" B	c #F4EEDC",
" C	c #F4EEBC",
" D	c #F4EAB4",
" E	c #544E2C",
" F	c #F4E25C",
" G	c #545224",
" H	c #ACA27C",
" I	c #8C8644",
" J	c #D4D2C4",
" K	c #A4A27C",
" L	c #E4D674",
" M	c #343214",
" N	c #ECDA5C",
" O	c #7C722C",
" P	c #7C7A7C",
" Q	c #F4E264",
" R	c #6C6224",
" S	c #948A5C",
" T	c #C4B64C",
" U	c #645E24",
" V	c #C4BA6C",
" W	c #646664",
" X	c #ECDA7C",
" Y	c #CCC264",
" Z	c #D4C24C",
" `	c #ACA65C",
". 	c #746E2C",
"..	c #8C8234",
".+	c #C4BA44",
".@	c #9C8E34",
".#	c #ECDE64",
".$	c #E4D254",
".%	c #545244",
".&	c #D4D2B4",
".*	c #C4C2C4",
".=	c #F4EABC",
".-	c #DCCA54",
".;	c #A49A3C",
".>	c #94863C",
".,	c #DCCE4C",
".'	c #ECD654",
".)	c #646254",
".!	c #2C2E1C",
".~	c #DCD284",
".{	c #C4BA7C",
".]	c #BCBEBC",
".^	c #C4B644",
"./	c #948E34",
".(	c #B4AA3C",
"._	c #B4AA44",
".:	c #AC9E44",
".<	c #E4D654",
".[	c #24260C",
".}	c #4C461C",
".|	c #9C966C",
".1	c #C4BA54",
".2	c #C4B244",
".3	c #847A2C",
".4	c #8C7E2C",
".5	c #B4A63C",
".6	c #DCCA4C",
".7	c #544E1C",
".8	c #0C0A04",
".9	c #7C6E2C",
".0	c #C4BA4C",
".a	c #D4C65C",
".b	c #84762C",
".c	c #CCBE44",
".d	c #9C9E9C",
".e	c #9C9A9C",
".f	c #ECE29C",
".g	c #746E3C",
".h	c #E4CE4C",
".i	c #746A24",
".j	c #5C561C",
".k	c #D4C664",
".l	c #040604",
".m	c #E4D24C",
".n	c #141204",
".o	c #848284",
".p	c #7C7E7C",
".q	c #C4B664",
".r	c #0C0E0C",
".s	c #5C5E54",
".t	c #4C4A34",
".u	c #BCAA3C",
".v	c #4C4E34",
".w	c #141214",
".x	c #BCBABC",
".y	c #AC9E3C",
".z	c #ECDA64",
".A	c #141604",
".B	c #E4D26C",
".C	c #14160C",
".D	c #E4E2BC",
".E	c #444244",
".F	c #E4DAB4",
".G	c #D4CA74",
".H	c #DCDAB4",
".I	c #E4DA7C",
".J	c #CCC684",
".K	c #E4DE9C",
".L	c #E4DA9C",
".M	c #ACA23C",
".N	c #D4CEA4",
".O	c #4C421C",
".P	c #443A14",
".Q	c #DCD6B4",
".R	c #E4D67C",
".S	c #3C3A3C",
".T	c #949694",
".U	c #8C8A8C",
".V	c #5C5A5C",
".W	c #746A4C",
".X	c #ACAA8C",
".Y	c #B4B2B4",
".Z	c #1C1A0C",
".`	c #ACAEAC",
" . . . . . . . . . . . . . . . . . . . . . . . . . . . . . . . . . . . . . . . . . . . . . . . .",
" . . + + + + + + + + + . . . . . . . . . . . . . . . . . . . . . . . . @ # $ . $ # # . $ # # . .",
" . . + + + % + + % + + . . . . . . . . . . . . . . . . . . . . . . . . & @ * . = # * . = # * . .",
" . . + + + + % + + % + . . . . . . . . . . . . . . . . . . . = - = . . @ # @ ; > # - ; > # - . .",
" . . + + % + % + + % + . . . . . . . . . . . . . . . . . . , # - > ' . $ # @ ; > # - ) > # - . .",
" . . % % % + % + + % + . . . . . . . . . . . . . . . . . ! - ; * ~ # . @ # @ . - # . . - # . . .",
" . . % % % + % + + % + . . . . . . . . . . . . . . . . . . ~ # > ' # . $ # @ . = # . . = # . . .",
" . . + + % + % + + % + . . . . . . . . . . . . . . . . . $ # ) . ; # . @ # @ . - # . . - # . . .",
" . . + + + + % + + % + . . . . . . . . . . . . . . ! - ) @ # ~ $ > # . $ # @ . - # . . - # . . .",
" . . + + + % + + % + + . . . . . . . . . . . . . . @ # = & > # > - # . @ # @ . - # . . - # . . .",
" . . . . . . . . . . . . . . . . . . . . . . . . . . . . . . . . . . . . . . . . . . . . . . . .",
" . . . . . . . . . . . . . . . . . . . . . . . . . . . . . . . . . . . . . . . . . . . . . . . .",
" . . . . . . . . . . . . . . . . . . . . . . . . . . . . . . . . . . . . . . . . . . . . . . . .",
" . # # # # # # # # # # # { # ] { ] ] ] ^ ] / ^ / / / / ( _ ( ( ( > ( , > , , , , : < : : : : [ .",
" . # # # # # # # # # # # # { { { ] ] ] ] ^ ^ / ^ / _ _ / _ ( _ > ( > > , > , , < < < : < : [ [ .",
" . # # # # # # # # # # # { { { ] { ] ] ^ / ^ / / / _ _ ( _ ( ( ( > > , > , < , < : < : : [ : } .",
" . # # # # # # # # # # { { ] ] ] ^ ^ ^ ^ / / ^ _ _ _ ( _ ( ( > > > , , , , < < < : < : : [ [ [ .",
" . # # # # # # # # # { { { ] { ] ] ] ^ / | / 1 2 ( _ _ ( ( ( ( , > , > , , < : < : : : [ [ } } .",
" . # # # # # # # # { { ] { ] ] ^ ^ ^ / / / / 1 3 ! ( ( ( > > > > , , , < < < : < : [ [ [ [ } [ .",
" . # # # # # # # { { { { ] ] ] ^ ^ / 4 5 / 6 7 3 ! 8 9 ( > > > , , , < < < : < : : [ : } [ } 0 .",
" . # # # # # # { { ] ] ] ] ^ ^ ^ / ^ a 7 b , 1 c d e f g > , , > , < , < : : : : [ [ [ } } } } .",
" . # # # # # { # ] { { ] ] ^ | 4 9 / a h i j 1 k ! e l m > > , , < < < < : < : [ [ [ } [ } } 0 .",
" . # # # # { { { ] { ^ ^ ^ ^ n 1 o = p 7 i q 1 c d e 1 r s , , < < < : : : : [ [ } [ } } 0 0 0 .",
" . # # # # { ] { ] ] ] ^ ] / 8 1 t u 1 1 i q 1 v w x 1 y z A < , : < : < : [ [ [ [ } } 0 } 0 ' .",
" . # # { { { { ] ] ] ^ B C / D 1 t u 1 1 i q 1 1 E 7 F G H 1 I J < : : : [ [ } } } [ } 0 0 ' 0 .",
" . # # { ] { ] ] ] ^ ] 9 1 K p 1 t u 1 1 i L 7 1 M N 1 y K 1 O P : : : [ : } [ [ } } 0 } ' 0 ' .",
" . { { { { ] ] { ^ ^ / Q 1 R L 1 t S 1 h i h T 1 M N 7 U V 1 O W A X } [ [ [ } } } 0 0 ' 0 ' ' .",
" . # ] { ] ] ^ ^ p D ^ 2 1 U Y 1 Z ` 1 1.  7.. 1 M N 1.+ Z 1.@ ).#.$.% J.& J } } 0 0 ' 0 ' '.* .",
" . ] { ] ] { ^.= h.- K F 1.; l 7 1.>., c.@.'.. 1 M N 1 v 3 7 l.) 1 1.!.~ 7.{.] } 0 0 ' 0 ' '.* .",
" . { ] { ^ ] / 5 1 h I 1.^ 1 1./ 1.(.-._.:.<.. 1 O 7 1.^ 3 1.'.[ 1 1.} h 7 v.| 0 ' 0 ' '.* '.] .",
" . ] ] ^ 1 1 1 1.1 7.2 1.3 1 1.3 1 1.: k 7 1.3 1.2 1.3 v 3 1 l.[ 1 l.4 1.5.6 l 1 1 7 1 1.*.*.* .",
" . ] ] ].=.7.7.7.8.^ 1.^.9 1 1.3 1 7 y.0 1 l.8.a 1 1.3.'., 1.'.b 1 1.c 7 y !.7.7.7.7.7.7 ..].] .",
" . ^ ] ^ /.d.e.e.e.f 7.@.g 1.h.i 1 1.j.k 1 l.l X 1 1.3 1 1.4 l 1.6.9 1.m.n.o ' ~.o.p.p.p.p.*.] .",
" . ^ ^ ^ ^ ^ / / _ 6.q G.% 1.2.7 1 1 r.- 1 l . A 1 1 i 1 1.[.' 1 k U 1.,.r s 0 ' '.*.*.*.*.].] .",
" . ^ / / / / / _ _ ( :.s ~ 1 c.t l.m ..k 1 l.l A 1 1.n 7 1 i l 1.u.v l Z.w ' ' '.*.*.*.].].].x .",
" . / ^ ^ / / _ _ _ ( _ ( > 1.y d.z.m.r A 1.y.l X 1.h.A 1 1 i f 1.( d.B U.C 0 '.*.*.*.].*.].].x .",
" . / / / / _ _ ( ( _ > > >.D.n.E.#.m.r.F 1.b w A 1.4 * 1 1.[.G 7 R.! 0 d P '.*.*.].*.].].x.x.x .",
" . / ^ / _ _ _ _ ( ( ( > > > g 0.#.2.w.H 1.b W.I 7 t.) 1.u ..J 1.} ; ' ' '.*.*.*.*.].].].x.x s .",
" . / _ _ _ ( ( ( _ > > > , , , ,.K E d.H 1 O W.L 1 t.s.z.M d.N l.O.o ' '.* '.].].].*.x.x.x s.x .",
" . / / / ( _ _ ( ( > ( , > , , < < P g.H 1.P W.Q 1.4 @.R.u.S 0.T.l.U '.* '.].*.*.].].x.x s.x s .",
" . _ _ _ ( ( ( ( > > , > , , < , < : :.H 1.n.e.& 1 t.V.&.W ! 0 ' 0 '.* '.*.].*.].x.x.x s.x s s .",
" . / ( _ ( _ ( > > , > , , , < < < : < J.X ..].Q 7 M @ 0.d.e 0 ' '.*.*.*.*.].].].x.] s.x s s.Y .",
" . ( _ ( ( ( > > , > , , < < < : : : : [ 0 = }.& 1.Z.d 0 0 ' ' '.*.*.*.].].].].x.x s.x s s s.Y .",
" . _ ( _ ( > > > , > , , < < < : < : : [ } [ } J.d ..Y 0 ' 0 '.* '.].*.].*.].].x.x s.x s.Y s.` .",
" . ( ( > > > , > , , , < < : < : : [ [ [ } [ } 0 0 0 ' 0 ' '.* '.*.*.].].].x.x.x s.x s s.Y.Y.Y .",
" . ( ( ( > > , > , , < < : < : : [ [ [ [ } } } 0 } ' 0 ' ' '.*.*.*.].*.].x.] s.x s s s.Y.Y.Y.` .",
" . > ( > , > , , , < < < : : : [ : [ } } } } 0 0 ' 0 ' '.*.*.*.].].].].x.x.x s.x s s.Y.Y.`.`.Y .",
" . . . . . . . . . . . . . . . . . . . . . . . . . . . . . . . . . . . . . . . . . . . . . . . ."};
