/* XPM */
static char * file_dot_dat_xpm[] = {
"48 48 123 2",
"  	c None",
". 	c #000000",
"+ 	c #FFFFFF",
"@ 	c #E5E5E5",
"# 	c #555555",
"$ 	c #383838",
"% 	c #AAAAAA",
"& 	c #C6C6C6",
"* 	c #1C1C1C",
"= 	c #E2E2E2",
"- 	c #8D8D8D",
"; 	c #717171",
"> 	c #FDFDFD",
", 	c #FCFCFC",
"' 	c #FBFBFB",
") 	c #FAFAFA",
"! 	c #F8F8F8",
"~ 	c #F7F7F7",
"{ 	c #F6F6F6",
"] 	c #F5F5F5",
"^ 	c #F4F4F4",
"/ 	c #F2F2F2",
"( 	c #F1F1F1",
"_ 	c #F0F0F0",
": 	c #EFEFEF",
"< 	c #EEEEEE",
"[ 	c #ECECEC",
"} 	c #EBEBEB",
"| 	c #EAEAEA",
"1 	c #E9E9E9",
"2 	c #E8E8E8",
"3 	c #E6E6E6",
"4 	c #E4E4E4",
"5 	c #E3E3E3",
"6 	c #E1E1E1",
"7 	c #E0E0E0",
"8 	c #DFDFDF",
"9 	c #DEDEDE",
"0 	c #DDDDDD",
"a 	c #DBDBDB",
"b 	c #DADADA",
"c 	c #D9D9D9",
"d 	c #D8D8D8",
"e 	c #D7D7D7",
"f 	c #D5D5D5",
"g 	c #D4D4D4",
"h 	c #F9F9F9",
"i 	c #D3D3D3",
"j 	c #F3F3F3",
"k 	c #DCDCDC",
"l 	c #D2D2D2",
"m 	c #D6D6D6",
"n 	c #D1D1D1",
"o 	c #FEFEFE",
"p 	c #B2B2B2",
"q 	c #CCCCCC",
"r 	c #D0D0D0",
"s 	c #696969",
"t 	c #B0B0B0",
"u 	c #CECECE",
"v 	c #434343",
"w 	c #A0A0A0",
"x 	c #CFCFCF",
"y 	c #CDCDCD",
"z 	c #3D3D3D",
"A 	c #9D9D9D",
"B 	c #3C3C3C",
"C 	c #9C9C9C",
"D 	c #CBCBCB",
"E 	c #9B9B9B",
"F 	c #CACACA",
"G 	c #3B3B3B",
"H 	c #C9C9C9",
"I 	c #9A9A9A",
"J 	c #C8C8C8",
"K 	c #E7E7E7",
"L 	c #999999",
"M 	c #C7C7C7",
"N 	c #C5C5C5",
"O 	c #3A3A3A",
"P 	c #979797",
"Q 	c #C4C4C4",
"R 	c #EDEDED",
"S 	c #969696",
"T 	c #C3C3C3",
"U 	c #393939",
"V 	c #C2C2C2",
"W 	c #959595",
"X 	c #C1C1C1",
"Y 	c #949494",
"Z 	c #C0C0C0",
"` 	c #BEBEBE",
" .	c #939393",
"..	c #BFBFBF",
"+.	c #BDBDBD",
"@.	c #929292",
"#.	c #BCBCBC",
"$.	c #919191",
"%.	c #BBBBBB",
"&.	c #373737",
"*.	c #909090",
"=.	c #BABABA",
"-.	c #8F8F8F",
";.	c #B9B9B9",
">.	c #8E8E8E",
",.	c #B8B8B8",
"'.	c #363636",
").	c #B6B6B6",
"!.	c #B7B7B7",
"~.	c #B5B5B5",
"{.	c #A2A2A2",
"].	c #111111",
"^.	c #090909",
"/.	c #080808",
"(.	c #070707",
"_.	c #0E0E0E",
":.	c #B4B4B4",
"<.	c #5C5C5C",
"[.	c #B3B3B3",
"}.	c #AEAEAE",
"|.	c #9E9E9E",
"1.	c #B1B1B1",
"2.	c #AFAFAF",
". . . . . . . . . . . . . . . . . . . . . . . . . . . . . . . . . . . . . . . . . . . . . . . . ",
". . . . . . . . . . . . . . . . . . . . . . . . . . . . . . . . . . + . . . . . . . . . . . . . ",
". . @ @ @ @ @ @ @ . . . . . . . . . . . . . . . . . . . . . . . . . + . . . . . . . . # + . . . ",
". . @ . . . . . @ . . . . . . . . . . . . . . . . . . . . . . $ % $ + . . $ % % $ . . & + % . . ",
". . @ . . . . . @ . . . . . . . . . . . . . . . . . . . . . % + % & + . * = - ; + * . & + % . . ",
". . @ . + . + . @ . . . . . . . . . . . . . . . . . . . . $ = . . $ + . * $ . . & # . # + . . . ",
". . @ . . + . . @ . . . . . . . . . . . . . . . . . . . . # % . . . + . * - % % = # . # + . . . ",
". . @ . + . + . @ . . . . . . . . . . . . . . . . . . . . # & . . * + . - % * . % # . # + . . . ",
". . @ . . . . . @ . . . . . . . . . . . . . . . . . . # * $ + $ . ; + . % # . * = # . # + . . . ",
". . @ . . . . . @ . . . . . . . . . . . . . . . . . . + # . - + + % + . $ + & = % = . $ + & . . ",
". . @ @ @ @ @ @ @ . . . . . . . . . . . . . . . . . . . . . . . . . . . . . . . . . . . . . . . ",
". . . . . . . . . . . . . . . . . . . . . . . . . . . . . . . . . . . . . . . . . . . . . . . . ",
". . . . . . . . . . . . . . . . . . . . . . . . . . . . . . . . . . . . . . . . . . . . . . . . ",
". + + + + + + + + + + + > , ' ) ! ~ { ] ^ / ( _ : < [ } | 1 2 3 @ 4 5 6 7 8 9 0 a b c d e f g . ",
". + + + + + + + + + + > , ' ) h ~ { ] ^ / ( _ : < [ } | 1 2 3 @ 4 5 = 7 8 9 0 a b c d e f g i . ",
". + + + + + + + + + > , ' ) h ~ { ] ^ j ( _ : < [ } | 1 2 3 @ 4 5 = 7 8 9 0 k b c d e f g i l . ",
". + + + + + + + + > , ' ) h ~ { . . . . . . . . . . . . . . . . . . c k 0 k b c d e m g i l n . ",
". + + + + + + + o , ' ) h ! { . . + + + + + + + + + + + + + + + + . p q b b c d e m g i l n r . ",
". + + + + + + o , ' ) h ! { . + . + + + + + + + + + + + + + + + + . s t g c d e m g i l n r u . ",
". + + + + + o , ' ) h ! { . . . . + + + + + + + + + + + + + + + + . v w n d e m f i l n r x y . ",
". + + + + o > ' ) h ! ~ j . + + + + + + + + + + + + + + + + + + + . z A r e m f i l n r x y q . ",
". + + + o > ' ) h ! ~ ] < . + + + + + + + + + + + + + + + + + + + . B C x m f i l n r x y q D . ",
". + + o > ' ) h ! ~ ] ^ } . + + + + + + + + + + + + + + + + + + + . B E u f g l n r x u q D F . ",
". + o > , ) h ! ~ { ^ j 1 . + + + + + + + + + + + + + + + + + + + . G E y g l n r x u q D F H . ",
". o > , ) h ! ~ { ^ j / 2 . + + + + + + + + + + + + + + + + + + + . G I q l n r x u q D F H J . ",
". > , ) h ! ~ { ^ j / ( K . + + + + + + + + + + + + + + + + + + + . G L D n r x u y D F H J & . ",
". , ' h ! ~ { ] j / ( _ @ . + + + + + + + + + + + + + + + + + + + . G L H r x u y D F H J M N . ",
". ' h ! ~ { ] j / ( _ : 4 . + + + + + + + + + + + + + + + + + + + . O P J x u y D F H J M N Q . ",
". h ! ~ { ] j / ( _ : R 5 . + + + + + + + + + + + + + + + + + + + . O S M u y q F H J M N Q T . ",
". ! ~ { ] ^ / ( _ : R [ = . + + + + + + + + + + + + + + + + + + + . U S & y q F H J M & Q T V . ",
". ~ { ] ^ / ( _ : < [ } 6 . + + + + + + + + + + + + + + + + + + + . U W N q F H J M & Q T V X . ",
". { ] ^ / ( _ : < [ } | 7 . + + + + + + + + + + + + + + + + + + + . U Y Q D H J M & Q T V X Z . ",
". ] ^ j ( _ : < [ } | 1 8 . + + + + + + + + + + + + + + + + + + + . U Y T H J M & N T V X Z ` . ",
". ^ j ( _ : < R } | 1 2 0 . + + + + + + + + + + + + + + + + + + + . $  .X J M & N T V X Z ..+.. ",
". j ( _ : < R } | 1 2 K k . + + + + + + + + + + + + + + + + + + + . $ @.Z M & N T V X Z ..+.#.. ",
". / _ : < R } | 1 2 K @ a . + + + + + + + + + + + + + + + + + + + . $ $...& N Q V X Z ..+.#.%.. ",
". _ : < R [ | 1 2 K @ 4 b . + + + + + + + + + + + + + + + + + + + . &.*...N Q V X Z ..` #.%.=.. ",
". : < R [ | 1 2 K 3 4 5 b . + + + + + + + + + + + + + + + + + + + . &.-.` Q V X Z ..` #.%.=.;.. ",
". < R [ | 1 2 K 3 4 5 = c . + + + + + + + + + + + + + + + + + + + . &.>.+.T X Z ..` #.%.=.;.,.. ",
". R [ } 1 2 K 3 4 5 = 6 d . + + + + + + + + + + + + + + + + + + + . '.>.#.X Z ..` +.%.=.;.,.).. ",
". [ } 1 2 K 3 @ 5 = 6 7 m . . . . . . . . . . . . . . . . . . . . . '.- =.Z ..` +.%.=.;.,.!.~.. ",
". } 1 2 K 3 @ 5 = 6 7 8 m {.v ].^././././././././././.(.(.(.(.(.(._.G >.;...` +.%.=.;.,.!.~.:.. ",
". | 2 K 3 @ 5 = 6 7 8 0 m t s v B G G G O O U U U $ $ $ &.&.&.'.'.G <.L ;.` +.#.=.;.,.!.~.:.[.. ",
". 2 K 3 @ 4 = 6 7 8 0 k c H }.|.C I L L P S S W Y  .@.$.$.-.>.>.- -.I t #.+.#.=.;.,.!.).:.[.p . ",
". K 3 @ 4 = 6 7 8 9 k a b e l x u q D H J M & N T V X Z ..` +.#.%.=.=.#.+.#.=.;.,.!.).:.[.p 1.. ",
". 3 @ 4 = 6 7 8 9 k a b c d m f g i l r x u y D F H J M N Q T V X ..` +.#.%.;.,.!.).:.[.p 1.t . ",
". @ 4 5 6 7 8 9 k a b c d m f g i l r x u y q F H J M N Q T V X ..` +.#.%.;.,.!.).~.[.p 1.t 2.. ",
". . . . . . . . . . . . . . . . . . . . . . . . . . . . . . . . . . . . . . . . . . . . . . . . "};
