/* XPM */
static char * file_dot_f90_xpm[] = {
"48 48 239 2",
"  	c None",
" .	c #040204",
" +	c #000000",
" @	c #545554",
" #	c #FCFDFC",
" $	c #1C161C",
" %	c #747274",
" &	c #ACABAC",
" *	c #6C6A6C",
" =	c #A4A4A4",
" -	c #E5E5E5",
" ;	c #1C1E1C",
" >	c #DCDCDC",
" ,	c #8C8E8C",
" '	c #343234",
" )	c #E4E4E4",
" !	c #C4C6C4",
" ~	c #3C3A3C",
" {	c #CCCCCC",
" ]	c #F4F4F4",
" ^	c #ECECEC",
" /	c #D4D4D4",
" (	c #C4B6CC",
" _	c #BC91BC",
" :	c #D47AD4",
" <	c #DC72D4",
" [	c #CC7ECC",
" }	c #BCB6BC",
" |	c #CCC4CC",
" 1	c #D4C6D4",
" 2	c #CC92CC",
" 3	c #E46AE4",
" 4	c #F44EF4",
" 5	c #F446F0",
" 6	c #F43EF4",
" 7	c #EC3EE9",
" 8	c #EC42E7",
" 9	c #EC46E8",
" 0	c #BC5ABC",
" a	c #AC82A4",
" b	c #ECE6EC",
" c	c #C4A2C4",
" d	c #EC64EC",
" e	c #F44AEC",
" f	c #E43EDC",
" g	c #DC3AD2",
" h	c #DC36D6",
" i	c #D432D4",
" j	c #DC32D0",
" k	c #DC36CC",
" l	c #E43ADA",
" m	c #AC52A4",
" n	c #9C8A9C",
" o	c #E4D9E4",
" p	c #F452EC",
" q	c #E436DC",
" r	c #D436D4",
" s	c #D432CB",
" t	c #AC3EA8",
" u	c #8C728C",
" v	c #BCBCBC",
" w	c #D48CD4",
" x	c #EC52EC",
" y	c #E43EE4",
" z	c #D436CC",
" A	c #C432BC",
" B	c #C42EB9",
" C	c #B429B4",
" D	c #BC2EB9",
" E	c #C432C4",
" F	c #CC32C8",
" G	c #A4369C",
" H	c #7C667C",
" I	c #B4B4B4",
" J	c #CC9ACC",
" K	c #9C2A94",
" L	c #641A5C",
" M	c #5C215C",
" N	c #4C2250",
" O	c #5C2658",
" P	c #74226C",
" Q	c #942690",
" R	c #943294",
" S	c #7C727C",
" T	c #DCD2DC",
" U	c #C46EC4",
" V	c #C43EC4",
" W	c #A4269C",
" X	c #3C2A44",
" Y	c #3C564F",
" Z	c #548674",
" `	c #5C947C",
". 	c #545E6C",
"..	c #743674",
".+	c #AC29A4",
".@	c #CC2EBC",
".#	c #541E54",
".$	c #6C4C6C",
".%	c #9C9A9C",
".&	c #DCBADC",
".*	c #8C4A8C",
".=	c #942A94",
".-	c #64AE94",
".;	c #5C9C84",
".>	c #745A7C",
".,	c #AC35A4",
".'	c #B42AA8",
".)	c #6C1A68",
".!	c #4C1A49",
".~	c #5C2E60",
".{	c #AC46AC",
".]	c #EC5AEC",
".^	c #D456D4",
"./	c #9C5E9C",
".(	c #7C3E7C",
"._	c #842A7C",
".:	c #6CAE97",
".<	c #64B294",
".[	c #64A28C",
".}	c #4C1E4C",
".|	c #843C84",
".1	c #E44AE4",
".2	c #D43AD1",
".3	c #7C3A7C",
".4	c #848484",
".5	c #F4EEF4",
".6	c #C49EC4",
".7	c #EC4AEC",
".8	c #544E64",
".9	c #5C3264",
".0	c #B43AB4",
".a	c #5C565C",
".b	c #CC7ACC",
".c	c #DC3ECC",
".d	c #8C328C",
".e	c #5C867C",
".f	c #6CB297",
".g	c #8C7CA4",
".h	c #4C364C",
".i	c #C4C2C4",
".j	c #ECDEEC",
".k	c #DC66DC",
".l	c #4C2A54",
".m	c #749E9C",
".n	c #C44EC4",
".o	c #7C7A7C",
".p	c #E45ADC",
".q	c #B42EAF",
".r	c #74AE9C",
".s	c #C462CC",
".t	c #DC52DC",
".u	c #B426AC",
".v	c #544264",
".w	c #BC6AD4",
".x	c #BC2AB4",
".y	c #541A50",
".z	c #5C5B5C",
".A	c #D452C4",
".B	c #5C3E64",
".C	c #CC6AD4",
".D	c #C45EBC",
".E	c #EC3ADC",
".F	c #D42EC4",
".G	c #7CB6AC",
".H	c #E462EC",
".I	c #3C1A3C",
".J	c #E4DEE4",
".K	c #9C6E94",
".L	c #AC2EAC",
".M	c #647E84",
".N	c #9CA6C4",
".O	c #841E84",
".P	c #341E34",
".Q	c #646664",
".R	c #A48EA4",
".S	c #CC3AC4",
".T	c #C436C4",
".U	c #844E8C",
".V	c #74BCA4",
".W	c #D476E4",
".X	c #EC3AE4",
".Y	c #2C262C",
".Z	c #B44AAC",
".`	c #BC36BC",
"+ 	c #84769C",
"+.	c #6CAA94",
"++	c #BC96D4",
"+@	c #3C123C",
"+#	c #CC36C8",
"+$	c #C442BC",
"+%	c #84BEAC",
"+&	c #B49ED4",
"+*	c #EC56F4",
"+=	c #CC2EC4",
"+-	c #241624",
"+;	c #949694",
"+>	c #BCACBC",
"+,	c #9C4294",
"+'	c #9492B4",
"+)	c #84AEAC",
"+!	c #6CA694",
"+~	c #7CB2A4",
"+{	c #8CB6B4",
"+]	c #ACA6D4",
"+^	c #341234",
"+/	c #342E34",
"+(	c #D4CED4",
"+_	c #947E94",
"+:	c #DC3ADC",
"+<	c #9C4AA4",
"+[	c #44123C",
"+}	c #241E24",
"+|	c #C4BEC4",
"+1	c #8C668C",
"+2	c #9C3E9C",
"+3	c #E432D4",
"+4	c #A42A9F",
"+5	c #444644",
"+6	c #7C5E7C",
"+7	c #94228C",
"+8	c #444244",
"+9	c #747674",
"+0	c #746674",
"+a	c #642E64",
"+b	c #8C2684",
"+c	c #A43AA4",
"+d	c #9C269C",
"+e	c #641664",
"+f	c #2C0E2C",
"+g	c #847C84",
"+h	c #5C465C",
"+i	c #6C1E6C",
"+j	c #7C1E74",
"+k	c #4C1248",
"+l	c #443644",
"+m	c #3C263C",
"+n	c #949294",
"+o	c #7C7E7C",
"+p	c #8C8A8C",
" . . . . . . . . . . . . . . . . . . . . . . . . . . . . . . . . . . . . . . . . . . . . . . . .",
" . . + + + + + + + . . . . . . . . . . . . . . . . . . . . . @ # # . $ % & * . . . @ & = @ . . .",
" . . - - - - - - - . . . . . . . . . . . . . . . . . . . . . = # ; . > # & # , . ' # ) ! # ~ . .",
" . . - + + + + + - . . . . . . . . . . . . . . . . . . . . % ) # & @ # ~ . % # . & # @ . # = . .",
" . . - + - - - + - . . . . . . . . . . . . . . . . . . . . % > # & @ # . . @ # . = { $ . ! & . .",
" . . - + + + + + - . . . . . . . . . . . . . . . . . . . . . & # . ~ # > @ ) # . & = . . & = . .",
" . . - + - - - + - . . . . . . . . . . . . . . . . . . . . . & # . . , ! # & # . = & . . = & . .",
" . . - + + + + + - . . . . . . . . . . . . . . . . . . . . . & # . $ @ . . % ) . & # @ . # & . .",
" . . - + - - - + - . . . . . . . . . . . . . . . . . ' & % . = # . ~ # , @ > , . % # & % # % . .",
" . . - + + + + + - . . . . . . . . . . . . . . . . . @ # = . & # . . % ! # ! $ . . & # # = . . .",
" . . - - - - - - - . . . . . . . . . . . . . . . . . . . . . . . . . . . . . . . . . . . . . . .",
" . . + + + + + + + . . . . . . . . . . . . . . . . . . . . . . . . . . . . . . . . . . . . . . .",
" . . . . . . . . . . . . . . . . . . . . . . . . . . . . . . . . . . . . . . . . . . . . . . . .",
" . # # # # # # # # # # # # # ] # ] ] ] ] ] ^ ] ^ ^ ^ ^ ) ^ ) ) ) ) ) > ) > > > > / > / / / / / .",
" . # # # # # # # # # # # # # # # ] ] ] ] ] ] ^ ] ^ ^ ^ ^ ^ ) ^ ) ) ) ) > ) > > > > > / > / / / .",
" . # # # # # # # # # # # # ] # ] # ] ] ] ^ ^ ^ ^ ^ ) ^ ) ) ) ) ) ) ) > ) > > > > / > / / / / { .",
" . # # # # # # # # # # # # # ] ] ] ] ^ / ( _ : < < [ _ } | > > ) ) > > > > > > > / > / / / / / .",
" . # # # # # # # # # # # ] # ] ] ^ 1 2 3 4 5 6 7 8 7 8 9 0 a } / > > ) > > > / > / / / / / { { .",
" . # # # # # # # # # ] # ] ] ] b c d e 7 f g h i h j k l l f m n ! / > > > > / > / / / / / { / .",
" . # # # # # # # # # ] # ] ] o 2 p 7 q j j i r i i s k k h h i t u v / > > / > / / / / { / { { .",
" . # # # # # # # # ] # ] ] ) w x y g s k z A B C D E F k j j j z G H I { / > / / / / / { { { { .",
" . # # # # # # # ] # ] ] ^ J x y h s j B K L M N O P Q D F r h z F R S v / / / / / / { / { { { .",
" . # # # # # # ] # ] ] ] T U V s z F W L X Y Z ` Z Z. ...+ s i.@ Q.#.$.% ! / / / { { / { { { { .",
" . # # # # # ] # ] ] ] b.& _.*.= C.+ N Y `.-.-.-.-.-.-.;.>.,.'.).!.~.{ H I { { / { / { { { { ! .",
" . # # # # ] # ] ] ] ] 1.].^./.(._ M Y.;.-.-.:.<.-.:.-.:.[.>.!.}.|.1.2.3.4 v { / { { { { { ! { .",
" . # # # ] # ] ] ] ].5.6.7 f.2.{.|.8.;.<.-.<.-.:.-.:.-.-.-.;.9.0 f f s.=.a = ! { { { { { { ! ! .",
" . # # ] # ] ] ] ] ] b.b 8.c h z.d.e.-.-.:.-.:.<.-.-.f.-.f.-.g h l k s W.h ,.i { { { { ! | ! ! .",
" . # ] # ] ] ] ] ].5.j.k 7.2 i C.l.;.:.-.:.<.-.:.-.-.-.:.-.<.m.n h k z W N.o I { { { ! { ! !.i .",
" . ] # ] ] # ] ].5 ^ T.p f g j.q.h.-.-.:.<.:.-.<.-.:.-.-.:.<.r.s q h j D.# * & ! { { ! | ! !.i .",
" . # ] ] ] ].5 ] ] ^ 1.t y j s.u.v.-.:.-.-.f.-.:.-.<.:.<.:.-.r.w g z s.x.y.z & ! ! { ! ! !.i.i .",
" . ] ] # ] ] ] ^ ^ ^ /.A h h j D.B.[.<.f.-.-.:.-.-.:.-.-.:.<.r.C f s s.+.! @ = ! | ! ! !.i.i.i .",
" . ] ] ] ] ^ ] ^ ] ^ T.D.E h r.F.|.[.:.-.:.-.<.:.-.-.:.<.-.:.G.H y r s Q.I.z =.i { ! !.i.i.i v .",
" . ] ] ] ].5 ^ ^ ^ ^.J.K g k i s.L.M.-.<.:.<.:.-.-.:.<.:.-.f.N 9 g h F.O.P.Q =.i ! !.i.i.i.i v .",
" . ] ].5 ] ^ ^ ^ ^ ^ ).R.S j s s.T.U.[.:.-.:.<.-.-.-.-.:.<.V.W.X.2.2 A L.Y % &.i !.i.i.i v.i v .",
" . ] ^ ] ^ ^ ^ ^ ^ ) ) (.Z j r z z.`+ +..<.-.:.-.-.:.<.<.V++.7 j z z.++@ ~.4 I !.i.i.i v.i v v .",
" . ] ] ^ ^ ^ ^ ^ ) ^ b /.K+# r g g j+$+ .:.:.<.:.-.-.f+%+&+* q.2 j+=.)+- @+; v.i.i.i v.i v v I .",
" . ^ ^ ^ ] ^ ^ ^ ) ) ) >+>+,+# j i j k.c.s+'+)+!+~+{+] < 8 j g z.F Q+^+/ % & v !.i v v v v v v .",
" . ^ ] ^ ^ ) ^ ) ^ ) ) )+(+_ R B h z.2 h+:.c.t O+<.p 5.X h j.2+#.++[+} @+; I.i v.i v.i v v v I .",
" . ^ ^ ^ ^ ^ ) ^ ) ) ) ) >+|+1.=.T s k s j h B.y+2.E+3 z g j z+4+[+-+5.4 &.i.i v.i v v v v I v .",
" . ^ ^ ^ ) ^ ) ) ) ) > ) > / I+6._.q s i i i.u.y t.E h z z B+7+[ $+8+9 = v v ! v v v v I v I I .",
" . ^ ^ ^ ) ^ ) ) ) ) ) > > >+( I+0+a+b.' B s C.}+c l F.x+d+e+f $+5.o.% v v.i v v v v v v I v I .",
" . ^ ^ ) ^ ) ) ) ) ) > ) > > > { I+g+h O+i.O+7 N+2+4+j+k+^ $ '.z.4 = I.i.i v.i v v v I v I I I .",
" . ) ) ^ ) ) ) ) > > ) > > > > / / v =.o.a+l+m.h.$+l+/.Y+8.a+9+; & v.i.i v v v v v v I I I I I .",
" . ) ^ ) ) ) ) ) ) > > > > / > / / / ! I =+n.4+o+p+p.o+o+p.% & v v.i.i v v v v v v I v I I I I .",
" . ) ) ) ) ) > > > ) > > > > / / / / / { !+| I } I I I I I v.i.i.i.i v v.i v v I I v I I I I I .",
" . ) ) ) ) > ) ) > > > / > / > / / /+( / { { { ! { !.i ! ! !.i.i v.i v v v v I v I I I I I I & .",
" . ) ) ) ) > ) > > > > > / / / / / / { { { { { { ! | ! !.i.i.i.i v v v v v v I v I I I I I & I .",
" . . . . . . . . . . . . . . . . . . . . . . . . . . . . . . . . . . . . . . . . . . . . . . . ."};
