/* XPM */
static char * file_dot_class_xpm[] = {
"48 48 356 2",
"  	c None",
". 	c #000000",
"+ 	c #555555",
"@ 	c #FFFFFF",
"# 	c #E5E5E5",
"$ 	c #383838",
"% 	c #AAAAAA",
"& 	c #717171",
"* 	c #8D8D8D",
"= 	c #E2E2E2",
"- 	c #C6C6C6",
"; 	c #1C1C1C",
"> 	c #FDFDFD",
", 	c #FCFCFC",
"' 	c #FBFBFB",
") 	c #FAFAFA",
"! 	c #F8F8F8",
"~ 	c #F7F7F7",
"{ 	c #F6F6F6",
"] 	c #F5F5F5",
"^ 	c #F4F4F4",
"/ 	c #F2F2F2",
"( 	c #F1F1F1",
"_ 	c #F0F0F0",
": 	c #EFEFEF",
"< 	c #EEEEEE",
"[ 	c #ECECEC",
"} 	c #EBEBEB",
"| 	c #EAEAEA",
"1 	c #E9E9E9",
"2 	c #E8E8E8",
"3 	c #E6E6E6",
"4 	c #E4E4E4",
"5 	c #E3E3E3",
"6 	c #E1E1E1",
"7 	c #E0E0E0",
"8 	c #DFDFDF",
"9 	c #DEDEDE",
"0 	c #DDDDDD",
"a 	c #DBDBDB",
"b 	c #DADADA",
"c 	c #D9D9D9",
"d 	c #D8D8D8",
"e 	c #D7D7D7",
"f 	c #D5D5D5",
"g 	c #D4D4D4",
"h 	c #F9F9F9",
"i 	c #D3D3D3",
"j 	c #F3F3F3",
"k 	c #DCDCDC",
"l 	c #D2D2D2",
"m 	c #D6D6D6",
"n 	c #D1D1D1",
"o 	c #FEFEFE",
"p 	c #B2B2B2",
"q 	c #CCCCCC",
"r 	c #D0D0D0",
"s 	c #353535",
"t 	c #696969",
"u 	c #B0B0B0",
"v 	c #CECECE",
"w 	c #434343",
"x 	c #A0A0A0",
"y 	c #CFCFCF",
"z 	c #CDCDCD",
"A 	c #3D3D3D",
"B 	c #9D9D9D",
"C 	c #3C3C3C",
"D 	c #9C9C9C",
"E 	c #CBCBCB",
"F 	c #9B9B9B",
"G 	c #CACACA",
"H 	c #3B3B3B",
"I 	c #C9C9C9",
"J 	c #9A9A9A",
"K 	c #C8C8C8",
"L 	c #E7E7E7",
"M 	c #999999",
"N 	c #C7C7C7",
"O 	c #C5C5C5",
"P 	c #FCFBFB",
"Q 	c #FAF4F5",
"R 	c #FBF8F9",
"S 	c #F7E5E8",
"T 	c #F2B4BE",
"U 	c #643F45",
"V 	c #92666F",
"W 	c #C29EA4",
"X 	c #CDCBCC",
"Y 	c #C4C4C4",
"Z 	c #EDEDED",
"` 	c #695C5E",
" .	c #F0A6B2",
"..	c #F4D9DE",
"+.	c #8C6B70",
"@.	c #F3CAD2",
"#.	c #FCFAFA",
"$.	c #030303",
"%.	c #414040",
"&.	c #AEA7A8",
"*.	c #D3CBCC",
"=.	c #C3C3C3",
"-.	c #F7E7E9",
";.	c #B83443",
">.	c #F9EDEF",
",.	c #535151",
"'.	c #F2C0C8",
").	c #927378",
"!.	c #FCFAFB",
"~.	c #393939",
"{.	c #A3A2A2",
"].	c #D6CFD0",
"^.	c #C2C2C2",
"/.	c #4F4D4E",
"(.	c #F0A7B4",
"_.	c #9A656E",
":.	c #FEFDFD",
"<.	c #7A6D6F",
"[.	c #F6E9EB",
"}.	c #9A6F76",
"|.	c #F6EBED",
"1.	c #0B0A0A",
"2.	c #B2A5A7",
"3.	c #D4C2C5",
"4.	c #C1C1C1",
"5.	c #625A5B",
"6.	c #F2B9C3",
"7.	c #7E6267",
"8.	c #F4E2E5",
"9.	c #906D72",
"0.	c #EC7B88",
"a.	c #EA6B78",
"b.	c #553F43",
"c.	c #6A5E60",
"d.	c #C07D8A",
"e.	c #D78B97",
"f.	c #D4C7C9",
"g.	c #C0C0C0",
"h.	c #FBF5F6",
"i.	c #F5DBDF",
"j.	c #F5D9DE",
"k.	c #F6E3E6",
"l.	c #EC7987",
"m.	c #E84C58",
"n.	c #E63E4A",
"o.	c #953F4E",
"p.	c #9F5F6B",
"q.	c #CD5867",
"r.	c #D78C96",
"s.	c #CCCBCC",
"t.	c #BEBEBE",
"u.	c #FAF3F4",
"v.	c #F7EBED",
"w.	c #F4D7DC",
"x.	c #826469",
"y.	c #ED838E",
"z.	c #E32C35",
"A.	c #C42B39",
"B.	c #EC7D8B",
"C.	c #9C404D",
"D.	c #A96671",
"E.	c #C3919A",
"F.	c #CDC3C4",
"G.	c #BFBFBF",
"H.	c #BDBDBD",
"I.	c #4C4B4B",
"J.	c #575354",
"K.	c #F8E9EB",
"L.	c #B13542",
"M.	c #E11F28",
"N.	c #B63441",
"O.	c #ED8491",
"P.	c #903845",
"Q.	c #5F5B5C",
"R.	c #ADA4A5",
"S.	c #CDC0C2",
"T.	c #C8C7C8",
"U.	c #BCBCBC",
"V.	c #363636",
"W.	c #84646A",
"X.	c #F3CBD2",
"Y.	c #AF404D",
"Z.	c #E11C25",
"`.	c #CC2130",
" +	c #EB7586",
".+	c #584448",
"++	c #989797",
"@+	c #D1BCBF",
"#+	c #CEC9CA",
"$+	c #BBBBBB",
"%+	c #FBF9FA",
"&+	c #686064",
"*+	c #F5EBEF",
"=+	c #E793A8",
"-+	c #CB0E22",
";+	c #E14B65",
">+	c #9E626D",
",+	c #565455",
"'+	c #929292",
")+	c #C5C4C5",
"!+	c #C8C2CC",
"~+	c #C5C4CA",
"{+	c #C5C4C8",
"]+	c #C2C2C3",
"^+	c #BABABA",
"/+	c #EEECF6",
"(+	c #B4ACE6",
"_+	c #A99EE0",
":+	c #B1A8DF",
"<+	c #9A58B7",
"[+	c #8B1E79",
"}+	c #B85EAF",
"|+	c #A05583",
"1+	c #97638B",
"2+	c #A69BAE",
"3+	c #978ECC",
"4+	c #4037C0",
"5+	c #2821B6",
"6+	c #3730BA",
"7+	c #A7A1CB",
"8+	c #B9B9B9",
"9+	c #C5C0E9",
"0+	c #3428C2",
"a+	c #4539C7",
"b+	c #5B43C4",
"c+	c #5925A6",
"d+	c #6C39B5",
"e+	c #6532AB",
"f+	c #51238D",
"g+	c #651E84",
"h+	c #6E59BC",
"i+	c #8176CC",
"j+	c #BAB6D0",
"k+	c #6F63C9",
"l+	c #6156C5",
"m+	c #4F47C0",
"n+	c #B8B8B8",
"o+	c #F9F9FA",
"p+	c #BCB5E6",
"q+	c #6254CF",
"r+	c #5C3BBB",
"s+	c #AE88D4",
"t+	c #BA7CC4",
"u+	c #D287BD",
"v+	c #933E59",
"w+	c #98658A",
"x+	c #9D98BD",
"y+	c #BFBDCD",
"z+	c #BCB8CF",
"A+	c #A299CD",
"B+	c #ABA5CD",
"C+	c #958CCC",
"D+	c #B6B6B6",
"E+	c #4F4E5A",
"F+	c #2D23AB",
"G+	c #463A98",
"H+	c #5D5481",
"I+	c #78468E",
"J+	c #6D5488",
"K+	c #7C6497",
"L+	c #8B7FBA",
"M+	c #A9A6BB",
"N+	c #C5C5CA",
"O+	c #B6B2D2",
"P+	c #8D80D0",
"Q+	c #A6A0CC",
"R+	c #C1C1C5",
"S+	c #B7B7B7",
"T+	c #B5B5B5",
"U+	c #A2A2A2",
"V+	c #111111",
"W+	c #090909",
"X+	c #080808",
"Y+	c #3C3B3F",
"Z+	c #3328B5",
"`+	c #291FAA",
" @	c #4C409F",
".@	c #54499F",
"+@	c #52439E",
"@@	c #564AA5",
"#@	c #6D5DC3",
"$@	c #A8A4BF",
"%@	c #C2C0CB",
"&@	c #A59DD2",
"*@	c #A19AD0",
"=@	c #C2C2C5",
"-@	c #B4B4B4",
";@	c #3A3A3A",
">@	c #444444",
",@	c #535355",
"'@	c #67666B",
")@	c #5348A3",
"!@	c #1912AD",
"~@	c #1610AB",
"{@	c #1911AE",
"]@	c #1F16B1",
"^@	c #2017B2",
"/@	c #362AB9",
"(@	c #A49FC0",
"_@	c #C2C1C8",
":@	c #C5C5C8",
"<@	c #B3B3B3",
"[@	c #AEAEAE",
"}@	c #9E9E9E",
"|@	c #979797",
"1@	c #969696",
"2@	c #959595",
"3@	c #A7A6AC",
"4@	c #8D84BB",
"5@	c #7F76BF",
"6@	c #A9A7BB",
"7@	c #A8A7AD",
"8@	c #9591B5",
"9@	c #655DB5",
"0@	c #5148B5",
"a@	c #5047B5",
"b@	c #564DBC",
"c@	c #9791C2",
"d@	c #B7B7B8",
"e@	c #C2C1C6",
"f@	c #C3C3C6",
"g@	c #A197D0",
"h@	c #665BC9",
"i@	c #493EC3",
"j@	c #4A40C0",
"k@	c #5D50C6",
"l@	c #7468C6",
"m@	c #8177C6",
"n@	c #7871C6",
"o@	c #6B63C4",
"p@	c #594FC4",
"q@	c #6259C2",
"r@	c #7168C3",
"s@	c #786DC6",
"t@	c #968CCC",
"u@	c #A097CC",
"v@	c #BCBACC",
"w@	c #BFBCCD",
"x@	c #B1B1B1",
"y@	c #CDCDD0",
"z@	c #C8C7D1",
"A@	c #B5B1D0",
"B@	c #564CC4",
"C@	c #1C13B7",
"D@	c #3F34C0",
"E@	c #564AC3",
"F@	c #2E23C0",
"G@	c #2016B9",
"H@	c #160EB2",
"I@	c #1910B5",
"J@	c #4035C0",
"K@	c #978FCA",
"L@	c #B9B6CC",
"M@	c #C1C0C6",
"N@	c #BFBFC1",
"O@	c #AFAFAF",
". . . . . . . . . . . . . . . . . . . . . . . . . . . . . . . . . . . . . . . . . . . . . . . . ",
". . . . . . . . . . . . . . . . . . . . . . . + @ + . . . . . . . . . . . . . . . . . . . . . . ",
". . # # # # # # # . . . . . . . . . . . . . . + @ + . . . . . . . . . . . . . . . . . . . . . . ",
". . # . . . . . # . . . . . . . . . $ % & . . + @ + . . % % % . . . . & % & . . . . & % & . . . ",
". . # . . . . . # . . . . . . . . * @ @ @ * . + @ + . = @ % = - . ; = = % @ * . ; = = % @ * . . ",
". . # . # . # . # . . . . . . . ; @ * . * @ . + @ + $ % & ; * @ . + @ & . & % . + @ & . & % . . ",
". . # . . # . . # . . . . . . . + @ . . . . . + @ + . * @ = - @ . ; - @ @ % $ . ; - @ @ % $ . . ",
". . # . # . # . # . . . . . . . + @ $ . $ % . + @ + + @ & . & @ . $ + $ + - @ . $ + $ + - @ . . ",
". . # . . . . . # . . . . $ % & ; @ = + % = . + @ + + @ * + = @ . * @ & . & @ . * @ & . & @ . . ",
". . # . . . . . # . . . . + @ % . + - @ = $ . + @ + ; = @ = % @ . ; - @ @ = + . ; - @ @ = + . . ",
". . # # # # # # # . . . . . . . . . . . . . . . . . . . . . . . . . . . . . . . . . . . . . . . ",
". . . . . . . . . . . . . . . . . . . . . . . . . . . . . . . . . . . . . . . . . . . . . . . . ",
". . . . . . . . . . . . . . . . . . . . . . . . . . . . . . . . . . . . . . . . . . . . . . . . ",
". @ @ @ @ @ @ @ @ @ @ @ > , ' ) ! ~ { ] ^ / ( _ : < [ } | 1 2 3 # 4 5 6 7 8 9 0 a b c d e f g . ",
". @ @ @ @ @ @ @ @ @ @ > , ' ) h ~ { ] ^ / ( _ : < [ } | 1 2 3 # 4 5 = 7 8 9 0 a b c d e f g i . ",
". @ @ @ @ @ @ @ @ @ > , ' ) h ~ { ] ^ j ( _ : < [ } | 1 2 3 # 4 5 = 7 8 9 0 k b c d e f g i l . ",
". @ @ @ @ @ @ @ @ > , ' ) h ~ { . . . . . . . . . . . . . . . . . . c k 0 k b c d e m g i l n . ",
". @ @ @ @ @ @ @ o , ' ) h ! { . . @ @ @ @ @ @ @ @ @ @ @ @ @ @ @ @ . p q b b c d e m g i l n r . ",
". @ @ @ @ @ @ o , ' ) h ! { . @ . @ s @ @ @ s @ @ s @ s @ @ s @ @ . t u g c d e m g i l n r v . ",
". @ @ @ @ @ o , ' ) h ! { . . . . s @ s @ s @ s @ s @ s @ s @ s @ . w x n d e m f i l n r y z . ",
". @ @ @ @ o > ' ) h ! ~ j . @ s @ s @ s @ s @ s @ s @ s @ s @ s @ . A B r e m f i l n r y z q . ",
". @ @ @ o > ' ) h ! ~ ] < . @ s @ @ s @ @ @ s @ @ s @ s @ @ s @ @ . C D y m f i l n r y z q E . ",
". @ @ o > ' ) h ! ~ ] ^ } . @ @ @ @ @ @ @ @ @ @ @ @ @ @ @ @ @ @ @ . C F v f g l n r y v q E G . ",
". @ o > , ) h ! ~ { ^ j 1 . @ @ s @ @ s @ s @ @ s @ @ @ s @ @ s @ . H F z g l n r y v q E G I . ",
". o > , ) h ! ~ { ^ j / 2 . @ s @ s @ s @ s @ s @ s @ s @ s @ s @ . H J q l n r y v q E G I K . ",
". > , ) h ! ~ { ^ j / ( L . @ s @ s @ s @ s @ s @ s @ s @ s @ s @ . H M E n r y v z E G I K - . ",
". , ' h ! ~ { ] j / ( _ # . @ @ s @ @ s @ s @ @ s @ @ @ s @ @ s @ . H M I r y v z E G I K N O . ",
". ' h ! ~ { ] j / ( _ : 4 . @ @ @ @ @ @ @ @ @ @ @ @ @ o P Q R S T U V W X y v z E G I K N O Y . ",
". h ! ~ { ] j / ( _ : Z 5 . @ @ s @ @ @ s @ @ s @ s o `  ...+.@.#.$.%.&.*.v z q G I K N O Y =.. ",
". ! ~ { ] ^ / ( _ : Z [ = . @ s @ s @ s @ s @ s @ s -.;.>.,.'.).!.. ~.{.].v q G I K N - Y =.^.. ",
". ~ { ] ^ / ( _ : < [ } 6 . @ s @ s @ s @ s @ s @ /.(._.:.<.[.}.|.1.C 2.3.v G I K N - Y =.^.4.. ",
". { ] ^ / ( _ : < [ } | 7 . @ @ s @ @ @ s @ @ s @ 5.6.7.o 8.9.0.a.b.c.d.e.f.I K N - Y =.^.4.g.. ",
". ] ^ j ( _ : < [ } | 1 8 . @ @ @ @ @ @ @ @ @ @ @ h.i.j.:.k.l.m.n.o.p.q.r.s.K N - O =.^.4.g.t.. ",
". ^ j ( _ : < Z } | 1 2 0 . @ s @ s @ @ s @ @ @ s u.v.w.x.y.z.A.B.C.D.E.F.K N - O =.^.4.g.G.H.. ",
". j ( _ : < Z } | 1 2 L k . @ s @ s @ s @ s @ s @ I.w.J.K.L.M.N.O.P.Q.R.S.T.- O =.^.4.g.G.H.U.. ",
". / _ : < Z } | 1 2 L # a . @ s @ s @ s @ s @ s @ V.u.W.X.Y.Z.`. +.+H ++@+#+O Y ^.4.g.G.H.U.$+. ",
". _ : < Z [ | 1 2 L # 4 b . @ s @ s @ @ s @ @ @ s @ o %+&+*+=+-+;+>+,+'+)+!+~+{+]+g.G.t.U.$+^+. ",
". : < Z [ | 1 2 L 3 4 5 b . @ @ @ @ @ @ @ @ @ @ @ o /+(+_+:+<+[+}+|+1+2+3+4+5+6+7+G.t.U.$+^+8+. ",
". < Z [ | 1 2 L 3 4 5 = c . @ @ @ @ @ @ @ @ @ @ @ o 9+0+a+b+c+d+e+f+g+h+i+j+k+l+m+t.U.$+^+8+n+. ",
". Z [ } 1 2 L 3 4 5 = 6 d . @ @ @ @ @ @ @ @ @ @ @ @ o+p+q+r+s+t+u+v+w+x+y+z+A+B+C+H.$+^+8+n+D+. ",
". [ } 1 2 L 3 # 5 = 6 7 m . . . . . . . . . . . . . . E+F+G+H+I+J+K+L+M+N+O+P+Q+R+$+^+8+n+S+T+. ",
". } 1 2 L 3 # 5 = 6 7 8 m U+w V+W+X+X+X+X+X+X+X+X+X+X+Y+Z+`+ @.@+@@@#@$@%@&@*@=@$+^+8+n+S+T+-@. ",
". | 2 L 3 # 5 = 6 7 8 0 m u t w C H H H ;@;@~.~.H >@,@'@)@!@~@{@]@^@/@(@_@:@g.H.^+8+n+S+T+-@<@. ",
". 2 L 3 # 4 = 6 7 8 0 k c I [@}@D J M M |@1@1@2@3@4@5@6@7@8@9@0@a@b@c@d@t.^.e@f@U.n+S+D+-@<@p . ",
". L 3 # 4 = 6 7 8 9 k a b e l y v q E I K N - O g@h@i@j@k@l@m@n@o@p@q@r@s@t@u@v@w@S+D+-@<@p x@. ",
". 3 # 4 = 6 7 8 9 k a b c d m f g i l r y v z E y@z@A@B@C@D@E@F@G@C@H@I@J@K@L@M@N@D+-@<@p x@u . ",
". # 4 5 6 7 8 9 k a b c d m f g i l r y v z q G I K N O Y =.^.4.G.t.H.U.$+8+n+S+D+T+<@p x@u O@. ",
". . . . . . . . . . . . . . . . . . . . . . . . . . . . . . . . . . . . . . . . . . . . . . . . "};
