/* XPM */
static char * file_generic_gnustep_xpm[] = {
"48 48 195 2",
"  	c None",
" .	c #000000",
" +	c #E5E5E5",
" @	c #FFFFFF",
" #	c #FDFDFD",
" $	c #FCFCFC",
" %	c #FBFBFB",
" &	c #FAFAFA",
" *	c #F8F8F8",
" =	c #F7F7F7",
" -	c #F6F6F6",
" ;	c #F5F5F5",
" >	c #F4F4F4",
" ,	c #F2F2F2",
" '	c #F1F1F1",
" )	c #F0F0F0",
" !	c #EFEFEF",
" ~	c #EEEEEE",
" {	c #ECECEC",
" ]	c #EBEBEB",
" ^	c #EAEAEA",
" /	c #E9E9E9",
" (	c #E8E8E8",
" _	c #E6E6E6",
" :	c #E4E4E4",
" <	c #E3E3E3",
" [	c #E1E1E1",
" }	c #E0E0E0",
" |	c #DFDFDF",
" 1	c #DEDEDE",
" 2	c #DDDDDD",
" 3	c #DBDBDB",
" 4	c #DADADA",
" 5	c #D9D9D9",
" 6	c #D8D8D8",
" 7	c #D7D7D7",
" 8	c #D5D5D5",
" 9	c #D4D4D4",
" 0	c #F9F9F9",
" a	c #E2E2E2",
" b	c #D3D3D3",
" c	c #F3F3F3",
" d	c #DCDCDC",
" e	c #D2D2D2",
" f	c #D6D6D6",
" g	c #D1D1D1",
" h	c #FEFEFE",
" i	c #B2B2B2",
" j	c #CCCCCC",
" k	c #D0D0D0",
" l	c #696969",
" m	c #B0B0B0",
" n	c #CECECE",
" o	c #434343",
" p	c #A0A0A0",
" q	c #CFCFCF",
" r	c #CDCDCD",
" s	c #3D3D3D",
" t	c #9D9D9D",
" u	c #757575",
" v	c #3C3C3C",
" w	c #9C9C9C",
" x	c #CBCBCB",
" y	c #9B9B9B",
" z	c #CACACA",
" A	c #3B3B3B",
" B	c #C9C9C9",
" C	c #9A9A9A",
" D	c #C8C8C8",
" E	c #E7E7E7",
" F	c #999999",
" G	c #C6C6C6",
" H	c #C7C7C7",
" I	c #C5C5C5",
" J	c #3A3A3A",
" K	c #979797",
" L	c #C4C4C4",
" M	c #EDEDED",
" N	c #969696",
" O	c #C3C3C3",
" P	c #666666",
" Q	c #646464",
" R	c #131313",
" S	c #7B7B7B",
" T	c #A5A5A5",
" U	c #C2C2C2",
" V	c #A3A3A3",
" W	c #8C8C8C",
" X	c #8F8F8F",
" Y	c #919191",
" Z	c #939393",
" `	c #959595",
". 	c #989898",
"..	c #A2A2A2",
".+	c #A7A7A7",
".@	c #AAAAAA",
".#	c #ACACAC",
".$	c #7F7F7F",
".%	c #8D8D8D",
".&	c #C1C1C1",
".*	c #727272",
".=	c #8A8A8A",
".-	c #909090",
".;	c #9E9E9E",
".>	c #A1A1A1",
".,	c #767676",
".'	c #373737",
".)	c #8B8B8B",
".!	c #C0C0C0",
".~	c #929292",
".{	c #747475",
".]	c #414142",
".^	c #2A2A2B",
"./	c #29292B",
".(	c #363637",
"._	c #787878",
".:	c #AFAFAF",
".<	c #1F1F1F",
".[	c #818181",
".}	c #BEBEBE",
".|	c #A4A4A4",
".1	c #545455",
".2	c #050506",
".3	c #010101",
".4	c #191919",
".5	c #575757",
".6	c #78787A",
".7	c #8B8B8C",
".8	c #777777",
".9	c #1E1E1E",
".0	c #808080",
".a	c #BFBFBF",
".b	c #BDBDBD",
".c	c #606060",
".d	c #030303",
".e	c #080808",
".f	c #59595A",
".g	c #B4B4B4",
".h	c #797979",
".i	c #BCBCBC",
".j	c #181819",
".k	c #464646",
".l	c #B6B6B6",
".m	c #7A7A7A",
".n	c #7E7E7E",
".o	c #BBBBBB",
".p	c #A6A6A6",
".q	c #7B7B7C",
".r	c #747474",
".s	c #B9B9B9",
".t	c #7C7C7C",
".u	c #1D1D1D",
".v	c #7D7D7D",
".w	c #BABABA",
".x	c #333334",
".y	c #6A6A6A",
".z	c #6F6F6F",
".A	c #878787",
".B	c #828282",
".C	c #040405",
".D	c #B8B8B8",
".E	c #A8A8A8",
".F	c #9F9F9F",
".G	c #1F1F20",
".H	c #494949",
".I	c #4E4E4E",
".J	c #5C5C5C",
".K	c #0C0C0C",
".L	c #151515",
".M	c #49494A",
".N	c #424242",
".O	c #B7B7B7",
".P	c #B5B5B5",
".Q	c #111111",
".R	c #090909",
".S	c #525252",
".T	c #1D1D1E",
".U	c #555555",
".V	c #848484",
".W	c #2A2A2A",
".X	c #2E2E2E",
".Y	c #2F2F2F",
".Z	c #636363",
".`	c #858585",
"+ 	c #1C1C1C",
"+.	c #B3B3B3",
"++	c #AEAEAE",
"+@	c #ADADAD",
"+#	c #B1B1B1",
"+$	c #949494",
"+%	c #A9A9A9",
"+&	c #2C2C2C",
"+*	c #2B2B2B",
"+=	c #272727",
"+-	c #323232",
" . . . . . . . . . . . . . . . . . . . . . . . . . . . . . . . . . . . . . . . . . . . . . . . .",
" . . . . . . . . . . . . . . . . . . . . . . . . . . . . . . . . . . . . . . . . . . . . . . . .",
" . . + + + + + + + . . . . . . . . . . . . . . . . . . . . . . . . . . . . . . . . . . . . . . .",
" . . + . . . . . + . . . . . . . . . . . . . . . . . . . . . . . . . . . . . . . . . . . . . . .",
" . . + . + + + . + . . . . . . . . . . . . . . . . . . . . . . . . . . . . . . . . . . . . . . .",
" . . + . . . . . + . . . . . . . . . . . . . . . . . . . . . . . . . . . . . . . . . . . . . . .",
" . . + . + + + . + . . . . . . . . . . . . . . . . . . . . . . . . . . . . . . . . . . . . . . .",
" . . + . . . . . + . . . . . . . . . . . . . . . . . . . . . . . . . . . . . . . . . . . . . . .",
" . . + . + + + . + . . . . . . . . . . . . . . . . . . . . . . . . . . . . . . . . . . . . . . .",
" . . + . . . . . + . . . . . . . . . . . . . . . . . . . . . . . . . . . . . . . . . . . . . . .",
" . . + + + + + + + . . . . . . . . . . . . . . . . . . . . . . . . . . . . . . . . . . . . . . .",
" . . . . . . . . . . . . . . . . . . . . . . . . . . . . . . . . . . . . . . . . . . . . . . . .",
" . . . . . . . . . . . . . . . . . . . . . . . . . . . . . . . . . . . . . . . . . . . . . . . .",
" . @ @ @ @ @ @ @ @ @ @ @ # $ % & * = - ; > , ' ) ! ~ { ] ^ / ( _ + : < [ } | 1 2 3 4 5 6 7 8 9 .",
" . @ @ @ @ @ @ @ @ @ @ # $ % & 0 = - ; > , ' ) ! ~ { ] ^ / ( _ + : < a } | 1 2 3 4 5 6 7 8 9 b .",
" . @ @ @ @ @ @ @ @ @ # $ % & 0 = - ; > c ' ) ! ~ { ] ^ / ( _ + : < a } | 1 2 d 4 5 6 7 8 9 b e .",
" . @ @ @ @ @ @ @ @ # $ % & 0 = - . . . . . . . . . . . . . . . . . . 5 d 2 d 4 5 6 7 f 9 b e g .",
" . @ @ @ @ @ @ @ h $ % & 0 * - . . @ @ @ @ @ @ @ @ @ @ @ @ @ @ @ @ . i j 4 4 5 6 7 f 9 b e g k .",
" . @ @ @ @ @ @ h $ % & 0 * - . @ . @ @ @ @ @ @ @ @ @ @ @ @ @ @ @ @ . l m 9 5 6 7 f 9 b e g k n .",
" . @ @ @ @ @ h $ % & 0 * - . . . . @ @ @ @ @ @ @ @ @ @ @ @ @ @ @ @ . o p g 6 7 f 8 b e g k q r .",
" . @ @ @ @ h # % & 0 * = c . @ @ @ @ @ @ @ @ @ @ @ @ @ @ @ @ @ @ @ . s t k 7 f 8 b e g k q r j .",
" . @ @ @ h # % & 0 * = ; ~ . @ @ u u @ u u u @ u @ u u u u @ u @ @ . v w q f 8 b e g k q r j x .",
" . @ @ h # % & 0 * = ; > ] . @ @ @ @ @ @ @ @ @ @ @ @ @ @ @ @ @ @ @ . v y n 8 9 e g k q n j x z .",
" . @ h # $ & 0 * = - > c / . @ @ u @ u u u @ u u u u @ u u @ u @ @ . A y r 9 e g k q n j x z B .",
" . h # $ & 0 * = - > c , ( . @ @ @ @ @ @ @ @ @ @ @ @ @ @ @ @ @ @ @ . A C j e g k q n j x z B D .",
" . # $ & 0 * = - > c , ' E . @ @ u u u u @ u @ u u @ @ u u u @ @ @ . A F x g k q n r x z B D G .",
" . $ % 0 * = - ; c , ' ) + . @ @ @ @ @ @ @ @ @ @ @ @ @ @ @ @ @ @ @ . A F B k q n r x z B D H I .",
" . % 0 * = - ; c , ' ) ! : . @ @ @ u @ u u u u @ u @ u u u @ u @ @ . J K D q n r x z B D H I L .",
" . 0 * = - ; c , ' ) ! M < . @ @ @ @ @ @ @ @ @ @ @ @ @ @ @ @ @ @ @ . J N H n r j z B D H I L O .",
" . * = - ; > , ' ) ! M { a . @ @ u @ u u u @ P Q I Q Q Q L Q L L L R J S t T H D B D H G L O U .",
" . = - ; > , ' ) ! ~ { ] [ . @ @ @ @ @ @ @ @ V W X Y Z `.  C t p.. V.+.@.#.$.% m G H G L O U.& .",
" . - ; > , ' ) ! ~ { ] ^ } . @ @ u u @ u u u.*.= W.- Y Z N.  C.;.> V.+.@.#.,.'.) U G L O U.&.! .",
" . ; > c ' ) ! ~ { ] ^ / | . @ @ @ @ @ @ @ @ V.%.-.~ Z.{.].^./.(._...@.#.:.,.<.[.! I O U.&.!.} .",
" . > c ' ) ! ~ M ] ^ / ( 2 . @ @ u u u u @ u.| X Y Z.1.2 . . ..3.4.5.6.7 i.8.9.0.a O U.&.!.a.b .",
" . c ' ) ! ~ M ] ^ / ( E d . @ @ @ @ @ @ @ @ T.~ `.c.d.3.3.3.3.e.! ^.f v.g.h.9.$.b U.&.!.a.b.i .",
" . , ) ! ~ M ] ^ / ( E + 3 . @ @ u u u @ u u u `.-.j . ..3 . ..e x & d.k.l.m.9.n.i.&.!.a.b.i.o .",
" . ) ! ~ M { ^ / ( E + : 4 . @ @ @ @ @ @ @ @.p K.q.d.3.3.3.3.3.e x & 0.r.s.t.u.v.o.!.a.}.i.o.w .",
" . ! ~ M { ^ / ( E _ : < 4 . @ @ @ @ @ @ @ @.+ C._ ..3.3.x l.y.z [ & $.A.i.n.u.t.w.a.}.i.o.w.s .",
" . ~ M { ^ / ( E _ : < a 5 . @ @ @ @ @ @ @ @.+ w.B.C.3.3., % $ % % & &.r.a.$.u.t.s.}.i.o.w.s.D .",
" . M { ] / ( E _ : < a [ 6 . @ @ @ @ @ @ @ @.E.F y.G.3.3., % $ % % & e.H.&.0.u S.D.b.o.w.s.D.l .",
" . { ] / ( E _ + < a [ } f . . . . . . . . ..I p t.J.K.L.B & % & & c.M.N O.B.u.m.O.o.w.s.D.O.P .",
" . ] / ( E _ + < a [ } | f.. o.Q.R.e.e.e.e.e.S V.$ ..T.# > & % & a.U . o G.V.u.m.P.w.s.D.O.P.g .",
" . ^ ( E _ + < a [ } | 2 f m l o v A A A J J Q.p.).W.W.X.c C.@.$ s.Y.Y.Z B.`+ .h.g.s.D.O.P.g+. .",
" . ( E _ + : a [ } | 2 d 5 B++.; w C F F K N.`.E.#+@+++#+..l.s.o.}.& L H x.A+ ._+..D.O.l.g+. i .",
" . E _ + : a [ } | 1 d 3 4 7 e q n j x B D H+$.;.> V T.++%.#+++#+..P.D.w.i.v.u.8 i.O.l.g+. i+# .",
" . _ + : a [ } | 1 d 3 4 5 6 f 8 9 b e k q n+..t s+&+*+*+*.W+*+*+*+*.W.W+*+=+-.0 i.l.g+. i+# m .",
" . + : < [ } | 1 d 3 4 5 6 f 8 9 b e k q n r z+# W.B.0.$.n.n.v.t S.m.m.h.h._.[ p.g.P+. i+# m.: .",
" . . . . . . . . . . . . . . . . . . . . . . . . . . . . . . . . . . . . . . . . . . . . . . . ."};
