/* XPM */
static char * file_dot_zip_xpm[] = {
"48 48 113 2",
"  	c None",
" .	c #040204",
" +	c #000000",
" @	c #FCFEFC",
" #	c #A4A6A4",
" $	c #E5E5E5",
" %	c #545654",
" &	c #3C3A3C",
" *	c #343634",
" =	c #ACAAAC",
" -	c #6C6E6C",
" ;	c #747274",
" >	c #E4E2E4",
" ,	c #1C1E1C",
" '	c #C4C6C4",
" )	c #8C8E8C",
" !	c #5C5A5C",
" ~	c #FCFAFC",
" {	c #F4F6F4",
" ]	c #F4F2F4",
" ^	c #ECEEEC",
" /	c #E4E6E4",
" (	c #ECEAEC",
" _	c #DCDEDC",
" :	c #D4D6D4",
" <	c #DCDADC",
" [	c #D4D2D4",
" }	c #CCCECC",
" |	c #5456B4",
" 1	c #5456AC",
" 2	c #5452A4",
" 3	c #5452AC",
" 4	c #4C4E94",
" 5	c #54529C",
" 6	c #5C5AB4",
" 7	c #5C5EBC",
" 8	c #6462BC",
" 9	c #5C5EB4",
" 0	c #9C9E9C",
" a	c #ACAEAC",
" b	c #C4C2C4",
" c	c #444244",
" d	c #646664",
" e	c #CCCACC",
" f	c #545294",
" g	c #4C4E8C",
" h	c #0C0E1C",
" i	c #949694",
" j	c #0C0E0C",
" k	c #0C0A0C",
" l	c #3C3E3C",
" m	c #4C4A7C",
" n	c #444674",
" o	c #04060C",
" p	c #4C4A84",
" q	c #4C4A74",
" r	c #6466C4",
" s	c #949294",
" t	c #F4F6FC",
" u	c #6C6AC4",
" v	c #8482DC",
" w	c #343254",
" x	c #7C7AD4",
" y	c #BCBEBC",
" z	c #6C6ECC",
" A	c #A4A6EC",
" B	c #2C2E54",
" C	c #0C0A14",
" D	c #040614",
" E	c #141214",
" F	c #9496E4",
" G	c #BCBAF4",
" H	c #CCCEF4",
" I	c #7476CC",
" J	c #7472CC",
" K	c #34365C",
" L	c #242644",
" M	c #1C1E34",
" N	c #34325C",
" O	c #242244",
" P	c #ACAAEC",
" Q	c #E4E2FC",
" R	c #ECEAFC",
" S	c #ECEEFC",
" T	c #6466BC",
" U	c #2C2A4C",
" V	c #1C1E3C",
" W	c #14162C",
" X	c #BCBEF4",
" Y	c #C4C6F4",
" Z	c #D4D2F4",
" `	c #141224",
". 	c #141624",
"..	c #24264C",
".+	c #F4F2FC",
".@	c #3C3A64",
".#	c #1C1A34",
".$	c #24223C",
".%	c #1C1A2C",
".&	c #DCDAFC",
".*	c #DCDEFC",
".=	c #2C2E4C",
".-	c #3C3E6C",
".;	c #44426C",
".>	c #BCBABC",
".,	c #3C3E64",
".'	c #8C8A8C",
".)	c #B4B6B4",
".!	c #B4B2B4",
".~	c #848684",
".{	c #444644",
".]	c #A4A2A4",
".^	c #9C9A9C",
" . . . . . . . . . . . . . . . . . . . . . . . . . . . . . . . . . . . . . . . . . . . . . . . .",
" . + + + + + + . . . . . . . . . . . . . . . . . . . . . . . . . . . . . . @ # . . . . . . . . .",
" . + $ + + + + . . . . . . . . . . . . . . . . . . . . . . . . . . . . . . % & . . . . . . . . .",
" . + $ $ + + + . . . . . . . . . . . . . . . . . . . . . . . * # = # = - . @ # . ; # . = - . . .",
" . + $ $ $ + + . . . . . . . . . . . . . . . . . . . . . . . % @ @ @ @ = . @ = . # @ > @ @ % . .",
" . + $ $ $ $ + . . . . . . . . . . . . . . . . . . . . . . . . . . = @ , . @ = . = @ - . ' > * .",
" . + $ $ $ $ $ . . . . . . . . . . . . . . . . . . . . . . . . , ' @ % . . @ = . = @ . . % @ % .",
" . + $ $ $ $ + . . . . . . . . . . . . . . . . . . . . . . . . = @ % . . . @ # . = @ * . ) @ % .",
" . + $ $ $ + + . . . . . . . . . . . . . . . . . . . . * = - * @ > % % * . @ = . # @ = % > ' , .",
" . + $ $ + + + . . . . . . . . . . . . . . . . . . . . % @ = ! @ @ @ @ = . @ = . = @ ) @ > , . .",
" . + $ + + + + . . . . . . . . . . . . . . . . . . . . . . . . . . . . . . . . . = @ . . . . . .",
" . + + + + + + . . . . . . . . . . . . . . . . . . . . . . . . . . . . . . . . . = @ . . . . . .",
" . . . . . . . . . . . . . . . . . . . . . . . . . . . . . . . . . . . . . . . . . . . . . . . .",
" . @ @ @ @ @ @ @ @ @ @ @ ~ @ { ~ { { { ] { ^ ] ^ ^ ^ ^ / ( / / / > / _ > _ _ _ _ : < : : : : [ .",
" . @ @ @ @ @ @ @ @ @ @ @ @ ~ ~ ~ { { { { ] ] ^ ] ^ ( ( ^ ( / ( > / > > _ > _ _ < < < : < : [ [ .",
" . @ @ @ @ @ @ @ @ @ @ @ ~ ~ ~ { ~ { { ] ^ ] ^ ^ ^ ( ( / ( / / / > > _ > _ < _ < : < : : [ : } .",
" . @ @ @ @ @ | 1 1 2 3 2 4 5 | | 6 | 3 1 3 3 3 2 1 6 1 6 1 7 8 9 6 1 1 6 3 1 1 2 [ [ : [ [ [ } .",
" . @ @ @ @ @ 6 3 1 3 1 1 1 1 6 1 3 3 1 3 3 5 3 1 1 1 6 9 7 9 6 6 1 1 1 3 1 5 2 2 0 a b : } [ } .",
" . @ @ @ @ @ 6 1 3 1 3 3 | 3 1 5 4 1 3 1 2 4 1 4 2 1 6 9 6 6 1 3 3 3 3 3 5 2 2 4 c d = e [ } } .",
" . @ @ @ @ @ 1 3 3 3 1 3 3 3 2 5 2 1 3 5 2 4 f g 5 6 | 6 | 1 3 3 3 1 4 2 4 1 4 5 h c i e } [ } .",
" . @ @ @ @ @ 7 6 | 1 | 3 1 1 3 3 1 2 4 2 4 f 4 f 4 3 3 3 3 5 4 2 4 f 4 f 2 2 2 4 j & i e } } e .",
" . @ @ @ @ @ 1 3 1 3 3 1 3 3 1 3 1 2 4 2 2 4 2 5 2 4 5 4 5 4 4 4 f 4 2 4 4 2 4 5 k l i ' } } e .",
" . @ @ @ @ ~ 2 3 3 5 4 | 6 | 1 3 1 3 | 3 1 3 2 4 2 4 g f g g m m m g g f g 4 5 4 k & i e e e ' .",
" . @ @ @ @ ~ 3 3 1 1 | 1 1 1 3 3 3 1 3 2 4 1 2 g 4 f m g m g g n m g f 4 g 5 2 5 o & i b e } ' .",
" . @ @ ~ ~ ~ 3 1 3 3 3 3 3 5 2 3 1 3 4 2 2 4 5 4 f m p m g f m q n g 5 5 5 4 | 7 k & i b e ' e .",
" . @ @ ~ ~ { 1 3 3 1 3 1 2 2 4 3 1 4 1 4 4 5 4 g m n p f g g g 5 r r 1 3 | | 8 6 o * s b ' e ' .",
" . ~ ~ ~ { t 6 3 1 3 1 3 1 3 1 2 4 5 4 f 4 g f g g g g g f g u v g w n 2 1 1 r x o l s y e ' ' .",
" . ~ ~ { ~ { 1 1 3 3 | 4 2 1 1 | 2 1 2 2 5 f g 4 f f 2 9 z A A B C D E g F G H > o & ) b ' ' b .",
" . { { ~ { ] 7 7 9 6 7 | 1 | 1 | 1 7 8 r z I z u J 7 2 m K w L M L N O P Q R S S k * s y ' ' b .",
" . { ~ { { { r 8 7 8 | 6 | 6 8 T r 6 7 5 q n B U V E o W P X Y Z Y X | G ^ t t ~ o & ) b b ' y .",
" . { { ] ] ] J v u x u u T u 6 4 U h ` h.  N U L.. W o V F 6 m B O M E F R.+ t ] k * s y b b b .",
" . { { { ] ] f 4 K.@ U U U L V W ` C h E W L.#.#.$.# W.% B.@ w.% h D . m Y.&.&.* k * ) y y b y .",
" . ] { ] ] ^ V M L V L...= L U U W W N.- K N B K K.@.;.@ U U V ` o . D L.- q m n k * ).> b y y .",
" . ] ] ] ^ ].,.= m.@ n q n.;.-.@ U w 5 | 2.- K U U.. U.. L L L L O M.$ w m g g f o & ).> b y y .",
" . ] ^ ] ^ ^ n m m g p g g f g p n.@ N B U U L L U U.= w w N B w N w K n f 4 5 4 k *.'.) y y.> .",
" . ^ ] ^ ] ^ 3 3 1 6 9 1 6 | 3 5 p n.@ K N w N w w N K.@.-.;.@.@.-.- m 5 2 4 5 3 k *.'.> y y.> .",
" . ^ ^ ^ ( ( 7 7 8 8 8 8 8 8 | 1 4 f g m n n n n.- n n n p p m n m g 4 5 4 2 1 3 o *.'.) y.>.> .",
" . ^ ] ^ ^ ( 8 8 8 r u r u r 9 6 | 4 3 3 | 1 3 5 5 5 5 5 5 4 5 4 g 5 5 1 | 1 | 3 k *.'.).>.>.) .",
" . ^ ( ( ( ( 7 7 7 8 8 r 8 7 1 3 3 5 1 | 9 6 6 3 3 3 3 3 4 2 1 5 5 2 1 | 1 3 1 1 o *.'.!.>.).> .",
" . ^ ^ ( ( / 3 9 6 7 7 7 6 1 3 1 1 3 3 6 1 6 | | | 1 | 3 1 3 | 3 1 1 1 3 5 5 | 2 k *.~.).).>.) .",
" . ( ( / ( / 5 7 6 6 9 | 1 3 3 | 3 4 | 1 | 6 9 6 9 6 1 1 2 3 3 3 2 2 3 4 4 5 1 1 k *.~.!.>.).) .",
" . ^ / ( / / 1 6 1 | 1 6 | 6 7 1 6 | 1 3 1 6 | 6 1 6 | | 1 3 1 3 3 1 | 2 5 2 3 f o *.~.!.).).! .",
" . / ( / / / < #.{ E k k k o k k o k k k o k o k o k o k o o o o k o k o k o o k j &.~.!.!.).! .",
" . ( / / ( > _.! -.{ l l l l l l l & & & l & & & & * & & * & & * & * * * * * * * & ! s.!.!.) a .",
" . / / / > > _ [.!.].] 0.].^.^.^.^ i.^ i i i i i s s ) s ) ) ) ) ) ).'.'.'.~.'.~.~ s #.!.!.!.! .",
" . ( / > > > _ < < : [ [ } [ } } } } e ' e ' ' b ' y b y b y y.>.>.>.).).).! a.!.! a.!.!.! a a .",
" . > > / > _ > _ < < < : < : [ : [ [ } [ } e } e ' e ' ' b b b y y y y.>.>.>.>.).).).!.! a.! a .",
" . . . . . . . . . . . . . . . . . . . . . . . . . . . . . . . . . . . . . . . . . . . . . . . ."};
