/* XPM */
static char * file_dot_py_xpm[] = {
"48 48 360 2",
"  	c None",
" .	c #000000",
" +	c #E5E5E5",
" @	c #AAAAAA",
" #	c #717171",
" $	c #383838",
" %	c #FFFFFF",
" &	c #E2E2E2",
" *	c #1C1C1C",
" =	c #C6C6C6",
" -	c #8D8D8D",
" ;	c #555555",
" >	c #FDFDFD",
" ,	c #FCFCFC",
" '	c #FBFBFB",
" )	c #FAFAFA",
" !	c #F8F8F8",
" ~	c #F7F7F7",
" {	c #F6F6F6",
" ]	c #F5F5F5",
" ^	c #F4F4F4",
" /	c #F2F2F2",
" (	c #F1F1F1",
" _	c #F0F0F0",
" :	c #EFEFEF",
" <	c #EEEEEE",
" [	c #ECECEC",
" }	c #EBEBEB",
" |	c #EAEAEA",
" 1	c #E9E9E9",
" 2	c #E8E8E8",
" 3	c #E6E6E6",
" 4	c #E4E4E4",
" 5	c #E3E3E3",
" 6	c #E1E1E1",
" 7	c #E0E0E0",
" 8	c #DFDFDF",
" 9	c #DEDEDE",
" 0	c #DDDDDD",
" a	c #DBDBDB",
" b	c #DADADA",
" c	c #D9D9D9",
" d	c #D8D8D8",
" e	c #D7D7D7",
" f	c #D5D5D5",
" g	c #D4D4D4",
" h	c #F9F9F9",
" i	c #D3D3D3",
" j	c #F3F3F3",
" k	c #DCDCDC",
" l	c #D2D2D2",
" m	c #EDEDED",
" n	c #E7E7E7",
" o	c #D6D6D6",
" p	c #D1D1D1",
" q	c #FEFEFE",
" r	c #D0D0D0",
" s	c #CECECE",
" t	c #CFCFCF",
" u	c #CDCDCD",
" v	c #CCCCCC",
" w	c #CBCBCB",
" x	c #CADAE4",
" y	c #96BBD3",
" z	c #6DA2C6",
" A	c #4C8FBC",
" B	c #3180B4",
" C	c #1F75AE",
" D	c #116CAA",
" E	c #0867A7",
" F	c #0365A6",
" G	c #0063A5",
" H	c #0365A5",
" I	c #0767A7",
" J	c #106CA9",
" K	c #1D73AC",
" L	c #2F7DB1",
" M	c #478AB7",
" N	c #649ABE",
" O	c #8AAEC7",
" P	c #B6C6D1",
" Q	c #CACACA",
" R	c #A3C4D9",
" S	c #4B8FBD",
" T	c #0968A8",
" U	c #2B3840",
" V	c #253139",
" W	c #25323A",
" X	c #436378",
" Y	c #347DAE",
" Z	c #222B31",
" `	c #253037",
". 	c #3F7CA5",
"..	c #4186B3",
".+	c #8EAEC4",
".@	c #C9C9C9",
".#	c #98BED7",
".$	c #1670AC",
".%	c #0B69A8",
".&	c #090B0D",
".*	c #989899",
".=	c #676767",
".-	c #101416",
".;	c #446377",
".>	c #3E7FAA",
".,	c #151616",
".'	c #B9B9B9",
".)	c #2E2F2F",
".!	c #1F272C",
".~	c #427BA1",
".{	c #126CA8",
".]	c #7FA5BE",
".^	c #C8C8C8",
"./	c #C3C3C3",
".(	c #A8A8A8",
"._	c #A5A5A5",
".:	c #6D8392",
".<	c #426881",
".[	c #426780",
".}	c #416781",
".|	c #426983",
".1	c #436A84",
".2	c #426A85",
".3	c #467B9E",
".4	c #2E7BAE",
".5	c #426982",
".6	c #40637A",
".7	c #010202",
".8	c #9C9C9C",
".9	c #1B2227",
".0	c #3D7EAA",
".a	c #272828",
".b	c #4F5050",
".c	c #202C34",
".d	c #467594",
".e	c #2577AE",
".f	c #416780",
".g	c #436880",
".h	c #42677F",
".i	c #436982",
".j	c #667A88",
".k	c #434343",
".l	c #444444",
".m	c #707070",
".n	c #707071",
".o	c #737373",
".p	c #757575",
".q	c #0B0C0C",
".r	c #575858",
".s	c #3A3B3B",
".t	c #1A2025",
".u	c #354C5C",
".v	c #121313",
".w	c #747475",
".x	c #69696A",
".y	c #4B4C4C",
".z	c #0A0C0C",
".A	c #3E5B6E",
".B	c #5C5D5D",
".C	c #6F6F70",
".D	c #484949",
".E	c #0B0E10",
".F	c #3E596B",
".G	c #080909",
".H	c #727273",
".I	c #353636",
".J	c #282828",
".K	c #6C6C6C",
".L	c #0B0B0B",
".M	c #727272",
".N	c #232323",
".O	c #2B3B45",
".P	c #95ACBB",
".Q	c #C7C7C7",
".R	c #C5C5C5",
".S	c #32383C",
".T	c #B4B4B4",
".U	c #848485",
".V	c #0D0E0E",
".W	c #A2A2A3",
".X	c #4A4B4B",
".Y	c #3D3E3E",
".Z	c #BCBCBC",
".`	c #2A2B2B",
"+ 	c #979798",
"+.	c #3E3F3F",
"++	c #0A0B0B",
"+@	c #7F7F80",
"+#	c #C2C2C2",
"+$	c #303030",
"+%	c #7A7A7A",
"+&	c #ABABAB",
"+*	c #212121",
"+=	c #7A9FB8",
"+-	c #C4C4C4",
"+;	c #9FC2DA",
"+>	c #232C33",
"+,	c #B5B5B5",
"+'	c #383939",
"+)	c #3C3C3C",
"+!	c #646464",
"+~	c #5A5B5B",
"+{	c #BBBBBB",
"+]	c #2B2C2C",
"+^	c #2C2D2D",
"+/	c #777778",
"+(	c #333434",
"+_	c #A7A7A7",
"+:	c #060707",
"+<	c #818182",
"+[	c #090A0A",
"+}	c #545555",
"+|	c #BDBDBD",
"+1	c #7B7B7B",
"+2	c #0F0F0F",
"+3	c #959595",
"+4	c #202A30",
"+5	c #7CA0B8",
"+6	c #287BB2",
"+7	c #222B32",
"+8	c #B7B7B7",
"+9	c #636364",
"+0	c #020303",
"+a	c #1C1D1D",
"+b	c #A2A2A2",
"+c	c #000101",
"+d	c #0F1010",
"+e	c #2D2E2E",
"+f	c #7B7B7C",
"+g	c #070808",
"+h	c #9D9D9E",
"+i	c #565757",
"+j	c #BFBFBF",
"+k	c #7E7E7E",
"+l	c #373737",
"+m	c #020202",
"+n	c #979797",
"+o	c #1F262A",
"+p	c #1F72A9",
"+q	c #263138",
"+r	c #B3B3B3",
"+s	c #474848",
"+t	c #4A4A4A",
"+u	c #4C4C4C",
"+v	c #282929",
"+w	c #454646",
"+x	c #8B8B8C",
"+y	c #313232",
"+z	c #9E9E9E",
"+A	c #6D6D6E",
"+B	c #393A3A",
"+C	c #505151",
"+D	c #515252",
"+E	c #C0C0C0",
"+F	c #BABABA",
"+G	c #797979",
"+H	c #0A0A0A",
"+I	c #939393",
"+J	c #212C34",
"+K	c #B1B1B1",
"+L	c #A3A3A4",
"+M	c #676768",
"+N	c #131414",
"+O	c #949495",
"+P	c #787878",
"+Q	c #949494",
"+R	c #9CC0D8",
"+S	c #26333B",
"+T	c #585858",
"+U	c #666666",
"+V	c #456479",
"+W	c #446C86",
"+X	c #446D87",
"+Y	c #0D1113",
"+Z	c #595A5A",
"+`	c #8A8A8B",
"@ 	c #89898A",
"@.	c #030404",
"@+	c #5C5C5C",
"@@	c #767677",
"@#	c #0C0D0D",
"@$	c #8F8F90",
"@%	c #1F2020",
"@&	c #0E0F0F",
"@*	c #8C8C8D",
"@=	c #464747",
"@-	c #353535",
"@;	c #868686",
"@>	c #454545",
"@,	c #242E35",
"@'	c #799DB4",
"@)	c #768B98",
"@!	c #14191D",
"@~	c #030303",
"@{	c #1C73AD",
"@]	c #436C88",
"@^	c #13191D",
"@/	c #293740",
"@(	c #3C586A",
"@_	c #12181B",
"@:	c #192227",
"@<	c #1A2227",
"@[	c #2A3942",
"@}	c #070707",
"@|	c #2D3235",
"@1	c #86949D",
"@2	c #2A3842",
"@3	c #136EAB",
"@4	c #456C85",
"@5	c #293841",
"@6	c #27353E",
"@7	c #27333C",
"@8	c #357DAD",
"@9	c #436A83",
"@0	c #293842",
"@a	c #2A3841",
"@b	c #28363F",
"@c	c #26323B",
"@d	c #457697",
"@e	c #487898",
"@f	c #2A3944",
"@g	c #25343E",
"@h	c #26343D",
"@i	c #367EAF",
"@j	c #384D5C",
"@k	c #3C4144",
"@l	c #6A6A6A",
"@m	c #679FC4",
"@n	c #538BB0",
"@o	c #8FB5CE",
"@p	c #146EAB",
"@q	c #116BA7",
"@r	c #769CB6",
"@s	c #BEBEBE",
"@t	c #98B9CF",
"@u	c #468AB8",
"@v	c #3D81AE",
"@w	c #83A4B9",
"@x	c #C1C1C1",
"@y	c #BACAD4",
"@z	c #8BB0C8",
"@A	c #4689B6",
"@B	c #2E7CB0",
"@C	c #1C72AB",
"@D	c #106BA8",
"@E	c #0767A6",
"@F	c #0364A5",
"@G	c #0766A6",
"@H	c #0F6BA8",
"@I	c #1B71AA",
"@J	c #2B79AD",
"@K	c #4184B1",
"@L	c #5C92B5",
"@M	c #7EA3BB",
"@N	c #A7B6C1",
"@O	c #B8B8B8",
"@P	c #B6B6B6",
"@Q	c #B2B2B2",
"@R	c #B0B0B0",
"@S	c #AFAFAF",
" . . . . . . . . . . . . . . . . . . . . . . . . . . . . . . . . . . . . . . . . . . . . . . . .",
" . . . . . . . . . . . . . . . . . . . . . . . . . . . . . . . . . . . . . . . . . . . . . . . .",
" . . + + + + + + + . . . . . . . . . . . . . . . . . . . . . . . . @ # $ @ $ . . @ @ . . @ # . .",
" . . + . . . . . + . . . . . . . . . . . . . . . . . . . . . . . . % & % % & * . & % . * % # . .",
" . . + . + + + . + . . . . . . . . . . . . . . . . . . . . . . . . % % * * % = . - % ; ; % * . .",
" . . + . . . . . + . . . . . . . . . . . . . . . . . . . . . . . . % @ . . @ % . $ % @ @ = . . .",
" . . + . + + + . + . . . . . . . . . . . . . . . . . . . . . . . . % & . . & % . . & & & # . . .",
" . . + . . . . . + . . . . . . . . . . . . . . . . . . . . $ @ # . % % # # % - . . @ % % $ . . .",
" . . + . + + + . + . . . . . . . . . . . . . . . . . . . . ; % @ . % = = % @ . . . . % & . . . .",
" . . + . . . . . + . . . . . . . . . . . . . . . . . . . . . . . . % @ . . . . . . $ % - . . . .",
" . . + + + + + + + . . . . . . . . . . . . . . . . . . . . . . . . % @ . . . . . ; % % * . . . .",
" . . . . . . . . . . . . . . . . . . . . . . . . . . . . . . . . . . . . . . . . . . . . . . . .",
" . . . . . . . . . . . . . . . . . . . . . . . . . . . . . . . . . . . . . . . . . . . . . . . .",
" . % % % % % % % % % % % > , ' ) ! ~ { ] ^ / ( _ : < [ } | 1 2 3 + 4 5 6 7 8 9 0 a b c d e f g .",
" . % % % % % % % % % % > , ' ) h ~ { ] ^ / ( _ : < [ } | 1 2 3 + 4 5 & 7 8 9 0 a b c d e f g i .",
" . % % % % % % % % % > , ' ) h ~ { ] ^ j ( _ : < [ } | 1 2 3 + 4 5 & 7 8 9 0 k b c d e f g i l .",
" . % % % % % % % % > , ' ) h ~ { ] ^ j ( _ : < m } | 1 2 n + 4 5 & 7 8 9 0 k b c d e o g i l p .",
" . % % % % % % % q , ' ) h ! { ] ^ j ( _ : < m } | 1 2 n + 4 5 & 6 8 9 0 k b c d e o g i l p r .",
" . % % % % % % q , ' ) h ! { ] ^ j / _ : < m } | 1 2 n + 4 5 & 6 8 9 0 k a c d e o g i l p r s .",
" . % % % % % q , ' ) h ! { ] ^ j / _ : < m [ | 1 2 n 3 4 5 & 6 8 9 0 k a c d e o f i l p r t u .",
" . % % % % q > ' ) h ! ~ ] ^ j / _ : < m [ | 1 2 n 3 4 5 & 6 7 9 0 k a c d e o f i l p r t u v .",
" . % % % q > ' ) h ! ~ ] ^ j / ( : < m [ | 1 2 n 3 4 5 & 6 7 9 0 k a b d e o f i l p r t u v w .",
" . % % q > ' ) h ! ~ ] ^ j / x y z A B C D E F G G H I J K L M N O P d e o f g l p r t s v w Q .",
" . % q > , ) h ! ~ { R S G G G G T U V W X G Y Z Z `.  G G G G G G G G G...+ l p r t s v w Q.@ .",
" . q > , ) h !.#.$ G G G G G G G.%.&.*.=.-.;.>.,.'.).!.~ G G G G G G G G G G G.{.] s v w Q.@.^ .",
" . >./.(._.:.<.[.}.|.1.2.3.4.5.[.6.7 a.8 ..9.0.a >.b ..c.2.d.e.f.[.5.1.1.2.1.|.g.h.i.j./.@.^ = .",
" . ,.k.l.m.n.o.p.q ..r.s.t.u.v.w.q.x _ l.y.z.A.a >.b.B.C.D.E.F.G.w.H.n.I ..J.K.L.p.M.N.O.P.Q.R .",
" . '.S.T q ! ) >.U.V c.W . ..X >.Y ( > q.Z . ..` >+  ( h b+.+++@ , ! !+#+$+% q - > )+&+* `+=+- .",
" .+;+>+, k+'+)+! >+~ a+{+]+^+/ >+(.q 7+_+: . .+^ > >+<+[.W 5+} >.s.q++ =+|+1 % q $+2 1+3 .+4+5 .",
" .+6+7+8 % > % %+9+0+a.@ > > > >.I . 7+b .+c+d+e >+f+g .+h ++i >+e . .+-+j+k ,+l .+m |+n .+o+p .",
" . G+q+r 7+s+t+u+0 . .+v+w+s+x >+y . 0+z .+A ]+B >+C . ..* 6+D >.` . .+E+F+G ~+H .+m 3+I .+J G .",
" .+6+q+K.Q . . . . . .+L 2 1 ~+@.G .+} b 2 _+M.` >+C . .+  8+N+O ^ | |.^.k+P ~.L .+m ++Q .+>+p .",
" .+R+S+T+U . .+V+W+X+Y+Z+`+x@ @. . . .@++`@@ .@#@$@% . .+s.w .@&@$@*+x@= .@-@;+m . .+P@> .@,@' .",
" . ^@)@! . .@~@{ G G@]@^ . . . . .@/@(@_ . . . . . . .@:@< . . . . . . . . . . . .@[@} . .@|+| .",
" . j (@1@2@/@[@3 G G G@4@5@/@6 W@7@8 G@9@0@a@b W@c@b@/@d@e@a@b+S@c@b@a@[@f@/@b@g@h@i@j@2@k@l.Z .",
" . / _ : <@m G G G G G G G G G G G G G G G G G G G G G G G G G G G G G G G G G G G G@n+j+|.Z+{ .",
" . _ : < m [ |@o@p G G G G G G G G G G G G G G G G G G G G G G G G G G G G G G@q@r+E+j@s.Z+{+F .",
" . : < m [ | 1 2 n 3@t@u G G G G G G G G G G G G G G G G G G G G G G G G@v@w+#@x+E+j@s.Z+{+F.' .",
" . < m [ | 1 2 n 3 4 5 & 6 7@y@z N@A@B@C@D@E@F G G@F@G@H@I@J@K@L@M@N =.R+-./@x+E+j@s.Z+{+F.'@O .",
" . m [ } 1 2 n 3 4 5 & 6 7 9 0 k a b d e o f g l p r t u v w Q.@.Q =.R+-./@x+E+j@s+|+{+F.'@O@P .",
" . [ } 1 2 n 3 + 5 & 6 7 9 0 k a b d e o f g l p r t s v w Q.@.Q =.R+-./@x+E+j@s+|+{+F.'@O+8+, .",
" . } 1 2 n 3 + 5 & 6 7 8 0 k a b c e o f g l p r t s v w Q.@.^ =.R+-./+#+E+j@s+|+{+F.'@O+8+,.T .",
" . | 2 n 3 + 5 & 6 7 8 0 k a b c e o f g i p r t s v w Q.@.^ =.R+-./+#+E+j@s+|.Z+F.'@O+8+,.T+r .",
" . 2 n 3 + 4 & 6 7 8 0 k a b c e o f g i p r t s u w Q.@.^ =.R+-./+#+E+j@s+|.Z+F.'@O+8@P.T+r@Q .",
" . n 3 + 4 & 6 7 8 9 k a b c d o f g i p r t s u w Q.@.^.Q.R+-./+#@x+j@s+|.Z+F.'@O+8@P.T+r@Q+K .",
" . 3 + 4 & 6 7 8 9 k a b c d o f g i l r t s u w Q.@.^.Q.R+-./+#@x+j@s+|.Z+{.'@O+8@P.T+r@Q+K@R .",
" . + 4 5 6 7 8 9 k a b c d o f g i l r t s u v Q.@.^.Q.R+-./+#@x+j@s+|.Z+{.'@O+8@P+,+r@Q+K@R@S .",
" . . . . . . . . . . . . . . . . . . . . . . . . . . . . . . . . . . . . . . . . . . . . . . . ."};
