/* XPM */
static char * file_dot_gif_xpm[] = {
"48 48 693 2",
"  	c None",
". 	c #000000",
"+ 	c #AAAAAA",
"@ 	c #FFFFFF",
"# 	c #E5E5E5",
"$ 	c #383838",
"% 	c #555555",
"& 	c #C6C6C6",
"* 	c #E2E2E2",
"= 	c #717171",
"- 	c #1C1C1C",
"; 	c #FDFDFD",
"> 	c #FCFCFC",
", 	c #FBFBFB",
"' 	c #FAFAFA",
") 	c #F8F8F8",
"! 	c #F7F7F7",
"~ 	c #F6F6F6",
"{ 	c #F5F5F5",
"] 	c #F4F4F4",
"^ 	c #F2F2F2",
"/ 	c #F1F1F1",
"( 	c #F0F0F0",
"_ 	c #EFEFEF",
": 	c #EEEEEE",
"< 	c #ECECEC",
"[ 	c #EBEBEB",
"} 	c #EAEAEA",
"| 	c #E9E9E9",
"1 	c #E8E8E8",
"2 	c #E6E6E6",
"3 	c #E4E4E4",
"4 	c #E3E3E3",
"5 	c #E1E1E1",
"6 	c #E0E0E0",
"7 	c #DFDFDF",
"8 	c #DEDEDE",
"9 	c #DDDDDD",
"0 	c #DBDBDB",
"a 	c #DADADA",
"b 	c #D9D9D9",
"c 	c #D8D8D8",
"d 	c #D7D7D7",
"e 	c #D5D5D5",
"f 	c #D4D4D4",
"g 	c #EDEDED",
"h 	c #E7E7E7",
"i 	c #DCDCDC",
"j 	c #D6D6D6",
"k 	c #D3D3D3",
"l 	c #0A0A0A",
"m 	c #2A2A2A",
"n 	c #0F0F0F",
"o 	c #262626",
"p 	c #171717",
"q 	c #1E1E1E",
"r 	c #161616",
"s 	c #252525",
"t 	c #242424",
"u 	c #070707",
"v 	c #232323",
"w 	c #0E0E0E",
"x 	c #151515",
"y 	c #1B1B1B",
"z 	c #141414",
"A 	c #222222",
"B 	c #0D0D0D",
"C 	c #232121",
"D 	c #060606",
"E 	c #B4B4B4",
"F 	c #C9C9C9",
"G 	c #D2D2D2",
"H 	c #F9F9F9",
"I 	c #2B2B2B",
"J 	c #999999",
"K 	c #353535",
"L 	c #6A6A6A",
"M 	c #4B4B4B",
"N 	c #545454",
"O 	c #606060",
"P 	c #3E3E3E",
"Q 	c #737373",
"R 	c #292929",
"S 	c #6B6B6B",
"T 	c #181818",
"U 	c #666666",
"V 	c #2E2E2E",
"W 	c #626262",
"X 	c #454545",
"Y 	c #4E4E4E",
"Z 	c #585858",
"` 	c #393939",
" .	c #1C1616",
"..	c #828282",
"+.	c #B2B2B2",
"@.	c #D0D0D0",
"#.	c #D1D1D1",
"$.	c #282828",
"%.	c #909090",
"&.	c #363636",
"*.	c #5E5E5E",
"=.	c #333333",
"-.	c #6D6D6D",
";.	c #212121",
">.	c #111111",
",.	c #565656",
"'.	c #2F2F2F",
").	c #4F4F4F",
"!.	c #3F3F3F",
"~.	c #575757",
"{.	c #646464",
"].	c #1D1717",
"^.	c #7B7B7B",
"/.	c #ABABAB",
"(.	c #CECECE",
"_.	c #979797",
":.	c #3B3B3B",
"<.	c #5D5D5D",
"[.	c #4A4A4A",
"}.	c #696969",
"|.	c #373737",
"1.	c #797979",
"2.	c #676767",
"3.	c #1A1A1A",
"4.	c #131313",
"5.	c #343434",
"6.	c #444444",
"7.	c #616161",
"8.	c #707070",
"9.	c #221A1A",
"0.	c #818181",
"a.	c #CDCDCD",
"b.	c #FEFEFE",
"c.	c #010101",
"d.	c #200404",
"e.	c #490808",
"f.	c #480807",
"g.	c #460807",
"h.	c #440805",
"i.	c #400601",
"j.	c #3D0501",
"k.	c #360402",
"l.	c #360300",
"m.	c #2D0201",
"n.	c #270303",
"o.	c #220000",
"p.	c #1C0000",
"q.	c #140202",
"r.	c #200000",
"s.	c #220202",
"t.	c #290101",
"u.	c #2E0100",
"v.	c #2E0302",
"w.	c #300302",
"x.	c #2B0101",
"y.	c #210101",
"z.	c #190303",
"A.	c #140000",
"B.	c #180000",
"C.	c #0C0202",
"D.	c #A6A6A6",
"E.	c #CBCBCB",
"F.	c #CFCFCF",
"G.	c #F3F3F3",
"H.	c #933530",
"I.	c #FCFBF6",
"J.	c #FDFCEC",
"K.	c #FCF8CB",
"L.	c #FAF2B4",
"M.	c #F9EB97",
"N.	c #F9D37A",
"O.	c #F6BE5D",
"P.	c #F4BA54",
"Q.	c #F78927",
"R.	c #F75E02",
"S.	c #D44000",
"T.	c #A60B00",
"U.	c #700200",
"V.	c #9C0B00",
"W.	c #B41500",
"X.	c #B61D00",
"Y.	c #D03500",
"Z.	c #F74D02",
"`.	c #E34C02",
" +	c #F04002",
".+	c #ED3901",
"++	c #E63000",
"@+	c #CE2100",
"#+	c #D02200",
"$+	c #900A00",
"%+	c #8A0300",
"&+	c #A40700",
"*+	c #440000",
"=+	c #505050",
"-+	c #9D9D9D",
";+	c #CCCCCC",
">+	c #933432",
",+	c #FCFBF0",
"'+	c #FCFAE0",
")+	c #FBF6C3",
"!+	c #FAF1A5",
"~+	c #FAE994",
"{+	c #F7D071",
"]+	c #F6C864",
"^+	c #F4B34D",
"/+	c #F78E27",
"(+	c #FA6002",
"_+	c #BE1F00",
":+	c #680000",
"<+	c #4C0000",
"[+	c #580000",
"}+	c #560000",
"|+	c #600000",
"1+	c #600400",
"2+	c #780500",
"3+	c #6E0700",
"4+	c #860600",
"5+	c #800600",
"6+	c #880600",
"7+	c #920A00",
"8+	c #AA1300",
"9+	c #9E0300",
"0+	c #460000",
"a+	c #989898",
"b+	c #C8C8C8",
"c+	c #933326",
"d+	c #FDF9D4",
"e+	c #FBF8CB",
"f+	c #FAF3B8",
"g+	c #FAEEA6",
"h+	c #FADE89",
"i+	c #F7CF6D",
"j+	c #F3B551",
"k+	c #F58F34",
"l+	c #F87806",
"m+	c #520000",
"n+	c #340000",
"o+	c #360000",
"p+	c #3C0000",
"q+	c #420000",
"r+	c #540000",
"s+	c #7E0200",
"t+	c #8E0600",
"u+	c #920D00",
"v+	c #900300",
"w+	c #8C0000",
"x+	c #8E0300",
"y+	c #6E0000",
"z+	c #5E0000",
"A+	c #AA0B00",
"B+	c #4A0100",
"C+	c #969696",
"D+	c #C7C7C7",
"E+	c #CACACA",
"F+	c #933320",
"G+	c #FBF7C9",
"H+	c #F9EC9F",
"I+	c #F9EA93",
"J+	c #FAE390",
"K+	c #F9D57D",
"L+	c #F6CA68",
"M+	c #F5C25D",
"N+	c #F39141",
"O+	c #EA5A02",
"P+	c #660400",
"Q+	c #5C0000",
"R+	c #6E0200",
"S+	c #680200",
"T+	c #720200",
"U+	c #7A0500",
"V+	c #960300",
"W+	c #9A0E00",
"X+	c #9A1500",
"Y+	c #9E0E00",
"Z+	c #9A1C00",
"`+	c #9E1D00",
" @	c #981100",
".@	c #660000",
"+@	c #740500",
"@@	c #A80700",
"#@	c #4C0100",
"$@	c #3A3A3A",
"%@	c #FBF8C5",
"&@	c #FBF0B0",
"*@	c #F9EC98",
"=@	c #F8E48E",
"-@	c #F8D37A",
";@	c #F8CD71",
">@	c #F7C864",
",@	c #F2B046",
"'@	c #F5981F",
")@	c #E45C01",
"!@	c #9C1900",
"~@	c #6E0500",
"{@	c #6C0200",
"]@	c #620600",
"^@	c #680400",
"/@	c #7E0800",
"(@	c #7E0500",
"_@	c #940A00",
":@	c #9E0B00",
"<@	c #A40B00",
"[@	c #BC1600",
"}@	c #9A0A00",
"|@	c #820600",
"1@	c #3E0000",
"2@	c #959595",
"3@	c #C4C4C4",
"4@	c #923323",
"5@	c #FCF9C9",
"6@	c #FCF7C1",
"7@	c #FAF1A3",
"8@	c #F8E88D",
"9@	c #F9D880",
"0@	c #F9CF74",
"a@	c #F8CC6F",
"b@	c #F5BA54",
"c@	c #F79A2C",
"d@	c #E65D01",
"e@	c #9C1D00",
"f@	c #340100",
"g@	c #320000",
"h@	c #480000",
"i@	c #720500",
"j@	c #740800",
"k@	c #940600",
"l@	c #800300",
"m@	c #949494",
"n@	c #C3C3C3",
"o@	c #933424",
"p@	c #FBF7D1",
"q@	c #FCF8C9",
"r@	c #FAF6B6",
"s@	c #F7EB8F",
"t@	c #F9E48D",
"u@	c #FADF8B",
"v@	c #F7CA69",
"w@	c #F4BC58",
"x@	c #F49036",
"y@	c #E65701",
"z@	c #760D00",
"A@	c #3A0000",
"B@	c #5A0600",
"C@	c #5E1100",
"D@	c #280000",
"E@	c #100000",
"F@	c #380000",
"G@	c #500000",
"H@	c #640000",
"I@	c #5A0000",
"J@	c #8C0600",
"K@	c #939393",
"L@	c #C2C2C2",
"M@	c #C5C5C5",
"N@	c #FCF9E3",
"O@	c #FCFAD5",
"P@	c #FAF3B1",
"Q@	c #F8ED93",
"R@	c #FAEA93",
"S@	c #FBE994",
"T@	c #F5C25E",
"U@	c #F8760D",
"V@	c #C82000",
"W@	c #C21B00",
"X@	c #9E2C00",
"Y@	c #A63200",
"Z@	c #320300",
"`@	c #5E1800",
" #	c #2C0200",
".#	c #340400",
"+#	c #1E0000",
"@#	c #981500",
"##	c #A20F00",
"$#	c #400100",
"%#	c #929292",
"&#	c #C1C1C1",
"*#	c #FCFBF5",
"=#	c #FBF8C8",
"-#	c #F9EEA5",
";#	c #F9EA97",
">#	c #F8CC6D",
",#	c #EEAE50",
"'#	c #E84E02",
")#	c #C22D00",
"!#	c #CA2A00",
"~#	c #9E1600",
"{#	c #8C0D00",
"]#	c #640400",
"^#	c #B21900",
"/#	c #580200",
"(#	c #400000",
"_#	c #5C0600",
":#	c #2A0000",
"<#	c #6A0200",
"[#	c #B00800",
"}#	c #D31800",
"|#	c #919191",
"1#	c #C0C0C0",
"2#	c #FDFCF2",
"3#	c #FCFBEA",
"4#	c #FBF5C7",
"5#	c #FAEEA1",
"6#	c #FAEA95",
"7#	c #FAE894",
"8#	c #F5C969",
"9#	c #F29337",
"0#	c #FA660D",
"a#	c #F65302",
"b#	c #D23100",
"c#	c #CA2600",
"d#	c #C23200",
"e#	c #B82F00",
"f#	c #B01400",
"g#	c #8A0600",
"h#	c #980700",
"i#	c #640200",
"j#	c #7C0200",
"k#	c #C41700",
"l#	c #C81C00",
"m#	c #540100",
"n#	c #BFBFBF",
"o#	c #94342D",
"p#	c #FBF8D9",
"q#	c #FBF6C5",
"r#	c #F9F0A7",
"s#	c #F8E08A",
"t#	c #F8D678",
"u#	c #F3C15D",
"v#	c #F58D1D",
"w#	c #F97A13",
"x#	c #FA6D0E",
"y#	c #F94600",
"z#	c #E74100",
"A#	c #EB4200",
"B#	c #F94C00",
"C#	c #ED3800",
"D#	c #C42900",
"E#	c #BE2300",
"F#	c #AE1400",
"G#	c #B21000",
"H#	c #941800",
"I#	c #A61300",
"J#	c #900600",
"K#	c #CD2100",
"L#	c #5A0200",
"M#	c #FDFBE6",
"N#	c #FCF8CC",
"O#	c #FBF7BF",
"P#	c #F9F0A0",
"Q#	c #F9E790",
"R#	c #F3B24C",
"S#	c #F68633",
"T#	c #F97B1D",
"U#	c #F96F1B",
"V#	c #FD610C",
"W#	c #FC5911",
"X#	c #FB5817",
"Y#	c #FC5810",
"Z#	c #F64001",
"`#	c #F03200",
" $	c #DB3E00",
".$	c #F13800",
"+$	c #D23B00",
"@$	c #D52D00",
"#$	c #D13600",
"$$	c #E01A00",
"%$	c #9E0700",
"&$	c #941400",
"*$	c #D32200",
"=$	c #E21A00",
"-$	c #8F8F8F",
";$	c #BDBDBD",
">$	c #943323",
",$	c #FCF9CB",
"'$	c #FBF4B8",
")$	c #F9F1A9",
"!$	c #FAE699",
"~$	c #F9D682",
"{$	c #F8CF6D",
"]$	c #F6C76A",
"^$	c #F5A634",
"/$	c #F7872C",
"($	c #F68337",
"_$	c #FB780D",
":$	c #FA7115",
"<$	c #FA751D",
"[$	c #FC6817",
"}$	c #FB5615",
"|$	c #FD5310",
"1$	c #FC5C15",
"2$	c #FC5D17",
"3$	c #FC510E",
"4$	c #FC4F13",
"5$	c #FC5513",
"6$	c #FB5513",
"7$	c #F43300",
"8$	c #B40C00",
"9$	c #E12A00",
"0$	c #DC2E00",
"a$	c #540500",
"b$	c #8E8E8E",
"c$	c #BCBCBC",
"d$	c #BEBEBE",
"e$	c #FBF8C9",
"f$	c #FBF2B8",
"g$	c #FAEB9B",
"h$	c #FAEB97",
"i$	c #F8D071",
"j$	c #F3963B",
"k$	c #F68B35",
"l$	c #FA810B",
"m$	c #FA7911",
"n$	c #F9711F",
"o$	c #FB7320",
"p$	c #FC6115",
"q$	c #FD5810",
"r$	c #FB5C15",
"s$	c #FD4A0C",
"t$	c #FD460E",
"u$	c #FC5310",
"v$	c #FC5615",
"w$	c #FC7013",
"x$	c #FD5004",
"y$	c #BC1E00",
"z$	c #9C0300",
"A$	c #FD450C",
"B$	c #F82800",
"C$	c #8D8D8D",
"D$	c #BBBBBB",
"E$	c #FBF8CD",
"F$	c #F9ED9B",
"G$	c #F9E189",
"H$	c #F6CD68",
"I$	c #F5912F",
"J$	c #F68E30",
"K$	c #F8791A",
"L$	c #F98319",
"M$	c #F9771F",
"N$	c #F8792C",
"O$	c #FA7320",
"P$	c #FB6D17",
"Q$	c #F96C1F",
"R$	c #FB5A13",
"S$	c #FB6B13",
"T$	c #F97627",
"U$	c #FC6E0E",
"V$	c #FC570E",
"W$	c #E32500",
"X$	c #A60700",
"Y$	c #FE3E03",
"Z$	c #8C8C8C",
"`$	c #BABABA",
" %	c #FCF9CF",
".%	c #FBF6BC",
"+%	c #FBEDA0",
"@%	c #F7CD71",
"#%	c #F3B148",
"$%	c #F88427",
"%%	c #F57E35",
"&%	c #EC5A02",
"*%	c #FB7216",
"=%	c #FB741A",
"-%	c #F97525",
";%	c #F77A35",
">%	c #F9782A",
",%	c #F97321",
"'%	c #FA6D20",
")%	c #FB651C",
"!%	c #FA7627",
"~%	c #FA5D18",
"{%	c #FD3D0A",
"]%	c #FB470F",
"^%	c #F22700",
"/%	c #B9B9B9",
"(%	c #FDFCF4",
"_%	c #FDF9DF",
":%	c #FCF7C3",
"<%	c #FBF2AA",
"[%	c #FBE996",
"}%	c #F7C462",
"|%	c #F4B24B",
"1%	c #F98722",
"2%	c #FB7716",
"3%	c #F77604",
"4%	c #FC7419",
"5%	c #FA7525",
"6%	c #F97B2E",
"7%	c #F8792D",
"8%	c #FA711F",
"9%	c #FB691A",
"0%	c #FD4C0E",
"a%	c #FF3D09",
"b%	c #B20800",
"c%	c #D41D00",
"d%	c #8B8B8B",
"e%	c #B8B8B8",
"f%	c #FCFAF5",
"g%	c #FCFAEB",
"h%	c #FCF6C7",
"i%	c #FAF3B6",
"j%	c #FAEFA6",
"k%	c #F9DE8D",
"l%	c #F5BD5A",
"m%	c #FA6308",
"n%	c #E44500",
"o%	c #FB6013",
"p%	c #FA641A",
"q%	c #F8782A",
"r%	c #F87B37",
"s%	c #F77C31",
"t%	c #F77731",
"u%	c #FB6C1E",
"v%	c #FB6217",
"w%	c #FC4C0E",
"x%	c #FC4810",
"y%	c #B40800",
"z%	c #B81100",
"A%	c #C91C00",
"B%	c #8A8A8A",
"C%	c #B7B7B7",
"D%	c #420505",
"E%	c #892A2A",
"F%	c #882927",
"G%	c #87291C",
"H%	c #872916",
"I%	c #842711",
"J%	c #7F1F08",
"K%	c #781B05",
"L%	c #771904",
"M%	c #6C0F00",
"N%	c #540700",
"O%	c #500300",
"P%	c #5E0600",
"Q%	c #6A0C00",
"R%	c #6C0C00",
"S%	c #680900",
"T%	c #620900",
"U%	c #640900",
"V%	c #5E0400",
"W%	c #600600",
"X%	c #4E0100",
"Y%	c #898989",
"Z%	c #B5B5B5",
"`%	c #020202",
" &	c #B6B6B6",
".&	c #101010",
"+&	c #080808",
"@&	c #050505",
"#&	c #1F1F1F",
"$&	c #090909",
"%&	c #474747",
"&&	c #B3B3B3",
"*&	c #787878",
"=&	c #414141",
"-&	c #494949",
";&	c #121212",
">&	c #424242",
",&	c #4C4C4C",
"'&	c #404040",
")&	c #636363",
"!&	c #868686",
"~&	c #515151",
"{&	c #5C5C5C",
"]&	c #313131",
"^&	c #5A5A5A",
"/&	c #525252",
"(&	c #3C3C3C",
"_&	c #2C2C2C",
":&	c #6F6F6F",
"<&	c #191919",
"[&	c #0B0B0B",
"}&	c #040404",
"|&	c #030303",
"1&	c #0C0C0C",
"2&	c #B1B1B1",
"3&	c #727272",
"4&	c #6C6C6C",
"5&	c #5B5B5B",
"6&	c #686868",
"7&	c #595959",
"8&	c #535353",
"9&	c #A5A5A5",
"0&	c #A7A7A7",
"a&	c #A2A2A2",
"b&	c #A4A4A4",
"c&	c #A3A3A3",
"d&	c #9F9F9F",
"e&	c #A0A0A0",
"f&	c #9C9C9C",
"g&	c #9B9B9B",
"h&	c #A9A9A9",
"i&	c #B0B0B0",
"j&	c #AFAFAF",
". . . . . . . . . . . . . . . . . . . . . . . . . . . . . . . . . . . . . . . . . . . . . . . . ",
". . . . . . . . . . . . . . . . . . . . . . . . . . . . . . . . . . . . . . . + @ . . + @ + . . ",
". . . . # . # . . . . . . . . . . . . . . . . . . . . . . . . . . . . . . . . $ % . . @ & . . . ",
". . # . . . . . # . . . . . . . . . . . . . . . . . . . . . . . . + + $ + $ . + @ . + @ * = . . ",
". . . . # # # . . . . . . . . . . . . . . . . . . . . . . . . . + @ @ * @ % . + @ . + @ * = . . ",
". . . # . . . # . . . . . . . . . . . . . . . . . . . . . . . $ @ & . = @ % . + @ . . @ + . . . ",
". . # . . # . . # . . . . . . . . . . . . . . . . . . . . . . % @ . . . @ % . + @ . . @ + . . . ",
". . . # . . . # . . . . . . . . . . . . . . . . . . . . . . . % @ = . $ @ % . + @ . . @ + . . . ",
". . . . # # # . . . . . . . . . . . . . . . . . . . . . $ + = - @ * % + @ % . + @ . . @ + . . . ",
". . # . . . . . # . . . . . . . . . . . . . . . . . . . % @ + . % @ @ + @ % . + @ . . @ + . . . ",
". . . . # . # . . . . . . . . . . . . . . . . . . . . . . . . $ + = . $ @ % . . . . . . . . . . ",
". . . . . . . . . . . . . . . . . . . . . . . . . . . . . . . . * @ & @ * . . . . . . . . . . . ",
". . . . . . . . . . . . . . . . . . . . . . . . . . . . . . . . . . . . . . . . . . . . . . . . ",
". @ @ @ @ @ @ @ @ @ @ @ ; > , ' ) ! ~ { ] ^ / ( _ : < [ } | 1 2 # 3 4 5 6 7 8 9 0 a b c d e f . ",
". @ @ @ @ @ @ @ ; ' ) ~ ] ] ^ / ( _ g g [ | | 1 h # 3 4 5 5 8 9 9 i a b c d j f e d c d e f k . ",
". @ @ @ @ @ @ ; l m n . o p . q q . r s . n t u u v w . v x . y - . z A . B C D E F e e f k G . ",
". @ @ @ @ @ @ H I J K . L M . N O . P Q . R S T x U V . W X . Y Z . ` L . s W  ...+.@.f k G #.. ",
". @ @ @ @ @ @ ) $.%.&.. % M . X *.. =.-.. ;.*.p >.,.'.. ).X . !.~.. '.{.. q ,.].^./.(.k G #.@.. ",
". @ @ @ @ @ @ ! R _.:.. <.N . [.}.. |.1.. t 2.3.4.*.5.. % Y . 6.7.. =.8.. ;.*.9.0.+ a.G #.@.(.. ",
". @ @ @ @ @ b.{ c.d.e.f.g.h.i.j.k.l.m.n.o.p.q.p.r.s.t.u.v.w.u.x.s.o.y.z.A.B.C.. 8.D.E.#.@.F.a.. ",
". @ @ @ @ b.; G.. H.I.J.K.L.M.N.O.P.Q.R.S.T.U.V.W.X.Y.Z.`. +.+++@+#+#+$+%+&+*+. =+-+F @.F.a.;+. ",
". @ @ @ b.; , / . >+,+'+)+!+~+{+]+^+/+(+_+:+<+[+}+|+1+2+3+4+4+5+6+7+8+4+9+T.0+. P a+b+F.a.;+E.. ",
". @ @ b.; , ' ( . c+d+e+f+g+h+i+]+j+k+l+6+m+n+o+p+q+r+s+t+$+u+v+w+x+y+z+9+A+B+. :.C+D+(.;+E.E+. ",
". @ b.; > ' H _ . F+G+f+H+I+J+K+L+M+N+O+7+P+Q+R+S+T+U+V+W+X+X+Y+Z+`+ @.@+@@@#@. $@C+& ;+E.E+F . ",
". b.; > ' H ) : . F+%@&@*@=@-@;@>@,@'@)@!@~@{@R+1+]@^@/@(@_@:@:@<@[@}@U.|@x+1@. $@2@3@E.E+F b+. ",
". ; > ' H ) ! g . 4@5@6@7@8@9@0@a@b@c@d@e@U+R+r+1@f@g@g@h@Q+i@j@t+k@l@R+:@9+1@. $@m@n@E+F b+& . ",
". > , H ) ! ~ < . o@p@q@r@s@t@u@v@w@x@y@z@{@Q+1@A@B@C@D@p.E@r.F@G@i@H@I@J@9+1@. ` K@L@F b+D+M@. ",
". , H ) ! ~ { } . >+N@O@P@Q@R@S@0@T@U@V@W@(@<+F@<+X@Y@Z@`@ #.#p.+#p+h@r+@###$#. ` %#&#b+D+M@3@. ",
". H ) ! ~ { G.| . H.*#J.=#-#;#S@>#,#'#)#!#~#{#]#y+{#^#/#(#n+_#(#:#g@F@<#[#}#/#. ` |#1#D+M@3@n@. ",
". ) ! ~ { ] ^ 1 . >+2#3#4#5#6#7#8#9#0#a#b#c#d#e#f#}@g#h#i@i#i#I@Q+|+}+j#k#l#m#. $ |#n#& 3@n@L@. ",
". ! ~ { ] ^ / h . o#'+p#q#r#s#t#u#v#w#x#y#z#A#B#C#Y.D#E#X+F#F#G#H#I#y+J#k#K#L#. $ %.n#3@n@L@&#. ",
". ~ { ] ^ / ( 2 . o#M#N#O#P#Q#K+L+R#S#T#U#V#W#X#Y#Z#`# $.$+$+$@$#$$$%$&$*$=$L#. $ -$;$n@L@&#1#. ",
". { ] G./ ( _ # . >$,$'$)$!$~${$]$^$/$($_$:$<$[$}$|$1$2$3$4$5$|$6$7$G#8$9$0$a$. |.b$c$L@&#1#d$. ",
". ] G./ ( _ : 3 . F+e$f$g$h$7#i$>@^+j$k$l$m$n$o$p$q$r$1$s$t$u$v$w$x$y$z$A$B$L#. |.C$D$&#1#n#;$. ",
". G./ ( _ : g * . F+E$)+r#)$F$G$H$P.I$J$K$L$M$N$O$P$P$Q$R$S$S$T$U$V$W$X$Y$W$L#. |.Z$`$1#n#;$c$. ",
". ^ ( _ : g [ 5 . o@ %e$)+.%+%7#@%#%$%%%&%*%=%-%;%>%>%,%'%)%!%-%~%)%{%[#]%^%L#. &.Z$/%n#;$c$D$. ",
". ( _ : g < } 6 . o#(%_%:%<%g$[%}%|%1%2%3%4%5%6%>%7%7%>%6%8%9%[$v$0%a%b%#+c%m#. &.d%e%d$c$D$`$. ",
". _ : g < } | 7 . >+f%g%h%i%j%k%l%,@/+m%n%o%p%q%r%s%s%t%u%-%Y#v%s$w%x%y%z%A%#@. &.B%C%c$D$`$/%. ",
". : g < } | 1 8 . D%E%F%G%H%I%J%K%L%M%N%O%P%]@Q%R%R%R%S%T%U%V%W%V%P%1+(#p+X%r.. K Y%Z%D$`$/%e%. ",
". g < [ | 1 h 9 c.`%. . . . . . . . . . . . . . . . . . . . . . . . . . . . . . $ Y%E `$/%e% &. ",
". < [ | 1 h 2 9 A ,.4.. 3.T . x q . .&A . l - +&@&3.n . T r . 4.y . w #&. $&3.+&%&Z$&&/%e%C%Z%. ",
". [ | 1 h 2 # i t *&I . =&:.. 5.-&. o N . T %&;&B =&t . :.&.. '.>&. v ,&. r '&;&)&%#&&e%C%Z%E . ",
". } 1 h 2 # 4 0 t !&K . ~&[.. >&{&. ]&S . #&^&p .&/&V . [.6.. (&N . _&7.. - /&r :&m@+.C%Z%E &&. ",
". 1 h 2 # 3 * a u <&$&. n B . [&.&. $&4.. @&.&}&|&n +&. w 1&. l n . +&>.. @&w }&}.K@2& &E &&+.. ",
". h 2 # 3 * 5 a `$!&3&W {&4&2.5&2.2.^&)&6&~.{&U 7&Z {.7&N W <.8&*.<.~&^&*.).8&O :&a+2&E &&+.2&. ",
". 2 # 3 * 5 6 9 F. &/.D.9&0&9&a&b&c&d&e&e&f&f&-+J a+g&a+2@a+C+K@2@m@%.%#|#b$C$%.a+h&+.&&+.2&i&. ",
". # 3 4 5 6 7 8 a j f k #.@.(.a.a.;+F F b+& M@3@L@&#&#d$;$;$D$`$/%e%C% &Z%&&+.2&+.&&&&+.2&i&j&. ",
". . . . . . . . . . . . . . . . . . . . . . . . . . . . . . . . . . . . . . . . . . . . . . . . "};
