/* XPM */
static char * file_dot_jpg_xpm[] = {
"48 48 583 2",
"  	c None",
" .	c #000000",
" +	c #FFFFFF",
" @	c #AAAAAA",
" #	c #555555",
" $	c #383838",
" %	c #E5E5E5",
" &	c #717171",
" *	c #E2E2E2",
" =	c #1C1C1C",
" -	c #C6C6C6",
" ;	c #8D8D8D",
" >	c #FDFDFD",
" ,	c #FCFCFC",
" '	c #FBFBFB",
" )	c #FAFAFA",
" !	c #F8F8F8",
" ~	c #F7F7F7",
" {	c #F6F6F6",
" ]	c #F5F5F5",
" ^	c #F4F4F4",
" /	c #F2F2F2",
" (	c #F1F1F1",
" _	c #F0F0F0",
" :	c #EFEFEF",
" <	c #EEEEEE",
" [	c #ECECEC",
" }	c #EBEBEB",
" |	c #EAEAEA",
" 1	c #E9E9E9",
" 2	c #E8E8E8",
" 3	c #E6E6E6",
" 4	c #E4E4E4",
" 5	c #E3E3E3",
" 6	c #E1E1E1",
" 7	c #E0E0E0",
" 8	c #DFDFDF",
" 9	c #DEDEDE",
" 0	c #DDDDDD",
" a	c #DBDBDB",
" b	c #DADADA",
" c	c #D9D9D9",
" d	c #D8D8D8",
" e	c #D7D7D7",
" f	c #D5D5D5",
" g	c #D4D4D4",
" h	c #EDEDED",
" i	c #E7E7E7",
" j	c #DCDCDC",
" k	c #D6D6D6",
" l	c #D3D3D3",
" m	c #0A0A0A",
" n	c #2A2A2A",
" o	c #0F0F0F",
" p	c #262626",
" q	c #171717",
" r	c #1E1E1E",
" s	c #161616",
" t	c #252525",
" u	c #242424",
" v	c #070707",
" w	c #232323",
" x	c #0E0E0E",
" y	c #151515",
" z	c #1B1B1B",
" A	c #141414",
" B	c #222222",
" C	c #0D0D0D",
" D	c #212123",
" E	c #060606",
" F	c #B4B4B4",
" G	c #C9C9C9",
" H	c #D2D2D2",
" I	c #F9F9F9",
" J	c #2B2B2B",
" K	c #999999",
" L	c #353535",
" M	c #6A6A6A",
" N	c #4B4B4B",
" O	c #545454",
" P	c #606060",
" Q	c #3E3E3E",
" R	c #737373",
" S	c #292929",
" T	c #6B6B6B",
" U	c #181818",
" V	c #666666",
" W	c #2E2E2E",
" X	c #626262",
" Y	c #454545",
" Z	c #4E4E4E",
" `	c #585858",
". 	c #393939",
"..	c #16161C",
".+	c #828282",
".@	c #B2B2B2",
".#	c #D0D0D0",
".$	c #D1D1D1",
".%	c #282828",
".&	c #909090",
".*	c #363636",
".=	c #5E5E5E",
".-	c #333333",
".;	c #6D6D6D",
".>	c #212121",
".,	c #111111",
".'	c #565656",
".)	c #2F2F2F",
".!	c #4F4F4F",
".~	c #3F3F3F",
".{	c #575757",
".]	c #646464",
".^	c #17171D",
"./	c #7B7B7B",
".(	c #ABABAB",
"._	c #CECECE",
".:	c #979797",
".<	c #3B3B3B",
".[	c #5D5D5D",
".}	c #4A4A4A",
".|	c #696969",
".1	c #373737",
".2	c #797979",
".3	c #676767",
".4	c #1A1A1A",
".5	c #131313",
".6	c #343434",
".7	c #444444",
".8	c #616161",
".9	c #707070",
".0	c #1A1A22",
".a	c #818181",
".b	c #CDCDCD",
".c	c #FEFEFE",
".d	c #010101",
".e	c #040420",
".f	c #010151",
".g	c #000050",
".h	c #02024C",
".i	c #020248",
".j	c #000042",
".k	c #01013D",
".l	c #020236",
".m	c #000036",
".n	c #01012D",
".o	c #030327",
".p	c #000022",
".q	c #00001C",
".r	c #020214",
".s	c #000020",
".t	c #020222",
".u	c #010129",
".v	c #00002E",
".w	c #02022E",
".x	c #020230",
".y	c #01012B",
".z	c #010121",
".A	c #030319",
".B	c #000014",
".C	c #000018",
".D	c #02020C",
".E	c #A6A6A6",
".F	c #CBCBCB",
".G	c #CFCFCF",
".H	c #F3F3F3",
".I	c #0000C4",
".J	c #F5F5FD",
".K	c #EBEBFE",
".L	c #CEC9FE",
".M	c #C5B1FD",
".N	c #AC93FD",
".O	c #A275FE",
".P	c #8555FE",
".Q	c #794BFD",
".R	c #5022FC",
".S	c #1700FA",
".T	c #0400D4",
".U	c #0000A6",
".V	c #000070",
".W	c #00009C",
".X	c #0000B4",
".Y	c #0000B6",
".Z	c #0000D0",
".`	c #0500E6",
"+ 	c #0B00F3",
"+.	c #1000EF",
"++	c #1000E6",
"+@	c #0900CE",
"+#	c #0900D0",
"+$	c #000090",
"+%	c #00008A",
"+&	c #0000A4",
"+*	c #000044",
"+=	c #505050",
"+-	c #9D9D9D",
"+;	c #CCCCCC",
"+>	c #0000C6",
"+,	c #EFEFFD",
"+'	c #DFDFFD",
"+)	c #C7C1FD",
"+!	c #B2A1FE",
"+~	c #BA91FD",
"+{	c #986BFD",
"+]	c #8B5DFD",
"+^	c #6F43FE",
"+/	c #1700FD",
"+(	c #0000BE",
"+_	c #000068",
"+:	c #00004C",
"+<	c #000058",
"+[	c #000056",
"+}	c #000060",
"+|	c #000078",
"+1	c #00006E",
"+2	c #000086",
"+3	c #000080",
"+4	c #000088",
"+5	c #000092",
"+6	c #0000AA",
"+7	c #00009E",
"+8	c #000046",
"+9	c #989898",
"+0	c #C8C8C8",
"+a	c #0000BA",
"+b	c #D8D3FE",
"+c	c #C9C9FD",
"+d	c #C1B5FD",
"+e	c #BFA3FD",
"+f	c #B385FE",
"+g	c #9567FD",
"+h	c #7247FD",
"+i	c #5D2BFE",
"+j	c #0C01FE",
"+k	c #000052",
"+l	c #000034",
"+m	c #00003C",
"+n	c #000054",
"+o	c #00007E",
"+p	c #00008E",
"+q	c #00008C",
"+r	c #00005E",
"+s	c #00004A",
"+t	c #969696",
"+u	c #C7C7C7",
"+v	c #CACACA",
"+w	c #CCC7FD",
"+x	c #C4B5FD",
"+y	c #B29BFD",
"+z	c #AC8FFD",
"+A	c #BA8DFD",
"+B	c #AB79FD",
"+C	c #8D61FD",
"+D	c #8155FD",
"+E	c #6A37FD",
"+F	c #0B00ED",
"+G	c #000066",
"+H	c #00005C",
"+I	c #000072",
"+J	c #00007A",
"+K	c #000096",
"+L	c #00009A",
"+M	c #000098",
"+N	c #000074",
"+O	c #0000A8",
"+P	c #3A3A3A",
"+Q	c #C3C3FD",
"+R	c #C6ADFE",
"+S	c #A793FE",
"+T	c #AA89FD",
"+U	c #A275FD",
"+V	c #986BFE",
"+W	c #8B5DFE",
"+X	c #693BFD",
"+Y	c #2D17FD",
"+Z	c #00006C",
"+`	c #000062",
"@ 	c #000094",
"@.	c #0400BC",
"@+	c #000082",
"@@	c #00003E",
"@#	c #959595",
"@$	c #C4C4C4",
"@%	c #C7C7FE",
"@&	c #C9BFFE",
"@*	c #AF9FFE",
"@=	c #9D87FE",
"@-	c #A67BFE",
"@;	c #A16FFE",
"@>	c #9769FE",
"@,	c #794BFE",
"@'	c #5325FE",
"@)	c #0A00E8",
"@!	c #000032",
"@~	c #000048",
"@{	c #949494",
"@]	c #C3C3C3",
"@^	c #0000B8",
"@/	c #D3CFFD",
"@(	c #CCC7FE",
"@_	c #B8B3FD",
"@:	c #9C89FD",
"@<	c #AD89FD",
"@[	c #B487FE",
"@}	c #9263FD",
"@|	c #7C4FFD",
"@1	c #5E2DFD",
"@2	c #000076",
"@3	c #00003A",
"@4	c #00005A",
"@5	c #000028",
"@6	c #000010",
"@7	c #000038",
"@8	c #000064",
"@9	c #939393",
"@0	c #C2C2C2",
"@a	c #C5C5C5",
"@b	c #E1E1FE",
"@c	c #D3D3FE",
"@d	c #BAADFE",
"@e	c #988DFE",
"@f	c #A98FFE",
"@g	c #BA91FE",
"@h	c #8155FE",
"@i	c #1207FF",
"@j	c #0900C8",
"@k	c #0000C2",
"@l	c #00002C",
"@m	c #00001E",
"@n	c #0000A2",
"@o	c #000040",
"@p	c #929292",
"@q	c #C1C1C1",
"@r	c #F4F4FD",
"@s	c #C5C5FE",
"@t	c #B7A1FD",
"@u	c #9567FE",
"@v	c #5C41FD",
"@w	c #0B00EB",
"@x	c #0900CA",
"@y	c #0000B2",
"@z	c #00002A",
"@A	c #00006A",
"@B	c #1800B0",
"@C	c #2700D2",
"@D	c #919191",
"@E	c #C0C0C0",
"@F	c #F1F1FE",
"@G	c #E9E9FD",
"@H	c #CEC5FD",
"@I	c #AF9DFE",
"@J	c #AB91FE",
"@K	c #8661FD",
"@L	c #492BFE",
"@M	c #2509FF",
"@N	c #1700F9",
"@O	c #1300D2",
"@P	c #1C00CA",
"@Q	c #0D00C2",
"@R	c #3300B8",
"@S	c #00007C",
"@T	c #BFBFBF",
"@U	c #D7D7FD",
"@V	c #C8C3FD",
"@W	c #AEA3FD",
"@X	c #A785FD",
"@Y	c #A173FD",
"@Z	c #7B53FD",
"@`	c #2C16FC",
"# 	c #300FFE",
"#.	c #2D0BFE",
"#+	c #2F00F9",
"#@	c #2000E7",
"##	c #1B00EB",
"#$	c #3400F9",
"#%	c #2C00ED",
"#&	c #6B00BE",
"#*	c #1800AE",
"#=	c #1900B2",
"#-	c #1B00C4",
"#;	c #0E00CD",
"#>	c #E9E5FE",
"#,	c #D6CBFD",
"#'	c #C3BDFD",
"#)	c #A29BFE",
"#!	c #AB8BFE",
"#~	c #6941FE",
"#{	c #612BFF",
"#]	c #5919FE",
"#^	c #5817FE",
"#/	c #610BFF",
"#(	c #5E0FFF",
"#_	c #6715FE",
"#:	c #630FFE",
"#<	c #1D00F8",
"#[	c #2700F0",
"#}	c #2400DB",
"#|	c #3300F1",
"#1	c #0A00D5",
"#2	c #2700D1",
"#3	c #0900D3",
"#4	c #8F8F8F",
"#5	c #BDBDBD",
"#6	c #C9C9FE",
"#7	c #C1B5FE",
"#8	c #B4A5FD",
"#9	c #B395FE",
"#0	c #AB7DFE",
"#a	c #8F63FD",
"#b	c #582BFE",
"#c	c #5825FF",
"#d	c #6E2FFF",
"#e	c #440BFE",
"#f	c #3811FF",
"#g	c #6419FF",
"#h	c #6D15FF",
"#i	c #6613FE",
"#j	c #690FFF",
"#k	c #6B13FF",
"#l	c #6715FF",
"#m	c #6D0DFE",
"#n	c #6A11FF",
"#o	c #6F0FFF",
"#p	c #6A11FE",
"#q	c #2800F4",
"#r	c #3200B4",
"#s	c #0F00E1",
"#t	c #1400DC",
"#u	c #8E8E8E",
"#v	c #BCBCBC",
"#w	c #BEBEBE",
"#x	c #C7C7FD",
"#y	c #C4B5FE",
"#z	c #AF97FE",
"#A	c #AC93FE",
"#B	c #6631FD",
"#C	c #682DFE",
"#D	c #1E07FF",
"#E	c #290DFF",
"#F	c #6B1BFE",
"#G	c #721DFF",
"#H	c #5B13FF",
"#I	c #720BFF",
"#J	c #6D0DFF",
"#K	c #690FFE",
"#L	c #7113FF",
"#M	c #7011FF",
"#N	c #4403FF",
"#O	c #0000BC",
"#P	c #6300F8",
"#Q	c #BBBBBB",
"#R	c #CBCBFD",
"#S	c #CBC1FD",
"#T	c #B6A5FD",
"#U	c #AD97FD",
"#V	c #B385FD",
"#W	c #5427FD",
"#X	c #5B29FD",
"#Y	c #3615FE",
"#Z	c #4C16FC",
"#`	c #661BFE",
"$ 	c #8727FE",
"$.	c #671DFE",
"$+	c #6D15FE",
"$@	c #761BFE",
"$#	c #6511FE",
"$$	c #8023FE",
"$%	c #2500E3",
"$&	c #5003FE",
"$*	c #8C8C8C",
"$=	c #BABABA",
"$-	c #CDCDFE",
"$;	c #C1B9FE",
"$>	c #BD9DFE",
"$,	c #6B3DFE",
"$'	c #5521FF",
"$)	c #6D2DFE",
"$!	c #0B00EF",
"$~	c #5513FF",
"${	c #6E17FF",
"$]	c #7921FE",
"$^	c #822FFE",
"$/	c #7725FF",
"$(	c #571DFE",
"$_	c #721DFE",
"$:	c #6F19FF",
"$<	c #8023FF",
"$[	c #6509FF",
"$}	c #0000B0",
"$|	c #510DFE",
"$1	c #4A00F2",
"$2	c #B9B9B9",
"$3	c #F3F3FE",
"$4	c #E1DDFE",
"$5	c #C7C1FE",
"$6	c #B5A7FE",
"$7	c #BB93FE",
"$8	c #8D5BFE",
"$9	c #6E41FE",
"$0	c #521EFD",
"$a	c #5013FF",
"$b	c #0B00FC",
"$c	c #7917FF",
"$d	c #7921FF",
"$e	c #8829FF",
"$f	c #8227FF",
"$g	c #761BFF",
"$h	c #6613FF",
"$i	c #7609FF",
"$j	c #0E00D4",
"$k	c #8B8B8B",
"$l	c #B8B8B8",
"$m	c #F5F4FD",
"$n	c #EDEAFD",
"$o	c #CEC5FE",
"$p	c #BFB3FD",
"$q	c #B8A3FD",
"$r	c #B589FD",
"$s	c #7E51FE",
"$t	c #2205FE",
"$u	c #0A00E4",
"$v	c #6E17FE",
"$w	c #8125FE",
"$x	c #8831FF",
"$y	c #842BFE",
"$z	c #7F2BFE",
"$A	c #6F0FFE",
"$B	c #0400B8",
"$C	c #0900C9",
"$D	c #8A8A8A",
"$E	c #B7B7B7",
"$F	c #00004E",
"$G	c #898989",
"$H	c #B5B5B5",
"$I	c #020202",
"$J	c #B6B6B6",
"$K	c #101010",
"$L	c #080808",
"$M	c #050505",
"$N	c #1F1F1F",
"$O	c #090909",
"$P	c #474747",
"$Q	c #B3B3B3",
"$R	c #787878",
"$S	c #414141",
"$T	c #494949",
"$U	c #121212",
"$V	c #424242",
"$W	c #4C4C4C",
"$X	c #404040",
"$Y	c #636363",
"$Z	c #868686",
"$`	c #515151",
"% 	c #5C5C5C",
"%.	c #313131",
"%+	c #5A5A5A",
"%@	c #525252",
"%#	c #3C3C3C",
"%$	c #2C2C2C",
"%%	c #6F6F6F",
"%&	c #191919",
"%*	c #0B0B0B",
"%=	c #040404",
"%-	c #030303",
"%;	c #0C0C0C",
"%>	c #B1B1B1",
"%,	c #727272",
"%'	c #6C6C6C",
"%)	c #5B5B5B",
"%!	c #686868",
"%~	c #595959",
"%{	c #535353",
"%]	c #A5A5A5",
"%^	c #A7A7A7",
"%/	c #A2A2A2",
"%(	c #A4A4A4",
"%_	c #A3A3A3",
"%:	c #9F9F9F",
"%<	c #A0A0A0",
"%[	c #9C9C9C",
"%}	c #9B9B9B",
"%|	c #A9A9A9",
"%1	c #B0B0B0",
"%2	c #AFAFAF",
" . . . . . . . . . . . . . . . . . . . . . . . . . . . . . . + @ . . . . . . . . . . . . . . . .",
" . . . . . . . . . . . . . . . . . . . . . . . . . . . . . . # $ . . . . . . . . . . . . . . . .",
" . . . . % . % . . . . . . . . . . . . . . . . . . . . . . . + @ . & @ . @ & . . . $ @ @ $ @ . .",
" . . % . . . . . % . . . . . . . . . . . . . . . . . . . . . + @ . @ + * + + # . = * + + * + . .",
" . . . . % % % . . . . . . . . . . . . . . . . . . . . . . . + @ . @ + & . - * $ ; + & . - + . .",
" . . . % . . . % . . . . . . . . . . . . . . . . . . . . . . + @ . @ + . . # + # @ @ . . # + . .",
" . . % . . % . . % . . . . . . . . . . . . . . . . . . . . . + @ . @ + $ . ; + # @ * $ . ; + . .",
" . . . % . . . % . . . . . . . . . . . . . . . . . . $ @ & . + @ . @ + @ # * - = & + @ # * + . .",
" . . . . % % % . . . . . . . . . . . . . . . . . . . # + @ . + @ . @ + ; + * = . . @ + + @ + . .",
" . . % . . . . . % . . . . . . . . . . . . . . . . . . . . . + @ . @ + . . . . . & @ $ . ; + . .",
" . . . . % . % . . . . . . . . . . . . . . . . . . . . . . @ + & . @ + . . . . . $ + + - + ; . .",
" . . . . . . . . . . . . . . . . . . . . . . . . . . . . . . . . . . . . . . . . . . . . . . . .",
" . . . . . . . . . . . . . . . . . . . . . . . . . . . . . . . . . . . . . . . . . . . . . . . .",
" . + + + + + + + + + + + > , ' ) ! ~ { ] ^ / ( _ : < [ } | 1 2 3 % 4 5 6 7 8 9 0 a b c d e f g .",
" . + + + + + + + > ) ! { ^ ^ / ( _ : h h } 1 1 2 i % 4 5 6 6 9 0 0 j b c d e k g f e d e f g l .",
" . + + + + + + > m n o . p q . r r . s t . o u v v w x . w y . z = . A B . C D E F G f f g l H .",
" . + + + + + + I J K L . M N . O P . Q R . S T U y V W . X Y . Z ` ..  M . t X...+.@.# g l H.$ .",
" . + + + + + + !.%.&.* . # N . Y.= ..-.; ..>.= q.,.'.) ..! Y ..~.{ ..).] . r.'.^./.(._ l H.$.# .",
" . + + + + + + ~ S.:.< ..[ O ..}.| ..1.2 . u.3.4.5.=.6 . # Z ..7.8 ..-.9 ..>.=.0.a @.b H.$.#._ .",
" . + + + + +.c ].d.e.f.g.h.i.j.k.l.m.n.o.p.q.r.q.s.t.u.v.w.x.v.y.t.p.z.A.B.C.D ..9.E.F.$.#.G.b .",
" . + + + +.c >.H ..I.J.K.L.M.N.O.P.Q.R.S.T.U.V.W.X.Y.Z.S.`+ +.+++@+#+#+$+%+&+* .+=+- G.#.G.b+; .",
" . + + +.c > ' ( .+>+,+'+)+!+~+{+]+^.R+/+(+_+:+<+[+}+}+|+1+2+2+3+4+5+6+2+7.U+8 . Q+9+0.G.b+;.F .",
" . + +.c > ' ) _ .+a+b+c+d+e+f+g+]+h+i+j+4+k+l.m+m.j+n+o+p+$+5+$+q+p+1+r+7+6+s ..<+t+u._+;.F+v .",
" . +.c > , ) I : ..X+w+x+y+z+A+B+C+D+E+F+5+G+H+1+_+I+J+K+L+L+L+7+L+7+M+G+N+O+: .+P+t -+;.F+v G .",
" ..c > , ) I ! < ..X+Q+R+S+T+U+V+W+X+Y.`.W+1+Z+1+}+`+_+o+o@ +7+7+&@.+L.V@++p@@ .+P@#@$.F+v G+0 .",
" . > , ) I ! ~ h ..Y@%@&@*@=@-@;@>@,@'@).W+J+1+n@@+l@!@!@~+H+I+N+p@ +3+1+7+7@@ .+P@{@]+v G+0 - .",
" . , ' I ! ~ { [ .@^@/@(@_@:@<@[@}@|@1@)@2+Z+H@@@3@4+r@5.q@6.s@7.g+I@8@4+q+7@@ .. @9@0 G+0+u@a .",
" . ' I ! ~ { ] | .+>@b@c@d@e@f@g@;@h@i@j@k+o+:@7+:+7.U@!+r@l+l.q@m+m@~+n+M@n@o .. @p@q+0+u@a@$ .",
" . I ! ~ { ].H 1 ..I@r.K@s@t.N@g@u@v@w@k@x+7+q@8+1+q@y+<@o+l+H@o@z@!@7@A@B@C+< .. @D@E+u@a@$@] .",
" . ! ~ { ] ^ / 2 .+>@F@G@H@I@J+~@K@L@M@N@O@P@Q@R@B+L+%+M+I@8@8@4+H+}+[@S@C@C+n . $@D@T -@$@]@0 .",
" . ~ { ] ^ / ( i .@k+'@U@V@W@X@Y@Z@`# #.#+#@###$#%+#@C#&+L#*#*#=@ .U+1+$#-#;@4 . $.&@T@$@]@0@q .",
" . { ] ^ / ( _ 3 .@k#>#,#'#)#!+B+C#~#{#]#^#/#(#_#:#<#[#}#|@C@C#1#2@C+7@ #3@C@4 . $#4#5@]@0@q@E .",
" . ] ^.H ( _ : % .@^#6#7#8#9#0@u#a#b#c#d#e#f#g#h#i#j#k#l#m#n#n#o#p#q@y#r#s#t+n ..1#u#v@0@q@E#w .",
" . ^.H ( _ : < 4 ..X#x#y#z#A+~+V+W+^#B#C#D#E#F#G#H#o#i#k#I#J#K#L#M#N#O.W#I#P@4 ..1 ;#Q@q@E@T#5 .",
" ..H ( _ : < h * ..X#R#S@W#T#U#V+C.Q#W#X#Y#Z#`$ $.$+$+$@$##p#p$$#m#m$%.U$&$%@4 ..1$*$=@E@T#5#v .",
" . / _ : < h } 6 .@^$-#x+)$;$>+~+{$,$'$)$!$~${$]$^$/$/$($_$:$<$]#_$:$[$}$|$1@4 ..*$*$2@T#5#v#Q .",
" . _ : < h [ | 7 .@k$3$4$5$6#z$7$8$9$0$a$b$c$d$e$/$f$f$/$e$g${#h$h#J$i@y+#$j+n ..*$k$l#w#v#Q$= .",
" . : < h [ | 1 8 .+>$m$n$o$p$q$r$s+X.R$t$u#p$v$w$x$y$y$z$g$]#K$+#I#m$A.X$B$C+: ..*$D$E#v#Q$=$2 .",
" . < h [ | 1 2 9 .@~.X$}+&+7+K+4+o@S+Z+n.g+r+`@A+Z+Z+Z+_+`@8+r+}+r+r+}@o+m$F.s . L$G$H#Q$=$2$l .",
" . h [ } 1 2 i 0.d$I . . . . . . . . . . . . . . . . . . . . . . . . . . . . . . $$G F$=$2$l$J .",
" . [ } 1 2 i 3 0 B.'.5 ..4 U . y r .$K B . m =$L$M.4 o . U s ..5 z . x$N .$O.4$L$P$*$Q$2$l$E$H .",
" . } 1 2 i 3 % j u$R J .$S.< ..6$T . p O . U$P$U C$S u ..<.* ..)$V . w$W . s$X$U$Y@p$Q$l$E$H F .",
" . | 2 i 3 % 5 a u$Z L .$`.} .$V%  .%. T .$N%+ q$K%@ W ..}.7 .%# O .%$.8 . =%@ s%%@{.@$E$H F$Q .",
" . 2 i 3 % 4 * b v%&$O . o C .%*$K .$O.5 .$M$K%=%- o$L . x%; . m o .$L., .$M x%=.|@9%>$J F$Q.@ .",
" . i 3 % 4 * 6 b$=$Z%, X% %'.3%).3.3%+$Y%!.{%  V%~ `.]%~ O X.[%{.=.[$`%+.=.!%{ P%%+9%> F$Q.@%> .",
" . 3 % 4 * 6 7 0.G$J.(.E%]%^%]%/%(%_%:%<%<%[%[+- K+9%}+9@#+9+t@9@#@{.&@p@D#u ;.&+9%|.@$Q.@%>%1 .",
" . % 4 5 6 7 8 9 b k g l.$.#._.b.b+; G G+0 -@a@$@0@q@q#w#5#5#Q$=$2$l$E$J$H$Q.@%>.@$Q$Q.@%>%1%2 .",
" . . . . . . . . . . . . . . . . . . . . . . . . . . . . . . . . . . . . . . . . . . . . . . . ."};
