/* XPM */
static char * file_dot_xpm_xpm[] = {
"48 48 248 2",
"  	c None",
" .	c #040204",
" +	c #000000",
" @	c #E5E5E5",
" #	c #343634",
" $	c #ACAAAC",
" %	c #6C6E6C",
" &	c #A4A6A4",
" *	c #747274",
" =	c #1C1E1C",
" -	c #E4E2E4",
" ;	c #FCFEFC",
" >	c #C4C6C4",
" ,	c #DCDEDC",
" '	c #1C1A1C",
" )	c #545654",
" !	c #3C3A3C",
" ~	c #8C8E8C",
" {	c #545254",
" ]	c #FCFAFC",
" ^	c #F4F6F4",
" /	c #F4F2F4",
" (	c #ECEEEC",
" _	c #E4E6E4",
" :	c #ECEAEC",
" <	c #D4D6D4",
" [	c #DCDADC",
" }	c #D4D2D4",
" |	c #0C0A0C",
" 1	c #2C2A2C",
" 2	c #0C0E0C",
" 3	c #242624",
" 4	c #141614",
" 5	c #242224",
" 6	c #040604",
" 7	c #B4B2B4",
" 8	c #CCCACC",
" 9	c #CCCECC",
" 0	c #949694",
" a	c #6C6A6C",
" b	c #4C4A4C",
" c	c #5C5E5C",
" d	c #3C3E3C",
" e	c #646664",
" f	c #2C2E2C",
" g	c #444644",
" h	c #4C4E4C",
" i	c #646264",
" j	c #1C1614",
" k	c #848284",
" l	c #949294",
" m	c #343234",
" n	c #141214",
" o	c #5C5A5C",
" p	c #444244",
" q	c #7C7A7C",
" r	c #FCF6FC",
" s	c #9C9A9C",
" t	c #241A1C",
" u	c #24061C",
" v	c #540250",
" w	c #4C0244",
" x	c #440234",
" y	c #3C022C",
" z	c #340224",
" A	c #2C0214",
" B	c #24020C",
" C	c #1C0204",
" D	c #140204",
" E	c #2C0207",
" F	c #240204",
" G	c #0C0204",
" H	c #BC02C4",
" I	c #FCF2FC",
" J	c #FCEAFC",
" K	c #FCCAFC",
" L	c #FCAEFC",
" M	c #FC92FC",
" N	c #FC76FC",
" O	c #FC52FC",
" P	c #FC4AFC",
" Q	c #FC22FC",
" R	c #FC02C9",
" S	c #D4027C",
" T	c #A40204",
" U	c #740204",
" V	c #9C0204",
" W	c #B4024C",
" X	c #B40254",
" Y	c #D40284",
" Z	c #E402B4",
" `	c #F402CC",
". 	c #FC02AC",
"..	c #D40264",
".+	c #CC0257",
".@	c #8C0224",
".#	c #8C0204",
".$	c #440204",
".%	c #9C9E9C",
".&	c #C402C4",
".*	c #FCEEFC",
".=	c #FCDEFC",
".-	c #FCC2FC",
".;	c #FCA2FC",
".>	c #FC6AFC",
".,	c #FC5EFC",
".'	c #FC42FC",
".)	c #FC1EF1",
".!	c #BC024C",
".~	c #6C0204",
".{	c #4C0204",
".]	c #5C0204",
".^	c #540204",
"./	c #7C0224",
".(	c #840204",
"._	c #840214",
".:	c #940234",
".<	c #AC023C",
".[	c #B402B7",
".}	c #FCD2FC",
".|	c #FCB6FC",
".1	c #FC86FC",
".2	c #FC66FC",
".3	c #FC46FC",
".4	c #FC2EFC",
".5	c #FC02EC",
".6	c #340204",
".7	c #3C0205",
".8	c #7C0204",
".9	c #940204",
".0	c #640204",
".a	c #AC0208",
".b	c #FCC6FC",
".c	c #FC9AFC",
".d	c #FC8EFC",
".e	c #FC8AFC",
".f	c #FC7AFC",
".g	c #FC62FC",
".h	c #FC56FC",
".i	c #FC36FC",
".j	c #EC02B9",
".k	c #9C0224",
".l	c #AC02B4",
".m	c #FC3AFC",
".n	c #FC16FC",
".o	c #9C022C",
".p	c #BC0234",
".q	c #C4C2C4",
".r	c #FCBEFC",
".s	c #FC6EFC",
".t	c #FC26FC",
".u	c #EC02A4",
".v	c #9C0238",
".w	c #FCCEFC",
".x	c #FCB2FC",
".y	c #FC4EFC",
".z	c #E402AC",
".A	c #FCE2FC",
".B	c #FC06F4",
".C	c #CC0244",
".D	c #C4025C",
".E	c #A40244",
".F	c #5C0226",
".G	c #44020C",
".H	c #BCBEBC",
".I	c #C40264",
".J	c #D4020C",
".K	c #FCE6FC",
".L	c #FC2AFC",
".M	c #FC06DC",
".N	c #D40244",
".O	c #CC0224",
".P	c #BC0224",
".Q	c #BC020C",
".R	c #C4020C",
".S	c #FCD6FC",
".T	c #FC72FC",
".U	c #FC0EE4",
".V	c #FC0ADC",
".W	c #FC029C",
".X	c #E4027C",
".Y	c #EC0284",
".Z	c #D4025C",
".`	c #B4020C",
"+ 	c #C40220",
"+.	c #FC1AE4",
"++	c #FC16DF",
"+@	c #FC0ABC",
"+#	c #FC0EC5",
"+$	c #FC12D4",
"+%	c #EC028C",
"+&	c #DC0254",
"+*	c #F4028F",
"+=	c #D40224",
"+-	c #E4021C",
"+;	c #FCA6FC",
"+>	c #FC96FC",
"+,	c #FC7EFC",
"+'	c #FC0ACC",
"+)	c #FC12E4",
"+!	c #FC16D4",
"+~	c #FC12CC",
"+{	c #B4023C",
"+]	c #DC0264",
"+^	c #FC32FC",
"+/	c #FC1EE4",
"+(	c #FC0AB4",
"+_	c #FC0EBC",
"+:	c #BC0244",
"+<	c #FC0AAC",
"+[	c #FC027C",
"+}	c #BCBABC",
"+|	c #FC16F4",
"+1	c #FC26F4",
"+2	c #FC22EC",
"+3	c #E4026C",
"+4	c #E40264",
"+5	c #8C8A8C",
"+6	c #FC9EFC",
"+7	c #FC3EFC",
"+8	c #FC12DC",
"+9	c #FC22F4",
"+0	c #FC1ADC",
"+a	c #B4022C",
"+b	c #F40274",
"+c	c #FC5AFC",
"+d	c #FC02E4",
"+e	c #FC2AF4",
"+f	c #B4B6B4",
"+g	c #E40284",
"+h	c #FC0EB4",
"+i	c #44024C",
"+j	c #A402A4",
"+k	c #9C029C",
"+l	c #940294",
"+m	c #8C0284",
"+n	c #7C0270",
"+o	c #6C024C",
"+p	c #540224",
"+q	c #54021C",
"+r	c #640234",
"+s	c #6C023C",
"+t	c #6C0244",
"+u	c #64022C",
"+v	c #4C0214",
"+w	c #848684",
"+x	c #ACAEAC",
"+y	c #A4A2A4",
" . . . . . . . . . . . . . . . . . . . . . . . . . . . . . . . . . . . . . . . . . . . . . . . .",
" . . . . . . . . . . . . . . . . . . . . . . . . . . . . . . . . . . . . . . . . . . . . . . . .",
" . . + + @ + @ + + + . . . . . . . . . . . . # $ % . # $ # . & * # $ # . . % $ . & # . % $ . . .",
" . . @ + + + + + @ + . . . . . . . . . . . . = - ; = > , ' . ; - ; ; , ' . $ ; - ; ; - ; ; > . .",
" . . + + @ @ @ + + + . . . . . . . . . . . . . ) ; > ; ! . . ; ; = = ; > . & ; ) = ; $ = * ; . .",
" . . + @ + + + @ + + . . . . . . . . . . . . . . ! ; ~ . . . ; $ . . $ ; . $ ; . . ; ) . ) ; . .",
" . . @ + + @ + + @ + . . . . . . . . . . . . . ' ; ; - ' . . ; - . . - ; . $ ; . . ; ) . { ; . .",
" . . + @ + + + @ + + . . . . . . . . . # $ % . ~ ; ~ ; % . . ; ; * % ; ~ . $ ; . . ; { . ) ; . .",
" . . + + @ @ @ + + + . . . . . . . . . ) ; $ # ; - . ~ ; ! . ; > > ; $ . . & ; . . ; ) . { ; . .",
" . . @ + + + + + @ + . . . . . . . . . . . . . . . . . . . . ; $ . . . . . . . . . . . . . . . .",
" . . + + @ + @ + + + . . . . . . . . . . . . . . . . . . . . ; $ . . . . . . . . . . . . . . . .",
" . . + + + + + + + + . . . . . . . . . . . . . . . . . . . . . . . . . . . . . . . . . . . . . .",
" . . . . . . . . . . . . . . . . . . . . . . . . . . . . . . . . . . . . . . . . . . . . . . . .",
" . ; ; ; ; ; ; ; ; ; ; ; ] ; ^ ] ^ ^ ^ / ^ ( / ( ( ( ( _ : _ _ _ - _ , - , , , , < [ < < < < } .",
" . ; ; ; ; ; ; ; ; ] ] ^ ^ / / / ( / ( ( : : _ : _ _ - _ - - , , , [ [ [ < [ < } < [ < [ < } } .",
" . ; ; ; ; ; ; ; | 1 2 . 3 4 . = = . 4 5 . 2 3 6 | 5 2 . 5 4 . ' ' . 4 = . | 5 6 7 8 < < } < 9 .",
" . ; ; ; ; ; ; ] 1 0 # . a b . { c . d * . 1 a 4 4 e f . c g . h ) . # % . 3 i j k 7 9 } } } } .",
" . ; ; ; ; ; ; ] 3 l # . ) b . g c . m % . 5 c 4 n o f . h g . p ) . f i . = ) j q $ 9 } < 9 9 .",
" . ; ; ; ; ; ; r 3 s ! . o ) . b e . # q . 5 e ' n o m . ) h . p c . m % . = i t k & 9 } } 9 } .",
" . ; ; ; ; ; ; ^ . u v w w x x y z z A B C C D C C B E A A A A E F F C C D D G . % $ 9 9 } 9 8 .",
" . ; ; ; ; ; ; / . H I J K L M N O P Q R S T U V W X Y R Z `.  Y...+...@.# T.$ . h.% 8 9 } 9 9 .",
" . ; ; ; ; ; ; ( ..&.*.=.-.; M.>.,.'.) R.!.~.{.].^.].]./.~.(.(.(._.:.<.( V T.$ . p 0 8 9 9 8 8 .",
" . ; ; ; ; ] ] / ..[.} K.|.;.1.2.,.3.4.5.#.^.6.6.7.$.^.8.#.9.9.#.#.#.~.0 V.a.{ . # 0 8 9 8 8 > .",
" . ; ; ; ; ] ] ( ..[.b.|.c.d.e.f.g.h.i.j.9.0.].~.0 U.8.9 V V V V V.k V.0 U T.{ . ! 0 > 9 8 9 > .",
" . ; ; ] ] ] ^ ( ..l.- L M.e N.>.,.m.n Z.o.~.~ U.0.0.0.8.8.9.k V T.p.k.~.(.#.7 . ! 0.q 8 8 8 > .",
" . ; ; ] ^ ] ^ : ..[.b.r.;.1.f.s.> P.t.u.v.8.~.^.7.6.6.6.{.] U U.#.9.(.~ V T.7 . ! 0.q 8 8 > > .",
" . ] ] ] ] ^ ^ ( ..[.w.b.x.e.e.1.g.y.4.z U.~.].7.7.].] F C G F.7.^ U.0.].# V.7 . # l.q > > 8 > .",
" . ; ^ r ^ ^ ^ : ..&.A.} L.d.d M.s.h.B.C.D.8.{.7.{.v.E.6.F E.6 C C.7.G.^ V T.7 . ! 0.H 8 > >.q .",
" . ^ ] ^ ^ r / _ . H I.*.b.; M M.2.'.j.I.D T.#.0.~.@ X.].7.6.].7 E.6.6.~.a.J.] . # l.H 8 > >.q .",
" . ^ r ^ ^ ^ / _ ..& I.K.b.c M M.g.L.M `.N.O.P.Q.a V.#.9 U.0.0.].].0.^.8.R.R.^ . # l.H >.q >.H .",
" . ^ ^ ^ / / / _ . H.=.S.-.;.1.T O.n.U.V.W.X.Y.W.Y.Z.R.Q V.a.a.`.9 T.~.9+ .C.] . # l.H >.q.q.q .",
" . ^ ^ ^ / / ( _ ..&.K.w.r.c.e.f.g.'.L+.+++@+#+$+#. +%+&+*+=+=...O+- V.9..+-.^ . ! ~.H.q.q.q.H .",
" . / ^ / / ( / _ ..[.b.|+;+>+,.2.g.L.t.4+'+)+.+!+~+#+~+!+@+~+#+#+~+*+{.`.X+].^ . # ~.H.q.H.H.H .",
" . ^ / ( / ( ( - ..[.b.|+> M M.>.,.'+^.4.B.U+.+/+$+#+$+~+(+_+#+~+~. +: V+<+[.^ . ! ~+}.q.H.q.H .",
" . / / ( / ( ( - ..l K.-.;+;+>.1.g P.t.L+|+++.+1.)+!+!+/+~+~+~+2+_+@+3 T. +4.] . #+5+}.H.q+}+} .",
" . ( / ( ( ( : , ..[.w.b.-.|+6 M.>+7 Q.4 `+8+!+2.4+1+1+.+/+++9+2+!+0+(+a+'+b.^ . #+5+}.H.H.H+} .",
" . ( ( / : ( : - . H I.=.-+;+> M+c.'.)+8+d+!+2+e+1.t+1.t+e+.+!+!+~+(+<+a...Z.^ . #+5+f.H.H+}+f .",
" . / ( ( : : : , ..& I J.-.|.;.e O.m+9+d+g+~+!+1+^.4.L.L+.+2+#+!+@+h+#+{.P.D.{ . #+5+}.H+}+}+f .",
" . ( ( : : _ _ , .+i.[.l+j+k+l+m+n+n+o+p+q.F+r+s+t+t+t+s+u+r+u+u.F+u+u.7.7+v F . m+w+f+}+}+f+} .",
" . : ( : : _ : , . . . . . . . . . . . . . . . . . . . . . . . . . . . . . . . . #+5+f+}+f+}+f .",
" . : : _ : _ _ , 5 ) n . 4 4 . n = . 2 5 . 6 = 6 6 4 2 . 4 4 . 2 ' . 2 = . 6 ' 6 g ~ 7+}+f+}+f .",
" . ( _ : _ : _ [ 5 q 3 . p ! . # g . 3 { . ' g n 2 p 5 . ! # . m d . 5 b . 4 d n e l 7+}+f+f 7 .",
" . _ : _ _ _ - [ 3+w # . h b . d c . f % . = o 4 n h f . g g . ! ) . 1 c . = { 4 % 0 7+f+f 7 7 .",
" . : _ : _ - - [ 6 ' 6 . 2 2 . 2 2 . 6 n . 6 2 6 . n 6 . 2 | . | 2 . | 2 . 6 2 6 a l 7+f 7+f+x .",
" . _ _ - - - , ,+}+w * i c a e o a e o e e o o e o ) e o ) i c { c c h c c h { i % 0 7 7+f 7 7 .",
" . _ _ _ - - - , 9+f $ & & & &+y &+y.%+y.% s.%.% 0 s s 0 0 0 0 l 0 l l l l ~ ~ l 0 $+x 7 7+x+x .",
" . - _ - , , , , [ < < } } 9 9 9 9 8 8 > 8 > >.q.q.q.H.H.H.H+}+}+f+}+f+f+f 7 7+x 7+f+f 7+x 7+x .",
" . . . . . . . . . . . . . . . . . . . . . . . . . . . . . . . . . . . . . . . . . . . . . . . ."};
