/* XPM */
static char * file_dot_mp3_xpm[] = {
"48 48 254 2",
"  	c None",
" .	c #040204",
" +	c #1C1D1B",
" @	c #8D8C8A",
" #	c #ACAAAC",
" $	c #9FA3A0",
" %	c #3C3A3D",
" &	c #000000",
" *	c #E5E5E5",
" =	c #C4C4C4",
" -	c #FCFDFC",
" ;	c #747274",
" >	c #545553",
" ,	c #E4E4E4",
" '	c #DCDCDC",
" )	c #F4F4F3",
" !	c #ECECEC",
" ~	c #D4D4D4",
" {	c #150E10",
" ]	c #341238",
" ^	c #261821",
" /	c #1C1518",
" (	c #2B2411",
" _	c #261B0C",
" :	c #131312",
" <	c #0C0E0C",
" [	c #362B0E",
" }	c #3F4141",
" |	c #CCCCCC",
" 1	c #2B0D2C",
" 2	c #E42DE4",
" 3	c #E442EC",
" 4	c #E068DC",
" 5	c #B45AAC",
" 6	c #A47654",
" 7	c #E4B654",
" 8	c #CCA650",
" 9	c #A07844",
" 0	c #825442",
" a	c #704848",
" b	c #703A68",
" c	c #884488",
" d	c #9846A0",
" e	c #9C4A9C",
" f	c #A94DA7",
" g	c #B422B4",
" h	c #671667",
" i	c #4F134C",
" j	c #2C1E1C",
" k	c #906C0E",
" l	c #E4AA0C",
" m	c #FCCB0C",
" n	c #FCC50E",
" o	c #9C9F8A",
" p	c #E921E9",
" q	c #CC4ACC",
" r	c #845A64",
" s	c #804E5C",
" t	c #8C4A84",
" u	c #C45BBF",
" v	c #CA60D0",
" w	c #D462D4",
" x	c #E45EE8",
" y	c #EC32EC",
" z	c #DC1EDC",
" A	c #A816A8",
" B	c #805E0C",
" C	c #ECBA0C",
" D	c #F2C30C",
" E	c #943294",
" F	c #644244",
" G	c #BC62AC",
" H	c #C46A9C",
" I	c #C9728C",
" J	c #CC7789",
" K	c #BC56A4",
" L	c #CC2EC4",
" M	c #14151F",
" N	c #8C620C",
" O	c #4C3810",
" P	c #C8980C",
" Q	c #642664",
" R	c #BC628C",
" S	c #CC7A7C",
" T	c #E1977D",
" U	c #F1A385",
" V	c #F2AC8B",
" W	c #E09E80",
" X	c #CC727C",
" Y	c #881688",
" Z	c #604464",
" `	c #A0999C",
". 	c #BCBCBC",
"..	c #949591",
".+	c #8C6A40",
".@	c #FCDC1C",
".#	c #FCE428",
".$	c #FCEF44",
".%	c #D01CD0",
".&	c #A926A7",
".*	c #EC4AEC",
".=	c #BC7664",
".-	c #F29E7E",
".;	c #FBB38D",
".>	c #986258",
".,	c #443A50",
".'	c #F4EEF1",
".)	c #FCF2F4",
".!	c #A49264",
".~	c #D4BA34",
".{	c #FCF470",
".]	c #FCF999",
".^	c #FCFDB6",
"./	c #1C061C",
".(	c #941A94",
"._	c #C436BC",
".:	c #FCAD8B",
".<	c #B08A80",
".[	c #BFB3B7",
".}	c #C096A4",
".|	c #B46A74",
".1	c #987A70",
".2	c #B49A84",
".3	c #C4A29C",
".4	c #FCFEDC",
".5	c #AC4A84",
".6	c #D4927C",
".7	c #EC9274",
".8	c #FCA484",
".9	c #F0987A",
".0	c #B06F61",
".a	c #A47E84",
".b	c #E4BAB8",
".c	c #AD9F9F",
".d	c #704E56",
".e	c #B4968C",
".f	c #C48E94",
".g	c #605654",
".h	c #B4B6B4",
".i	c #614E64",
".j	c #A4625C",
".k	c #E8BCA8",
".l	c #C49284",
".m	c #807EB0",
".n	c #ACAEDC",
".o	c #A4A6DC",
".p	c #D4CEEC",
".q	c #2C2C2E",
".r	c #26242C",
".s	c #BC7C68",
".t	c #A08E80",
".u	c #7C4B41",
".v	c #3D3E87",
".w	c #5053AC",
".x	c #6968D2",
".y	c #7173CA",
".z	c #8C8ECC",
".A	c #F7E3EC",
".B	c #DCB2BC",
".C	c #B27B6A",
".D	c #DC896C",
".E	c #593832",
".F	c #7C5660",
".G	c #C48264",
".H	c #443E6C",
".I	c #4141A1",
".J	c #6868C0",
".K	c #6C6AAC",
".L	c #5C5AAC",
".M	c #4747AC",
".N	c #5456C0",
".O	c #444880",
".P	c #C4C69C",
".Q	c #FCE65C",
".R	c #FCD529",
".S	c #D4566C",
".T	c #847A9C",
".U	c #8C5E58",
".V	c #905644",
".W	c #74767C",
".X	c #D48B74",
".Y	c #DCAE9C",
".Z	c #ECE6E4",
".`	c #4C312E",
"+ 	c #3C3A7C",
"+.	c #5C5AC1",
"++	c #5F5B64",
"+@	c #E4CE54",
"+#	c #C4CAE4",
"+$	c #382524",
"+%	c #6F6567",
"+&	c #BC9E8C",
"+*	c #D4A20C",
"+=	c #7C560C",
"+-	c #C4C2FC",
"+;	c #8789F4",
"+>	c #CC88AC",
"+,	c #3C4654",
"+'	c #546684",
"+)	c #344A74",
"+!	c #646468",
"+~	c #5C5ECC",
"+{	c #544A7C",
"+]	c #C4861C",
"+^	c #DC9A0C",
"+/	c #AC7E0C",
"+(	c #7C8285",
"+_	c #1B1C2B",
"+:	c #9797FC",
"+<	c #7C7CF0",
"+[	c #64527C",
"+}	c #9C567C",
"+|	c #7C2E54",
"+1	c #CCB3B1",
"+2	c #405270",
"+3	c #74829C",
"+4	c #2C3244",
"+5	c #2C2C54",
"+6	c #5C420F",
"+7	c #A06E0C",
"+8	c #9C9FFC",
"+9	c #6C60A0",
"+0	c #382C38",
"+a	c #502238",
"+b	c #C4765C",
"+c	c #BC867C",
"+d	c #344264",
"+e	c #24324C",
"+f	c #493836",
"+g	c #4C4674",
"+h	c #945D52",
"+i	c #70463A",
"+j	c #4C2E24",
"+k	c #B47660",
"+l	c #F4C2A4",
"+m	c #D2846B",
"+n	c #7C7E7C",
"+o	c #D47E64",
"+p	c #AC685C",
"+q	c #DF8F75",
"+r	c #946654",
"+s	c #6C5A94",
"+t	c #744E3C",
"+u	c #C77D64",
"+v	c #5C5A8C",
"+w	c #624138",
"+x	c #A46A5C",
"+y	c #846A64",
"+z	c #504040",
"+A	c #7C7E84",
"+B	c #B4B2B4",
"+C	c #3C2A24",
"+D	c #3C3A4C",
"+E	c #84868C",
" . . . . . . . . . . . . . . . . . . . . . . . . . . . . . . . . . . . . . . . . . . . . . . . .",
" . . . . . . . . . . . . . . . . . . . . . . . . . . . . . . . . . . . . . . . . + @ # $ % . . .",
" . . & & & * & & * & & . . . . . . . . . . . . . . . . . . . . . . . . . . . . . = - # = - + . .",
" . . & & & & * & & * & . . . . . . . . . . . $ ; % # . . # ; . . . # ; % $ % . . - > . + - > . .",
" . . & & * & * & & * & . . . . . . . . . . . - , - - ' - - - ; . . - ' - - , + . > + . > - % . .",
" . . * * * & * & & * & . . . . . . . . . . . - ' + ; - ; . = # . . - - + + - = . . . # - # . . .",
" . . * * * & * & & * & . . . . . . . . . . . - # . > - . . # # . . - # . . # - . . . . > - @ . .",
" . . & & * & * & & * & . . . . . . . . . . . - # . > - . . # # . . - , . . , - . - > . + - # . .",
" . . & & & & * & & * & . . . . . . . % $ ; . - # . > - . . # # . . - - ; ; - @ . ' = > @ - ; . .",
" . . & & & * & & * & & . . . . . . . > - # . - # . > - . . # # . . - = = - # . . > , - - @ . . .",
" . . . . . . . . . . . . . . . . . . . . . . . . . . . . . . . . . - # . . . . . . . . . . . . .",
" . . . . . . . . . . . . . . . . . . . . . . . . . . . . . . . . . - # . . . . . . . . . . . . .",
" . . . . . . . . . . . . . . . . . . . . . . . . . . . . . . . . . . . . . . . . . . . . . . . .",
" . - - - - - - - - - - - - - - - ) ) ) ) ) ! ) ! ! ! ! , ! , , , , , ' , ' ' ' ' ~ ' ~ ~ ~ ~ ~ .",
" . - - - - - - - - - - - - - ) - ) - ) ) ) ) ! ) ! ! ! ! ! , ! , , , , ' , ' ' ' ' ' ~ ' ~ ~ ~ .",
" . - - - - - - { ] ^ ] ^ / ( ( _ + : { / { { / / { < / { < < < . < < + / _ ( [ ( ( } ~ ~ ~ ~ | .",
" . - - - - - - 1 2 3 4 5 6 7 8 9 0 a b c d e f g h ] i i { < < < < j k k l m n m m o ~ ~ ~ ~ ~ .",
" . - - - - - - 1 p 3 q r 8 6 s t f u v w w 4 x y z A 1 < < < < ( : B C D m m m m m o ~ ~ ~ | | .",
" . - - - - - - 1 p 2 E F s e v u G H I J J I K L p z h { M M ^ N O P m m m D m m m o ~ ~ | ~ | .",
" . - - - - - - 1 p g Q d v v R S T U V V V U W X g Y Z `.  =...+ k D.@.#.@.#.$.$.$ o ~ | ~ | | .",
" . - - - - - - 1.% h.&.* u.=.- V.;.;.;.;.;.;.;.;.>., #.'.) '.  =.!.~.{.{.].].^.^.^ $ | ~ | | | .",
" . - - - - - -./.( Y p._ J.;.;.;.; V T T U.:.:.:.-.<.[.}.|.1 9.2.3 @ | ) -.4 ).4.4 $ ~ | | | | .",
" . - - - - - -./ i A.%.5 V.;.; U.6.6.6.7 U.8 U U.9.0 ;.a.b.c.d.e.f r.g.h ) - - ).4 $ | | | | | .",
" . - - - - - - :.i c b.j V.: V U T W U.8 U.k.b.l.0.0.i.m.n.o.m.n.p.[ %.q | -.4.4.^ $ | | | | = .",
" . - - - - ) ).r ~ = `.s.9.:.:.-.8.:.; V.b ) ) ~.t.u.d.v.w.x.y.y.y.z % } '.4.4.].{ $ | | | = | .",
" . - - - -.) -.q.A.B.c.C.D.= F.E.F.G.; U.' - -.) '.g F.H.I.J.K.L.M.N.O.P.^.].Q.R.R o | | = | = .",
" . - - ) ) - ) ^.S I.T.U.V ^.W , ).c.X.Y ) - ).Z.'.c.` Z+ +..w.I.I.M+++@.R D D D D.. | = | = = .",
" ..) - ) - ) ).r.)+#.y.F+$ } ).'.' -.l.3 -.' `+% `+&.`.i+ .w+..I.v.v.+ C D D+* B+= @ = | = = = .",
" . - ) ) ) ) ).r+-+;.L.i ^++.A+>+>.Z.[.<.'.[+,+'+)+!.E.d+ .M.x+~.N+{+] D+^+/ P k [+( | = = = = .",
" . - ) - ) ) )+_+:+<.N+[ j %.}+}+|.B.t.X+1 $+2+3+2+4 s.U+ .I.x.y.w+5+6 k+7+6 O+6 [+( = = = =.  .",
" . ) ) ) ) ) )+_+8+;+~+9 a /+0+a+a.i+b V+c $+++d+e+f.D.0+g.v.N.O j < < : ( j { < :+3 = = = = = .",
" . ) ) ) ) ) !.r+:+:.x+9+h+i+$ /+j+k+l+l+m 0 > j+f.D.;.C.H M / : < < < < < < < < <+n = = =. .  .",
" . ) ) ) ! ) !+_+8+:.x+..i+b+o.9+m+m T.C+i+p+q.-.;.; V+r + < < < < < < < < < < < <+( = =.  =.  .",
" . ) ) ) ! ) !+_+8+8+<.N+s+b.9.-+b+h+t.V+u.-.:.;.;.; T.E { < . < < < < < < < < < <+( =.  =. .  .",
" . ) ! ) ! ! !+_+8+8+;.N.L+p.8.:.8+q+u+o.7.8.:.: V.;.X+i _ < < < < < < < < < < < <.W = =. . .  .",
" . ) ) ! ) ! ! M+v.K.L+5+5+w.G U.:.8.9.9.8.:.;.;.;.;+o 0 ^ < < < < < ../ < . < < <+3 =. . . .  .",
" . ! ! ! ! ! ! < M M M < < :+$+h V.;.:.: V.9.D+m T.7+m.U : { < <./ < < < < <./ < <+n. . . . .  .",
" . ) ! ! ! ! ! . < < < < < <+j.V+x V V+q 6.c | ~.c+y+m.u < < < . < < < < < < < < <+(. . . . .h .",
" . ! ! ! ! , ! < < < < < < < j+x+k.0+k.c ' |.h..+%+z+t+f < < < < < <./ < < < . < <+A. . . .h.  .",
" . ! ! ! !.Z , < < < < < { < <+j.X.s+%..+!.q < < < :+j ^ < < < < < < < <./ < < < <+3. . . .h.h .",
" . ! ! ! , , , < < < < < < < < :+i.s % : < < < < /+w.E < . { <./ < < . < < < < < <+A.[.h.h. +B .",
" . ! , ! , ! , . <./ < < { < < < :.E+i+C / : _.E+k+h / < < < < < < < < < < . < < <+(.h. .h.h+B .",
" . ! , ! , , ,+D+3+A.W+3+A.W+(+A+(+(+E+E+(+(+( @.. @+A+A+A+3.W+3.W+3+A+A+3+A+A+3.W+B.h. .h+B+B .",
" . ! , , , , , , ' , ' ' ' ' ~ ' ~ ~ ~ ~ ~ | ~ | | | | = | = = = = =.  =. . . .[. . .h.h.h+B+B .",
" . , , , , , ' , ' ' ' ' ' ~ ' ~ ~ ~ ~ ~ | | | | | | = | = = = = =.  =. . . . .h. .h.h+B+B+B+B .",
" . ! , , , , , ' ' ' ' ' ~ ' ~ ~ ~ ~ ~ ~ | ~ | | | | = | = = = =.  =. . . . .h. .h.h+B.h+B+B # .",
" . , , , ' ' ' , ' ' ' ~ ' ~ ~ ~ ~ ~ | | | | | | = | = = = = =.  =. . . . .h. .h.h.h+B+B+B+B # .",
" . . . . . . . . . . . . . . . . . . . . . . . . . . . . . . . . . . . . . . . . . . . . . . . ."};
