/* XPM */
static char * file_dot_h_xpm[] = {
"48 48 608 2",
"  	c None",
". 	c #000000",
"+ 	c #FFFFFF",
"@ 	c #AAAAAA",
"# 	c #E5E5E5",
"$ 	c #383838",
"% 	c #E2E2E2",
"& 	c #1C1C1C",
"* 	c #555555",
"= 	c #717171",
"- 	c #FDFDFD",
"; 	c #FCFCFC",
"> 	c #FBFBFB",
", 	c #FAFAFA",
"' 	c #F8F8F8",
") 	c #F7F7F7",
"! 	c #F6F6F6",
"~ 	c #F5F5F5",
"{ 	c #F4F4F4",
"] 	c #F2F2F2",
"^ 	c #F1F1F1",
"/ 	c #F0F0F0",
"( 	c #EFEFEF",
"_ 	c #EEEEEE",
": 	c #ECECEC",
"< 	c #EBEBEB",
"[ 	c #EAEAEA",
"} 	c #E9E9E9",
"| 	c #E8E8E8",
"1 	c #E6E6E6",
"2 	c #E4E4E4",
"3 	c #E3E3E3",
"4 	c #E1E1E1",
"5 	c #E0E0E0",
"6 	c #DFDFDF",
"7 	c #DEDEDE",
"8 	c #DDDDDD",
"9 	c #DBDBDB",
"0 	c #DADADA",
"a 	c #D9D9D9",
"b 	c #D8D8D8",
"c 	c #D7D7D7",
"d 	c #D5D5D5",
"e 	c #D4D4D4",
"f 	c #F9F9F9",
"g 	c #D3D3D3",
"h 	c #F3F3F3",
"i 	c #E7E7E7",
"j 	c #DCDCDC",
"k 	c #D2D2D2",
"l 	c #EAE9EA",
"m 	c #D6D2D6",
"n 	c #C5B3C5",
"o 	c #BC8FBC",
"p 	c #D27AD2",
"q 	c #DA74D9",
"r 	c #D872D7",
"s 	c #CB7DCB",
"t 	c #BE91BD",
"u 	c #BEAEBD",
"v 	c #C9C7C9",
"w 	c #D6D6D6",
"x 	c #D1D1D1",
"y 	c #FEFEFE",
"z 	c #D3C5D3",
"A 	c #CA91CA",
"B 	c #E468E3",
"C 	c #F34FF0",
"D 	c #F344F0",
"E 	c #F23DF0",
"F 	c #EE3EEB",
"G 	c #ED3FE9",
"H 	c #EF40E9",
"I 	c #EE41E4",
"J 	c #E747E0",
"K 	c #BF59BB",
"L 	c #A883A6",
"M 	c #B8B5B8",
"N 	c #D0D0D0",
"O 	c #E5E2E5",
"P 	c #C5A0C5",
"Q 	c #EE66EE",
"R 	c #F14CF0",
"S 	c #EC41E5",
"T 	c #E33EDC",
"U 	c #DD3BDA",
"V 	c #DD37D9",
"W 	c #D834D8",
"X 	c #DB36D3",
"Y 	c #DB32D0",
"Z 	c #DE37D0",
"` 	c #E13AD7",
" .	c #E739DE",
"..	c #E23BD7",
"+.	c #AA53A5",
"@.	c #9C8B9B",
"#.	c #C3C3C3",
"$.	c #CECECE",
"%.	c #E0DBE0",
"&.	c #D18ED1",
"*.	c #F153EF",
"=.	c #EC3FE9",
"-.	c #E436D9",
";.	c #DC33D1",
">.	c #D832CD",
",.	c #D732D0",
"'.	c #D635CF",
").	c #D333D5",
"!.	c #D330D2",
"~.	c #D632CE",
"{.	c #DA35CE",
"].	c #DB36D1",
"^.	c #DC35D3",
"/.	c #DD34D8",
"(.	c #DA32D3",
"_.	c #AE3DA9",
":.	c #8B708A",
"<.	c #B8B7B8",
"[.	c #CFCFCF",
"}.	c #CDCDCD",
"|.	c #E2DFE2",
"1.	c #D08BD0",
"2.	c #F052EE",
"3.	c #E73FE0",
"4.	c #DA38D6",
"5.	c #D831CF",
"6.	c #DC37CF",
"7.	c #D835C9",
"8.	c #C631BB",
"9.	c #C02FB6",
"0.	c #B62BB4",
"a.	c #B92EBB",
"b.	c #C530BF",
"c.	c #D034C7",
"d.	c #D936CE",
"e.	c #DA33D1",
"f.	c #DA31D4",
"g.	c #D932D2",
"h.	c #D436CC",
"i.	c #A837A3",
"j.	c #7E677D",
"k.	c #B4B4B4",
"l.	c #CCCCCC",
"m.	c #ECEBEC",
"n.	c #CA9ACA",
"o.	c #EE51EA",
"p.	c #E33FE1",
"q.	c #DA37D0",
"r.	c #D831CD",
"s.	c #D831CB",
"t.	c #C430BE",
"u.	c #9D2895",
"v.	c #631B5F",
"w.	c #5B215A",
"x.	c #4D2351",
"y.	c #59255D",
"z.	c #71226E",
"A.	c #952793",
"B.	c #BE2EBB",
"C.	c #D231C9",
"D.	c #D535D0",
"E.	c #DD36D5",
"F.	c #D834D0",
"G.	c #CC34C2",
"H.	c #90348B",
"I.	c #7C717B",
"J.	c #BABABA",
"K.	c #CBCBCB",
"L.	c #D9D3D9",
"M.	c #C36CC2",
"N.	c #C63CC6",
"O.	c #D135D1",
"P.	c #D134CF",
"Q.	c #CF33CB",
"R.	c #A628A2",
"S.	c #601B5F",
"T.	c #3B2A41",
"U.	c #3B5751",
"V.	c #528474",
"W.	c #58907C",
"X.	c #588D7B",
"Y.	c #568277",
"Z.	c #545F69",
"`.	c #703476",
" +	c #AA2CA9",
".+	c #D234CC",
"++	c #D733CF",
"@+	c #C92FBD",
"#+	c #91248C",
"$+	c #571F55",
"%+	c #6A4F69",
"&+	c #9C9B9C",
"*+	c #C6C6C6",
"=+	c #CACACA",
"-+	c #EFE7EE",
";+	c #DAB9D9",
">+	c #8B4B88",
",+	c #962993",
"'+	c #BA2DBA",
")+	c #A827A7",
"!+	c #4C2053",
"~+	c #38554E",
"{+	c #58947E",
"]+	c #65AB91",
"^+	c #67AF94",
"/+	c #65AD92",
"(+	c #65AC92",
"_+	c #5F9986",
":+	c #715B7F",
"<+	c #AC35A7",
"[+	c #B028AB",
"}+	c #6C1B66",
"|+	c #4C1A49",
"1+	c #5E2F5D",
"2+	c #AB46A9",
"3+	c #7B657A",
"4+	c #B0B0B0",
"5+	c #C9C9C9",
"6+	c #CEC1CE",
"7+	c #E960E9",
"8+	c #D455D1",
"9+	c #9B5D98",
"0+	c #7A3E79",
"a+	c #7F2879",
"b+	c #5F215D",
"c+	c #39544F",
"d+	c #5D9F87",
"e+	c #61A18A",
"f+	c #715C82",
"g+	c #501A51",
"h+	c #491E49",
"i+	c #883886",
"j+	c #E64BE1",
"k+	c #D63ACE",
"l+	c #7E3B7B",
"m+	c #878587",
"n+	c #C8C8C8",
"o+	c #F0EDF0",
"p+	c #C29CC2",
"q+	c #F14BEE",
"r+	c #E03FDB",
"s+	c #D33CCD",
"t+	c #B043AB",
"u+	c #853E82",
"v+	c #534E63",
"w+	c #5B9B84",
"x+	c #5F9885",
"y+	c #5D3260",
"z+	c #B23AB1",
"A+	c #E544E2",
"B+	c #E43ED9",
"C+	c #D333CB",
"D+	c #962990",
"E+	c #5D555D",
"F+	c #A4A4A4",
"G+	c #C7C7C7",
"H+	c #EDE4ED",
"I+	c #CC7BCA",
"J+	c #EE44E6",
"K+	c #D93BD5",
"L+	c #DA36D8",
"M+	c #D137CB",
"N+	c #893188",
"O+	c #5C857D",
"P+	c #67AE94",
"Q+	c #67B094",
"R+	c #66AF93",
"S+	c #8F7DA7",
"T+	c #DC36D8",
"U+	c #E038D9",
"V+	c #DA36D2",
"W+	c #D532CE",
"X+	c #A6289F",
"Y+	c #4A3449",
"Z+	c #8E8E8E",
"`+	c #BFBFBF",
" @	c #C5C5C5",
".@	c #EADCE9",
"+@	c #DB64D9",
"@@	c #E83EE3",
"#@	c #D63AD2",
"$@	c #D631D3",
"%@	c #B72BB5",
"&@	c #4F2A56",
"*@	c #5D9D85",
"=@	c #68AF95",
"-@	c #729F99",
";@	c #C14DC4",
">@	c #DF36D5",
",@	c #D936D2",
"'@	c #D534CD",
")@	c #A6279C",
"!@	c #4B2248",
"~@	c #797979",
"{@	c #B5B5B5",
"]@	c #C4C4C4",
"^@	c #D9D2D9",
"/@	c #E35BDE",
"(@	c #EA40E1",
"_@	c #DB39D1",
":@	c #DA31CD",
"<@	c #B12DA9",
"[@	c #4F3858",
"}@	c #64AA90",
"|@	c #72AC9C",
"1@	c #C860CE",
"2@	c #E539DB",
"3@	c #DD36D3",
"4@	c #D733D0",
"5@	c #BC2CB5",
"6@	c #5A1F58",
"7@	c #696969",
"8@	c #ADADAD",
"9@	c #D1CCD1",
"0@	c #DF50DA",
"a@	c #E53DE0",
"b@	c #D934D5",
"c@	c #D733D2",
"d@	c #B326AA",
"e@	c #554261",
"f@	c #65AC91",
"g@	c #67AF95",
"h@	c #71AE9C",
"i@	c #BE6BD1",
"j@	c #DD39D9",
"k@	c #D436CD",
"l@	c #D531CF",
"m@	c #B92BB3",
"n@	c #4F1A4D",
"o@	c #5E5E5E",
"p@	c #A7A7A7",
"q@	c #C2C2C2",
"r@	c #D5CFD4",
"s@	c #D052C7",
"t@	c #DF37D3",
"u@	c #DE34D4",
"v@	c #DA34D5",
"w@	c #BF2CB6",
"x@	c #5C3C65",
"y@	c #65AA90",
"z@	c #67B095",
"A@	c #73AF9E",
"B@	c #C968D6",
"C@	c #E43EDA",
"D@	c #D333CE",
"E@	c #D332CB",
"F@	c #AE28A6",
"G@	c #481847",
"H@	c #5A5A5A",
"I@	c #A3A3A3",
"J@	c #C1C1C1",
"K@	c #E0D4E0",
"L@	c #C05FBD",
"M@	c #E63FDD",
"N@	c #DC35D1",
"O@	c #D735D0",
"P@	c #D02EC7",
"Q@	c #823983",
"R@	c #62A08A",
"S@	c #7FB6AC",
"T@	c #E161E9",
"U@	c #E43FDF",
"V@	c #D634D3",
"W@	c #D332CF",
"X@	c #9A2698",
"Y@	c #3B183A",
"Z@	c #5C5C5C",
"`@	c #C0C0C0",
" #	c #E1DAE1",
".#	c #A26E9F",
"+#	c #DC38D2",
"@#	c #DA34D1",
"##	c #D531D2",
"$#	c #D434CE",
"%#	c #AD30A5",
"&#	c #657C81",
"*#	c #68B195",
"=#	c #9FA7C3",
"-#	c #ED47EA",
";#	c #DA3AD5",
">#	c #D937D1",
",#	c #D131C7",
"'#	c #862084",
")#	c #301D30",
"!#	c #646464",
"~#	c #BEBEBE",
"{#	c #EDEDED",
"]#	c #E4E2E3",
"^#	c #A58EA4",
"/#	c #CE3BC7",
"(#	c #DA35D3",
"_#	c #D632CD",
":#	c #D334CF",
"<#	c #C735C1",
"[#	c #824E8D",
"}#	c #66A28F",
"|#	c #77BFA7",
"1#	c #D175E1",
"2#	c #EA38E3",
"3#	c #D439D1",
"4#	c #D73AD2",
"5#	c #C531BB",
"6#	c #64195F",
"7#	c #2D252D",
"8#	c #727272",
"9#	c #AEAEAE",
"0#	c #BDBDBD",
"a#	c #C7B5C9",
"b#	c #B24AAD",
"c#	c #D932CF",
"d#	c #D737CE",
"e#	c #D537CF",
"f#	c #BA37BB",
"g#	c #87749B",
"h#	c #69AA94",
"i#	c #74BBA3",
"j#	c #BA95D4",
"k#	c #EC48EE",
"l#	c #DF34D5",
"m#	c #D536CE",
"n#	c #D135CD",
"o#	c #A92AA2",
"p#	c #3D123A",
"q#	c #393839",
"r#	c #848484",
"s#	c #BCBCBC",
"t#	c #D5D0D5",
"u#	c #986C96",
"v#	c #CD37C9",
"w#	c #D635D2",
"x#	c #DA37D2",
"y#	c #DE3AD4",
"z#	c #D930D0",
"A#	c #C043BE",
"B#	c #8978A2",
"C#	c #6FAD9A",
"D#	c #68B095",
"E#	c #6AB398",
"F#	c #81BDAF",
"G#	c #B79ED6",
"H#	c #EB55F0",
"I#	c #E338DC",
"J#	c #D738CC",
"K#	c #DB33CB",
"L#	c #CB2EC2",
"M#	c #6F1A6C",
"N#	c #251725",
"O#	c #535353",
"P#	c #989898",
"Q#	c #BBBBBB",
"R#	c #BEABBD",
"S#	c #984394",
"T#	c #CE36C2",
"U#	c #D934D3",
"V#	c #D533D3",
"W#	c #DD32D5",
"X#	c #DC36CF",
"Y#	c #D83ECF",
"Z#	c #C563CA",
"`#	c #9493B4",
" $	c #82AEAC",
".$	c #6EA496",
"+$	c #79B1A4",
"@$	c #88B5B4",
"#$	c #AEA7D1",
"$$	c #DD6FEC",
"%$	c #E943EB",
"&$	c #DB35DA",
"*$	c #D938D0",
"=$	c #D536CC",
"-$	c #D232C3",
";$	c #96238B",
">$	c #321030",
",$	c #312F31",
"'$	c #737373",
")$	c #A9A9A9",
"!$	c #D1D0D1",
"~$	c #917C90",
"{$	c #953292",
"]$	c #C82DC4",
"^$	c #D736D2",
"/$	c #D735CF",
"($	c #D838CF",
"_$	c #D836D6",
":$	c #DE36DC",
"<$	c #DC41E0",
"[$	c #DA4FDD",
"}$	c #5F2C61",
"|$	c #9C4AA0",
"1$	c #E95AEC",
"2$	c #F046ED",
"3$	c #EC3CE3",
"4$	c #DB35D1",
"5$	c #DB33CF",
"6$	c #D53BD6",
"7$	c #CE36C9",
"8$	c #A7289F",
"9$	c #481244",
"0$	c #221C22",
"a$	c #585858",
"b$	c #939393",
"c$	c #B7B7B7",
"d$	c #B9B9B9",
"e$	c #C3BFC3",
"f$	c #896588",
"g$	c #943091",
"h$	c #C733C1",
"i$	c #D432CF",
"j$	c #D633CC",
"k$	c #D832D3",
"l$	c #DC35D6",
"m$	c #C32FBB",
"n$	c #511A4F",
"o$	c #A03799",
"p$	c #EE3BE1",
"q$	c #E133D6",
"r$	c #D937CE",
"s$	c #D839CB",
"t$	c #DB30CB",
"u$	c #D335CB",
"v$	c #A42B9F",
"w$	c #491447",
"x$	c #221621",
"y$	c #464646",
"z$	c #818181",
"A$	c #ACACAC",
"B$	c #B8B8B8",
"C$	c #B7B2B7",
"D$	c #7D5D7B",
"E$	c #852B7E",
"F$	c #B12CAD",
"G$	c #D132C6",
"H$	c #D733CE",
"I$	c #D731D1",
"J$	c #D731D2",
"K$	c #B527B3",
"L$	c #521C50",
"M$	c #A73BA3",
"N$	c #EA3BDD",
"O$	c #DD34D1",
"P$	c #D536D0",
"Q$	c #D236CA",
"R$	c #CB2CBA",
"S$	c #93218D",
"T$	c #40113D",
"U$	c #1F161E",
"V$	c #414141",
"W$	c #767676",
"X$	c #B6B6B6",
"Y$	c #B2B0B2",
"Z$	c #746673",
"`$	c #652F64",
" %	c #8B2486",
".%	c #B12BA7",
"+%	c #C62FBF",
"@%	c #D031CB",
"#%	c #B82AB2",
"$%	c #4D1E4B",
"%%	c #A93FA5",
"&%	c #E139DB",
"*%	c #CE31C6",
"=%	c #B72CB6",
"-%	c #9C2499",
";%	c #631660",
">%	c #2D0F2C",
",%	c #211D21",
"'%	c #474747",
")%	c #A1A1A1",
"!%	c #837F83",
"~%	c #594758",
"{%	c #5B2757",
"]%	c #6E1E6B",
"^%	c #861E82",
"/%	c #90228A",
"(%	c #4C214A",
"_%	c #9D3E99",
":%	c #A62AA0",
"<%	c #7B1C76",
"[%	c #4B124A",
"}%	c #371136",
"|%	c #211720",
"1%	c #323132",
"2%	c #595959",
"3%	c #A2A0A2",
"4%	c #827A82",
"5%	c #575257",
"6%	c #463545",
"7%	c #3F263D",
"8%	c #4B374A",
"9%	c #694A68",
"0%	c #463645",
"a%	c #332C32",
"b%	c #2F2D2F",
"c%	c #464046",
"d%	c #959595",
"e%	c #B3B3B3",
"f%	c #919191",
"g%	c #7F7F7F",
"h%	c #8B8B8B",
"i%	c #888888",
"j%	c #7A7A7A",
"k%	c #7C7C7C",
"l%	c #8A8A8A",
"m%	c #9B9B9B",
"n%	c #ABABAB",
"o%	c #B2B2B2",
"p%	c #B1B1B1",
"q%	c #AFAFAF",
". . . . . . . . . . . . . . . . . . . . . . . . . . . . . . . . . . . . . . . . . . . . . . . . ",
". . . . . . . . . . . . . . . . . . . . . . . . . . . . . . . . . . . . . . . . + @ . . . . . . ",
". . # # # # # # # . . . . . . . . . . . . . . . . . . . . . . . . . . . . . . . + @ . . . . . . ",
". . # . . . . . # . . . . . . . . . . . . . . . . . . . . . . . . . . . . . . . + @ $ @ . . . . ",
". . # . # # # . # . . . . . . . . . . . . . . . . . . . . . . . . . . . . . . . + % + + % . . . ",
". . # . . . . . # . . . . . . . . . . . . . . . . . . . . . . . . . . . . . . . + + & & + * . . ",
". . # . # # # . # . . . . . . . . . . . . . . . . . . . . . . . . . . . . . . . + @ . . + * . . ",
". . # . . . . . # . . . . . . . . . . . . . . . . . . . . . . . . . . . . . . . + @ . . + * . . ",
". . # . # # # . # . . . . . . . . . . . . . . . . . . . . . . . . . . . $ @ = . + @ . . + * . . ",
". . # . . . . . # . . . . . . . . . . . . . . . . . . . . . . . . . . . * + @ . + @ . . + * . . ",
". . # # # # # # # . . . . . . . . . . . . . . . . . . . . . . . . . . . . . . . . . . . . . . . ",
". . . . . . . . . . . . . . . . . . . . . . . . . . . . . . . . . . . . . . . . . . . . . . . . ",
". . . . . . . . . . . . . . . . . . . . . . . . . . . . . . . . . . . . . . . . . . . . . . . . ",
". + + + + + + + + + + + - ; > , ' ) ! ~ { ] ^ / ( _ : < [ } | 1 # 2 3 4 5 6 7 8 9 0 a b c d e . ",
". + + + + + + + + + + - ; > , f ) ! ~ { ] ^ / ( _ : < [ } | 1 # 2 3 % 5 6 7 8 9 0 a b c d e g . ",
". + + + + + + + + + - ; > , f ) ! ~ { h / _ : [ | i i i i 1 # 2 3 % 5 6 7 8 j 0 a b c d e g k . ",
". + + + + + + + + - ; > , f ) ! ~ h l m n o p q r s t u v b 5 % % 5 6 7 8 j 0 a b c w e g k x . ",
". + + + + + + + y ; > , f ' ! ~ _ z A B C D E F G H I J K L M d 8 6 7 8 j 0 a b c w e g k x N . ",
". + + + + + + y ; > , f ' ! ~ O P Q R S T U V W X Y Z `  ...+.@.#.c j j 9 a b c w e g k x N $.. ",
". + + + + + y ; > , f ' ! ~ %.&.*.=.-.;.>.,.'.).!.~.{.].^./.(._.:.<.k a a b c w d g k x N [.}.. ",
". + + + + y - > , f ' ) ~ |.1.2.3.4.5.6.7.8.9.0.a.b.c.d.e.f.g.h.i.j.k.[.c c w d g k x N [.}.l.. ",
". + + + y - > , f ' ) ~ m.n.o.p.q.r.s.t.u.v.w.x.y.z.A.B.C.D.E.F.G.H.I.J.x w d g k x N [.}.l.K.. ",
". + + y - > , f ' ) ~ { L.M.N.O.P.Q.R.S.T.U.V.W.X.Y.Z.`. +.+++@+#+$+%+&+*+g e k x N [.$.l.K.=+. ",
". + y - ; , f ' ) ! { -+;+t >+,+'+)+!+~+{+]+^+^+/+^+(+_+:+<+[+}+|+1+2+3+4+K.x x N [.$.l.K.=+5+. ",
". y - ; , f ' ) ! { ] 6+7+8+9+0+a+b+c+d+^+^+^+^+/+^+^+^+e+f+g+h+i+j+k+l+m+J.}.N [.$.l.K.=+5+n+. ",
". - ; , f ' ) ! { h o+p+q+r+s+t+u+v+w+^+^+^+^+^+/+^+^+^+^+x+y+z+A+B+C+D+E+F+G+$.$.}.K.=+5+n+*+. ",
". ; > f ' ) ! ~ h ] H+I+J+K+L+M+N+O+P+^+^+^+^+^+/+^+^+^+Q+R+S+T+U+V+W+X+Y+Z+`+l.}.K.=+5+n+G+ @. ",
". > f ' ) ! ~ h ] ^ .@+@@@#@$@%@&@*@=@^+^+^+^+^+/+^+^+^+^+Q+-@;@>@,@'@)@!@~@{@=+K.=+5+n+G+ @]@. ",
". f ' ) ! ~ h ] ^ / ^@/@(@_@:@<@[@}@=@^+^+^+^+^+/+^+^+^+^+Q+|@1@2@3@4@5@6@7@8@n+=+5+n+G+ @]@#.. ",
". ' ) ! ~ { ] ^ / ( 9@0@a@b@c@d@e@f@g@^+^+^+^+^+/+^+^+^+^+Q+h@i@j@k@l@m@n@o@p@ @5+n+G+*+]@#.q@. ",
". ) ! ~ { ] ^ / ( _ r@s@t@u@v@w@x@y@z@^+^+^+^+^+/+^+^+^+^+Q+A@B@C@D@E@F@G@H@I@]@n+G+*+]@#.q@J@. ",
". ! ~ { ] ^ / ( _ : K@L@M@N@O@P@Q@R@g@^+^+^+^+^+/+^+^+^+^+^+S@T@U@V@W@X@Y@Z@I@#.G+*+]@#.q@J@`@. ",
". ~ { h ^ / ( _ : <  #.#+#@###$#%#&#P+^+^+^+^+^+/+^+^+^+^+*#=#-#;#>#,#'#)#!#p@#.*+ @#.q@J@`@~#. ",
". { h ^ / ( _ {#< [ ]#^#/#(#_#:#<#[#}#^+^+^+^+^+/+^+^+^+z@|#1#2#3#4#5#6#7#8#9##. @#.q@J@`@`+0#. ",
". h ^ / ( _ {#< [ } # a#b#c#d#e#e#f#g#h#^+^+^+^+/+^+^+z@i#j#k#l#m#n#o#p#q#r#{@#.#.q@J@`@`+0#s#. ",
". ] / ( _ {#< [ } | 1 t#u#v#w#x#y#z#A#B#C#D#^+^+/+^+E#F#G#H#I#J#K#L#M#N#O#P#Q##.q@J@`@`+0#s#Q#. ",
". / ( _ {#: [ } | i # 8 R#S#T#U#V#W#X#Y#Z#`# $.$+$@$#$$$%$&$*$=$-$;$>$,$'$)$`+q@J@`@`+~#s#Q#J.. ",
". ( _ {#: [ } | i 1 2 4 !$~${$]$^$/$($_$:$<$[$}$|$1$2$3$4$5$6$7$8$9$0$a$b$c$`@J@`@`+~#s#Q#J.d$. ",
". _ {#: [ } | i 1 2 3 % 9 e$f$g$h$i$d#j$k$l$m$n$o$p$q$r$s$t$u$v$w$x$y$z$A$`+J@`@`+~#s#Q#J.d$B$. ",
". {#: < } | i 1 2 3 % 4 6 d C$D$E$F$G$H$I$J$K$L$M$N$O$P$Q$R$S$T$U$V$W$F+Q#`@`@`+~#0#Q#J.d$B$X$. ",
". : < } | i 1 # 3 % 4 5 7 9 N Y$Z$`$ %.%+%@%#%$%%%&%*%=%-%;%>%,%'%W$)%d$`+`@`+~#0#Q#J.d$B$c${@. ",
". < } | i 1 # 3 % 4 5 6 8 j a [.X$!%~%{%]%^%/%(%_%:%<%[%}%|%1%2%z$F+d$`@`@`+~#0#Q#J.d$B$c${@k.. ",
". [ | i 1 # 3 % 4 5 6 8 j 9 0 c [.0#3%4%5%6%7%8%9%0%a%b%c%a$W$d%8@Q#`@`@`+~#0#s#J.d$B$c${@k.e%. ",
". | i 1 # 2 % 4 5 6 8 j 9 0 a c d N G+B$F+f%z$g%h%i%j%k%l%m%n%B$`+J@`@`+~#0#s#J.d$B$c$X$k.e%o%. ",
". i 1 # 2 % 4 5 6 7 j 9 0 a b w d e k l.G+J@d$X$c${@o%e%d$0#`@q@q@J@`+~#0#s#J.d$B$c$X$k.e%o%p%. ",
". 1 # 2 % 4 5 6 7 j 9 0 a b w d e g k N [.}.K.n+n+*+ @ @]@]@#.q@J@`+~#0#s#Q#d$B$c$X$k.e%o%p%4+. ",
". # 2 3 4 5 6 7 j 9 0 a b w d e g k N [.$.}.l.=+5+n+G+ @]@#.q@J@`+~#0#s#Q#d$B$c$X${@e%o%p%4+q%. ",
". . . . . . . . . . . . . . . . . . . . . . . . . . . . . . . . . . . . . . . . . . . . . . . . "};
