/* XPM */
static char * file_dot_m_xpm[] = {
"48 48 608 2",
"  	c None",
". 	c #000000",
"+ 	c #E5E5E5",
"@ 	c #AAAAAA",
"# 	c #717171",
"$ 	c #383838",
"% 	c #FFFFFF",
"& 	c #E2E2E2",
"* 	c #1C1C1C",
"= 	c #C6C6C6",
"- 	c #555555",
"; 	c #FDFDFD",
"> 	c #FCFCFC",
", 	c #FBFBFB",
"' 	c #FAFAFA",
") 	c #F8F8F8",
"! 	c #F7F7F7",
"~ 	c #F6F6F6",
"{ 	c #F5F5F5",
"] 	c #F4F4F4",
"^ 	c #F2F2F2",
"/ 	c #F1F1F1",
"( 	c #F0F0F0",
"_ 	c #EFEFEF",
": 	c #EEEEEE",
"< 	c #ECECEC",
"[ 	c #EBEBEB",
"} 	c #EAEAEA",
"| 	c #E9E9E9",
"1 	c #E8E8E8",
"2 	c #E6E6E6",
"3 	c #E4E4E4",
"4 	c #E3E3E3",
"5 	c #E1E1E1",
"6 	c #E0E0E0",
"7 	c #DFDFDF",
"8 	c #DEDEDE",
"9 	c #DDDDDD",
"0 	c #DBDBDB",
"a 	c #DADADA",
"b 	c #D9D9D9",
"c 	c #D8D8D8",
"d 	c #D7D7D7",
"e 	c #D5D5D5",
"f 	c #D4D4D4",
"g 	c #F9F9F9",
"h 	c #D3D3D3",
"i 	c #F3F3F3",
"j 	c #E7E7E7",
"k 	c #DCDCDC",
"l 	c #D2D2D2",
"m 	c #EAE9EA",
"n 	c #D6D2D6",
"o 	c #C5B3C5",
"p 	c #BC8FBC",
"q 	c #D27AD2",
"r 	c #DA74D9",
"s 	c #D872D7",
"t 	c #CB7DCB",
"u 	c #BE91BD",
"v 	c #BEAEBD",
"w 	c #C9C7C9",
"x 	c #D6D6D6",
"y 	c #D1D1D1",
"z 	c #FEFEFE",
"A 	c #D3C5D3",
"B 	c #CA91CA",
"C 	c #E468E3",
"D 	c #F34FF0",
"E 	c #F344F0",
"F 	c #F23DF0",
"G 	c #EE3EEB",
"H 	c #ED3FE9",
"I 	c #EF40E9",
"J 	c #EE41E4",
"K 	c #E747E0",
"L 	c #BF59BB",
"M 	c #A883A6",
"N 	c #B8B5B8",
"O 	c #D0D0D0",
"P 	c #E5E2E5",
"Q 	c #C5A0C5",
"R 	c #EE66EE",
"S 	c #F14CF0",
"T 	c #EC41E5",
"U 	c #E33EDC",
"V 	c #DD3BDA",
"W 	c #DD37D9",
"X 	c #D834D8",
"Y 	c #DB36D3",
"Z 	c #DB32D0",
"` 	c #DE37D0",
" .	c #E13AD7",
"..	c #E739DE",
"+.	c #E23BD7",
"@.	c #AA53A5",
"#.	c #9C8B9B",
"$.	c #C3C3C3",
"%.	c #CECECE",
"&.	c #E0DBE0",
"*.	c #D18ED1",
"=.	c #F153EF",
"-.	c #EC3FE9",
";.	c #E436D9",
">.	c #DC33D1",
",.	c #D832CD",
"'.	c #D732D0",
").	c #D635CF",
"!.	c #D333D5",
"~.	c #D330D2",
"{.	c #D632CE",
"].	c #DA35CE",
"^.	c #DB36D1",
"/.	c #DC35D3",
"(.	c #DD34D8",
"_.	c #DA32D3",
":.	c #AE3DA9",
"<.	c #8B708A",
"[.	c #B8B7B8",
"}.	c #CFCFCF",
"|.	c #CDCDCD",
"1.	c #E2DFE2",
"2.	c #D08BD0",
"3.	c #F052EE",
"4.	c #E73FE0",
"5.	c #DA38D6",
"6.	c #D831CF",
"7.	c #DC37CF",
"8.	c #D835C9",
"9.	c #C631BB",
"0.	c #C02FB6",
"a.	c #B62BB4",
"b.	c #B92EBB",
"c.	c #C530BF",
"d.	c #D034C7",
"e.	c #D936CE",
"f.	c #DA33D1",
"g.	c #DA31D4",
"h.	c #D932D2",
"i.	c #D436CC",
"j.	c #A837A3",
"k.	c #7E677D",
"l.	c #B4B4B4",
"m.	c #CCCCCC",
"n.	c #ECEBEC",
"o.	c #CA9ACA",
"p.	c #EE51EA",
"q.	c #E33FE1",
"r.	c #DA37D0",
"s.	c #D831CD",
"t.	c #D831CB",
"u.	c #C430BE",
"v.	c #9D2895",
"w.	c #631B5F",
"x.	c #5B215A",
"y.	c #4D2351",
"z.	c #59255D",
"A.	c #71226E",
"B.	c #952793",
"C.	c #BE2EBB",
"D.	c #D231C9",
"E.	c #D535D0",
"F.	c #DD36D5",
"G.	c #D834D0",
"H.	c #CC34C2",
"I.	c #90348B",
"J.	c #7C717B",
"K.	c #BABABA",
"L.	c #CBCBCB",
"M.	c #D9D3D9",
"N.	c #C36CC2",
"O.	c #C63CC6",
"P.	c #D135D1",
"Q.	c #D134CF",
"R.	c #CF33CB",
"S.	c #A628A2",
"T.	c #601B5F",
"U.	c #3B2A41",
"V.	c #3B5751",
"W.	c #528474",
"X.	c #58907C",
"Y.	c #588D7B",
"Z.	c #568277",
"`.	c #545F69",
" +	c #703476",
".+	c #AA2CA9",
"++	c #D234CC",
"@+	c #D733CF",
"#+	c #C92FBD",
"$+	c #91248C",
"%+	c #571F55",
"&+	c #6A4F69",
"*+	c #9C9B9C",
"=+	c #CACACA",
"-+	c #EFE7EE",
";+	c #DAB9D9",
">+	c #8B4B88",
",+	c #962993",
"'+	c #BA2DBA",
")+	c #A827A7",
"!+	c #4C2053",
"~+	c #38554E",
"{+	c #58947E",
"]+	c #65AB91",
"^+	c #67AF94",
"/+	c #65AD92",
"(+	c #65AC92",
"_+	c #5F9986",
":+	c #715B7F",
"<+	c #AC35A7",
"[+	c #B028AB",
"}+	c #6C1B66",
"|+	c #4C1A49",
"1+	c #5E2F5D",
"2+	c #AB46A9",
"3+	c #7B657A",
"4+	c #B0B0B0",
"5+	c #C9C9C9",
"6+	c #CEC1CE",
"7+	c #E960E9",
"8+	c #D455D1",
"9+	c #9B5D98",
"0+	c #7A3E79",
"a+	c #7F2879",
"b+	c #5F215D",
"c+	c #39544F",
"d+	c #5D9F87",
"e+	c #61A18A",
"f+	c #715C82",
"g+	c #501A51",
"h+	c #491E49",
"i+	c #883886",
"j+	c #E64BE1",
"k+	c #D63ACE",
"l+	c #7E3B7B",
"m+	c #878587",
"n+	c #C8C8C8",
"o+	c #F0EDF0",
"p+	c #C29CC2",
"q+	c #F14BEE",
"r+	c #E03FDB",
"s+	c #D33CCD",
"t+	c #B043AB",
"u+	c #853E82",
"v+	c #534E63",
"w+	c #5B9B84",
"x+	c #5F9885",
"y+	c #5D3260",
"z+	c #B23AB1",
"A+	c #E544E2",
"B+	c #E43ED9",
"C+	c #D333CB",
"D+	c #962990",
"E+	c #5D555D",
"F+	c #A4A4A4",
"G+	c #C7C7C7",
"H+	c #EDE4ED",
"I+	c #CC7BCA",
"J+	c #EE44E6",
"K+	c #D93BD5",
"L+	c #DA36D8",
"M+	c #D137CB",
"N+	c #893188",
"O+	c #5C857D",
"P+	c #67AE94",
"Q+	c #67B094",
"R+	c #66AF93",
"S+	c #8F7DA7",
"T+	c #DC36D8",
"U+	c #E038D9",
"V+	c #DA36D2",
"W+	c #D532CE",
"X+	c #A6289F",
"Y+	c #4A3449",
"Z+	c #8E8E8E",
"`+	c #BFBFBF",
" @	c #C5C5C5",
".@	c #EADCE9",
"+@	c #DB64D9",
"@@	c #E83EE3",
"#@	c #D63AD2",
"$@	c #D631D3",
"%@	c #B72BB5",
"&@	c #4F2A56",
"*@	c #5D9D85",
"=@	c #68AF95",
"-@	c #729F99",
";@	c #C14DC4",
">@	c #DF36D5",
",@	c #D936D2",
"'@	c #D534CD",
")@	c #A6279C",
"!@	c #4B2248",
"~@	c #797979",
"{@	c #B5B5B5",
"]@	c #C4C4C4",
"^@	c #D9D2D9",
"/@	c #E35BDE",
"(@	c #EA40E1",
"_@	c #DB39D1",
":@	c #DA31CD",
"<@	c #B12DA9",
"[@	c #4F3858",
"}@	c #64AA90",
"|@	c #72AC9C",
"1@	c #C860CE",
"2@	c #E539DB",
"3@	c #DD36D3",
"4@	c #D733D0",
"5@	c #BC2CB5",
"6@	c #5A1F58",
"7@	c #696969",
"8@	c #ADADAD",
"9@	c #D1CCD1",
"0@	c #DF50DA",
"a@	c #E53DE0",
"b@	c #D934D5",
"c@	c #D733D2",
"d@	c #B326AA",
"e@	c #554261",
"f@	c #65AC91",
"g@	c #67AF95",
"h@	c #71AE9C",
"i@	c #BE6BD1",
"j@	c #DD39D9",
"k@	c #D436CD",
"l@	c #D531CF",
"m@	c #B92BB3",
"n@	c #4F1A4D",
"o@	c #5E5E5E",
"p@	c #A7A7A7",
"q@	c #C2C2C2",
"r@	c #D5CFD4",
"s@	c #D052C7",
"t@	c #DF37D3",
"u@	c #DE34D4",
"v@	c #DA34D5",
"w@	c #BF2CB6",
"x@	c #5C3C65",
"y@	c #65AA90",
"z@	c #67B095",
"A@	c #73AF9E",
"B@	c #C968D6",
"C@	c #E43EDA",
"D@	c #D333CE",
"E@	c #D332CB",
"F@	c #AE28A6",
"G@	c #481847",
"H@	c #5A5A5A",
"I@	c #A3A3A3",
"J@	c #C1C1C1",
"K@	c #E0D4E0",
"L@	c #C05FBD",
"M@	c #E63FDD",
"N@	c #DC35D1",
"O@	c #D735D0",
"P@	c #D02EC7",
"Q@	c #823983",
"R@	c #62A08A",
"S@	c #7FB6AC",
"T@	c #E161E9",
"U@	c #E43FDF",
"V@	c #D634D3",
"W@	c #D332CF",
"X@	c #9A2698",
"Y@	c #3B183A",
"Z@	c #5C5C5C",
"`@	c #C0C0C0",
" #	c #E1DAE1",
".#	c #A26E9F",
"+#	c #DC38D2",
"@#	c #DA34D1",
"##	c #D531D2",
"$#	c #D434CE",
"%#	c #AD30A5",
"&#	c #657C81",
"*#	c #68B195",
"=#	c #9FA7C3",
"-#	c #ED47EA",
";#	c #DA3AD5",
">#	c #D937D1",
",#	c #D131C7",
"'#	c #862084",
")#	c #301D30",
"!#	c #646464",
"~#	c #BEBEBE",
"{#	c #EDEDED",
"]#	c #E4E2E3",
"^#	c #A58EA4",
"/#	c #CE3BC7",
"(#	c #DA35D3",
"_#	c #D632CD",
":#	c #D334CF",
"<#	c #C735C1",
"[#	c #824E8D",
"}#	c #66A28F",
"|#	c #77BFA7",
"1#	c #D175E1",
"2#	c #EA38E3",
"3#	c #D439D1",
"4#	c #D73AD2",
"5#	c #C531BB",
"6#	c #64195F",
"7#	c #2D252D",
"8#	c #727272",
"9#	c #AEAEAE",
"0#	c #BDBDBD",
"a#	c #C7B5C9",
"b#	c #B24AAD",
"c#	c #D932CF",
"d#	c #D737CE",
"e#	c #D537CF",
"f#	c #BA37BB",
"g#	c #87749B",
"h#	c #69AA94",
"i#	c #74BBA3",
"j#	c #BA95D4",
"k#	c #EC48EE",
"l#	c #DF34D5",
"m#	c #D536CE",
"n#	c #D135CD",
"o#	c #A92AA2",
"p#	c #3D123A",
"q#	c #393839",
"r#	c #848484",
"s#	c #BCBCBC",
"t#	c #D5D0D5",
"u#	c #986C96",
"v#	c #CD37C9",
"w#	c #D635D2",
"x#	c #DA37D2",
"y#	c #DE3AD4",
"z#	c #D930D0",
"A#	c #C043BE",
"B#	c #8978A2",
"C#	c #6FAD9A",
"D#	c #68B095",
"E#	c #6AB398",
"F#	c #81BDAF",
"G#	c #B79ED6",
"H#	c #EB55F0",
"I#	c #E338DC",
"J#	c #D738CC",
"K#	c #DB33CB",
"L#	c #CB2EC2",
"M#	c #6F1A6C",
"N#	c #251725",
"O#	c #535353",
"P#	c #989898",
"Q#	c #BBBBBB",
"R#	c #BEABBD",
"S#	c #984394",
"T#	c #CE36C2",
"U#	c #D934D3",
"V#	c #D533D3",
"W#	c #DD32D5",
"X#	c #DC36CF",
"Y#	c #D83ECF",
"Z#	c #C563CA",
"`#	c #9493B4",
" $	c #82AEAC",
".$	c #6EA496",
"+$	c #79B1A4",
"@$	c #88B5B4",
"#$	c #AEA7D1",
"$$	c #DD6FEC",
"%$	c #E943EB",
"&$	c #DB35DA",
"*$	c #D938D0",
"=$	c #D536CC",
"-$	c #D232C3",
";$	c #96238B",
">$	c #321030",
",$	c #312F31",
"'$	c #737373",
")$	c #A9A9A9",
"!$	c #D1D0D1",
"~$	c #917C90",
"{$	c #953292",
"]$	c #C82DC4",
"^$	c #D736D2",
"/$	c #D735CF",
"($	c #D838CF",
"_$	c #D836D6",
":$	c #DE36DC",
"<$	c #DC41E0",
"[$	c #DA4FDD",
"}$	c #5F2C61",
"|$	c #9C4AA0",
"1$	c #E95AEC",
"2$	c #F046ED",
"3$	c #EC3CE3",
"4$	c #DB35D1",
"5$	c #DB33CF",
"6$	c #D53BD6",
"7$	c #CE36C9",
"8$	c #A7289F",
"9$	c #481244",
"0$	c #221C22",
"a$	c #585858",
"b$	c #939393",
"c$	c #B7B7B7",
"d$	c #B9B9B9",
"e$	c #C3BFC3",
"f$	c #896588",
"g$	c #943091",
"h$	c #C733C1",
"i$	c #D432CF",
"j$	c #D633CC",
"k$	c #D832D3",
"l$	c #DC35D6",
"m$	c #C32FBB",
"n$	c #511A4F",
"o$	c #A03799",
"p$	c #EE3BE1",
"q$	c #E133D6",
"r$	c #D937CE",
"s$	c #D839CB",
"t$	c #DB30CB",
"u$	c #D335CB",
"v$	c #A42B9F",
"w$	c #491447",
"x$	c #221621",
"y$	c #464646",
"z$	c #818181",
"A$	c #ACACAC",
"B$	c #B8B8B8",
"C$	c #B7B2B7",
"D$	c #7D5D7B",
"E$	c #852B7E",
"F$	c #B12CAD",
"G$	c #D132C6",
"H$	c #D733CE",
"I$	c #D731D1",
"J$	c #D731D2",
"K$	c #B527B3",
"L$	c #521C50",
"M$	c #A73BA3",
"N$	c #EA3BDD",
"O$	c #DD34D1",
"P$	c #D536D0",
"Q$	c #D236CA",
"R$	c #CB2CBA",
"S$	c #93218D",
"T$	c #40113D",
"U$	c #1F161E",
"V$	c #414141",
"W$	c #767676",
"X$	c #B6B6B6",
"Y$	c #B2B0B2",
"Z$	c #746673",
"`$	c #652F64",
" %	c #8B2486",
".%	c #B12BA7",
"+%	c #C62FBF",
"@%	c #D031CB",
"#%	c #B82AB2",
"$%	c #4D1E4B",
"%%	c #A93FA5",
"&%	c #E139DB",
"*%	c #CE31C6",
"=%	c #B72CB6",
"-%	c #9C2499",
";%	c #631660",
">%	c #2D0F2C",
",%	c #211D21",
"'%	c #474747",
")%	c #A1A1A1",
"!%	c #837F83",
"~%	c #594758",
"{%	c #5B2757",
"]%	c #6E1E6B",
"^%	c #861E82",
"/%	c #90228A",
"(%	c #4C214A",
"_%	c #9D3E99",
":%	c #A62AA0",
"<%	c #7B1C76",
"[%	c #4B124A",
"}%	c #371136",
"|%	c #211720",
"1%	c #323132",
"2%	c #595959",
"3%	c #A2A0A2",
"4%	c #827A82",
"5%	c #575257",
"6%	c #463545",
"7%	c #3F263D",
"8%	c #4B374A",
"9%	c #694A68",
"0%	c #463645",
"a%	c #332C32",
"b%	c #2F2D2F",
"c%	c #464046",
"d%	c #959595",
"e%	c #B3B3B3",
"f%	c #919191",
"g%	c #7F7F7F",
"h%	c #8B8B8B",
"i%	c #888888",
"j%	c #7A7A7A",
"k%	c #7C7C7C",
"l%	c #8A8A8A",
"m%	c #9B9B9B",
"n%	c #ABABAB",
"o%	c #B2B2B2",
"p%	c #B1B1B1",
"q%	c #AFAFAF",
". . . . . . . . . . . . . . . . . . . . . . . . . . . . . . . . . . . . . . . . . . . . . . . . ",
". . . . . . . . . . . . . . . . . . . . . . . . . . . . . . . . . . . . . . . . . . . . . . . . ",
". . + + + + + + + . . . . . . . . . . . . . . . . . . . . . . . . . . . . . . . . . . . . . . . ",
". . + . . . . . + . . . . . . . . . . . . . . . . . . . . . . . . . . . . @ # $ @ . . @ # . . . ",
". . + . + + + . + . . . . . . . . . . . . . . . . . . . . . . . . . . . . % & % % & % % % # . . ",
". . + . . . . . + . . . . . . . . . . . . . . . . . . . . . . . . . . . . % & * # % # . = @ . . ",
". . + . + + + . + . . . . . . . . . . . . . . . . . . . . . . . . . . . . % @ . - % . . @ @ . . ",
". . + . . . . . + . . . . . . . . . . . . . . . . . . . . . . . . . . . . % @ . - % . . @ @ . . ",
". . + . + + + . + . . . . . . . . . . . . . . . . . . . . . . . . $ @ # . % @ . - % . . @ @ . . ",
". . + . . . . . + . . . . . . . . . . . . . . . . . . . . . . . . - % @ . % @ . - % . . @ @ . . ",
". . + + + + + + + . . . . . . . . . . . . . . . . . . . . . . . . . . . . . . . . . . . . . . . ",
". . . . . . . . . . . . . . . . . . . . . . . . . . . . . . . . . . . . . . . . . . . . . . . . ",
". . . . . . . . . . . . . . . . . . . . . . . . . . . . . . . . . . . . . . . . . . . . . . . . ",
". % % % % % % % % % % % ; > , ' ) ! ~ { ] ^ / ( _ : < [ } | 1 2 + 3 4 5 6 7 8 9 0 a b c d e f . ",
". % % % % % % % % % % ; > , ' g ! ~ { ] ^ / ( _ : < [ } | 1 2 + 3 4 & 6 7 8 9 0 a b c d e f h . ",
". % % % % % % % % % ; > , ' g ! ~ { ] i ( : < } 1 j j j j 2 + 3 4 & 6 7 8 9 k a b c d e f h l . ",
". % % % % % % % % ; > , ' g ! ~ { i m n o p q r s t u v w c 6 & & 6 7 8 9 k a b c d x f h l y . ",
". % % % % % % % z > , ' g ) ~ { : A B C D E F G H I J K L M N e 9 7 8 9 k a b c d x f h l y O . ",
". % % % % % % z > , ' g ) ~ { P Q R S T U V W X Y Z `  ...+.@.#.$.d k k 0 b c d x f h l y O %.. ",
". % % % % % z > , ' g ) ~ { &.*.=.-.;.>.,.'.).!.~.{.].^./.(._.:.<.[.l b b c d x e h l y O }.|.. ",
". % % % % z ; , ' g ) ! { 1.2.3.4.5.6.7.8.9.0.a.b.c.d.e.f.g.h.i.j.k.l.}.d d x e h l y O }.|.m.. ",
". % % % z ; , ' g ) ! { n.o.p.q.r.s.t.u.v.w.x.y.z.A.B.C.D.E.F.G.H.I.J.K.y x e h l y O }.|.m.L.. ",
". % % z ; , ' g ) ! { ] M.N.O.P.Q.R.S.T.U.V.W.X.Y.Z.`. +.+++@+#+$+%+&+*+= h f l y O }.%.m.L.=+. ",
". % z ; > ' g ) ! ~ ] -+;+u >+,+'+)+!+~+{+]+^+^+/+^+(+_+:+<+[+}+|+1+2+3+4+L.y y O }.%.m.L.=+5+. ",
". z ; > ' g ) ! ~ ] ^ 6+7+8+9+0+a+b+c+d+^+^+^+^+/+^+^+^+e+f+g+h+i+j+k+l+m+K.|.O }.%.m.L.=+5+n+. ",
". ; > ' g ) ! ~ ] i o+p+q+r+s+t+u+v+w+^+^+^+^+^+/+^+^+^+^+x+y+z+A+B+C+D+E+F+G+%.%.|.L.=+5+n+= . ",
". > , g ) ! ~ { i ^ H+I+J+K+L+M+N+O+P+^+^+^+^+^+/+^+^+^+Q+R+S+T+U+V+W+X+Y+Z+`+m.|.L.=+5+n+G+ @. ",
". , g ) ! ~ { i ^ / .@+@@@#@$@%@&@*@=@^+^+^+^+^+/+^+^+^+^+Q+-@;@>@,@'@)@!@~@{@=+L.=+5+n+G+ @]@. ",
". g ) ! ~ { i ^ / ( ^@/@(@_@:@<@[@}@=@^+^+^+^+^+/+^+^+^+^+Q+|@1@2@3@4@5@6@7@8@n+=+5+n+G+ @]@$.. ",
". ) ! ~ { ] ^ / ( _ 9@0@a@b@c@d@e@f@g@^+^+^+^+^+/+^+^+^+^+Q+h@i@j@k@l@m@n@o@p@ @5+n+G+= ]@$.q@. ",
". ! ~ { ] ^ / ( _ : r@s@t@u@v@w@x@y@z@^+^+^+^+^+/+^+^+^+^+Q+A@B@C@D@E@F@G@H@I@]@n+G+= ]@$.q@J@. ",
". ~ { ] ^ / ( _ : < K@L@M@N@O@P@Q@R@g@^+^+^+^+^+/+^+^+^+^+^+S@T@U@V@W@X@Y@Z@I@$.G+= ]@$.q@J@`@. ",
". { ] i / ( _ : < [  #.#+#@###$#%#&#P+^+^+^+^+^+/+^+^+^+^+*#=#-#;#>#,#'#)#!#p@$.=  @$.q@J@`@~#. ",
". ] i / ( _ : {#[ } ]#^#/#(#_#:#<#[#}#^+^+^+^+^+/+^+^+^+z@|#1#2#3#4#5#6#7#8#9#$. @$.q@J@`@`+0#. ",
". i / ( _ : {#[ } | + a#b#c#d#e#e#f#g#h#^+^+^+^+/+^+^+z@i#j#k#l#m#n#o#p#q#r#{@$.$.q@J@`@`+0#s#. ",
". ^ ( _ : {#[ } | 1 2 t#u#v#w#x#y#z#A#B#C#D#^+^+/+^+E#F#G#H#I#J#K#L#M#N#O#P#Q#$.q@J@`@`+0#s#Q#. ",
". ( _ : {#< } | 1 j + 9 R#S#T#U#V#W#X#Y#Z#`# $.$+$@$#$$$%$&$*$=$-$;$>$,$'$)$`+q@J@`@`+~#s#Q#K.. ",
". _ : {#< } | 1 j 2 3 5 !$~${$]$^$/$($_$:$<$[$}$|$1$2$3$4$5$6$7$8$9$0$a$b$c$`@J@`@`+~#s#Q#K.d$. ",
". : {#< } | 1 j 2 3 4 & 0 e$f$g$h$i$d#j$k$l$m$n$o$p$q$r$s$t$u$v$w$x$y$z$A$`+J@`@`+~#s#Q#K.d$B$. ",
". {#< [ | 1 j 2 3 4 & 5 7 e C$D$E$F$G$H$I$J$K$L$M$N$O$P$Q$R$S$T$U$V$W$F+Q#`@`@`+~#0#Q#K.d$B$X$. ",
". < [ | 1 j 2 + 4 & 5 6 8 0 O Y$Z$`$ %.%+%@%#%$%%%&%*%=%-%;%>%,%'%W$)%d$`+`@`+~#0#Q#K.d$B$c${@. ",
". [ | 1 j 2 + 4 & 5 6 7 9 k b }.X$!%~%{%]%^%/%(%_%:%<%[%}%|%1%2%z$F+d$`@`@`+~#0#Q#K.d$B$c${@l.. ",
". } 1 j 2 + 4 & 5 6 7 9 k 0 a d }.0#3%4%5%6%7%8%9%0%a%b%c%a$W$d%8@Q#`@`@`+~#0#s#K.d$B$c${@l.e%. ",
". 1 j 2 + 3 & 5 6 7 9 k 0 a b d e O G+B$F+f%z$g%h%i%j%k%l%m%n%B$`+J@`@`+~#0#s#K.d$B$c$X$l.e%o%. ",
". j 2 + 3 & 5 6 7 8 k 0 a b c x e f l m.G+J@d$X$c${@o%e%d$0#`@q@q@J@`+~#0#s#K.d$B$c$X$l.e%o%p%. ",
". 2 + 3 & 5 6 7 8 k 0 a b c x e f h l O }.|.L.n+n+=  @ @]@]@$.q@J@`+~#0#s#Q#d$B$c$X$l.e%o%p%4+. ",
". + 3 4 5 6 7 8 k 0 a b c x e f h l O }.%.|.m.=+5+n+G+ @]@$.q@J@`+~#0#s#Q#d$B$c$X${@e%o%p%4+q%. ",
". . . . . . . . . . . . . . . . . . . . . . . . . . . . . . . . . . . . . . . . . . . . . . . . "};
