/* XPM */
static char * file_link_xpm[] = {
"48 48 119 2",
"  	c None",
". 	c #000000",
"+ 	c #E5E5E5",
"@ 	c #FFFFFF",
"# 	c #FDFDFD",
"$ 	c #FCFCFC",
"% 	c #FBFBFB",
"& 	c #FAFAFA",
"* 	c #F8F8F8",
"= 	c #F7F7F7",
"- 	c #F6F6F6",
"; 	c #F5F5F5",
"> 	c #F4F4F4",
", 	c #F2F2F2",
"' 	c #F1F1F1",
") 	c #F0F0F0",
"! 	c #EFEFEF",
"~ 	c #EEEEEE",
"{ 	c #ECECEC",
"] 	c #EBEBEB",
"^ 	c #EAEAEA",
"/ 	c #E9E9E9",
"( 	c #E8E8E8",
"_ 	c #E6E6E6",
": 	c #E4E4E4",
"< 	c #E3E3E3",
"[ 	c #E1E1E1",
"} 	c #E0E0E0",
"| 	c #DFDFDF",
"1 	c #DEDEDE",
"2 	c #DDDDDD",
"3 	c #DBDBDB",
"4 	c #DADADA",
"5 	c #D9D9D9",
"6 	c #D8D8D8",
"7 	c #D7D7D7",
"8 	c #D5D5D5",
"9 	c #D4D4D4",
"0 	c #F9F9F9",
"a 	c #E2E2E2",
"b 	c #D3D3D3",
"c 	c #F3F3F3",
"d 	c #DCDCDC",
"e 	c #D2D2D2",
"f 	c #D6D6D6",
"g 	c #D1D1D1",
"h 	c #FEFEFE",
"i 	c #B2B2B2",
"j 	c #CCCCCC",
"k 	c #D0D0D0",
"l 	c #696969",
"m 	c #B0B0B0",
"n 	c #CECECE",
"o 	c #434343",
"p 	c #A0A0A0",
"q 	c #CFCFCF",
"r 	c #CDCDCD",
"s 	c #3D3D3D",
"t 	c #9D9D9D",
"u 	c #3C3C3C",
"v 	c #9C9C9C",
"w 	c #CBCBCB",
"x 	c #9B9B9B",
"y 	c #CACACA",
"z 	c #3B3B3B",
"A 	c #C9C9C9",
"B 	c #9A9A9A",
"C 	c #C8C8C8",
"D 	c #E7E7E7",
"E 	c #999999",
"F 	c #C6C6C6",
"G 	c #C7C7C7",
"H 	c #C5C5C5",
"I 	c #3A3A3A",
"J 	c #979797",
"K 	c #C4C4C4",
"L 	c #EDEDED",
"M 	c #969696",
"N 	c #C3C3C3",
"O 	c #393939",
"P 	c #C2C2C2",
"Q 	c #959595",
"R 	c #C1C1C1",
"S 	c #949494",
"T 	c #C0C0C0",
"U 	c #BEBEBE",
"V 	c #383838",
"W 	c #939393",
"X 	c #BFBFBF",
"Y 	c #BDBDBD",
"Z 	c #929292",
"` 	c #BCBCBC",
" .	c #919191",
"..	c #BBBBBB",
"+.	c #373737",
"@.	c #909090",
"#.	c #BABABA",
"$.	c #8F8F8F",
"%.	c #B9B9B9",
"&.	c #8E8E8E",
"*.	c #B8B8B8",
"=.	c #363636",
"-.	c #B6B6B6",
";.	c #8D8D8D",
">.	c #B7B7B7",
",.	c #B5B5B5",
"'.	c #A2A2A2",
").	c #111111",
"!.	c #090909",
"~.	c #080808",
"{.	c #070707",
"].	c #0E0E0E",
"^.	c #B4B4B4",
"/.	c #5C5C5C",
"(.	c #B3B3B3",
"_.	c #AEAEAE",
":.	c #9E9E9E",
"<.	c #B1B1B1",
"[.	c #AFAFAF",
". . . . . . . . . . . . . . . . . . . . . . . . . . . . . . . . . . . . . . . . . . . . . . . . ",
". . . . . . . . . . . . . . . . . . . . . . . . . . . . . . . . . . . . . . . . . . . . . . . . ",
". . . . + + + . . . . . . . . . . . . . . . . . . . . . . . . . . . . . . . . . . . . . . . . . ",
". . . . . . . . . . . . . . . . . . . . . . . . . . . . . . . . . . . . . . . . . . . . . . . . ",
". . . . + + + . . . . . . . . . . . . . . . . . . . . . . . . . . . . . . . . . . . . . . . . . ",
". . . . + + + . . . . . . . . . . . . . . . . . . . . . . . . . . . . . . . . . . . . . . . . . ",
". . . . . . . . . . . . . . . . . . . . . . . . . . . . . . . . . . . . . . . . . . . . . . . . ",
". . + + + + + + + . . . . . . . . . . . . . . . . . . . . . . . . . . . . . . . . . . . . . . . ",
". . . + + + + + . . . . . . . . . . . . . . . . . . . . . . . . . . . . . . . . . . . . . . . . ",
". . . . + + + . . . . . . . . . . . . . . . . . . . . . . . . . . . . . . . . . . . . . . . . . ",
". . . . . + . . . . . . . . . . . . . . . . . . . . . . . . . . . . . . . . . . . . . . . . . . ",
". . . . . . . . . . . . . . . . . . . . . . . . . . . . . . . . . . . . . . . . . . . . . . . . ",
". . . . . . . . . . . . . . . . . . . . . . . . . . . . . . . . . . . . . . . . . . . . . . . . ",
". @ @ @ @ @ @ @ @ @ @ @ # $ % & * = - ; > , ' ) ! ~ { ] ^ / ( _ + : < [ } | 1 2 3 4 5 6 7 8 9 . ",
". @ @ @ @ @ @ @ @ @ @ # $ % & 0 = - ; > , ' ) ! ~ { ] ^ / ( _ + : < a } | 1 2 3 4 5 6 7 8 9 b . ",
". @ @ @ @ @ @ @ @ @ # $ % & 0 = - ; > c ' ) ! ~ { ] ^ / ( _ + : < a } | 1 2 d 4 5 6 7 8 9 b e . ",
". @ @ @ @ @ @ @ @ # $ % & 0 = - . . . . . . . . . . . . . . . . . . 5 d 2 d 4 5 6 7 f 9 b e g . ",
". @ @ @ @ @ @ @ h $ % & 0 * - . . @ @ @ @ @ @ @ @ @ @ @ @ @ @ @ @ . i j 4 4 5 6 7 f 9 b e g k . ",
". @ @ @ @ @ @ h $ % & 0 * - . @ . @ @ @ @ @ @ @ @ @ @ @ @ @ @ @ @ . l m 9 5 6 7 f 9 b e g k n . ",
". @ @ @ @ @ h $ % & 0 * - . . . . @ @ @ @ @ @ @ @ @ @ @ @ @ @ @ @ . o p g 6 7 f 8 b e g k q r . ",
". @ @ @ @ h # % & 0 * = c . @ @ @ @ @ @ @ @ @ @ @ @ @ @ @ @ @ @ @ . s t k 7 f 8 b e g k q r j . ",
". @ @ @ h # % & 0 * = ; ~ . @ @ @ @ @ @ @ @ @ @ @ @ @ @ @ @ @ @ @ . u v q f 8 b e g k q r j w . ",
". @ @ h # % & 0 * = ; > ] . @ @ @ @ @ @ @ @ @ @ @ @ @ @ @ @ @ @ @ . u x n 8 9 e g k q n j w y . ",
". @ h # $ & 0 * = - > c / . @ @ @ @ @ @ @ @ @ @ @ @ @ @ @ @ @ @ @ . z x r 9 e g k q n j w y A . ",
". h # $ & 0 * = - > c , ( . @ @ @ @ @ @ @ @ @ @ @ @ @ @ @ @ @ @ @ . z B j e g k q n j w y A C . ",
". # $ & 0 * = - > c , ' D . @ @ @ @ @ @ @ @ @ @ @ @ @ @ @ @ @ @ @ . z E w g k q n r w y A C F . ",
". $ % 0 * = - ; c , ' ) + . @ @ @ @ @ @ @ @ @ @ @ @ @ @ @ @ @ @ @ . z E A k q n r w y A C G H . ",
". % 0 * = - ; c , ' ) ! : . @ @ @ @ @ @ @ @ @ @ @ @ @ @ @ @ @ @ @ . I J C q n r w y A C G H K . ",
". 0 * = - ; c , ' ) ! L < . @ @ @ @ @ @ @ @ @ @ @ @ @ @ @ @ @ @ @ . I M G n r j y A C G H K N . ",
". * = - ; > , ' ) ! L { a . @ @ @ @ @ @ @ @ @ @ @ @ @ @ @ @ @ @ @ . O M F r j y A C G F K N P . ",
". = - ; > , ' ) ! ~ { ] [ . @ @ @ @ @ @ @ @ @ @ @ @ @ @ @ @ @ @ @ . O Q H j y A C G F K N P R . ",
". - ; > , ' ) ! ~ { ] ^ } . @ @ @ @ @ @ @ @ @ @ @ @ @ @ @ @ @ @ @ . O S K w A C G F K N P R T . ",
". ; > c ' ) ! ~ { ] ^ / | . @ @ @ @ @ @ @ @ @ @ @ @ @ @ @ @ @ @ @ . O S N A C G F H N P R T U . ",
". > c ' ) ! ~ L ] ^ / ( 2 . @ @ @ @ @ @ @ @ @ @ @ @ @ @ @ @ @ @ @ . V W R C G F H N P R T X Y . ",
". c ' ) ! ~ L ] ^ / ( D d . @ @ @ @ @ @ @ @ @ @ @ @ @ @ @ @ @ @ @ . V Z T G F H N P R T X Y ` . ",
". , ) ! ~ L ] ^ / ( D + 3 . @ @ @ @ @ @ @ @ @ @ @ @ @ @ @ @ @ @ @ . V  .X F H K P R T X Y ` ... ",
". ) ! ~ L { ^ / ( D + : 4 . @ @ @ @ @ @ @ @ @ @ @ @ @ @ @ @ @ @ @ . +.@.X H K P R T X U ` ..#.. ",
". ! ~ L { ^ / ( D _ : < 4 . @ @ @ @ @ @ @ @ @ @ @ @ @ @ @ @ @ @ @ . +.$.U K P R T X U ` ..#.%.. ",
". ~ L { ^ / ( D _ : < a 5 . @ @ @ @ @ @ @ @ @ @ @ @ @ @ @ @ @ @ @ . +.&.Y N R T X U ` ..#.%.*.. ",
". L { ] / ( D _ : < a [ 6 . @ @ @ @ @ @ @ @ @ @ @ @ @ @ @ @ @ @ @ . =.&.` R T X U Y ..#.%.*.-.. ",
". { ] / ( D _ + < a [ } f . . . . . . . . . . . . . . . . . . . . . =.;.#.T X U Y ..#.%.*.>.,.. ",
". ] / ( D _ + < a [ } | f '.o ).!.~.~.~.~.~.~.~.~.~.~.{.{.{.{.{.{.].z &.%.X U Y ..#.%.*.>.,.^.. ",
". ^ ( D _ + < a [ } | 2 f m l o u z z z I I O O O V V V +.+.+.=.=.z /.E %.U Y ` #.%.*.>.,.^.(.. ",
". ( D _ + : a [ } | 2 d 5 A _.:.v B E E J M M Q S W Z  . .$.&.&.;.$.B m ` Y ` #.%.*.>.-.^.(.i . ",
". D _ + : a [ } | 1 d 3 4 7 e q n j w A C G F H N P R T X U Y ` ..#.#.` Y ` #.%.*.>.-.^.(.i <.. ",
". _ + : a [ } | 1 d 3 4 5 6 f 8 9 b e k q n r w y A C G H K N P R X U Y ` ..%.*.>.-.^.(.i <.m . ",
". + : < [ } | 1 d 3 4 5 6 f 8 9 b e k q n r j y A C G H K N P R X U Y ` ..%.*.>.-.,.(.i <.m [.. ",
". . . . . . . . . . . . . . . . . . . . . . . . . . . . . . . . . . . . . . . . . . . . . . . . "};
