/* XPM */
static char * file_dot_fig_xpm[] = {
"48 48 700 2",
"  	c None",
". 	c #000000",
"+ 	c #555555",
"@ 	c #FFFFFF",
"# 	c #AAAAAA",
"$ 	c #E5E5E5",
"% 	c #1C1C1C",
"& 	c #383838",
"* 	c #717171",
"= 	c #E2E2E2",
"- 	c #C6C6C6",
"; 	c #8D8D8D",
"> 	c #FDFDFD",
", 	c #FCFCFC",
"' 	c #FBFBFB",
") 	c #FAFAFA",
"! 	c #F8F8F8",
"~ 	c #F7F7F7",
"{ 	c #F6F6F6",
"] 	c #F5F5F5",
"^ 	c #F4F4F4",
"/ 	c #F2F2F2",
"( 	c #F1F1F1",
"_ 	c #F0F0F0",
": 	c #EFEFEF",
"< 	c #EEEEEE",
"[ 	c #ECECEC",
"} 	c #EBEBEB",
"| 	c #EAEAEA",
"1 	c #E9E9E9",
"2 	c #E8E8E8",
"3 	c #E6E6E6",
"4 	c #E4E4E4",
"5 	c #E3E3E3",
"6 	c #E1E1E1",
"7 	c #E0E0E0",
"8 	c #DFDFDF",
"9 	c #DEDEDE",
"0 	c #DDDDDD",
"a 	c #DBDBDB",
"b 	c #DADADA",
"c 	c #D9D9D9",
"d 	c #D8D8D8",
"e 	c #D7D7D7",
"f 	c #D5D5D5",
"g 	c #D4D4D4",
"h 	c #DFDFDE",
"i 	c #676761",
"j 	c #D3D3D3",
"k 	c #C1BFBF",
"l 	c #A6A3A3",
"m 	c #9C9393",
"n 	c #A29F9E",
"o 	c #B8B6B6",
"p 	c #7B7A68",
"q 	c #757216",
"r 	c #8E8E87",
"s 	c #C8C8C8",
"t 	c #CFCFCF",
"u 	c #DCDCDC",
"v 	c #D2D2D2",
"w 	c #CDCDCD",
"x 	c #786F6E",
"y 	c #482826",
"z 	c #571D18",
"A 	c #712C27",
"B 	c #76120A",
"C 	c #732E29",
"D 	c #571E19",
"E 	c #452522",
"F 	c #695F5E",
"G 	c #B3B3B3",
"H 	c #E7E7E7",
"I 	c #C5C5C0",
"J 	c #807B09",
"K 	c #C0B90C",
"L 	c #74722B",
"M 	c #8C8C8A",
"N 	c #A3A3A3",
"O 	c #D6D6D6",
"P 	c #D1D1D1",
"Q 	c #FEFEFE",
"R 	c #9F9B9B",
"S 	c #633F3C",
"T 	c #8B322B",
"U 	c #BC2F24",
"V 	c #D02013",
"W 	c #D01A0B",
"X 	c #CD180A",
"Y 	c #CA180B",
"Z 	c #C61D11",
"` 	c #B42D23",
" .	c #87312B",
"..	c #5B3937",
"+.	c #7C7777",
"@.	c #BDBDBD",
"#.	c #868345",
"$.	c #C3BC0C",
"%.	c #CAC40D",
"&.	c #A29D0C",
"*.	c #5D5B3B",
"=.	c #7D7D7D",
"-.	c #A8A8A8",
";.	c #D0D0D0",
">.	c #EDEDED",
",.	c #827877",
"'.	c #773732",
").	c #BA3227",
"!.	c #D22012",
"~.	c #D11A0C",
"{.	c #CF190C",
"].	c #CC190B",
"^.	c #C9170A",
"/.	c #C6170B",
"(.	c #C4170B",
"_.	c #C1180C",
":.	c #BE1D12",
"<.	c #AB2E26",
"[.	c #723430",
"}.	c #645958",
"|.	c #A9A9A9",
"1.	c #919079",
"2.	c #AFA912",
"3.	c #CAC40E",
"4.	c #C8C20E",
"5.	c #BBB50C",
"6.	c #7F7B13",
"7.	c #626151",
"8.	c #878787",
"9.	c #B6B6B6",
"0.	c #CECECE",
"a.	c #908B8A",
"b.	c #7D3B35",
"c.	c #C5271B",
"d.	c #D31C0E",
"e.	c #CD1A0B",
"f.	c #CB1A0C",
"g.	c #C9190C",
"h.	c #C5170B",
"i.	c #C3170C",
"j.	c #C0170C",
"k.	c #BE170C",
"l.	c #BB170C",
"m.	c #B91A0F",
"n.	c #AD241B",
"o.	c #773733",
"p.	c #635C5B",
"q.	c #828177",
"r.	c #939027",
"s.	c #C5BE0D",
"t.	c #C7C10E",
"u.	c #C3BD0C",
"v.	c #C0BA0D",
"w.	c #ADA80C",
"x.	c #66641C",
"y.	c #6B6B68",
"z.	c #939393",
"A.	c #BFBFBF",
"B.	c #C0BEBE",
"C.	c #69413D",
"D.	c #C32D21",
"E.	c #CF190B",
"F.	c #CC190C",
"G.	c #CA190C",
"H.	c #C7190C",
"I.	c #C5190C",
"J.	c #C2170B",
"K.	c #BF170C",
"L.	c #BC170C",
"M.	c #BA170D",
"N.	c #B8170D",
"O.	c #B5170D",
"P.	c #B3170E",
"Q.	c #A82720",
"R.	c #663B38",
"S.	c #524F2B",
"T.	c #B1AB11",
"U.	c #C6BF0E",
"V.	c #C2BC0C",
"W.	c #BFB90D",
"X.	c #BCB70D",
"Y.	c #B8B30D",
"Z.	c #93900B",
"`.	c #575631",
" +	c #777777",
".+	c #9F9F9F",
"++	c #CCCCCC",
"@+	c #594947",
"#+	c #B0352C",
"$+	c #D01B0D",
"%+	c #CD190C",
"&+	c #CB190C",
"*+	c #C6190C",
"=+	c #C4190D",
"-+	c #C2190D",
";+	c #B9170D",
">+	c #B6170D",
",+	c #B4170D",
"'+	c #B1160D",
")+	c #AF160E",
"!+	c #AD1810",
"~+	c #9A302B",
"{+	c #473125",
"]+	c #A39F21",
"^+	c #C1BB0E",
"/+	c #BEB90D",
"(+	c #BBB60D",
"_+	c #B8B40D",
":+	c #B5B10E",
"<+	c #AEAA0E",
"[+	c #74720E",
"}+	c #5F5F51",
"|+	c #7F7F7F",
"1+	c #ADADAD",
"2+	c #CBCBCB",
"3+	c #C9C7C7",
"4+	c #66332F",
"5+	c #CC1E11",
"6+	c #C3190D",
"7+	c #C0190D",
"8+	c #BD190D",
"9+	c #BA170C",
"0+	c #B2170D",
"a+	c #B0160E",
"b+	c #AE160E",
"c+	c #AB160E",
"d+	c #A9160E",
"e+	c #A61B13",
"f+	c #62302D",
"g+	c #7A742D",
"h+	c #B8B310",
"i+	c #BAB50D",
"j+	c #B7B30E",
"k+	c #B4B00E",
"l+	c #B1AD0E",
"m+	c #AEAB0E",
"n+	c #9F9C0D",
"o+	c #585812",
"p+	c #696964",
"q+	c #BABABA",
"r+	c #CACACA",
"s+	c #F9F9F9",
"t+	c #7A7474",
"u+	c #A13931",
"v+	c #B8190D",
"w+	c #B4180D",
"x+	c #B1170D",
"y+	c #AE160D",
"z+	c #AC150D",
"A+	c #A9150D",
"B+	c #A7150D",
"C+	c #A5150E",
"D+	c #A3150E",
"E+	c #A0150E",
"F+	c #9E150F",
"G+	c #9B150F",
"H+	c #84322E",
"I+	c #4C4125",
"J+	c #A7A30F",
"K+	c #ADA90D",
"L+	c #ABA70E",
"M+	c #A8A50E",
"N+	c #A7A50E",
"O+	c #AAA70F",
"P+	c #A7A50F",
"Q+	c #8E8D0E",
"R+	c #47461F",
"S+	c #747473",
"T+	c #999999",
"U+	c #C0C0C0",
"V+	c #C9C9C9",
"W+	c #392C2B",
"X+	c #BC261B",
"Y+	c #C71A0E",
"Z+	c #A2150C",
"`+	c #55110F",
" @	c #40191F",
".@	c #421C23",
"+@	c #401B22",
"@@	c #3E1B22",
"#@	c #3D1B22",
"$@	c #3C1A23",
"%@	c #3B1A23",
"&@	c #3A1A23",
"*@	c #381923",
"=@	c #371923",
"-@	c #361923",
";@	c #311925",
">@	c #1D1E2B",
",@	c #373C24",
"'@	c #383E23",
")@	c #373D23",
"!@	c #33381C",
"~@	c #53530A",
"{@	c #A3A110",
"]@	c #A09F10",
"^@	c #6F6F0B",
"/@	c #4F4F3F",
"(@	c #7B7B7B",
"_@	c #A6A6A6",
":@	c #C5C5C5",
"<@	c #2B1614",
"[@	c #C6271C",
"}@	c #C1190E",
"|@	c #BE190D",
"1@	c #BC190E",
"2@	c #96140B",
"3@	c #513241",
"4@	c #7482B6",
"5@	c #8396D3",
"6@	c #7F93D2",
"7@	c #7A91D2",
"8@	c #778FD2",
"9@	c #738DD3",
"0@	c #6F8BD3",
"a@	c #6B89D3",
"b@	c #6787D3",
"c@	c #6385D3",
"d@	c #5F83D3",
"e@	c #5C81D3",
"f@	c #587FD3",
"g@	c #547DD3",
"h@	c #507BD4",
"i@	c #4C79D4",
"j@	c #395EA7",
"k@	c #3A3F19",
"l@	c #9F9D10",
"m@	c #9F9E10",
"n@	c #9C9C11",
"o@	c #969611",
"p@	c #4C4C09",
"q@	c #63635D",
"r@	c #858585",
"s@	c #B2B2B2",
"t@	c #2A100E",
"u@	c #C22015",
"v@	c #C0190E",
"w@	c #BD190E",
"x@	c #BB190E",
"y@	c #B8190E",
"z@	c #93130C",
"A@	c #55374A",
"B@	c #8093D0",
"C@	c #91A9F0",
"D@	c #8CA6EF",
"E@	c #87A3EF",
"F@	c #83A1EF",
"G@	c #7F9FEF",
"H@	c #7A9DF0",
"I@	c #769BF0",
"J@	c #7198F0",
"K@	c #6D96F0",
"L@	c #6893F0",
"M@	c #6491F0",
"N@	c #5F8FF1",
"O@	c #5B8DF1",
"P@	c #568BF1",
"Q@	c #5288F1",
"R@	c #3D6ABF",
"S@	c #353B1C",
"T@	c #8E8E0F",
"U@	c #8F8E0F",
"V@	c #8C8C10",
"W@	c #8A8A10",
"X@	c #76760E",
"Y@	c #3E3E1B",
"Z@	c #6E6E6C",
"`@	c #909090",
" #	c #B9B9B9",
".#	c #C7C7C7",
"+#	c #3D302F",
"@#	c #B82A20",
"##	c #BC190D",
"$#	c #B9190E",
"%#	c #B7180E",
"&#	c #B5180F",
"*#	c #90130C",
"=#	c #52374A",
"-#	c #7B90D0",
";#	c #8CA6F0",
">#	c #82A0EF",
",#	c #7E9EEF",
"'#	c #799CF0",
")#	c #759AF0",
"!#	c #6C95F0",
"~#	c #6491F1",
"{#	c #5A8CF1",
"]#	c #568AF1",
"^#	c #5188F1",
"/#	c #4D86F2",
"(#	c #3967BF",
"_#	c #262C24",
":#	c #585827",
"<#	c #585828",
"[#	c #575728",
"}#	c #555528",
"|#	c #434327",
"1#	c #494947",
"2#	c #646464",
"3#	c #A0A0A0",
"4#	c #C4C4C4",
"5#	c #F3F3F3",
"6#	c #726B6B",
"7#	c #A0312A",
"8#	c #B8180E",
"9#	c #B6190E",
"0#	c #B4180E",
"a#	c #B1180F",
"b#	c #8D130C",
"c#	c #50364A",
"d#	c #778ED0",
"e#	c #86A3F0",
"f#	c #81A0EF",
"g#	c #7C9EEF",
"h#	c #789CF0",
"i#	c #7499F0",
"j#	c #6F97F0",
"k#	c #6B95F0",
"l#	c #6793F0",
"m#	c #6290F1",
"n#	c #5E8EF1",
"o#	c #558AF1",
"p#	c #5088F1",
"q#	c #4B85F2",
"r#	c #4783F2",
"s#	c #3565BF",
"t#	c #31353E",
"u#	c #373737",
"v#	c #393939",
"w#	c #3D3D3D",
"x#	c #3E3E3E",
"y#	c #3F3F3F",
"z#	c #404040",
"A#	c #494949",
"B#	c #444444",
"C#	c #818181",
"D#	c #C3C3C3",
"E#	c #BCBABA",
"F#	c #733631",
"G#	c #B51A10",
"H#	c #B2180F",
"I#	c #B0180F",
"J#	c #AE180F",
"K#	c #8B130D",
"L#	c #4E354A",
"M#	c #728CD0",
"N#	c #82A1F0",
"O#	c #7C9DEF",
"P#	c #779BF0",
"Q#	c #7399F0",
"R#	c #6E97F0",
"S#	c #6A95F0",
"T#	c #6692F0",
"U#	c #6190F1",
"V#	c #5D8EF1",
"W#	c #598BF1",
"X#	c #5489F1",
"Y#	c #5087F1",
"Z#	c #4782F2",
"`#	c #4280F2",
" $	c #3063BF",
".$	c #3A3F47",
"+$	c #0C0C0C",
"@$	c #1A1A1A",
"#$	c #2F2F2F",
"$$	c #3A3A3A",
"%$	c #4F4F4F",
"&$	c #C2C2C2",
"*$	c #57413F",
"=$	c #A92D26",
"-$	c #AF180F",
";$	c #AC1810",
">$	c #AA1810",
",$	c #88130D",
"'$	c #4B344A",
")$	c #6E8AD0",
"!$	c #7C9EF1",
"~$	c #6994F0",
"{$	c #6492F0",
"]$	c #608FF1",
"^$	c #5C8DF1",
"/$	c #578BF1",
"($	c #5389F1",
"_$	c #4F87F1",
":$	c #4A84F2",
"<$	c #4682F2",
"[$	c #4180F2",
"}$	c #3D7EF2",
"|$	c #2D61BF",
"1$	c #3C4048",
"2$	c #141414",
"3$	c #686868",
"4$	c #808080",
"5$	c #868686",
"6$	c #989898",
"7$	c #B5B5B5",
"8$	c #C1C1C1",
"9$	c #A4A1A1",
"0$	c #743E3B",
"a$	c #AC2018",
"b$	c #A91810",
"c$	c #A61810",
"d$	c #85130D",
"e$	c #49344B",
"f$	c #6987D0",
"g$	c #779BF1",
"h$	c #6391F1",
"i$	c #5289F1",
"j$	c #4E86F1",
"k$	c #4984F2",
"l$	c #4581F2",
"m$	c #417FF2",
"n$	c #3C7DF2",
"o$	c #387BF3",
"p$	c #295FC0",
"q$	c #3B4048",
"r$	c #4E4E4E",
"s$	c #B7B7B7",
"t$	c #B8B8B8",
"u$	c #706868",
"v$	c #88413D",
"w$	c #A41A13",
"x$	c #A21811",
"y$	c #81130E",
"z$	c #47334B",
"A$	c #6585D0",
"B$	c #7199F1",
"C$	c #6C96F0",
"D$	c #6792F1",
"E$	c #6390F1",
"F$	c #598CF1",
"G$	c #4C85F2",
"H$	c #4883F2",
"I$	c #4481F2",
"J$	c #3F7FF2",
"K$	c #3B7DF2",
"L$	c #367AF3",
"M$	c #3278F3",
"N$	c #245DC0",
"O$	c #565656",
"P$	c #BEBEBE",
"Q$	c #635655",
"R$	c #813C38",
"S$	c #9D241F",
"T$	c #7E1510",
"U$	c #44324B",
"V$	c #6082D1",
"W$	c #6B95F1",
"X$	c #5589F1",
"Y$	c #5087F2",
"Z$	c #4281F2",
"`$	c #3E7FF2",
" %	c #3A7CF2",
".%	c #3579F3",
"+%	c #3177F3",
"@%	c #2C75F3",
"#%	c #205AC0",
"$%	c #3A4048",
"%%	c #A1A1A1",
"&%	c #696565",
"*%	c #724745",
"=%	c #6E2623",
"-%	c #3F344E",
";%	c #5B80D1",
">%	c #6693F2",
",%	c #588BF1",
"'%	c #4F86F2",
")%	c #4B84F2",
"!%	c #387CF2",
"~%	c #3479F3",
"{%	c #3077F3",
"]%	c #2B75F3",
"^%	c #2772F3",
"/%	c #1B58C0",
"(%	c #3A3F48",
"_%	c #BCBCBC",
":%	c #9B9B9B",
"<%	c #727272",
"[%	c #514B4B",
"}%	c #353F5A",
"|%	c #567ED1",
"1%	c #6190F2",
"2%	c #4E86F2",
"3%	c #4582F2",
"4%	c #3D7DF2",
"5%	c #3379F3",
"6%	c #2F77F3",
"7%	c #2A74F3",
"8%	c #2672F3",
"9%	c #2170F4",
"0%	c #1756C0",
"a%	c #BBBBBB",
"b%	c #929292",
"c%	c #787878",
"d%	c #444F68",
"e%	c #517BD1",
"f%	c #5B8EF2",
"g%	c #407FF2",
"h%	c #377AF3",
"i%	c #3378F3",
"j%	c #2E76F3",
"k%	c #2571F3",
"l%	c #206FF4",
"m%	c #1C6DF4",
"n%	c #1354C1",
"o%	c #393F48",
"p%	c #545454",
"q%	c #9E9E9E",
"r%	c #A4A4A4",
"s%	c #58647B",
"t%	c #4D79D1",
"u%	c #568BF2",
"v%	c #4380F2",
"w%	c #3F7EF2",
"x%	c #2D76F3",
"y%	c #2973F3",
"z%	c #1C6CF4",
"A%	c #176AF4",
"B%	c #0E52C1",
"C%	c #393E48",
"D%	c #1B1B1B",
"E%	c #9D9D9D",
"F%	c #657089",
"G%	c #4976D2",
"H%	c #5188F3",
"I%	c #397CF2",
"J%	c #2873F3",
"K%	c #2371F3",
"L%	c #1F6FF3",
"M%	c #1B6CF4",
"N%	c #1669F4",
"O%	c #1267F4",
"P%	c #0A50C1",
"Q%	c #383E48",
"R%	c #535353",
"S%	c #9C9C9C",
"T%	c #6A7790",
"U%	c #4474D2",
"V%	c #4C85F3",
"W%	c #387CF3",
"X%	c #2B74F3",
"Y%	c #2270F3",
"Z%	c #1E6EF4",
"`%	c #1A6CF4",
" &	c #156AF4",
".&	c #1167F4",
"+&	c #0C65F4",
"@&	c #064EC1",
"#&	c #6B7891",
"$&	c #3F72D2",
"%&	c #4682F3",
"&&	c #377BF2",
"*&	c #2572F3",
"=&	c #2170F3",
"-&	c #1D6EF4",
";&	c #186BF4",
">&	c #1469F4",
",&	c #1067F4",
"'&	c #0B65F4",
")&	c #0762F4",
"!&	c #024CC1",
"~&	c #383E47",
"{&	c #5C6065",
"]&	c #0D182D",
"^&	c #0E1B34",
"/&	c #0C1933",
"(&	c #0B1933",
"_&	c #0A1933",
":&	c #091833",
"<&	c #081833",
"[&	c #071733",
"}&	c #061733",
"|&	c #051633",
"1&	c #041633",
"2&	c #031633",
"3&	c #021533",
"4&	c #011433",
"5&	c #001433",
"6&	c #001333",
"7&	c #000E28",
"8&	c #38393B",
"9&	c #525252",
"0&	c #9A9A9A",
"a&	c #B4B4B4",
"b&	c #0B0B0B",
"c&	c #090909",
"d&	c #1E1E1E",
"e&	c #707070",
"f&	c #3C3C3C",
"g&	c #3B3B3B",
"h&	c #464646",
"i&	c #AEAEAE",
"j&	c #969696",
"k&	c #959595",
"l&	c #949494",
"m&	c #919191",
"n&	c #8E8E8E",
"o&	c #B1B1B1",
"p&	c #B0B0B0",
"q&	c #AFAFAF",
". . . . . . . . . . . . . . . . . . . . . . . . . . . . . . . . . . . . . . . . . . . . . . . . ",
". . . . . . . . . . . . . . . . . . . . . . . . . . . . . . . . . + @ @ . @ # . . . . . . . . . ",
". . . . $ . $ . . . . . . . . . . . . . . . . . . . . . . . . . . # @ % . + & . . . . . . . . . ",
". . $ . . . . . $ . . . . . . . . . . . . . . . . . . . . . . . * = @ # . @ # . . * # * * * . . ",
". . . . $ $ $ . . . . . . . . . . . . . . . . . . . . . . . . . * = @ # . @ # . + @ @ @ = # . . ",
". . . $ . . . $ . . . . . . . . . . . . . . . . . . . . . . . . . # @ . . @ # . = @ % % @ # . . ",
". . $ . . $ . . $ . . . . . . . . . . . . . . . . . . . . . . . . # @ . . @ # . @ + . . # # . . ",
". . . $ . . . $ . . . . . . . . . . . . . . . . . . . . . . . . . # @ . . @ # . @ - . . = # . . ",
". . . . $ $ $ . . . . . . . . . . . . . . . . . . . . . . & # * . # @ . . @ # . - @ * * @ # . . ",
". . $ . . . . . $ . . . . . . . . . . . . . . . . . . . . + @ # . # @ . . @ # . % = @ = - # . . ",
". . . . $ . $ . . . . . . . . . . . . . . . . . . . . . . . . . . . . . . . . . # # . . = # . . ",
". . . . . . . . . . . . . . . . . . . . . . . . . . . . . . . . . . . . . . . . ; @ = = @ & . . ",
". . . . . . . . . . . . . . . . . . . . . . . . . . . . . . . . . . . . . . . . . . . . . . . . ",
". @ @ @ @ @ @ @ @ @ @ @ > , ' ) ! ~ { ] ^ / ( _ : < [ } | 1 2 3 $ 4 5 6 7 8 9 0 a b c d e f g . ",
". @ @ @ @ @ @ @ @ @ @ > , ' ) ! { ] ^ ^ / ( _ : < [ } | 1 h i 9 6 6 = 7 8 9 0 a b c d e f g j . ",
". @ @ @ @ @ @ @ @ @ > , ) ] $ k l m n o c 2 [ < [ } | 1 2 p q r s t b 8 9 0 u b c d e f g j v . ",
". @ @ @ @ @ @ @ @ > ' { w x y z A B C D E F G a 5 H 1 2 I J K L M N s b 0 u b c d e O g j v P . ",
". @ @ @ @ @ @ @ Q ' } R S T U V W X Y Z `  ...+.@.O 6 0 #.$.%.&.*.=.-.t b b c d e O g j v P ;.. ",
". @ @ @ @ @ @ Q ' >.,.'.).!.~.{.].^./.(._.:.<.[.}.|.s 1.2.3.4.5.6.7.8.9.v d d e O g j v P ;.0.. ",
". @ @ @ @ @ Q , { a.b.c.d.W e.f.g.h.i.j.k.l.m.n.o.p.q.r.s.t.u.v.w.x.y.z.A.v e O f j v P ;.t w . ",
". @ @ @ @ Q > ) B.C.D.~.E.F.G.H.I.J.K.L.M.N.O.P.Q.R.S.T.U.V.W.X.Y.Z.`. +.+- j f j v P ;.t w ++. ",
". @ @ @ Q > ' ^ @+#+$+%+&+g.*+=+-+k.l.;+>+,+'+)+!+~+{+]+^+/+(+_+:+<+[+}+|+1+2+v v P ;.t w ++2+. ",
". @ @ Q > ' ) 3+4+5+F.G.H.I.6+7+8+9+N.O.0+a+b+c+d+e+f+g+h+i+j+k+l+m+n+o+p+; q+w P ;.t 0.++2+r+. ",
". @ Q > , ) s+t+u+&+g.*+6+7+v+w+x+y+z+A+B+C+D+E+F+G+H+I+J+K+L+M+N+O+P+Q+R+S+T+U+w t 0.++2+r+V+. ",
". Q > , ) s+! W+X+Y+=+-+7+Z+`+ @.@+@@@#@$@%@&@*@=@-@;@>@,@'@)@!@~@{@{@]@^@/@(@_@:@w ++2+r+V+s . ",
". > , ) s+! ~ <@[@6+}@|@1@2@3@4@5@6@7@8@9@0@a@b@c@d@e@f@g@h@i@j@k@l@m@n@o@p@q@r@s@s 2+r+V+s - . ",
". , ' s+! ~ { t@u@v@w@x@y@z@A@B@C@D@E@F@G@H@I@J@K@L@M@N@O@P@Q@R@S@T@U@V@W@X@Y@Z@`@ #.#V+s .#:@. ",
". ' s+! ~ { ] +#@###$#%#&#*#=#-#;#E@>#,#'#)#J@!#L@~#N@{#]#^#/#(#_#:#<#<#[#}#|#1#2#3#A..#.#:@4#. ",
". s+! ~ { ] 5#6#7#8#9#0#a#b#c#d#e#f#g#h#i#j#k#l#m#n#{#o#p#q#r#s#t#u#v#w#x#y#z#A#B#C#s@4#:@4#D#. ",
". ! ~ { ] ^ / E#F#G#H#I#J#K#L#M#N#O#P#Q#R#S#T#U#V#W#X#Y#q#Z#`# $.$+$@$#$& v#$$w#%$(@1+&$4#D#&$. ",
". ~ { ] ^ / ( 3 *$=$-$;$>$,$'$)$!$I@J@K@~${$]$^$/$($_$:$<$[$}$|$1$2$& 3$|+C#C#4$5$6$7$&$D#&$8$. ",
". { ] ^ / ( _ } 9$0$a$b$c$d$e$f$g$J@K@L@h$N@O@P@i$j$k$l$m$n$o$p$q$@$r$z.s@s$7$7$7$t$A.D#&$8$U+. ",
". ] ^ 5#( _ : [ e u$v$w$x$y$z$A$B$C$D$E$n#F$o#^#G$H$I$J$K$L$M$N$q$% O$3#D#- :@4#4#D#D#&$8$U+P$. ",
". ^ 5#( _ : < >.6 @.Q$R$S$T$U$V$W$T#m#V#F$X$Y$q#r#Z$`$ %.%+%@%#%$%% O$%%D#s .#- :@D#&$8$U+A.@.. ",
". 5#( _ : < >.} H g # &%*%=%-%;%>%U#^$,%($'%)%<$[$}$!%~%{%]%^%/%(%% + 3#&$.#- :@D#&$8$U+A.@._%. ",
". / _ : < >.} | 1 6 .#:%<%[%}%|%1%O@/$Q@2%:$3%[$4%o$5%6%7%8%9%0%(%% + .+8$- :@4#&$8$U+A.@._%a%. ",
". _ : < >.[ | 1 2 3 a P$b%c%d%e%f%]#^#/#H$I$g%K$h%i%j%7%k%l%m%n%o%% p%q%U+:@4#&$8$U+A.P$_%a%q+. ",
". : < >.[ | 1 2 H 3 = c &$r%s%t%u%p#G$r#v%w% %L$M$x%y%k%l%z%A%B%C%D%p%E%A.4#&$8$U+A.P$_%a%q+ #. ",
". < >.[ | 1 2 H 3 4 5 6 b 2+F%G%H%q#Z#`#}$I%.%{%@%J%K%L%M%N%O%P%Q%D%R%S%P$D#8$U+A.P$_%a%q+ #t$. ",
". >.[ } 1 2 H 3 4 5 = 6 7 e T%U%V%<$`#}$W%~%6%X%^%Y%Z%`% &.&+&@&Q%D%R%S%@.8$U+A.P$@.a%q+ #t$9.. ",
". [ } 1 2 H 3 $ 5 = 6 7 9 b #&$&%&m$n$&&5%j%7%*&=&-&;&>&,&'&)&!&~&D%R%:%a%U+A.P$@.a%q+ #t$s$7$. ",
". } 1 2 H 3 $ 5 = 6 7 8 0 c {&]&^&/&(&_&:&<&[&}&|&1&2&3&4&5&6&7&8&D%9&0&q+A.P$@.a%q+ #t$s$7$a&. ",
". | 2 H 3 $ 5 = 6 7 8 0 u b 2+0&r$@$b&c&c&c&c&c&c&c&c&c&c&c&c&c&b&d&O$0& #P$@._%q+ #t$s$7$a&G . ",
". 2 H 3 $ 4 = 6 7 8 0 u a c w -.e&A#w#f&g&$$$$$$v#v#v#& & u#u#u#v#h&e&N q+@._%q+ #t$s$9.a&G s@. ",
". H 3 $ 4 = 6 7 8 9 u a b c j 4#i&.+T+6$j&j&k&l&z.b%m&m&`@n&n&; ; b%%%G a%_%q+ #t$s$9.a&G s@o&. ",
". 3 $ 4 = 6 7 8 9 u a b c d O j t ++2+V+.#- :@D#&$8$U+A.P$@._%a%q+ #q+_%_%a% #t$s$9.a&G s@o&p&. ",
". $ 4 5 6 7 8 9 u a b c d O f g j v ;.t 0.w ++r+V+s .#:@4#D#&$8$A.P$@._%a% #t$s$9.7$G s@o&p&q&. ",
". . . . . . . . . . . . . . . . . . . . . . . . . . . . . . . . . . . . . . . . . . . . . . . . "};
