/* XPM */
static char * file_core_xpm[] = {
"48 48 463 2",
"  	c None",
". 	c #000000",
"+ 	c #E5E5E5",
"@ 	c #717171",
"# 	c #AAAAAA",
"$ 	c #383838",
"% 	c #E2E2E2",
"& 	c #FFFFFF",
"* 	c #555555",
"= 	c #1C1C1C",
"- 	c #C6C6C6",
"; 	c #8D8D8D",
"> 	c #FDFDFD",
", 	c #FCFCFC",
"' 	c #FBFBFB",
") 	c #FAFAFA",
"! 	c #F8F8F8",
"~ 	c #F7F7F7",
"{ 	c #F6F6F6",
"] 	c #F5F5F5",
"^ 	c #F4F4F4",
"/ 	c #F2F2F2",
"( 	c #F1F1F1",
"_ 	c #F0F0F0",
": 	c #EFEFEF",
"< 	c #EEEEEE",
"[ 	c #ECECEC",
"} 	c #EBEBEB",
"| 	c #EAEAEA",
"1 	c #E9E9E9",
"2 	c #E8E8E8",
"3 	c #E6E6E6",
"4 	c #E4E4E4",
"5 	c #E3E3E3",
"6 	c #E1E1E1",
"7 	c #E0E0E0",
"8 	c #DFDFDF",
"9 	c #DEDEDE",
"0 	c #DDDDDD",
"a 	c #DBDBDB",
"b 	c #DADADA",
"c 	c #D9D9D9",
"d 	c #D8D8D8",
"e 	c #D7D7D7",
"f 	c #D5D5D5",
"g 	c #D4D4D4",
"h 	c #F9F9F9",
"i 	c #DEDDDC",
"j 	c #BCB087",
"k 	c #BAB08C",
"l 	c #D8D8D6",
"m 	c #D9D9D7",
"n 	c #D3D3D3",
"o 	c #EDEDED",
"p 	c #D2D1CC",
"q 	c #D1D0CA",
"r 	c #BAB08F",
"s 	c #D4C08B",
"t 	c #D5B77E",
"u 	c #D7B980",
"v 	c #D7B57A",
"w 	c #D7BD86",
"x 	c #B7B099",
"y 	c #DCDCDC",
"z 	c #D2D2D2",
"A 	c #BBB49D",
"B 	c #D2BE87",
"C 	c #CCB57D",
"D 	c #C2A66B",
"E 	c #CCAA6F",
"F 	c #CDAA6E",
"G 	c #D0B87F",
"H 	c #D7C088",
"I 	c #B0A88D",
"J 	c #D5D5D4",
"K 	c #BDBAAE",
"L 	c #BFBCB3",
"M 	c #D6D6D6",
"N 	c #D1D1D1",
"O 	c #FEFEFE",
"P 	c #BCB39A",
"Q 	c #C1A36A",
"R 	c #BF9E64",
"S 	c #C1A268",
"T 	c #C7A96E",
"U 	c #D3AD70",
"V 	c #D0AA6F",
"W 	c #D6AC71",
"X 	c #D8C18B",
"Y 	c #AEA687",
"Z 	c #B4AF9C",
"` 	c #D8BE87",
" .	c #CBBB88",
"..	c #B2AD9A",
"+.	c #B3AE9C",
"@.	c #B9B6AD",
"#.	c #D0D0D0",
"$.	c #BCB596",
"%.	c #D5C18C",
"&.	c #BC9255",
"*.	c #B58042",
"=.	c #BE9457",
"-.	c #C0A167",
";.	c #D0B277",
">.	c #D8B87F",
",.	c #D9B276",
"'.	c #D7C690",
").	c #AE9D62",
"!.	c #D0B57D",
"~.	c #B09D5B",
"{.	c #D8C691",
"].	c #BBAB72",
"^.	c #CBCBCB",
"/.	c #CECECE",
"(.	c #BCB494",
"_.	c #CDB87E",
":.	c #CBB47C",
"<.	c #C1A56A",
"[.	c #BC9455",
"}.	c #9D723A",
"|.	c #956C36",
"1.	c #A97A3C",
"2.	c #AE8443",
"3.	c #BC9C63",
"4.	c #C7AB74",
"5.	c #C7A068",
"6.	c #D5B57C",
"7.	c #D9B982",
"8.	c #65635B",
"9.	c #D8C48F",
"0.	c #CFB176",
"a.	c #A8884B",
"b.	c #D8C28D",
"c.	c #C2AA76",
"d.	c #AA9E75",
"e.	c #ADA99A",
"f.	c #CFCFCF",
"g.	c #CDCDCD",
"h.	c #BDB28E",
"i.	c #C9B17A",
"j.	c #BFA368",
"k.	c #AB8542",
"l.	c #A6773B",
"m.	c #A2753B",
"n.	c #8A6531",
"o.	c #997036",
"p.	c #BB8846",
"q.	c #C3975E",
"r.	c #CBA76E",
"s.	c #A67D3C",
"t.	c #D8B77F",
"u.	c #CBB37A",
"v.	c #CFB074",
"w.	c #D4BA81",
"x.	c #D1B67C",
"y.	c #C1AA75",
"z.	c #AAA696",
"A.	c #CCCCCC",
"B.	c #BEB28A",
"C.	c #C6AF77",
"D.	c #AA8543",
"E.	c #A68141",
"F.	c #A98040",
"G.	c #AA7B3D",
"H.	c #9A6F37",
"I.	c #BC8947",
"J.	c #B18040",
"K.	c #BC8A49",
"L.	c #BF9A60",
"M.	c #BF955A",
"N.	c #C9A86E",
"O.	c #C39860",
"P.	c #D1AB70",
"Q.	c #D0AB71",
"R.	c #CAB279",
"S.	c #C7AF74",
"T.	c #C5A76E",
"U.	c #A4986C",
"V.	c #B5B5B5",
"W.	c #BEB387",
"X.	c #C5AE78",
"Y.	c #A98442",
"Z.	c #8C6733",
"`.	c #976F36",
" +	c #8E6633",
".+	c #B08041",
"++	c #BE8A4D",
"@+	c #BE9355",
"#+	c #BE8B4F",
"$+	c #BF9052",
"%+	c #D8AE73",
"&+	c #D5AE70",
"*+	c #BE995F",
"=+	c #C3A76C",
"-+	c #CCAD71",
";+	c #C5AB75",
">+	c #9B947B",
",+	c #BEBEBE",
"'+	c #CACACA",
")+	c #BDA76A",
"!+	c #8B6632",
"~+	c #AC7C3D",
"{+	c #CBA068",
"]+	c #D3A96E",
"^+	c #C08E53",
"/+	c #D5AB70",
"(+	c #D4AA6F",
"_+	c #D7AD72",
":+	c #D8AF75",
"<+	c #97835C",
"[+	c #A8A8A8",
"}+	c #C8C8C8",
"|+	c #C9C9C9",
"1+	c #F3F3F3",
"2+	c #B6A375",
"3+	c #A27E40",
"4+	c #BD894C",
"5+	c #BF8D52",
"6+	c #D2A86D",
"7+	c #D9AF74",
"8+	c #D9B77C",
"9+	c #D9BA80",
"0+	c #D0BC89",
"a+	c #999276",
"b+	c #BCBCBC",
"c+	c #E1E1E0",
"d+	c #B6A06C",
"e+	c #9F7B3C",
"f+	c #D7AA70",
"g+	c #C08F55",
"h+	c #D7AE73",
"i+	c #D9B87E",
"j+	c #D9BC84",
"k+	c #8E835E",
"l+	c #A4A4A4",
"m+	c #C4C4C4",
"n+	c #BFB79A",
"o+	c #D5C48E",
"p+	c #BBB187",
"q+	c #CBC9C4",
"r+	c #AB8B5D",
"s+	c #976D36",
"t+	c #BD8B4A",
"u+	c #CEA36B",
"v+	c #C2985D",
"w+	c #D8B379",
"x+	c #D8BF89",
"y+	c #D9B880",
"z+	c #D9BD86",
"A+	c #817447",
"B+	c #858585",
"C+	c #BABABA",
"D+	c #C7C7C7",
"E+	c #C5C5C5",
"F+	c #BCB597",
"G+	c #CDB67E",
"H+	c #C6AC73",
"I+	c #A47C3D",
"J+	c #AF7F40",
"K+	c #C89D65",
"L+	c #C6A86D",
"M+	c #BE9055",
"N+	c #7B6D3C",
"O+	c #787878",
"P+	c #B6B6B6",
"Q+	c #BBB7A6",
"R+	c #BFA86A",
"S+	c #BA8D4D",
"T+	c #B78442",
"U+	c #BE8F53",
"V+	c #C2965D",
"W+	c #D7AB71",
"X+	c #D8B276",
"Y+	c #D9BF86",
"Z+	c #B9A86D",
"`+	c #615731",
" @	c #777777",
".@	c #C3C3C3",
"+@	c #A5956E",
"@@	c #B48241",
"#@	c #D5A86E",
"$@	c #D7AF75",
"%@	c #B7A566",
"&@	c #514619",
"*@	c #313131",
"=@	c #7E7E7E",
"-@	c #C2C2C2",
";@	c #AEA17B",
">@	c #B88E4B",
",@	c #936B36",
"'@	c #9B7038",
")@	c #CBA66C",
"!@	c #D8AF74",
"~@	c #897530",
"{@	c #1F1F1F",
"]@	c #545454",
"^@	c #969696",
"/@	c #C1C1C1",
"(@	c #E7E7E7",
"_@	c #B5B2A5",
":@	c #BEA968",
"<@	c #C4A76F",
"[@	c #A37B3C",
"}@	c #9C7139",
"|@	c #BE955B",
"1@	c #CBA96E",
"2@	c #C59B64",
"3@	c #D8B077",
"4@	c #B49F58",
"5@	c #4B421D",
"6@	c #464646",
"7@	c #878787",
"8@	c #B2B2B2",
"9@	c #C0C0C0",
"0@	c #8F8B79",
"a@	c #6E6136",
"b@	c #997035",
"c@	c #926A35",
"d@	c #BD9356",
"e@	c #D8C08B",
"f@	c #978439",
"g@	c #2A2A2A",
"h@	c #6E6E6E",
"i@	c #ABABAB",
"j@	c #676767",
"k@	c #524838",
"l@	c #4B3A1F",
"m@	c #322611",
"n@	c #B39045",
"o@	c #BA9A5B",
"p@	c #291D09",
"q@	c #2C1F0B",
"r@	c #2C200C",
"s@	c #624C1B",
"t@	c #BA9451",
"u@	c #A4793B",
"v@	c #BA8B49",
"w@	c #D0A86E",
"x@	c #D8BF86",
"y@	c #D8B277",
"z@	c #B6A25D",
"A@	c #4C4113",
"B@	c #3C371C",
"C@	c #4C4C4C",
"D@	c #919191",
"E@	c #BFBFBF",
"F@	c #BDBDBD",
"G@	c #B4B4B4",
"H@	c #8B8B8B",
"I@	c #5C5C5C",
"J@	c #3D3D3D",
"K@	c #4A432F",
"L@	c #3E351D",
"M@	c #181818",
"N@	c #343434",
"O@	c #383530",
"P@	c #7C6631",
"Q@	c #BEA065",
"R@	c #BC9353",
"S@	c #BD975A",
"T@	c #D4B077",
"U@	c #5F4213",
"V@	c #2A1E09",
"W@	c #34250D",
"X@	c #34270D",
"Y@	c #372D0D",
"Z@	c #36280C",
"`@	c #372E0F",
" #	c #2B2610",
".#	c #1B1B1B",
"+#	c #3C3C3C",
"@#	c #757575",
"##	c #9F9F9F",
"$#	c #848484",
"%#	c #5B5B5B",
"&#	c #5A5A5A",
"*#	c #818181",
"=#	c #959595",
"-#	c #837256",
";#	c #C49B65",
">#	c #C69C65",
",#	c #C8AC75",
"'#	c #D6C490",
")#	c #6A581C",
"!#	c #15130F",
"~#	c #252525",
"{#	c #333333",
"]#	c #353535",
"^#	c #828282",
"/#	c #A5A5A5",
"(#	c #BBBBBB",
"_#	c #B8B8B8",
":#	c #B7B7B7",
"<#	c #9D907E",
"[#	c #BF975E",
"}#	c #CEB97F",
"|#	c #D8B982",
"1#	c #624A1E",
"2#	c #767676",
"3#	c #939393",
"4#	c #989898",
"5#	c #979797",
"6#	c #999999",
"7#	c #A7A7A7",
"8#	c #A99D88",
"9#	c #C79D66",
"0#	c #C9AD78",
"a#	c #DCD4AE",
"b#	c #726D3B",
"c#	c #6B6B6B",
"d#	c #ACACAC",
"e#	c #B9B9B9",
"f#	c #A59C88",
"g#	c #BF9B62",
"h#	c #C6AA73",
"i#	c #C1B884",
"j#	c #646139",
"k#	c #7D7D7D",
"l#	c #BB985A",
"m#	c #BB8D4C",
"n#	c #C3A56C",
"o#	c #65531E",
"p#	c #BCBBB9",
"q#	c #A69065",
"r#	c #BA9453",
"s#	c #B9995C",
"t#	c #D2B880",
"u#	c #AA954B",
"v#	c #64624D",
"w#	c #BEBDBB",
"x#	c #A89164",
"y#	c #BE985B",
"z#	c #BA9657",
"A#	c #BE9B63",
"B#	c #D8B880",
"C#	c #DBC38F",
"D#	c #897F5F",
"E#	c #A49065",
"F#	c #BFA166",
"G#	c #B7924A",
"H#	c #CFB47D",
"I#	c #E2D1A8",
"J#	c #857B55",
"K#	c #B3B3B3",
"L#	c #9E9C97",
"M#	c #766946",
"N#	c #554622",
"O#	c #453112",
"P#	c #594618",
"Q#	c #70682A",
"R#	c #514F3A",
"S#	c #727272",
"T#	c #414141",
"U#	c #303030",
"V#	c #2D2D2D",
"W#	c #4D4D4D",
"X#	c #8C8C8C",
"Y#	c #B1B1B1",
"Z#	c #A9A9A9",
"`#	c #909090",
" $	c #868686",
".$	c #B0B0B0",
"+$	c #AFAFAF",
". . . . . . . . . . . . . . . . . . . . . . . . . . . . . . . . . . . . . . . . . . . . . . . . ",
". . . . . . . . . . . . . . . . . . . . . . . . . . . . . . . . . . . . . . . . . . . . . . . . ",
". . + + + + + + + . . . . . . . . . . . . . . . . . . . . . . . . . . . . . . . . . . . . . . . ",
". . + . . . . . + . . . . . . . . . . . . . . @ # $ . . . . # # $ . . $ # $ $ $ . . # # . . . . ",
". . + . . . . . + . . . . . . . . . . . . . % & & & $ . * & & & & * . * & # & * * & & & % = . . ",
". . + . + . + . + . . . . . . . . . . . . @ % * . % # . % & = . - % $ * & % * = % - = = & ; . . ",
". . + . . + . . + . . . . . . . . . . . . # # . . . . . & * . . * & * * & @ . . & & & & & # . . ",
". . + . + . + . + . . . . . . . . . . . . # - = . @ @ . & - . . ; & * * & * . . & ; . . * = . . ",
". . + . . . . . + . . . . . . . . . . . . @ & # * % ; . - & @ * % - = * & * . . - & @ @ & $ . . ",
". . + . . . . . + . . . . . . . . . . . . . ; % & - . . = # & & - = . * & * . . = # & % @ . . . ",
". . + + + + + + + . . . . . . . . . . . . . . . . . . . . . . . . . . . . . . . . . . . . . . . ",
". . . . . . . . . . . . . . . . . . . . . . . . . . . . . . . . . . . . . . . . . . . . . . . . ",
". . . . . . . . . . . . . . . . . . . . . . . . . . . . . . . . . . . . . . . . . . . . . . . . ",
". & & & & & & & & & & & > , ' ) ! ~ { ] ^ / ( _ : < [ } | 1 2 3 + 4 5 6 7 8 9 0 a b c d e f g . ",
". & & & & & & & & & & > , ' ) h ~ { ] ^ / | i j k l m + 1 2 3 + 4 5 % 7 8 9 0 a b c d e f g n . ",
". & & & & & & & & & > , ' ) h ~ { ] o p q r s t u v w x y + + 4 5 % 7 8 9 0 y b c d e f g n z . ",
". & & & & & & & & > , ' ) h ~ { ] o A B B C D D E F G H I J 5 K L 8 8 9 0 y b c d e M g n z N . ",
". & & & & & & & O , ' ) h ! { ] : P D D Q R S D T U V W X Y Z `  ...+.@.a b c d e M g n z N #.. ",
". & & & & & & O , ' ) h ! { ] ^ $.%.D Q &.*.=.-.;.>.>.,.X '.).>.!.~.{.].^.g d e M g n z N #./.. ",
". & & & & & O , ' ) h ! { ] ^ (._.:.<.[.}.|.1.2.3.4.4.5.6.7.8.9.0.a.b.c.d.e.n M f n z N #.f.g.. ",
". & & & & O > ' ) h ! ~ ] ^ h.i.D j.k.l.m.n.n.n.o.m.m.p.q.r.s.t.u.v.b.w.x.y.z.f.n z N #.f.g.A.. ",
". & & & O > ' ) h ! ~ ] ^ B.C.D.E.F.G.H.I.J.J.J.J.J.J.K.L.M.N.O.P.Q.R.S.T.x.U.V.A.N #.f.g.A.^.. ",
". & & O > ' ) h ! ~ ] ^ W.X.Y.Z.n.Z.`. +H.G..+H..+++++++@+#+=.$+%+&+S *+=+-+;+>+,+/.f./.A.^.'+. ",
". & O > , ) h ! ~ { ^ / )+E.Z.n.n.!+n.n.n. +l.m.~+++++{+]+^+++$+%+%+/+(+W _+:+<+[+}+/.A.^.'+|+. ",
". O > , ) h ! ~ { ^ 1+2+3+Z.n.n.n.!+n.n.n.n.Z.1.4+++++$+5+6+$+$+%+7+7+7+8+7.9+0+a+b+'+^.'+|+}+. ",
". > , ) h ! ~ o c+| ( d+e+n.n.n.n.!+n.n.n.n.n.!+~+++$+#+++#+f+g+h+%+:+7+i+{.7.j+k+l+m+'+|+}+- . ",
". , ' h ! ~ { n+o+p+q+r+s+n.n.n.n.!+n.n.n.n.n.n.l.t+u+v+#+++f+h+h+w+{.x+y+{.j+z+A+B+C+}+}+D+E+. ",
". ' h ! ~ { ^ F+G+:.H+I+n.n.n.n.n.!+n.n.n.n.n.n.n.J+K+L+M+++f+h+h+i+{.{.{.b.b.{.N+O+P+D+D+E+m+. ",
". h ! ~ { ] ( Q+R+S S+s+n.n.n.n.n.!+n.n.n.n.n.n.|.T+++L.U+V+W+h+X+{.{.{.{.` Y+Z+`+ @V.- E+m+.@. ",
". ! ~ { ] ^ _ g +@R I+n.n.n.n.n.n.!+n.n.n.n.n.n.~+++@@I.++#@h+h+$@Y+{.b.x+{.%@&@*@=@P+E+m+.@-@. ",
". ~ { ] ^ / _ 9 ;@S.>@,@n.n.n.n.n.!+n.n.n.n.n.n.'@1.,@T+++)@h+h+!@7.7.7.` {.~@{@]@^@b+m+.@-@/@. ",
". { ] ^ / ( _ (@_@:@<@[@n.n.n.n.n.!+n.n.n.n.n.n.n.n.n.}@I.|@1@2@!@y+>.3@z+4@5@6@7@8@/@.@-@/@9@. ",
". ] ^ 1+( _ : } g.0@a@b@J.c@n.n.n.!+n.n.n.n.n.n.n.n.n.n.'@}.d@$+h+:+>.Y+e@f@g@h@# 9@.@-@/@9@,+. ",
". ^ 1+( _ : < [ y i@j@k@l@m@n@o@p@q@r@r@s@t@u@n.u@t@v@T+T+T+u+w@x@y@X z@A@B@C@D@C+-@-@/@9@E@F@. ",
". 1+( _ : < o } (@f G@H@I@J@K@L@M@g@N@N@O@P@Q@R@S@G+T@U@V@r@W@X@Y@Z@`@ #.#+#@#i@E@-@/@9@E@F@b+. ",
". / _ : < o } | 1 3 8 /.G@##$#%#&#*#=#^@H@-#;#>#,#'#)#!#~#{#]#]#N@N@]#J@&#^#/#(#-@/@9@E@F@b+(#. ",
". _ : < o [ | 1 2 (@+ 5 8 b /._#:#'+g g ^.<#[#<.}#|#1#+#2#3#4#4#4#5#=#6#7#_#9@-@/@9@E@,+b+(#C+. ",
". : < o [ | 1 2 (@3 4 5 % 6 9 b c a a c f 8#9#++0#a#b#c#d#m+- E+m+-@/@/@-@m+-@/@9@E@,+b+(#C+e#. ",
". < o [ | 1 2 (@3 4 5 % 6 7 9 0 y a b d f f#g#++h#i#j#k#(#^.^.'+|+D+- E+m+.@/@9@E@,+b+(#C+e#_#. ",
". o [ } 1 2 (@3 4 5 % 6 7 9 0 y a b d e g f#l#m#n#o#{#B+F@'+'+|+D+- E+m+.@/@9@E@,+F@(#C+e#_#P+. ",
". [ } 1 2 (@3 + 5 % 6 7 9 0 y a b d e M p#q#r#s#t#u#v#4#/@'+|+D+- E+m+.@/@9@E@,+F@(#C+e#_#:#V.. ",
". } 1 2 (@3 + 5 % 6 7 8 0 y a b c e M w#x#y#z#A#B#C#D#/#m+|+}+- E+m+.@-@9@E@,+F@(#C+e#_#:#V.G@. ",
". | 2 (@3 + 5 % 6 7 8 0 y a b c e M f w#E#F#G#@@H#I#J#^@E@}+- E+m+.@-@9@E@,+F@b+C+e#_#:#V.G@K#. ",
". 2 (@3 + 4 % 6 7 8 0 y a b c e M f g '+L#M#N#O#P#Q#R#$#e#E+E+m+.@-@9@E@,+F@b+C+e#_#:#P+G@K#8@. ",
". (@3 + 4 % 6 7 8 9 y a b c d M f g n ^.d#S#T#U#V#*@W#X#C+E+m+.@-@/@E@,+F@b+C+e#_#:#P+G@K#8@Y#. ",
". 3 + 4 % 6 7 8 9 y a b c d M f g n z f..@Z#`# $$#B+D@d#9@m+.@-@/@E@,+F@b+(#e#_#:#P+G@K#8@Y#.$. ",
". + 4 5 6 7 8 9 y a b c d M f g n z #.f.g.}+.@9@,+F@E@/@m+.@-@/@E@,+F@b+(#e#_#:#P+V.K#8@Y#.$+$. ",
". . . . . . . . . . . . . . . . . . . . . . . . . . . . . . . . . . . . . . . . . . . . . . . . "};
