/* XPM */
static char * file_dot_conf_xpm[] = {
"48 48 274 2",
"  	c None",
". 	c #000000",
"+ 	c #1C1C1C",
"@ 	c #E2E2E2",
"# 	c #FFFFFF",
"$ 	c #555555",
"% 	c #E5E5E5",
"& 	c #717171",
"* 	c #383838",
"= 	c #AAAAAA",
"- 	c #C6C6C6",
"; 	c #8D8D8D",
"> 	c #FDFDFD",
", 	c #FCFCFC",
"' 	c #FBFBFB",
") 	c #FAFAFA",
"! 	c #F8F8F8",
"~ 	c #F7F7F7",
"{ 	c #F6F6F6",
"] 	c #F5F5F5",
"^ 	c #F4F4F4",
"/ 	c #F2F2F2",
"( 	c #F1F1F1",
"_ 	c #F0F0F0",
": 	c #EFEFEF",
"< 	c #EEEEEE",
"[ 	c #ECECEC",
"} 	c #EBEBEB",
"| 	c #EAEAEA",
"1 	c #E9E9E9",
"2 	c #E8E8E8",
"3 	c #E6E6E6",
"4 	c #E4E4E4",
"5 	c #E3E3E3",
"6 	c #E1E1E1",
"7 	c #E0E0E0",
"8 	c #DFDFDF",
"9 	c #DEDEDE",
"0 	c #DDDDDD",
"a 	c #DBDBDB",
"b 	c #DADADA",
"c 	c #D9D9D9",
"d 	c #D8D8D8",
"e 	c #D7D7D7",
"f 	c #D5D5D5",
"g 	c #D4D4D4",
"h 	c #F9F9F9",
"i 	c #D3D3D3",
"j 	c #F3F3F3",
"k 	c #DCDCDC",
"l 	c #D2D2D2",
"m 	c #D6D6D6",
"n 	c #D1D1D1",
"o 	c #FEFEFE",
"p 	c #B2B2B2",
"q 	c #CCCCCC",
"r 	c #D0D0D0",
"s 	c #696969",
"t 	c #B0B0B0",
"u 	c #CECECE",
"v 	c #434343",
"w 	c #A0A0A0",
"x 	c #CFCFCF",
"y 	c #CDCDCD",
"z 	c #3D3D3D",
"A 	c #9D9D9D",
"B 	c #757575",
"C 	c #3C3C3C",
"D 	c #9C9C9C",
"E 	c #CBCBCB",
"F 	c #9B9B9B",
"G 	c #CACACA",
"H 	c #3B3B3B",
"I 	c #C9C9C9",
"J 	c #9A9A9A",
"K 	c #C8C8C8",
"L 	c #E7E7E7",
"M 	c #999999",
"N 	c #C7C7C7",
"O 	c #C5C5C5",
"P 	c #3A3A3A",
"Q 	c #979797",
"R 	c #C4C4C4",
"S 	c #EDEDED",
"T 	c #969696",
"U 	c #C3C3C3",
"V 	c #393939",
"W 	c #C2C2C2",
"X 	c #959595",
"Y 	c #C1C1C1",
"Z 	c #737373",
"` 	c #2B4F23",
" .	c #18480D",
"..	c #356429",
"+.	c #0C2E05",
"@.	c #153F0B",
"#.	c #3F5E38",
"$.	c #C0C0C0",
"%.	c #A9E986",
"&.	c #DEFE81",
"*.	c #0A2504",
"=.	c #245C13",
"-.	c #BEFE43",
";.	c #2C7815",
">.	c #061F02",
",.	c #071E03",
"'.	c #1B4B0E",
").	c #BEBEBE",
"!.	c #BCCEB6",
"~.	c #ECFDA0",
"{.	c #F5FDC0",
"].	c #38BC04",
"^.	c #A9FD25",
"/.	c #ECFE9B",
"(.	c #EFFE9F",
"_.	c #123C09",
":.	c #061B02",
"<.	c #486741",
"[.	c #425A3D",
"}.	c #869782",
"|.	c #BFBFBF",
"1.	c #BDBDBD",
"2.	c #C1D1BD",
"3.	c #5E8952",
"4.	c #BDFE41",
"5.	c #F3FEAD",
"6.	c #EDFE9D",
"7.	c #EAFE8F",
"8.	c #E4FE7F",
"9.	c #D6FE69",
"0.	c #16440B",
"a.	c #17450C",
"b.	c #0E3007",
"c.	c #061C03",
"d.	c #051902",
"e.	c #27531D",
"f.	c #BCBCBC",
"g.	c #C7E371",
"h.	c #F4FEB5",
"i.	c #EBFE95",
"j.	c #E6FE85",
"k.	c #DCFE75",
"l.	c #CEFE5B",
"m.	c #B5FE35",
"n.	c #C9FE59",
"o.	c #34AB0A",
"p.	c #16370E",
"q.	c #A0A49F",
"r.	c #BBBBBB",
"s.	c #DCFE79",
"t.	c #EEFE97",
"u.	c #E7FE8D",
"v.	c #E1FE7B",
"w.	c #D7FE6D",
"x.	c #C7FE51",
"y.	c #C4FE47",
"z.	c #C3FE43",
"A.	c #B4FD34",
"B.	c #A4FD25",
"C.	c #9EFD17",
"D.	c #1F5510",
"E.	c #072003",
"F.	c #566C52",
"G.	c #BABABA",
"H.	c #C3C7C3",
"I.	c #B2FE2D",
"J.	c #D4FE65",
"K.	c #1D520F",
"L.	c #A1FE1D",
"M.	c #A0FD1C",
"N.	c #9BFD0F",
"O.	c #59DE00",
"P.	c #0F3508",
"Q.	c #133C09",
"R.	c #7A7E7A",
"S.	c #B9B9B9",
"T.	c #AFD4A2",
"U.	c #D6FE6B",
"V.	c #C6FE4D",
"W.	c #59DF01",
"X.	c #1C4F0E",
"Y.	c #71F101",
"Z.	c #8CFD06",
"`.	c #70F000",
" +	c #3DC600",
".+	c #B8B8B8",
"++	c #E5FE90",
"@+	c #CCFE53",
"#+	c #B5FE37",
"$+	c #78F301",
"%+	c #2C7316",
"&+	c #143F0A",
"*+	c #329211",
"=+	c #89FD00",
"-+	c #51D800",
";+	c #3ECA00",
">+	c #2B6F16",
",+	c #1E500F",
"'+	c #308A11",
")+	c #B6B6B6",
"!+	c #539604",
"~+	c #BBFD3C",
"{+	c #B1FD2C",
"]+	c #A6FD1E",
"^+	c #9BFD0E",
"/+	c #6FEC00",
"(+	c #072203",
"_+	c #49D000",
":+	c #66E600",
"<+	c #37BD03",
"[+	c #33A80A",
"}+	c #31980D",
"|+	c #296716",
"1+	c #2C7116",
"2+	c #70846C",
"3+	c #B7B7B7",
"4+	c #B5B5B5",
"5+	c #A2A2A2",
"6+	c #111111",
"7+	c #090909",
"8+	c #080808",
"9+	c #0C1809",
"0+	c #225513",
"a+	c #245E13",
"b+	c #93FE09",
"c+	c #78F300",
"d+	c #8AFE01",
"e+	c #96FE0F",
"f+	c #37AE09",
"g+	c #329B0E",
"h+	c #318C11",
"i+	c #296617",
"j+	c #23421B",
"k+	c #B4B4B4",
"l+	c #357A1D",
"m+	c #61E500",
"n+	c #52D900",
"o+	c #44CD00",
"p+	c #38BB04",
"q+	c #33A40B",
"r+	c #329110",
"s+	c #2F7F14",
"t+	c #0B2805",
"u+	c #45653D",
"v+	c #B3B3B3",
"w+	c #AEAEAE",
"x+	c #9E9E9E",
"y+	c #949494",
"z+	c #939393",
"A+	c #929292",
"B+	c #5A9845",
"C+	c #37B207",
"D+	c #37B506",
"E+	c #33A90A",
"F+	c #32990E",
"G+	c #308712",
"H+	c #205811",
"I+	c #0E3207",
"J+	c #496B40",
"K+	c #64865B",
"L+	c #556751",
"M+	c #4F7345",
"N+	c #2C7415",
"O+	c #2B6A17",
"P+	c #113908",
"Q+	c #184A0D",
"R+	c #537B48",
"S+	c #B1B1B1",
"T+	c #999F98",
"U+	c #205611",
"V+	c #254B1D",
"W+	c #475E42",
"X+	c #929791",
"Y+	c #AFAFAF",
". . . . . . . . . . . . . . . . . . . . . . . . . . . . . . . . . . . . . . . . . . . . . . . . ",
". . . . . . . . . . . . . . . . . . . . . . . . . . . . . . . . . . . . . . . . . . . + @ # $ . ",
". . % % % % % % % . . . . . . . . . . . . . . . . . . . . . . . . . . . . . . . . . . $ # & . . ",
". . % . . . . . % . . . . . . . . . . . . . . * = & . . . . & = & . . . = & * = * . * - # - * . ",
". . % . % % % . % . . . . . . . . . . . . . ; # # # ; . + @ # # # = . . # @ # # # + * - # - * . ",
". . % . . . . . % . . . . . . . . . . . . + # ; . ; # . ; # & . & # & . # @ + + # $ . $ # $ . . ",
". . % . % % % . % . . . . . . . . . . . . $ # . . . . . = = . . . # = . # = . . # $ . $ # $ . . ",
". . % . . . . . % . . . . . . . . . . . . $ # * . * = . = @ * . * # = . # = . . # $ . $ # $ . . ",
". . % . % % % . % . . . . . . . . . * = & + # @ $ = @ . & # = $ = # * . # = . . # $ . $ # $ . . ",
". . % . . . . . % . . . . . . . . . $ # = . $ - # @ * . . ; @ # @ $ . . # = . . # $ . $ # $ . . ",
". . % % % % % % % . . . . . . . . . . . . . . . . . . . . . . . . . . . . . . . . . . . . . . . ",
". . . . . . . . . . . . . . . . . . . . . . . . . . . . . . . . . . . . . . . . . . . . . . . . ",
". . . . . . . . . . . . . . . . . . . . . . . . . . . . . . . . . . . . . . . . . . . . . . . . ",
". # # # # # # # # # # # > , ' ) ! ~ { ] ^ / ( _ : < [ } | 1 2 3 % 4 5 6 7 8 9 0 a b c d e f g . ",
". # # # # # # # # # # > , ' ) h ~ { ] ^ / ( _ : < [ } | 1 2 3 % 4 5 @ 7 8 9 0 a b c d e f g i . ",
". # # # # # # # # # > , ' ) h ~ { ] ^ j ( _ : < [ } | 1 2 3 % 4 5 @ 7 8 9 0 k b c d e f g i l . ",
". # # # # # # # # > , ' ) h ~ { . . . . . . . . . . . . . . . . . . c k 0 k b c d e m g i l n . ",
". # # # # # # # o , ' ) h ! { . . # # # # # # # # # # # # # # # # . p q b b c d e m g i l n r . ",
". # # # # # # o , ' ) h ! { . # . # # # # # # # # # # # # # # # # . s t g c d e m g i l n r u . ",
". # # # # # o , ' ) h ! { . . . . # # # # # # # # # # # # # # # # . v w n d e m f i l n r x y . ",
". # # # # o > ' ) h ! ~ j . # # # # # # # # # # # # # # # # # # # . z A r e m f i l n r x y q . ",
". # # # o > ' ) h ! ~ ] < . # # B B # B B B # B # B B B B # B # # . C D x m f i l n r x y q E . ",
". # # o > ' ) h ! ~ ] ^ } . # # # # # # # # # # # # # # # # # # # . C F u f g l n r x u q E G . ",
". # o > , ) h ! ~ { ^ j 1 . # # B # B B B # B B B B # B B # B # # . H F y g l n r x u q E G I . ",
". o > , ) h ! ~ { ^ j / 2 . # # # # # # # # # # # # # # # # # # # . H J q l n r x u q E G I K . ",
". > , ) h ! ~ { ^ j / ( L . # # B B B B # B # B B # # B B B # # # . H M E n r x u y E G I K - . ",
". , ' h ! ~ { ] j / ( _ % . # # # # # # # # # # # # # # # # # # # . H M I r x u y E G I K N O . ",
". ' h ! ~ { ] j / ( _ : 4 . # # # B # B B B B # B # B B B # B # # . P Q K x u y E G I K N O R . ",
". h ! ~ { ] j / ( _ : S 5 . # # # # # # # # # # # # # # # # # # # . P T N u y q G I K N O R U . ",
". ! ~ { ] ^ / ( _ : S [ @ . # # B # B B B # B B # B B B # B # # # . V T - y q G I K N - R U W . ",
". ~ { ] ^ / ( _ : < [ } 6 . # # # # # # # # # # # # # # # # # # # . V X O q G I K N - R U W Y . ",
". { ] ^ / ( _ : < [ } | 7 . # # B B # B B B B # B # B B Z 9 `  ...+.@.#.R E I K N - R U W Y $.. ",
". ] ^ j ( _ : < [ } | 1 8 . # # # # # # # # # # # # , %.&.*.=.-.;.>.,.'.$.I K N - O U W Y $.).. ",
". ^ j ( _ : < S } | 1 2 0 . # # B B B B # B # B B B !.~.{.].^./.(._.:.:.<.[.}.- O U W Y $.|.1.. ",
". j ( _ : < S } | 1 2 L k . # # # # # # # # # # # 2.3.4.5.6.7.8.9.0.a.b.c.d.e.|.U W Y $.|.1.f.. ",
". / _ : < S } | 1 2 L % a . # # B B B # B B B # B g.h.5.i.j.k.9.l.m.n.o.:.:.p.q.W Y $.|.1.f.r.. ",
". _ : < S [ | 1 2 L % 4 b . # # # # # # # # # # # s.t.u.v.w.x.y.z.A.B.C.D.E.F.W Y $.|.).f.r.G.. ",
". : < S [ | 1 2 L 3 4 5 b . # # # # # # # # # # # H.I.k.J.I.K.D.L.M.N.O.P.d.Q.R.$.|.).f.r.G.S.. ",
". < S [ | 1 2 L 3 4 5 @ c . # # # # # # # # # # # T.U.l.V.W.X.P.Y.Z.`. +d.d.:.X.|.).f.r.G.S..+. ",
". S [ } 1 2 L 3 4 5 @ 6 d . # # # # # # # # # # # ++@+z.#+$+%+&+*+=+-+;+>+&+,+'+).1.r.G.S..+)+. ",
". [ } 1 2 L 3 % 5 @ 6 7 m . . . . . . . . . . . . !+~+{+]+^+/+(+_+:+<+[+}+|+1+2+1.r.G.S..+3+4+. ",
". } 1 2 L 3 % 5 @ 6 7 8 m 5+v 6+7+8+8+8+8+8+8+8+8+9+0+a+b+c+d+m.e+f+g+h+i+0.j+1.r.G.S..+3+4+k+. ",
". | 2 L 3 % 5 @ 6 7 8 0 m t s v C H H H P P V V V * * l+m+n+o+p+q+r+s+|+t+:.u+f.G.S..+3+4+k+v+. ",
". 2 L 3 % 4 @ 6 7 8 0 k c I w+x+D J M M Q T T X y+z+A+B+C+D+E+F+G+%+i+H+I+J+.+G.S..+3+)+k+v+p . ",
". L 3 % 4 @ 6 7 8 9 k a b e l x u q E I K N - O U W Y 1.K+L+M+N+O+0.P+Q+R+S.G.S..+3+)+k+v+p S+. ",
". 3 % 4 @ 6 7 8 9 k a b c d m f g i l r x u y E G I K N O R T+U+K.V+W+X+r.r.S..+3+)+k+v+p S+t . ",
". % 4 5 6 7 8 9 k a b c d m f g i l r x u y q G I K N O R U W Y |.).1.f.r.S..+3+)+4+v+p S+t Y+. ",
". . . . . . . . . . . . . . . . . . . . . . . . . . . . . . . . . . . . . . . . . . . . . . . . "};
