/* XPM */
static char * deb_xpm[] = {
"48 48 336 2",
"  	c None",
" .	c #000000",
" +	c #FFFFFF",
" @	c #555555",
" #	c #AAAAAA",
" $	c #E5E5E5",
" %	c #383838",
" &	c #717171",
" *	c #E2E2E2",
" =	c #1C1C1C",
" -	c #8D8D8D",
" ;	c #C6C6C6",
" >	c #FDFDFD",
" ,	c #FCFCFC",
" '	c #FBFBFB",
" )	c #FAFAFA",
" !	c #F8F8F8",
" ~	c #F7F7F7",
" {	c #F6F6F6",
" ]	c #F5F5F5",
" ^	c #F4F4F4",
" /	c #F2F2F2",
" (	c #F1F1F1",
" _	c #F0F0F0",
" :	c #EFEFEF",
" <	c #EEEEEE",
" [	c #ECECEC",
" }	c #EBEBEB",
" |	c #EAEAEA",
" 1	c #E9E9E9",
" 2	c #E8E8E8",
" 3	c #E6E6E6",
" 4	c #E4E4E4",
" 5	c #E3E3E3",
" 6	c #E1E1E1",
" 7	c #E0E0E0",
" 8	c #DFDFDF",
" 9	c #DEDEDE",
" 0	c #DDDDDD",
" a	c #DBDBDB",
" b	c #DADADA",
" c	c #D9D9D9",
" d	c #D8D8D8",
" e	c #D7D7D7",
" f	c #D5D5D5",
" g	c #D4D4D4",
" h	c #F9F9F9",
" i	c #D3D3D3",
" j	c #F3F3F3",
" k	c #F2E9EB",
" l	c #ED7F91",
" m	c #E2363D",
" n	c #DF1014",
" o	c #DF4953",
" p	c #D8D4D5",
" q	c #DCDCDC",
" r	c #D2D2D2",
" s	c #F1DADE",
" t	c #E62E37",
" u	c #DE0D10",
" v	c #D11821",
" w	c #BA2530",
" x	c #A6343F",
" y	c #9F7A7D",
" z	c #C4C0C1",
" A	c #D6D6D6",
" B	c #D1D1D1",
" C	c #FEFEFE",
" D	c #F2F0F0",
" E	c #E64D58",
" F	c #DC1216",
" G	c #A73A4A",
" H	c #67575B",
" I	c #555454",
" J	c #646363",
" K	c #958C8D",
" L	c #CA6772",
" M	c #D77E88",
" N	c #D9BBC2",
" O	c #DCD8D9",
" P	c #DFDEDE",
" Q	c #D0D0D0",
" R	c #EECFD5",
" S	c #DF222C",
" T	c #AA4C57",
" U	c #4D4D4D",
" V	c #747474",
" W	c #AEAAB1",
" X	c #A292C3",
" Y	c #C2BFC3",
" Z	c #C1B1B4",
" `	c #C93C46",
". 	c #D6141C",
"..	c #CF323D",
".+	c #C5B1B5",
".@	c #CECECE",
".#	c #EA6A76",
".$	c #D22E35",
".%	c #656363",
".&	c #7B7B7B",
".*	c #C3C2C3",
".=	c #9386C4",
".-	c #16166D",
".;	c #9887AE",
".>	c #AFAFAF",
".,	c #C76D7A",
".'	c #DB0307",
".)	c #CC070B",
".!	c #A54452",
".~	c #A6A5A5",
".{	c #CFCFCF",
".]	c #CDCDCD",
".^	c #EFDEE1",
"./	c #DE2831",
".(	c #AF5663",
"._	c #656565",
".:	c #B4B4B4",
".<	c #D5D3D6",
".[	c #9991A8",
".}	c #706F71",
".|	c #9B9B9B",
".1	c #D67A85",
".2	c #C71E26",
".3	c #624B52",
".4	c #494949",
".5	c #878787",
".6	c #C8C8C8",
".7	c #CCCCCC",
".8	c #EB7E8D",
".9	c #D91D22",
".0	c #806E70",
".a	c #818181",
".b	c #B8B8B8",
".c	c #9F9F9F",
".d	c #BEBEBE",
".e	c #D2C6C6",
".f	c #AA848B",
".g	c #5A5A5A",
".h	c #BFBFBF",
".i	c #CBCBCB",
".j	c #EEE6E7",
".k	c #E1313A",
".l	c #C4313F",
".m	c #676464",
".n	c #A0A0A0",
".o	c #E7E7E7",
".p	c #B5B3B3",
".q	c #9D9D9D",
".r	c #CACACA",
".s	c #EBA5B1",
".t	c #DB1A1E",
".u	c #92626D",
".v	c #696969",
".w	c #BCBCBC",
".x	c #C9C9C9",
".y	c #EEECEC",
".z	c #E24753",
".A	c #CA303A",
".B	c #666264",
".C	c #E6E5E5",
".D	c #E3DADA",
".E	c #DCDBDB",
".F	c #EDEDED",
".G	c #ECD1D6",
".H	c #DC242E",
".I	c #9C6678",
".J	c #656464",
".K	c #E4E0E1",
".L	c #E20005",
".M	c #BDB7B8",
".N	c #E8B5C1",
".O	c #D52C38",
".P	c #716B6D",
".Q	c #8A8A8A",
".R	c #6E6A6B",
".S	c #A8A8A8",
".T	c #DAD9D9",
".U	c #C7C7C7",
".V	c #C5C5C5",
".W	c #E5ABB6",
".X	c #CA3D4A",
".Y	c #666666",
".Z	c #AEAEAE",
".`	c #BBBBBB",
"+ 	c #5E5E5E",
"+.	c #ABABAB",
"++	c #DCD8D8",
"+@	c #DAB5BA",
"+#	c #C4C4C4",
"+$	c #E5ABB7",
"+%	c #C55763",
"+&	c #C0C0C0",
"+*	c #DBCACD",
"+=	c #D44F59",
"+-	c #A2A2A2",
"+;	c #C3C3C3",
"+>	c #E4B4BC",
"+,	c #C16A74",
"+'	c #858585",
"+)	c #DE8FA0",
"+!	c #D32226",
"+~	c #777777",
"+{	c #C2C2C2",
"+]	c #E2C9CB",
"+^	c #C2777E",
"+/	c #919191",
"+(	c #D9D7D7",
"+_	c #DE3D49",
"+:	c #CA2028",
"+<	c #B6B6B6",
"+[	c #C1C1C1",
"+}	c #E0D7D8",
"+|	c #CA777E",
"+1	c #979797",
"+2	c #D8D6D7",
"+3	c #E27886",
"+4	c #DC1418",
"+5	c #99515D",
"+6	c #585858",
"+7	c #B7B7B7",
"+8	c #E0DEDE",
"+9	c #CD9098",
"+0	c #9B9A9A",
"+a	c #DF99A7",
"+b	c #DD1C1F",
"+c	c #C12731",
"+d	c #5C5859",
"+e	c #E1E0E0",
"+f	c #CFC1C3",
"+g	c #ACA9A9",
"+h	c #D9D8D8",
"+i	c #E18A9A",
"+j	c #DD1C23",
"+k	c #CE1A23",
"+l	c #725C60",
"+m	c #575757",
"+n	c #BDBDBD",
"+o	c #D6D4D4",
"+p	c #C2B8B8",
"+q	c #C4C3C3",
"+r	c #DBD8D8",
"+s	c #DCCCCF",
"+t	c #E25364",
"+u	c #E01014",
"+v	c #CF151E",
"+w	c #7C565E",
"+x	c #4F4F4F",
"+y	c #898989",
"+z	c #CECBCB",
"+A	c #C2C1C1",
"+B	c #DDDBDB",
"+C	c #DFBABD",
"+D	c #E2626D",
"+E	c #DF2A33",
"+F	c #DB1A1D",
"+G	c #DD1215",
"+H	c #DC080C",
"+I	c #C21B27",
"+J	c #695559",
"+K	c #B5B5B5",
"+L	c #D2CFD0",
"+M	c #DE0D11",
"+N	c #DC0E12",
"+O	c #CE131C",
"+P	c #BA1A25",
"+Q	c #A52532",
"+R	c #854650",
"+S	c #4B4848",
"+T	c #BABABA",
"+U	c #DAD3D4",
"+V	c #D52024",
"+W	c #B82A37",
"+X	c #804756",
"+Y	c #554F50",
"+Z	c #454545",
"+`	c #505050",
"@ 	c #626262",
"@.	c #B9B9B9",
"@+	c #E2D9DB",
"@@	c #DDD7D8",
"@#	c #DBD7D7",
"@$	c #DAD6D7",
"@%	c #D8C4C8",
"@&	c #D03A41",
"@*	c #B3212B",
"@=	c #9E3A4D",
"@-	c #9B737D",
"@;	c #A89C9F",
"@>	c #B6B3B4",
"@,	c #BCBBBB",
"@'	c #C3C2C2",
"@)	c #C8C7C8",
"@!	c #E36773",
"@~	c #DB2F37",
"@{	c #D82C38",
"@]	c #D72A36",
"@^	c #D92029",
"@/	c #CF1A1E",
"@(	c #A82E3A",
"@_	c #B71F2A",
"@:	c #C61C23",
"@<	c #CE2029",
"@[	c #D32C38",
"@}	c #D13948",
"@|	c #D33F4C",
"@1	c #CF7488",
"@2	c #BEBDBD",
"@3	c #D5C3C5",
"@4	c #C14C5A",
"@5	c #B42B39",
"@6	c #AE2630",
"@7	c #AD252F",
"@8	c #9D3441",
"@9	c #5B5958",
"@0	c #706E6D",
"@a	c #807577",
"@b	c #92606A",
"@c	c #A73B48",
"@d	c #B9212B",
"@e	c #C71014",
"@f	c #C0181F",
"@g	c #998086",
"@h	c #ACACAC",
"@i	c #676767",
"@j	c #767676",
"@k	c #A6A6A6",
"@l	c #969696",
"@m	c #828282",
"@n	c #6C6C6C",
"@o	c #595959",
"@p	c #4C4C4C",
"@q	c #999999",
"@r	c #B3B3B3",
"@s	c #B2B2B2",
"@t	c #B1B1B1",
"@u	c #B0B0B0",
" . . . . . . . . . . . . . . . . . . . . . . . . . . . . . . . . . . . . . . . . . . . . . . . .",
" . . . . . . . . . . . . . . . . . . . . . . . . . . . . . . + @ . . . . . . . . + # . . . . . .",
" . . $ . . . . . . . . . . . . . . . . . . . . . . . . . . . + @ . . . . . . . . + # . . . . . .",
" . . $ $ . . . . . . . . . . . . . . . . . . . . . . . # # % + @ . . . # # . . . + # & # % . . .",
" . . $ $ $ . . . . . . . . . . . . . . . . . . . . . # + + * + @ . @ + + + * = . + * + + + = . .",
" . . $ $ $ $ . . . . . . . . . . . . . . . . . . . % + - . @ + @ . * ; = = + - . + * = = + ; . .",
" . . $ $ $ $ $ . . . . . . . . . . . . . . . . . . @ + . . . + @ . + + + + + # . + # . . # + . .",
" . . $ $ $ $ . . . . . . . . . . . . . . . . . . . @ + % . = + @ . + - . . @ = . + # . . * + . .",
" . . $ $ $ . . . . . . . . . . . . . . . . . % # & = + * @ # + @ . ; + & & + % . + * @ & + - . .",
" . . $ $ . . . . . . . . . . . . . . . . . . @ + # . @ + + & + @ . = # + * & . . + ; ; + # . . .",
" . . $ . . . . . . . . . . . . . . . . . . . . . . . . . . . . . . . . . . . . . . . . . . . . .",
" . . . . . . . . . . . . . . . . . . . . . . . . . . . . . . . . . . . . . . . . . . . . . . . .",
" . . . . . . . . . . . . . . . . . . . . . . . . . . . . . . . . . . . . . . . . . . . . . . . .",
" . + + + + + + + + + + + > , ' ) ! ~ { ] ^ / ( _ : < [ } | 1 2 3 $ 4 5 6 7 8 9 0 a b c d e f g .",
" . + + + + + + + + + + > , ' ) h ~ { ] ^ / ( _ : < [ } | 1 2 3 $ 4 5 * 7 8 9 0 a b c d e f g i .",
" . + + + + + + + + + > , ' ) h ~ { ] ^ j k l m n o p 5 2 2 3 $ 4 5 * 7 8 9 0 q b c d e f g i r .",
" . + + + + + + + + > , ' ) h ~ { ] ^ j s t u v w x y z 8 3 $ 4 5 * 7 8 9 0 q b c d e A g i r B .",
" . + + + + + + + C , ' ) h ! { ] ^ j D E F G H I J K L M N O P 6 6 8 9 0 q b c d e A g i r B Q .",
" . + + + + + + C , ' ) h ! { ] ^ j / R S T U V W X Y Z `. ...+ B 0 9 0 q a c d e A g i r B Q.@ .",
" . + + + + + C , ' ) h ! { ] ^ j / _.#.$.%.&.*.=.-.;.>.,.'.).!.~ B q q a c d e A f i r B Q.{.] .",
" . + + + + C > ' ) h ! ~ ] ^ j / _.^./.(._.: 7.<.[.}.|.1.2.3.4.5.6 b a c d e A f i r B Q.{.].7 .",
" . + + + C > ' ) h ! ~ ] ^ j / ( :.8.9.0.a Q 3 0.b.c.d.e.f.g -.h A a b d e A f i r B Q.{.].7.i .",
" . + + C > ' ) h ! ~ ] ^ j / ( :.j.k.l.m.n q.o $ 8 c q d.p.q ; d a b d e A f g r B Q.{.@.7.i.r .",
" . + C > , ) h ! ~ { ^ j / ( : <.s.t.u.v.w * 3 $ 5 * 6 8 r.r A a b d e A f g r B Q.{.@.7.i.r.x .",
" . C > , ) h ! ~ { ^ j / ( _ <.y.z.A.B - r $.C.D.E 9 7 8 a d b b c e A f g r B Q.{.@.7.i.r.x.6 .",
" . > , ) h ! ~ { ^ j / ( _ <.F.G.H.I.J.: 9 $.K.L.M.7 0 0 q a b c e A f g i B Q.{.@.].i.r.x.6 ; .",
" . , ' h ! ~ { ] j / ( _ <.F [.N.O.P.Q Q 4 4 7.L.R.S e q a b.T d f f g i B Q.{.@.].i.r.x.6.U.V .",
" . ' h ! ~ { ] j / ( _ :.F [ }.W.X.Y.Z 0 4 * 8.`+ +. A a b c+++@.U B i B Q.{.@.].i.r.x.6.U.V+# .",
" . h ! ~ { ] j / ( _ :.F [ } |+$+% V.V * * 6 7 e+&.{ b b c d+*+=+-.6 r Q.{.@.].7.r.x.6.U.V+#+; .",
" . ! ~ { ] ^ / ( _ :.F [ } | 1+>+,+'.{ 5 6 7 8 9 q a b c d A+)+!+~.d Q.{.@.].7.r.x.6.U ;+#+;+{ .",
" . ~ { ] ^ / ( _ : < [ } | 1.o+]+^+/ r 6 7 8 9 0 a b c d e+(+_+:.g+<.{.@.].7.r.x.6.U ;+#+;+{+[ .",
" . { ] ^ / ( _ : < [ } | 1 2 3+}+|+1 B 7 8 9 0 a b c d e+2+3+4+5+6+7.@.].7.i.x.6.U ;+#+;+{+[+& .",
" . ] ^ j ( _ : < [ } | 1 2 3 $+8+9+0.@ 8 9 0 q b c d e e+a+b+c+d+~.h.].7.i.x.6.U ;.V+;+{+[+&.d .",
" . ^ j ( _ : <.F } | 1 2 3 $ 4+e+f+g.x q 0 q b c d e+h+i+j+k+l+m.c.U.7.i.x.6.U ;.V+;+{+[+&.h+n .",
" . j ( _ : <.F } | 1 2.o $ 4 5 *+o+p+q e q b c+h+r+s+t+u+v+w+x+y+n.i.i.r.6.U ;.V+;+{+[+&.h+n.w .",
" . / _ : <.F } | 1 2.o $ 4 5 * 6 a+z+A Q+B+C+D+E+F+G+H+I+J.4.a+K.x.i.r.6.U ;.V+#+{+[+&.h+n.w.` .",
" . _ : <.F [ | 1 2.o $ 4 5 * 6 8 0 A.U+L+_+M+N+O+P+Q+R+S U+y+7.6.i.r.6.U ;.V+#+{+[+&.h.d.w.`+T .",
" . : <.F [ | 1 2.o 3 4 5 * 6 8 9 0 q e+U+V+W+X+Y+Z+`@ .&+-.h.r.i.r.6.U ;.V+#+{+[+&.h.d.w.`+T@. .",
" . <.F [ | 1 2.o 3 4 5 * 6 7 9@+@@@#@$@%@&@*@=@-@;@>@,@'@).r.i.r.x.U ;.V+#+;+[+&.h.d.w.`+T@..b .",
" ..F [ } 1 2.o 3 4 5 * 6 7 9 0@!@~@{@]@^@/@(@_@:@<@[@}@|@1@2+#.x.U ;.V+#+;+[+&.h.d+n.`+T@..b+< .",
" . [ } 1 2.o 3 $ 5 * 6 7 9 0 q@3@4@5@6@7@8@9@0@a@b@c@d@e@f@g@h+; ;.V+#+;+[+&.h.d+n.`+T@..b+7+K .",
" . } 1 2.o 3 $ 5 * 6 7 8 0 q a Q.n V@i._._@j.n@k@l@m@n@o@p+ @q.d.V+#+;+{+&.h.d+n.`+T@..b+7+K.: .",
" . | 2.o 3 $ 5 * 6 7 8 0 q a b d.]+#+&+&.h+[.x.r ;+&@.@r.>@s.w+#+#+;+{+&.h.d+n.w+T@..b+7+K.:@r .",
" . 2.o 3 $ 4 * 6 7 8 0 q a b c e A f g i B Q.{.@.].i.r.x.6 ;.V+#+;+{+&.h.d+n.w+T@..b+7+<.:@r@s .",
" ..o 3 $ 4 * 6 7 8 9 q a b c d A f g i B Q.{.@.].i.r.x.6.U.V+#+;+{+[.h.d+n.w+T@..b+7+<.:@r@s@t .",
" . 3 $ 4 * 6 7 8 9 q a b c d A f g i r Q.{.@.].i.r.x.6.U.V+#+;+{+[.h.d+n.w.`@..b+7+<.:@r@s@t@u .",
" . $ 4 5 6 7 8 9 q a b c d A f g i r Q.{.@.].7.r.x.6.U.V+#+;+{+[.h.d+n.w.`@..b+7+<+K@r@s@t@u.> .",
" . . . . . . . . . . . . . . . . . . . . . . . . . . . . . . . . . . . . . . . . . . . . . . . ."};
