/* XPM */
static char * file_dot_png_xpm[] = {
"48 48 245 2",
"  	c None",
" .	c #040204",
" +	c #000000",
" @	c #E5E5E5",
" #	c #A4A6A4",
" $	c #747274",
" %	c #343634",
" &	c #ACAAAC",
" *	c #6C6E6C",
" =	c #FCFEFC",
" -	c #E4E2E4",
" ;	c #DCDEDC",
" >	c #1C1A1C",
" ,	c #1C1E1C",
" '	c #C4C6C4",
" )	c #545654",
" !	c #8C8E8C",
" ~	c #8C8A8C",
" {	c #ACAEAC",
" ]	c #FCFAFC",
" ^	c #F4F6F4",
" /	c #F4F2F4",
" (	c #ECEEEC",
" _	c #E4E6E4",
" :	c #ECEAEC",
" <	c #D4D6D4",
" [	c #DCDADC",
" }	c #D4D2D4",
" |	c #0C0A0C",
" 1	c #2C2A2C",
" 2	c #0C0E0C",
" 3	c #242624",
" 4	c #141614",
" 5	c #242224",
" 6	c #040604",
" 7	c #1C221C",
" 8	c #B4B2B4",
" 9	c #CCCACC",
" 0	c #CCCECC",
" a	c #949694",
" b	c #6C6A6C",
" c	c #4C4A4C",
" d	c #545254",
" e	c #5C5E5C",
" f	c #3C3E3C",
" g	c #646664",
" h	c #2C2E2C",
" i	c #444644",
" j	c #4C4E4C",
" k	c #646264",
" l	c #141E14",
" m	c #848284",
" n	c #949294",
" o	c #343234",
" p	c #141214",
" q	c #5C5A5C",
" r	c #444244",
" s	c #7C7A7C",
" t	c #9C9A9C",
" u	c #3C3A3C",
" v	c #04221C",
" w	c #044E44",
" x	c #04524C",
" y	c #044A40",
" z	c #044234",
" A	c #043E2C",
" B	c #043624",
" C	c #042E14",
" D	c #04260C",
" E	c #042204",
" F	c #041A04",
" G	c #041604",
" H	c #042A14",
" I	c #042E04",
" J	c #04220C",
" K	c #041204",
" L	c #040E04",
" M	c #04C2BC",
" N	c #F4FEFC",
" O	c #E4FEFC",
" P	c #CCFEFC",
" Q	c #ACFEFC",
" R	c #94FEFC",
" S	c #74FEFC",
" T	c #54FEFC",
" U	c #44FEFC",
" V	c #24FEEF",
" W	c #04FAC4",
" X	c #04D274",
" Y	c #04A604",
" Z	c #047204",
" `	c #049A04",
". 	c #04B24C",
"..	c #04B654",
".+	c #04CE7C",
".@	c #04E6A4",
".#	c #04F2BC",
".$	c #04EEA8",
".%	c #04E67C",
".&	c #04CE5A",
".*	c #04921C",
".=	c #048A06",
".-	c #044204",
".;	c #9C9E9C",
".>	c #04C6C4",
".,	c #ECFEFC",
".'	c #BCFEFC",
".)	c #A4FEFC",
".!	c #8CFEFC",
".~	c #6CFEFC",
".{	c #5CFEFC",
".]	c #1CFEE8",
".^	c #04BE44",
"./	c #046A04",
".(	c #044A04",
"._	c #045A05",
".:	c #045604",
".<	c #046204",
".[	c #045E04",
".}	c #047A24",
".|	c #046E04",
".1	c #048607",
".2	c #047E04",
".3	c #049234",
".4	c #04AA3C",
".5	c #049E04",
".6	c #044604",
".7	c #04BAB4",
".8	c #D4FEFC",
".9	c #C4FEFC",
".0	c #B4FEFC",
".a	c #84FEFC",
".b	c #64FEFC",
".c	c #4CFEFC",
".d	c #2CFEFC",
".e	c #04FEEC",
".f	c #045204",
".g	c #043204",
".h	c #043604",
".i	c #043A04",
".j	c #048E04",
".k	c #049204",
".l	c #04AA04",
".m	c #04B2AC",
".n	c #9CFEFC",
".o	c #7CFEFC",
".p	c #34FEFC",
".q	c #04EAAC",
".r	c #046604",
".s	c #047A04",
".t	c #049604",
".u	c #047604",
".v	c #3CFEFC",
".w	c #14FEF8",
".x	c #049A24",
".y	c #04A204",
".z	c #04BA2C",
".A	c #048204",
".B	c #043E05",
".C	c #C4C2C4",
".D	c #04B6B4",
".E	c #24FEFC",
".F	c #04E69C",
".G	c #049E28",
".H	c #041E04",
".I	c #04C63C",
".J	c #04C254",
".K	c #044E04",
".L	c #049E3C",
".M	c #04A644",
".N	c #045E24",
".O	c #042A04",
".P	c #BCBEBC",
".Q	c #04C25C",
".R	c #048E24",
".S	c #04AE04",
".T	c #0CD204",
".U	c #04FEDC",
".V	c #04D23C",
".W	c #04CA24",
".X	c #04C224",
".Y	c #04B604",
".Z	c #04C604",
".`	c #DCFEFC",
"+ 	c #0CFED8",
"+.	c #04FA8C",
"++	c #04E664",
"+@	c #04EA7C",
"+#	c #04D254",
"+$	c #04C204",
"+%	c #04BE04",
"+&	c #04B204",
"+*	c #04CE3C",
"+=	c #2CFEF1",
"+-	c #1CFED5",
"+;	c #14FED7",
"+>	c #0CFE97",
"+,	c #0CFEB7",
"+'	c #14FEB9",
"+)	c #0CFEA4",
"+!	c #04F6A4",
"+~	c #04EE78",
"+{	c #04DA44",
"+]	c #04D21C",
"+^	c #04D25C",
"+/	c #04DE04",
"+(	c #14FEA8",
"+_	c #04F284",
"+:	c #04B234",
"+<	c #04E274",
"+[	c #04DA5C",
"+}	c #04FAD4",
"+|	c #1CFEC9",
"+1	c #0CFE8A",
"+2	c #04FE94",
"+3	c #04BA3C",
"+4	c #04F654",
"+5	c #BCBABC",
"+6	c #14FEEC",
"+7	c #24FEDC",
"+8	c #04E25C",
"+9	c #04E254",
"+0	c #14FEC4",
"+a	c #24FED4",
"+b	c #24FEE4",
"+c	c #04AE2C",
"+d	c #04F25C",
"+e	c #14FECC",
"+f	c #04B22C",
"+g	c #B4B6B4",
"+h	c #04E294",
"+i	c #04B61C",
"+j	c #04CA48",
"+k	c #049E9C",
"+l	c #049694",
"+m	c #047E68",
"+n	c #046A3C",
"+o	c #045624",
"+p	c #04521C",
"+q	c #046634",
"+r	c #04622C",
"+s	c #044214",
"+t	c #044E14",
"+u	c #848684",
"+v	c #A4A2A4",
" . . . . . . . . . . . . . . . . . . . . . . . . . . . . . . . . . . . . . . . . . . . . . . . .",
" . . . . . . . . . . . . . . . . . . . . . . . . . . . . . . . . . . . . . . . . . . . . . . . .",
" . + + + @ + @ + + + . . . . . . . . . . . . . . . . # $ % & % . . * & . # $ . . . % & # % & . .",
" . + @ + + + + + @ + . . . . . . . . . . . . . . . . = - = = ; > . & = - = = * . > - = = - = . .",
" . + + + @ @ @ + + + . . . . . . . . . . . . . . . . = = , , = ' . # = ) . ' & . ! = $ . ' = . .",
" . + + @ + + + @ + + . . . . . . . . . . . . . . . . = & . . & = . & = . . & # . & & . . ) = . .",
" . + @ + + @ + + @ + . . . . . . . . . . . . . . . . = - . . - = . & = . . & & . # - % . ~ = . .",
" . + + @ + + + @ + + . . . . . . . . . . . . % & * . = = $ * = ! . & = . . & # . $ = & ) - = . .",
" . + + + @ @ @ + + + . . . . . . . . . . . . ) = & . = ' ' = & . . # = . . # { . . & = = & = . .",
" . + @ + + + + + @ + . . . . . . . . . . . . . . . . = & . . . . . . . . . . . . * & % . ! = . .",
" . + + + @ + @ + + + . . . . . . . . . . . . . . . . = & . . . . . . . . . . . . % = = ' = ! . .",
" . + + + + + + + + + . . . . . . . . . . . . . . . . . . . . . . . . . . . . . . . . . . . . . .",
" . . . . . . . . . . . . . . . . . . . . . . . . . . . . . . . . . . . . . . . . . . . . . . . .",
" . = = = = = = = = = = = ] = ^ ] ^ ^ ^ / ^ ( / ( ( ( ( _ : _ _ _ - _ ; - ; ; ; ; < [ < < < < } .",
" . = = = = = = = = ] ] ^ ^ / / / ( / ( ( : : _ : _ _ - _ - - ; ; ; [ [ [ < [ < } < [ < [ < } } .",
" . = = = = = = = | 1 2 . 3 4 . , , . 4 5 . 2 3 6 | 5 2 . 5 4 . > > . 4 7 . 2 5 6 8 9 < < } < 0 .",
" . = = = = = = ] 1 a % . b c . d e . f $ . 1 b 4 4 g h . e i . j ) . % b . 5 k l m 8 0 } } } } .",
" . = = = = = = ] 3 n % . ) c . i e . o * . 5 e 4 p q h . j i . r ) . h k . , ) l s & 0 } < 0 0 .",
" . = = = = = = ] 3 t u . q ) . c g . % s . 5 g > p q o . ) j . r e . o * . 7 k , m # 0 } } 0 } .",
" . = = = = = = ^ . v w x y y z A B B C D E F G F E E H C C C C I J E E F K G L . * & 0 0 } 0 9 .",
" . = = = = = = / . M N O P Q R S T U V W X Y Z `. ...+ W.@.#.$.%.&.&.&.*.= Y.- . j.; 9 0 } 0 0 .",
" . = = = = = = ( ..>., O.'.).!.~.{ U.] W.^./.(._.:.<.[.}.|.1.1.2.1.3.4.1.5 Y.6 . r a 9 0 0 9 9 .",
" . = = = = ] ] / ..7.8.9.0.).a.b.{.c.d.e.1.f.g.h.i.-.f.2.j.j.k.k.j.j.|.[.5.l.( . % a 9 0 9 9 ' .",
" . = = = = ] ] ( ..m.9.0.n R.!.o.b T.p.q.k.r.[.|./ Z.s.t ` ` `.5 `.5 `.r.u Y.( . u a ' 0 9 0 ' .",
" . = = ] ] ] ^ ( ..m.9 Q R.a S.~.{.v.w.@.x.|./.|.[.<./.2.2.t.5.5.y.z.x.|.A.j.B . u a.C 9 9 9 ' .",
" . = = ] ^ ] ^ : ..D.9.'.).a.o S.b.c.E.F.G.s.|.:.B.g.g.g.(._ Z.u.j.t.A.|.5.5.B . u a.C 9 9 ' ' .",
" . ] ] ] ] ^ ^ ( ..D P P.0.!.a.a.b.c.d.F.u./.[.B.i._.[ D.H L E.h.f Z.<._.j.5.B . % n.C ' ' 9 ' .",
" . = ^ ] ^ ^ ^ : ..> O.8 Q.!.! R S T.e.I.J.2.K.h.K.L.M.g.N.O.h F.H.B.6.:.t.y.B . u a.P 9 ' '.C .",
" . ^ ] ^ ^ ] / _ . M N.,.9.) R R.b U.@.Q.I.5.=.r.|.R. ._.B.h._.-.O.g.h./.S.T._ . % n.P 9 ' '.C .",
" . ^ ] ^ / / / _ ..> N O.9.n.! R.{.d.U.#.V.W.X.Y.S `.= ` Z.<.r._._.<.:.s.Z.Z.f . % n.P '.C '.P .",
" . ^ ^ ^ / / / _ . M.`.8.9.).a S T.w+ + +.+++@+.+++#+$+% `.S.S+&.k Y.|.k+$+*._ . % n.P '.C.C.C .",
" . ^ / ^ / / ( _ . M O P.'.n.! S.b U+=+-+;+>+,+'+)+!+~+{+~+]+]+^+]+/.5.k+^+/._ . u !.P.C.C.C.P .",
" . ^ / / / ( / _ ..D.9.0.) R.o.~.b.d.E.d+,+;+;+'+'+)+'+'+>+)+)+)+(+_+:+&+<+[.: . % !.P.C.P.P.P .",
" . / ^ ( / ( ( - ..m P.0.n R R.~.{ U.p.d+}+ +|+-+'+>+'+'+1+>+(+'+)+2+3.5+2+4._ . u !+5.C.P.C.P .",
" . / / ( / ( ( - ..m P.'.).) R.a.{.c V.d+6+;+- V+-+'+'+|+,+(+)+7+>+>+8 Y+2+9._ . % ~+5.P.C+5+5 .",
" . ( / ( ( ( : ; ..D P P.'.'.n R.~.v V.d.q+0+'+a.p V V.]+|+|+b+7+0+|+2+c+)+d._ . % ~+5.P.P.P+5 .",
" . ( ( / ( : : - . M N.`.9.) R R.{.v.]+e+}+'+7 V V+=+b V+=+|+'+'+'+>+1+f.&+#.f . % ~+g.P.P+5+g .",
" . / ( ( : : : ; . M., ^.9.0.).a T.v V W+h+)+|+7.d+=+=+=+|+a+)+'+1+>+>+:+i+j.( . % ~+5.P+5+5+g .",
" . ( : ( : _ _ ; . y.D.m+k+k+l+m+m+m+n+o+p.N.N+n+n+n+n+q+r+r.N.N.N.N.N+s.i+t E . o+u+g+5+5+g+5 .",
" . ( ( : : _ : ; . . . . . . . . . . . . . . . . . . . . . . . . . . . . . . . . % ~+g+5+g+5+g .",
" . : : _ : _ _ ; 5 ) p . l 4 . p , . 2 5 . L > 6 6 l | . 4 4 . 2 > . 2 , . 6 > 6 i ! 8+5+g+5+g .",
" . ( _ : _ : _ [ 5 s 3 . r u . % i . 3 d . > i p | r 5 . u % . o f . 5 c . 4 f p g n 8+5+g+g 8 .",
" . _ : _ _ - - [ 3+u % . j c . f e . h * . , q 4 p j h . i i . u ) . 1 e . , d 4 * a 8+g+g 8 8 .",
" . : _ : _ _ - [ 6 > 6 . 2 | . 2 2 . L p . 6 2 6 . p 6 . 2 | . | 2 . | 2 . 6 2 6 b n 8+g 8+g { .",
" . _ _ - - - ; [+5+u $ k e * g q b g q k g q q g q ) g q d k e d e e j e e j d k * a 8 8+g 8 8 .",
" . _ _ _ - - - ; 0+g & # # # #+v+v+v.;+v.; t.;.; a t t a a a a n a n n n n ! ! n a & { 8 8 { { .",
" . - _ - ; ; ; ; [ < < } } 0 0 0 0 0 9 ' 9 ' '.C.C.C.P.P.P.P+5+5+g+5+g+g+g 8 8 { 8+g+g 8 { 8 { .",
" . . . . . . . . . . . . . . . . . . . . . . . . . . . . . . . . . . . . . . . . . . . . . . . ."};
