/* XPM */
static char * file_dot_mpg_xpm[] = {
"48 48 344 2",
"  	c None",
" .	c #000000",
" +	c #E5E5E5",
" @	c #AAAAAA",
" #	c #717171",
" $	c #383838",
" %	c #FFFFFF",
" &	c #E2E2E2",
" *	c #1C1C1C",
" =	c #555555",
" -	c #C6C6C6",
" ;	c #8D8D8D",
" >	c #FDFDFD",
" ,	c #FCFCFC",
" '	c #FBFBFB",
" )	c #FAFAFA",
" !	c #F8F8F8",
" ~	c #F7F7F7",
" {	c #F6F6F6",
" ]	c #F5F5F5",
" ^	c #F4F4F4",
" /	c #F2F2F2",
" (	c #F1F1F1",
" _	c #F0F0F0",
" :	c #EFEFEF",
" <	c #EEEEEE",
" [	c #ECECEC",
" }	c #EBEBEB",
" |	c #EAEAEA",
" 1	c #E9E9E9",
" 2	c #E8E8E8",
" 3	c #E6E6E6",
" 4	c #E4E4E4",
" 5	c #E3E3E3",
" 6	c #E1E1E1",
" 7	c #E0E0E0",
" 8	c #DFDFDF",
" 9	c #DEDEDE",
" 0	c #DDDDDD",
" a	c #DBDBDB",
" b	c #DADADA",
" c	c #D9D9D9",
" d	c #D8D8D8",
" e	c #D7D7D7",
" f	c #D5D5D5",
" g	c #D4D4D4",
" h	c #F9F9F9",
" i	c #D3D3D3",
" j	c #F3F3F3",
" k	c #DCDCDC",
" l	c #D2D2D2",
" m	c #EDEDED",
" n	c #E7E7E7",
" o	c #D6D6D6",
" p	c #D1D1D1",
" q	c #FEFEFE",
" r	c #D0D0D0",
" s	c #6B6B6B",
" t	c #B4B4B4",
" u	c #686868",
" v	c #666666",
" w	c #656565",
" x	c #646464",
" y	c #636363",
" z	c #626262",
" A	c #616161",
" B	c #606060",
" C	c #5F5F5F",
" D	c #5E5E5E",
" E	c #5D5D5D",
" F	c #5C5C5C",
" G	c #5B5B5B",
" H	c #848484",
" I	c #CFCFCF",
" J	c #595959",
" K	c #A3A3A3",
" L	c #CECECE",
" M	c #525252",
" N	c #6E6E6E",
" O	c #727272",
" P	c #3B3B3B",
" Q	c #1D1D1D",
" R	c #5A5A5A",
" S	c #757575",
" T	c #C3C3C3",
" U	c #CBCBCB",
" V	c #CDCDCD",
" W	c #404040",
" X	c #575757",
" Y	c #454545",
" Z	c #1B1B34",
" `	c #434370",
". 	c #272748",
"..	c #121212",
".+	c #414141",
".@	c #505050",
".#	c #535353",
".$	c #0B0B0B",
".%	c #565656",
".&	c #A2A2A2",
".*	c #C1C1C1",
".=	c #CCCCCC",
".-	c #787878",
".;	c #929292",
".>	c #3D3D68",
".,	c #9292E3",
".'	c #9191E2",
".)	c #9393E4",
".!	c #8282D9",
".~	c #5757B0",
".{	c #4E4E8D",
".]	c #505099",
".^	c #0F0F0F",
"./	c #4C4C4C",
".(	c #737373",
"._	c #808080",
".:	c #101010",
".<	c #393939",
".[	c #858585",
".}	c #B7B7B7",
".|	c #C9C9C9",
".1	c #8F8F8F",
".2	c #6969C6",
".3	c #3C3C67",
".4	c #505097",
".5	c #7D7DD6",
".6	c #5353A8",
".7	c #5D5DBA",
".8	c #9595E4",
".9	c #5353AC",
".0	c #3E3E69",
".a	c #060606",
".b	c #3D3D3D",
".c	c #7F7F7F",
".d	c #343434",
".e	c #7C7C7C",
".f	c #B3B3B3",
".g	c #C8C8C8",
".h	c #CACACA",
".i	c #161616",
".j	c #222222",
".k	c #2E2E2E",
".l	c #212121",
".m	c #4B4B82",
".n	c #4F4F92",
".o	c #CACAF7",
".p	c #D1D1F8",
".q	c #7171CA",
".r	c #8383DA",
".s	c #F5F5FC",
".t	c #5252A5",
".u	c #010101",
".v	c #131313",
".w	c #232323",
".x	c #292929",
".y	c #050505",
".z	c #3C3C3C",
".A	c #7E7E7E",
".B	c #B2B2B2",
".C	c #C7C7C7",
".D	c #3E3E3E",
".E	c #49497A",
".F	c #5555AE",
".G	c #FCFCFD",
".H	c #C4C4F7",
".I	c #ADADF0",
".J	c #4B4B80",
".K	c #030303",
".L	c #4B4B4B",
".M	c #090909",
".N	c #B1B1B1",
".O	c #777777",
".P	c #3D3D67",
".Q	c #5959B4",
".R	c #51519E",
".S	c #E9E9FC",
".T	c #B3B3F2",
".U	c #A2A2EB",
".V	c #5858B1",
".W	c #C2C2F5",
".X	c #040404",
".Y	c #313131",
".Z	c #6A6A6A",
".`	c #0D0D0D",
"+ 	c #2F2F2F",
"+.	c #AFAFAF",
"++	c #C5C5C5",
"+@	c #818181",
"+#	c #8E8EE1",
"+$	c #40406D",
"+%	c #C8C8F7",
"+&	c #50509B",
"+*	c #272746",
"+=	c #36365F",
"+-	c #9B9BE8",
"+;	c #5F5FBA",
"+>	c #C0C0F5",
"+,	c #F3F3FC",
"+'	c #464673",
"+)	c #363636",
"+!	c #0E0E0E",
"+~	c #303030",
"+{	c #C4C4C4",
"+]	c #141414",
"+^	c #202020",
"+/	c #2B2B2B",
"+(	c #1F1F1F",
"+_	c #5D5DB8",
"+:	c #1E1E37",
"+<	c #010104",
"+[	c #0C0C19",
"+}	c #BCBCF3",
"+|	c #272727",
"+1	c #3A3A3A",
"+2	c #7B7B7B",
"+3	c #AEAEAE",
"+4	c #C2C2C2",
"+5	c #494978",
"+6	c #A4A4ED",
"+7	c #22223F",
"+8	c #313156",
"+9	c #252544",
"+0	c #7474CD",
"+a	c #E5E5FA",
"+b	c #4A4A4A",
"+c	c #797979",
"+d	c #ADADAD",
"+e	c #494949",
"+f	c #6262BD",
"+g	c #20203B",
"+h	c #0C0C0C",
"+i	c #2D2D2D",
"+j	c #767676",
"+k	c #ABABAB",
"+l	c #C0C0C0",
"+m	c #323257",
"+n	c #42426F",
"+o	c #20203D",
"+p	c #18182F",
"+q	c #0E0E1D",
"+r	c #35355C",
"+s	c #353535",
"+t	c #707070",
"+u	c #BFBFBF",
"+v	c #464675",
"+w	c #F9F9FC",
"+x	c #EDEDFC",
"+y	c #7878D1",
"+z	c #3A3A63",
"+A	c #444471",
"+B	c #111111",
"+C	c #252525",
"+D	c #BEBEBE",
"+E	c #4A4A7D",
"+F	c #D5D5FA",
"+G	c #8D8DE0",
"+H	c #070710",
"+I	c #2C2C4F",
"+J	c #474776",
"+K	c #AFAFF0",
"+L	c #3F3F3F",
"+M	c #A9A9A9",
"+N	c #BDBDBD",
"+O	c #484848",
"+P	c #585858",
"+Q	c #7070C9",
"+R	c #E1E1FA",
"+S	c #000001",
"+T	c #16162B",
"+U	c #030306",
"+V	c #52529F",
"+W	c #6060BB",
"+X	c #A7A7A7",
"+Y	c #BCBCBC",
"+Z	c #7D7D7D",
"+`	c #3F3F6A",
"@ 	c #AAAAEF",
"@.	c #2F2F52",
"@+	c #080811",
"@@	c #111120",
"@#	c #BEBEF5",
"@$	c #BABABA",
"@%	c #6E6EC9",
"@&	c #F7F7FC",
"@*	c #8181D8",
"@=	c #40406B",
"@-	c #A6A6A6",
"@;	c #B9B9B9",
"@>	c #BBBBBB",
"@,	c #181818",
"@'	c #242424",
"@)	c #4B4B7E",
"@!	c #454572",
"@~	c #2A2A2A",
"@{	c #747474",
"@]	c #A5A5A5",
"@^	c #B8B8B8",
"@/	c #444444",
"@(	c #4F4F4F",
"@_	c #5A5AB5",
"@:	c #CFCFF8",
"@<	c #A3A3EC",
"@[	c #6F6F6F",
"@}	c #515151",
"@|	c #8585DA",
"@1	c #5252A1",
"@2	c #B6B6B6",
"@3	c #333333",
"@4	c #8080D7",
"@5	c #6868C3",
"@6	c #020202",
"@7	c #070707",
"@8	c #B5B5B5",
"@9	c #191919",
"@0	c #262626",
"@a	c #232340",
"@b	c #151528",
"@c	c #151515",
"@d	c #A1A1A1",
"@e	c #474747",
"@f	c #676767",
"@g	c #A0A0A0",
"@h	c #8E8E8E",
"@i	c #696969",
"@j	c #1A1A1A",
"@k	c #434343",
"@l	c #9F9F9F",
"@m	c #828282",
"@n	c #8B8B8B",
"@o	c #A8A8A8",
"@p	c #323232",
"@q	c #838383",
"@r	c #919191",
"@s	c #9D9D9D",
"@t	c #909090",
"@u	c #8C8C8C",
"@v	c #8A8A8A",
"@w	c #888888",
"@x	c #878787",
"@y	c #868686",
"@z	c #949494",
"@A	c #B0B0B0",
"@B	c #979797",
"@C	c #9C9C9C",
" . . . . . . . . . . . . . . . . . . . . . . . . . . . . . . . . . . . . . . . . . . . . . . . .",
" . . . . . . . . . . . . . . . . . . . . . . . . . . . . . . . . . . . . . . . . . . . . . . . .",
" . . . . + . + . . . . . . . . . . . . . . . @ # $ @ . . @ # . . . @ # $ @ $ . . . # @ # # # . .",
" . . + . . . . . + . . . . . . . . . . . . . % & % % & % % % # . . % & % % & * . = % % % & @ . .",
" . . . . + + + . . . . . . . . . . . . . . . % & * # % # . - @ . . % % * * % - . & % * * % @ . .",
" . . . + . . . + . . . . . . . . . . . . . . % @ . = % . . @ @ . . % @ . . @ % . % = . . @ @ . .",
" . . + . . + . . + . . . . . . . . . . . . . % @ . = % . . @ @ . . % & . . & % . % - . . & @ . .",
" . . . + . . . + . . . . . . . . . . $ @ # . % @ . = % . . @ @ . . % % # # % ; . - % # # % @ . .",
" . . . . + + + . . . . . . . . . . . = % @ . % @ . = % . . @ @ . . % - - % @ . . * & % & - @ . .",
" . . + . . . . . + . . . . . . . . . . . . . . . . . . . . . . . . % @ . . . . . @ @ . . & @ . .",
" . . . . + . + . . . . . . . . . . . . . . . . . . . . . . . . . . % @ . . . . . ; % & & % $ . .",
" . . . . . . . . . . . . . . . . . . . . . . . . . . . . . . . . . . . . . . . . . . . . . . . .",
" . . . . . . . . . . . . . . . . . . . . . . . . . . . . . . . . . . . . . . . . . . . . . . . .",
" . % % % % % % % % % % % > , ' ) ! ~ { ] ^ / ( _ : < [ } | 1 2 3 + 4 5 6 7 8 9 0 a b c d e f g .",
" . % % % % % % % % % % > , ' ) h ~ { ] ^ / ( _ : < [ } | 1 2 3 + 4 5 & 7 8 9 0 a b c d e f g i .",
" . % % % % % % % % % > , ' ) h ~ { ] ^ j ( _ : < [ } | 1 2 3 + 4 5 & 7 8 9 0 k b c d e f g i l .",
" . % % % % % % % % > , ' ) h ~ { ] ^ j ( _ : < m } | 1 2 n + 4 5 & 7 8 9 0 k b c d e o g i l p .",
" . % % % % % % % q , ' ) h ! { ] ^ j ( _ : < m } | 1 2 n + 4 5 & 6 8 9 0 k b c d e o g i l p r .",
" . % % % % % % s d ) ) t u v v w x x y y z z A B B B C D D D E E F G G G G H o e I J K r p r L .",
" . % % % % % > . M N O P . . . . . . . . . . . . . . . . . . . . . . . . . Q R B F . S T U I V .",
" . % % % % q h . W X A Y Z ` ` ` ` ` ` ` ` ` ` ` ` ` ` ` ` ` ` ` ` ` ` `. ...+.@.#.$.%.&.* U.= .",
" . % % % q > j . D.-.; v.>.,.'.).).).).).).,.!.~.{.{.~.!.,.).).).).).).).].^./.(._.:.<.[.}.| U .",
" . % % q > ' ( . M N.1 w.>.,.'.).).).).).2.3.4.5.6.7.8.9.0.2.).).).).).).].a.b N.c.^.d.e.f.g.h .",
" . % q > , ) _ ..i.j.k.l.>.).'.).).).,.m.n.o.p.p.q.r q q.s.t.m.,.).).).).].u.v.w.x.y.z.A.B.C.| .",
" . q > , ) h : ..x.D.# P.>.,.'.).).,.E.F.p.p.p.p.q.r q.G.H.I.J.E.,.).).).].K.j W.L.M.<.e.N -.g .",
" . > , ) h ! < ..L F.O =.P.,.'.).).Q.R.p.p.p.p.p.q.r.S.T.U.V.W.V.Q.).).).].X.Y G.Z.`+ .-+.++ - .",
" . , ' h ! ~ m ../ y+@ E.>.,.'.)+#+$+%.p.p.p.T+&+*+=+-.S+;+> q+,+'+#.).).].y+) y.(+!+~.-+.+{++ .",
" . ' h ! ~ { [ .+]+^+/+(.>.).'.)+_.q.p.p.p.o+: .+< .+[.Q+} q q q.r+_.).).].u...l+|.y+1+2+3+4+{ .",
" . h ! ~ { ] | ..x.D.#.z.>.,.'.)+5+}.p.p.p+6+7+8+;+9 `+0 q q q q+a.E.).).].K.j W+b.M $+c+d.* T .",
" . ! ~ { ] ^ 1 .+e R S.#.P.'.'.)+$.p.p.p.p.p.p.p+f+5+g.T q q q q q `.).).].X+~ J u+h+i+j+k+l+4 .",
" . ~ { ] ^ / 2 ..L z.A G.>.,.'.)+m+n+n+n+n+n+n+n+o+p+q+r+n+n+n+n+n+m.).).].y+s B+t+!+  S+k+u.* .",
" . { ] ^ / ( n ..v+(.x Q.>.,.'.)+v q q q q+w.S+x+y.  .+z.p.p.p.p.p+A.).).].u+B+^+C.X.<.- @+D+l .",
" . ] ^ j ( _ 3 ..x.D M.z.>.,.'.)+E+F q q q+G+H+I.!+J .. .p.p.p.p+K+E.).).].K.j+L+e.M+)+j+M+N+D .",
" . ^ j ( _ : + .+O+P O M.P.'.'.).2+Q q q q+R+[+S+T+U .+V.p.p.p.p+W.2.).).].X+  X w+h+i.(+X+Y+N .",
" . j ( _ : < 4 .+e C+Z R.>.,.'.).,+`.S q q %@ @.@+@@.4+%.p.p.p@#.3.,.).).].X.d C N.`+ .(+X@$+Y .",
" . / _ : < m & ... Q+| *.>.,.'.).)@%+v@& q % %.G@*+Q.p.p.p.p.o@=@%.).).).].u.: Q.j.X $ S@-@;@> .",
" . _ : < m [ 6 .@,@'+~.w.>.).'.).).).9@)@& % % q.r.q.p.p.p.o@!.9.).).).).].u+]@'@~.y+s@{@]@^@$ .",
" . : < m [ | 7 .@/@( w+O.P.,.'.).).).)@_ `.H q q.r.q.p@:@<.0@_.).).).).).].X.x./+P.$.x@[ K.}@; .",
" . < m [ | 1 8 . Y@} u+b.>.).'.).).).).)@|.E@)@_.m+'@1+J.E@|.).).).).).).].X+/@( G.$.x N.&@2@^ .",
" . m [ } 1 2 9 ..l@3 Y.Y.>.,.'.).).).).).).).,@4@5@5@4.,.).).).).).).).).]@6 *.d.z@7.d #.&@8@2 .",
" . [ } 1 2 n 0 .@9@0@3@'+q@a+7@a@a@a@a@a@a@a@a@a@a@a@a@a@a@a@a@a@a@a@a@a@b@6@c+|+i.y+s #@d t@8 .",
" . } 1 2 n 3 k .@e R S = . . . . . . . . . . . . . . . . . . . . . . . . ..X+~ J@f+h+/ N@g.B t .",
" . | 2 n 3 + b@h R+P #@i W@j.M.y.y.y.y.y.y.y.y.y.y.y.y.y.y.y.y.y.y.y.y.y.y.:.Y.% y+O@k@[@l.N.f .",
" . 2 n 3 + 4 a@8@m@n@o@]+@.@ $.d.d@3@3@p.Y.Y.Y.Y.Y+~+~+~+ + + .k.k.k+i+i.k+1 F@q@r.c.Z._ K.N.B .",
" . n 3 + 4 & 9 V.}.* I L@;@s@t@u@n@v@v@w@w@x@y@y H H@q@m@m+@._.c.c.A+Z.e+Z@m@z+M@A@-@B@C+k.N.N .",
" . 3 + 4 & 6 7 a o o b d i.= -+++{ T+4+l+u+D+N@>@$@$@;@^@2@8 t.f.B@A+.+3+3+..N@8@2.f+3+3@A.N@A .",
" . + 4 5 6 7 8 9 k a b c d o f g l p I L V.= U.|.g.C -+{ T+4.*+l+D+N+Y@>@$@;@^.}@2@8.f.B.N@A+. .",
" . . . . . . . . . . . . . . . . . . . . . . . . . . . . . . . . . . . . . . . . . . . . . . . ."};
