/* XPM */
static char * file_dot_ps_xpm[] = {
"48 48 283 2",
"  	c None",
" .	c #000000",
" +	c #E5E5E5",
" @	c #A8A8A8",
" #	c #6F6F6F",
" $	c #373737",
" %	c #FCFCFC",
" &	c #DFDFDF",
" *	c #1B1B1B",
" =	c #545454",
" -	c #C3C3C3",
" ;	c #8B8B8B",
" >	c #FFFFFF",
" ,	c #FDFDFD",
" '	c #FBFBFB",
" )	c #FAFAFA",
" !	c #F8F8F8",
" ~	c #F7F7F7",
" {	c #F6F6F6",
" ]	c #F5F5F5",
" ^	c #F4F4F4",
" /	c #F2F2F2",
" (	c #F1F1F1",
" _	c #F0F0F0",
" :	c #EFEFEF",
" <	c #EEEEEE",
" [	c #ECECEC",
" }	c #EBEBEB",
" |	c #EAEAEA",
" 1	c #E9E9E9",
" 2	c #E8E8E8",
" 3	c #E6E6E6",
" 4	c #E4E4E4",
" 5	c #E3E3E3",
" 6	c #E1E1E1",
" 7	c #E0E0E0",
" 8	c #DEDEDE",
" 9	c #DDDDDD",
" 0	c #DBDBDB",
" a	c #DADADA",
" b	c #D9D9D9",
" c	c #D8D8D8",
" d	c #D7D7D7",
" e	c #D5D5D5",
" f	c #D4D4D4",
" g	c #F9F9F9",
" h	c #E2E2E2",
" i	c #D3D3D3",
" j	c #F3F3F3",
" k	c #EDEDED",
" l	c #E7E7E7",
" m	c #DCDCDC",
" n	c #D6D6D6",
" o	c #D2D2D2",
" p	c #010101",
" q	c #020202",
" r	c #ADADAD",
" s	c #C6C6C6",
" t	c #D1D1D1",
" u	c #7F7F7F",
" v	c #676767",
" w	c #ACACAC",
" x	c #CECECE",
" y	c #D0D0D0",
" z	c #D34343",
" A	c #424242",
" B	c #9C9C9C",
" C	c #CBCBCB",
" D	c #3C3C3C",
" E	c #999999",
" F	c #CACACA",
" G	c #CFCFCF",
" H	c #CDCDCD",
" I	c #3B3B3B",
" J	c #989898",
" K	c #C9C9C9",
" L	c #CCCCCC",
" M	c #FEFEFE",
" N	c #F70707",
" O	c #3A3A3A",
" P	c #979797",
" Q	c #C8C8C8",
" R	c #969696",
" S	c #C7C7C7",
" T	c #393939",
" U	c #FCFEFE",
" V	c #F9FDFE",
" W	c #C6EAFB",
" X	c #959595",
" Y	c #C4C4C4",
" Z	c #FDFEFE",
" `	c #FAFDFE",
". 	c #F7FCFE",
"..	c #C7EAFB",
".+	c #C4E9FA",
".@	c #949494",
".#	c #FBFDFE",
".$	c #F8FCFE",
".%	c #F5FBFE",
".&	c #F2FAFE",
".*	c #C5E9FB",
".=	c #C2E8FA",
".-	c #9EDBF8",
".;	c #939393",
".>	c #C2C2C2",
".,	c #C5C5C5",
".'	c #F9FCFE",
".)	c #F6FBFE",
".!	c #F3FAFE",
".~	c #EFF9FD",
".{	c #C3E8FA",
".]	c #BFE7FA",
".^	c #BCE6FA",
"./	c #9FDCF8",
".(	c #9CDAF8",
"._	c #383838",
".:	c #929292",
".<	c #C1C1C1",
".[	c #F4FBFE",
".}	c #F0F9FE",
".|	c #EDF8FD",
".1	c #C0E8FA",
".2	c #BDE7FA",
".3	c #BAE5FA",
".4	c #9DDBF8",
".5	c #9ADAF8",
".6	c #919191",
".7	c #C0C0C0",
".8	c #F1FAFE",
".9	c #EEF9FD",
".0	c #EBF7FD",
".a	c #E8F6FD",
".b	c #C1E8FA",
".c	c #BEE7FA",
".d	c #BBE6FA",
".e	c #B8E5FA",
".f	c #B5E3F9",
".g	c #9BDAF8",
".h	c #98D9F7",
".i	c #BFBFBF",
".j	c #ECF8FD",
".k	c #E9F7FD",
".l	c #E6F5FD",
".m	c #B9E5FA",
".n	c #B6E4FA",
".o	c #B2E3F9",
".p	c #AFE1F9",
".q	c #9FDBF8",
".r	c #99D9F8",
".s	c #96D8F7",
".t	c #909090",
".u	c #EAF7FD",
".v	c #E7F6FD",
".w	c #E3F5FD",
".x	c #E0F3FC",
".y	c #BDE6FA",
".z	c #B0E2F9",
".A	c #ADE1F9",
".B	c #AADFF9",
".C	c #A7DEF8",
".D	c #A3DDF8",
".E	c #A0DCF8",
".F	c #97D8F7",
".G	c #93D7F7",
".H	c #8F8F8F",
".I	c #BDBDBD",
".J	c #EEF8FD",
".K	c #E5F5FD",
".L	c #E1F4FD",
".M	c #DEF3FC",
".N	c #DBF1FC",
".O	c #AEE1F9",
".P	c #ABE0F9",
".Q	c #A8DFF9",
".R	c #A5DDF8",
".S	c #A1DCF8",
".T	c #95D8F7",
".U	c #91D6F7",
".V	c #8E8E8E",
".W	c #BCBCBC",
".X	c #BEBEBE",
".Y	c #E2F4FD",
".Z	c #DFF3FC",
".`	c #DCF2FC",
"+ 	c #D9F1FC",
"+.	c #D6EFFC",
"++	c #D2EEFB",
"+@	c #ACE0F9",
"+#	c #A9DFF9",
"+$	c #A6DEF8",
"+%	c #A2DDF8",
"+&	c #92D7F7",
"+*	c #8FD6F7",
"+=	c #363636",
"+-	c #8D8D8D",
"+;	c #BBBBBB",
"+>	c #DDF2FC",
"+,	c #DAF1FC",
"+'	c #D7F0FC",
"+)	c #D3EFFC",
"+!	c #D0EDFB",
"+~	c #CDECFB",
"+{	c #B7E4FA",
"+]	c #B3E3F9",
"+^	c #9AD9F8",
"+/	c #90D6F7",
"+(	c #8DD5F7",
"+_	c #8C8C8C",
"+:	c #BABABA",
"+<	c #E4F5FD",
"+[	c #E1F4FC",
"+}	c #D8F0FC",
"+|	c #D4EFFC",
"+1	c #C8EAFB",
"+2	c #C4E9FB",
"+3	c #B8E4FA",
"+4	c #B4E3F9",
"+5	c #B1E2F9",
"+6	c #A4DDF8",
"+7	c #94D7F7",
"+8	c #8ED5F7",
"+9	c #8BD4F7",
"+0	c #B9B9B9",
"+a	c #E9F6FD",
"+b	c #CFEDFB",
"+c	c #CCECFB",
"+d	c #C9EBFB",
"+e	c #C5EAFB",
"+f	c #B5E4FA",
"+g	c #B2E2F9",
"+h	c #A5DEF8",
"+i	c #8CD4F7",
"+j	c #89D4F7",
"+k	c #353535",
"+l	c #B8B8B8",
"+m	c #E6F6FD",
"+n	c #E3F4FD",
"+o	c #CAEBFB",
"+p	c #C3E9FA",
"+q	c #ADE0F9",
"+r	c #8AD4F7",
"+s	c #8A8A8A",
"+t	c #B7B7B7",
"+u	c #D1EEFB",
"+v	c #CEEDFB",
"+w	c #CBEBFB",
"+x	c #A7DFF9",
"+y	c #97D9F7",
"+z	c #898989",
"+A	c #B5B5B5",
"+B	c #D8F1FC",
"+C	c #D5EFFC",
"+D	c #C8EBFB",
"+E	c #B5E4F9",
"+F	c #98D9F8",
"+G	c #8FD5F7",
"+H	c #343434",
"+I	c #B4B4B4",
"+J	c #B6B6B6",
"+K	c #D6F0FC",
"+L	c #C0E7FA",
"+M	c #878787",
"+N	c #B3B3B3",
"+O	c #B2B2B2",
"+P	c #6D6D6D",
"+Q	c #454545",
"+R	c #3F3F3F",
"+S	c #3E3E3E",
"+T	c #3D3D3D",
"+U	c #595959",
"+V	c #A5A5A5",
"+W	c #A2A2A2",
"+X	c #A0A0A0",
"+Y	c #9F9F9F",
"+Z	c #9E9E9E",
"+`	c #9D9D9D",
"@ 	c #9B9B9B",
"@.	c #9A9A9A",
"@+	c #888888",
"@@	c #AAAAAA",
"@#	c #B1B1B1",
"@$	c #B0B0B0",
"@%	c #AFAFAF",
" . . . . . . . . . . . . . . . . . . . . . . . . . . . . . . . . . . . . . . . . . . . . . . . .",
" . . . . . . . . . . . . . . . . . . . . . . . . . . . . . . . . . . . . . . . . . . . . . . . .",
" . . . . + . + . . . . . . . . . . . . . . . . . . . . . . . . . . @ # $ @ $ . . . . @ @ $ . . .",
" . . + . . . . . + . . . . . . . . . . . . . . . . . . . . . . . . % & % % & * . = % - - % $ . .",
" . . . . + + + . . . . . . . . . . . . . . . . . . . . . . . . . . % % * * % - . @ % * . @ # . .",
" . . . + . . . + . . . . . . . . . . . . . . . . . . . . . . . . . % @ . . @ % . = & % & ; * . .",
" . . + . . + . . + . . . . . . . . . . . . . . . . . . . . . . . . % & . . & % . = = $ # & @ . .",
" . . . + . . . + . . . . . . . . . . . . . . . . . . . . . $ @ # . % % # # % ; . & % * . - @ . .",
" . . . . + + + . . . . . . . . . . . . . . . . . . . . . . = % @ . % - - % @ . . = & % % - * . .",
" . . + . . . . . + . . . . . . . . . . . . . . . . . . . . . . . . % @ . . . . . . . . . . . . .",
" . . . . + . + . . . . . . . . . . . . . . . . . . . . . . . . . . % @ . . . . . . . . . . . . .",
" . . . . . . . . . . . . . . . . . . . . . . . . . . . . . . . . . . . . . . . . . . . . . . . .",
" . . . . . . . . . . . . . . . . . . . . . . . . . . . . . . . . . . . . . . . . . . . . . . . .",
" . > > > > > > > > > > > , % ' ) ! ~ { ] ^ / ( _ : < [ } | 1 2 3 + 4 5 6 7 & 8 9 0 a b c d e f .",
" . > > > > > > > > > > , % ' ) g ~ { ] ^ / ( _ : < [ } | 1 2 3 + 4 5 h 7 & 8 9 0 a b c d e f i .",
" . > > > > > , g ~ ~ ^ j / ( _ < k [ } | 2 l 3 + 5 h 6 7 & 9 m 0 a a c d n e f i i n d e f i o .",
" . > > > > , p q q . . . . . . . . . . . . . . p p p p p p p p p p p p p p p . . r s f f i o t .",
" . > > > > g q % u % % u u % u u % % % % u % % u % % % u % u % % % u % % % u % . v w x i o t y .",
" . > > > > ~ q u % z z u u % u % % u % % % u % u % u % u % u % % u % % u u % % . A B C o t y x .",
" . > > > > { . % u z z u % % u u % u % % u % % % u % u % % u u % % u % % u % % . D E F t y G H .",
" . > > > > ] . % u % % z % % % % % % % % u % % % % % % % % % % % % u % % % u % . I J K y G H L .",
" . > > > M ^ . N N u % % z % % % % % % u % % % % % % % % % % % % % % u % % % % . O P Q G H L C .",
" . > > M , / . > > N N % % z % % % % % % % % % % % % % % % % % % % % % % % % % . O R S x L C F .",
" . > M , % ( . > > > > N % z % u % % % % % % % % u % % N % % % % % % % % % % % . T R s L C F K .",
" . M , % ) _ . > > > U V N % z % % u u u % u u % % u N W N % u % u % % u % % % . T X Y C F K Q .",
" . , % ) g : . > > Z `.  N % u z % u % u % u % % % N...+ N % % u u % u u % % N . T.@ - F K Q s .",
" . % ' g ! < . > M.#.$.%.& N % % z u % % % u % % % N.*.= N % % u % % u % % N.- . T.;.> K Q S., .",
" . ' g ! ~ k . > U.'.).!.~ N u % % z z % % u u % % N.{.].^ N % % u % u % N./.( .._.:.< Q S., Y .",
" . g ! ~ { [ . Z `. .[.}.| N u % % z z % % % % % N.+.1.2.3 N % % % % % % N.4.5 .._.6.7 S., Y - .",
" . ! ~ { ] } ..#.$.%.8.9.0.a N u % % % % % % % % N.b.c.d.e.f N % % % % N.-.g.h . $.6.i s Y -.> .",
" . ~ { ] ^ 1 ..'.).&.~.j.k.l N % % % % % u % % u N.].^.m.n.o.p N N N N.q.(.r.s . $.t.i Y -.>.< .",
" . { ] ^ / 2 .. .!.}.|.u.v.w.x N % % % u % % % N.1.y.3 z z.z.A.B.C.D.E.4.5.F.G . $.H.I -.>.<.7 .",
" . ] ^ j ( l ..%.8.J.0.a.K.L.M.N N N % % u N N.b.c.d z z z.O.P.Q.R.S.-.g.h.T.U . $.V.W.>.<.7.X .",
" . ^ j ( _ 3 ..&.~.j.k.l.Y.Z.`+ +.++ N N N W z z z z.n.o.p+@+#+$+%.q.(.r.s+&+* .+=+-+;.<.7.i.I .",
" . j ( _ : + ..}.|.u.v.w.x+>+,+'+)+!+~ z z z.1.y.3+{+].z.A.B.C.D.E.4+^.F.G+/+( .+=+_+:.7.i.I.W .",
" . / _ : < 4 ..J.0.a+<+[.M.N+}+| z z z+1+2.b.c.d+3+4+5.O.P.Q+6.S.-.g.h+7.U+8+9 .+=+_+0.i.I.W+; .",
" . _ : < k 5 p.j+a.K.Y.Z.` z z z+b+c+d+e.=.].^.m+f+g.p+@+#+h+%.q.(.r.T+&+*+i+j .+k ;+l.X.W+;+: .",
" . : < k [ 6 ..u+m+n.x+>+, z z+!+~+o W+p.1.y.3.n+].z+q.B+$.D.E.4+^.s.G+/+(+r+j .+k+s+t.W+;+:+0 .",
" . < k [ | 7 ..v+<+[.M.N+'+|+u+v+w..+2.b.c.d+{+4+5.O.P+x+6.S.-.g+y+7.U+8+9+j+j .+k+z+A+;+:+0+l .",
" . k [ } 1 & ..K.Y.Z.`+B+C+++b+c+D.*.=.].^.e+E+g.p+@.Q+h+%.q.(+F.T+&+G+i+j+j+j .+H+z+I+:+0+l+J .",
" . [ } 1 2 8 .+n.x+>+,+K+)+!+~+o W+p+L.y.3.n+].z+q.B+$.D.E.4+^.s.G+/+(+j+j+j+j .+k+M+N+0+l+t+A .",
" . } 1 2 l 8 . . . . . . . . . . . . . . . . . . . . . . . . . . . . . . . . . . T+z+O+l+t+A+I .",
" . | 2 l 3 &+J+P+Q+R+S+T+T D D D I I I I O O T T T._._._ $ $ $+=+=+=+=+k+k+H+k T+U.@+O+t+A+I+N .",
" . 2 l 3 + h t+I+V+W+X+Y+Z+Z+`@ @ @. E E P R R X.@.;.:.6.6.H.V.V+-+_ ;+s+z+z@++z.@@@+A+J+I+N+O .",
" . l 3 + 4 h & a c d f i o t y x H L C K Q S s., -.>.<.7.i.X.I.W+;+:+l+t+J+A+N+N+N+A+J+I+N+O@# .",
" . 3 + 4 h 6 7 & 8 m 0 a b c n e f i o y G x H C F K Q S., Y -.>.<.i.X.I.W+;+0+l+t+J+I+N+O@#@$ .",
" . + 4 5 6 7 & 8 m 0 a b c n e f i o y G x H L F K Q S., Y -.>.<.i.X.I.W+;+0+l+t+J+A+N+O@#@$@% .",
" . . . . . . . . . . . . . . . . . . . . . . . . . . . . . . . . . . . . . . . . . . . . . . . ."};
