/* XPM */
static char * file_dot_tcl_xpm[] = {
"48 48 340 2",
"  	c None",
" .	c #000000",
" +	c #555555",
" @	c #FFFFFF",
" #	c #E5E5E5",
" $	c #AAAAAA",
" %	c #383838",
" &	c #E2E2E2",
" *	c #717171",
" =	c #8D8D8D",
" -	c #1C1C1C",
" ;	c #C6C6C6",
" >	c #FDFDFD",
" ,	c #FCFCFC",
" '	c #FBFBFB",
" )	c #F8F7F6",
" !	c #F4EBB4",
" ~	c #DCDCDC",
" {	c #EBEBEB",
" ]	c #F0E46C",
" ^	c #F5F18A",
" /	c #CFCFCF",
" (	c #E4E4E4",
" _	c #EFEFEF",
" :	c #EEEEEE",
" <	c #ECECEC",
" [	c #EAEAEA",
" }	c #E9E9E9",
" |	c #E8E8E8",
" 1	c #E6E6E6",
" 2	c #E3E3E3",
" 3	c #E1E1E1",
" 4	c #E0E0E0",
" 5	c #DFDFDF",
" 6	c #DEDEDE",
" 7	c #DDDDDD",
" 8	c #DBDBDB",
" 9	c #DADADA",
" 0	c #D9D9D9",
" a	c #D8D8D8",
" b	c #D7D7D7",
" c	c #D5D5D5",
" d	c #D4D4D4",
" e	c #F7F7F7",
" f	c #EEE77F",
" g	c #E6E1B4",
" h	c #B2B2B2",
" i	c #E1E1A3",
" j	c #FBF840",
" k	c #B7B49B",
" l	c #A1A1A1",
" m	c #D3D3D3",
" n	c #FAFAFA",
" o	c #F3F3F3",
" p	c #F8F04A",
" q	c #969595",
" r	c #A2A2A1",
" s	c #F5ED34",
" t	c #8E8E8C",
" u	c #7C7C7C",
" v	c #A6A6A6",
" w	c #D6D6D6",
" x	c #E7E7E7",
" y	c #D2D2D2",
" z	c #F9F9F9",
" A	c #F0F0F0",
" B	c #F8EA94",
" C	c #D2CB93",
" D	c #DFDB9F",
" E	c #848484",
" F	c #A0A0A0",
" G	c #CDCDCD",
" H	c #EEECEB",
" I	c #EDA37D",
" J	c #EA5328",
" K	c #E1CABF",
" L	c #C8C8C8",
" M	c #D1D1D1",
" N	c #FEFEFE",
" O	c #F8F8F8",
" P	c #E7E2CE",
" Q	c #9A9A9A",
" R	c #EAE24E",
" S	c #8E8E8D",
" T	c #989898",
" U	c #C7C7C7",
" V	c #EDEAE9",
" W	c #E1512A",
" X	c #4F2847",
" Y	c #0F2890",
" Z	c #7F4354",
" `	c #8B8B8B",
". 	c #C4C4C4",
"..	c #D0D0D0",
".+	c #F6F6F6",
".@	c #F1F1F1",
".#	c #E9E7E5",
".$	c #C0BFBE",
".%	c #EDE66D",
".&	c #8F8F8F",
".*	c #B1B1B1",
".=	c #ECEBEB",
".-	c #D75739",
".;	c #151D82",
".>	c #001AA9",
".,	c #0829AC",
".'	c #5C5B5C",
".)	c #ACACAC",
".!	c #CECECE",
".~	c #F5F5F5",
".{	c #F2F2F2",
".]	c #E4DDBE",
".^	c #DBD4A1",
"./	c #959595",
".(	c #C2C2C2",
"._	c #E69C86",
".:	c #0E1B8B",
".<	c #001DA9",
".[	c #4C5363",
".}	c #515151",
".|	c #A8A8A8",
".1	c #E2E0DF",
".2	c #F4F4F4",
".3	c #E7E0A6",
".4	c #C2BDB0",
".5	c #A2A2A2",
".6	c #EDDFD9",
".7	c #2D2767",
".8	c #425897",
".9	c #2E2E2E",
".0	c #767676",
".a	c #BBBBBB",
".b	c #E3DBA3",
".c	c #F6F14D",
".d	c #BABABA",
".e	c #DEDACB",
".f	c #F7EF56",
".g	c #CBCBCB",
".h	c #CCCCCC",
".i	c #F5E886",
".j	c #999999",
".k	c #B86E6C",
".l	c #001BA6",
".m	c #1030AC",
".n	c #282829",
".o	c #585858",
".p	c #CACACA",
".q	c #D9D2C6",
".r	c #F5F141",
".s	c #8A8A8A",
".t	c #B1AFAF",
".u	c #EAE478",
".v	c #F6EAAA",
".w	c #969696",
".x	c #B6B6B6",
".y	c #E4DFDC",
".z	c #2E246A",
".A	c #585B7B",
".B	c #85787C",
".C	c #D56337",
".D	c #D99D87",
".E	c #B8B8B8",
".F	c #DCD8AD",
".G	c #CFC987",
".H	c #7D7D7D",
".I	c #B2B1AE",
".J	c #B0AEAB",
".K	c #B9B9B9",
".L	c #E9E1D3",
".M	c #BEBEBE",
".N	c #E9CCBC",
".O	c #0120A4",
".P	c #001CA9",
".Q	c #2944A7",
".R	c #E56E49",
".S	c #7F7F7F",
".T	c #E8DE63",
".U	c #8D8C88",
".V	c #B4B4B4",
".W	c #C9C9C9",
".X	c #C8AEB6",
".Y	c #001AA7",
".Z	c #8074A3",
".`	c #B55A40",
"+ 	c #DCD070",
"+.	c #858585",
"++	c #EDEDED",
"+@	c #A5A0B4",
"+#	c #D7786F",
"+$	c #6B4F44",
"+%	c #887D74",
"+&	c #B0AD97",
"+*	c #B3B3B3",
"+=	c #A0A2C9",
"+-	c #0019A7",
"+;	c #0B2AAC",
"+>	c #EB6F3D",
"+,	c #2D2D2D",
"+'	c #C7B69C",
"+)	c #C1C1C1",
"+!	c #C5C5C5",
"+~	c #A9B6D2",
"+{	c #062AAF",
"+]	c #0E2BA1",
"+^	c #3D409B",
"+/	c #835447",
"+(	c #414141",
"+_	c #818181",
"+:	c #BDC3D3",
"+<	c #557BC9",
"+[	c #1D2F89",
"+}	c #6E577F",
"+|	c #292929",
"+1	c #6C6C6C",
"+2	c #ABABAB",
"+3	c #C3C3C3",
"+4	c #F1855E",
"+5	c #C3ADB2",
"+6	c #9595C2",
"+7	c #12298B",
"+8	c #1B3CAA",
"+9	c #292928",
"+0	c #525252",
"+a	c #E2E1E1",
"+b	c #DE4528",
"+c	c #101F87",
"+d	c #DDACA6",
"+e	c #0829A4",
"+f	c #5B536C",
"+g	c #8A6559",
"+h	c #757575",
"+i	c #BA594D",
"+j	c #0019A9",
"+k	c #0524A9",
"+l	c #ED9E84",
"+m	c #001AA4",
"+n	c #0420A6",
"+o	c #D8714C",
"+p	c #B5B5B5",
"+q	c #C0C0C0",
"+r	c #BA766B",
"+s	c #0E32B3",
"+t	c #E9A374",
"+u	c #001AA6",
"+v	c #0D269B",
"+w	c #9F5A47",
"+x	c #636363",
"+y	c #DD998D",
"+z	c #0221A9",
"+A	c #1843BC",
"+B	c #EB8B6F",
"+C	c #293299",
"+D	c #8E5B4F",
"+E	c #616161",
"+F	c #BFBFBF",
"+G	c #BDBDBD",
"+H	c #E8BBAD",
"+I	c #0626AF",
"+J	c #2F50BE",
"+K	c #E37971",
"+L	c #6C559D",
"+M	c #936758",
"+N	c #666666",
"+O	c #AFAFAF",
"+P	c #BCBCBC",
"+Q	c #E2CABE",
"+R	c #1A36A4",
"+S	c #3D64BE",
"+T	c #D17362",
"+U	c #A9A4D7",
"+V	c #95625A",
"+W	c #696969",
"+X	c #D4CDC9",
"+Y	c #3A4EB3",
"+Z	c #3C64BE",
"+`	c #CF615F",
"@ 	c #D5AFBF",
"@.	c #3D3837",
"@+	c #707070",
"@@	c #6762A5",
"@#	c #2D50BE",
"@$	c #C5666E",
"@%	c #0425AC",
"@&	c #A58A7B",
"@*	c #373737",
"@=	c #838383",
"@-	c #979EBC",
"@;	c #1543BE",
"@>	c #D97961",
"@,	c #506EBB",
"@'	c #C77B64",
"@)	c #A57769",
"@!	c #8C8C8C",
"@~	c #DCDAD9",
"@{	c #AAB1BF",
"@]	c #0F32B6",
"@^	c #DD7359",
"@/	c #193CB6",
"@(	c #1F37A0",
"@_	c #926C65",
"@:	c #E6BBA5",
"@<	c #8C536F",
"@[	c #0727A9",
"@}	c #DE866A",
"@|	c #2F2E84",
"@1	c #474241",
"@2	c #B7B7B7",
"@3	c #C6C4C3",
"@4	c #443C7F",
"@5	c #001CA7",
"@6	c #DC8E82",
"@7	c #0728A4",
"@8	c #985871",
"@9	c #313131",
"@0	c #BDADAA",
"@a	c #112996",
"@b	c #C98998",
"@c	c #122989",
"@d	c #946D69",
"@e	c #434343",
"@f	c #919191",
"@g	c #969598",
"@h	c #AA93B7",
"@i	c #2E2167",
"@j	c #435185",
"@k	c #282828",
"@l	c #A7A7A7",
"@m	c #7A7879",
"@n	c #B76961",
"@o	c #565656",
"@p	c #949494",
"@q	c #DBA389",
"@r	c #646464",
"@s	c #878787",
"@t	c #B0B0B0",
"@u	c #DCB79E",
"@v	c #868686",
"@w	c #A3A3A3",
"@x	c #846961",
"@y	c #242121",
" . . . . . . . . . . . . . . . . . . . . . . . . . . . . . . . . . . . . . . . . . . . . . . . .",
" . . . . . . . . . . . . . . . . . . . . . . . . . . . . . . . . . . . . . . . . . . . + @ + . .",
" . . # # # # # # # . . . . . . . . . . . . . . . . . . . . . . . . $ @ . . . . . . . . + @ + . .",
" . . # . . . . . # . . . . . . . . . . . . . . . . . . . . . . . % & @ $ . . % $ * . . + @ + . .",
" . . # . # # # . # . . . . . . . . . . . . . . . . . . . . . . . % & @ $ . = @ @ @ = . + @ + . .",
" . . # . . . . . # . . . . . . . . . . . . . . . . . . . . . . . . $ @ . - @ = . = @ . + @ + . .",
" . . # . # # # . # . . . . . . . . . . . . . . . . . . . . . . . . $ @ . + @ . . . . . + @ + . .",
" . . # . . . . . # . . . . . . . . . . . . . . . . . . . . . . . . $ @ . + @ % . % $ . + @ + . .",
" . . # . # # # . # . . . . . . . . . . . . . . . . . . . . % $ * . $ @ + - @ & + $ & . + @ + . .",
" . . # . . . . . # . . . . . . . . . . . . . . . . . . . . + @ $ . + @ @ . + ; @ & % . + @ + . .",
" . . # # # # # # # . . . . . . . . . . . . . . . . . . . . . . . . . . . . . . . . . . . . . . .",
" . . . . . . . . . . . . . . . . . . . . . . . . . . . . . . . . . . . . . . . . . . . . . . . .",
" . . . . . . . . . . . . . . . . . . . . . . . . . . . . . . . . . . . . . . . . . . . . . . . .",
" . @ @ @ @ @ @ @ @ @ @ @ > , ' ) ! ~ { ] ^ / ( _ _ : < { [ } | 1 # ( 2 3 4 5 6 7 8 9 0 a b c d .",
" . @ @ @ @ @ @ @ @ @ @ > , ' e f g h i j k l d { : < { [ } | 1 # ( 2 & 4 5 6 7 8 9 0 a b c d m .",
" . @ @ @ @ @ @ @ @ @ > , ' n o p q r s t u v w [ [ } 2 # x 1 # ( 2 & 4 5 6 7 ~ 9 0 a b c d m y .",
" . @ @ @ @ @ @ @ @ > , ' n z A B = C D E F G ( H I J K L 7 ( ( 2 & 4 5 6 7 ~ 9 0 a b w d m y M .",
" . @ @ @ @ @ @ @ N , ' n z O _ P Q R S T U 2 V W X Y Z `.  5 2 & 3 5 6 7 ~ 9 0 a b w d m y M.. .",
" . @ @ @ @ @ @ N , ' n z O.+.@.#.$.%.&.* ~.=.-.;.>.>.,.'.) 9 & 3 5 6 7 ~ 8 0 a b w d m y M...! .",
" . @ @ @ @ @ N , ' n z O.+.~.{ 2.].^./.( &._.:.>.>.<.[.}.| w 7 9.1 b c 0 0 a b w c m y M.. / G .",
" . @ @ @ @ N > ' n z O e.~.2 o [.3.4.5 G.6.7.>.>.>.8.9.0.a.b.c.d.e.f.d.g w b w c m y M.. / G.h .",
" . @ @ @ N > ' n z O e.~.2 o.{ {.i.j.) M.k.l.>.>.m.n.o l.p.q.r.s.t.u T.d y w c m y M.. / G.h.g .",
" . @ @ N > ' n z O e.~.2 o.{.@ }.v.w.x.y.z.>.>.>.A.B.C.D.E.F.G.H.I.J.j.K M c d y M.. /.!.h.g.p .",
" . @ N > , n z O e.+.2 o.{.@ _ |.L.5.M.N.O.>.>.>.P.>.Q.R.S.T.U =.V.K.x U m d y M.. /.!.h.g.p.W .",
" . N > , n z O e.+.2 o.{.@ A : [ m.M G.X.Y.>.>.>.>.>.Z.`.o+ +. l ; G G M d y M.. /.!.h.g.p.W L .",
" . > , n z O e.+.2 o.{.@ A :++ { 2 8 8+@.>.>.>.>.>.>+#+$+%+&.&+* / c c d m M.. /.! G.g.p.W L ; .",
" . , ' z O e.+.~ o.{.@ A :++ < { } 1 3+=+-.>.>.>.>+;+>+,+'.s.5+) m c d m M.. /.! G.g.p.W L U+! .",
" . ' z O e.+.~ o.{.@ A _++ < { [ | x 3+~+-+{+].>.>+^+/+(+_ l.d G d d m M.. /.! G.g.p.W L U+!.  .",
" . z O e.+.~ o.{.@ A _++ < { [ } x 1 &+:+-+<+[.>.>+}+|+1+2.(.h m d m y.. /.! G.h.p.W L U+!. +3 .",
" . O e.+.~.2.{.@ A _++ < { [ } x 1 #+4+5+-+6+7.>+8+9+0 Q U y d d m y.. /.! G.h.p.W L U ;. +3.( .",
" . e.+.~.2.{.@ A _ : < { [ } x 1 #+a+b+c+-+d+e.>+f+g+h.x M c d m y.. /.! G.h.p.W L U ;. +3.(+) .",
" ..+.~.2.{.@ A _ : < { [ } | 1 # ( 0+i+j+k+l+m.>+n+o.0+p.. d m y M /.! G.h.g.W L U ;. +3.(+)+q .",
" ..~.2 o.@ A _ : < { [ } | 1 # ( 2 9+r.Y+s+t+u.>+v+w+x.) / m y M /.! G.h.g.W L U ;+!+3.(+)+q.M .",
" ..2 o.@ A _ :++ { [ } | 1 # ( 2 & a+y+z+A+B.Y.>+C+D+E.).! y M /.! G.h.g.W L U ;+!+3.(+)+q+F+G .",
" . o.@ A _ :++ { [ } | x # ( 2 & 4 0+H+I+J+K.Y.>+L+M+N+O G M...! G.h.g.p L U ;+!+3.(+)+q+F+G+P .",
" ..{ A _ :++ { [ } | x # ( 2 & 3 5 0+Q+R+S+T.>.>+U+V+W.*.h...! G.h.g.p L U ;+!. .(+)+q+F+G+P.a .",
" . A _ :++ < [ } | x # ( 2 & 3 5 6 0+X+Y+Z+`.>.>@ @.@+.V.h.! G.h.g.p L U ;+!. .(+)+q+F.M+P.a.d .",
" . _ :++ < [ } | x 1 ( 2 & 3 5 6 7 9.p@@@#@$.Y@%@&@*@=.a G G.h.g.p L U ;+!. .(+)+q+F.M+P.a.d.K .",
" . :++ < [ } | x 1 ( 2 & 3 4 6 7 ~ 9.h@-@;@>.Y@,@'@)@!+G.g.h.g.p.W U ;+!. +3+)+q+F.M+P.a.d.K.E .",
" .++ < { } | x 1 ( 2 & 3 4 6 7 ~ 8 9@~@{@]@^+u@/@(@_.H.V.W.g.p.W U ;+!. +3+)+q+F.M+G.a.d.K.E.x .",
" . < { } | x 1 # 2 & 3 4 6 7 ~ 8 9 w@:@<@[@}+m.>@|@1+h h U.p.W U ;+!. +3+)+q+F.M+G.a.d.K.E@2+p .",
" . { } | x 1 # 2 & 3 4 5 7 ~ 8 9 0 d@3@4@5@6@7.>@8@9.S@2 L.W L ;+!. +3.(+q+F.M+G.a.d.K.E@2+p.V .",
" . [ | x 1 # 2 & 3 4 5 7 ~ 8 9 0 b c+!@0@a@b@c+k@d@e@f.M L L ;+!. +3.(+q+F.M+G+P.d.K.E@2+p.V+* .",
" . | x 1 # ( & 3 4 5 7 ~ 8 9 0 b w c / h@g@h@i@j@k+N@l.  L ;+!. +3.(+q+F.M+G+P.d.K.E@2.x.V+* h .",
" . x 1 # ( & 3 4 5 6 ~ 8 9 0 a w c d y U.|@m@n@*@o@p.a ; U+!. +3.(+)+F.M+G+P.d.K.E@2.x.V+* h.* .",
" . 1 # ( & 3 4 5 6 ~ 8 9 0 a w c d m y.!+!+2@q@r@s+*.  U+!. +3.(+)+F.M+G+P.a.K.E@2.x.V+* h.*@t .",
" . # ( 2 3 4 5 6 ~ 8 9 0 a w c d m y.. / G+3@u@v@w+q U+!. +3.(+)+F.M+G+P.a.K.E@2.x+p+* h.*@t+O .",
" . . . . . . . . . . . . . . . . . . . . . .@x@y . . . . . . . . . . . . . . . . . . . . . . . ."};
