/* XPM */
static char * file_dot_mov_xpm[] = {
"48 48 348 2",
"  	c None",
" .	c #000000",
" +	c #E5E5E5",
" @	c #AAAAAA",
" #	c #717171",
" $	c #383838",
" %	c #FFFFFF",
" &	c #E2E2E2",
" *	c #1C1C1C",
" =	c #C6C6C6",
" -	c #555555",
" ;	c #8D8D8D",
" >	c #FDFDFD",
" ,	c #FCFCFC",
" '	c #FBFBFB",
" )	c #FAFAFA",
" !	c #F8F8F8",
" ~	c #F7F7F7",
" {	c #F6F6F6",
" ]	c #F5F5F5",
" ^	c #F4F4F4",
" /	c #F2F2F2",
" (	c #F1F1F1",
" _	c #F0F0F0",
" :	c #EFEFEF",
" <	c #EEEEEE",
" [	c #ECECEC",
" }	c #EBEBEB",
" |	c #EAEAEA",
" 1	c #E9E9E9",
" 2	c #E8E8E8",
" 3	c #E6E6E6",
" 4	c #E4E4E4",
" 5	c #E3E3E3",
" 6	c #E1E1E1",
" 7	c #E0E0E0",
" 8	c #DFDFDF",
" 9	c #DEDEDE",
" 0	c #DDDDDD",
" a	c #DBDBDB",
" b	c #DADADA",
" c	c #D9D9D9",
" d	c #D8D8D8",
" e	c #D7D7D7",
" f	c #D5D5D5",
" g	c #D4D4D4",
" h	c #F9F9F9",
" i	c #D3D3D3",
" j	c #F3F3F3",
" k	c #DCDCDC",
" l	c #D2D2D2",
" m	c #EDEDED",
" n	c #E7E7E7",
" o	c #D6D6D6",
" p	c #D1D1D1",
" q	c #FEFEFE",
" r	c #D0D0D0",
" s	c #6B6B6B",
" t	c #B4B4B4",
" u	c #686868",
" v	c #666666",
" w	c #656565",
" x	c #646464",
" y	c #636363",
" z	c #626262",
" A	c #616161",
" B	c #606060",
" C	c #5F5F5F",
" D	c #5E5E5E",
" E	c #5D5D5D",
" F	c #5C5C5C",
" G	c #5B5B5B",
" H	c #848484",
" I	c #CFCFCF",
" J	c #595959",
" K	c #A3A3A3",
" L	c #CECECE",
" M	c #525252",
" N	c #6E6E6E",
" O	c #727272",
" P	c #3B3B3B",
" Q	c #1D1D1D",
" R	c #5A5A5A",
" S	c #757575",
" T	c #C3C3C3",
" U	c #CBCBCB",
" V	c #CDCDCD",
" W	c #404040",
" X	c #575757",
" Y	c #454545",
" Z	c #4A4905",
" `	c #8B8A28",
". 	c #8A8928",
"..	c #61600E",
".+	c #121212",
".@	c #414141",
".#	c #505050",
".$	c #535353",
".%	c #0B0B0B",
".&	c #565656",
".*	c #A2A2A2",
".=	c #C1C1C1",
".-	c #CCCCCC",
".;	c #787878",
".>	c #929292",
".,	c #838222",
".'	c #CECEA7",
".)	c #CDCDA6",
".!	c #CFCEA8",
".~	c #C4C397",
".{	c #B0AF57",
".]	c #A09E3B",
".^	c #A6A543",
"./	c #0F0F0F",
".(	c #4C4C4C",
"._	c #737373",
".:	c #808080",
".<	c #101010",
".[	c #393939",
".}	c #858585",
".|	c #B7B7B7",
".1	c #C9C9C9",
".2	c #8F8F8F",
".3	c #B5B47A",
".4	c #828121",
".5	c #A4A343",
".6	c #C1C092",
".7	c #AEAD4D",
".8	c #B2B165",
".9	c #D0CFA9",
".0	c #AFAE50",
".a	c #838224",
".b	c #060606",
".c	c #3D3D3D",
".d	c #7F7F7F",
".e	c #343434",
".f	c #7C7C7C",
".g	c #B3B3B3",
".h	c #C8C8C8",
".i	c #CACACA",
".j	c #161616",
".k	c #222222",
".l	c #2E2E2E",
".m	c #212121",
".n	c #989735",
".o	c #A2A13F",
".p	c #EBEBD6",
".q	c #EEEEDB",
".r	c #B7B784",
".s	c #C4C499",
".t	c #FEFEFD",
".u	c #FBFBF6",
".v	c #ACAB4B",
".w	c #010101",
".x	c #131313",
".y	c #232323",
".z	c #292929",
".A	c #050505",
".B	c #3C3C3C",
".C	c #7E7E7E",
".D	c #B2B2B2",
".E	c #C7C7C7",
".F	c #3E3E3E",
".G	c #828122",
".H	c #939230",
".I	c #AFAE54",
".J	c #FDFDFC",
".K	c #E9E8D2",
".L	c #DEDEBF",
".M	c #979634",
".N	c #030303",
".O	c #4B4B4B",
".P	c #090909",
".Q	c #B1B1B1",
".R	c #777777",
".S	c #CECDA7",
".T	c #B0AF5D",
".U	c #A9A846",
".V	c #F7F7EE",
".W	c #E1E0C4",
".X	c #D8D7B5",
".Y	c #B0AF59",
".Z	c #E7E7D0",
".`	c #040404",
"+ 	c #313131",
"+.	c #6A6A6A",
"++	c #0D0D0D",
"+@	c #2F2F2F",
"+#	c #AFAFAF",
"+$	c #C5C5C5",
"+%	c #818181",
"+&	c #CCCBA3",
"+*	c #888625",
"+=	c #EAEAD5",
"+-	c #A7A644",
"+;	c #5F5F0E",
"+>	c #7A781B",
"+,	c #D4D3AF",
"+'	c #B2B167",
"+)	c #E7E6CF",
"+!	c #FAFAF5",
"+~	c #8E8D2B",
"+{	c #363636",
"+]	c #0E0E0E",
"+^	c #303030",
"+/	c #C4C4C4",
"+(	c #141414",
"+_	c #202020",
"+:	c #2B2B2B",
"+<	c #1F1F1F",
"+[	c #B1B064",
"+}	c #4E4D07",
"+|	c #060500",
"+1	c #262500",
"+2	c #E5E4CB",
"+3	c #272727",
"+4	c #3A3A3A",
"+5	c #7B7B7B",
"+6	c #AEAEAE",
"+7	c #C2C2C2",
"+8	c #92912F",
"+9	c #D9D9B8",
"+0	c #57560A",
"+a	c #706F17",
"+b	c #5D5C0C",
"+c	c #B9B888",
"+d	c #F5F5EA",
"+e	c #4A4A4A",
"+f	c #797979",
"+g	c #ADADAD",
"+h	c #494949",
"+i	c #B2B26D",
"+j	c #525209",
"+k	c #0C0C0C",
"+l	c #2D2D2D",
"+m	c #767676",
"+n	c #ABABAB",
"+o	c #C0C0C0",
"+p	c #727117",
"+q	c #898828",
"+r	c #545309",
"+s	c #444303",
"+t	c #2C2B00",
"+u	c #77761A",
"+v	c #353535",
"+w	c #707070",
"+x	c #BFBFBF",
"+y	c #8F8E2C",
"+z	c #FCFCF9",
"+A	c #F9F8F1",
"+B	c #BCBC8D",
"+C	c #7D7C20",
"+D	c #8C8B29",
"+E	c #111111",
"+F	c #252525",
"+G	c #BEBEBE",
"+H	c #959332",
"+I	c #EFEFE0",
"+J	c #CBCBA2",
"+K	c #181700",
"+L	c #696812",
"+M	c #908F2D",
"+N	c #DEDEC1",
"+O	c #3F3F3F",
"+P	c #A9A9A9",
"+Q	c #BDBDBD",
"+R	c #484848",
"+S	c #585858",
"+T	c #B7B682",
"+U	c #F4F3E7",
"+V	c #020100",
"+W	c #3E3D03",
"+X	c #0A0900",
"+Y	c #A9A848",
"+Z	c #B2B169",
"+`	c #A7A7A7",
"@ 	c #BCBCBC",
"@.	c #7D7D7D",
"@+	c #858424",
"@@	c #DCDCBD",
"@#	c #6D6C14",
"@$	c #1A1900",
"@%	c #323100",
"@&	c #E6E6CD",
"@*	c #BABABA",
"@=	c #B6B681",
"@-	c #FBFBF8",
"@;	c #C3C296",
"@>	c #868525",
"@,	c #A6A6A6",
"@'	c #B9B9B9",
"@)	c #BBBBBB",
"@!	c #181818",
"@~	c #242424",
"@{	c #969533",
"@]	c #8D8B2A",
"@^	c #2A2A2A",
"@/	c #747474",
"@(	c #A5A5A5",
"@_	c #B8B8B8",
"@:	c #444444",
"@<	c #4F4F4F",
"@[	c #B1B05E",
"@}	c #EDEDDA",
"@|	c #D9D8B6",
"@1	c #6F6F6F",
"@2	c #515151",
"@3	c #C5C59A",
"@4	c #AAA949",
"@5	c #B6B6B6",
"@6	c #333333",
"@7	c #C2C195",
"@8	c #B5B476",
"@9	c #020202",
"@0	c #070707",
"@a	c #B5B5B5",
"@b	c #191919",
"@c	c #262626",
"@d	c #59580A",
"@e	c #585709",
"@f	c #3C3B01",
"@g	c #151515",
"@h	c #A1A1A1",
"@i	c #474747",
"@j	c #676767",
"@k	c #A0A0A0",
"@l	c #8E8E8E",
"@m	c #696969",
"@n	c #1A1A1A",
"@o	c #434343",
"@p	c #9F9F9F",
"@q	c #828282",
"@r	c #8B8B8B",
"@s	c #A8A8A8",
"@t	c #323232",
"@u	c #838383",
"@v	c #919191",
"@w	c #9D9D9D",
"@x	c #909090",
"@y	c #8C8C8C",
"@z	c #8A8A8A",
"@A	c #888888",
"@B	c #878787",
"@C	c #868686",
"@D	c #949494",
"@E	c #B0B0B0",
"@F	c #979797",
"@G	c #9C9C9C",
" . . . . . . . . . . . . . . . . . . . . . . . . . . . . . . . . . . . . . . . . . . . . . . . .",
" . . . . . . . . . . . . . . . . . . . . . . . . . . . . . . . . . . . . . . . . . . . . . . . .",
" . . . . + . + . . . . . . . . . . . . . . . . . . . . . . . . . . . . . . . . . . . . . . . . .",
" . . + . . . . . + . . . . . . . . . . . . . @ # $ @ . . @ # . . . . $ @ @ . . $ @ $ . . @ # . .",
" . . . . + + + . . . . . . . . . . . . . . . % & % % & % % % # . . @ % % % & * * % = . $ % # . .",
" . . . + . . . + . . . . . . . . . . . . . . % & * # % # . = @ . $ % = . * % = . @ % * # % . . .",
" . . + . . + . . + . . . . . . . . . . . . . % @ . - % . . @ @ . - % . . . @ % . - % - @ @ . . .",
" . . . + . . . + . . . . . . . . . . . . . . % @ . - % . . @ @ . - % # . . & % . . % @ % - . . .",
" . . . . + + + . . . . . . . . . . . $ @ # . % @ . - % . . @ @ . * % & - # % ; . . = & % * . . .",
" . . + . . . . . + . . . . . . . . . - % @ . % @ . - % . . @ @ . . - = % % ; . . . $ % = . . . .",
" . . . . + . + . . . . . . . . . . . . . . . . . . . . . . . . . . . . . . . . . . . . . . . . .",
" . . . . . . . . . . . . . . . . . . . . . . . . . . . . . . . . . . . . . . . . . . . . . . . .",
" . . . . . . . . . . . . . . . . . . . . . . . . . . . . . . . . . . . . . . . . . . . . . . . .",
" . % % % % % % % % % % % > , ' ) ! ~ { ] ^ / ( _ : < [ } | 1 2 3 + 4 5 6 7 8 9 0 a b c d e f g .",
" . % % % % % % % % % % > , ' ) h ~ { ] ^ / ( _ : < [ } | 1 2 3 + 4 5 & 7 8 9 0 a b c d e f g i .",
" . % % % % % % % % % > , ' ) h ~ { ] ^ j ( _ : < [ } | 1 2 3 + 4 5 & 7 8 9 0 k b c d e f g i l .",
" . % % % % % % % % > , ' ) h ~ { ] ^ j ( _ : < m } | 1 2 n + 4 5 & 7 8 9 0 k b c d e o g i l p .",
" . % % % % % % % q , ' ) h ! { ] ^ j ( _ : < m } | 1 2 n + 4 5 & 6 8 9 0 k b c d e o g i l p r .",
" . % % % % % % s d ) ) t u v v w x x y y z z A B B B C D D D E E F G G G G H o e I J K r p r L .",
" . % % % % % > . M N O P . . . . . . . . . . . . . . . . . . . . . . . . . Q R B F . S T U I V .",
" . % % % % q h . W X A Y Z `.  ` ` ` ` ` ` ` ` ` ` ` ` ` ` ` ` ` ` ` ` `...+.@.#.$.%.&.*.= U.- .",
" . % % % q > j . D.;.> v.,.'.).!.!.!.!.!.!.'.~.{.].].{.~.'.!.!.!.!.!.!.!.^./.(._.:.<.[.}.|.1 U .",
" . % % q > ' ( . M N.2 w.,.'.).!.!.!.!.!.3.4.5.6.7.8.9.0.a.3.!.!.!.!.!.!.^.b.c N.d./.e.f.g.h.i .",
" . % q > , ) _ ..j.k.l.m.,.!.).!.!.!.'.n.o.p.q.q.r.s.t.t.u.v.n.'.!.!.!.!.^.w.x.y.z.A.B.C.D.E.1 .",
" . q > , ) h : ..z.F.$ P.G.'.).!.!.'.H.I.q.q.q.q.r.s.t.J.K.L.M.H.'.!.!.!.^.N.k W.O.P.[.f.Q =.h .",
" . > , ) h ! < ..O F.R -.G.S.).!.!.T.U.q.q.q.q.q.r.s.V.W.X.Y.Z.Y.T.!.!.!.^.`+  G+.+++@.;+#+$ = .",
" . , ' h ! ~ m ..( y+% E.,.'.).!+&+*+=.q.q.q.W+-+;+>+,.V+'+).t+!+~+&.!.!.^.A+{ y._+]+^.;+#+/+$ .",
" . ' h ! ~ { [ .+(+_+:+<.,.!.).!+[.r.q.q.q.p+} .+| .+1.T+2.t.t.t.s+[.!.!.^.w.+.m+3.A+4+5+6+7+/ .",
" . h ! ~ { ] | ..z.F.$.B.,.'.).!+8+2.q.q.q+9+0+a+'+b `+c.t.t.t.t+d.H.!.!.^.N.k W+e.P $+f+g.= T .",
" . ! ~ { ] ^ 1 .+h R S.$.G.).).!+*.q.q.q.q.q.q.q+i+8+j.W.t.t.t.t.t `.!.!.^.`+^ J u+k+l+m+n+o+7 .",
" . ~ { ] ^ / 2 ..O z.C G.,.'.).!+p+q+q+q+q+q+q+q+r+s+t+u+q+q+q+q+q+p.!.!.^.A+v B+w+]+@ S+n+x.= .",
" . { ] ^ / ( n ..x+<.z Q.,.'.).!+y.t.t.t.t+z.V+A+B.. .+C.q.q.q.q.q+D.!.!.^.w+E+_+F.`.[.; @+G+o .",
" . ] ^ j ( _ 3 ..z.F M.B.,.'.).!+H+I.t.t.t+J+K+L.~+M ....q.q.q.q+N+H.!.!.^.N.k+O+h.P+{+m+P+Q+G .",
" . ^ j ( _ : + .+R+S O M.G.).).!.3+T.t.t.t+U+1+V+W+X .+Y.q.q.q.q+Z.3.!.!.^.`+@ X w+k+l._+`@ +Q .",
" . j ( _ : < 4 .+h C@. R.,.'.).!.'@+.V.t.t %@@@#@$@%.5+=.q.q.q@&.4.'.!.!.^.`.e C N+++@._+`@*@  .",
" . / _ : < m & ..+ Q+3 *.,.'.).!.!@=+y@-.t % %.J@;+T.q.q.q.q.p@>@=.!.!.!.^.w.< Q.k.` $ S@,@'@) .",
" . _ : < m [ 6 .@!@~+^.y.G.!.).!.!.!.0@{@- % %.t.s.r.q.q.q.p@].0.!.!.!.!.^.w+(@~@^.A+v@/@(@_@* .",
" . : < m [ | 7 .@:@< w+R.G.'.).!.!.!.!@[ `.K.t.t.s.r.q@}@|.a@[.!.!.!.!.!.^.`.z.(+S.%.z@1 K.|@' .",
" . < m [ | 1 8 . Y@2 u+e.,.!.).!.!.!.!.!@3.H@{@[.n+~@4+M.H@3.!.!.!.!.!.!.^.`+:@< G.%.z N.*@5@_ .",
" . m [ } 1 2 9 ..m@6 Y+ .,.'.).!.!.!.!.!.!.!.'@7@8@8@7.'.!.!.!.!.!.!.!.!.^@9 *.e.B@0.e #.*@a@5 .",
" . [ } 1 2 n 0 .@b@c@6@~+t@d@e@d@d@d@d@d@d@d@d@d@d@d@d@d@d@d@d@d@d@d@d@d@f@9@g+3+l.A+v #@h t@a .",
" . } 1 2 n 3 k .@i R S - . . . . . . . . . . . . . . . . . . . . . . . . ..`+^ J@j+k+: N@k.D t .",
" . | 2 n 3 + b@l R+S #@m W@n.P.A.A.A.A.A.A.A.A.A.A.A.A.A.A.A.A.A.A.A.A.A.A.<+ .& y+R@o@1@p.Q.g .",
" . 2 n 3 + 4 a@a@q@r@s@(+%.# $.e.e@6@6@t+ + + + + +^+^+^+@+@+@.l.l.l+l+l.l+4 F@u@v.d+..: K.Q.D .",
" . n 3 + 4 & 9 V.|.= I L@'@w@x@y@r@z@z@A@A@B@C@C H H@u@q@q+%.:.d.d.C@..f@.@q@D+P@E@,@F@G+n.Q.Q .",
" . 3 + 4 & 6 7 a o o b d i.- =+$+/ T+7+o+x+G+Q@)@*@*@'@_@5@a t.g.D@E+#+6+6+#.Q@a@5.g+6+6@E.Q@E .",
" . + 4 5 6 7 8 9 k a b c d o f g l p I L V.- U.1.h.E =+/ T+7.=+o+G+Q@ @)@*@'@_.|@5@a.g.D.Q@E+# .",
" . . . . . . . . . . . . . . . . . . . . . . . . . . . . . . . . . . . . . . . . . . . . . . . ."};
