/* XPM */
static char * texi_xpm[] = {
"48 48 304 2",
"  	c None",
" .	c #000000",
" +	c #555555",
" @	c #FFFFFF",
" #	c #E5E5E5",
" $	c #AAAAAA",
" %	c #1C1C1C",
" &	c #383838",
" *	c #E2E2E2",
" =	c #717171",
" -	c #C6C6C6",
" ;	c #8D8D8D",
" >	c #FDFDFD",
" ,	c #FCFCFC",
" '	c #FBFBFB",
" )	c #FAFAFA",
" !	c #F8F8F8",
" ~	c #F7F7F7",
" {	c #F6F6F6",
" ]	c #F5F5F5",
" ^	c #F4F4F4",
" /	c #F2F2F2",
" (	c #F1F1F1",
" _	c #F0F0F0",
" :	c #EFEFEF",
" <	c #EEEEEE",
" [	c #ECECEC",
" }	c #EBEBEB",
" |	c #EAEAEA",
" 1	c #E9E9E9",
" 2	c #E8E8E8",
" 3	c #E6E6E6",
" 4	c #E4E4E4",
" 5	c #E3E3E3",
" 6	c #E1E1E1",
" 7	c #E0E0E0",
" 8	c #DFDFDF",
" 9	c #DEDEDE",
" 0	c #DDDDDD",
" a	c #DBDBDB",
" b	c #DADADA",
" c	c #D9D9D9",
" d	c #D8D8D8",
" e	c #D7D7D7",
" f	c #D5D5D5",
" g	c #D4D4D4",
" h	c #F9F9F9",
" i	c #D3D3D3",
" j	c #F3F3F3",
" k	c #DCDCDC",
" l	c #D2D2D2",
" m	c #EDEDED",
" n	c #E7E7E7",
" o	c #D6D6D6",
" p	c #D1D1D1",
" q	c #FEFEFE",
" r	c #D0D0D0",
" s	c #CECECE",
" t	c #CFCFCF",
" u	c #CDCDCD",
" v	c #CCCCCC",
" w	c #BEBEBE",
" x	c #B6B6B6",
" y	c #707070",
" z	c #ACACAC",
" A	c #7A7A7A",
" B	c #B7B7B7",
" C	c #B4B4B4",
" D	c #606060",
" E	c #9C9C9C",
" F	c #C8C8C8",
" G	c #CBCBCB",
" H	c #868686",
" I	c #3F3F3F",
" J	c #C3C3C3",
" K	c #2E2E2E",
" L	c #919191",
" M	c #575757",
" N	c #A0A0A0",
" O	c #AFAFAF",
" P	c #4D4D4D",
" Q	c #878787",
" R	c #696969",
" S	c #363636",
" T	c #5C5C5C",
" U	c #A7A7A7",
" V	c #C9C9C9",
" W	c #CACACA",
" X	c #434343",
" Y	c #787878",
" Z	c #C7C7C7",
" `	c #484848",
". 	c #AEAEAE",
"..	c #5D5D5D",
".+	c #9F9F9F",
".@	c #C1C1C1",
".#	c #BABABA",
".$	c #969696",
".%	c #414141",
".&	c #777777",
".*	c #C5C5C5",
".=	c #A4A4A4",
".-	c #5A5A5A",
".;	c #515151",
".>	c #6B6B6B",
".,	c #B5B5B5",
".'	c #838383",
".)	c #404040",
".!	c #757575",
".~	c #B1B1B1",
".{	c #7C7C7C",
".]	c #6A6A6A",
".^	c #A5A5A5",
"./	c #323232",
".(	c #6F6F6F",
"._	c #959595",
".:	c #505050",
".<	c #BCBCBC",
".[	c #939393",
".}	c #C0C0C0",
".|	c #C2C2C2",
".1	c #3E3E3E",
".2	c #A3A3A3",
".3	c #C4C4C4",
".4	c #5B5B5B",
".5	c #989898",
".6	c #A1A1A1",
".7	c #B3B3B3",
".8	c #4E4E4E",
".9	c #A8A8A8",
".0	c #313131",
".a	c #616161",
".b	c #9D9D9D",
".c	c #797979",
".d	c #898989",
".e	c #8E8E8E",
".f	c #8F8F8F",
".g	c #B0B0B0",
".h	c #595959",
".i	c #767676",
".j	c #878687",
".k	c #454545",
".l	c #535861",
".m	c #54607F",
".n	c #3F4F82",
".o	c #455591",
".p	c #596EB2",
".q	c #7380AC",
".r	c #838692",
".s	c #4C4C4C",
".t	c #ADADAD",
".u	c #7D7D7D",
".v	c #A2A2A2",
".w	c #C0C2C5",
".x	c #4C5778",
".y	c #2944A4",
".z	c #3057E0",
".A	c #3861F0",
".B	c #859EF6",
".C	c #96ABF7",
".D	c #476AE7",
".E	c #3557CF",
".F	c #6878B1",
".G	c #939396",
".H	c #BDBDBD",
".I	c #B9B9B9",
".J	c #929292",
".K	c #737373",
".L	c #727272",
".M	c #B3B5B9",
".N	c #4A5884",
".O	c #2D52D3",
".P	c #355FF8",
".Q	c #3560FA",
".R	c #9AAFFB",
".S	c #FCFCFE",
".T	c #5E6EA8",
".U	c #3560F9",
".V	c #335DEF",
".W	c #3650AE",
".X	c #A0A1A6",
".Y	c #545454",
".Z	c #4F4F4F",
".`	c #999999",
"+ 	c #676767",
"+.	c #4A4B4B",
"++	c #2B375A",
"+@	c #2E53D7",
"+#	c #355FF9",
"+$	c #3661F9",
"+%	c #3661FA",
"+&	c #9CAADD",
"+*	c #B6B7BB",
"+=	c #344EAB",
"+-	c #345DF2",
"+;	c #5E75C4",
"+>	c #BFBFBF",
"+,	c #7B7B7B",
"+'	c #565656",
"+)	c #B8B8B8",
"+!	c #90939C",
"+~	c #2C46A7",
"+{	c #3560F7",
"+]	c #3661FB",
"+^	c #365CE0",
"+/	c #314AA3",
"+(	c #2C49B2",
"+_	c #3B64F5",
"+:	c #9EA0A8",
"+<	c #2C2C2C",
"+[	c #A6A6A6",
"+}	c #707DA1",
"+|	c #3561F9",
"+1	c #3C66FB",
"+2	c #4A71FA",
"+3	c #819CFC",
"+4	c #6781E0",
"+5	c #3662FB",
"+6	c #727DA4",
"+7	c #BBBBBB",
"+8	c #464646",
"+9	c #5E5E5E",
"+0	c #53649F",
"+a	c #335DF0",
"+b	c #3561FA",
"+c	c #3660FA",
"+d	c #436AF7",
"+e	c #C0C7E0",
"+f	c #4E64B0",
"+g	c #5D70AD",
"+h	c #4A4A4A",
"+i	c #7E7E7E",
"+j	c #818181",
"+k	c #445695",
"+l	c #345EF4",
"+m	c #436BFA",
"+n	c #2E4BB3",
"+o	c #3561FB",
"+p	c #5E72AD",
"+q	c #808080",
"+r	c #485CA2",
"+s	c #345EF3",
"+t	c #4B71FB",
"+u	c #3359DE",
"+v	c #3763FC",
"+w	c #627BBB",
"+x	c #737EA3",
"+y	c #335BEC",
"+z	c #3660F9",
"+A	c #7592FC",
"+B	c #94979E",
"+C	c #355FF6",
"+D	c #3967FC",
"+E	c #7E99DA",
"+F	c #3B3B3B",
"+G	c #292929",
"+H	c #262626",
"+I	c #2A2A2A",
"+J	c #353535",
"+K	c #343434",
"+L	c #424242",
"+M	c #8B8B8B",
"+N	c #A2A5AF",
"+O	c #3759D3",
"+P	c #A3B7FC",
"+Q	c #AEB4CC",
"+R	c #3962F4",
"+S	c #4574F8",
"+T	c #9FA5B3",
"+U	c #B2B2B2",
"+V	c #6A7AB5",
"+W	c #355DF1",
"+X	c #B6C5FD",
"+Y	c #9FB2F6",
"+Z	c #516DD1",
"+`	c #3A68FC",
"@ 	c #7390D1",
"@.	c #B7B8BB",
"@+	c #576EC4",
"@@	c #3760F9",
"@#	c #9DAFEE",
"@$	c #E2E3E7",
"@%	c #9EA1AD",
"@&	c #304591",
"@*	c #3B6AFC",
"@=	c #648BDF",
"@-	c #ADAEAF",
"@;	c #B7B7B9",
"@>	c #6D81CB",
"@,	c #3F68F6",
"@'	c #3764FB",
"@)	c #3959C9",
"@!	c #334FAF",
"@~	c #345EEE",
"@{	c #4777F7",
"@]	c #7897D9",
"@^	c #AEB0B3",
"@/	c #A4A8B8",
"@(	c #7D93D4",
"@_	c #6376AD",
"@:	c #6075AD",
"@<	c #6075AC",
"@[	c #7B849A",
"@}	c #9DA0A6",
" . . . . . . . . . . . . . . . . . . . . . . . . . . . . . . . . . . . . . . . . . . . . . . . .",
" . . . . . . . . . . . . . . . . . . . . . . . . . . . . . . . . . . . . . . . . . . . + @ + . .",
" . . # # # # # # # . . . . . . . . . . . . . . . . . $ @ . . . . . . . . . . . . . . . % + % . .",
" . . # . . . . . # . . . . . . . . . . . . . . . . & * @ $ . . & $ = . . = $ & . = $ . + @ + . .",
" . . # . # # # . # . . . . . . . . . . . . . . . . & * @ $ . $ @ @ @ $ . + @ - % @ $ . + @ + . .",
" . . # . . . . . # . . . . . . . . . . . . . . . . . $ @ . & @ ; . = @ & . $ @ - * . . + @ + . .",
" . . # . # # # . # . . . . . . . . . . . . . . . . . $ @ . + @ @ @ @ @ + . . ; @ & . . + @ + . .",
" . . # . . . . . # . . . . . . . . . . . . . . . . . $ @ . + @ & . % + . . = @ @ $ . . + @ + . .",
" . . # . # # # . # . . . . . . . . . . . . . & $ = . $ @ + % @ * + $ * . . * @ ; @ % . + @ + . .",
" . . # . . . . . # . . . . . . . . . . . . . + @ $ . + @ @ . + - @ - & . ; @ ; . * * . + @ + . .",
" . . # # # # # # # . . . . . . . . . . . . . . . . . . . . . . . . . . . . . . . . . . . . . . .",
" . . . . . . . . . . . . . . . . . . . . . . . . . . . . . . . . . . . . . . . . . . . . . . . .",
" . . . . . . . . . . . . . . . . . . . . . . . . . . . . . . . . . . . . . . . . . . . . . . . .",
" . @ @ @ @ @ @ @ @ @ @ @ > , ' ) ! ~ { ] ^ / ( _ : < [ } | 1 2 3 # 4 5 6 7 8 9 0 a b c d e f g .",
" . @ @ @ @ @ @ @ @ @ @ > , ' ) h ~ { ] ^ / ( _ : < [ } | 1 2 3 # 4 5 * 7 8 9 0 a b c d e f g i .",
" . @ @ @ @ @ @ @ @ @ > , ' ) h ~ { ] ^ j ( _ : < [ } | 1 2 3 # 4 5 * 7 8 9 0 k b c d e f g i l .",
" . @ @ @ @ @ @ @ @ > , ' ) h ~ { ] ^ j ( _ : < m } | 1 2 n # 4 5 * 7 8 9 0 k b c d e o g i l p .",
" . @ @ @ @ @ @ @ q , ' ) h ! { ] ^ j ( _ : < m } | 1 2 n # 4 5 * 6 8 9 0 k b c d e o g i l p r .",
" . @ @ @ @ @ @ q , ' ) h ! { ] ^ j / _ : < m } | 1 2 n # 4 5 * 6 8 9 0 k a c d e o g i l p r s .",
" . @ @ @ @ @ q , ' ) h ! { ] ^ j / _ : < m [ | 1 2 n 3 4 5 * 6 8 9 0 k a c d e o f i l p r t u .",
" . @ @ @ @ q q q q q q q q > q q q c 6 [ [ | 1 2 n 3 4 } h q q q @ q c ( > q q q > - - t t u v .",
" . @ @ @ q > q > n w b ) | x 0 ) > y z 4 | 1 2 n 3 4 5 7 g 3 q q @ 6 A B e q ' a C D E F u v G .",
" . @ @ q > ' q 2 H I $ { J K L k ) M N 6 1 2 n 3 # 5 * c O N } q @ O P Q v ' g R S T U V v G W .",
" . @ q > , ) > x X Y e h Z `.  J :...+ 8 2 n 3 # 5 * 6 8 e.@.# 3 @ *.$ r q * Y.%.& z.* G G W V .",
" . q > , ) h >.=.- w | h Z.; G b <.>.+ 9 n 3 # 5 * 6 7 8 0 b -., n @ 3 ~ <.'.).!.~ V v G W V F .",
" . > , ) h ! |.'.{ a < h Z.; t 5 V.].^ 9 3 # 5 * 6 7 8 0 k a f w B | q q W./.( O F u G W V F - .",
" . , ' h ! ~ 6._ O 3 < h Z.: s 4.<.[.} 7 4 5 6 7 8 9 0 k a b c r.| 7 q q.|.1.2 F u G W V F Z.* .",
" . ' h ! ~ { ( 9 5 : < h Z.. * ^ : m : _ _ _ _ _ : | l t d c e b 3 ! q q |.$ $ F G W V F Z.*.3 .",
" . h ! ~ { ] j / ( _ m h Z.4 o } h > / s t t t / q |.5.6 r d c 2 ) < Z m > * $.7 - V F Z.*.3 J .",
" . ! ~ { ] ^ / ( _ : [ h Z.8.,.9 r ) -.0 M.a.a.b ' 4.c.d v f 1 ' :.e.1.f ' > 9 U.g.3 Z -.3 J.| .",
" . ~ { ] ^ / ( : : : [ h G.h.* F u ~.3.).^ Z c z.< #.i.j u # > {.2.k.l.m.n.o.p.q.r.~.|.3 J.|.@ .",
" . { ] ^ / ( _ _ / j ] , < G b t 7 ! -.s.| # {.+.t [.u.v n ! q ~.w.x.y.z.A.B.C.D.E.F.G.H.|.@.} .",
" . ] ^ j ( _ : m 2 # d s F G.I.J o ! i.K i _ ,.L.= c Y.6 0 c u.M.N.O.P.Q.R.S ,.T.U.V.W.X.@.} w .",
" . ^ j ( _ : < } p.J.a.Y.Z.;.4 A o ! h _ ~ , q.. ;.^.L.[.`+ +.+++@+#+$+%+& 8+*+=+%.Q+-+;+>+>.H .",
" . j ( _ : < m } # g V - J.| J W 5 ! 0+,.+ b )+'.b k.H.<.3+)+!+~+{.U+]+]+^+/+(.P+]+%.U+_+:.H.< .",
" . / _ : < m } | 1 2 n 4 5 * 6 6 3 ! -+<.L.  <.- U ^. +[ W r+}.z.U+|+%+1+2+3+4+]+%+%.U+5+6.<+7 .",
" . _ : < m [ | 1 2 n # 4 5 * 6 8 3 ! Z+8. .| J+9.3 (.d Q.3 s+0+a+b+c+d+e , ,+f+]+]+%.U+5+g+7.# .",
" . : < m [ | 1 2 n 3 4 5 * 6 8 5 m ' Z+h.< s.9.c ^ m+i+j.| u+k+l+b.U+]+m , a+n+]+]+o.U+5+p.#.I .",
" . < m [ | 1 2 n 3 4 5 * 6 6 1 _ ! > 2 B 9 # 7 a q 2.i+q.} v+r+s+|.U+o+t > l+u+$+%+%.U+v+w.I+) .",
" . m [ } 1 2 n 3 4 5 * 6 7 8 | , > > , h ) ) ) ) q 4.L+i.} G+x+y.U+z+]+A >+B+C+%+]+].U+D+E+) x .",
" . [ } 1 2 n 3 # 5 * 6 7 9 b.}.i+F+G+H+I./+J+K+K.0+G+L+M.@ W+N+O.U.U+%+P >+Q+R+]+%+]+%+S+T B., .",
" . } 1 2 n 3 # 5 * 6 7 8 0 k f.*+) C.7+U.~.g O. .t z.g w F V.*+V+W.U+$+X > {+Y+Z+$+]+`@  x., C .",
" . | 2 n 3 # 5 * 6 7 8 0 k a b c e o f g i p r t s v G W V F -@.@+@@+%@#@$ *@%@&+R@*@=@-., C.7 .",
" . 2 n 3 # 4 * 6 7 8 0 k a b c e o f g i p r t s u G W V F -.*.3@;@>@,@'@)@!@~+`@{@]@^ x C.7+U .",
" . n 3 # 4 * 6 7 8 9 k a b c d o f g i p r t s u G W V F Z.*.3 J.|.}@/@(@_@:@<@[@} x x C.7+U.~ .",
" . 3 # 4 * 6 7 8 9 k a b c d o f g i l r t s u G W V F Z.*.3 J.|.@+> w.H.<+7.I+) B x C.7+U.~.g .",
" . # 4 5 6 7 8 9 k a b c d o f g i l r t s u v W V F Z.*.3 J.|.@+> w.H.<+7.I+) B x.,.7+U.~.g O .",
" . . . . . . . . . . . . . . . . . . . . . . . . . . . . . . . . . . . . . . . . . . . . . . . ."};
