/* XPM */
static char * file_dot_txt_xpm[] = {
"48 48 124 2",
"  	c None",
". 	c #000000",
"+ 	c #E5E5E5",
"@ 	c #AAAAAA",
"# 	c #383838",
"$ 	c #E2E2E2",
"% 	c #717171",
"& 	c #C6C6C6",
"* 	c #8D8D8D",
"= 	c #555555",
"- 	c #1C1C1C",
"; 	c #FFFFFF",
"> 	c #FDFDFD",
", 	c #FCFCFC",
"' 	c #FBFBFB",
") 	c #FAFAFA",
"! 	c #F8F8F8",
"~ 	c #F7F7F7",
"{ 	c #F6F6F6",
"] 	c #F5F5F5",
"^ 	c #F4F4F4",
"/ 	c #F2F2F2",
"( 	c #F1F1F1",
"_ 	c #F0F0F0",
": 	c #EFEFEF",
"< 	c #EEEEEE",
"[ 	c #ECECEC",
"} 	c #EBEBEB",
"| 	c #EAEAEA",
"1 	c #E9E9E9",
"2 	c #E8E8E8",
"3 	c #E6E6E6",
"4 	c #E4E4E4",
"5 	c #E3E3E3",
"6 	c #E1E1E1",
"7 	c #E0E0E0",
"8 	c #DFDFDF",
"9 	c #DEDEDE",
"0 	c #DDDDDD",
"a 	c #DBDBDB",
"b 	c #DADADA",
"c 	c #D9D9D9",
"d 	c #D8D8D8",
"e 	c #D7D7D7",
"f 	c #D5D5D5",
"g 	c #D4D4D4",
"h 	c #F9F9F9",
"i 	c #D3D3D3",
"j 	c #F3F3F3",
"k 	c #DCDCDC",
"l 	c #D2D2D2",
"m 	c #D6D6D6",
"n 	c #D1D1D1",
"o 	c #FEFEFE",
"p 	c #B2B2B2",
"q 	c #CCCCCC",
"r 	c #D0D0D0",
"s 	c #696969",
"t 	c #B0B0B0",
"u 	c #CECECE",
"v 	c #434343",
"w 	c #A0A0A0",
"x 	c #CFCFCF",
"y 	c #CDCDCD",
"z 	c #3D3D3D",
"A 	c #9D9D9D",
"B 	c #757575",
"C 	c #3C3C3C",
"D 	c #9C9C9C",
"E 	c #CBCBCB",
"F 	c #9B9B9B",
"G 	c #CACACA",
"H 	c #3B3B3B",
"I 	c #C9C9C9",
"J 	c #9A9A9A",
"K 	c #C8C8C8",
"L 	c #E7E7E7",
"M 	c #999999",
"N 	c #C7C7C7",
"O 	c #C5C5C5",
"P 	c #3A3A3A",
"Q 	c #979797",
"R 	c #C4C4C4",
"S 	c #EDEDED",
"T 	c #969696",
"U 	c #C3C3C3",
"V 	c #393939",
"W 	c #C2C2C2",
"X 	c #959595",
"Y 	c #C1C1C1",
"Z 	c #949494",
"` 	c #C0C0C0",
" .	c #BEBEBE",
"..	c #939393",
"+.	c #BFBFBF",
"@.	c #BDBDBD",
"#.	c #929292",
"$.	c #BCBCBC",
"%.	c #919191",
"&.	c #BBBBBB",
"*.	c #373737",
"=.	c #909090",
"-.	c #BABABA",
";.	c #8F8F8F",
">.	c #B9B9B9",
",.	c #8E8E8E",
"'.	c #B8B8B8",
").	c #363636",
"!.	c #B6B6B6",
"~.	c #B7B7B7",
"{.	c #B5B5B5",
"].	c #A2A2A2",
"^.	c #111111",
"/.	c #090909",
"(.	c #080808",
"_.	c #070707",
":.	c #0E0E0E",
"<.	c #B4B4B4",
"[.	c #5C5C5C",
"}.	c #B3B3B3",
"|.	c #AEAEAE",
"1.	c #9E9E9E",
"2.	c #B1B1B1",
"3.	c #AFAFAF",
". . . . . . . . . . . . . . . . . . . . . . . . . . . . . . . . . . . . . . . . . . . . . . . . ",
". . . . . . . . . . . . . . . . . . . . . . . . . . . . . . . . . . . . . . . . . . . . . . . . ",
". . + + + + + + + . . . . . . . . . . . . . . . . . . . . . . . . . @ @ . . . . . . . @ @ . . . ",
". . + . . . . . + . . . . . . . . . . . . . . . . . . . . . . . . # $ $ @ @ . . # @ # $ $ % . . ",
". . + . + + + . + . . . . . . . . . . . . . . . . . . . . . . . . # $ $ % & * . @ = # $ $ % . . ",
". . + . . . . . + . . . . . . . . . . . . . . . . . . . . . . . . . @ @ . - ; * & . . @ @ . . . ",
". . + . + + + . + . . . . . . . . . . . . . . . . . . . . . . . . . @ @ . . % ; # . . @ @ . . . ",
". . + . . . . . + . . . . . . . . . . . . . . . . . . . . . . . . . @ @ . - $ $ * . . @ @ . . . ",
". . + . + + + . + . . . . . . . . . . . . . . . . . . . . . . = - . @ @ . % & # $ - . @ @ . . . ",
". . + . . . . . + . . . . . . . . . . . . . . . . . . . . . . ; = . * ; * $ - . % @ . * ; % . . ",
". . + + + + + + + . . . . . . . . . . . . . . . . . . . . . . . . . . . . . . . . . . . . . . . ",
". . . . . . . . . . . . . . . . . . . . . . . . . . . . . . . . . . . . . . . . . . . . . . . . ",
". . . . . . . . . . . . . . . . . . . . . . . . . . . . . . . . . . . . . . . . . . . . . . . . ",
". ; ; ; ; ; ; ; ; ; ; ; > , ' ) ! ~ { ] ^ / ( _ : < [ } | 1 2 3 + 4 5 6 7 8 9 0 a b c d e f g . ",
". ; ; ; ; ; ; ; ; ; ; > , ' ) h ~ { ] ^ / ( _ : < [ } | 1 2 3 + 4 5 $ 7 8 9 0 a b c d e f g i . ",
". ; ; ; ; ; ; ; ; ; > , ' ) h ~ { ] ^ j ( _ : < [ } | 1 2 3 + 4 5 $ 7 8 9 0 k b c d e f g i l . ",
". ; ; ; ; ; ; ; ; > , ' ) h ~ { . . . . . . . . . . . . . . . . . . c k 0 k b c d e m g i l n . ",
". ; ; ; ; ; ; ; o , ' ) h ! { . . ; ; ; ; ; ; ; ; ; ; ; ; ; ; ; ; . p q b b c d e m g i l n r . ",
". ; ; ; ; ; ; o , ' ) h ! { . ; . ; ; ; ; ; ; ; ; ; ; ; ; ; ; ; ; . s t g c d e m g i l n r u . ",
". ; ; ; ; ; o , ' ) h ! { . . . . ; ; ; ; ; ; ; ; ; ; ; ; ; ; ; ; . v w n d e m f i l n r x y . ",
". ; ; ; ; o > ' ) h ! ~ j . ; ; ; ; ; ; ; ; ; ; ; ; ; ; ; ; ; ; ; . z A r e m f i l n r x y q . ",
". ; ; ; o > ' ) h ! ~ ] < . ; ; B B ; B B B ; B ; B B B B ; B ; ; . C D x m f i l n r x y q E . ",
". ; ; o > ' ) h ! ~ ] ^ } . ; ; ; ; ; ; ; ; ; ; ; ; ; ; ; ; ; ; ; . C F u f g l n r x u q E G . ",
". ; o > , ) h ! ~ { ^ j 1 . ; ; B ; B B B ; B B B B ; B B ; B ; ; . H F y g l n r x u q E G I . ",
". o > , ) h ! ~ { ^ j / 2 . ; ; ; ; ; ; ; ; ; ; ; ; ; ; ; ; ; ; ; . H J q l n r x u q E G I K . ",
". > , ) h ! ~ { ^ j / ( L . ; ; B B B B ; B ; B B ; ; B B B ; ; ; . H M E n r x u y E G I K & . ",
". , ' h ! ~ { ] j / ( _ + . ; ; ; ; ; ; ; ; ; ; ; ; ; ; ; ; ; ; ; . H M I r x u y E G I K N O . ",
". ' h ! ~ { ] j / ( _ : 4 . ; ; ; B ; B B B B ; B ; B B B ; B ; ; . P Q K x u y E G I K N O R . ",
". h ! ~ { ] j / ( _ : S 5 . ; ; ; ; ; ; ; ; ; ; ; ; ; ; ; ; ; ; ; . P T N u y q G I K N O R U . ",
". ! ~ { ] ^ / ( _ : S [ $ . ; ; B ; B B B ; B B ; B B B ; B ; ; ; . V T & y q G I K N & R U W . ",
". ~ { ] ^ / ( _ : < [ } 6 . ; ; ; ; ; ; ; ; ; ; ; ; ; ; ; ; ; ; ; . V X O q G I K N & R U W Y . ",
". { ] ^ / ( _ : < [ } | 7 . ; ; B B ; B B B B ; B ; B B B ; B ; ; . V Z R E I K N & R U W Y ` . ",
". ] ^ j ( _ : < [ } | 1 8 . ; ; ; ; ; ; ; ; ; ; ; ; ; ; ; ; ; ; ; . V Z U I K N & O U W Y `  .. ",
". ^ j ( _ : < S } | 1 2 0 . ; ; B B B B ; B ; B B B ; B B B B ; ; . # ..Y K N & O U W Y ` +.@.. ",
". j ( _ : < S } | 1 2 L k . ; ; ; ; ; ; ; ; ; ; ; ; ; ; ; ; ; ; ; . # #.` N & O U W Y ` +.@.$.. ",
". / _ : < S } | 1 2 L + a . ; ; B B B ; B B B ; B B B B ; B B ; ; . # %.+.& O R W Y ` +.@.$.&.. ",
". _ : < S [ | 1 2 L + 4 b . ; ; ; ; ; ; ; ; ; ; ; ; ; ; ; ; ; ; ; . *.=.+.O R W Y ` +. .$.&.-.. ",
". : < S [ | 1 2 L 3 4 5 b . ; ; ; ; ; ; ; ; ; ; ; ; ; ; ; ; ; ; ; . *.;. .R W Y ` +. .$.&.-.>.. ",
". < S [ | 1 2 L 3 4 5 $ c . ; ; ; ; ; ; ; ; ; ; ; ; ; ; ; ; ; ; ; . *.,.@.U Y ` +. .$.&.-.>.'.. ",
". S [ } 1 2 L 3 4 5 $ 6 d . ; ; ; ; ; ; ; ; ; ; ; ; ; ; ; ; ; ; ; . ).,.$.Y ` +. .@.&.-.>.'.!.. ",
". [ } 1 2 L 3 + 5 $ 6 7 m . . . . . . . . . . . . . . . . . . . . . ).* -.` +. .@.&.-.>.'.~.{.. ",
". } 1 2 L 3 + 5 $ 6 7 8 m ].v ^./.(.(.(.(.(.(.(.(.(.(._._._._._._.:.H ,.>.+. .@.&.-.>.'.~.{.<.. ",
". | 2 L 3 + 5 $ 6 7 8 0 m t s v C H H H P P V V V # # # *.*.*.).).H [.M >. .@.$.-.>.'.~.{.<.}.. ",
". 2 L 3 + 4 $ 6 7 8 0 k c I |.1.D J M M Q T T X Z ..#.%.%.;.,.,.* ;.J t $.@.$.-.>.'.~.!.<.}.p . ",
". L 3 + 4 $ 6 7 8 9 k a b e l x u q E I K N & O U W Y ` +. .@.$.&.-.-.$.@.$.-.>.'.~.!.<.}.p 2.. ",
". 3 + 4 $ 6 7 8 9 k a b c d m f g i l r x u y E G I K N O R U W Y +. .@.$.&.>.'.~.!.<.}.p 2.t . ",
". + 4 5 6 7 8 9 k a b c d m f g i l r x u y q G I K N O R U W Y +. .@.$.&.>.'.~.!.{.}.p 2.t 3.. ",
". . . . . . . . . . . . . . . . . . . . . . . . . . . . . . . . . . . . . . . . . . . . . . . . "};
