/* XPM */
static char * file_dot_tex_xpm[] = {
"48 48 183 2",
"  	c None",
" .	c #000000",
" +	c #E5E5E5",
" @	c #AAAAAA",
" #	c #FFFFFF",
" $	c #383838",
" %	c #E2E2E2",
" &	c #717171",
" *	c #555555",
" =	c #C6C6C6",
" -	c #1C1C1C",
" ;	c #8D8D8D",
" >	c #FDFDFD",
" ,	c #FCFCFC",
" '	c #FBFBFB",
" )	c #FAFAFA",
" !	c #F8F8F8",
" ~	c #F7F7F7",
" {	c #F6F6F6",
" ]	c #F5F5F5",
" ^	c #F4F4F4",
" /	c #F2F2F2",
" (	c #F1F1F1",
" _	c #F0F0F0",
" :	c #EFEFEF",
" <	c #EEEEEE",
" [	c #ECECEC",
" }	c #EBEBEB",
" |	c #EAEAEA",
" 1	c #E9E9E9",
" 2	c #E8E8E8",
" 3	c #E6E6E6",
" 4	c #E4E4E4",
" 5	c #E3E3E3",
" 6	c #E1E1E1",
" 7	c #E0E0E0",
" 8	c #DFDFDF",
" 9	c #DEDEDE",
" 0	c #DDDDDD",
" a	c #DBDBDB",
" b	c #DADADA",
" c	c #D9D9D9",
" d	c #D8D8D8",
" e	c #D7D7D7",
" f	c #D5D5D5",
" g	c #D4D4D4",
" h	c #F9F9F9",
" i	c #D3D3D3",
" j	c #F3F3F3",
" k	c #DCDCDC",
" l	c #D2D2D2",
" m	c #EDEDED",
" n	c #E7E7E7",
" o	c #D6D6D6",
" p	c #D1D1D1",
" q	c #FEFEFE",
" r	c #D0D0D0",
" s	c #CECECE",
" t	c #CFCFCF",
" u	c #CDCDCD",
" v	c #CCCCCC",
" w	c #BEBEBE",
" x	c #B6B6B6",
" y	c #707070",
" z	c #ACACAC",
" A	c #7A7A7A",
" B	c #B7B7B7",
" C	c #B4B4B4",
" D	c #606060",
" E	c #9C9C9C",
" F	c #C8C8C8",
" G	c #CBCBCB",
" H	c #868686",
" I	c #3F3F3F",
" J	c #C3C3C3",
" K	c #2E2E2E",
" L	c #919191",
" M	c #575757",
" N	c #A0A0A0",
" O	c #AFAFAF",
" P	c #4D4D4D",
" Q	c #878787",
" R	c #696969",
" S	c #363636",
" T	c #5C5C5C",
" U	c #A7A7A7",
" V	c #C9C9C9",
" W	c #CACACA",
" X	c #434343",
" Y	c #787878",
" Z	c #C7C7C7",
" `	c #484848",
". 	c #AEAEAE",
"..	c #5D5D5D",
".+	c #9F9F9F",
".@	c #C1C1C1",
".#	c #BABABA",
".$	c #969696",
".%	c #414141",
".&	c #777777",
".*	c #C5C5C5",
".=	c #A4A4A4",
".-	c #5A5A5A",
".;	c #515151",
".>	c #6B6B6B",
".,	c #B5B5B5",
".'	c #838383",
".)	c #404040",
".!	c #757575",
".~	c #B1B1B1",
".{	c #7C7C7C",
".]	c #6A6A6A",
".^	c #A5A5A5",
"./	c #323232",
".(	c #6F6F6F",
"._	c #959595",
".:	c #505050",
".<	c #BCBCBC",
".[	c #939393",
".}	c #C0C0C0",
".|	c #C2C2C2",
".1	c #3E3E3E",
".2	c #A3A3A3",
".3	c #C4C4C4",
".4	c #5B5B5B",
".5	c #989898",
".6	c #A1A1A1",
".7	c #B3B3B3",
".8	c #4E4E4E",
".9	c #A8A8A8",
".0	c #313131",
".a	c #616161",
".b	c #9D9D9D",
".c	c #797979",
".d	c #898989",
".e	c #8E8E8E",
".f	c #8F8F8F",
".g	c #B0B0B0",
".h	c #595959",
".i	c #767676",
".j	c #878687",
".k	c #474747",
".l	c #676767",
".m	c #979797",
".n	c #4C4C4C",
".o	c #ADADAD",
".p	c #7D7D7D",
".q	c #A2A2A2",
".r	c #9B9B9B",
".s	c #BDBDBD",
".t	c #B9B9B9",
".u	c #929292",
".v	c #737373",
".w	c #727272",
".x	c #818181",
".y	c #585858",
".z	c #545454",
".A	c #4F4F4F",
".B	c #999999",
".C	c #454545",
".D	c #444444",
".E	c #BFBFBF",
".F	c #7B7B7B",
".G	c #565656",
".H	c #B8B8B8",
".I	c #B2B2B2",
".J	c #ABABAB",
".K	c #A6A6A6",
".L	c #BBBBBB",
".M	c #2C2C2C",
".N	c #464646",
".O	c #5E5E5E",
".P	c #4A4A4A",
".Q	c #7E7E7E",
".R	c #808080",
".S	c #3B3B3B",
".T	c #292929",
".U	c #262626",
".V	c #2A2A2A",
".W	c #353535",
".X	c #343434",
".Y	c #424242",
".Z	c #8B8B8B",
" . . . . . . . . . . . . . . . . . . . . . . . . . . . . . . . . . . . . . . . . . . . . . . . .",
" . . . . . . . . . . . . . . . . . . . . . . . . . . . . . . . . . . . . . . . . . . . . . . . .",
" . . + + + + + + + . . . . . . . . . . . . . . . . . . . . . @ # . . . . . . . . . . . . . . . .",
" . . + . . . . . + . . . . . . . . . . . . . . . . . . . . $ % # @ . . $ @ & . . & @ $ . & @ . .",
" . . + . + + + . + . . . . . . . . . . . . . . . . . . . . $ % # @ . @ # # # @ . * # = - # @ . .",
" . . + . . . . . + . . . . . . . . . . . . . . . . . . . . . @ # . $ # ; . & # $ . @ # = % . . .",
" . . + . + + + . + . . . . . . . . . . . . . . . . . . . . . @ # . * # # # # # * . . ; # $ . . .",
" . . + . . . . . + . . . . . . . . . . . . . . . . . . . . . @ # . * # $ . - * . . & # # @ . . .",
" . . + . + + + . + . . . . . . . . . . . . . . . . . $ @ & . @ # * - # % * @ % . . % # ; # - . .",
" . . + . . . . . + . . . . . . . . . . . . . . . . . * # @ . * # # . * = # = $ . ; # ; . % % . .",
" . . + + + + + + + . . . . . . . . . . . . . . . . . . . . . . . . . . . . . . . . . . . . . . .",
" . . . . . . . . . . . . . . . . . . . . . . . . . . . . . . . . . . . . . . . . . . . . . . . .",
" . . . . . . . . . . . . . . . . . . . . . . . . . . . . . . . . . . . . . . . . . . . . . . . .",
" . # # # # # # # # # # # > , ' ) ! ~ { ] ^ / ( _ : < [ } | 1 2 3 + 4 5 6 7 8 9 0 a b c d e f g .",
" . # # # # # # # # # # > , ' ) h ~ { ] ^ / ( _ : < [ } | 1 2 3 + 4 5 % 7 8 9 0 a b c d e f g i .",
" . # # # # # # # # # > , ' ) h ~ { ] ^ j ( _ : < [ } | 1 2 3 + 4 5 % 7 8 9 0 k b c d e f g i l .",
" . # # # # # # # # > , ' ) h ~ { ] ^ j ( _ : < m } | 1 2 n + 4 5 % 7 8 9 0 k b c d e o g i l p .",
" . # # # # # # # q , ' ) h ! { ] ^ j ( _ : < m } | 1 2 n + 4 5 % 6 8 9 0 k b c d e o g i l p r .",
" . # # # # # # q , ' ) h ! { ] ^ j / _ : < m } | 1 2 n + 4 5 % 6 8 9 0 k a c d e o g i l p r s .",
" . # # # # # q , ' ) h ! { ] ^ j / _ : < m [ | 1 2 n 3 4 5 % 6 8 9 0 k a c d e o f i l p r t u .",
" . # # # # q q q q q q q q > q q q c 6 [ [ | 1 2 n 3 4 } h q q q # q c ( > q q q > = = t t u v .",
" . # # # q > q > n w b ) | x 0 ) > y z 4 | 1 2 n 3 4 5 7 g 3 q q # 6 A B e q ' a C D E F u v G .",
" . # # q > ' q 2 H I @ { J K L k ) M N 6 1 2 n 3 + 5 % c O N } q # O P Q v ' g R S T U V v G W .",
" . # q > , ) > x X Y e h Z `.  J :...+ 8 2 n 3 + 5 % 6 8 e.@.# 3 # %.$ r q % Y.%.& z.* G G W V .",
" . q > , ) h >.=.- w | h Z.; G b <.>.+ 9 n 3 + 5 % 6 7 8 0 b =., n # 3 ~ <.'.).!.~ V v G W V F .",
" . > , ) h ! |.'.{ a < h Z.; t 5 V.].^ 9 3 + 5 % 6 7 8 0 k a f w B | q q W./.( O F u G W V F = .",
" . , ' h ! ~ 6._ O 3 < h Z.: s 4.<.[.} 7 4 5 6 7 8 9 0 k a b c r.| 7 q q.|.1.2 F u G W V F Z.* .",
" . ' h ! ~ { ( 9 5 : < h Z.. % ^ : m : _ _ _ _ _ : | l t d c e b 3 ! q q |.$ @ F G W V F Z.*.3 .",
" . h ! ~ { ] j / ( _ m h Z.4 o } h > / s t t t / q |.5.6 r d c 2 ) < Z m > % @.7 = V F Z.*.3 J .",
" . ! ~ { ] ^ / ( _ : [ h Z.8.,.9 r ) =.0 M.a.a.b ' 4.c.d v f 1 ' :.e.1.f ' > 9 U.g.3 Z =.3 J.| .",
" . ~ { ] ^ / ( : : : [ h G.h.* F u ~.3.).^ Z c z.< +.i.j u + > {.2.k.l.m J q > 0.= C.|.3 J.|.@ .",
" . { ] ^ / ( _ _ / j ] , < G b t 7 ! =.n.| + {.+.o [.p.q n ! q ~ f.b.r 9 1 q q q 6 b N.s.|.@.} .",
" . ] ^ j ( _ : m 2 + d s F G.t.u o ! i.v i _ ,.w.= c Y.6 0 c u = Z.5.x d 0 t =.* Z s.y.o.@.} w .",
" . ^ j ( _ : < } p.u.a.z.A.;.4 A o ! h _ ~ , q.. ;.^.w.[.B.l P.k.k.;.{.=.!.:.C.D.D.k.- z.}.E.s .",
" . j ( _ : < m } + g V = J.| J W 5 ! 0.F.+ b ).G.b k.s.<.3.H.I.g O.g.t.|.,.J @.9.K.^ @.L.E.s.< .",
" . / _ : < m } | 1 2 n 4 5 % 6 6 3 ! =.M.w.  <.- U ^. .K W r s v G W W F Z =.3 J.@.}.}.E.s.<.L .",
" . _ : < m [ | 1 2 n + 4 5 % 6 8 3 ! Z.N. .| J.O.3 (.d Q.3 s u v G W F Z =.*.3.|.@.}.E w.<.L.# .",
" . : < m [ | 1 2 n 3 4 5 % 6 8 5 m ' Z.P.< s.9.c ^ m.Q.x.| u v G W F Z =.*.3.|.@.}.E w.<.L.#.t .",
" . < m [ | 1 2 n 3 4 5 % 6 6 1 _ ! > 2 B 9 + 7 a q 2.i.R.} v G W V Z =.*.3 J.@.}.E w.<.L.#.t.H .",
" . m [ } 1 2 n 3 4 5 % 6 7 8 | , > > , h ) ) ) ) q 4.w.Q.} G W V Z =.*.3 J.@.}.E w.s.L.#.t.H x .",
" . [ } 1 2 n 3 + 5 % 6 7 9 b.}.i.S.T.U.V./.W.X.X.0.T.Y.Z.@ W V Z =.*.3 J.@.}.E w.s.L.#.t.H B., .",
" . } 1 2 n 3 + 5 % 6 7 8 0 k f.*.H C.7.I.~.g O. .o z.g w F V F =.*.3 J.|.}.E w.s.L.#.t.H B., C .",
" . | 2 n 3 + 5 % 6 7 8 0 k a b c e o f g i p r t s v G W V F =.*.3 J.|.}.E w.s.<.#.t.H B., C.7 .",
" . 2 n 3 + 4 % 6 7 8 0 k a b c e o f g i p r t s u G W V F =.*.3 J.|.}.E w.s.<.#.t.H B x C.7.I .",
" . n 3 + 4 % 6 7 8 9 k a b c d o f g i p r t s u G W V F Z.*.3 J.|.@.E w.s.<.#.t.H B x C.7.I.~ .",
" . 3 + 4 % 6 7 8 9 k a b c d o f g i l r t s u G W V F Z.*.3 J.|.@.E w.s.<.L.t.H B x C.7.I.~.g .",
" . + 4 5 6 7 8 9 k a b c d o f g i l r t s u v W V F Z.*.3 J.|.@.E w.s.<.L.t.H B x.,.7.I.~.g O .",
" . . . . . . . . . . . . . . . . . . . . . . . . . . . . . . . . . . . . . . . . . . . . . . . ."};
