/* XPM */
static char * folder_link_xpm[] = {
"48 48 914 2",
"  	c None",
". 	c #CFBCAD",
"+ 	c #E1D5CC",
"@ 	c #BCBCBC",
"# 	c #BA9F88",
"$ 	c #DED1C7",
"% 	c #EEE8E2",
"& 	c #FCFAF9",
"* 	c #F5F1EE",
"= 	c #E7DED6",
"- 	c #473E37",
"; 	c #BBA28C",
"> 	c #D0BFB1",
", 	c #E3D8D0",
"' 	c #F1EBE7",
") 	c #F5F1EF",
"! 	c #D5C3B5",
"~ 	c #B6987F",
"{ 	c #A88366",
"] 	c #3C2F24",
"^ 	c #FFFFFF",
"/ 	c #EBE7E4",
"( 	c #5E5E5E",
"_ 	c #CEBEB1",
": 	c #D6CABF",
"< 	c #EAE2DD",
"[ 	c #F4F1EE",
"} 	c #F7F4F2",
"| 	c #E1D5CD",
"1 	c #C8B4A2",
"2 	c #AF8F75",
"3 	c #A58164",
"4 	c #A78265",
"5 	c #9E7B60",
"6 	c #EAE6E2",
"7 	c #F0ECEA",
"8 	c #D7CDC5",
"9 	c #987D67",
"0 	c #7A5F49",
"a 	c #372B21",
"b 	c #C3B2A5",
"c 	c #D1C4B8",
"d 	c #E4DCD5",
"e 	c #F5F3F0",
"f 	c #F3EFEC",
"g 	c #F0EBE8",
"h 	c #DACCC3",
"i 	c #AE917B",
"j 	c #9D7B5F",
"k 	c #9F7C60",
"l 	c #A07D61",
"m 	c #A27E62",
"n 	c #A37F63",
"o 	c #A58064",
"p 	c #A68165",
"q 	c #896A53",
"r 	c #5C5047",
"s 	c #FAF9F9",
"t 	c #F9F8F8",
"u 	c #F4F4F4",
"v 	c #000000",
"w 	c #DED7D2",
"x 	c #E2DCD7",
"y 	c #C7BAB0",
"z 	c #83664F",
"A 	c #856850",
"B 	c #866951",
"C 	c #886A52",
"D 	c #896B53",
"E 	c #47372B",
"F 	c #362A21",
"G 	c #EDE8E4",
"H 	c #E8E3DE",
"I 	c #EEE9E6",
"J 	c #E8E1DC",
"K 	c #CCBCB0",
"L 	c #A88D78",
"M 	c #97755B",
"N 	c #98775C",
"O 	c #9A785D",
"P 	c #9B795E",
"Q 	c #9D7A5F",
"R 	c #A07C61",
"S 	c #A17E62",
"T 	c #B99E88",
"U 	c #DCCEC3",
"V 	c #FBFAFA",
"W 	c #DFDAD5",
"X 	c #837162",
"Y 	c #644F3B",
"Z 	c #423427",
"` 	c #7E634C",
" .	c #7F644D",
"..	c #81654E",
"+.	c #82664F",
"@.	c #846750",
"#.	c #856851",
"$.	c #876952",
"%.	c #80644E",
"&.	c #705843",
"*.	c #C5B6A9",
"=.	c #A9927F",
"-.	c #907057",
";.	c #917158",
">.	c #937359",
",.	c #94745A",
"'.	c #96755B",
").	c #97765C",
"!.	c #99775D",
"~.	c #AE927B",
"{.	c #D2C3B7",
"].	c #F8F7F6",
"^.	c #F2F0EF",
"/.	c #D3CDC6",
"(.	c #8B7867",
"_.	c #6E5742",
":.	c #6B5540",
"<.	c #68523E",
"[.	c #5D4A38",
"}.	c #403226",
"|.	c #DAD3CD",
"1.	c #7C614B",
"2.	c #7D624C",
"3.	c #7F634D",
"4.	c #82654E",
"5.	c #83674F",
"6.	c #8B6C54",
"7.	c #8C6E55",
"8.	c #8E6F56",
"9.	c #8F7057",
"0.	c #927259",
"a.	c #A1846D",
"b.	c #C5B3A5",
"c.	c #EAE3DE",
"d.	c #F8F7F7",
"e.	c #F0EEEC",
"f.	c #C2B9B0",
"g.	c #755C46",
"h.	c #735A44",
"i.	c #705943",
"j.	c #6E5741",
"k.	c #69533F",
"l.	c #67523E",
"m.	c #5A4735",
"n.	c #1F1812",
"o.	c #B8AAA0",
"p.	c #BAADA3",
"q.	c #7A5F4A",
"r.	c #7B604A",
"s.	c #7D614B",
"t.	c #80644D",
"u.	c #866851",
"v.	c #876A52",
"w.	c #8A6C54",
"x.	c #8C6D54",
"y.	c #9A7F69",
"z.	c #C1B0A2",
"A.	c #DFD6CF",
"B.	c #F7F5F4",
"C.	c #EEEBE9",
"D.	c #AC9D8F",
"E.	c #8B7460",
"F.	c #806853",
"G.	c #765D47",
"H.	c #745B45",
"I.	c #715944",
"J.	c #6F5742",
"K.	c #6C5641",
"L.	c #6A5440",
"M.	c #68533E",
"N.	c #66513D",
"O.	c #544332",
"P.	c #0C0807",
"Q.	c #DFD9D5",
"R.	c #EEEBE8",
"S.	c #E3DEDA",
"T.	c #E2DDD8",
"U.	c #775E48",
"V.	c #795F49",
"W.	c #7A604A",
"X.	c #836750",
"Y.	c #A18B78",
"Z.	c #B29E8D",
"`.	c #F6F5F4",
" +	c #F4F2F1",
".+	c #F2F0EE",
"++	c #D9D1CA",
"@+	c #A08B7A",
"#+	c #7F634C",
"$+	c #80664F",
"%+	c #937D6A",
"&+	c #9A8776",
"*+	c #958270",
"=+	c #7D6550",
"-+	c #725A44",
";+	c #6D5642",
">+	c #66523E",
",+	c #624E3B",
"'+	c #514030",
")+	c #020201",
"!+	c #EBE9E6",
"~+	c #D3CDC7",
"{+	c #CDC4BE",
"]+	c #E6E2DE",
"^+	c #BBAFA6",
"/+	c #998879",
"(+	c #7C6450",
"_+	c #755C47",
":+	c #775D48",
"<+	c #765C47",
"[+	c #775C47",
"}+	c #7D624B",
"|+	c #856C56",
"1+	c #8C705A",
"2+	c #E9E5E3",
"3+	c #F3F1EF",
"4+	c #DCD7D3",
"5+	c #C3B6A9",
"6+	c #957C67",
"7+	c #85684F",
"8+	c #81654D",
"9+	c #886F5B",
"0+	c #9B8A7C",
"a+	c #A8998A",
"b+	c #907D6C",
"c+	c #765F4A",
"d+	c #6C5541",
"e+	c #6A543F",
"f+	c #67533E",
"g+	c #65513D",
"h+	c #5E4B38",
"i+	c #524131",
"j+	c #050402",
"k+	c #E9E6E4",
"l+	c #A19387",
"m+	c #B9ADA4",
"n+	c #917F70",
"o+	c #6F5743",
"p+	c #705844",
"q+	c #725945",
"r+	c #735A46",
"s+	c #755B46",
"t+	c #7D6551",
"u+	c #9F8D7E",
"v+	c #F3F2F1",
"w+	c #F6F4F3",
"x+	c #BCAB9D",
"y+	c #8B6D54",
"z+	c #8D6E55",
"A+	c #8A6C53",
"B+	c #886B52",
"C+	c #856950",
"D+	c #82664E",
"E+	c #7F654E",
"F+	c #927C6A",
"G+	c #7C7167",
"H+	c #2B2825",
"I+	c #4D4742",
"J+	c #A49486",
"K+	c #867261",
"L+	c #6E5743",
"M+	c #6B5440",
"N+	c #68533F",
"O+	c #64503C",
"P+	c #4C3D2D",
"Q+	c #020100",
"R+	c #68523F",
"S+	c #695340",
"T+	c #6B5441",
"U+	c #6C5542",
"V+	c #6E5642",
"W+	c #8B7766",
"X+	c #F4F3F2",
"Y+	c #F4F3F1",
"Z+	c #D2C8BE",
"`+	c #A68E7A",
" @	c #927258",
".@	c #927359",
"+@	c #907157",
"@@	c #866A51",
"#@	c #846850",
"$@	c #80654D",
"%@	c #836A54",
"&@	c #9B8878",
"*@	c #5D5650",
"=@	c #951919",
"-@	c #980F0E",
";@	c #696159",
">@	c #968576",
",@	c #7B6655",
"'@	c #65503D",
")@	c #634F3B",
"!@	c #564533",
"~@	c #392D21",
"{@	c #030201",
"]@	c #66503D",
"^@	c #67513E",
"/@	c #69523F",
"(@	c #6A5340",
"_@	c #F5F3F1",
":@	c #DDD3CB",
"<@	c #AB907B",
"[@	c #98765C",
"}@	c #96755A",
"|@	c #917258",
"1@	c #8F7056",
"2@	c #82674F",
"3@	c #7F644C",
"4@	c #7F654F",
"5@	c #88715C",
"6@	c #A18F80",
"7@	c #3D3835",
"8@	c #8F1B1B",
"9@	c #602F2C",
"0@	c #7C7268",
"a@	c #8E7E6F",
"b@	c #6F5A47",
"c@	c #644F3C",
"d@	c #614D3A",
"e@	c #4F3F2F",
"f@	c #241D15",
"g@	c #060403",
"h@	c #644E3C",
"i@	c #654F3D",
"j@	c #F9F8F7",
"k@	c #A07D60",
"l@	c #99775C",
"m@	c #8F7157",
"n@	c #8D6F55",
"o@	c #826850",
"p@	c #816851",
"q@	c #826A54",
"r@	c #89735F",
"s@	c #9A897C",
"t@	c #252321",
"u@	c #8E1B1B",
"v@	c #881C1C",
"w@	c #5A3734",
"x@	c #A09285",
"y@	c #82705F",
"z@	c #6A5643",
"A@	c #5D4A37",
"B@	c #504030",
"C@	c #18130E",
"D@	c #060502",
"E@	c #614D3B",
"F@	c #634E3C",
"G@	c #644F3D",
"H@	c #66503E",
"I@	c #7B6756",
"J@	c #F8F6F5",
"K@	c #9E7C60",
"L@	c #9C7A5E",
"M@	c #95745A",
"N@	c #907258",
"O@	c #8E7056",
"P@	c #896C53",
"Q@	c #886B54",
"R@	c #866B54",
"S@	c #886D57",
"T@	c #8F7863",
"U@	c #917B68",
"V@	c #917C69",
"W@	c #937F6D",
"X@	c #7F7368",
"Y@	c #71302D",
"Z@	c #6A625B",
"`@	c #938678",
" #	c #756452",
".#	c #624F3C",
"+#	c #584634",
"@#	c #0E0B08",
"##	c #010100",
"$#	c #5F4B3A",
"%#	c #614C3A",
"&#	c #624D3B",
"*#	c #9E9084",
"=#	c #F1EDEA",
"-#	c #9B795D",
";#	c #947359",
">#	c #8C6F57",
",#	c #8E735B",
"'#	c #927863",
")#	c #947C67",
"!#	c #97806D",
"~#	c #9C8876",
"{#	c #9E8B7A",
"]#	c #A18F7F",
"^#	c #7C7065",
"/#	c #45403C",
"(#	c #682726",
"_#	c #941919",
":#	c #871C1C",
"<#	c #811E1E",
"[#	c #761615",
"}#	c #655E57",
"|#	c #877869",
"1#	c #695746",
"2#	c #554433",
"3#	c #4D3D2E",
"4#	c #F8F8F7",
"5#	c #5D4938",
"6#	c #5F4A39",
"7#	c #604C3A",
"8#	c #BCB3AB",
"9#	c #F0ECE9",
"0#	c #9B7A5E",
"a#	c #99785D",
"b#	c #97765B",
"c#	c #92725A",
"d#	c #92745C",
"e#	c #93775F",
"f#	c #977E68",
"g#	c #9D8571",
"h#	c #9F8A77",
"i#	c #A38E7D",
"j#	c #A89585",
"k#	c #958578",
"l#	c #433D38",
"m#	c #383431",
"n#	c #8B2A27",
"o#	c #A11616",
"p#	c #9A1818",
"q#	c #7F1F1F",
"r#	c #6B3935",
"s#	c #8B7D70",
"t#	c #6E5D4C",
"u#	c #524232",
"v#	c #47382A",
"w#	c #020101",
"x#	c #5B4837",
"y#	c #5C4938",
"z#	c #5E4A39",
"A#	c #614C3B",
"B#	c #CBC4BE",
"C#	c #E1D9D3",
"D#	c #9A795D",
"E#	c #95765D",
"F#	c #977962",
"G#	c #9C806A",
"H#	c #9E846F",
"I#	c #A08874",
"J#	c #A7917F",
"K#	c #AD9B8A",
"L#	c #9A8A7D",
"M#	c #5A524A",
"N#	c #3D3834",
"O#	c #442321",
"P#	c #B23533",
"Q#	c #AD1313",
"R#	c #A71515",
"S#	c #A01616",
"T#	c #8D1B1B",
"U#	c #801E1E",
"V#	c #0F0000",
"W#	c #94877A",
"X#	c #756454",
"Y#	c #504132",
"Z#	c #2D231A",
"`#	c #594636",
" $	c #5A4736",
".$	c #5C4837",
"+$	c #5F4B39",
"@$	c #DCD8D4",
"#$	c #D5C9BF",
"$$	c #99785E",
"%$	c #A1846E",
"&$	c #A38872",
"*$	c #A38873",
"=$	c #A68F7B",
"-$	c #AD9886",
";$	c #B29E8F",
">$	c #2F2C29",
",$	c #9D504C",
"'$	c #C00F0F",
")$	c #BA1010",
"!$	c #B31212",
"~$	c #A61515",
"{$	c #931919",
"]$	c #861D1D",
"^$	c #913836",
"/$	c #666059",
"($	c #8A7C6E",
"_$	c #655644",
":$	c #4C3C2D",
"<$	c #211A13",
"[$	c #070604",
"}$	c #574434",
"|$	c #584535",
"1$	c #F3F0F0",
"2$	c #A0846C",
"3$	c #B7A291",
"4$	c #B9A595",
"5$	c #B39F8E",
"6$	c #928275",
"7$	c #4D4640",
"8$	c #8C4945",
"9$	c #D30A0A",
"0$	c #CC0C0C",
"a$	c #C60D0D",
"b$	c #B91010",
"c$	c #AC1313",
"d$	c #991818",
"e$	c #931A1A",
"f$	c #201E1D",
"g$	c #988C80",
"h$	c #746454",
"i$	c #564534",
"j$	c #4B3B2C",
"k$	c #17130E",
"l$	c #060402",
"m$	c #544333",
"n$	c #564434",
"o$	c #574535",
"p$	c #5A4737",
"q$	c #F7F6F6",
"r$	c #B19988",
"s$	c #A68C76",
"t$	c #B5A497",
"u$	c #453F3A",
"v$	c #282422",
"w$	c #423D39",
"x$	c #C4413E",
"y$	c #DF0707",
"z$	c #D90909",
"A$	c #D20A0A",
"B$	c #BF0F0F",
"C$	c #9F1717",
"D$	c #8C1B1B",
"E$	c #2F1F1D",
"F$	c #786F67",
"G$	c #817365",
"H$	c #61503D",
"I$	c #4F4030",
"J$	c #4A3B2C",
"K$	c #090705",
"L$	c #080604",
"M$	c #524132",
"N$	c #544233",
"O$	c #554333",
"P$	c #584635",
"Q$	c #FAF9F8",
"R$	c #9A7B63",
"S$	c #97765D",
"T$	c #AA927E",
"U$	c #8E8279",
"V$	c #62302D",
"W$	c #F20303",
"X$	c #EC0404",
"Y$	c #E50606",
"Z$	c #C50D0D",
"`$	c #B21212",
" %	c #AC1414",
".%	c #A51515",
"+%	c #921A1A",
"@%	c #8B3532",
"#%	c #695847",
"$%	c #594835",
"%%	c #4E3F2E",
"&%	c #493A2A",
"*%	c #503F30",
"=%	c #514031",
"-%	c #544232",
";%	c #574534",
">%	c #5A4938",
",%	c #96775E",
"'%	c #B29B8A",
")%	c #665E58",
"!%	c #806963",
"~%	c #EB0404",
"{%	c #D80909",
"]%	c #CB0C0C",
"^%	c #B81111",
"/%	c #981818",
"(%	c #211F1D",
"_%	c #8E8277",
":%	c #756556",
"<%	c #5B4B38",
"[%	c #584735",
"}%	c #443729",
"|%	c #4E3E2F",
"1%	c #4F3F30",
"2%	c #7B6E60",
"3%	c #F0EEEB",
"4%	c #977961",
"5%	c #B8A494",
"6%	c #49443F",
"7%	c #E62422",
"8%	c #F10303",
"9%	c #DE0707",
"0%	c #D10A0A",
"a%	c #BE0F0F",
"b%	c #AB1414",
"c%	c #AA514E",
"d%	c #9E1717",
"e%	c #623431",
"f%	c #837970",
"g%	c #7E7061",
"h%	c #62503F",
"i%	c #594735",
"j%	c #544432",
"k%	c #473A2A",
"l%	c #282018",
"m%	c #040301",
"n%	c #4C3C2E",
"o%	c #4D3D2F",
"p%	c #4F3E2F",
"q%	c #91857A",
"r%	c #E8E3DF",
"s%	c #9A7D66",
"t%	c #BCA99B",
"u%	c #2D2A28",
"v%	c #F70101",
"w%	c #E40606",
"x%	c #C40E0E",
"y%	c #902F2D",
"z%	c #413E3A",
"A%	c #383533",
"B%	c #423E3A",
"C%	c #8F8275",
"D%	c #5A4836",
"E%	c #4F402F",
"F%	c #47392A",
"G%	c #1F1912",
"H%	c #4A3A2C",
"I%	c #4B3B2D",
"J%	c #EAE6E5",
"K%	c #9D826C",
"L%	c #C1B0A3",
"M%	c #332F2D",
"N%	c #EA0404",
"O%	c #D70909",
"P%	c #D10B0B",
"Q%	c #CA0C0C",
"R%	c #552523",
"S%	c #504A44",
"T%	c #887E75",
"U%	c #544F4B",
"V%	c #971818",
"W%	c #5C3B38",
"X%	c #877C72",
"Y%	c #766757",
"Z%	c #5C4B38",
"`%	c #4B3C2C",
" &	c #483A2A",
".&	c #15110C",
"+&	c #080704",
"@&	c #47392B",
"#&	c #493A2C",
"$&	c #4A3B2D",
"%&	c #F7F7F6",
"&&	c #D7CDC4",
"*&	c #A48B77",
"=&	c #AD9F94",
"-&	c #3F3A37",
";&	c #F00303",
">&	c #DD0808",
",&	c #C32C2A",
"'&	c #442421",
")&	c #3C3834",
"!&	c #675E56",
"~&	c #A09183",
"{&	c #9A8B7D",
"]&	c #A4968A",
"^&	c #7D3A36",
"/&	c #9D1717",
"(&	c #352422",
"_&	c #8B8076",
":&	c #817263",
"<&	c #63513F",
"[&	c #574634",
"}&	c #534232",
"|&	c #453729",
"1&	c #2D241A",
"2&	c #0D0907",
"3&	c #45372A",
"4&	c #47382B",
"5&	c #48392C",
"6&	c #D3C8BF",
"7&	c #A7917E",
"8&	c #968B81",
"9&	c #594440",
"0&	c #EA0505",
"a&	c #E30606",
"b&	c #BE2321",
"c&	c #603D38",
"d&	c #45403B",
"e&	c #908276",
"f&	c #9D8D7E",
"g&	c #928170",
"h&	c #887564",
"i&	c #887766",
"j&	c #9F9185",
"k&	c #35322F",
"l&	c #6C2B29",
"m&	c #403C38",
"n&	c #887A6C",
"o&	c #675644",
"p&	c #5A4936",
"q&	c #524130",
"r&	c #493A2B",
"s&	c #382C21",
"t&	c #1E1811",
"u&	c #433528",
"v&	c #453629",
"w&	c #46382A",
"x&	c #48392B",
"y&	c #FBFBFA",
"z&	c #AD9988",
"A&	c #91745B",
"B&	c #AF9B8A",
"C&	c #7F756D",
"D&	c #7A4642",
"E&	c #F60202",
"F&	c #8A1716",
"G&	c #5D3A35",
"H&	c #746A61",
"I&	c #908274",
"J&	c #998777",
"K&	c #907D6B",
"L&	c #887463",
"M&	c #806C58",
"N&	c #796552",
"O&	c #7F6D5B",
"P&	c #8B7F74",
"Q&	c #252220",
"R&	c #978B7E",
"S&	c #746353",
"T&	c #524331",
"U&	c #463829",
"V&	c #32281D",
"W&	c #130F0B",
"X&	c #050302",
"Y&	c #413427",
"Z&	c #423528",
"`&	c #443629",
" *	c #947861",
".*	c #AB9B8C",
"+*	c #4A4540",
"@*	c #302D2A",
"#*	c #282522",
"$*	c #8F8276",
"%*	c #A49282",
"&*	c #9A8675",
"**	c #8F7B69",
"=*	c #897461",
"-*	c #806B58",
";*	c #78614E",
">*	c #715B47",
",*	c #6C5742",
"'*	c #776452",
")*	c #7B7167",
"!*	c #292623",
"~*	c #615952",
"{*	c #807162",
"]*	c #5E4E3D",
"^*	c #483A2B",
"/*	c #362B20",
"(*	c #16110C",
"_*	c #100D09",
":*	c #030202",
"<*	c #3F3226",
"[*	c #403327",
"}*	c #423428",
"|*	c #655A4F",
"1*	c #886B51",
"2*	c #967C66",
"3*	c #96897D",
"4*	c #342F2B",
"5*	c #504842",
"6*	c #AF9D8E",
"7*	c #A08C7B",
"8*	c #96806E",
"9*	c #8F7965",
"0*	c #87715D",
"a*	c #806954",
"b*	c #79624D",
"c*	c #725A46",
"d*	c #69543F",
"e*	c #735F4D",
"f*	c #867A6F",
"g*	c #827567",
"h*	c #615142",
"i*	c #453728",
"j*	c #423527",
"k*	c #201813",
"l*	c #130E0B",
"m*	c #070503",
"n*	c #3D3024",
"o*	c #3E3125",
"p*	c #403326",
"q*	c #6C6258",
"r*	c #896B52",
"s*	c #91765F",
"t*	c #AC9886",
"u*	c #AA9685",
"v*	c #9E8977",
"w*	c #947E6A",
"x*	c #8D7561",
"y*	c #89715D",
"z*	c #806953",
"A*	c #7A614B",
"B*	c #755D47",
"C*	c #6F5843",
"D*	c #6D5641",
"E*	c #695643",
"F*	c #837566",
"G*	c #7B6E61",
"H*	c #5B4D40",
"I*	c #1B150F",
"J*	c #120E09",
"K*	c #2D251B",
"L*	c #3C3024",
"M*	c #3D3125",
"N*	c #A9A39D",
"O*	c #EFEBE8",
"P*	c #8C7058",
"Q*	c #907763",
"R*	c #886E59",
"S*	c #816852",
"T*	c #7C634D",
"U*	c #785E48",
"V*	c #735B45",
"W*	c #705944",
"X*	c #6B5541",
"Y*	c #624E3C",
"Z*	c #594A3A",
"`*	c #4C3F30",
" =	c #090704",
".=	c #F5F5F5",
"+=	c #2D231B",
"@=	c #3B2F24",
"#=	c #F0ECEB",
"$=	c #866B52",
"%=	c #866C54",
"&=	c #826751",
"*=	c #7E644D",
"==	c #7B614A",
"-=	c #745C46",
";=	c #715A44",
">=	c #5F4B38",
",=	c #3E3124",
"'=	c #2A2118",
")=	c #2E241B",
"!=	c #392E22",
"~=	c #E9E4E0",
"{=	c #7C624B",
"]=	c #796049",
"^=	c #725A45",
"/=	c #624E3A",
"(=	c #261E16",
"_=	c #14100A",
":=	c #F6F6F6",
"<=	c #282626",
"[=	c #33291E",
"}=	c #372C21",
"|=	c #D0C5BC",
"1=	c #81664E",
"2=	c #7D634C",
"3=	c #7A614A",
"4=	c #785F49",
"5=	c #66513C",
"6=	c #17120E",
"7=	c #F8F8F8",
"8=	c #111110",
"9=	c #33291F",
"0=	c #352A20",
"a=	c #C5B8AC",
"b=	c #66513E",
"c=	c #291F17",
"d=	c #2C2C2C",
"e=	c #251D16",
"f=	c #292118",
"g=	c #A28C7A",
"h=	c #584534",
"i=	c #513F30",
"j=	c #352A1F",
"k=	c #100C08",
"l=	c #090805",
"m=	c #222221",
"n=	c #120E0A",
"o=	c #25221E",
"p=	c #A08B79",
"q=	c #795F48",
"r=	c #34281E",
"s=	c #1D1611",
"t=	c #060503",
"u=	c #575656",
"v=	c #302C29",
"w=	c #80644C",
"x=	c #80654E",
"y=	c #634D3B",
"z=	c #534131",
"A=	c #3A2E23",
"B=	c #1D1811",
"C=	c #F1F1F1",
"D=	c #D7D7D7",
"E=	c #0D0B08",
"F=	c #4B4A49",
"G=	c #FDFDFD",
"H=	c #463629",
"I=	c #100C09",
"J=	c #0C0A08",
"K=	c #DED8D4",
"L=	c #644E3B",
"M=	c #5E4B39",
"N=	c #3B2E23",
"O=	c #1D1711",
"P=	c #FCFCFC",
"Q=	c #7A624D",
"R=	c #231C14",
"S=	c #080503",
"T=	c #333333",
"U=	c #121110",
"                                                                        . + @                   ",
"                                                                # $ % & * = -                   ",
"                                                        ; > , ' ) ' ! ~ { { ]                   ",
"                            ^ ^ ^ / (             _ : < [ } | 1 2 3 4 { { 5 ]       ^           ",
"                      ^ 6 ^ 7 8 9 0 a     b c d e f g h i j k l m n o p { q r ^ s t u v         ",
"                    w x y z A B C D E F G H I J K L M N O P Q 5 R S T U V ^ s W X Y Z v         ",
"                    / `  ...+.@.#.$.%.&.H *.=.-.;.>.,.'.).!.O ~.{.].^ ^./.(._.:.<.[.}.v         ",
"                    |.1.2.3.%.4.5.A B C D 6.7.8.9.;.0.a.b.c.d.^ e.f.g.h.i.j.:.k.l.m.n.v         ",
"                o.p.^ q.r.s.` t...z @.u.v.D w.x.y.z.A.B.C.|.D.E.F.G.H.I.J.K.L.M.N.O.P.v         ",
"            ^ Q.R.S.T.U.V.W.1.2.3.%.+.X.A Y.Z.`. +.+++@+#+$+%+&+*+=+-+&.;+:.k.>+,+'+)+          ",
"        !+~+{+]+^+/+(+_+:+<+<+[+}+|+1+2+3+`.4+5+6+7+5.8+` 9+0+v a+b+c+_.d+e+f+g+h+i+j+          ",
"        k+l+m+n+o+p+q+r+s+<+t+u+v+^ w+/ x+y+z+A+B+C+D+ .E+F+G+H+I+J+K+L+M+N+N.O+m.P+Q+          ",
"         +R+S+T+U+V+o+W+k+X+^ Y+Z+`+ @.@+@8.y+D @@#@$@` %@&@*@=@-@;@>@,@L.l.'@)@!@~@{@          ",
"         +]@^@/@(@d+;+^ _@:@<@O [@}@>.|@1@7.A+v.A 2@3@4@5@6@7@=@8@9@0@a@b@N.c@d@e@f@g@          ",
"        X+h@i@^@R+S+T+j@k@j P l@M ,. @m@n@y+B+B 5.o@p@q@r@s@t@=@u@v@w@x@y@z@,+A@B@C@D@          ",
"        j@E@F@G@H@^@I@J@K@L@O ).M@>.N@O@7.P@Q@R@S@T@U@V@W@X@Y@=@u@v@v@Z@`@ #.#+#P+@###          ",
"        j@$#%#&#h@'@*#=#j -#N '.;#|@9.n@>#,#'#)#!#~#{#]#^#/#(#_#u@:#<#[#}#|#1#2#3#j+            ",
"        4#5#6#7#&#F@8#9#0#a#b#M@0.c#d#e#f#g#h#i#j#k#l#m#n#o#p#_#u@:#<#q#r#s#t#u#v#w#            ",
"        4#x#y#z#$#A#B#C#D#N ).E#F#G#H#I#J#K#L#M#N#O#P#Q#R#S#p#_#T#:#U#q#V#W#X#Y#Z#g@            ",
"        4#`# $.$5#+$@$#$l@$$%$&$*$=$-$;$M#>$V#,$'$)$!$Q#~$S#p#{$T#]$U#^$/$($_$:$<$[$            ",
"        d.}$|$ $x#5#1$b.N 2$3$4$5$6$7$v 8$9$0$a$'$b$!$c$~$S#d$e$T#]$U#f$g$h$i$j$k$l$            ",
"        d.m$n$o$`#p$q$r$).s$t$u$v$w$x$y$z$A$0$a$B$b$!$c$~$C$d$e$D$]$E$F$G$H$I$J$K$L$            ",
"        d.M$N$O$}$P$Q$R$S$T$U$V$W$X$Y$y$z$A$0$Z$B$b$`$ %.%C$d$+%D$@%/$($#%$%%%&%Q+              ",
"        d.*%=%-%;%>%`.}@,%'%)%!%W$~%Y$y${%A$]%Z$B$^%`$ %.%C$/%+%D$(%_%:%<%[%J$}%v               ",
"        d.|%1%=%n$2%3%,.4%5%6%7%8%~%Y$9%{%0%]%Z$a%^%`$b%c%d%/%+%e%f%g%h%i%j%k%l%m%              ",
"        d.n%o%p%2#q%r%>.s%t%u%v%8%~%w%9%{%0%]%x%a%^%y%z%A%d%/%v@B%C%#%D%+#E%F%G%j+              ",
"        d.H%I%3#*%J%J@ @K%L%M%v%8%N%w%9%O%P%Q%x%R%v S%T%U%d%V%W%X%Y%Z%i%!@`% &.&+&              ",
"        d.@&#&$&n%%&&&|@*&=&-&v%;&N%w%>&O%,&'&)&!&~&{&]&^&/&(&_&:&<&D%[&}&|&1&v 2&              ",
"        ].3&4&5&H%%&6&N@7&8&9&v%;&0&a&b&c&d&e&f&g&h&i&j&k&l&m&n&o&p&[&q&r&s&t&L$                ",
"        %&u&v&w&x&y&z&A&B&C&D&E&;&F&G&H&I&J&K&L&M&N&O&P&>$Q&R&S&Z%T&P+U&V&W&X&m%                ",
"        %&Y&Z&`&3&s 7& *.*+*@*#*I+$*%*&***=*-*;*>*,*'*)*!*~*{*]*|%^*/*(*_*:*                    ",
"        %&<*[*}*|*^ 1*2*3*4*5*6*7*8*9*0*a*b*c*_.d+d*e*f*~*g*h*i*j*k*l*m*v                       ",
"        %&n*o*p*q*^ r*s*t*u*v*w*x*y*z*A*B*-+C*D*L.M.E*F*G*H*J$I*J*{@v                           ",
"        q$K*L*M*N*O*w.P*)#)#Q*R*S*T*U*B*V*W*_.X*k.Y*;%Z*`*f@v  =v                               ",
"        .=K$+=@=^ #=D $=R@%=&=*===V.G.-=;=C*K.l.>=i+,='= =:*v                                   ",
"        .=g@)=!=^ ~=v.A 2@$@` {=]=U.g.^=i.e+/=i+r&(=_=v                                         ",
"        :=<=[=}=^ |=B X.1= .2=3=4=G.H.J.5=2#:$V&6=Q+                                            ",
"        7=8=9=0=^ a=#@+.$@` {=]=U.g.b=.$'+c=2&Q+                                                ",
"        :=d=e=f=^ g=5...#+{=3=g.X*h=i=j=k=l=v                                                   ",
"        7=m=n=o=^ p=D+ .}+q=I.,+}&r=s=t=                                                        ",
"        .=u=v v=^ w=x=}+<+y=z=A=B=j+                                                            ",
"        C=D=E=F=G=v*G.k.|$H=I=J=                                                                ",
"          ^ ^ ^ K=L=M=N=O={@                                                                    ",
"            ^ P=Q=p%R=S=                                                                        ",
"            v T=U=w#                                                                            ",
"                                                                                                ",
"                                                                                                ",
"                                                                                                "};
