/* XPM */
static char * folder_xpm[] = {
"48 48 610 2",
"  	c None",
". 	c #000000",
"+ 	c #A88166",
"@ 	c #CFBCAD",
"# 	c #E1D5CC",
"$ 	c #BCBCBC",
"% 	c #A58162",
"& 	c #BA9F88",
"* 	c #DED1C7",
"= 	c #EEE8E2",
"- 	c #FCFAF9",
"; 	c #F5F1EE",
"> 	c #E7DED6",
", 	c #473E37",
"' 	c #FFFFFF",
") 	c #9E7B57",
"! 	c #BBA28C",
"~ 	c #D0BFB1",
"{ 	c #E3D8D0",
"] 	c #F1EBE7",
"^ 	c #F5F1EF",
"/ 	c #D5C3B5",
"( 	c #B6987F",
"_ 	c #A88366",
": 	c #3C2F24",
"< 	c #EBE7E4",
"[ 	c #5E5E5E",
"} 	c #AC927B",
"| 	c #CEBEB1",
"1 	c #D6CABF",
"2 	c #EAE2DD",
"3 	c #F4F1EE",
"4 	c #F7F4F2",
"5 	c #E1D5CD",
"6 	c #C8B4A2",
"7 	c #AF8F75",
"8 	c #A58164",
"9 	c #A78265",
"0 	c #9E7B60",
"a 	c #EAE6E2",
"b 	c #F0ECEA",
"c 	c #D7CDC5",
"d 	c #987D67",
"e 	c #7A5F49",
"f 	c #372B21",
"g 	c #B69D91",
"h 	c #C3B2A5",
"i 	c #D1C4B8",
"j 	c #E4DCD5",
"k 	c #F5F3F0",
"l 	c #F3EFEC",
"m 	c #F0EBE8",
"n 	c #DACCC3",
"o 	c #AE917B",
"p 	c #9D7B5F",
"q 	c #9F7C60",
"r 	c #A07D61",
"s 	c #A27E62",
"t 	c #A37F63",
"u 	c #A58064",
"v 	c #A68165",
"w 	c #896A53",
"x 	c #5C5047",
"y 	c #FAF9F9",
"z 	c #F9F8F8",
"A 	c #F4F4F4",
"B 	c #DED7D2",
"C 	c #E2DCD7",
"D 	c #C7BAB0",
"E 	c #83664F",
"F 	c #856850",
"G 	c #866951",
"H 	c #886A52",
"I 	c #896B53",
"J 	c #47372B",
"K 	c #362A21",
"L 	c #EDE8E4",
"M 	c #E8E3DE",
"N 	c #EEE9E6",
"O 	c #E8E1DC",
"P 	c #CCBCB0",
"Q 	c #A88D78",
"R 	c #97755B",
"S 	c #98775C",
"T 	c #9A785D",
"U 	c #9B795E",
"V 	c #9D7A5F",
"W 	c #A07C61",
"X 	c #A17E62",
"Y 	c #B99E88",
"Z 	c #DCCEC3",
"` 	c #FBFAFA",
" .	c #DFDAD5",
"..	c #837162",
"+.	c #644F3B",
"@.	c #423427",
"#.	c #7E634C",
"$.	c #7F644D",
"%.	c #81654E",
"&.	c #82664F",
"*.	c #846750",
"=.	c #856851",
"-.	c #876952",
";.	c #80644E",
">.	c #705843",
",.	c #C5B6A9",
"'.	c #A9927F",
").	c #907057",
"!.	c #917158",
"~.	c #937359",
"{.	c #94745A",
"].	c #96755B",
"^.	c #97765C",
"/.	c #99775D",
"(.	c #AE927B",
"_.	c #D2C3B7",
":.	c #F8F7F6",
"<.	c #F2F0EF",
"[.	c #D3CDC6",
"}.	c #8B7867",
"|.	c #6E5742",
"1.	c #6B5540",
"2.	c #68523E",
"3.	c #5D4A38",
"4.	c #403226",
"5.	c #DAD3CD",
"6.	c #7C614B",
"7.	c #7D624C",
"8.	c #7F634D",
"9.	c #82654E",
"0.	c #83674F",
"a.	c #8B6C54",
"b.	c #8C6E55",
"c.	c #8E6F56",
"d.	c #8F7057",
"e.	c #927259",
"f.	c #A1846D",
"g.	c #C5B3A5",
"h.	c #EAE3DE",
"i.	c #F8F7F7",
"j.	c #F0EEEC",
"k.	c #C2B9B0",
"l.	c #755C46",
"m.	c #735A44",
"n.	c #705943",
"o.	c #6E5741",
"p.	c #69533F",
"q.	c #67523E",
"r.	c #5A4735",
"s.	c #1F1812",
"t.	c #B8AAA0",
"u.	c #BAADA3",
"v.	c #7A5F4A",
"w.	c #7B604A",
"x.	c #7D614B",
"y.	c #80644D",
"z.	c #866851",
"A.	c #876A52",
"B.	c #8A6C54",
"C.	c #8C6D54",
"D.	c #9A7F69",
"E.	c #C1B0A2",
"F.	c #DFD6CF",
"G.	c #F7F5F4",
"H.	c #EEEBE9",
"I.	c #AA998A",
"J.	c #826955",
"K.	c #785F48",
"L.	c #765D47",
"M.	c #745B45",
"N.	c #715944",
"O.	c #6F5742",
"P.	c #6C5641",
"Q.	c #6A5440",
"R.	c #68533E",
"S.	c #66513D",
"T.	c #544332",
"U.	c #0C0807",
"V.	c #DFD9D5",
"W.	c #EEEBE8",
"X.	c #E3DEDA",
"Y.	c #E2DDD8",
"Z.	c #775E48",
"`.	c #795F49",
" +	c #7A604A",
".+	c #836750",
"++	c #A18B78",
"@+	c #B29E8D",
"#+	c #F6F5F4",
"$+	c #F4F2F1",
"%+	c #F2F0EE",
"&+	c #D9D1CA",
"*+	c #A08B7A",
"=+	c #7F634C",
"-+	c #7D624B",
";+	c #7C614A",
">+	c #796049",
",+	c #775E47",
"'+	c #725A44",
")+	c #6D5642",
"!+	c #66523E",
"~+	c #624E3B",
"{+	c #514030",
"]+	c #020201",
"^+	c #EBE9E6",
"/+	c #D3CDC7",
"(+	c #CDC4BE",
"_+	c #E6E2DE",
":+	c #BBAFA6",
"<+	c #998879",
"[+	c #7C6450",
"}+	c #755C47",
"|+	c #775D48",
"1+	c #765C47",
"2+	c #775C47",
"3+	c #856C56",
"4+	c #8C705A",
"5+	c #E9E5E3",
"6+	c #F3F1EF",
"7+	c #DCD7D3",
"8+	c #C3B6A9",
"9+	c #957C67",
"0+	c #85684F",
"a+	c #81654D",
"b+	c #7A6049",
"c+	c #755D46",
"d+	c #735B45",
"e+	c #715943",
"f+	c #6C5541",
"g+	c #6A543F",
"h+	c #67533E",
"i+	c #65513D",
"j+	c #5E4B38",
"k+	c #524131",
"l+	c #050402",
"m+	c #E9E6E4",
"n+	c #A19387",
"o+	c #B9ADA4",
"p+	c #917F70",
"q+	c #6F5743",
"r+	c #705844",
"s+	c #725945",
"t+	c #735A46",
"u+	c #755B46",
"v+	c #7D6551",
"w+	c #9F8D7E",
"x+	c #F3F2F1",
"y+	c #F6F4F3",
"z+	c #BCAB9D",
"A+	c #8B6D54",
"B+	c #8D6E55",
"C+	c #8A6C53",
"D+	c #886B52",
"E+	c #856950",
"F+	c #82664E",
"G+	c #795F48",
"H+	c #745C46",
"I+	c #6F5843",
"J+	c #6D5641",
"K+	c #6B5440",
"L+	c #68533F",
"M+	c #64503C",
"N+	c #4C3D2D",
"O+	c #020100",
"P+	c #68523F",
"Q+	c #695340",
"R+	c #6B5441",
"S+	c #6C5542",
"T+	c #6E5642",
"U+	c #8B7766",
"V+	c #F4F3F2",
"W+	c #F4F3F1",
"X+	c #D2C8BE",
"Y+	c #A68E7A",
"Z+	c #927258",
"`+	c #927359",
" @	c #907157",
".@	c #866A51",
"+@	c #846850",
"@@	c #80654D",
"#@	c #65503D",
"$@	c #634F3B",
"%@	c #564533",
"&@	c #392D21",
"*@	c #030201",
"=@	c #66503D",
"-@	c #67513E",
";@	c #69523F",
">@	c #6A5340",
",@	c #F5F3F1",
"'@	c #DDD3CB",
")@	c #AB907B",
"!@	c #98765C",
"~@	c #96755A",
"{@	c #917258",
"]@	c #8F7056",
"^@	c #82674F",
"/@	c #7F644C",
"(@	c #7C624B",
"_@	c #785E48",
":@	c #715A44",
"<@	c #6F5842",
"[@	c #644F3C",
"}@	c #614D3A",
"|@	c #4F3F2F",
"1@	c #241D15",
"2@	c #060403",
"3@	c #644E3C",
"4@	c #654F3D",
"5@	c #F9F8F7",
"6@	c #A07D60",
"7@	c #99775C",
"8@	c #8F7157",
"9@	c #8D6F55",
"0@	c #81664E",
"a@	c #7D634B",
"b@	c #7B614A",
"c@	c #775D47",
"d@	c #6C5540",
"e@	c #67513D",
"f@	c #5D4A37",
"g@	c #504030",
"h@	c #18130E",
"i@	c #060502",
"j@	c #614D3B",
"k@	c #634E3C",
"l@	c #644F3D",
"m@	c #66503E",
"n@	c #7B6756",
"o@	c #F8F6F5",
"p@	c #9E7C60",
"q@	c #9C7A5E",
"r@	c #95745A",
"s@	c #907258",
"t@	c #8E7056",
"u@	c #896C53",
"v@	c #584634",
"w@	c #0E0B08",
"x@	c #010100",
"y@	c #5F4B3A",
"z@	c #614C3A",
"A@	c #624D3B",
"B@	c #9E9084",
"C@	c #F1EDEA",
"D@	c #9B795D",
"E@	c #947359",
"F@	c #8A6D54",
"G@	c #5F4C39",
"H@	c #4D3D2E",
"I@	c #F8F8F7",
"J@	c #5D4938",
"K@	c #5F4A39",
"L@	c #604C3A",
"M@	c #BCB3AB",
"N@	c #F0ECE9",
"O@	c #9B7A5E",
"P@	c #99785D",
"Q@	c #97765B",
"R@	c #8C6E54",
"S@	c #876A51",
"T@	c #65503C",
"U@	c #604D3A",
"V@	c #514131",
"W@	c #47382A",
"X@	c #020101",
"Y@	c #5B4837",
"Z@	c #5C4938",
"`@	c #5E4A39",
" #	c #614C3B",
".#	c #CBC4BE",
"+#	c #E1D9D3",
"@#	c #9A795D",
"##	c #614E3A",
"$#	c #4D3E2E",
"%#	c #2D231A",
"&#	c #594636",
"*#	c #5A4736",
"=#	c #5C4837",
"-#	c #5F4B39",
";#	c #DCD8D4",
">#	c #D5C9BF",
",#	c #8D6F56",
"'#	c #6B5541",
")#	c #624F3B",
"!#	c #584734",
"~#	c #4C3C2D",
"{#	c #211A13",
"]#	c #070604",
"^#	c #574434",
"/#	c #584535",
"(#	c #F3F0F0",
"_#	c #98765B",
":#	c #95755A",
"<#	c #917157",
"[#	c #5C4A37",
"}#	c #4B3B2C",
"|#	c #17130E",
"1#	c #060402",
"2#	c #544333",
"3#	c #564434",
"4#	c #574535",
"5#	c #5A4737",
"6#	c #F7F6F6",
"7#	c #B19988",
"8#	c #947459",
"9#	c #6D5741",
"0#	c #624D3A",
"a#	c #604C39",
"b#	c #5D4B38",
"c#	c #5B4936",
"d#	c #4F4030",
"e#	c #4A3B2C",
"f#	c #090705",
"g#	c #080604",
"h#	c #524132",
"i#	c #544233",
"j#	c #554333",
"k#	c #584635",
"l#	c #FAF9F8",
"m#	c #9A7B63",
"n#	c #8B6E55",
"o#	c #7D634C",
"p#	c #634E3B",
"q#	c #594835",
"r#	c #4E3F2E",
"s#	c #493A2A",
"t#	c #503F30",
"u#	c #514031",
"v#	c #544232",
"w#	c #574534",
"x#	c #5A4938",
"y#	c #5A4936",
"z#	c #584735",
"A#	c #443729",
"B#	c #4E3E2F",
"C#	c #4F3F30",
"D#	c #7B6E60",
"E#	c #F0EEEB",
"F#	c #5B4937",
"G#	c #594735",
"H#	c #544432",
"I#	c #473A2A",
"J#	c #282018",
"K#	c #040301",
"L#	c #4C3C2E",
"M#	c #4D3D2F",
"N#	c #4F3E2F",
"O#	c #554433",
"P#	c #91857A",
"Q#	c #E8E3DF",
"R#	c #5A4836",
"S#	c #4F402F",
"T#	c #47392A",
"U#	c #1F1912",
"V#	c #4A3A2C",
"W#	c #4B3B2D",
"X#	c #EAE6E5",
"Y#	c #755D47",
"Z#	c #705944",
"`#	c #66513E",
" $	c #4B3C2C",
".$	c #483A2A",
"+$	c #15110C",
"@$	c #080704",
"#$	c #47392B",
"$$	c #493A2C",
"%$	c #4A3B2D",
"&$	c #F7F7F6",
"*$	c #D7CDC4",
"=$	c #574634",
"-$	c #534232",
";$	c #453729",
">$	c #2D241A",
",$	c #0D0907",
"'$	c #45372A",
")$	c #47382B",
"!$	c #48392C",
"~$	c #D3C8BF",
"{$	c #856951",
"]$	c #725A45",
"^$	c #524130",
"/$	c #493A2B",
"($	c #382C21",
"_$	c #1E1811",
":$	c #433528",
"<$	c #453629",
"[$	c #46382A",
"}$	c #48392B",
"|$	c #FBFBFA",
"1$	c #AD9988",
"2$	c #69533E",
"3$	c #524331",
"4$	c #463829",
"5$	c #32281D",
"6$	c #130F0B",
"7$	c #050302",
"8$	c #413427",
"9$	c #423528",
"0$	c #443629",
"a$	c #A7917E",
"b$	c #7E644C",
"c$	c #6D5742",
"d$	c #634F3C",
"e$	c #5E4B39",
"f$	c #483A2B",
"g$	c #362B20",
"h$	c #16110C",
"i$	c #100D09",
"j$	c #030202",
"k$	c #3F3226",
"l$	c #403327",
"m$	c #423428",
"n$	c #655A4F",
"o$	c #886B51",
"p$	c #84674F",
"q$	c #69543F",
"r$	c #453728",
"s$	c #423527",
"t$	c #201813",
"u$	c #130E0B",
"v$	c #070503",
"w$	c #3D3024",
"x$	c #3E3125",
"y$	c #403326",
"z$	c #6C6258",
"A$	c #896B52",
"B$	c #48392A",
"C$	c #1B150F",
"D$	c #120E09",
"E$	c #2D251B",
"F$	c #3C3024",
"G$	c #3D3125",
"H$	c #A9A39D",
"I$	c #EFEBE8",
"J$	c #624E3C",
"K$	c #564433",
"L$	c #514130",
"M$	c #231C14",
"N$	c #090704",
"O$	c #F5F5F5",
"P$	c #2D231B",
"Q$	c #3B2F24",
"R$	c #F0ECEB",
"S$	c #5F4B38",
"T$	c #3E3124",
"U$	c #2A2118",
"V$	c #2E241B",
"W$	c #392E22",
"X$	c #E9E4E0",
"Y$	c #624E3A",
"Z$	c #261E16",
"`$	c #14100A",
" %	c #F6F6F6",
".%	c #282626",
"+%	c #33291E",
"@%	c #372C21",
"#%	c #D0C5BC",
"$%	c #7A614A",
"%%	c #785F49",
"&%	c #66513C",
"*%	c #17120E",
"=%	c #F8F8F8",
"-%	c #111110",
";%	c #33291F",
">%	c #352A20",
",%	c #C5B8AC",
"'%	c #291F17",
")%	c #2C2C2C",
"!%	c #251D16",
"~%	c #292118",
"{%	c #A28C7A",
"]%	c #584534",
"^%	c #513F30",
"/%	c #352A1F",
"(%	c #100C08",
"_%	c #090805",
":%	c #222221",
"<%	c #120E0A",
"[%	c #25221E",
"}%	c #A08B79",
"|%	c #34281E",
"1%	c #1D1611",
"2%	c #060503",
"3%	c #575656",
"4%	c #302C29",
"5%	c #80644C",
"6%	c #80654E",
"7%	c #634D3B",
"8%	c #534131",
"9%	c #3A2E23",
"0%	c #1D1811",
"a%	c #F1F1F1",
"b%	c #D7D7D7",
"c%	c #0D0B08",
"d%	c #4B4A49",
"e%	c #FDFDFD",
"f%	c #9E8977",
"g%	c #463629",
"h%	c #100C09",
"i%	c #0C0A08",
"j%	c #DED8D4",
"k%	c #644E3B",
"l%	c #3B2E23",
"m%	c #1D1711",
"n%	c #FCFCFC",
"o%	c #7A624D",
"p%	c #080503",
"q%	c #333333",
"r%	c #121110",
"s%	c #66483A",
". . . . . . . . . . . . . . . . . . . . . . . . . . . . . . . . . . . + @ # $ . . . . . . . . . ",
". . . . . . . . . . . . . . . . . . . . . . . . . . . . . . . % & * = - ; > , . . . . . . . . . ",
". . . . . . . . . . . . . . . . ' ' ' . . . . . . . . ) ! ~ { ] ^ ] / ( _ _ : . . . . . . . . . ",
". . . . . . . . . . . . . ' ' ' ' < [ . . . . . } | 1 2 3 4 5 6 7 8 9 _ _ 0 : . ' ' ' ' . . . . ",
". . . . . . . . . . . ' a ' b c d e f . g h i j k l m n o p q r s t u v _ w x ' y z A . . . . . ",
". . . . . . . . . . B C D E F G H I J K L M N O P Q R S T U V 0 W X Y Z ` ' y  ...+.@.. . . . . ",
". . . . . . . . . . < #.$.%.&.*.=.-.;.>.M ,.'.).!.~.{.].^./.T (._.:.' <.[.}.|.1.2.3.4.. . . . . ",
". . . . . . . . . . 5.6.7.8.;.9.0.F G H I a.b.c.d.!.e.f.g.h.i.' j.k.l.m.n.o.1.p.q.r.s.. . . . . ",
". . . . . . . . t.u.' v.w.x.#.y.%.E *.z.A.I B.C.D.E.F.G.H.5.I.J.K.L.M.N.O.P.Q.R.S.T.U.. . . . . ",
". . . . . ' ' V.W.X.Y.Z.`. +6.7.8.;.&..+F ++@+#+$+%+&+*+=+-+;+>+,+l.'+>.)+1.p.!+~+{+]+. . . . . ",
". . . . ^+/+(+_+:+<+[+}+|+1+1+2+-+3+4+5+6+#+7+8+9+0+0.a+#.;+b+K.c+d+e+|.f+g+h+i+j+k+l+. . . . . ",
". . . ' m+n+o+p+q+r+s+t+u+1+v+w+x+' y+< z+A+B+C+D+E+F+$.-+w.G+L.H+'+I+J+K+L+S.M+r.N+O+. . . . . ",
". . . ' $+P+Q+R+S+T+q+U+m+V+' W+X+Y+Z+`+ @c.A+I .@+@@@#.;+`.Z.l.d+n.|.f+p.q.#@$@%@&@*@. . . . . ",
". . . ' $+=@-@;@>@f+)+' ,@'@)@T !@~@~.{@]@b.C+A.F ^@/@(@b+_@L.d+:@<@J+Q.2.S.[@}@|@1@2@. . . . . ",
". . . ' V+3@4@-@P+Q+R+5@6@p U 7@R {.Z+8@9@A+D+G 0.0@a@b@`.c@l.'+>.|.d@p.e@M+~+f@g@h@i@. . . . . ",
". . . . 5@j@k@l@m@-@n@o@p@q@T ^.r@~.s@t@b.u@A.+@&.@@(@b+Z.l.d+N.O.P.g+2.i+$@}@v@N+w@x@. . . . . ",
". . . . 5@y@z@A@3@#@B@C@p D@S ].E@{@d.9@F@D+G 0.%.#.b@G+L.H+'+>.)+1.p.S.M+~+G@T.H@l+. . . . . . ",
". . . . I@J@K@L@A@k@M@N@O@P@Q@r@e.).c.R@u@S@+@F+y.-+b+,+l.d+n.|.f+g+q.T@$@U@j+V@W@X@. . . . . . ",
". . . . I@Y@Z@`@y@ #.#+#@#S ].~.!.d.B+C+D+E+0.a+#.;+K.L.d+:@I+J+Q.2.S.M+##G@f@$#%#2@. . . . . . ",
". . . . I@&#*#=#J@-#;#>#7@Q@{.Z+).,#A+I .@+@F+$.-+ +c@H+'+n.|.'#p.-@M+)#U@j+!#~#{#]#. . . . . . ",
". . . . i.^#/#*#Y@J@(#g._#:#~.<#c.b.C+A.E+0.@@#.b@`.l.d+e+<@P.Q.2.=@$@}@G@[#T.}#|#1#. . . . . . ",
". . . . i.2#3#4#&#5#6#7#].8#Z+]@B+A+D+G 0.0@/@(@b+Z.M.N.<@9#1.p.e@[@0#a#b#c#d#e#f#g#. . . . . . ",
". . . . i.h#i#j#^#k#l#m#r@`+ @c.n#u@A.+@&.@@o#b@`.L.m.>.|.P.g+q.T@p#U@j+[#q#r#s#O+. . . . . . . ",
". . . . i.t#u#v#w#x##+~@~.!.]@b.F@D+G 0.%./@(@b+Z.l.N.O.J+1.L+S.[@}@G@3.y#z#e#A#. . . . . . . . ",
". . . . i.B#C#u#3#D#E#{.Z+).9@A+u@S@+@F+y.-+b@K.L.d+>.J+1.p.q.M+~+a#b#F#G#H#I#J#K#. . . . . . . ",
". . . . i.L#M#N#O#P#Q#~.!.c.R@C+D+E+0.a+#.;+>+,+H+'+|.f+g+2.i+$@}@j+[#R#v@S#T#U#l+. . . . . . . ",
". . . . i.V#W#H@t#X#o@Z+d.B+a.D+.@+@0@$.-+ +_@Y#d+Z#J+Q.p.`#M+~+a#3.c#G#%@ $.$+$@$. . . . . . . ",
". . . . i.#$$$%$L#&$*$ @c.C.I A.E+^@@@#.b@`.L.H+:@I+1.p.q.#@$@}@j+[#R#=$-$;$>$. ,$. . . . . . . ",
". . . . :.'$)$!$V#&$~$]@b.C+H {$0.0@/@(@b+Z.l.]$n.|.g+2.S.[@}@G@f@y#=$^$/$($_$g#. . . . . . . . ",
". . . . &$:$<$[$}$|$1$,#A+I G +@&.@@o#b@`.L.M.N.<@P.2$e@T@~+a#j+c#3$N+4$5$6$7$K#. . . . . . . . ",
". . . . &$8$9$0$'$y a$b.u@A.F 0.%.b$(@b+Z.l.]$>.c$1.q.T@d$}@e$=$B#f$g$h$i$j$. . . . . . . . . . ",
". . . . &$k$l$m$n$' o$F@D+G p$F+$.-+b@K.L.d+N.|.f+q$S.+.~+F#-$r$s$t$u$v$. . . . . . . . . . . . ",
". . . . &$w$x$y$z$' A$u@S@F &.@@#.;+>+,+H+'+I+J+Q.R.$@j+O#B$B$C$D$*@. . . . . . . . . . . . . . ",
". . . . 6#E$F$G$H$I$B.D+{$0.%.$.(@ +_@Y#d+Z#|.'#p.J$K$L$T#M$. N$. . . . . . . . . . . . . . . . ",
". . . . O$f#P$Q$' R$I .@+@F+$.o#b@`.L.H+:@I+P.q.S$k+T$U$N$j$. . . . . . . . . . . . . . . . . . ",
". . . . O$2@V$W$' X$A.F ^@@@#.(@>+Z.l.]$n.g+Y$k+/$Z$`$. . . . . . . . . . . . . . . . . . . . . ",
". . . .  %.%+%@%' #%G .+0@$.o#$%%%L.M.O.&%O#~#5$*%O+. . . . . . . . . . . . . . . . . . . . . . ",
". . . . =%-%;%>%' ,%+@&.@@#.(@>+Z.l.`#=#{+'%,$O+. . . . . . . . . . . . . . . . . . . . . . . . ",
". . . .  %)%!%~%' {%0.%.=+(@$%l.'#]%^%/%(%_%. . . . . . . . . . . . . . . . . . . . . . . . . . ",
". . . . =%:%<%[%' }%F+$.-+G+N.~+-$|%1%2%. . . . . . . . . . . . . . . . . . . . . . . . . . . . ",
". . . . O$3%. 4%' 5%6%-+1+7%8%9%0%l+. . . . . . . . . . . . . . . . . . . . . . . . . . . . . . ",
". . . . a%b%c%d%e%f%L.p./#g%h%i%. . . . . . . . . . . . . . . . . . . . . . . . . . . . . . . . ",
". . . . ' ' ' ' j%k%e$l%m%*@. . . . . . . . . . . . . . . . . . . . . . . . . . . . . . . . . . ",
". . . . . ' ' n%o%N#M$p%. . . . . . . . . . . . . . . . . . . . . . . . . . . . . . . . . . . . ",
". . . . . . . q%r%X@. . . . . . . . . . . . . . . . . . . . . . . . . . . . . . . . . . . . . . ",
". . . . . . . . . s%. . . . . . . . . . . . . . . . . . . . . . . . . . . . . . . . . . . . . . ",
". . . . . . . . . . . . . . . . . . . . . . . . . . . . . . . . . . . . . . . . . . . . . . . . ",
". . . . . . . . . . . . . . . . . . . . . . . . . . . . . . . . . . . . . . . . . . . . . . . . "};
