/* XPM */
static char * FSVIEWER_XPM[] = {
"48 48 166 2",
"  	c None",
". 	c #EFEFEF",
"+ 	c #CFC8CF",
"@ 	c #EFD8EF",
"# 	c #CFD8DF",
"$ 	c #9097B0",
"% 	c #90A8B0",
"& 	c #A0A8CF",
"* 	c #CFEFCF",
"= 	c #DFEFDF",
"- 	c #CFB8CF",
"; 	c #9087B0",
"> 	c #8097A0",
", 	c #8087A0",
"' 	c #A0B8B0",
") 	c #EFC8DF",
"! 	c #DFEFEF",
"~ 	c #90B8B0",
"{ 	c #9097CF",
"] 	c #8097B0",
"^ 	c #8087B0",
"/ 	c #7097A0",
"( 	c #DFD8DF",
"_ 	c #A097B0",
": 	c #708790",
"< 	c #808790",
"[ 	c #A0A8B0",
"} 	c #DFC8DF",
"| 	c #DFD8CF",
"1 	c #CFC8DF",
"2 	c #7087A0",
"3 	c #7077A0",
"4 	c #DFD8EF",
"5 	c #8077A0",
"6 	c #707790",
"7 	c #9087A0",
"8 	c #FFFFFF",
"9 	c #608790",
"0 	c #607790",
"a 	c #607780",
"b 	c #505060",
"c 	c #2F302F",
"d 	c #2F202F",
"e 	c #506750",
"f 	c #706790",
"g 	c #0F000F",
"h 	c #0F0F00",
"i 	c #0F201F",
"j 	c #1F202F",
"k 	c #1F302F",
"l 	c #605060",
"m 	c #504060",
"n 	c #0F0F0F",
"o 	c #000F00",
"p 	c #1F0F1F",
"q 	c #1F201F",
"r 	c #606760",
"s 	c #405050",
"t 	c #2F0F1F",
"u 	c #2F201F",
"v 	c #1F301F",
"w 	c #505070",
"x 	c #000F0F",
"y 	c #1F200F",
"z 	c #504040",
"A 	c #909780",
"B 	c #FFEFEF",
"C 	c #FFFFEF",
"D 	c #504050",
"E 	c #607770",
"F 	c #707780",
"G 	c #B09780",
"H 	c #DFC890",
"I 	c #EFC8A0",
"J 	c #40301F",
"K 	c #604040",
"L 	c #FFEFDF",
"M 	c #DFB8B0",
"N 	c #1F2040",
"O 	c #2F3040",
"P 	c #605070",
"Q 	c #A0A880",
"R 	c #DFC8A0",
"S 	c #EFD8A0",
"T 	c #B0B880",
"U 	c #EFD8CF",
"V 	c #40402F",
"W 	c #DFC8CF",
"X 	c #EFFFEF",
"Y 	c #2F2040",
"Z 	c #606770",
"` 	c #50402F",
" .	c #CFA890",
"..	c #50302F",
"+.	c #909790",
"@.	c #EFEFFF",
"#.	c #1F3040",
"$.	c #2F4040",
"%.	c #2F3050",
"&.	c #404050",
"*.	c #A0A870",
"=.	c #DFB8A0",
"-.	c #40302F",
";.	c #2F301F",
">.	c #809790",
",.	c #403040",
"'.	c #403050",
").	c #40202F",
"!.	c #606740",
"~.	c #808780",
"{.	c #908790",
"].	c #404040",
"^.	c #2F4050",
"/.	c #404060",
"(.	c #0F0F1F",
"_.	c #706750",
":.	c #EFD8B0",
"<.	c #0F200F",
"[.	c #806750",
"}.	c #606750",
"|.	c #1F0F2F",
"1.	c #405060",
"2.	c #707750",
"3.	c #A09770",
"4.	c #605040",
"5.	c #707760",
"6.	c #2F402F",
"7.	c #504070",
"8.	c #505040",
"9.	c #A09790",
"0.	c #A08770",
"a.	c #505050",
"b.	c #907770",
"c.	c #A09780",
"d.	c #909760",
"e.	c #000000",
"f.	c #9097A0",
"g.	c #908780",
"h.	c #EFEFB0",
"i.	c #405040",
"j.	c #0F0000",
"k.	c #506760",
"l.	c #405070",
"m.	c #506770",
"n.	c #406770",
"o.	c #505080",
"p.	c #00000F",
"q.	c #0F202F",
"r.	c #2F4060",
"s.	c #605080",
"t.	c #606780",
"u.	c #406760",
"v.	c #506780",
"w.	c #507780",
"x.	c #606790",
"y.	c #708780",
"z.	c #B0B8CF",
"A.	c #706780",
"B.	c #1F0F0F",
"C.	c #607760",
"D.	c #2F5050",
"E.	c #708770",
"F.	c #807780",
"G.	c #809780",
"H.	c #706770",
"I.	c #A097A0",
"                                    . . +                                                       ",
"                                @ # $ % & * +                                                   ",
"                          @ = - % ; > , , ; ' ) +                                               ",
"                      ! . ~ { ] ^ / ^ / , / , > & * (                                           ",
"                  @ ( _ > ; > ^ > , , , : , , , < $ [ } |                                       ",
"            @ = 1 % $ ] ^ > ^ / ^ 2 , 2 3 2 3 : 3 2 , > & ( (                                   ",
"        = 4 [ $ ] ; > ; , ^ , , 2 , : 5 : 3 : 6 6 6 : 6 , 7 [ } |                               ",
"    8 # $ > ] ] ] > ^ > ^ / ^ 2 , : 3 : 3 : 3 9 6 0 6 9 3 : 3 a b c                             ",
"    8 d e 7 > , > , , , , , 2 5 : 5 : 3 : 6 6 6 a f a f a f b g h g                             ",
"    8 i j k l > ^ / ^ 2 , 2 , : 3 : 3 : 3 9 6 0 6 a 6 a m n n o n n                             ",
"    8 p q j q d r ; > , 2 5 : 5 6 6 6 6 6 6 a f 0 f s g h g h t u q                             ",
"    8 q j k j v j s w > , 2 2 : 6 9 6 0 6 a 6 0 b x n x n y u v z A B                           ",
"    C j v d k d k d k D E , : 5 : 6 F 6 a f s g h g h t u u u G H I J K L M                     ",
"    8 k N k O k O O O k d s P 2 2 : 6 a m n n x n q u q d Q R S z u z T U V W     + 4 k         ",
"    X d k Y k Y c O O O O O c D Z 6 s g h g h t y u u G H S ` u `  .S ..y p +.@ ( 7 s g         ",
"    @.k O k O #.O $.%.$.%.$.%.#.&.x n x n q q u u *.=.S -.;.z T S V q q +.! 4 >.b #.j x         ",
"    . O c O O O $.,.$.'.$.'.&.'.$.g n p y u u G H I J ).!.I S ..y p ~.@ ( {.].j k Y j n         ",
"    @.#.O $.O $.%.^.'.^.&.^.&.^./.n (.-.(.Q R S -.;._.S :.V u <.{.! } >.&.j j j N #.j x         ",
"    . O O O $.'.$.'.$.'.&.&.&./.&.g n -.n [.;.).}.S S ..q p ~.@ ( {.].|.q j q d k Y j g         ",
"    @.$.%.$.%.^.&.^.&.^./.^./.1./.x (.V (.2.(.3.S 4.u q {.! 4 >.&.i j i j i j 5.4.6.N n         ",
"    . '.$.'.$.&.&.&.&.&.&.m s m s g n -.n [.n [.u u u @ ( {.].p i p i |.q j q c S K j n         ",
"    @.^.&.^.&.^./.&./.&./.1./.1.7.n (.].p 8.(.2.(.2.(.# Z i p i |.i j i j k 9.:.0.6.j x         ",
"    . '.^.'.&.&.&./.s m 1.m 1.m b g n m < D n [.n [.n } a.p i |.i b.4.d c.:.d.,.j j k g         ",
"    @.^.&.^./.s /.s /.1.b 1.w 1.w e.n i /.: f.q (.2.(.# l i j i j V g.h.0.i.j k O $.N n         ",
"    . &.&.&.&./.s m 1.m 1.m b w b j.h j.e.p 1.{.c u n } k.p q j q j q d q j k %.$.'.k (.        ",
"    . ^./.1./.1./.1.b 1.w l.w l.w o n k (.o (.(.Z >.d # P i j j N k O #.O $.%.^./.^.N n         ",
"    ! /.&./.1.m 1.m 1.w b w b w w j.h '.j Y e.j.n (.r } k.j j d k Y O O O %.^.'.&./.k (.        ",
"    4 1.1.1.w 1.w 1.w m.w n.w m.o.o n i &.^.N k p.o (.# Z q.N k O #.%.$.%.^.r.^./.1.N <.        ",
"    4 m 1.m b w b w b w m.P m.s.m.j.h j.e.p &.O k d e.} k.d j Y k O O %.$.'.&./.&.m j p         ",
"    4 1.w 1.w 1.w m.w m.o.m.o.m.t.o %.o p.o (.k %.$.N # Z k Y #.O O %.^.%.^./.^.%.i p           ",
"    4 m b w b w w w m.P m.s.m.s.m.g $.,.&.j.e.j.j d O } r Y k Y O %.$.'.^./.O |.(.j             ",
"    4 u.w u.w m.w m.o.m.t.m.t.v.t.x t.2 ^ $.(.o p.o j # Z k O #.%.$.%.^.&.i (.k                 ",
"    ( w b w w w m.P m.s.m.s.Z t.t.g & 6 &.d k Y n j.e.} r Y O O $.'.$.j i d                     ",
"    4 m.w m.o.m.o.m.t.v.t.v.t.w.x.n & 1.N #.O #.%.O (.# Z #.%.$.%.j p k                         ",
"    ( w w s.m.s.m.s.m.t.t.t.a t.a n ' m k Y k O O %.$.} Z O O |.(.p c                           ",
"    4 m.v.m.v.v.t.v.t.w.t.w.x.a 0 n & 1.O #.%.$.%.$.%.y.Z k (.i (.i                             ",
"    z.w m.s.Z t.m.t.t.t.a A.a f a B.& b k Y O %.$.'.^.j n p (.Y i p                             ",
"      k w v.t.v.x.a x.a x.0 6 0 6 <.& 1.O O %.$.%.^.&.#.Y O %.1.j i                             ",
"        q '.a t.t.x.a f a f 0 f 0 p ' m O %.O %.^.'.^./.&./.1.m q p C.~.                        ",
"          #.j m.x.a x.0 6 0 3 0 3 <.& 1.%.$.%.^.&.^./.D./.1.^.i (.i D E.~.                      ",
"            #.d $.f a f 0 6 6 3 6 p & b O %.$.'.^.'.&./.s j q q v ,.a.F.G.                      ",
"                O k t.0 3 0 3 9 3 i & 1.%.^.&.^./.^./.k |.n c 6.&.r F.G.                        ",
"                  #.v '.a 3 6 3 6 p ' w O '.^.'.&.Y i n ;.,.i.a.E.~.G.                          ",
"                      6.O m.3 2 3 i & k.%.^./.#.j n n i.D a.F.G.{.                              ",
"                        #.#.&.3 2 p & w $.Y q p n z ].a.C.~.~.                                  ",
"                            O #.w q & $.|.i (.].&.a.H.~.<                                       ",
"                              c q p O p n ].i.z r ~.~.9.                                        ",
"                                r v (.v D C.~.~.I.                                              "};
