/* XPM */
static char * full_folder_xpm[] = {
"48 48 590 2",
"  	c None",
". 	c #151515",
"+ 	c #444444",
"@ 	c #000000",
"# 	c #A88166",
"$ 	c #CFBCAD",
"% 	c #E1D5CC",
"& 	c #BCBCBC",
"* 	c #AAAAAA",
"= 	c #BBBBBB",
"- 	c #C6C6C6",
"; 	c #8D6D55",
"> 	c #BA9F88",
", 	c #DED1C7",
"' 	c #EEE8E2",
") 	c #FCFAF9",
"! 	c #F5F1EE",
"~ 	c #E7DED6",
"{ 	c #473E37",
"] 	c #FFFFFF",
"^ 	c #989898",
"/ 	c #B8B8B8",
"( 	c #ECECEC",
"_ 	c #EDEDED",
": 	c #D3D3D3",
"< 	c #C6C1BE",
"[ 	c #EFEBE9",
"} 	c #F1EBE7",
"| 	c #D5C3B5",
"1 	c #B6987F",
"2 	c #A88366",
"3 	c #3C2F24",
"4 	c #EBE7E4",
"5 	c #5E5E5E",
"6 	c #847263",
"7 	c #A4A4A4",
"8 	c #CACACA",
"9 	c #EFEFEF",
"0 	c #F3F3F3",
"a 	c #F2F2F2",
"b 	c #F0F0F0",
"c 	c #87705E",
"d 	c #9A785D",
"e 	c #A78265",
"f 	c #9E7B60",
"g 	c #EAE6E2",
"h 	c #F0ECEA",
"i 	c #D7CDC5",
"j 	c #987D67",
"k 	c #7A5F49",
"l 	c #372B21",
"m 	c #B69D91",
"n 	c #C3B2A5",
"o 	c #CFC2B7",
"p 	c #C6BFB9",
"q 	c #F1F1F1",
"r 	c #DCDCDC",
"s 	c #96745A",
"t 	c #A47F64",
"u 	c #896A53",
"v 	c #5C5047",
"w 	c #FAF9F9",
"x 	c #F9F8F8",
"y 	c #F4F4F4",
"z 	c #DED7D2",
"A 	c #E2DCD7",
"B 	c #C7BAB0",
"C 	c #83664F",
"D 	c #856850",
"E 	c #866951",
"F 	c #886A52",
"G 	c #896B53",
"H 	c #47372B",
"I 	c #362A21",
"J 	c #EDE8E4",
"K 	c #E8E3DE",
"L 	c #CAC6C4",
"M 	c #EEEEEE",
"N 	c #EBEBEB",
"O 	c #DFDFDF",
"P 	c #BEBEBE",
"Q 	c #B7ACA3",
"R 	c #FBFAFA",
"S 	c #DFDAD5",
"T 	c #837162",
"U 	c #644F3B",
"V 	c #423427",
"W 	c #7E634C",
"X 	c #7F644D",
"Y 	c #81654E",
"Z 	c #82664F",
"` 	c #846750",
" .	c #856851",
"..	c #876952",
"+.	c #80644E",
"@.	c #705843",
"#.	c #E3DED9",
"$.	c #A09489",
"%.	c #9C9C9C",
"&.	c #EAEAEA",
"*.	c #E7E7E7",
"=.	c #D2D0CF",
"-.	c #D3CDC6",
";.	c #8B7867",
">.	c #6E5742",
",.	c #6B5540",
"'.	c #68523E",
").	c #5D4A38",
"!.	c #403226",
"~.	c #DAD3CD",
"{.	c #7C614B",
"].	c #7D624C",
"^.	c #7F634D",
"/.	c #82654E",
"(.	c #83674F",
"_.	c #715945",
":.	c #D9D9D9",
"<.	c #EAE3DE",
"[.	c #F8F7F7",
"}.	c #F0EEEC",
"|.	c #C2B9B0",
"1.	c #755C46",
"2.	c #735A44",
"3.	c #705943",
"4.	c #6E5741",
"5.	c #69533F",
"6.	c #67523E",
"7.	c #5A4735",
"8.	c #1F1812",
"9.	c #B8AAA0",
"0.	c #BAADA3",
"a.	c #7A5F4A",
"b.	c #7B604A",
"c.	c #7D614B",
"d.	c #80644D",
"e.	c #A2A2A2",
"f.	c #CFCFCF",
"g.	c #EEEBE9",
"h.	c #AA998A",
"i.	c #826955",
"j.	c #785F48",
"k.	c #765D47",
"l.	c #745B45",
"m.	c #715944",
"n.	c #6F5742",
"o.	c #6C5641",
"p.	c #6A5440",
"q.	c #68533E",
"r.	c #66513D",
"s.	c #544332",
"t.	c #0C0807",
"u.	c #DFD9D5",
"v.	c #EEEBE8",
"w.	c #E3DEDA",
"x.	c #E2DDD8",
"y.	c #775E48",
"z.	c #795F49",
"A.	c #7A604A",
"B.	c #644F3E",
"C.	c #D9D1CA",
"D.	c #A08B7A",
"E.	c #7F634C",
"F.	c #7D624B",
"G.	c #7C614A",
"H.	c #796049",
"I.	c #775E47",
"J.	c #725A44",
"K.	c #6D5642",
"L.	c #66523E",
"M.	c #624E3B",
"N.	c #514030",
"O.	c #020201",
"P.	c #EBE9E6",
"Q.	c #D3CDC7",
"R.	c #CDC4BE",
"S.	c #E6E2DE",
"T.	c #BBAFA6",
"U.	c #998879",
"V.	c #7C6450",
"W.	c #755C47",
"X.	c #775D48",
"Y.	c #765C47",
"Z.	c #775C47",
"`.	c #675545",
" +	c #A6A6A6",
".+	c #DADADA",
"++	c #F6F5F4",
"@+	c #DCD7D3",
"#+	c #C3B6A9",
"$+	c #957C67",
"%+	c #85684F",
"&+	c #81654D",
"*+	c #7A6049",
"=+	c #755D46",
"-+	c #735B45",
";+	c #715943",
">+	c #6C5541",
",+	c #6A543F",
"'+	c #67533E",
")+	c #65513D",
"!+	c #5E4B38",
"~+	c #524131",
"{+	c #050402",
"]+	c #E9E6E4",
"^+	c #A19387",
"/+	c #B9ADA4",
"(+	c #917F70",
"_+	c #6F5743",
":+	c #705844",
"<+	c #725945",
"[+	c #735A46",
"}+	c #755B46",
"|+	c #7D6551",
"1+	c #9F8D7E",
"2+	c #F3F2F1",
"3+	c #BCAB9D",
"4+	c #8B6D54",
"5+	c #8D6E55",
"6+	c #8A6C53",
"7+	c #886B52",
"8+	c #856950",
"9+	c #82664E",
"0+	c #795F48",
"a+	c #745C46",
"b+	c #6F5843",
"c+	c #6D5641",
"d+	c #6B5440",
"e+	c #68533F",
"f+	c #64503C",
"g+	c #4C3D2D",
"h+	c #020100",
"i+	c #F4F2F1",
"j+	c #68523F",
"k+	c #695340",
"l+	c #6B5441",
"m+	c #6C5542",
"n+	c #6E5642",
"o+	c #8B7766",
"p+	c #F4F3F2",
"q+	c #F4F3F1",
"r+	c #D2C8BE",
"s+	c #A68E7A",
"t+	c #927258",
"u+	c #927359",
"v+	c #907157",
"w+	c #8E6F56",
"x+	c #866A51",
"y+	c #846850",
"z+	c #80654D",
"A+	c #65503D",
"B+	c #634F3B",
"C+	c #564533",
"D+	c #392D21",
"E+	c #030201",
"F+	c #66503D",
"G+	c #67513E",
"H+	c #69523F",
"I+	c #6A5340",
"J+	c #F5F3F1",
"K+	c #DDD3CB",
"L+	c #AB907B",
"M+	c #98765C",
"N+	c #96755A",
"O+	c #937359",
"P+	c #917258",
"Q+	c #8F7056",
"R+	c #8C6E55",
"S+	c #876A52",
"T+	c #82674F",
"U+	c #7F644C",
"V+	c #7C624B",
"W+	c #785E48",
"X+	c #715A44",
"Y+	c #6F5842",
"Z+	c #644F3C",
"`+	c #614D3A",
" @	c #4F3F2F",
".@	c #241D15",
"+@	c #060403",
"@@	c #644E3C",
"#@	c #654F3D",
"$@	c #F9F8F7",
"%@	c #A07D60",
"&@	c #9D7B5F",
"*@	c #9B795E",
"=@	c #99775C",
"-@	c #97755B",
";@	c #94745A",
">@	c #8F7157",
",@	c #8D6F55",
"'@	c #81664E",
")@	c #7D634B",
"!@	c #7B614A",
"~@	c #775D47",
"{@	c #6C5540",
"]@	c #67513D",
"^@	c #5D4A37",
"/@	c #504030",
"(@	c #18130E",
"_@	c #060502",
":@	c #614D3B",
"<@	c #634E3C",
"[@	c #644F3D",
"}@	c #66503E",
"|@	c #7B6756",
"1@	c #F8F6F5",
"2@	c #9E7C60",
"3@	c #9C7A5E",
"4@	c #97765C",
"5@	c #95745A",
"6@	c #907258",
"7@	c #8E7056",
"8@	c #896C53",
"9@	c #584634",
"0@	c #0E0B08",
"a@	c #010100",
"b@	c #5F4B3A",
"c@	c #614C3A",
"d@	c #624D3B",
"e@	c #9E9084",
"f@	c #F1EDEA",
"g@	c #9B795D",
"h@	c #98775C",
"i@	c #96755B",
"j@	c #947359",
"k@	c #8F7057",
"l@	c #8A6D54",
"m@	c #5F4C39",
"n@	c #4D3D2E",
"o@	c #F8F8F7",
"p@	c #5D4938",
"q@	c #5F4A39",
"r@	c #604C3A",
"s@	c #554334",
"t@	c #BCB3AB",
"u@	c #F0ECE9",
"v@	c #9B7A5E",
"w@	c #99785D",
"x@	c #97765B",
"y@	c #927259",
"z@	c #907057",
"A@	c #8C6E54",
"B@	c #876A51",
"C@	c #65503C",
"D@	c #604D3A",
"E@	c #514131",
"F@	c #47382A",
"G@	c #020101",
"H@	c #5B4837",
"I@	c #5C4938",
"J@	c #5E4A39",
"K@	c #564536",
"L@	c #9B9B9B",
"M@	c #C9C9C9",
"N@	c #E1D9D3",
"O@	c #9A795D",
"P@	c #917158",
"Q@	c #614E3A",
"R@	c #4D3E2E",
"S@	c #2D231A",
"T@	c #594636",
"U@	c #5A4736",
"V@	c #503E2F",
"W@	c #C4C4C4",
"X@	c #E3DFDC",
"Y@	c #8D6F56",
"Z@	c #6B5541",
"`@	c #624F3B",
" #	c #584734",
".#	c #4C3C2D",
"+#	c #211A13",
"@#	c #070604",
"##	c #574434",
"$#	c #4B3B2E",
"%#	c #949494",
"&#	c #D0D0D0",
"*#	c #E9E9E9",
"=#	c #98765B",
"-#	c #95755A",
";#	c #917157",
">#	c #5C4A37",
",#	c #4B3B2C",
"'#	c #17130E",
")#	c #060402",
"!#	c #F6F5F5",
"~#	c #483A2E",
"{#	c #A0A0A0",
"]#	c #D1D1D1",
"^#	c #B19988",
"/#	c #947459",
"(#	c #6D5741",
"_#	c #624D3A",
":#	c #604C39",
"<#	c #5D4B38",
"[#	c #5B4936",
"}#	c #4F4030",
"|#	c #4A3B2C",
"1#	c #090705",
"2#	c #080604",
"3#	c #C3C2C2",
"4#	c #9A9A9A",
"5#	c #CDCDCD",
"6#	c #E8E8E8",
"7#	c #9A7B63",
"8#	c #8B6E55",
"9#	c #7D634C",
"0#	c #634E3B",
"a#	c #594835",
"b#	c #4E3F2E",
"c#	c #493A2A",
"d#	c #272727",
"e#	c #D7D7D7",
"f#	c #5A4936",
"g#	c #584735",
"h#	c #443729",
"i#	c #0E0E0E",
"j#	c #E6E6E6",
"k#	c #E5E5E5",
"l#	c #F0EEEB",
"m#	c #5B4937",
"n#	c #594735",
"o#	c #544432",
"p#	c #473A2A",
"q#	c #282018",
"r#	c #040301",
"s#	c #141414",
"t#	c #A9A9A9",
"u#	c #E0E0E0",
"v#	c #E4E4E4",
"w#	c #E8E3DF",
"x#	c #5A4836",
"y#	c #4F402F",
"z#	c #47392A",
"A#	c #1F1912",
"B#	c #505050",
"C#	c #B0B0B0",
"D#	c #DBDBDB",
"E#	c #E3E3E3",
"F#	c #E2E2E2",
"G#	c #8B6C54",
"H#	c #755D47",
"I#	c #705944",
"J#	c #66513E",
"K#	c #4B3C2C",
"L#	c #483A2A",
"M#	c #15110C",
"N#	c #080704",
"O#	c #414141",
"P#	c #7B7B7B",
"Q#	c #E1E1E1",
"R#	c #D7CDC4",
"S#	c #8C6D54",
"T#	c #574634",
"U#	c #534232",
"V#	c #453729",
"W#	c #2D241A",
"X#	c #0D0907",
"Y#	c #5C5C5C",
"Z#	c #C5C5C5",
"`#	c #D3C8BF",
" $	c #856951",
".$	c #725A45",
"+$	c #524130",
"@$	c #493A2B",
"#$	c #382C21",
"$$	c #1E1811",
"%$	c #373737",
"&$	c #646464",
"*$	c #DEDEDE",
"=$	c #AD9988",
"-$	c #69533E",
";$	c #524331",
">$	c #463829",
",$	c #32281D",
"'$	c #130F0B",
")$	c #050302",
"!$	c #303030",
"~$	c #757575",
"{$	c #DDDDDD",
"]$	c #A7917E",
"^$	c #7E644C",
"/$	c #6D5742",
"($	c #634F3C",
"_$	c #5E4B39",
":$	c #4E3E2F",
"<$	c #483A2B",
"[$	c #362B20",
"}$	c #16110C",
"|$	c #100D09",
"1$	c #030202",
"2$	c #747474",
"3$	c #7F7F7F",
"4$	c #886B51",
"5$	c #84674F",
"6$	c #69543F",
"7$	c #453728",
"8$	c #423527",
"9$	c #201813",
"0$	c #130E0B",
"a$	c #070503",
"b$	c #787878",
"c$	c #896B52",
"d$	c #554433",
"e$	c #48392A",
"f$	c #1B150F",
"g$	c #120E09",
"h$	c #D8D8D8",
"i$	c #4B4B4B",
"j$	c #EFEBE8",
"k$	c #8A6C54",
"l$	c #624E3C",
"m$	c #564433",
"n$	c #514130",
"o$	c #231C14",
"p$	c #090704",
"q$	c #F5F5F5",
"r$	c #0C0A08",
"s$	c #4E4E4E",
"t$	c #C0C0C0",
"u$	c #F0ECEB",
"v$	c #5F4B38",
"w$	c #3E3124",
"x$	c #2A2118",
"y$	c #878787",
"z$	c #4A4A4A",
"A$	c #D4D4D4",
"B$	c #E9E4E0",
"C$	c #624E3A",
"D$	c #261E16",
"E$	c #14100A",
"F$	c #F6F6F6",
"G$	c #282626",
"H$	c #33291E",
"I$	c #16110D",
"J$	c #767676",
"K$	c #D0C5BC",
"L$	c #836750",
"M$	c #7A614A",
"N$	c #785F49",
"O$	c #66513C",
"P$	c #17120E",
"Q$	c #F8F8F8",
"R$	c #111110",
"S$	c #33291F",
"T$	c #352A20",
"U$	c #C5B8AC",
"V$	c #5C4837",
"W$	c #291F17",
"X$	c #2C2C2C",
"Y$	c #251D16",
"Z$	c #292118",
"`$	c #A28C7A",
" %	c #584534",
".%	c #513F30",
"+%	c #352A1F",
"@%	c #100C08",
"#%	c #090805",
"$%	c #222221",
"%%	c #120E0A",
"&%	c #25221E",
"*%	c #A08B79",
"=%	c #34281E",
"-%	c #1D1611",
";%	c #060503",
">%	c #575656",
",%	c #302C29",
"'%	c #80644C",
")%	c #80654E",
"!%	c #634D3B",
"~%	c #534131",
"{%	c #3A2E23",
"]%	c #1D1811",
"^%	c #0D0B08",
"/%	c #4B4A49",
"(%	c #FDFDFD",
"_%	c #9E8977",
":%	c #584535",
"<%	c #463629",
"[%	c #100C09",
"}%	c #DED8D4",
"|%	c #644E3B",
"1%	c #3B2E23",
"2%	c #1D1711",
"3%	c #FCFCFC",
"4%	c #7A624D",
"5%	c #4F3E2F",
"6%	c #080503",
"7%	c #333333",
"8%	c #121110",
"9%	c #66483A",
"                                                        . + @           # $ % &                 ",
"                                                      @ * = - @ ; > , ' ) ! ~ {                 ",
"                                  ] ] ]             @ ^ / ( _ : < [ } | 1 2 2 3                 ",
"                            ] ] ] ] 4 5           6 7 8 9 0 a b : c d e 2 2 f 3 @ ] ] ] ]       ",
"                        ] g ] h i j k l @ m n o p 7 - 9 a q b 9 _ r & s t 2 u v ] w x y @       ",
"                      z A B C D E F G H I J K L 7 8 0 a q b 9 M _ N O P Q R ] w S T U V @       ",
"                      4 W X Y Z `  ...+.@.#.$.%.: b q b 9 M _ ( ( N &.*.=.-.;.>.,.'.).!.@       ",
"                      ~.{.].^.+./.(.D E D _.7 :.q q b 9 M _ <.[.] }.|.1.2.3.4.,.5.6.7.8.@       ",
"                  9.0.] a.b.c.W d.Y C ` P e.f.q b 9 M _ ( g.~.h.i.j.k.l.m.n.o.p.q.r.s.t.@       ",
"            ] ] u.v.w.x.y.z.A.{.].^.].B.7 r b 9 M M _ C.D.E.F.G.H.I.1.J.@.K.,.5.L.M.N.O.@       ",
"          P.Q.R.S.T.U.V.W.X.Y.Y.Z.F.`. +.+b ++@+#+$+%+(.&+W G.*+j.=+-+;+>.>+,+'+)+!+~+{+@       ",
"        ] ]+^+/+(+_+:+<+[+}+Y.|+1+2+] O 9 3+4+5+6+7+8+9+X F.b.0+k.a+J.b+c+d+e+r.f+7.g+h+@       ",
"        ] i+j+k+l+m+n+_+o+]+p+] q+r+s+t+u+v+w+4+G x+y+z+W G.z.y.1.-+3.>.>+5.6.A+B+C+D+E+        ",
"        ] i+F+G+H+I+>+K.] J+K+L+d M+N+O+P+Q+R+6+S+D T+U+V+*+W+k.-+X+Y+c+p.'.r.Z+`+ @.@+@        ",
"        ] p+@@#@G+j+k+l+$@%@&@*@=@-@;@t+>@,@4+7+E (.'@)@!@z.~@1.J.@.>.{@5.]@f+M.^@/@(@_@        ",
"          $@:@<@[@}@G+|@1@2@3@d 4@5@O+6@7@R+8@S+y+Z z+V+*+y.1.-+m.n.o.,+'.)+B+`+9@g+0@a@        ",
"          $@b@c@d@@@A+e@f@&@g@h@i@j@P+k@,@l@7+E (.Y W !@0+k.a+J.@.K.,.5.r.f+M.m@s.n@{+@         ",
"          o@p@q@r@d@s@t@u@v@w@x@5@y@z@w+A@8@B@y+9+d.F.*+I.1.-+3.>.>+,+6.C@B+D@!+E@F@G@@         ",
"          o@H@I@J@K@L@M@N@O@h@i@O+P@k@5+6+7+8+(.&+W G.j.k.-+X+b+c+p.'.r.f+Q@m@^@R@S@+@          ",
"          o@T@U@V@^ W@( X@=@x@;@t+z@Y@4+G x+y+9+X F.A.~@a+J.3.>.Z@5.G+f+`@D@!+ #.#+#@#          ",
"          [.##$#%#&#N &.*#=#-#O+;#w+R+6+S+8+(.z+W !@z.1.-+;+Y+o.p.'.F+B+`+m@>#s.,#'#)#          ",
"          !#~#{#]#N &.*#^#i@/#t+Q+5+4+7+E (.'@U+V+*+y.l.m.Y+(#,.5.]@Z+_#:#<#[#}#|#1#2#          ",
"          3#4#5#6#*#6#*.7#5@u+v+w+8#8@S+y+Z z+9#!@z.k.2.@.>.o.,+6.C@0#D@!+>#a#b#c#h+@           ",
"        d# +e#*#*#6#*.++N+O+P@Q+R+l@7+E (.Y U+V+*+y.1.m.n.c+,.e+r.Z+`+m@).f#g#|#h#@             ",
"      i#e.: *#6#*.j#k#l#;@t+z@,@4+8@B@y+9+d.F.!@j.k.-+@.c+,.5.6.f+M.:#<#m#n#o#p#q#r#            ",
"    s#t#u#6#*.*.j#k#v#w#O+P@w+A@6+7+8+(.&+W G.H.I.a+J.>.>+,+'.)+B+`+!+>#x#9@y#z#A#{+            ",
"  B#C#D#6#*.j#k#v#E#F#1@t+k@5+G#7+x+y+'@X F.A.W+H#-+I#c+p.5.J#f+M.:#).[#n#C+K#L#M#N#@           ",
"  O#P#O j#k#v#v#E#F#Q#R#v+w+S#G S+8+T+z+W !@z.k.a+X+b+,.5.6.A+B+`+!+>#x#T#U#V#W#@ X#@           ",
"  @ Y#Z#v#v#E#F#Q#u#O `#Q+R+6+F  $(.'@U+V+*+y.1..$3.>.,+'.r.Z+`+m@^@f#T#+$@$#$$$2#@ @           ",
"    %$&$8 Q#F#Q#u#O *$=$Y@4+G E y+Z z+9#!@z.k.l.m.Y+o.-$]@C@M.:#!+[#;$g+>$,$'$)$r#@             ",
"      !$~$Z#u#O *${$w ]$R+8@S+D (.Y ^$V+*+y.1..$@./$,.6.C@($`+_$T#:$<$[$}$|$1$                  ",
"        2$3$r *${$r ] 4$l@7+E 5$9+X F.!@j.k.-+m.>.>+6$r.U M.m#U#7$8$9$0$a$@                     ",
"        @ b$e.:.D#.+] c$8@B@D Z z+W G.H.I.a+J.b+c+p.q.B+!+d$e$e$f$g$E+@                         ",
"          h$i$= h$:.j$k$7+ $(.Y X V+A.W+H#-+I#>.Z@5.l$m$n$z#o$@ p$@                             ",
"          q$r$s$t$e#u$G x+y+9+X 9#!@z.k.a+X+b+o.6.v$~+w$x$p$1$@                                 ",
"          q$+@y$z$A$B$S+D T+z+W V+H.y.1..$3.,+C$~+@$D$E$@ @                                     ",
"          F$G$H$I$J$K$E L$'@X 9#M$N$k.l.n.O$d$.#,$P$h+@                                         ",
"          Q$R$S$T$] U$y+Z z+W V+H.y.1.J#V$N.W$X#h+@                                             ",
"          F$X$Y$Z$] `$(.Y E.V+M$1.Z@ %.%+%@%#%@                                                 ",
"          Q$$%%%&%] *%9+X F.0+m.M.U#=%-%;%@ @                                                   ",
"          q$>%@ ,%] '%)%F.Y.!%~%{%]%{+@                                                         ",
"          q e#^%/%(%_%k.5.:%<%[%r$@ @                                                           ",
"          ] ] ] ] }%|%_$1%2%E+@ @                                                               ",
"            ] ] 3%4%5%o$6%@ @                                                                   ",
"              @ 7%8%G@@                                                                         ",
"                    9%@                                                                         ",
"                                                                                                ",
"                                                                                                "};
