/* XPM */
static char * generic_text_xpm[] = {
"48 48 120 2",
"  	c None",
". 	c #000000",
"+ 	c #E5E5E5",
"@ 	c #FFFFFF",
"# 	c #FDFDFD",
"$ 	c #FCFCFC",
"% 	c #FBFBFB",
"& 	c #FAFAFA",
"* 	c #F8F8F8",
"= 	c #F7F7F7",
"- 	c #F6F6F6",
"; 	c #F5F5F5",
"> 	c #F4F4F4",
", 	c #F2F2F2",
"' 	c #F1F1F1",
") 	c #F0F0F0",
"! 	c #EFEFEF",
"~ 	c #EEEEEE",
"{ 	c #ECECEC",
"] 	c #EBEBEB",
"^ 	c #EAEAEA",
"/ 	c #E9E9E9",
"( 	c #E8E8E8",
"_ 	c #E6E6E6",
": 	c #E4E4E4",
"< 	c #E3E3E3",
"[ 	c #E1E1E1",
"} 	c #E0E0E0",
"| 	c #DFDFDF",
"1 	c #DEDEDE",
"2 	c #DDDDDD",
"3 	c #DBDBDB",
"4 	c #DADADA",
"5 	c #D9D9D9",
"6 	c #D8D8D8",
"7 	c #D7D7D7",
"8 	c #D5D5D5",
"9 	c #D4D4D4",
"0 	c #F9F9F9",
"a 	c #E2E2E2",
"b 	c #D3D3D3",
"c 	c #F3F3F3",
"d 	c #DCDCDC",
"e 	c #D2D2D2",
"f 	c #D6D6D6",
"g 	c #D1D1D1",
"h 	c #FEFEFE",
"i 	c #B2B2B2",
"j 	c #CCCCCC",
"k 	c #D0D0D0",
"l 	c #696969",
"m 	c #B0B0B0",
"n 	c #CECECE",
"o 	c #434343",
"p 	c #A0A0A0",
"q 	c #CFCFCF",
"r 	c #CDCDCD",
"s 	c #3D3D3D",
"t 	c #9D9D9D",
"u 	c #757575",
"v 	c #3C3C3C",
"w 	c #9C9C9C",
"x 	c #CBCBCB",
"y 	c #9B9B9B",
"z 	c #CACACA",
"A 	c #3B3B3B",
"B 	c #C9C9C9",
"C 	c #9A9A9A",
"D 	c #C8C8C8",
"E 	c #E7E7E7",
"F 	c #999999",
"G 	c #C6C6C6",
"H 	c #C7C7C7",
"I 	c #C5C5C5",
"J 	c #3A3A3A",
"K 	c #979797",
"L 	c #C4C4C4",
"M 	c #EDEDED",
"N 	c #969696",
"O 	c #C3C3C3",
"P 	c #393939",
"Q 	c #C2C2C2",
"R 	c #959595",
"S 	c #C1C1C1",
"T 	c #949494",
"U 	c #C0C0C0",
"V 	c #BEBEBE",
"W 	c #383838",
"X 	c #939393",
"Y 	c #BFBFBF",
"Z 	c #BDBDBD",
"` 	c #929292",
" .	c #BCBCBC",
"..	c #919191",
"+.	c #BBBBBB",
"@.	c #373737",
"#.	c #909090",
"$.	c #BABABA",
"%.	c #8F8F8F",
"&.	c #B9B9B9",
"*.	c #8E8E8E",
"=.	c #B8B8B8",
"-.	c #363636",
";.	c #B6B6B6",
">.	c #8D8D8D",
",.	c #B7B7B7",
"'.	c #B5B5B5",
").	c #A2A2A2",
"!.	c #111111",
"~.	c #090909",
"{.	c #080808",
"].	c #070707",
"^.	c #0E0E0E",
"/.	c #B4B4B4",
"(.	c #5C5C5C",
"_.	c #B3B3B3",
":.	c #AEAEAE",
"<.	c #9E9E9E",
"[.	c #B1B1B1",
"}.	c #AFAFAF",
". . . . . . . . . . . . . . . . . . . . . . . . . . . . . . . . . . . . . . . . . . . . . . . . ",
". . . . . . . . . . . . . . . . . . . . . . . . . . . . . . . . . . . . . . . . . . . . . . . . ",
". . + + + + + + + . . . . . . . . . . . . . . . . . . . . . . . . . . . . . . . . . . . . . . . ",
". . + . . . . . + . . . . . . . . . . . . . . . . . . . . . . . . . . . . . . . . . . . . . . . ",
". . + . + + + . + . . . . . . . . . . . . . . . . . . . . . . . . . . . . . . . . . . . . . . . ",
". . + . . . . . + . . . . . . . . . . . . . . . . . . . . . . . . . . . . . . . . . . . . . . . ",
". . + . + + + . + . . . . . . . . . . . . . . . . . . . . . . . . . . . . . . . . . . . . . . . ",
". . + . . . . . + . . . . . . . . . . . . . . . . . . . . . . . . . . . . . . . . . . . . . . . ",
". . + . + + + . + . . . . . . . . . . . . . . . . . . . . . . . . . . . . . . . . . . . . . . . ",
". . + . . . . . + . . . . . . . . . . . . . . . . . . . . . . . . . . . . . . . . . . . . . . . ",
". . + + + + + + + . . . . . . . . . . . . . . . . . . . . . . . . . . . . . . . . . . . . . . . ",
". . . . . . . . . . . . . . . . . . . . . . . . . . . . . . . . . . . . . . . . . . . . . . . . ",
". . . . . . . . . . . . . . . . . . . . . . . . . . . . . . . . . . . . . . . . . . . . . . . . ",
". @ @ @ @ @ @ @ @ @ @ @ # $ % & * = - ; > , ' ) ! ~ { ] ^ / ( _ + : < [ } | 1 2 3 4 5 6 7 8 9 . ",
". @ @ @ @ @ @ @ @ @ @ # $ % & 0 = - ; > , ' ) ! ~ { ] ^ / ( _ + : < a } | 1 2 3 4 5 6 7 8 9 b . ",
". @ @ @ @ @ @ @ @ @ # $ % & 0 = - ; > c ' ) ! ~ { ] ^ / ( _ + : < a } | 1 2 d 4 5 6 7 8 9 b e . ",
". @ @ @ @ @ @ @ @ # $ % & 0 = - . . . . . . . . . . . . . . . . . . 5 d 2 d 4 5 6 7 f 9 b e g . ",
". @ @ @ @ @ @ @ h $ % & 0 * - . . @ @ @ @ @ @ @ @ @ @ @ @ @ @ @ @ . i j 4 4 5 6 7 f 9 b e g k . ",
". @ @ @ @ @ @ h $ % & 0 * - . @ . @ @ @ @ @ @ @ @ @ @ @ @ @ @ @ @ . l m 9 5 6 7 f 9 b e g k n . ",
". @ @ @ @ @ h $ % & 0 * - . . . . @ @ @ @ @ @ @ @ @ @ @ @ @ @ @ @ . o p g 6 7 f 8 b e g k q r . ",
". @ @ @ @ h # % & 0 * = c . @ @ @ @ @ @ @ @ @ @ @ @ @ @ @ @ @ @ @ . s t k 7 f 8 b e g k q r j . ",
". @ @ @ h # % & 0 * = ; ~ . @ @ u u @ u u u @ u @ u u u u @ u @ @ . v w q f 8 b e g k q r j x . ",
". @ @ h # % & 0 * = ; > ] . @ @ @ @ @ @ @ @ @ @ @ @ @ @ @ @ @ @ @ . v y n 8 9 e g k q n j x z . ",
". @ h # $ & 0 * = - > c / . @ @ u @ u u u @ u u u u @ u u @ u @ @ . A y r 9 e g k q n j x z B . ",
". h # $ & 0 * = - > c , ( . @ @ @ @ @ @ @ @ @ @ @ @ @ @ @ @ @ @ @ . A C j e g k q n j x z B D . ",
". # $ & 0 * = - > c , ' E . @ @ u u u u @ u @ u u @ @ u u u @ @ @ . A F x g k q n r x z B D G . ",
". $ % 0 * = - ; c , ' ) + . @ @ @ @ @ @ @ @ @ @ @ @ @ @ @ @ @ @ @ . A F B k q n r x z B D H I . ",
". % 0 * = - ; c , ' ) ! : . @ @ @ u @ u u u u @ u @ u u u @ u @ @ . J K D q n r x z B D H I L . ",
". 0 * = - ; c , ' ) ! M < . @ @ @ @ @ @ @ @ @ @ @ @ @ @ @ @ @ @ @ . J N H n r j z B D H I L O . ",
". * = - ; > , ' ) ! M { a . @ @ u @ u u u @ u u @ u u u @ u @ @ @ . P N G r j z B D H G L O Q . ",
". = - ; > , ' ) ! ~ { ] [ . @ @ @ @ @ @ @ @ @ @ @ @ @ @ @ @ @ @ @ . P R I j z B D H G L O Q S . ",
". - ; > , ' ) ! ~ { ] ^ } . @ @ u u @ u u u u @ u @ u u u @ u @ @ . P T L x B D H G L O Q S U . ",
". ; > c ' ) ! ~ { ] ^ / | . @ @ @ @ @ @ @ @ @ @ @ @ @ @ @ @ @ @ @ . P T O B D H G I O Q S U V . ",
". > c ' ) ! ~ M ] ^ / ( 2 . @ @ u u u u @ u @ u u u @ u u u u @ @ . W X S D H G I O Q S U Y Z . ",
". c ' ) ! ~ M ] ^ / ( E d . @ @ @ @ @ @ @ @ @ @ @ @ @ @ @ @ @ @ @ . W ` U H G I O Q S U Y Z  .. ",
". , ) ! ~ M ] ^ / ( E + 3 . @ @ u u u @ u u u @ u u u u @ u u @ @ . W ..Y G I L Q S U Y Z  .+.. ",
". ) ! ~ M { ^ / ( E + : 4 . @ @ @ @ @ @ @ @ @ @ @ @ @ @ @ @ @ @ @ . @.#.Y I L Q S U Y V  .+.$.. ",
". ! ~ M { ^ / ( E _ : < 4 . @ @ @ @ @ @ @ @ @ @ @ @ @ @ @ @ @ @ @ . @.%.V L Q S U Y V  .+.$.&.. ",
". ~ M { ^ / ( E _ : < a 5 . @ @ @ @ @ @ @ @ @ @ @ @ @ @ @ @ @ @ @ . @.*.Z O S U Y V  .+.$.&.=.. ",
". M { ] / ( E _ : < a [ 6 . @ @ @ @ @ @ @ @ @ @ @ @ @ @ @ @ @ @ @ . -.*. .S U Y V Z +.$.&.=.;.. ",
". { ] / ( E _ + < a [ } f . . . . . . . . . . . . . . . . . . . . . -.>.$.U Y V Z +.$.&.=.,.'.. ",
". ] / ( E _ + < a [ } | f ).o !.~.{.{.{.{.{.{.{.{.{.{.].].].].].].^.A *.&.Y V Z +.$.&.=.,.'./.. ",
". ^ ( E _ + < a [ } | 2 f m l o v A A A J J P P P W W W @.@.@.-.-.A (.F &.V Z  .$.&.=.,.'./._.. ",
". ( E _ + : a [ } | 2 d 5 B :.<.w C F F K N N R T X ` ....%.*.*.>.%.C m  .Z  .$.&.=.,.;./._.i . ",
". E _ + : a [ } | 1 d 3 4 7 e q n j x B D H G I O Q S U Y V Z  .+.$.$. .Z  .$.&.=.,.;./._.i [.. ",
". _ + : a [ } | 1 d 3 4 5 6 f 8 9 b e k q n r x z B D H I L O Q S Y V Z  .+.&.=.,.;./._.i [.m . ",
". + : < [ } | 1 d 3 4 5 6 f 8 9 b e k q n r j z B D H I L O Q S Y V Z  .+.&.=.,.;.'._.i [.m }.. ",
". . . . . . . . . . . . . . . . . . . . . . . . . . . . . . . . . . . . . . . . . . . . . . . . "};
