/* XPM */
static char * generic_library_xpm[] = {
"48 48 662 2",
"  	c None",
" .	c #000000",
" +	c #E5E5E5",
" @	c #FFFFFF",
" #	c #FDFDFD",
" $	c #FCFCFC",
" %	c #FBFBFB",
" &	c #FAFAFA",
" *	c #F8F8F8",
" =	c #F7F7F7",
" -	c #F6F6F6",
" ;	c #F5F5F5",
" >	c #F4F4F4",
" ,	c #F2F2F2",
" '	c #F1F1F1",
" )	c #F0F0F0",
" !	c #EFEFEF",
" ~	c #EEEEEE",
" {	c #ECECEC",
" ]	c #EBEBEB",
" ^	c #EAEAEA",
" /	c #E9E9E9",
" (	c #E8E8E8",
" _	c #E6E6E6",
" :	c #E4E4E4",
" <	c #E3E3E3",
" [	c #E1E1E1",
" }	c #E0E0E0",
" |	c #DFDFDF",
" 1	c #DEDEDE",
" 2	c #DDDDDD",
" 3	c #DBDBDB",
" 4	c #DADADA",
" 5	c #D9D9D9",
" 6	c #D8D8D8",
" 7	c #D7D7D7",
" 8	c #D5D5D5",
" 9	c #D4D4D4",
" 0	c #F9F9F9",
" a	c #E2E2E2",
" b	c #D3D3D3",
" c	c #F3F3F3",
" d	c #E7E7E7",
" e	c #DCDCDC",
" f	c #D2D2D2",
" g	c #EAE9EA",
" h	c #D6D2D6",
" i	c #C5B3C5",
" j	c #BC8FBC",
" k	c #D27AD2",
" l	c #DA74D9",
" m	c #D872D7",
" n	c #CB7DCB",
" o	c #BE91BD",
" p	c #BEAEBD",
" q	c #C9C7C9",
" r	c #D6D6D6",
" s	c #D1D1D1",
" t	c #FEFEFE",
" u	c #D3C5D3",
" v	c #CA91CA",
" w	c #E468E3",
" x	c #F34FF0",
" y	c #F344F0",
" z	c #F23DF0",
" A	c #EE3EEB",
" B	c #ED3FE9",
" C	c #EF40E9",
" D	c #EE41E4",
" E	c #E747E0",
" F	c #BF59BB",
" G	c #A883A6",
" H	c #B8B5B8",
" I	c #D0D0D0",
" J	c #E5E2E5",
" K	c #C5A0C5",
" L	c #EE66EE",
" M	c #F14CF0",
" N	c #EC41E5",
" O	c #E33EDC",
" P	c #DD3BDA",
" Q	c #DD37D9",
" R	c #D834D8",
" S	c #DB36D3",
" T	c #DB32D0",
" U	c #DE37D0",
" V	c #E13AD7",
" W	c #E739DE",
" X	c #E23BD7",
" Y	c #AA53A5",
" Z	c #9C8B9B",
" `	c #C3C3C3",
". 	c #CECECE",
"..	c #E0DBE0",
".+	c #D18ED1",
".@	c #F153EF",
".#	c #EC3FE9",
".$	c #E436D9",
".%	c #DC33D1",
".&	c #D832CD",
".*	c #D732D0",
".=	c #D635CF",
".-	c #D333D5",
".;	c #D330D2",
".>	c #D632CE",
".,	c #DA35CE",
".'	c #DB36D1",
".)	c #DC35D3",
".!	c #DD34D8",
".~	c #DA32D3",
".{	c #AE3DA9",
".]	c #8B708A",
".^	c #B8B7B8",
"./	c #CFCFCF",
".(	c #CDCDCD",
"._	c #E2DFE2",
".:	c #D08BD0",
".<	c #F052EE",
".[	c #E73FE0",
".}	c #DA38D6",
".|	c #D831CF",
".1	c #DC37CF",
".2	c #D835C9",
".3	c #C631BB",
".4	c #C02FB6",
".5	c #B62BB4",
".6	c #B92EBB",
".7	c #C530BF",
".8	c #D034C7",
".9	c #D936CE",
".0	c #DA33D1",
".a	c #DA31D4",
".b	c #D932D2",
".c	c #D436CC",
".d	c #A837A3",
".e	c #7E677D",
".f	c #B4B4B4",
".g	c #CCCCCC",
".h	c #ECEBEC",
".i	c #CA9ACA",
".j	c #EE51EA",
".k	c #E33FE1",
".l	c #DA37D0",
".m	c #D831CD",
".n	c #D831CB",
".o	c #C430BE",
".p	c #9D2895",
".q	c #631B5F",
".r	c #5B215A",
".s	c #4D2351",
".t	c #59255D",
".u	c #71226E",
".v	c #952793",
".w	c #BE2EBB",
".x	c #D231C9",
".y	c #D535D0",
".z	c #DD36D5",
".A	c #D834D0",
".B	c #CC34C2",
".C	c #90348B",
".D	c #7C717B",
".E	c #BABABA",
".F	c #CBCBCB",
".G	c #D9D3D9",
".H	c #C36CC2",
".I	c #C63CC6",
".J	c #D135D1",
".K	c #D134CF",
".L	c #CF33CB",
".M	c #A628A2",
".N	c #601B5F",
".O	c #3B2A41",
".P	c #3B5751",
".Q	c #528474",
".R	c #58907C",
".S	c #588D7B",
".T	c #568277",
".U	c #545F69",
".V	c #703476",
".W	c #AA2CA9",
".X	c #D234CC",
".Y	c #D733CF",
".Z	c #C92FBD",
".`	c #91248C",
"+ 	c #571F55",
"+.	c #6A4F69",
"++	c #9C9B9C",
"+@	c #C6C6C6",
"+#	c #CACACA",
"+$	c #EFE7EE",
"+%	c #DAB9D9",
"+&	c #8B4B88",
"+*	c #962993",
"+=	c #BA2DBA",
"+-	c #A827A7",
"+;	c #4C2053",
"+>	c #38554E",
"+,	c #58947E",
"+'	c #65AB91",
"+)	c #67AF94",
"+!	c #65AD92",
"+~	c #65AC92",
"+{	c #5F9986",
"+]	c #715B7F",
"+^	c #AC35A7",
"+/	c #B028AB",
"+(	c #6C1B66",
"+_	c #4C1A49",
"+:	c #5E2F5D",
"+<	c #AB46A9",
"+[	c #7B657A",
"+}	c #B0B0B0",
"+|	c #C9C9C9",
"+1	c #CEC1CE",
"+2	c #E960E9",
"+3	c #D455D1",
"+4	c #9B5D98",
"+5	c #7A3E79",
"+6	c #7F2879",
"+7	c #5F215D",
"+8	c #39544F",
"+9	c #5D9F87",
"+0	c #61A18A",
"+a	c #715C82",
"+b	c #501A51",
"+c	c #491E49",
"+d	c #883886",
"+e	c #E64BE1",
"+f	c #D63ACE",
"+g	c #7E3B7B",
"+h	c #878587",
"+i	c #C8C8C8",
"+j	c #F0EDF0",
"+k	c #C29CC2",
"+l	c #F14BEE",
"+m	c #E03FDB",
"+n	c #D33CCD",
"+o	c #B043AB",
"+p	c #853E82",
"+q	c #534E63",
"+r	c #5B9B84",
"+s	c #5F9885",
"+t	c #5D3260",
"+u	c #B23AB1",
"+v	c #E544E2",
"+w	c #E43ED9",
"+x	c #D333CB",
"+y	c #962990",
"+z	c #5D555D",
"+A	c #A4A4A4",
"+B	c #C7C7C7",
"+C	c #EDE4ED",
"+D	c #CC7BCA",
"+E	c #EE44E6",
"+F	c #D93BD5",
"+G	c #DA36D8",
"+H	c #D137CB",
"+I	c #893188",
"+J	c #5C857D",
"+K	c #67AE94",
"+L	c #67B094",
"+M	c #66AF93",
"+N	c #8F7DA7",
"+O	c #DC36D8",
"+P	c #E038D9",
"+Q	c #DA36D2",
"+R	c #D532CE",
"+S	c #A6289F",
"+T	c #4A3449",
"+U	c #8E8E8E",
"+V	c #BFBFBF",
"+W	c #C5C5C5",
"+X	c #EADCE9",
"+Y	c #DB64D9",
"+Z	c #E83EE3",
"+`	c #D63AD2",
"@ 	c #D631D3",
"@.	c #B72BB5",
"@+	c #4F2A56",
"@@	c #5D9D85",
"@#	c #68AF95",
"@$	c #729F99",
"@%	c #C14DC4",
"@&	c #DF36D5",
"@*	c #D936D2",
"@=	c #D534CD",
"@-	c #A6279C",
"@;	c #4B2248",
"@>	c #797979",
"@,	c #B5B5B5",
"@'	c #C4C4C4",
"@)	c #D9D2D9",
"@!	c #E35BDE",
"@~	c #EA40E1",
"@{	c #DB39D1",
"@]	c #DA31CD",
"@^	c #B12DA9",
"@/	c #4F3858",
"@(	c #64AA90",
"@_	c #72AC9C",
"@:	c #C860CE",
"@<	c #E539DB",
"@[	c #DD36D3",
"@}	c #D733D0",
"@|	c #BC2CB5",
"@1	c #5A1F58",
"@2	c #696969",
"@3	c #ADADAD",
"@4	c #D1CCD1",
"@5	c #DF50DA",
"@6	c #E53DE0",
"@7	c #D934D5",
"@8	c #D733D2",
"@9	c #B326AA",
"@0	c #554261",
"@a	c #65AC91",
"@b	c #67AF95",
"@c	c #71AE9C",
"@d	c #BE6BD1",
"@e	c #DD39D9",
"@f	c #D436CD",
"@g	c #D531CF",
"@h	c #B92BB3",
"@i	c #4F1A4D",
"@j	c #5E5E5E",
"@k	c #A7A7A7",
"@l	c #C2C2C2",
"@m	c #D5CFD4",
"@n	c #D052C7",
"@o	c #DF37D3",
"@p	c #DE34D4",
"@q	c #DA34D5",
"@r	c #BF2CB6",
"@s	c #5C3C65",
"@t	c #65AA90",
"@u	c #67B095",
"@v	c #71AC9C",
"@w	c #AF5ABB",
"@x	c #5B3646",
"@y	c #38381F",
"@z	c #4F3D34",
"@A	c #242313",
"@B	c #322F1B",
"@C	c #414031",
"@D	c #A3A3A3",
"@E	c #C1C1C1",
"@F	c #E0D4E0",
"@G	c #C05FBD",
"@H	c #E63FDD",
"@I	c #DC35D1",
"@J	c #D735D0",
"@K	c #D02EC7",
"@L	c #823983",
"@M	c #62A08A",
"@N	c #769A71",
"@O	c #D7D993",
"@P	c #1D1C0E",
"@Q	c #494728",
"@R	c #CFCC74",
"@S	c #5B5934",
"@T	c #19180C",
"@U	c #17170C",
"@V	c #3B3A20",
"@W	c #A2A2A2",
"@X	c #C0C0C0",
"@Y	c #E1DAE1",
"@Z	c #A26E9F",
"@`	c #DC38D2",
"# 	c #DA34D1",
"#.	c #D531D2",
"#+	c #D434CE",
"#@	c #AD30A5",
"##	c #657C81",
"#$	c #5F9073",
"#%	c #F0EEB0",
"#&	c #F7F4C9",
"#*	c #7A7849",
"#=	c #C0BD65",
"#-	c #EFECAB",
"#;	c #F0ECAE",
"#>	c #302F19",
"#,	c #15140A",
"#'	c #565544",
"#)	c #515145",
"#!	c #919088",
"#~	c #BEBEBE",
"#{	c #EDEDED",
"#]	c #E4E2E3",
"#^	c #A58EA4",
"#/	c #CE3BC7",
"#(	c #DA35D3",
"#_	c #D632CD",
"#:	c #D334CF",
"#<	c #C735C1",
"#[	c #824E8D",
"#}	c #66A28F",
"#|	c #5D9175",
"#1	c #536446",
"#2	c #CDCA74",
"#3	c #F5F2B8",
"#4	c #F0EDAD",
"#5	c #EDE8A2",
"#6	c #E8E397",
"#7	c #DFDA8A",
"#8	c #35341C",
"#9	c #36361D",
"#0	c #252514",
"#a	c #16160B",
"#b	c #13130A",
"#c	c #44442D",
"#d	c #BDBDBD",
"#e	c #C7B5C9",
"#f	c #B24AAD",
"#g	c #D932CF",
"#h	c #D737CE",
"#i	c #D537CF",
"#j	c #BA37BB",
"#k	c #87749B",
"#l	c #69AA94",
"#m	c #CAD390",
"#n	c #F6F4BF",
"#o	c #EEECA7",
"#p	c #E9E59C",
"#q	c #E3DF92",
"#r	c #D8D583",
"#s	c #C8C56D",
"#t	c #D7D682",
"#u	c #727045",
"#v	c #2D2B1A",
"#w	c #A1A19F",
"#x	c #BCBCBC",
"#y	c #D5D0D5",
"#z	c #986C96",
"#A	c #CD37C9",
"#B	c #D635D2",
"#C	c #DA37D2",
"#D	c #DE3AD4",
"#E	c #D930D0",
"#F	c #C043BE",
"#G	c #8978A2",
"#H	c #6FAD9A",
"#I	c #68B095",
"#J	c #6AB398",
"#K	c #DDDB91",
"#L	c #EFEAA7",
"#M	c #EAE7A2",
"#N	c #E5E095",
"#O	c #DFDA8D",
"#P	c #D3D07D",
"#Q	c #D1CB75",
"#R	c #CFCA73",
"#S	c #C8C36D",
"#T	c #BFBA66",
"#U	c #BAB55D",
"#V	c #434124",
"#W	c #646559",
"#X	c #BBBBBB",
"#Y	c #BEABBD",
"#Z	c #984394",
"#`	c #CE36C2",
"$ 	c #D934D3",
"$.	c #D533D3",
"$+	c #DD32D5",
"$@	c #DC36CF",
"$#	c #D83ECF",
"$$	c #C563CA",
"$%	c #9493B4",
"$&	c #82AEAC",
"$*	c #6EA496",
"$=	c #79B1A4",
"$-	c #88B5B4",
"$;	c #AEA7D1",
"$>	c #AD58B6",
"$,	c #C5BF68",
"$'	c #E2DE92",
"$)	c #DCD788",
"$!	c #C5C168",
"$~	c #404023",
"${	c #BDB860",
"$]	c #BBB662",
"$^	c #B7AF58",
"$/	c #948E4D",
"$(	c #292916",
"$_	c #2F2E18",
"$:	c #7C7C7B",
"$<	c #D1D0D1",
"$[	c #917C90",
"$}	c #953292",
"$|	c #C82DC4",
"$1	c #D736D2",
"$2	c #D735CF",
"$3	c #D838CF",
"$4	c #D836D6",
"$5	c #DE36DC",
"$6	c #DC41E0",
"$7	c #DA4FDD",
"$8	c #5F2C61",
"$9	c #9C4AA0",
"$0	c #E95AEC",
"$a	c #F046ED",
"$b	c #B84BA2",
"$c	c #DEDB8C",
"$d	c #D8D382",
"$e	c #D3CD79",
"$f	c #938F4E",
"$g	c #3E3C21",
"$h	c #A29F51",
"$i	c #B1AC56",
"$j	c #7F7D4A",
"$k	c #3E3D21",
"$l	c #B9B9B9",
"$m	c #C3BFC3",
"$n	c #896588",
"$o	c #943091",
"$p	c #C733C1",
"$q	c #D432CF",
"$r	c #D633CC",
"$s	c #D832D3",
"$t	c #DC35D6",
"$u	c #C32FBB",
"$v	c #511A4F",
"$w	c #A03799",
"$x	c #EE3BE1",
"$y	c #E133D6",
"$z	c #E7DBA2",
"$A	c #D6D37C",
"$B	c #CFCB73",
"$C	c #C9C56E",
"$D	c #A49F51",
"$E	c #585733",
"$F	c #31301A",
"$G	c #68653D",
"$H	c #ADAA54",
"$I	c #8D8C4E",
"$J	c #82804B",
"$K	c #565631",
"$L	c #31311A",
"$M	c #403D21",
"$N	c #63633A",
"$O	c #B8B8B8",
"$P	c #B7B2B7",
"$Q	c #7D5D7B",
"$R	c #852B7E",
"$S	c #B12CAD",
"$T	c #D132C6",
"$U	c #D733CE",
"$V	c #D731D1",
"$W	c #D731D2",
"$X	c #B527B3",
"$Y	c #521C50",
"$Z	c #A73BA3",
"$`	c #EA3BDD",
"% 	c #DD34D1",
"%.	c #C07C87",
"%+	c #CCC771",
"%@	c #BEB661",
"%#	c #9F9A50",
"%$	c #1B1B0E",
"%%	c #87854C",
"%&	c #9A964F",
"%*	c #7A7949",
"%=	c #717044",
"%-	c #69693E",
"%;	c #51512E",
"%>	c #575632",
"%,	c #7D7D72",
"%'	c #B6B6B6",
"%)	c #B2B0B2",
"%!	c #746673",
"%~	c #652F64",
"%{	c #8B2486",
"%]	c #B12BA7",
"%^	c #C62FBF",
"%/	c #D031CB",
"%(	c #B82AB2",
"%_	c #4D1E4B",
"%:	c #A93FA5",
"%<	c #E139DB",
"%[	c #CE31C6",
"%}	c #972F90",
"%|	c #664849",
"%1	c #5A4A3B",
"%2	c #B3AD56",
"%3	c #A4A151",
"%4	c #B5B25A",
"%5	c #747245",
"%6	c #6B6940",
"%7	c #65633A",
"%8	c #514F2E",
"%9	c #383527",
"%0	c #B7B7B7",
"%a	c #837F83",
"%b	c #594758",
"%c	c #5B2757",
"%d	c #6E1E6B",
"%e	c #861E82",
"%f	c #90228A",
"%g	c #4C214A",
"%h	c #9D3E99",
"%i	c #A62AA0",
"%j	c #7B1C76",
"%k	c #4B124A",
"%l	c #371136",
"%m	c #4F4935",
"%n	c #98954F",
"%o	c #8D8A4E",
"%p	c #84824B",
"%q	c #787849",
"%r	c #6F6E42",
"%s	c #67653C",
"%t	c #5F5D36",
"%u	c #1F1F10",
"%v	c #5A5948",
"%w	c #A2A0A2",
"%x	c #827A82",
"%y	c #575257",
"%z	c #463545",
"%A	c #3F263D",
"%B	c #4B374A",
"%C	c #694A68",
"%D	c #463645",
"%E	c #332C32",
"%F	c #2F2D2F",
"%G	c #464046",
"%H	c #63634A",
"%I	c #757446",
"%J	c #767547",
"%K	c #6A693F",
"%L	c #636138",
"%M	c #595732",
"%N	c #514E2E",
"%O	c #454326",
"%P	c #272714",
"%Q	c #605F4D",
"%R	c #B3B3B3",
"%S	c #919191",
"%T	c #818181",
"%U	c #7F7F7F",
"%V	c #8B8B8B",
"%W	c #888888",
"%X	c #7A7A7A",
"%Y	c #7C7C7C",
"%Z	c #8A8A8A",
"%`	c #999999",
"& 	c #73735F",
"&.	c #5F5E55",
"&+	c #676753",
"&@	c #585833",
"&#	c #54522F",
"&$	c #35351C",
"&%	c #2C2B17",
"&&	c #383A1F",
"&*	c #6D6D57",
"&=	c #B2B2B2",
"&-	c #9C9C99",
"&;	c #444125",
"&>	c #403F23",
"&,	c #3F3C2B",
"&'	c #56564B",
"&)	c #959492",
"&!	c #B1B1B1",
"&~	c #AFAFAF",
" . . . . . . . . . . . . . . . . . . . . . . . . . . . . . . . . . . . . . . . . . . . . . . . .",
" . . . . . . . . . . . . . . . . . . . . . . . . . . . . . . . . . . . . . . . . . . . . . . . .",
" . . . . + + . . . . . . . . . . . . . . . . . . . . . . . . . . . . . . . . . . . . . . . . . .",
" . . . + + + . . . . . . . . . . . . . . . . . . . . . . . . . . . . . . . . . . . . . . . . . .",
" . . + + + + . . . . . . . . . . . . . . . . . . . . . . . . . . . . . . . . . . . . . . . . . .",
" . . + + + + . . . . . . . . . . . . . . . . . . . . . . . . . . . . . . . . . . . . . . . . . .",
" . . . . . . + + + + . . . . . . . . . . . . . . . . . . . . . . . . . . . . . . . . . . . . . .",
" . . . . . . + + + + . . . . . . . . . . . . . . . . . . . . . . . . . . . . . . . . . . . . . .",
" . . . . . . + + + . . . . . . . . . . . . . . . . . . . . . . . . . . . . . . . . . . . . . . .",
" . . . . . . + + . . . . . . . . . . . . . . . . . . . . . . . . . . . . . . . . . . . . . . . .",
" . . . . . . . . . . . . . . . . . . . . . . . . . . . . . . . . . . . . . . . . . . . . . . . .",
" . . . . . . . . . . . . . . . . . . . . . . . . . . . . . . . . . . . . . . . . . . . . . . . .",
" . . . . . . . . . . . . . . . . . . . . . . . . . . . . . . . . . . . . . . . . . . . . . . . .",
" . @ @ @ @ @ @ @ @ @ @ @ # $ % & * = - ; > , ' ) ! ~ { ] ^ / ( _ + : < [ } | 1 2 3 4 5 6 7 8 9 .",
" . @ @ @ @ @ @ @ @ @ @ # $ % & 0 = - ; > , ' ) ! ~ { ] ^ / ( _ + : < a } | 1 2 3 4 5 6 7 8 9 b .",
" . @ @ @ @ @ @ @ @ @ # $ % & 0 = - ; > c ) ~ { ^ ( d d d d _ + : < a } | 1 2 e 4 5 6 7 8 9 b f .",
" . @ @ @ @ @ @ @ @ # $ % & 0 = - ; c g h i j k l m n o p q 6 } a a } | 1 2 e 4 5 6 7 r 9 b f s .",
" . @ @ @ @ @ @ @ t $ % & 0 * - ; ~ u v w x y z A B C D E F G H 8 2 | 1 2 e 4 5 6 7 r 9 b f s I .",
" . @ @ @ @ @ @ t $ % & 0 * - ; J K L M N O P Q R S T U V W X Y Z ` 7 e e 3 5 6 7 r 9 b f s I.  .",
" . @ @ @ @ @ t $ % & 0 * - ;...+.@.#.$.%.&.*.=.-.;.>.,.'.).!.~.{.].^ f 5 5 6 7 r 8 b f s I./.( .",
" . @ @ @ @ t # % & 0 * = ;._.:.<.[.}.|.1.2.3.4.5.6.7.8.9.0.a.b.c.d.e.f./ 7 7 r 8 b f s I./.(.g .",
" . @ @ @ t # % & 0 * = ;.h.i.j.k.l.m.n.o.p.q.r.s.t.u.v.w.x.y.z.A.B.C.D.E s r 8 b f s I./.(.g.F .",
" . @ @ t # % & 0 * = ; >.G.H.I.J.K.L.M.N.O.P.Q.R.S.T.U.V.W.X.Y.Z.`+ +.+++@ b 9 f s I./. .g.F+# .",
" . @ t # $ & 0 * = - >+$+% o+&+*+=+-+;+>+,+'+)+)+!+)+~+{+]+^+/+(+_+:+<+[+}.F s s I./. .g.F+#+| .",
" . t # $ & 0 * = - > ,+1+2+3+4+5+6+7+8+9+)+)+)+)+!+)+)+)+0+a+b+c+d+e+f+g+h.E.( I./. .g.F+#+|+i .",
" . # $ & 0 * = - > c+j+k+l+m+n+o+p+q+r+)+)+)+)+)+!+)+)+)+)+s+t+u+v+w+x+y+z+A+B. . .(.F+#+|+i+@ .",
" . $ % 0 * = - ; c ,+C+D+E+F+G+H+I+J+K+)+)+)+)+)+!+)+)+)+L+M+N+O+P+Q+R+S+T+U+V.g.(.F+#+|+i+B+W .",
" . % 0 * = - ; c , '+X+Y+Z+`@ @.@+@@@#+)+)+)+)+)+!+)+)+)+)+L@$@%@&@*@=@-@;@>@,+#.F+#+|+i+B+W@' .",
" . 0 * = - ; c , ' )@)@!@~@{@]@^@/@(@#+)+)+)+)+)+!+)+)+)+)+L@_@:@<@[@}@|@1@2@3+i+#+|+i+B+W@' ` .",
" . * = - ; > , ' ) !@4@5@6@7@8@9@0@a@b+)+)+)+)+)+!+)+)+)+)+L@c@d@e@f@g@h@i@j@k+W+|+i+B+@@' `@l .",
" . = - ; > , ' ) ! ~@m@n@o@p@q@r@s@t@u+)+)+)+)+)+!+)+)+)+)+L@v@w@x@y@z@A@B@C@D@'+i+B+@@' `@l@E .",
" . - ; > , ' ) ! ~ {@F@G@H@I@J@K@L@M@b+)+)+)+)+)+!+)+)+)+~@N@O@P@Q@R@S@T@U@V@W `+B+@@' `@l@E@X .",
" . ; > c ' ) ! ~ { ]@Y@Z@`# #.#+#@##+K+)+)+)+)+)+!+)+)+)#$#%#&#*#=#-#;#>#,#,#'#)#!+W `@l@E@X#~ .",
" . > c ' ) ! ~#{ ] ^#]#^#/#(#_#:#<#[#}+)+)+)+)+)+!+)+)#|#1#2#3#4#5#6#7#8#9#0#a#b#c#d@l@E@X+V#d .",
" . c ' ) ! ~#{ ] ^ / +#e#f#g#h#i#i#j#k#l+)+)+)+)+!+)+)#m#n#3#o#p#q#7#r#s#t#u#,#,#v#w@E@X+V#d#x .",
" . , ) ! ~#{ ] ^ / ( _#y#z#A#B#C#D#E#F#G#H#I+)+)+!+)#J#K#L#M#N#O#P#Q#R#S#T#U#V@T#W@E@X+V#d#x#X .",
" . ) ! ~#{ { ^ / ( d + 2#Y#Z#`$ $.$+$@$#$$$%$&$*$=$-$;$>$,$'$)$!$~#V${$]$^$/$(#b$_$:+V#~#x#X.E .",
" . ! ~#{ { ^ / ( d _ : [$<$[$}$|$1$2$3$4$5$6$7$8$9$0$a$b$c$d$e$f$g$($h$i$h$j#b#b#,$k#~#x#X.E$l .",
" . ~#{ { ^ / ( d _ : < a 3$m$n$o$p$q#h$r$s$t$u$v$w$x$y$z$A$B$C$D$E$F$G$H$I$J$K$L$M$N#x#X.E$l$O .",
" .#{ { ] / ( d _ : < a [ | 8$P$Q$R$S$T$U$V$W$X$Y$Z$`% %.%+$,%@$^%#%$%%%&%*%=%-%;%>%,#X.E$l$O%' .",
" . { ] / ( d _ + < a [ } 1 3 I%)%!%~%{%]%^%/%(%_%:%<%[%}%|%1%2%3$H#s%4%5%6%7%8#8%9#X.E$l$O%0@, .",
" . ] / ( d _ + < a [ } | 2 e 5./%'%a%b%c%d%e%f%g%h%i%j%k%l%m%n%o%p%q%r%s%t%;%u#,%v.E$l$O%0@,.f .",
" . ^ ( d _ + < a [ } | 2 e 3 4 7./#d%w%x%y%z%A%B%C%D%E%F%G%H%I%J%=%K%L%M%N%O%P%Q%'$l$O%0@,.f%R .",
" . ( d _ + : a [ } | 2 e 3 4 5 7 8 I+B$O+A%S%T%U%V%W%X%Y%Z%`& &.&+&@&#&$&%&&&*%0$l$O%0%'.f%R&= .",
" . d _ + : a [ } | 1 e 3 4 5 6 r 8 9 f.g+B@E$l%'%0@,&=%R$l#d@X@l&-&;&>&,&'&)$l$l$O%0%'.f%R&=&! .",
" . _ + : a [ } | 1 e 3 4 5 6 r 8 9 b f I./.(.F+i+i+@+W+W@'@' `@l@E+V#~#d#x#X$l$O%0%'.f%R&=&!+} .",
" . + : < [ } | 1 e 3 4 5 6 r 8 9 b f I./. .(.g+#+|+i+B+W@' `@l@E+V#~#d#x#X$l$O%0%'@,%R&=&!+}&~ .",
" . . . . . . . . . . . . . . . . . . . . . . . . . . . . . . . . . . . . . . . . . . . . . . . ."};
