/* XPM */
static char * generic_sound_xpm[] = {
"48 48 354 2",
"  	c None",
". 	c #000000",
"+ 	c #E5E5E5",
"@ 	c #FFFFFF",
"# 	c #FDFDFD",
"$ 	c #FCFCFC",
"% 	c #FBFBFB",
"& 	c #FAFAFA",
"* 	c #F8F8F8",
"= 	c #F7F7F7",
"- 	c #F6F6F6",
"; 	c #F5F5F5",
"> 	c #F4F4F4",
", 	c #F2F2F2",
"' 	c #F1F1F1",
") 	c #F0F0F0",
"! 	c #EFEFEF",
"~ 	c #EEEEEE",
"{ 	c #ECECEC",
"] 	c #EBEBEB",
"^ 	c #EAEAEA",
"/ 	c #E9E9E9",
"( 	c #E8E8E8",
"_ 	c #E6E6E6",
": 	c #E4E4E4",
"< 	c #E3E3E3",
"[ 	c #E1E1E1",
"} 	c #E0E0E0",
"| 	c #DFDFDF",
"1 	c #DEDEDE",
"2 	c #DDDDDD",
"3 	c #DBDBDB",
"4 	c #DADADA",
"5 	c #D9D9D9",
"6 	c #D8D8D8",
"7 	c #D7D7D7",
"8 	c #D5D5D5",
"9 	c #D4D4D4",
"0 	c #F9F9F9",
"a 	c #E2E2E2",
"b 	c #D3D3D3",
"c 	c #F3F3F3",
"d 	c #DCDCDC",
"e 	c #D2D2D2",
"f 	c #EDEDED",
"g 	c #E7E7E7",
"h 	c #D6D6D6",
"i 	c #D1D1D1",
"j 	c #FEFEFE",
"k 	c #5852F9",
"l 	c #6966CA",
"m 	c #D0D0D0",
"n 	c #343095",
"o 	c #343434",
"p 	c #CECECE",
"q 	c #9291B5",
"r 	c #7A77BB",
"s 	c #CACACD",
"t 	c #ACABB9",
"u 	c #CFCFCF",
"v 	c #CDCDCD",
"w 	c #7C7AB9",
"x 	c #5751F7",
"y 	c #49494E",
"z 	c #9493B1",
"A 	c #5A55E2",
"B 	c #A2A2A2",
"C 	c #CCCCCC",
"D 	c #D8D8DA",
"E 	c #8C8AB6",
"F 	c #AEAEBD",
"G 	c #7C79B9",
"H 	c #020207",
"I 	c #93939E",
"J 	c #9392B0",
"K 	c #5550EA",
"L 	c #111117",
"M 	c #CBCBCB",
"N 	c #C1C1C9",
"O 	c #4D4B84",
"P 	c #A3A3A3",
"Q 	c #7371BE",
"R 	c #78779C",
"S 	c #9291AF",
"T 	c #101026",
"U 	c #B5B5B5",
"V 	c #CACACA",
"W 	c #C0BFC7",
"X 	c #1D1B54",
"Y 	c #5C5C5D",
"Z 	c #5650F7",
"` 	c #77769B",
" .	c #3C38AD",
"..	c #303030",
"+.	c #6A66C4",
"@.	c #0B0B21",
"#.	c #73737A",
"$.	c #6A68BF",
"%.	c #D1D1D2",
"&.	c #C9C9C9",
"*.	c #D3D3D6",
"=.	c #A3A2B9",
"-.	c #A09FB7",
";.	c #5B5B5C",
">.	c #77759B",
",.	c #202029",
"'.	c #5D58D9",
").	c #6A6A77",
"!.	c #323151",
"~.	c #C8C8C8",
"{.	c #5751F6",
"].	c #797980",
"^.	c #7673BD",
"/.	c #6461B0",
"(.	c #04040C",
"_.	c #5953D4",
":.	c #6A6976",
"<.	c #171541",
"[.	c #797979",
"}.	c #C6C6C6",
"|.	c #6763D0",
"1.	c #110F30",
"2.	c #6562AC",
"3.	c #4A495C",
"4.	c #5954E1",
"5.	c #413E98",
"6.	c #100F2E",
"7.	c #585788",
"8.	c #686868",
"9.	c #6C6AB7",
"0.	c #6C69B3",
"a.	c #C7C7C7",
"b.	c #C5C5C5",
"c.	c #7876BE",
"d.	c #A2A1B9",
"e.	c #100F2F",
"f.	c #525099",
"g.	c #423DBC",
"h.	c #454474",
"i.	c #14133A",
"j.	c #222053",
"k.	c #5853D4",
"l.	c #3B36A7",
"m.	c #4F4CA5",
"n.	c #221F60",
"o.	c #5F5F60",
"p.	c #5C56DE",
"q.	c #4C48CD",
"r.	c #424243",
"s.	c #B7B7BA",
"t.	c #A3A2AC",
"u.	c #C3C3C3",
"v.	c #C4C4C4",
"w.	c #AEADBE",
"x.	c #5852F5",
"y.	c #4B47BC",
"z.	c #7A7981",
"A.	c #5A54EE",
"B.	c #282572",
"C.	c #544FE0",
"D.	c #272558",
"E.	c #4F4BC7",
"F.	c #222061",
"G.	c #534EDB",
"H.	c #5853D3",
"I.	c #39358E",
"J.	c #524CE7",
"K.	c #464649",
"L.	c #141416",
"M.	c #7270A0",
"N.	c #6A6985",
"O.	c #C0C0C0",
"P.	c #7F7DBA",
"Q.	c #544EEF",
"R.	c #292855",
"S.	c #39359F",
"T.	c #25235E",
"U.	c #312D8C",
"V.	c #4D49BD",
"W.	c #353289",
"X.	c #353274",
"Y.	c #514BD8",
"Z.	c #5751F3",
"`.	c #38358E",
" +	c #07070A",
".+	c #080718",
"++	c #5853E7",
"@+	c #5D5D69",
"#+	c #C2C2C2",
"$+	c #474496",
"%+	c #38349E",
"&+	c #1A184B",
"*+	c #35326B",
"=+	c #37348A",
"-+	c #5651F7",
";+	c #1F1D48",
">+	c #37339D",
",+	c #1B1A4C",
"'+	c #1B194D",
")+	c #5751F4",
"!+	c #312F88",
"~+	c #4541C7",
"{+	c #544FEF",
"]+	c #C1C1C1",
"^+	c #A9A8BC",
"/+	c #0A091D",
"(+	c #423E9A",
"_+	c #3E3A9B",
":+	c #15133B",
"<+	c #0C0B24",
"[+	c #47439A",
"}+	c #534EED",
"|+	c #4D49B0",
"1+	c #524DE0",
"2+	c #4B46CF",
"3+	c #524CEB",
"4+	c #1A1845",
"5+	c #3E3AB2",
"6+	c #0C0B21",
"7+	c #363636",
"8+	c #161523",
"9+	c #0C0B1E",
"0+	c #9E9E9E",
"a+	c #9D9D9D",
"b+	c #9C9C9C",
"c+	c #9B9B9B",
"d+	c #8C8AAF",
"e+	c #232165",
"f+	c #2E2D3E",
"g+	c #4C46D8",
"h+	c #131237",
"i+	c #5450A7",
"j+	c #050505",
"k+	c #6C69B4",
"l+	c #222050",
"m+	c #4D48B9",
"n+	c #15133C",
"o+	c #4D48D9",
"p+	c #000001",
"q+	c #818181",
"r+	c #8D8D8D",
"s+	c #828282",
"t+	c #808080",
"u+	c #7F7F7F",
"v+	c #BEBEBE",
"w+	c #D5D5D6",
"x+	c #514F88",
"y+	c #0C0B22",
"z+	c #515151",
"A+	c #363298",
"B+	c #121222",
"C+	c #5350A7",
"D+	c #6F6CB7",
"E+	c #020206",
"F+	c #524DDE",
"G+	c #322F90",
"H+	c #212133",
"I+	c #4843CD",
"J+	c #0E0E0E",
"K+	c #B6B6B6",
"L+	c #BFBFBF",
"M+	c #BDBDBD",
"N+	c #606060",
"O+	c #2A2A2E",
"P+	c #5651E1",
"Q+	c #5350A6",
"R+	c #6E6CB7",
"S+	c #000002",
"T+	c #5852E3",
"U+	c #5550E4",
"V+	c #433FBF",
"W+	c #121212",
"X+	c #BCBCBC",
"Y+	c #2B287C",
"Z+	c #5B56D3",
"`+	c #4D47D8",
" @	c #726FB3",
".@	c #2A2778",
"+@	c #6E6BB6",
"@@	c #4A45D4",
"#@	c #5C59B2",
"$@	c #13122A",
"%@	c #181818",
"&@	c #BBBBBB",
"*@	c #A9A8B5",
"=@	c #414141",
"-@	c #605AD7",
";@	c #4E48D9",
">@	c #0F0F0F",
",@	c #A6A6B2",
"'@	c #181644",
")@	c #404040",
"!@	c #1C1A51",
"~@	c #0E0E0F",
"{@	c #63619E",
"]@	c #353535",
"^@	c #7A7A7A",
"/@	c #BABABA",
"(@	c #A1A1A1",
"_@	c #5F5AD7",
":@	c #3A3696",
"<@	c #A5A5B1",
"[@	c #656565",
"}@	c #6D6BB6",
"|@	c #525253",
"1@	c #332F92",
"2@	c #6C6A91",
"3@	c #707070",
"4@	c #B9B9B9",
"5@	c #8B89AB",
"6@	c #1B1B25",
"7@	c #A4A4B0",
"8@	c #8583A6",
"9@	c #545454",
"0@	c #5D59C9",
"a@	c #2D2980",
"b@	c #9796A2",
"c@	c #544FEB",
"d@	c #070716",
"e@	c #888888",
"f@	c #B8B8B8",
"g@	c #787878",
"h@	c #A3A3AF",
"i@	c #060511",
"j@	c #646464",
"k@	c #A7A7AF",
"l@	c #585858",
"m@	c #6B69AA",
"n@	c #37338A",
"o@	c #393939",
"p@	c #949494",
"q@	c #070707",
"r@	c #8A8A8A",
"s@	c #A3A2AE",
"t@	c #9A9A9A",
"u@	c #A6A6AE",
"v@	c #A8A7AE",
"w@	c #3E3E46",
"x@	c #B7B7B7",
"y@	c #C9C9CA",
"z@	c #7F7E85",
"A@	c #A5A5AD",
"B@	c #04030B",
"C@	c #575757",
"D@	c #B4B4B4",
"E@	c #A6A6A6",
"F@	c #A4A4AD",
"G@	c #010103",
"H@	c #9F9F9F",
"I@	c #B3B3B3",
"J@	c #B1B1B1",
"K@	c #B2B2B2",
"L@	c #B0B0B0",
"M@	c #AFAFAF",
". . . . . . . . . . . . . . . . . . . . . . . . . . . . . . . . . . . . . . . . . . . . . . . . ",
". . . . . . . . . . . . . . . . . . . . . . . . . . . . . . . . . . . . . . . . . . . . . . . . ",
". . . . . + . . + . . . . . . . . . . . . . . . . . . . . . . . . . . . . . . . . . . . . . . . ",
". . . . . . + . . + . . . . . . . . . . . . . . . . . . . . . . . . . . . . . . . . . . . . . . ",
". . . . + . + . . + . . . . . . . . . . . . . . . . . . . . . . . . . . . . . . . . . . . . . . ",
". . + + + . + . . + . . . . . . . . . . . . . . . . . . . . . . . . . . . . . . . . . . . . . . ",
". . + + + . + . . + . . . . . . . . . . . . . . . . . . . . . . . . . . . . . . . . . . . . . . ",
". . . . + . + . . + . . . . . . . . . . . . . . . . . . . . . . . . . . . . . . . . . . . . . . ",
". . . . . . + . . + . . . . . . . . . . . . . . . . . . . . . . . . . . . . . . . . . . . . . . ",
". . . . . + . . + . . . . . . . . . . . . . . . . . . . . . . . . . . . . . . . . . . . . . . . ",
". . . . . . . . . . . . . . . . . . . . . . . . . . . . . . . . . . . . . . . . . . . . . . . . ",
". . . . . . . . . . . . . . . . . . . . . . . . . . . . . . . . . . . . . . . . . . . . . . . . ",
". . . . . . . . . . . . . . . . . . . . . . . . . . . . . . . . . . . . . . . . . . . . . . . . ",
". @ @ @ @ @ @ @ @ @ @ @ # $ % & * = - ; > , ' ) ! ~ { ] ^ / ( _ + : < [ } | 1 2 3 4 5 6 7 8 9 . ",
". @ @ @ @ @ @ @ @ @ @ # $ % & 0 = - ; > , ' ) ! ~ { ] ^ / ( _ + : < a } | 1 2 3 4 5 6 7 8 9 b . ",
". @ @ @ @ @ @ @ @ @ # $ % & 0 = - ; > c ' ) ! ~ { ] ^ / ( _ + : < a } | 1 2 d 4 5 6 7 8 9 b e . ",
". @ @ @ @ @ @ @ @ # $ % & 0 = - ; > c ' ) ! ~ f ] ^ / ( g + : < a } | 1 2 d 4 5 6 7 h 9 b e i . ",
". @ @ @ @ @ @ @ j $ % & 0 * - ; > c ' ) ! / k l ^ / ( g + : < a [ | 1 2 d 4 5 6 7 h 9 b e i m . ",
". @ @ @ @ @ @ j $ % & 0 * - ; > c , ) ! ~ ( k n o ( g + : < a [ | 1 2 d 3 5 6 7 h 9 b e i m p . ",
". @ @ @ @ @ j $ % & 0 * - ; > c , ) q r } g k n o s t : < a [ | 1 2 d 3 5 6 7 h 8 b e i m u v . ",
". @ @ @ @ j # % & 0 * = ; > c , ) ! w x y 6 k n o z A B a [ } 1 2 d 3 5 6 7 h 8 b e i m u v C . ",
". @ @ @ j # % & 0 * = ; > c D E F ~ G x H I k n o J K L [ } 1 2 d 3 4 6 7 h 8 b e i m u v C M . ",
". @ @ j # % & 0 * = ; > c , N k O P Q x H R k n o S k T U 1 2 d 3 4 6 7 h 8 9 e i m u p C M V . ",
". @ j # $ & 0 * = - > c , ' W k X Y k Z H ` k  ...+.k @.#.$.%.3 4 6 7 h 8 9 e i m u p C M V &.. ",
". j # $ & 0 * = - > c *.=.) -.k X ;.k Z H >.k k ,.'.k @.).k !.u 5 7 h 8 9 e i m u p C M V &.~.. ",
". # $ & 0 * = - > c , =.{.].^.k X ;.k Z H /.k k (._.k @.:.k <.[.%.i 8 9 b i m u p v M V &.~.}.. ",
". $ % 0 * = - ; c , ' |.k 1.2.k X 3.k Z H 4.5.k (._.k 6.7.k <.8.9.0.u b i m u p v M V &.~.a.b.. ",
". % 0 * = - ; c c.d.) |.k e.f.k g.h.k Z i.4.j.k (.k.k l.m.k n.o.p.q.r.s.t.u.p v M V &.~.a.b.v.. ",
". 0 * = - ; c w.x.y.z.A.k B.C.k k D.E.n F.G.j.k (.H.k l.I.k J.K.k Z L.M.x N.O.C V &.~.a.b.v.u.. ",
". * = - ; > , P.x Q.R.x S.k k T.k U.V.W.X.Y.j.k <.Z.k l.`.k J. +k Z .+++x  .@+V &.~.a.}.v.u.#+. ",
". = - ; x x x x $+Z %+x &+k k &+k k *+=+Z -+;+k >+k ,+l.`.k J. +k Z '+)+!+~+{+x x x x x u.#+]+. ",
". - ; > ^+/+/+/+. (+Z _+:+k k &+k k <+[+k }+. |+k k &+1+2+k 3+4+k Z 5+x 6+7+8+9+/+/+/+/+. ]+O.. ",
". ; > c ' 0+a+b+c+d+Z e+f+k g+h+k k <+i+k }+j+k+k k &+k k l+}+k m+n+Z o+p+q+~.r+s+q+t+u+u+O.v+. ",
". > c ' ) ! ~ f ] w+x+y+z+k A+B+k k <+C+k }+j+D+k k E+k k E+F+k G+H+x I+J+K+a.}.b.u.#+]+O.L+M+. ",
". c ' ) ! ~ f ] ^ / b N+r+k A+O+P+g+. Q+k }+j+R+k k S+k k E+T+k G+O+U+V+W+a.}.b.u.#+]+O.L+M+X+. ",
". , ) ! ~ f ] ^ / ( g + a k Y+..Z+`+J+ @k .@j++@k @@S+k k E+T+k G+..#@$@%@}.b.v.#+]+O.L+M+X+&@. ",
". ) ! ~ f { ^ / ( g + : < *@S+=@-@;@>@,@k '@)@+@k !@~@k k E+{@k e...~.]@^@b.v.#+]+O.L+v+X+&@/@. ",
". ! ~ f { ^ / ( g _ : < a [ (@&._@:@>@<@k '@[@}@k !@|@k 1@. 2@k .+3@a.}.b.v.#+]+O.L+v+X+&@/@4@. ",
". ~ f { ^ / ( g _ : < a [ } 1 2 5@6@o 7@k '@[@8@k !@9@0@a@..b@c@d@e@}.b.v.u.]+O.L+v+X+&@/@4@f@. ",
". f { ] / ( g _ : < a [ } 1 2 d 3 g@B h@k i@j@k@k !@l@m@n@o@V p@q@r@b.v.u.]+O.L+v+M+&@/@4@f@K+. ",
". { ] / ( g _ + < a [ } 1 2 d 3 4 6 7 s@k p+t@u@k !@l@v@w@o@&.a.}.b.v.u.]+O.L+v+M+&@/@4@f@x@U . ",
". ] / ( g _ + < a [ } | 2 d 3 4 5 7 h y@z@. O.A@k B@C@M P b+~.}.b.v.u.#+O.L+v+M+&@/@4@f@x@U D@. ",
". ^ ( g _ + < a [ } | 2 d 3 4 5 7 h 8 9 a.E@C F@k G@H@V &.~.}.b.v.u.#+O.L+v+M+X+/@4@f@x@U D@I@. ",
". ( g _ + : a [ } | 2 d 3 4 5 7 h 8 9 b i m u p H@. J@&.~.}.b.v.u.#+O.L+v+M+X+/@4@f@x@K+D@I@K@. ",
". g _ + : a [ } | 1 d 3 4 5 6 h 8 9 b i m u p v M V &.~.a.b.v.u.#+]+L+v+M+X+/@4@f@x@K+D@I@K@J@. ",
". _ + : a [ } | 1 d 3 4 5 6 h 8 9 b e m u p v M V &.~.a.b.v.u.#+]+L+v+M+X+&@4@f@x@K+D@I@K@J@L@. ",
". + : < [ } | 1 d 3 4 5 6 h 8 9 b e m u p v C V &.~.a.b.v.u.#+]+L+v+M+X+&@4@f@x@K+U I@K@J@L@M@. ",
". . . . . . . . . . . . . . . . . . . . . . . . . . . . . . . . . . . . . . . . . . . . . . . . "};
