/* XPM */
static char * led_xpm[] = {
"122 11 3 1",
" 	c #282828",
".	c #00df00",
"X	c #004300",
"    ....        .     ....     ....    .    .     ....     ....    ....     ....     ....                                 ",
"   .    .       .         .        .   .    .    .        .            .   .    .   .    .                                ",
"  X.   X.      X.        X.       X.  X.   X.   X.       X.           X.  X.   X.  X.   X.                                ",
"  .X   .X      .X        .X       .X  .X   .X   .X       .X           .X  .X   .X  .X   .X  .                             ",
"  .    .       .         .        .   .    .    .        .            .   .    .   .    .   .                             ",
"  .   .        .    .....     ....     ....      ....    .....        .   .....    .....         .   .   .  ...  .   .    ",
" .    .       .    .             .        .         .   .    .       .   .    .        .        X.   .. ..  .  . .. ..    ",
"X.   X.      X.   X.            X.       X.        X.  X.   X.      X.  X.   X.       X.  .     . .  . . .  .  . . . .    ",
".X   .X      .X   .X            .X       .X        .X  .X   .X      .X  .X   .X       .X  .    .  . X.  X. X... X.  X.    ",
".    .       .    .             .        .         .   .    .       .   .    .        .        .... .X  .X .X   .X  .X    ",
" ....        .     ....     ....         .     ....     ....        .    ....     ....        .   . .   .  .    .   .     "};
