/* XPM */
static char * mycomputer_xpm[] = {
"48 48 222 2",
"  	c None",
". 	c #BFBFBF",
"+ 	c #FFFFFF",
"@ 	c #FEFEFE",
"# 	c #FDFDFD",
"$ 	c #FCFCFC",
"% 	c #FBFBFB",
"& 	c #FAFAFA",
"* 	c #F9F9F9",
"= 	c #F8F8F8",
"- 	c #F7F7F7",
"; 	c #F6F6F6",
"> 	c #F5F5F5",
", 	c #F4F4F4",
"' 	c #F3F3F3",
") 	c #F2F2F2",
"! 	c #F1F1F1",
"~ 	c #F0F0F0",
"{ 	c #EFEFEF",
"] 	c #EEEEEE",
"^ 	c #EDEDED",
"/ 	c #ECECEC",
"( 	c #EBEBEB",
"_ 	c #EAEAEA",
": 	c #E9E9E9",
"< 	c #E8E8E8",
"[ 	c #E7E7E7",
"} 	c #E6E6E6",
"| 	c #E5E5E5",
"1 	c #E4E4E4",
"2 	c #E3E3E3",
"3 	c #E2E2E2",
"4 	c #E1E1E1",
"5 	c #E0E0E0",
"6 	c #DFDFDF",
"7 	c #DEDEDE",
"8 	c #DDDDDD",
"9 	c #DCDCDC",
"0 	c #DBDBDB",
"a 	c #232323",
"b 	c #DADADA",
"c 	c #D9D9D9",
"d 	c #D8D8D8",
"e 	c #28262B",
"f 	c #EFEDF2",
"g 	c #867A9C",
"h 	c #86799C",
"i 	c #85799B",
"j 	c #85789B",
"k 	c #85789A",
"l 	c #84789A",
"m 	c #847899",
"n 	c #847799",
"o 	c #837799",
"p 	c #837798",
"q 	c #837698",
"r 	c #827698",
"s 	c #827697",
"t 	c #827596",
"u 	c #817596",
"v 	c #817595",
"w 	c #817495",
"x 	c #C2C2C4",
"y 	c #C2C2C3",
"z 	c #D7D7D7",
"A 	c #09090C",
"B 	c #4F4F52",
"C 	c #09080B",
"D 	c #807495",
"E 	c #6E6F80",
"F 	c #656566",
"G 	c #D6D6D6",
"H 	c #08080B",
"I 	c #827597",
"J 	c #646465",
"K 	c #D5D5D5",
"L 	c #737376",
"M 	c #737375",
"N 	c #737275",
"O 	c #807494",
"P 	c #C1C1C2",
"Q 	c #C7C7CA",
"R 	c #C7C7C9",
"S 	c #08080A",
"T 	c #07070A",
"U 	c #4E4E50",
"V 	c #070709",
"W 	c #060609",
"X 	c #060608",
"Y 	c #060507",
"Z 	c #050507",
"` 	c #050506",
" .	c #040406",
"..	c #4B4B4C",
"+.	c #040405",
"@.	c #6D6F80",
"#.	c #D4D4D4",
"$.	c #727275",
"%.	c #08070A",
"&.	c #070609",
"*.	c #4B4A4C",
"=.	c #D3D3D3",
"-.	c #C6C6C9",
";.	c #3E3E41",
">.	c #929295",
",.	c #929294",
"'.	c #929193",
").	c #919193",
"!.	c #909092",
"~.	c #909091",
"{.	c #8F8F91",
"].	c #8F8F90",
"^.	c #3A3A3B",
"/.	c #807394",
"(.	c #D2D2D2",
"_.	c #727274",
":.	c #3E3E40",
"<.	c #9C2CC1",
"[.	c #A37D0D",
"}.	c #7F7394",
"|.	c #6D6E7F",
"1.	c #636364",
"2.	c #D1D1D1",
"3.	c #7A7A7A",
"4.	c #69696B",
"5.	c #68686A",
"6.	c #908F91",
"7.	c #676769",
"8.	c #676668",
"9.	c #666668",
"0.	c #666667",
"a.	c #656567",
"b.	c #7F7393",
"c.	c #C0C0C1",
"d.	c #D0D0D0",
"e.	c #3E3D40",
"f.	c #C4C4C6",
"g.	c #C3C3C4",
"h.	c #8E8E8F",
"i.	c #6C6E7E",
"j.	c #CFCFCF",
"k.	c #3D3D40",
"l.	c #6A696C",
"m.	c #686869",
"n.	c #666567",
"o.	c #676768",
"p.	c #39393A",
"q.	c #636363",
"r.	c #CECECE",
"s.	c #3D3D3F",
"t.	c #C4C4C5",
"u.	c #8E8E90",
"v.	c #7E7292",
"w.	c #7E7191",
"x.	c #CDCDCD",
"y.	c #919192",
"z.	c #C4C3C5",
"A.	c #7F7293",
"B.	c #C3C3C5",
"C.	c #7D7191",
"D.	c #CCCCCC",
"E.	c #919092",
"F.	c #8E8E8E",
"G.	c #7E7291",
"H.	c #CBCBCB",
"I.	c #8D8D8E",
"J.	c #393939",
"K.	c #CACACA",
"L.	c #BDBDBF",
"M.	c #BDBDBE",
"N.	c #BCBCBE",
"O.	c #BCBCBD",
"P.	c #BBBBBD",
"Q.	c #BBBBBC",
"R.	c #BABABB",
"S.	c #BABABA",
"T.	c #B9B9BA",
"U.	c #7D7190",
"V.	c #C9C9C9",
"W.	c #18181A",
"X.	c #181719",
"Y.	c #171719",
"Z.	c #161618",
"`.	c #EEEDF2",
" +	c #C8C8C8",
".+	c #C5C5C7",
"++	c #717284",
"@+	c #C5C5C6",
"#+	c #707283",
"$+	c #9090A6",
"%+	c #6F7182",
"&+	c #7D7090",
"*+	c #EEEDF1",
"=+	c #C7C7C7",
"-+	c #C6C5C8",
";+	c #8F90A6",
">+	c #C6C6C6",
",+	c #20FC07",
"'+	c #C5C5C5",
")+	c #449B33",
"!+	c #C4C4C4",
"~+	c #C3C3C3",
"{+	c #1F1F1F",
"]+	c #1E1E1E",
"^+	c #161616",
"/+	c #2A2A2A",
"(+	c #474747",
"_+	c #383838",
":+	c #242424",
"<+	c #C0C0C0",
"[+	c #B5B5B5",
"}+	c #A9A9A9",
"|+	c #9E9E9E",
"1+	c #939393",
"2+	c #888888",
"3+	c #7D7D7D",
"4+	c #9B9B9B",
"5+	c #2D2D2D",
"6+	c #5C5C5C",
"7+	c #686868",
"8+	c #999999",
"9+	c #3F3F3F",
"                                                                                                ",
"        . . . . . . . . . . . . . . . . . . . . . . . . . . . . . . . . . . . . . . . .         ",
"        . + @ # $ % & * = - ; > , ' ) ! ~ { ] ^ / ( _ : < [ } | 1 1 2 3 4 5 6 7 8 9 0 a         ",
"        . @ # $ % & * = - ; > , ' ) ! ~ { ] ^ / ( _ : : < [ } | 1 2 3 4 5 6 7 8 9 0 b a         ",
"        . # $ % & * = - ; > , ' ) ! ~ { ] ] ^ / ( _ : < [ } | 1 2 3 4 5 6 7 8 9 0 b c a         ",
"        . $ % & * = - ; > , ' ' ) ! ~ { ] ^ / ( _ : < [ } | 1 2 3 4 5 6 7 8 9 0 b c d a         ",
"        . % & * = e e e e e e e e e e e e e e e e e e e e e e e e e e e e e f 0 b c d a         ",
"        . % & * = e g g h i i i j k l l m n o p p q r s s s t u u v w x y y f b c d z a         ",
"        . & * = - e g A A B C i k l l l n n o p p r s s s t u u v w D x E F f c d z G a         ",
"        . * = - ; e g A A B H k l l l n n o p p q s s s I u u u w w D y F J f d z G K a         ",
"        . = - ; > e h L L M N k l l m n o p p q r s s s t u u v w D O y y P f z G G K a         ",
"        . - ; > > e h Q Q Q R l S T U V V W X X X Y Z Z ` `  ...+.+.O y @.J f z G K #.a         ",
"        . - ; > , e i L M $.$.l %.T U V &.X X X X Z Z Z `  . .*.+.+.O y J J f G K #.=.a         ",
"        . ; > , ' e i Q Q R -.l ;.>.,.,.,.'.).).).!.!.!.~.~.{.].].^./.y P P f K #.=.(.a         ",
"        . > , ' ) e i M $.$._.l :.>.8 <.,.).).[.[.!.!.[.[.{.{.].].^.}.P |.1.f #.=.(.2.a         ",
"        . , ' ) ! e i Q R -.-.n :.,.3.,.).4.).[.!.5.!.[.6.7.].].].^.}.P J 1.f #.=.(.2.a         ",
"        . ' ' ) ! e j k l l m n :.5.5.5.7.7.7.7.8.9.9.0.0.a.F F F ^.b.P P c.f =.(.2.d.a         ",
"        . ' ) ! ~ e k l l l n n e.,.,.).).7.f.!.!.!.~.0.g.].].].h.^.b.P i.1.f (.2.d.j.a         ",
"        . ) ! ~ { e k l l n n o k.l.4.).).7.f.5.5.m.6.n.x o.o.h.h.p.b.P 1.q.f 2.d.j.r.a         ",
"        . ! ~ { ] e l l m n o p s.'.).).).7.t.!.~.~.{.a.x ].u.h.h.p.b.v.v.w.f d.j.r.x.a         ",
"        . ~ { ] ^ e l l n n o p s.4.4.4.y.o.z.m.m.{.{.F y o.h.h.h.p.A.v.v.w.f d.j.r.x.a         ",
"        . ~ { ] ^ e l m n o p p s.).).).!.9.B.~.6.{.].F y h.h.h.h.p.v.v.v.C.f j.r.x.D.a         ",
"        . { ] ^ / e m n o p p q s.4.4.E.!.9.B.m.7.o.].F y h.h.h.F.p.v.v.G.C.f r.x.D.H.a         ",
"        . ] ^ / ( e n n o p p q s.).y.!.!.9.B.{.{.].].F y h.h.F.I.J.v.v.w.C.f x.D.H.K.a         ",
"        . ^ / ( _ e n o p p q s L.L.L.M.N.N.O.O.P.P.Q.Q.Q.R.R.R.S.T.v.w.C.U.f D.H.H.K.a         ",
"        . / ( _ _ e o p p q r s s s t u u v w D D O /.}.b.b.b.v.v.v.G.w.C.U.f D.H.K.V.a         ",
"        . / ( _ : e W.W.W.X.Y.Y.Y.Z.Z.u u w D D O O }.b.b.b.A.v.v.v.w.C.C.U.`.H.K.V. +a         ",
"        . ( _ : < e .+++5.@+#+7.$+%+9.u w w D O O /.}.b.b.A.v.v.v.w.w.C.C.&+*+K.V. +=+a         ",
"        . _ : < [ e -+5.5..+7.7.;+9.9.v w D D O O /.b.b.b.A.v.v.v.G.C.U.&+&+*+V. +=+>+a         ",
"        . : < [ } f f f f f f f f f f f f f f f f f f f f f f f f f f `.*+*+*+V. +=+>+a         ",
"        . < < [ } | 1 2 3 4 5 6 7 8 9 0 b c d z G K #.=.(.2.d.j.r.x.x.D.H.K.V.,+,+>+'+a         ",
"        . < [ } | 1 2 3 4 5 6 7 8 9 0 b c d z G K #.=.(.(.2.d.j.r.x.D.H.K.V. +,+)+'+!+a         ",
"        . [ } | 1 2 3 4 5 6 7 8 9 0 b c d z z G K #.=.(.2.d.j.r.x.D.H.K.V. +=+>+'+!+~+a         ",
"        . {+{+{+{+{+{+]+^+^+^+^+^+^+^+^+^+^+^+^+^+^+^+^+^+^+^+^+^+^+^+]+{+{+{+{+{+{+{+a         ",
"                        /+/+/+/+/+/+/+/+/+/+/+/+/+/+/+/+/+/+/+/+/+/+/+                          ",
"                      (+_+_+_+_+_+_+_+_+_+_+_+_+_+_+_+_+_+_+_+_+_+_+_+(+                        ",
"      :+:+:+:+:+:+:+  0 0 0 0 0 0 0 0 0 0 0 0 0 0 0 0 0 0 0 0 0 0 0 0 0   :+:+:+:+:+:+:+:+      ",
"    :+<+[+}+|+1+2+3+4++ + + + + + + + + + + + + + + + + + + + + + + + + 4+3+2+1+|+}+[+<+5+:+    ",
"  6+6+6+6+6+6+6+6+6+6+6+6+6+6+6+6+6+6+6+6+6+6+6+6+6+6+6+6+6+6+6+6+6+6+6+6+6+6+6+6+6+6+6+6+6+/+  ",
"  6+4 5 5 6 6 7 7 8 8 9 0 0 b b c c d d z z G K K #.#.=.7++ (.2.2.d.j.j.r.r.x.x.D.D.H.H.K.V.{+  ",
"  6+4 5 5 6 6 7 7 8 8 9 0 0 b b c c d d z z G K K #.#.=.7++ (.2.2.d.j.j.r.r.x.x.D.D.H.H.K.V.{+  ",
"  6+4 ,+,+6 6 7 7 8 9 9 0 0 b b c c d d z G G K K #.#.=.7++ (.2.8+8+8+8+8+9+9+8+8+8+8+8+K.V.{+  ",
"  6+4 ,+)+6 6 7 8 8 9 9 0 0 b b c c d z z G G K K #.#.=.7++ 2.2.+ # # # # 9+9+# # # # + K.V.{+  ",
"  6+4 5 5 6 7 7 8 8 9 9 0 0 b b c d d z z G G K K #.#.=.7++ 2.2.d.d.j.j.r.r.x.D.D.H.H.K.K.V.{+  ",
"  6+4 5 6 6 7 7 8 8 9 9 0 0 b c c d d z z G G K K #.=.=.7++ 2.2.d.d.j.j.r.x.x.D.D.H.H.K.K.V.{+  ",
"  6+4 5 6 6 7 7 8 8 9 9 0 0 b c c d d z z G G K K #.=.=.7++ 2.2.d.d.j.j.r.x.x.D.D.H.H.K.K.V.{+  ",
"  6+{+{+{+{+{+{+{+{+{+{+{+{+{+{+{+{+{+{+{+{+{+{+{+{+{+{+{+{+{+{+{+{+{+{+{+{+{+{+{+{+{+{+{+{+{+  ",
"                                                                                                "};
