/* XPM */
static char *wmdigital_xpm[] = {
/* width height num_colors chars_per_pixel */
"    64    64       20            1",
/* colors */
". c None",
"# c #202020",
"a c #000000",
"b c #c7c7c7",
"c c #20b2ae",
"d c #004941",
"e c #007d71",
"f c #188a86",
"g c #969a96",
"h c #797d79",
"i c #696d69",
"j c #515951",
"k c #414d41",
"l c #303c30",
"m c #189a96",
"n c #088679",
"o c #007161",
"p c #006151",
"q c #004d41",
"r c #107d79",
/* pixels */
"................................................................",
"................................................................",
"................................................................",
"................................................................",
"....aaaaaaaaaaaaaaaaaaaaaaaaaaaaaaaaaaaaaaaaaaaaaaaaaaaaaaaa....",
"....a######################################################b....",
"....a######################################################b....",
"....a######################################################b....",
"....a###dddd###dddd#######dddd###dddd#######dddd###dddd####b....",
"....a##d####d#d####d##d##d####d#d####d##d##d####d#d####d###b....",
"....a##d####d#d####d##d##d####d#d####d##d##d####d#d####d###b....",
"....a##d####d#d####d#####d####d#d####d#####d####d#d####d###b....",
"....a###dddd###dddd#######dddd###dddd#######dddd###dddd####b....",
"....a##d####d#d####d#####d####d#d####d#####d####d#d####d###b....",
"....a##d####d#d####d##d##d####d#d####d##d##d####d#d####d###b....",
"....a##d####d#d####d##d##d####d#d####d##d##d####d#d####d###b....",
"....a###dddd###dddd#######dddd###dddd#######dddd###dddd####b....",
"....a######################################################b....",
"....a######################################################b....",
"....a######################################################b....",
"....a######################################################b....",
"....bbbbbbbbbbbbbbbbbbbbbbbbbbbbbbbbbbbbbbbbbbbbbbbbbbbbbbbb....",
"................................................................",
"................................................................",
"................................................................",
"................................................................",
"................................................................",
"................................................................",
"................................................................",
"................................................................",
"................................................................",
"................................................................",
"................................................................",
"................................................................",
"................................................................",
"................................................................",
"................................................................",
"................................................................",
"................................................................",
"................................................................",
"................................................................",
"................................................................",
"................................................................",
"................................................................",
"................................................................",
"................................................................",
"................................................................",
"................................................................",
"....aaaaaaaaaaaaaaaa..aaaaaaaaaaaaaaaaaaaaaaaaaaaaaaaaaaaaaa....",
"....a##############b..a####################################b....",
"....a##############b..a####################################b....",
"....a##############b..a####################################b....",
"....a##############b..a####################################b....",
"....a##############b..a####################################b....",
"....a##############b..a####################################b....",
"....a##############b..a####################################b....",
"....a##############b..a####################################b....",
"....a##############b..a####################################b....",
"....a##############b..a####################################b....",
"....bbbbbbbbbbbbbbbb..bbbbbbbbbbbbbbbbbbbbbbbbbbbbbbbbbbbbbb....",
"................................................................",
"................................................................",
"................................................................",
"................................................................"
};
