/* XPM */
static char * arrow_xpm[] = {
"7 8 5 1",
" 	c None",
".	c #000000",
"+	c #525552",
"@	c #ACAAAC",
"#	c #FFFFFF",
".+@@@@@",
".@+@@@@",
".@@++@@",
".@@@@+@",
".@@@@@#",
".@@@##@",
".@##@@@",
".#@@@@@"};
