/* XPM */
static char * FSVIEWER_XPM[] = {
"48 48 630 2",
"  	c None",
". 	c #D9D9F1",
"+ 	c #D8DAF2",
"@ 	c #D7D9F1",
"# 	c #D5D8F1",
"$ 	c #CFD1ED",
"% 	c #DADCF3",
"& 	c #DCDFF3",
"* 	c #D9DCF2",
"= 	c #D8D9F1",
"- 	c #D5D9F1",
"; 	c #D4D8F1",
"> 	c #D2D3EE",
", 	c #CBCEEA",
"' 	c #B7B8DF",
") 	c #D2D5EE",
"! 	c #D4D7F1",
"~ 	c #D9DBF1",
"{ 	c #D9DAF1",
"] 	c #D9DAF0",
"^ 	c #DBDEF2",
"/ 	c #D3D5ED",
"( 	c #B4B9E1",
"_ 	c #8B8EC1",
": 	c #7979AF",
"< 	c #7574A8",
"[ 	c #D4D5EE",
"} 	c #D4D5F0",
"| 	c #D7D8F0",
"1 	c #D5D9EF",
"2 	c #D4D7EE",
"3 	c #A09FCF",
"4 	c #7C7AB0",
"5 	c #7270A5",
"6 	c #7676AB",
"7 	c #807DB0",
"8 	c #7878AC",
"9 	c #CDCFEC",
"0 	c #CACCE9",
"a 	c #C8C8E8",
"b 	c #CDCDEA",
"c 	c #CBCDEC",
"d 	c #CECFED",
"e 	c #CFD0ED",
"f 	c #D0D1ED",
"g 	c #D1D3ED",
"h 	c #BBBFE5",
"i 	c #8B8FC1",
"j 	c #7170A7",
"k 	c #686797",
"l 	c #6F6FA4",
"m 	c #8582B3",
"n 	c #8A86B8",
"o 	c #7F7FB3",
"p 	c #B4B4DD",
"q 	c #9999CB",
"r 	c #A2A2CF",
"s 	c #B0ACD3",
"t 	c #B1ACD4",
"u 	c #B7B6DC",
"v 	c #BDBAE0",
"w 	c #C0C0E3",
"x 	c #C1C1E6",
"y 	c #C2C1E4",
"z 	c #C6C8E8",
"A 	c #CBCBEA",
"B 	c #C9CAE8",
"C 	c #CBCDEA",
"D 	c #A6A6D2",
"E 	c #7C7CB3",
"F 	c #636393",
"G 	c #666494",
"H 	c #6B689D",
"I 	c #7875A7",
"J 	c #807FB1",
"K 	c #8382B3",
"L 	c #B9B9DF",
"M 	c #A19FCF",
"N 	c #6C6B9D",
"O 	c #7471A4",
"P 	c #6D6CA4",
"Q 	c #7271A6",
"R 	c #8E8EC1",
"S 	c #8A89C1",
"T 	c #908EC1",
"U 	c #8F8DC0",
"V 	c #8F8BC1",
"W 	c #9392C5",
"X 	c #9497C7",
"Y 	c #9B9DCE",
"Z 	c #979BCD",
"` 	c #9D9DCC",
" .	c #A8A8D4",
"..	c #ABAAD3",
"+.	c #B1B0D9",
"@.	c #6868A0",
"#.	c #5E5D87",
"$.	c #66648F",
"%.	c #69679C",
"&.	c #706DA2",
"*.	c #807CAC",
"=.	c #8582B1",
"-.	c #8585B3",
";.	c #8A89BD",
">.	c #8083B4",
",.	c #BBBAE0",
"'.	c #9692C2",
").	c #7871A1",
"!.	c #706999",
"~.	c #5A536C",
"{.	c #6D6B9D",
"].	c #B4B3DC",
"^.	c #B2B0DB",
"/.	c #AFACD7",
"(.	c #A6A5CF",
"_.	c #9C9CCD",
":.	c #9694C7",
"<.	c #908FC2",
"[.	c #878ABE",
"}.	c #8586BD",
"|.	c #7979B3",
"1.	c #7D7AB0",
"2.	c #9FA1D0",
"3.	c #7976AC",
"4.	c #605F8A",
"5.	c #666492",
"6.	c #6C6BA0",
"7.	c #7170A5",
"8.	c #7876A8",
"9.	c #7C79AF",
"0.	c #8280B2",
"a.	c #8785B4",
"b.	c #8A89BF",
"c.	c #BABAE2",
"d.	c #989BCC",
"e.	c #B7B7DD",
"f.	c #BEBEE3",
"g.	c #B9B7DD",
"h.	c #B8B8DE",
"i.	c #BEBEE1",
"j.	c #C0BEE1",
"k.	c #BFBDE0",
"l.	c #B2B4DD",
"m.	c #B3B3DC",
"n.	c #ACACD8",
"o.	c #9F9FCF",
"p.	c #8085B9",
"q.	c #A7A6D2",
"r.	c #8583B7",
"s.	c #6C699F",
"t.	c #6D6BA0",
"u.	c #837DAC",
"v.	c #837FAF",
"w.	c #8585B7",
"x.	c #8A8AC0",
"y.	c #8282B6",
"z.	c #BAB9DF",
"A.	c #AFADD8",
"B.	c #C1C0E3",
"C.	c #BBBBDF",
"D.	c #B6B6DE",
"E.	c #B8B7DD",
"F.	c #C1BFE2",
"G.	c #B3B1DA",
"H.	c #ADACD7",
"I.	c #8585BE",
"J.	c #AAA8D2",
"K.	c #8585BA",
"L.	c #706FA4",
"M.	c #7472A5",
"N.	c #857FAC",
"O.	c #8580B0",
"P.	c #8B89BF",
"Q.	c #8383B7",
"R.	c #A4A2CF",
"S.	c #C0BFE2",
"T.	c #9898C8",
"U.	c #5B5A82",
"V.	c #6D6DA2",
"W.	c #7D7CB1",
"X.	c #9494C7",
"Y.	c #B1B3DC",
"Z.	c #B3B2DB",
"`.	c #B2B0D8",
" +	c #7F7DB0",
".+	c #A6A6D0",
"++	c #7572A7",
"@+	c #8B87B7",
"#+	c #8B8BC1",
"$+	c #BAB8DE",
"%+	c #ACACD5",
"&+	c #5B5B80",
"*+	c #A5A5D1",
"=+	c #9B99CB",
"-+	c #4E4D6B",
";+	c #8987BB",
">+	c #B3B2D9",
",+	c #1C1B20",
"'+	c #444460",
")+	c #A7A7D3",
"!+	c #8585B6",
"~+	c #716FA4",
"{+	c #7D79AB",
"]+	c #807DAD",
"^+	c #8B87B9",
"/+	c #8383B9",
"(+	c #B4B4DB",
"_+	c #ACABD4",
":+	c #1F1F27",
"<+	c #36364D",
"[+	c #4F4E6F",
"}+	c #5D5D87",
"|+	c #45425D",
"1+	c #8986B8",
"2+	c #B6B4DD",
"3+	c #2E2D3E",
"4+	c #3A3A55",
"5+	c #9999CD",
"6+	c #8383B4",
"7+	c #7D7AAA",
"8+	c #7979B1",
"9+	c #8B89B8",
"0+	c #8386BB",
"a+	c #B1B3DA",
"b+	c #A2A1CF",
"c+	c #C3C0E3",
"d+	c #7A79AC",
"e+	c #0C0D09",
"f+	c #030303",
"g+	c #030403",
"h+	c #070803",
"i+	c #18181D",
"j+	c #8987B9",
"k+	c #B0AFD7",
"l+	c #9B99C9",
"m+	c #7575AC",
"n+	c #8385B4",
"o+	c #7170A2",
"p+	c #A1A0CF",
"q+	c #7271A8",
"r+	c #0D0C08",
"s+	c #151618",
"t+	c #AFADD5",
"u+	c #AAAAD5",
"v+	c #8987BE",
"w+	c #ABA8D2",
"x+	c #7674A8",
"y+	c #857DAD",
"z+	c #8D89BF",
"A+	c #8586BA",
"B+	c #BEBDE2",
"C+	c #807FB3",
"D+	c #0D0D09",
"E+	c #12100E",
"F+	c #0B0D08",
"G+	c #18191F",
"H+	c #8585B8",
"I+	c #7976A8",
"J+	c #7D7CAF",
"K+	c #8B86B6",
"L+	c #8585BB",
"M+	c #A1A0CE",
"N+	c #A5A5D3",
"O+	c #B7B7DF",
"P+	c #B4B7DD",
"Q+	c #B0B0D9",
"R+	c #9998CA",
"S+	c #8582B6",
"T+	c #63608B",
"U+	c #474663",
"V+	c #3D3D55",
"W+	c #8D8BBF",
"X+	c #B3B1D9",
"Y+	c #B0ADD8",
"Z+	c #8686BF",
"`+	c #A0A2CF",
" @	c #A0A0CF",
".@	c #A7AAD3",
"+@	c #B0B0D8",
"@@	c #B2B1DA",
"#@	c #B1B1DC",
"$@	c #868DC3",
"%@	c #7679B1",
"&@	c #7F7DB2",
"*@	c #AAACD5",
"=@	c #9D9DCE",
"-@	c #9897C7",
";@	c #9896C8",
">@	c #A19FCD",
",@	c #ADACD4",
"'@	c #8786BA",
")@	c #6F6CA1",
"!@	c #A7A6D0",
"~@	c #ADB0D9",
"{@	c #A6A5D1",
"]@	c #A2A1CD",
"^@	c #9393C6",
"/@	c #A1A1CF",
"(@	c #ACACD3",
"_@	c #ADACD3",
":@	c #908DBE",
"<@	c #7A79AF",
"[@	c #8985B4",
"}@	c #8D87B7",
"|@	c #59577A",
"1@	c #7F7CAF",
"2@	c #9C9CCB",
"3@	c #8986BD",
"4@	c #7875AA",
"5@	c #8986B6",
"6@	c #8A87BE",
"7@	c #4B455B",
"8@	c #13120F",
"9@	c #0B0C03",
"0@	c #0E0E09",
"a@	c #131414",
"b@	c #20202B",
"c@	c #2B2A38",
"d@	c #71668B",
"e@	c #948DBE",
"f@	c #A09FCD",
"g@	c #7F7FB1",
"h@	c #8D87B9",
"i@	c #9290C3",
"j@	c #5D5876",
"k@	c #483D39",
"l@	c #7F4B1C",
"m@	c #854C15",
"n@	c #574927",
"o@	c #4B423E",
"p@	c #343448",
"q@	c #212330",
"r@	c #200E06",
"s@	c #120B03",
"t@	c #10100C",
"u@	c #313041",
"v@	c #535275",
"w@	c #636292",
"x@	c #7975AC",
"y@	c #9493C3",
"z@	c #7472A7",
"A@	c #7C7CB1",
"B@	c #827DB4",
"C@	c #7F7886",
"D@	c #CFBE48",
"E@	c #E0CC24",
"F@	c #DDCE2D",
"G@	c #E0CD45",
"H@	c #DECD7A",
"I@	c #CEBE64",
"J@	c #B27F2A",
"K@	c #877692",
"L@	c #625E62",
"M@	c #602C0A",
"N@	c #4C1003",
"O@	c #0C0E03",
"P@	c #151414",
"Q@	c #33303D",
"R@	c #9F9CCB",
"S@	c #8685B9",
"T@	c #8F8FC5",
"U@	c #B64B54",
"V@	c #A53830",
"W@	c #57302E",
"X@	c #A55450",
"Y@	c #B099A6",
"Z@	c #BFACB3",
"`@	c #C9B3B9",
" #	c #C5BABE",
".#	c #9B8558",
"+#	c #CABF86",
"@#	c #D1D1E9",
"##	c #DADAED",
"$#	c #DBCCE2",
"%#	c #C2A6B1",
"&#	c #BBA71A",
"*#	c #C2AC0F",
"=#	c #96260B",
"-#	c #7C495B",
";#	c #7876AC",
">#	c #9090C6",
",#	c #878AC0",
"'#	c #A5A7D3",
")#	c #BDBFE4",
"!#	c #C3C3E6",
"~#	c #C6C5E7",
"{#	c #BBB7D3",
"]#	c #C585A5",
"^#	c #BE5A6D",
"/#	c #B34D59",
"(#	c #A84635",
"_#	c #A63328",
":#	c #702B26",
"<#	c #5B2D30",
"[#	c #7C4759",
"}#	c #796C9C",
"|#	c #6D6DA7",
"1#	c #7074AD",
"2#	c #626294",
"3#	c #9B8E78",
"4#	c #D4C155",
"5#	c #ACA476",
"6#	c #666696",
"7#	c #7675A7",
"8#	c #7676AC",
"9#	c #8587BB",
"0#	c #7D82B4",
"a#	c #9294C7",
"b#	c #A5A4D0",
"c#	c #B0B0DB",
"d#	c #BDBDE2",
"e#	c #BAB7D5",
"f#	c #BFA7CE",
"g#	c #CA93B8",
"h#	c #BA798F",
"i#	c #AF6254",
"j#	c #85362D",
"k#	c #7F2A22",
"l#	c #82251A",
"m#	c #833D49",
"n#	c #8A8DC2",
"o#	c #252632",
"p#	c #12120F",
"q#	c #696898",
"r#	c #6D6CA1",
"s#	c #7D7AAD",
"t#	c #8685B6",
"u#	c #8B8AC0",
"v#	c #7C79B1",
"w#	c #B4B7DF",
"x#	c #C1C3E6",
"y#	c #BBBEE3",
"z#	c #B4B3DA",
"A#	c #B7ADD5",
"B#	c #B17FA1",
"C#	c #AC4144",
"D#	c #C7BAE0",
"E#	c #494866",
"F#	c #0C0B03",
"G#	c #0B0C06",
"H#	c #6B6BA0",
"I#	c #7C7CAF",
"J#	c #686896",
"K#	c #837CAC",
"L#	c #827FAF",
"M#	c #7F82B3",
"N#	c #9C9FCF",
"O#	c #676693",
"P#	c #A4A4D0",
"Q#	c #8989BF",
"R#	c #333044",
"S#	c #201E25",
"T#	c #090B03",
"U#	c #0B0C05",
"V#	c #575778",
"W#	c #676794",
"X#	c #68689B",
"Y#	c #7F7CAB",
"Z#	c #7F7CAC",
"`#	c #7C78AC",
" $	c #8E87BE",
".$	c #676797",
"+$	c #7A7AB2",
"@$	c #898DC1",
"#$	c #8E8EC3",
"$$	c #8B8BBF",
"%$	c #8686B6",
"&$	c #67669B",
"*$	c #5E5D85",
"=$	c #44415B",
"-$	c #373448",
";$	c #575576",
">$	c #605E89",
",$	c #7574A6",
"'$	c #7F7AAD",
")$	c #827FB1",
"!$	c #8E89BA",
"~$	c #37354C",
"{$	c #494769",
"]$	c #484764",
"^$	c #4D4C67",
"/$	c #5B5A7C",
"($	c #8280B4",
"_$	c #4F4E6C",
":$	c #474660",
"<$	c #5F5D87",
"[$	c #7A78AA",
"}$	c #827DAD",
"|$	c #726FA4",
"1$	c #8D87BB",
"2$	c #3E3D58",
"3$	c #6F6DA2",
"4$	c #7472AA",
"5$	c #525270",
"6$	c #5E5E89",
"7$	c #8F92C5",
"8$	c #898BBF",
"9$	c #60608B",
"0$	c #50526F",
"a$	c #3C3C57",
"b$	c #343246",
"c$	c #525071",
"d$	c #63628F",
"e$	c #686898",
"f$	c #7C79AB",
"g$	c #11100D",
"h$	c #171718",
"i$	c #25242F",
"j$	c #403F5B",
"k$	c #3D3D58",
"l$	c #8E8BC1",
"m$	c #4C4C67",
"n$	c #42405D",
"o$	c #343345",
"p$	c #4D4C6C",
"q$	c #59597A",
"r$	c #686893",
"s$	c #6B699C",
"t$	c #7C78AA",
"u$	c #716DA2",
"v$	c #837FAC",
"w$	c #0E0E0B",
"x$	c #58577A",
"y$	c #403F58",
"z$	c #333041",
"A$	c #302D3E",
"B$	c #585879",
"C$	c #686794",
"D$	c #69689B",
"E$	c #080903",
"F$	c #8D8ABE",
"G$	c #535375",
"H$	c #212127",
"I$	c #1E1D24",
"J$	c #2C2A35",
"K$	c #121212",
"L$	c #7978AD",
"M$	c #1D1D24",
"N$	c #0D0E0D",
"O$	c #090C03",
"P$	c #64648F",
"Q$	c #8A85B4",
"R$	c #504F72",
"S$	c #27252E",
"T$	c #37364B",
"U$	c #141313",
"V$	c #0E0E07",
"W$	c #4B4B68",
"X$	c #676494",
"Y$	c #666390",
"Z$	c #4D4C69",
"`$	c #353549",
" %	c #64628F",
".%	c #535374",
"+%	c #23232C",
"@%	c #1D1C21",
"#%	c #1E1B20",
"$%	c #42445D",
"%%	c #555576",
"&%	c #5E5B85",
"*%	c #62608B",
"=%	c #7A78AC",
"-%	c #7D7AAC",
";%	c #7975AA",
">%	c #7976AB",
",%	c #1A191C",
"'%	c #21212A",
")%	c #0B0C04",
"!%	c #42425D",
"~%	c #535272",
"{%	c #5D5D83",
"]%	c #5B5A7F",
"^%	c #42425F",
"/%	c #7271A4",
"(%	c #7875AC",
"_%	c #7876AF",
":%	c #7D7DAD",
"<%	c #4E4E71",
"[%	c #373549",
"}%	c #25242D",
"|%	c #050703",
"1%	c #181719",
"2%	c #484863",
"3%	c #545475",
"4%	c #5A5A7F",
"5%	c #6D6C9F",
"6%	c #837FB1",
"7%	c #4F4F70",
"8%	c #1F1E26",
"9%	c #0C0C07",
"0%	c #2E2C38",
"a%	c #4D4D6B",
"b%	c #525275",
"c%	c #726FA1",
"d%	c #6C699C",
"e%	c #7674A6",
"f%	c #7574AB",
"g%	c #555478",
"h%	c #212028",
"i%	c #070903",
"j%	c #302E3A",
"k%	c #494964",
"l%	c #2C2733",
"m%	c #272632",
"n%	c #38374E",
"o%	c #5B597A",
"p%	c #67648F",
"q%	c #7471A6",
"r%	c #7876AB",
"s%	c #4E4E6C",
"t%	c #0E0E06",
"u%	c #0F100C",
"v%	c #282837",
"w%	c #1E1F28",
"x%	c #1B1A21",
"y%	c #11110E",
"z%	c #18181C",
"A%	c #2A2836",
"B%	c #413E57",
"C%	c #5B5B7D",
"D%	c #7975A7",
"E%	c #181718",
"F%	c #18181E",
"G%	c #1C1C25",
"H%	c #161618",
"I%	c #18181A",
"J%	c #403F5A",
"K%	c #413E59",
"L%	c #1F1D22",
"M%	c #2A2735",
"                                                                                                ",
"                                              . . + . @ @ #                                     ",
"                                    $ @ . . % & & & & & % * % = = @ @ @ - # ; > , '             ",
"                                ) ! @ ~ { ] ~ { ^ { { { ~ ] ~ ] ] ] ] ] { / ( _ : <             ",
"                            [ } ; @ * * * { ~ ] ] ] ] ] ] | | 1 ) 2 1 , 3 4 5 6 7 8             ",
"                        9 0 a b c 9 d e d e $ f g ) 1 | ] } [ ) $ h i j k l 4 m n o             ",
"                        p q r r s t u u v w x y z a A b B b C D E F G H 5 I J K n o             ",
"                        L M N O P Q R S T U V W X Y Z `  ...+.@.#.$.%.&.I *.=.-.;.>.            ",
"                        ,.'.).!.~.{.w ].^./.(._.:.<.[.}.|.1.2.3.4.5.6.7.8.9.0.a.b.>.            ",
"                        c.d.e.f.g.h.i.j.j.j.k.l.l.m.+.n.o.p.q.r.s.t.&.5 u.v.0.w.x.y.            ",
"                        z.r A.B.B.i.C.D.E.k.F.,.p m.G.H.q.I.J.K.&.&.L.M.N.O.-.P._ Q.            ",
"                        h.R.n.B.S.B.T.U.$.V.W.X.Y.Z.G.`. +W..+K.&.&.L.++*.J @+_ #+Q.            ",
"                        $+R.%+S.j.S.W.&+*+=+-.-+;+>+>+$+,+'+)+!+N &.~+{+]+0.^+_ _ /+            ",
"                        (+R._+j.j.F.W.:+<+[+}+|+1+>+>+2+3+4+5+6+N &.M.7+8+K 9+_ R 0+            ",
"                        a+b+..j.j.c+d+e+f+g+h+i+j+>+`.k+l+m+r n+N &.o+8.]+K @+_ R 0+            ",
"                        a+p+..j.k.S.q+r+f+f+f+s+j+>+`.t+u+v+w+w.N &.o+x+y+m -.z+R A+            ",
"                        +.p+..j.L B+C+s+D+E+F+G+H+G.t+t+u+v+w+w.N &.M.I+J+K K+z+#+L+            ",
"                        `.M+N+O+P+p Q+R+S+T+U+V+W+X+Y+t+u+Z+w+w.N &.M.8.8+0.-.z+_ /+            ",
"                        `.`+ @.@+@>+@@@@#@E.E.G.`.t+t+t+u+$@_+w.N &.M.7+%@&@K+P._ Q.            ",
"                        H.Q+*@=@-@;@R+=+>@,@t+X+Y+t+t+t+u+$@_+'@)@&.M.7+8+K K+P._ Q.            ",
"                        ,@!@`.~@@@,@{@]@W R W ^@l+/@(@t+%+<._@:@&.&.I+<@0.[@}@P._ Q.            ",
"                        w+&+U+|@H 1@>@{@t+t+!@(.2@^@R W ^@:.(@3@&.~+4@4 K 5@6@_ <.Q.            ",
"                        !@7@8@9@0@a@b@c@7@d@e@f@q.t+t+q.(.(@/.3@&.M.d+g@K h@z+#+i@Q.            ",
"                        )+j@k@l@m@n@o@p@q@r@s@t@,+u@v@w@x@y@J.3@L.z@A@K a.;._ #+i@0+            ",
"                        h.B@C@D@E@F@G@H@I@J@K@L@M@N@9@O@P@Q@R@S@6.z@7 K h@P._ #+T@L+            ",
"                        U@V@W@X@Y@Z@`@ #.#+#@###$#%#&#*#=#-#r !+N M.;#g@}@b.x.#+>#L+            ",
"              ,#'##@)#!#~#{#]#^#/#(#_#:#<#[#}#|#1#2#3#4#5#6#Z K N o+7#8#0.@+b.#+T@9#            ",
"              0#i@a#a#>#b#c#d#z w e#f#g#h#i#j#k#l#m#n#a#o#p#W+K q#r#o+M.s#C+t#u##+/+            ",
"              v#_ <.T@a#a#a#a#X =@n.w#x#y#z#A#B#C#D# @E#F#G#H#I#J#)@~+M.K#L#0.a.;.M#            ",
"              6 P.x._ <.>#X X X X X X a#N#=+^@O#P#Q#R#S#T#U#V#W#X#)@5 M.Y#Z#A@K @+s#            ",
"              `# $x._ 1+.$+$@$X X X X #$$$%$K &$*$=$-$S#T#U#;$>$O#)@L.M.,$Y#Z#K K '$            ",
"              )$!$ $P.L#~${$]$^$/$($T@#+'@K K .$_$:$-$S#T#U#;$<$$.N &.~+,$[$u.}$)$|$            ",
"              m t#1$z+Z#2$3$4$3$5$6$7$8$w.K o 9$0$a$b$S#T#U#c$<$d$e$&.~+M.I {+f$x+N             ",
"              =.m -.^+-.g$h$i$j$k$&+l$1$t#K g@&+m$n$o$S#T#U#p$q$<$r$s$&.L.++t$u$L.              ",
"              v$=.m t#-.f+f+f+f+w$<$V h@a.K J x$y$z$A$S#h+U#p$B$<$C$J#t.L.3$D$                  ",
"              {+J+=.K K f+f+f+f+E$d$F$h@a.K J G$H$I$J$K$f+U#p$B$<$O#J#t.)@%.                    ",
"              7#L$: =.=.M$N$O$g+E$P$;+Q$-.K J R$S$T$U$V$E$U#W$B$<$5.q#X$Y$x$                    ",
"              5 [$L$<@W.z@O#Z$`$o# %5@K K K J .%+%h$@%#%T#9@$%%%&%5.T+*%                        ",
"              &.Q I =%-%]+&@-.J ;%>%=.=.K K 7 c$,%'%'%S#g+)%!%~%{%]%&%^%                        ",
"              6.L./%M.x+(%_%1@O.=.m =.=.m m :%<%t@[%}%V$|%1%2%0$3%4%                            ",
"              Q &.5%7.M.,$8.8.Y#y+4 1@6%m m J+7%8%b@O@f+9%0%U+m$a%                              ",
"              b%L+=%c%d%&.e%x+8.7#f%=%}$J 0.s#g%h%i%f+f+9%j%|+k%                                ",
"                    [%l%m%n%U+o%p%q%=%r% +0.6 s%t@E$t%u%    v%                                  ",
"                        w%x%K$y%z%A%B%C%D%L#6 [+E%K$                                            ",
"                              F%:+G%H%U$I%J$J%K%L%                                              ",
"                                        M%A%i$                                                  ",
"                                                                                                ",
"                                                                                                "};
