/* XPM */
static char * list_dir_xpm[] = {
"18 18 156 2",
"  	c None",
". 	c #8A827B",
"+ 	c #C7B5A7",
"@ 	c #5F5853",
"# 	c #C8C2BE",
"$ 	c #A89B91",
"% 	c #BAAFA5",
"& 	c #C9B7A9",
"* 	c #BEA794",
"= 	c #AE8F76",
"- 	c #AE8E75",
"; 	c #7B6F66",
"> 	c #C9C7C4",
", 	c #9A8574",
"' 	c #82654E",
") 	c #81654E",
"! 	c #978373",
"~ 	c #AD9785",
"{ 	c #997B63",
"] 	c #A2856E",
"^ 	c #C0AA9A",
"/ 	c #C9BBAF",
"( 	c #B6A99D",
"_ 	c #8F7E6F",
": 	c #594737",
"< 	c #CAC0B8",
"[ 	c #846C58",
"} 	c #7B604A",
"| 	c #81664F",
"1 	c #9D8674",
"2 	c #B4A293",
"3 	c #C1B1A5",
"4 	c #B1A092",
"5 	c #8B7460",
"6 	c #755C45",
"7 	c #6E5742",
"8 	c #68533E",
"9 	c #453729",
"0 	c #BEBBB9",
"a 	c #8C7B6C",
"b 	c #745D4A",
"c 	c #9B8A7B",
"d 	c #B4A599",
"e 	c #C2B3A6",
"f 	c #B29D8C",
"g 	c #947962",
"h 	c #856950",
"i 	c #7D624B",
"j 	c #775E47",
"k 	c #715943",
"l 	c #6B5440",
"m 	c #65503C",
"n 	c #392E21",
"o 	c #A4A19E",
"p 	c #654F3D",
"q 	c #6A5441",
"r 	c #C5B4A7",
"s 	c #9F8066",
"t 	c #947359",
"u 	c #8E6F56",
"v 	c #876A52",
"w 	c #80654D",
"x 	c #795F49",
"y 	c #745B45",
"z 	c #6D5641",
"A 	c #67523E",
"B 	c #604C39",
"C 	c #271F16",
"D 	c #686663",
"E 	c #5F4A39",
"F 	c #776454",
"G 	c #BCA898",
"H 	c #96755B",
"I 	c #907057",
"J 	c #8A6C53",
"K 	c #84674F",
"L 	c #765D46",
"M 	c #705843",
"N 	c #6A533F",
"O 	c #634F3B",
"P 	c #594735",
"Q 	c #1A140F",
"R 	c #676563",
"S 	c #594635",
"T 	c #7F6F62",
"U 	c #B59E8C",
"V 	c #937358",
"W 	c #8C6E55",
"X 	c #866951",
"Y 	c #725A44",
"Z 	c #6C5641",
"` 	c #66503D",
" .	c #604D39",
"..	c #534231",
"+.	c #0C0A07",
"@.	c #676462",
"#.	c #534232",
"$.	c #807265",
"%.	c #A48872",
"&.	c #8F7056",
"*.	c #896C53",
"=.	c #83664F",
"-.	c #7C624B",
";.	c #765C46",
">.	c #69533F",
",.	c #624E3B",
"'.	c #5C4A37",
").	c #4D3E2E",
"!.	c #666462",
"~.	c #4D3D2E",
"{.	c #968B81",
"].	c #9D806A",
"^.	c #8B6D54",
"/.	c #7F644C",
"(.	c #795F48",
"_.	c #5E4B38",
":.	c #584634",
"<.	c #3A2F22",
"[.	c #656361",
"}.	c #47392B",
"|.	c #ADA49C",
"1.	c #967A63",
"2.	c #886A52",
"3.	c #81664E",
"4.	c #7B614A",
"5.	c #755C46",
"6.	c #614D3A",
"7.	c #5A4836",
"8.	c #646361",
"9.	c #423427",
"0.	c #A4998F",
"a.	c #8C6F57",
"b.	c #7E634C",
"c.	c #785E48",
"d.	c #715944",
"e.	c #6A543F",
"f.	c #61605F",
"g.	c #362B20",
"h.	c #BDB2A9",
"i.	c #7A6049",
"j.	c #745C45",
"k.	c #5F4C39",
"l.	c #5E5E5E",
"m.	c #2C231B",
"n.	c #D3C9C1",
"o.	c #82674F",
"p.	c #765D47",
"q.	c #606060",
"r.	c #241F1A",
"s.	c #C0B1A5",
"t.	c #7F634C",
"u.	c #554332",
"v.	c #6F6E6D",
"w.	c #AA9B8D",
"x.	c #5C4837",
"y.	c #868686",
"                        . + @       ",
"          # $     % & * = - ; >     ",
"        , ' ) ! ~ { ] ^ / ( _ :     ",
"      < [ } | 1 2 3 4 5 6 7 8 9     ",
"  0 a b c d e f g h i j k l m n     ",
"  o p q r s t u v w x y z A B C     ",
"  D E F G H I J K i L M N O P Q     ",
"  R S T U V W X w x Y Z `  ...+.    ",
"  @.#.$.%.&.*.=.-.;.7 >.,.'.).      ",
"  !.~.{.].^.h /.(.Y l m _.:.<.      ",
"  [.}.|.1.2.3.4.5.7 A 6.7.).        ",
"  8.9.0.a.K b.c.d.e.O :.            ",
"  f.g.h.X w i.j.z k.                ",
"  l.m.n.o.i p.N                     ",
"  q.r.s.t.5.u.                      ",
"    v.w.x.                          ",
"    y.                              ",
"                                    "};
