/* XPM */
static char * list_exe_xpm[] = {
"14 16 50 1",
" 	c None",
".	c #D0D0D0",
"+	c #000100",
"@	c #000000",
"#	c #000002",
"$	c #D1D1D1",
"%	c #7C7E7D",
"&	c #9A9C9B",
"*	c #9C9C9C",
"=	c #7D7D7D",
"-	c #9C9C9E",
";	c #9B9C9E",
">	c #C8C9CB",
",	c #CACACA",
"'	c #C9C9C9",
")	c #DEDEDE",
"!	c #DEDEE0",
"~	c #C9C9CB",
"{	c #7C7D7F",
"]	c #DEDEDC",
"^	c #CAC9C7",
"/	c #9D9C9A",
"(	c #9C9C9A",
"_	c #C9C9C7",
":	c #FFFFFF",
"<	c #FEFFFF",
"[	c #CACACC",
"}	c #C9CACC",
"|	c #010000",
"1	c #CAC8C9",
"2	c #7D7D7F",
"3	c #010101",
"4	c #DDDDDD",
"5	c #E0DFDD",
"6	c #DFDEDC",
"7	c #DFDDDE",
"8	c #7E7C7D",
"9	c #9B9B99",
"0	c #7E7D7B",
"a	c #9D9B9C",
"b	c #9E9C9D",
"c	c #D0D0D2",
"d	c #D0D1D5",
"e	c #CFCFD1",
"f	c #D1D1D3",
"g	c #7C7D81",
"h	c #020001",
"i	c #030102",
"j	c #010103",
"k	c #7E7E80",
".++@@@@@@@@##$",
"@%&**=***=*--@",
"@;>,'),''!~,=@",
"@{>@@@@@)'')*@",
"@*)@@++#'']^/@",
"@(_@:<<#~,_)=@",
"@(]@:::#[))~-@",
"@='@:::@)'~>;@",
"#;}@|@@|1)~~23",
"#{>45__67'~!-@",
"@**8/9(0a**8b@",
"@33||@@||@@||@",
"cc..@@@||@ccc$",
"def**=*aa2-fc.",
"g-2@@@@hij#-k*",
"###@@@@||@###@"};
