/* XPM */
static char * list_file_xpm[] = {
"14 16 37 1",
" 	c None",
".	c #9C9C9A",
"+	c #7D7D7F",
"@	c #9C9C9E",
"#	c #9C9C9C",
"$	c #9D9D9B",
"%	c #7C7C7C",
"&	c #D0D0D0",
"*	c #FFFFFF",
"=	c #FFFFFD",
"-	c #FEFEFE",
";	c #DFDFDF",
">	c #000000",
",	c #7E7C7D",
"'	c #010101",
")	c #CAC9C7",
"!	c #9D9B9C",
"~	c #FFFEFF",
"{	c #DFDDDE",
"]	c #9D9D9D",
"^	c #000002",
"/	c #C9C9C9",
"(	c #FEFEFF",
"_	c #C9C9CB",
":	c #9B9B9D",
"<	c #CACACC",
"[	c #DEDEE0",
"}	c #010000",
"|	c #CAC8C9",
"1	c #FFFDFE",
"2	c #000100",
"3	c #7D7D7D",
"4	c #FEFFFF",
"5	c #DEDEDE",
"6	c #C8C8C8",
"7	c #CACACA",
"8	c #D0D0D2",
"...+@#.+##$%#&",
"#*********=-;>",
",*>*'>*-***=)>",
"!**********~{>",
"]*>>*^^>>'>*/>",
"%**********(_>",
":*>>>>>>>*>(<>",
"@****--*****[>",
",*>>>>>}}>*~|>",
"!**==**~~--1{>",
"!-2>>>>>>---/>",
"3*4==*******/'",
"@*'>>>>>>^^*/>",
"@*-*********5>",
"+5/__56__56/7>",
"8>>^^>>>>>>>>>"};
